<svg id="icones" xmlns="http://www.w3.org/2000/svg" xmlns:xlink="http://www.w3.org/1999/xlink" viewBox="0 0 960 288"><defs><style>.cls-1{fill:#c06f6c;}.cls-2{fill:#5e4b4b;}.cls-3{fill:url(#Gradiente_sem_nome);}.cls-4{fill:url(#Gradiente_sem_nome_2);}.cls-5{fill:#5e75a0;}.cls-6{fill:#d3ad6a;}.cls-7{fill:#d8e4e3;}.cls-8{fill:#414951;}.cls-9{fill:#6caca0;}.cls-10{fill:#5b564f;}.cls-11{fill:#51605c;}.cls-12{fill:url(#Gradiente_sem_nome_3);}.cls-13{fill:url(#Gradiente_sem_nome_4);}.cls-14{fill:url(#Gradiente_sem_nome_5);}.cls-15{fill:url(#Gradiente_sem_nome_6);}.cls-16{fill:url(#Gradiente_sem_nome_7);}.cls-17{fill:url(#Gradiente_sem_nome_8);}.cls-18{fill:#556464;stroke:#566564;}.cls-18,.cls-19,.cls-22{stroke-miterlimit:10;}.cls-18,.cls-19{stroke-width:0.4px;}.cls-19{fill:#fff;}.cls-19,.cls-22{stroke:#fff;}.cls-20{opacity:0.75;}.cls-21{opacity:0.3;}.cls-22{fill:none;}</style><linearGradient id="Gradiente_sem_nome" x1="442" y1="802" x2="442" y2="830" gradientTransform="translate(0 -554)" gradientUnits="userSpaceOnUse"><stop offset="0.3" stop-color="#6caca0"/><stop offset="0.7" stop-color="#5e75a0"/></linearGradient><linearGradient id="Gradiente_sem_nome_2" x1="442" y1="828" x2="442" y2="804" xlink:href="#Gradiente_sem_nome"/><linearGradient id="Gradiente_sem_nome_3" x1="296" y1="834" x2="296" y2="798" gradientTransform="translate(0 -554)" gradientUnits="userSpaceOnUse"><stop offset="0" stop-color="#51605c"/><stop offset="1" stop-color="#414951"/></linearGradient><linearGradient id="Gradiente_sem_nome_4" x1="416" y1="834" x2="416" y2="798" xlink:href="#Gradiente_sem_nome_3"/><linearGradient id="Gradiente_sem_nome_5" x1="176" y1="834" x2="176" y2="798" xlink:href="#Gradiente_sem_nome_3"/><linearGradient id="Gradiente_sem_nome_6" x1="716" y1="834" x2="716" y2="798" xlink:href="#Gradiente_sem_nome_3"/><linearGradient id="Gradiente_sem_nome_7" x1="556" y1="834" x2="556" y2="798" xlink:href="#Gradiente_sem_nome_3"/><linearGradient id="Gradiente_sem_nome_8" x1="876" y1="834" x2="876" y2="798" xlink:href="#Gradiente_sem_nome_3"/></defs><path class="cls-1" d="M868,144H16a8,8,0,0,1-8-8V104a8,8,0,0,1,8-8H868a8,8,0,0,1,8,8v32A8,8,0,0,1,868,144Z"/><path class="cls-2" d="M940,92H812a12,12,0,0,0-12,12v32a12,12,0,0,0,12,12H940a12,12,0,0,0,12-12V104A12,12,0,0,0,940,92ZM820,122v14a6,6,0,0,1-12,0V122Zm-12-4V104a6,6,0,0,1,12,0v14Z"/><path class="cls-2" d="M220,92H132a12,12,0,0,0-12,12v32a12,12,0,0,0,12,12h88a12,12,0,0,0,12-12V104A12,12,0,0,0,220,92Zm-80,30v14a6,6,0,0,1-12,0V122Zm-12-4V104a6,6,0,0,1,12,0v14Z"/><path class="cls-2" d="M340,92H252a12,12,0,0,0-12,12v32a12,12,0,0,0,12,12h88a12,12,0,0,0,12-12V104A12,12,0,0,0,340,92Zm-80,30v14a6,6,0,0,1-12,0V122Zm-12-4V104a6,6,0,0,1,12,0v14Z"/><path class="cls-2" d="M620,92H492a12,12,0,0,0-12,12v32a12,12,0,0,0,12,12H620a12,12,0,0,0,12-12V104A12,12,0,0,0,620,92ZM500,122v14a6,6,0,0,1-12,0V122Zm-12-4V104a6,6,0,0,1,12,0v14Z"/><path class="cls-2" d="M780,92H652a12,12,0,0,0-12,12v32a12,12,0,0,0,12,12H780a12,12,0,0,0,12-12V104A12,12,0,0,0,780,92ZM660,122v14a6,6,0,0,1-12,0V122Zm-12-4V104a6,6,0,0,1,12,0v14Z"/><path class="cls-2" d="M460,92H372a12,12,0,0,0-12,12v32a12,12,0,0,0,12,12h88a12,12,0,0,0,12-12V104A12,12,0,0,0,460,92Zm-80,30v14a6,6,0,0,1-12,0V122Zm-12-4V104a6,6,0,0,1,12,0v14Z"/><path class="cls-3" d="M868,276H16a8,8,0,0,1-8-8V256a8,8,0,0,1,8-8H868a8,8,0,0,1,8,8v12A8,8,0,0,1,868,276Z"/><path class="cls-4" d="M867.4,274H16.6a6.66,6.66,0,0,1-6.6-6.6V256.6a6.66,6.66,0,0,1,6.6-6.6H867.4a6.66,6.66,0,0,1,6.6,6.6v10.8A6.66,6.66,0,0,1,867.4,274Z"/><path class="cls-5" d="M868,80H16a8,8,0,0,1-8-8V60a8,8,0,0,1,8-8H868a8,8,0,0,1,8,8V72A8,8,0,0,1,868,80Z"/><path class="cls-6" d="M868,188H16a8,8,0,0,1-8-8V168a8,8,0,0,1,8-8H868a8,8,0,0,1,8,8v12A8,8,0,0,1,868,188Z"/><path class="cls-7" d="M340,36H252a12,12,0,0,1-12-12V20A12,12,0,0,1,252,8h88a12,12,0,0,1,12,12v4A12,12,0,0,1,340,36Z"/><path class="cls-7" d="M460,36H372a12,12,0,0,1-12-12V20A12,12,0,0,1,372,8h88a12,12,0,0,1,12,12v4A12,12,0,0,1,460,36Z"/><path class="cls-7" d="M220,36H132a12,12,0,0,1-12-12V20A12,12,0,0,1,132,8h88a12,12,0,0,1,12,12v4A12,12,0,0,1,220,36Z"/><path class="cls-7" d="M620,36H492a12,12,0,0,1-12-12V20A12,12,0,0,1,492,8H620a12,12,0,0,1,12,12v4A12,12,0,0,1,620,36Z"/><path class="cls-8" d="M340,48H252a12,12,0,0,0-12,12V72a12,12,0,0,0,12,12h88a12,12,0,0,0,12-12V60A12,12,0,0,0,340,48ZM260,72a6,6,0,0,1-12,0V60a6,6,0,0,1,12,0Z"/><path class="cls-8" d="M460,48H372a12,12,0,0,0-12,12V72a12,12,0,0,0,12,12h88a12,12,0,0,0,12-12V60A12,12,0,0,0,460,48ZM380,72a6,6,0,0,1-12,0V60a6,6,0,0,1,12,0Z"/><path class="cls-8" d="M220,48H132a12,12,0,0,0-12,12V72a12,12,0,0,0,12,12h88a12,12,0,0,0,12-12V60A12,12,0,0,0,220,48ZM140,72a6,6,0,0,1-12,0V60a6,6,0,0,1,12,0Z"/><path class="cls-8" d="M780,48H652a12,12,0,0,0-12,12V72a12,12,0,0,0,12,12H780a12,12,0,0,0,12-12V60A12,12,0,0,0,780,48ZM660,72a6,6,0,0,1-12,0V60a6,6,0,0,1,12,0Z"/><path class="cls-8" d="M620,48H492a12,12,0,0,0-12,12V72a12,12,0,0,0,12,12H620a12,12,0,0,0,12-12V60A12,12,0,0,0,620,48ZM500,72a6,6,0,0,1-12,0V60a6,6,0,0,1,12,0Z"/><path class="cls-8" d="M940,48H812a12,12,0,0,0-12,12V72a12,12,0,0,0,12,12H940a12,12,0,0,0,12-12V60A12,12,0,0,0,940,48ZM820,72a6,6,0,0,1-12,0V60a6,6,0,0,1,12,0Z"/><path class="cls-7" d="M780,36H652a12,12,0,0,1-12-12V20A12,12,0,0,1,652,8H780a12,12,0,0,1,12,12v4A12,12,0,0,1,780,36Z"/><path class="cls-7" d="M940,36H812a12,12,0,0,1-12-12V20A12,12,0,0,1,812,8H940a12,12,0,0,1,12,12v4A12,12,0,0,1,940,36Z"/><path class="cls-9" d="M868,232H16a8,8,0,0,1-8-8V212a8,8,0,0,1,8-8H868a8,8,0,0,1,8,8v12A8,8,0,0,1,868,232Z"/><path class="cls-10" d="M340,156H252a12,12,0,0,0-12,12v12a12,12,0,0,0,12,12h88a12,12,0,0,0,12-12V168A12,12,0,0,0,340,156Zm-80,24a6,6,0,0,1-12,0V168a6,6,0,0,1,12,0Z"/><path class="cls-10" d="M460,156H372a12,12,0,0,0-12,12v12a12,12,0,0,0,12,12h88a12,12,0,0,0,12-12V168A12,12,0,0,0,460,156Zm-80,24a6,6,0,0,1-12,0V168a6,6,0,0,1,12,0Z"/><path class="cls-10" d="M220,156H132a12,12,0,0,0-12,12v12a12,12,0,0,0,12,12h88a12,12,0,0,0,12-12V168A12,12,0,0,0,220,156Zm-80,24a6,6,0,0,1-12,0V168a6,6,0,0,1,12,0Z"/><path class="cls-10" d="M780,156H652a12,12,0,0,0-12,12v12a12,12,0,0,0,12,12H780a12,12,0,0,0,12-12V168A12,12,0,0,0,780,156ZM660,180a6,6,0,0,1-12,0V168a6,6,0,0,1,12,0Z"/><path class="cls-10" d="M620,156H492a12,12,0,0,0-12,12v12a12,12,0,0,0,12,12H620a12,12,0,0,0,12-12V168A12,12,0,0,0,620,156ZM500,180a6,6,0,0,1-12,0V168a6,6,0,0,1,12,0Z"/><path class="cls-10" d="M940,156H812a12,12,0,0,0-12,12v12a12,12,0,0,0,12,12H940a12,12,0,0,0,12-12V168A12,12,0,0,0,940,156ZM820,180a6,6,0,0,1-12,0V168a6,6,0,0,1,12,0Z"/><path class="cls-11" d="M340,200H252a12,12,0,0,0-12,12v12a12,12,0,0,0,12,12h88a12,12,0,0,0,12-12V212A12,12,0,0,0,340,200Zm-80,24a6,6,0,0,1-12,0V212a6,6,0,0,1,12,0Z"/><path class="cls-11" d="M460,200H372a12,12,0,0,0-12,12v12a12,12,0,0,0,12,12h88a12,12,0,0,0,12-12V212A12,12,0,0,0,460,200Zm-80,24a6,6,0,0,1-12,0V212a6,6,0,0,1,12,0Z"/><path class="cls-11" d="M220,200H132a12,12,0,0,0-12,12v12a12,12,0,0,0,12,12h88a12,12,0,0,0,12-12V212A12,12,0,0,0,220,200Zm-80,24a6,6,0,0,1-12,0V212a6,6,0,0,1,12,0Z"/><path class="cls-11" d="M780,200H652a12,12,0,0,0-12,12v12a12,12,0,0,0,12,12H780a12,12,0,0,0,12-12V212A12,12,0,0,0,780,200ZM660,224a6,6,0,0,1-12,0V212a6,6,0,0,1,12,0Z"/><path class="cls-11" d="M620,200H492a12,12,0,0,0-12,12v12a12,12,0,0,0,12,12H620a12,12,0,0,0,12-12V212A12,12,0,0,0,620,200ZM500,224a6,6,0,0,1-12,0V212a6,6,0,0,1,12,0Z"/><path class="cls-11" d="M940,200H812a12,12,0,0,0-12,12v12a12,12,0,0,0,12,12H940a12,12,0,0,0,12-12V212A12,12,0,0,0,940,200ZM820,224a6,6,0,0,1-12,0V212a6,6,0,0,1,12,0Z"/><path class="cls-12" d="M340,244H252a12,12,0,0,0-12,12v12a12,12,0,0,0,12,12h88a12,12,0,0,0,12-12V256A12,12,0,0,0,340,244Zm-80,24a6,6,0,0,1-12,0V256a6,6,0,0,1,12,0Z"/><path class="cls-13" d="M460,244H372a12,12,0,0,0-12,12v12a12,12,0,0,0,12,12h88a12,12,0,0,0,12-12V256A12,12,0,0,0,460,244Zm-80,24a6,6,0,0,1-12,0V256a6,6,0,0,1,12,0Z"/><path class="cls-14" d="M220,244H132a12,12,0,0,0-12,12v12a12,12,0,0,0,12,12h88a12,12,0,0,0,12-12V256A12,12,0,0,0,220,244Zm-80,24a6,6,0,0,1-12,0V256a6,6,0,0,1,12,0Z"/><path class="cls-15" d="M780,244H652a12,12,0,0,0-12,12v12a12,12,0,0,0,12,12H780a12,12,0,0,0,12-12V256A12,12,0,0,0,780,244ZM660,268a6,6,0,0,1-12,0V256a6,6,0,0,1,12,0Z"/><path class="cls-16" d="M620,244H492a12,12,0,0,0-12,12v12a12,12,0,0,0,12,12H620a12,12,0,0,0,12-12V256A12,12,0,0,0,620,244ZM500,268a6,6,0,0,1-12,0V256a6,6,0,0,1,12,0Z"/><path class="cls-17" d="M940,244H812a12,12,0,0,0-12,12v12a12,12,0,0,0,12,12H940a12,12,0,0,0,12-12V256A12,12,0,0,0,940,244ZM820,268a6,6,0,0,1-12,0V256a6,6,0,0,1,12,0Z"/><path class="cls-18" d="M176.5,26.9h-1.4l-5-7.8-.3-.6h0c0,.2.1.7.1,1.3v7.1h-1.1V17.1h1.5l4.9,7.7a5.74,5.74,0,0,1,.4.7h0c0-.3-.1-.8-.1-1.4V17.2h1.1l-.1,9.7Z"/><path class="cls-18" d="M184.1,18.1h-3.8v3.4h3.5v1h-3.5v4.3h-1.1V17h5l-.1,1.1Z"/><path class="cls-18" d="M290.2,23.2v3.7H289V17.1h2.7a3.46,3.46,0,0,1,2.4.8,3,3,0,0,1,.9,2.2,2.76,2.76,0,0,1-1,2.3,3.74,3.74,0,0,1-2.6.9h-1.2v-.1Zm0-5.1v4h1.2a3,3,0,0,0,1.8-.5,1.89,1.89,0,0,0,.6-1.5c0-1.3-.8-1.9-2.3-1.9h-1.3v-.1Z"/><path class="cls-18" d="M304.1,17.1l-3.6,9.8h-1.3l-3.6-9.8h1.3l2.7,7.8a2.39,2.39,0,0,1,.2.9h0a2.92,2.92,0,0,1,.2-.9l2.8-7.8Z"/><path class="cls-18" d="M399.6,26.9h-1.4l-5-7.8-.3-.6h0c0,.2.1.7.1,1.3v7.1h-1.1V17.1h1.5l4.9,7.7a5.74,5.74,0,0,1,.4.7h0c0-.3-.1-.8-.1-1.4V17.2h1.1v9.7Z"/><path class="cls-18" d="M407.2,18.1h-3.8v3.4h3.5v1h-3.5v4.3h-1.1V17h5v1.1Z"/><path class="cls-18" d="M419.6,23.3h-2.8V26h-.9V23.2h-2.8v-.9h2.8V19.5h.9v2.8h2.8Z"/><path class="cls-18" d="M427.4,23.2v3.7h-1.1V17.1H429a3.46,3.46,0,0,1,2.4.8,3,3,0,0,1,.9,2.2,2.76,2.76,0,0,1-1,2.3,3.74,3.74,0,0,1-2.6.9h-1.3Zm0-5.1v4h1.2a3,3,0,0,0,1.8-.5,1.89,1.89,0,0,0,.6-1.5c0-1.3-.8-1.9-2.3-1.9h-1.3v-.1Z"/><path class="cls-18" d="M441.4,17.1l-3.6,9.8h-1.3l-3.6-9.8h1.3l2.7,7.8a2.39,2.39,0,0,1,.2.9h0a2.92,2.92,0,0,1,.2-.9l2.8-7.8Z"/><path class="cls-19" d="M26.6,61.1,23,70.9H21.7l-3.6-9.8h1.3l2.7,7.8a2.39,2.39,0,0,1,.2.9h0a2.92,2.92,0,0,1,.2-.9l2.8-7.8Z"/><path class="cls-19" d="M31.8,70.9H30.7V69.8h0a2.48,2.48,0,0,1-2.2,1.3,2.11,2.11,0,0,1-1.6-.6,2,2,0,0,1-.6-1.5c0-1.3.8-2.1,2.3-2.3l2.1-.3c0-1.2-.5-1.8-1.4-1.8a3.52,3.52,0,0,0-2.3.9V64.4a4.81,4.81,0,0,1,2.4-.7,2.3,2.3,0,0,1,2.5,2.6l-.1,4.6Zm-1.1-3.5-1.7.2a3.37,3.37,0,0,0-1.2.4,1.05,1.05,0,0,0-.4,1,.91.91,0,0,0,.4.8,1.69,1.69,0,0,0,1,.3,1.82,1.82,0,0,0,1.4-.6,2,2,0,0,0,.5-1.5Z"/><path class="cls-19" d="M35.1,70.9H34V60.5h1.1Z"/><path class="cls-19" d="M40.3,71.1a3.17,3.17,0,0,1-2.5-1,4.31,4.31,0,0,1,.1-5.4,3.39,3.39,0,0,1,2.6-1,2.84,2.84,0,0,1,2.4,1,4.36,4.36,0,0,1,.9,2.7,4,4,0,0,1-.9,2.7A3.39,3.39,0,0,1,40.3,71.1Zm0-6.4a2.06,2.06,0,0,0-1.7.7,3.63,3.63,0,0,0,0,4,2.41,2.41,0,0,0,3.4,0,3.63,3.63,0,0,0,0-4A1.94,1.94,0,0,0,40.3,64.7Z"/><path class="cls-19" d="M49.2,65a1.08,1.08,0,0,0-.8-.2,1.31,1.31,0,0,0-1.2.7,3.45,3.45,0,0,0-.5,1.8v3.6H45.6v-7h1.1v1.4h0a3.46,3.46,0,0,1,.7-1.2,1.5,1.5,0,0,1,1.1-.4,1.48,1.48,0,0,1,.7.1Z"/><path class="cls-19" d="M62.3,70.9H60.9l-5-7.8-.3-.6h0c0,.2.1.7.1,1.3v7.1H54.6V61.1h1.5L61,68.8a5.74,5.74,0,0,1,.4.7h0c0-.3-.1-.8-.1-1.4V61.2h1.1v9.7Z"/><path class="cls-19" d="M70.1,70.9H64.9V61.1h5v1H66v3.3h3.5v1H66v3.4h4l.1,1.1Z"/><path class="cls-19" d="M77.8,62.1H75v8.8H73.9V62.1H71v-1h6.8Z"/><path class="cls-19" d="M29.3,122.9H28.2v-6.6a13.43,13.43,0,0,1,.1-1.9h0a6.21,6.21,0,0,1-.3,1l-3.3,7.5H24l-3.3-7.5a6.21,6.21,0,0,1-.3-1h0c0,.4.1,1,.1,1.9v6.6H19.4v-9.8h1.5l3,6.8c.2.5.4.9.5,1.2h0c.2-.5.4-.9.5-1.2l3.1-6.8h1.4v9.8Z"/><path class="cls-19" d="M36.7,122.9H35.6v-1.1h0a2.48,2.48,0,0,1-2.2,1.3,2.11,2.11,0,0,1-1.6-.6,2,2,0,0,1-.6-1.5c0-1.3.8-2.1,2.3-2.3l2.1-.3c0-1.2-.5-1.8-1.4-1.8a3.52,3.52,0,0,0-2.3.9v-1.1a4.81,4.81,0,0,1,2.4-.7,2.3,2.3,0,0,1,2.5,2.6l-.1,4.6Zm-1.1-3.5-1.7.2a3.37,3.37,0,0,0-1.2.4,1.05,1.05,0,0,0-.4,1,.91.91,0,0,0,.4.8,1.69,1.69,0,0,0,1,.3,1.82,1.82,0,0,0,1.4-.6,2,2,0,0,0,.5-1.5Z"/><path class="cls-19" d="M42.5,117a1.08,1.08,0,0,0-.8-.2,1.31,1.31,0,0,0-1.2.7,3.45,3.45,0,0,0-.5,1.8v3.6H38.9v-7H40v1.4h0a3.46,3.46,0,0,1,.7-1.2,1.5,1.5,0,0,1,1.1-.4,1.48,1.48,0,0,1,.7.1Z"/><path class="cls-19" d="M49.5,122.3c0,2.6-1.2,3.9-3.7,3.9a5.56,5.56,0,0,1-2.3-.5v-1.1a5.1,5.1,0,0,0,2.3.7c1.7,0,2.6-.9,2.6-2.7v-.8h0a2.51,2.51,0,0,1-2.4,1.3,2.58,2.58,0,0,1-2.1-.9,3.94,3.94,0,0,1-.8-2.5,4.1,4.1,0,0,1,.9-2.8,3,3,0,0,1,2.3-1.1,2.48,2.48,0,0,1,2.1,1.1h0v-1h1.1Zm-1.1-2.6v-1a2.05,2.05,0,0,0-2-2,1.94,1.94,0,0,0-1.6.8,3.28,3.28,0,0,0-.6,2.1,2.88,2.88,0,0,0,.6,1.9,2,2,0,0,0,3,0A2.79,2.79,0,0,0,48.4,119.7Z"/><path class="cls-19" d="M57.4,119.7H52.5a2.44,2.44,0,0,0,.6,1.8,2.35,2.35,0,0,0,1.7.6,3.72,3.72,0,0,0,2.2-.8v1.1a4.27,4.27,0,0,1-2.4.7,2.64,2.64,0,0,1-2.3-1,4.34,4.34,0,0,1-.8-2.7,4,4,0,0,1,.9-2.7,2.9,2.9,0,0,1,2.3-1,2.58,2.58,0,0,1,2.1.9,3.74,3.74,0,0,1,.8,2.5v.6Zm-1.2-1a2.25,2.25,0,0,0-.5-1.5,1.73,1.73,0,0,0-1.3-.5,1.61,1.61,0,0,0-1.3.6,3.48,3.48,0,0,0-.7,1.5l3.8-.1Z"/><path class="cls-19" d="M69,122.9H67.9v-4a2.67,2.67,0,0,0-.4-1.7,1.25,1.25,0,0,0-1.2-.5,1.31,1.31,0,0,0-1.2.7,3,3,0,0,0-.5,1.6v4H63.5v-4.2c0-1.4-.5-2.1-1.6-2.1a1.43,1.43,0,0,0-1.2.6,2.54,2.54,0,0,0-.5,1.6v4H59.1v-7h1.1V117h0a2.48,2.48,0,0,1,2.2-1.3,2,2,0,0,1,1.3.4,1.69,1.69,0,0,1,.7,1,2.38,2.38,0,0,1,2.3-1.4c1.5,0,2.3,1,2.3,2.9v4.3Z"/><path class="cls-19" d="M20.4,175.2v3.7H19.3v-9.8H22a3.46,3.46,0,0,1,2.4.8,3,3,0,0,1,.9,2.2,2.76,2.76,0,0,1-1,2.3,3.74,3.74,0,0,1-2.6.9l-1.3-.1Zm0-5.1v4h1.2a3,3,0,0,0,1.8-.5,1.89,1.89,0,0,0,.6-1.5c0-1.3-.8-1.9-2.3-1.9H20.4Z"/><path class="cls-19" d="M32.1,175.7H27.2a2.44,2.44,0,0,0,.6,1.8,2.35,2.35,0,0,0,1.7.6,3.72,3.72,0,0,0,2.2-.8v1.1a4.27,4.27,0,0,1-2.4.7,2.64,2.64,0,0,1-2.3-1,4.34,4.34,0,0,1-.8-2.7,4,4,0,0,1,.9-2.7,2.9,2.9,0,0,1,2.3-1,2.58,2.58,0,0,1,2.1.9,3.74,3.74,0,0,1,.8,2.5v.6Zm-1.2-1a2.25,2.25,0,0,0-.5-1.5,1.73,1.73,0,0,0-1.3-.5,1.61,1.61,0,0,0-1.3.6,3.48,3.48,0,0,0-.7,1.5h3.8Z"/><path class="cls-19" d="M33.4,178.6v-1.2a3.06,3.06,0,0,0,2,.7c1,0,1.5-.3,1.5-1a.9.9,0,0,0-.1-.5c-.1-.2-.2-.2-.3-.3a2.19,2.19,0,0,0-.5-.3,1.42,1.42,0,0,0-.6-.2,2,2,0,0,1-.8-.4,2.09,2.09,0,0,0-.6-.4,1,1,0,0,1-.4-.5,1.48,1.48,0,0,1-.1-.7,2.92,2.92,0,0,1,.2-.9,1.17,1.17,0,0,1,.6-.6,3.92,3.92,0,0,1,.9-.4,3.75,3.75,0,0,1,1-.1,4.15,4.15,0,0,1,1.6.3v1.1a3.45,3.45,0,0,0-1.8-.5,1.27,1.27,0,0,0-.6.1c-.2.1-.3.1-.4.2l-.3.3a.6.6,0,0,0-.1.4.9.9,0,0,0,.1.5c.1.2.2.2.3.3a2.19,2.19,0,0,0,.5.3l.6.3a2,2,0,0,1,.8.4,6.13,6.13,0,0,0,.6.4,2.18,2.18,0,0,1,.4.5,1.48,1.48,0,0,1,.1.7,2.92,2.92,0,0,1-.2.9,1.17,1.17,0,0,1-.6.6,3.92,3.92,0,0,1-.9.4,3.75,3.75,0,0,1-1,.1A3.56,3.56,0,0,1,33.4,178.6Z"/><path class="cls-19" d="M42.6,179.1a3.17,3.17,0,0,1-2.5-1,4.31,4.31,0,0,1,.1-5.4,3.39,3.39,0,0,1,2.6-1,2.84,2.84,0,0,1,2.4,1,4.36,4.36,0,0,1,.9,2.7,4,4,0,0,1-.9,2.7A3.25,3.25,0,0,1,42.6,179.1Zm.1-6.4a2.06,2.06,0,0,0-1.7.7,3.63,3.63,0,0,0,0,4,2.41,2.41,0,0,0,3.4,0,3.63,3.63,0,0,0,0-4A1.94,1.94,0,0,0,42.7,172.7Z"/><path class="cls-19" d="M57,178.9H51.9v-9.8H53v8.8h4Z"/><path class="cls-19" d="M60.5,168.3l-1.8,2.2h-.9l1.5-2.2Zm-1,10.6H58.4v-7h1.1Z"/><path class="cls-19" d="M67.7,182.1H66.6v-4.4h0a2.82,2.82,0,0,1-4.5.5,4,4,0,0,1-.8-2.6,4.1,4.1,0,0,1,.9-2.8,3,3,0,0,1,2.4-1,2.36,2.36,0,0,1,2.1,1.1h0v-1h1.1l-.1,10.2Zm-1.1-6.3v-1a2,2,0,0,0-.6-1.5,2,2,0,0,0-1.4-.6,1.86,1.86,0,0,0-1.6.7,3.28,3.28,0,0,0-.6,2.1,2.88,2.88,0,0,0,.6,1.9,1.8,1.8,0,0,0,1.5.7,1.86,1.86,0,0,0,1.6-.7A2.35,2.35,0,0,0,66.6,175.8Z"/><path class="cls-19" d="M75.6,178.9H74.5v-1.1h0a2.48,2.48,0,0,1-2.2,1.3c-1.7,0-2.5-1-2.5-3v-4.2h1.1v4c0,1.5.6,2.2,1.7,2.2a2,2,0,0,0,1.4-.6,2.07,2.07,0,0,0,.5-1.6v-4h1.1Z"/><path class="cls-19" d="M78.5,170.1a.68.68,0,1,1,.5-.2A.76.76,0,0,1,78.5,170.1Zm.5,8.8H77.9v-7H79Z"/><path class="cls-19" d="M87.3,178.9H86.2v-1.2h0a2.82,2.82,0,0,1-4.5.5,4,4,0,0,1-.8-2.6,4.1,4.1,0,0,1,.9-2.8,2.9,2.9,0,0,1,2.3-1,2.25,2.25,0,0,1,2.1,1.1h0v-4.3h1.1Zm-1.2-3.2v-1a2.05,2.05,0,0,0-2-2,1.94,1.94,0,0,0-1.6.8,3.28,3.28,0,0,0-.6,2.1,2.88,2.88,0,0,0,.6,1.9,2,2,0,0,0,3,0A2.79,2.79,0,0,0,86.1,175.7Z"/><path class="cls-19" d="M92.5,179.1a3.17,3.17,0,0,1-2.5-1,4.31,4.31,0,0,1,.1-5.4,3.39,3.39,0,0,1,2.6-1,2.84,2.84,0,0,1,2.4,1,4.36,4.36,0,0,1,.9,2.7,4,4,0,0,1-.9,2.7A3.39,3.39,0,0,1,92.5,179.1Zm0-6.4a2.06,2.06,0,0,0-1.7.7,3.63,3.63,0,0,0,0,4,2.41,2.41,0,0,0,3.4,0,3.63,3.63,0,0,0,0-4A1.94,1.94,0,0,0,92.5,172.7Z"/><path class="cls-18" d="M533.1,26.9H528V17.1h1.1v8.8H533l.1,1Z"/><path class="cls-18" d="M540.1,17.1l-3.2,6.2v3.6h-1.1V23.3l-3.2-6.2h1.3l2.2,4.4a3.93,3.93,0,0,0,.2.6h0a.86.86,0,0,1,.3-.6l2.3-4.4Z"/><path class="cls-18" d="M553.2,26.9h-1.4l-5-7.8-.3-.6h0c0,.2.1.7.1,1.3v7.1h-1.1V17.1H547l4.9,7.7a5.74,5.74,0,0,1,.4.7h0c0-.3-.1-.8-.1-1.4V17.2h1.1v9.7Z"/><path class="cls-18" d="M560.7,18.1h-3.8v3.4h3.5v1h-3.5v4.3h-1.1V17h5v1.1Z"/><path class="cls-18" d="M568.8,17.2a9.43,9.43,0,0,0-1.8,5.7,9.43,9.43,0,0,0,1.8,5.7h-1a9.16,9.16,0,0,1-1.8-5.7,9.32,9.32,0,0,1,1.8-5.7Z"/><path class="cls-18" d="M569.5,26.2l3.3-8.8h1.4l3.2,8.7v.7h-7.9Zm6.5-.3-1.9-5.2c-.2-.7-.5-1.5-.7-2.1h0c-.1.5-.4,1.3-.6,1.9l-2,5.4Z"/><path class="cls-18" d="M577.8,28.6a9.43,9.43,0,0,0,1.8-5.7,9.43,9.43,0,0,0-1.8-5.7h1a8.71,8.71,0,0,1,1.8,5.7,9.16,9.16,0,0,1-1.8,5.7Z"/><path class="cls-18" d="M690.2,26.9h-1.1V20.3a13.43,13.43,0,0,1,.1-1.9h0a6.21,6.21,0,0,1-.3,1l-3.3,7.5H685l-3.3-7.5a6.21,6.21,0,0,1-.3-1h0c0,.4.1,1,.1,1.9v6.6h-1.1V17.1h1.5l3,6.8c.2.5.4.9.5,1.2h0c.2-.5.4-.9.5-1.2l3.1-6.8h1.4v9.8Z"/><path class="cls-18" d="M698.3,23.7h-4.9a2.44,2.44,0,0,0,.6,1.8,2.35,2.35,0,0,0,1.7.6,3.72,3.72,0,0,0,2.2-.8v1.1a4.27,4.27,0,0,1-2.4.7,2.64,2.64,0,0,1-2.3-1,4.34,4.34,0,0,1-.8-2.7,4,4,0,0,1,.9-2.7,2.9,2.9,0,0,1,2.3-1,2.58,2.58,0,0,1,2.1.9,3.74,3.74,0,0,1,.8,2.5v.6Zm-1.2-1a2.25,2.25,0,0,0-.5-1.5,1.73,1.73,0,0,0-1.3-.5,1.61,1.61,0,0,0-1.3.6,3.48,3.48,0,0,0-.7,1.5h3.8Z"/><path class="cls-18" d="M703.2,26.8a3,3,0,0,1-1,.2q-1.8,0-1.8-2.1V20.8h-1.2v-1h1.2V18.1l1.1-.4v2.1h1.8v1h-1.8v3.9a2.15,2.15,0,0,0,.2,1c.1.2.4.3.8.3a1.45,1.45,0,0,0,.7-.2Z"/><path class="cls-18" d="M709.7,26.9h-1.1V25.8h0a2.48,2.48,0,0,1-2.2,1.3,2.11,2.11,0,0,1-1.6-.6,2,2,0,0,1-.6-1.5c0-1.3.8-2.1,2.3-2.3l2.1-.3c0-1.2-.5-1.8-1.4-1.8a3.52,3.52,0,0,0-2.3.9V20.4a4.81,4.81,0,0,1,2.4-.7,2.3,2.3,0,0,1,2.5,2.6v4.6Zm-1.1-3.5-1.7.2a3.37,3.37,0,0,0-1.2.4,1.05,1.05,0,0,0-.4,1,.91.91,0,0,0,.4.8,1.69,1.69,0,0,0,1,.3,1.82,1.82,0,0,0,1.4-.6,2,2,0,0,0,.5-1.5Z"/><path class="cls-18" d="M716.9,23.2v3.7h-1.1V17.1h2.7a3.46,3.46,0,0,1,2.4.8,3,3,0,0,1,.9,2.2,2.76,2.76,0,0,1-1,2.3,3.74,3.74,0,0,1-2.6.9h-1.3v-.1Zm0-5.1v4h1.2a3,3,0,0,0,1.8-.5,1.89,1.89,0,0,0,.6-1.5c0-1.3-.8-1.9-2.3-1.9h-1.3Z"/><path class="cls-18" d="M727.6,27.1a4.22,4.22,0,0,1-3.3-1.4,5.27,5.27,0,0,1-1.3-3.6,5.32,5.32,0,0,1,1.3-3.8,4.32,4.32,0,0,1,3.5-1.4,4.37,4.37,0,0,1,3.3,1.4,4.78,4.78,0,0,1,1.2,3.6,5.17,5.17,0,0,1-1.3,3.8A4.6,4.6,0,0,1,727.6,27.1Zm.1-9.1a3.25,3.25,0,0,0-2.5,1.1,4.41,4.41,0,0,0-1,2.9,4.37,4.37,0,0,0,.9,2.9,3.39,3.39,0,0,0,5,0A4.37,4.37,0,0,0,731,22a4.48,4.48,0,0,0-.9-3A3,3,0,0,0,727.7,18Z"/><path class="cls-18" d="M740.4,17.2a9.43,9.43,0,0,0-1.8,5.7,9.43,9.43,0,0,0,1.8,5.7h-1a9.16,9.16,0,0,1-1.8-5.7,9.32,9.32,0,0,1,1.8-5.7Z"/><path class="cls-18" d="M741.1,26.2l3.3-8.8h1.4l3.2,8.7v.7h-7.9Zm6.5-.3-1.9-5.2c-.2-.7-.5-1.5-.7-2.1h0c-.1.5-.4,1.3-.6,1.9l-2,5.4Z"/><path class="cls-18" d="M749.4,28.6a9.43,9.43,0,0,0,1.8-5.7,9.43,9.43,0,0,0-1.8-5.7h1a8.71,8.71,0,0,1,1.8,5.7,9.16,9.16,0,0,1-1.8,5.7Z"/><path class="cls-18" d="M830.3,18.1h-3.8v3.4H830v1h-3.5v4.3h-1.1V17h5v1.1Z"/><path class="cls-18" d="M835,27.1a3.17,3.17,0,0,1-2.5-1,3.74,3.74,0,0,1-.9-2.6,3.71,3.71,0,0,1,1-2.8,3.39,3.39,0,0,1,2.6-1,2.84,2.84,0,0,1,2.4,1,3.67,3.67,0,0,1,.9,2.7,4,4,0,0,1-.9,2.7A4,4,0,0,1,835,27.1Zm0-6.4a2.06,2.06,0,0,0-1.7.7,3.17,3.17,0,0,0-.6,2,3.17,3.17,0,0,0,.6,2,2.41,2.41,0,0,0,3.4,0,3,3,0,0,0,.6-2,3,3,0,0,0-.6-2A1.94,1.94,0,0,0,835,20.7Z"/><path class="cls-18" d="M843.9,21a1.08,1.08,0,0,0-.8-.2,1.31,1.31,0,0,0-1.2.7,3.45,3.45,0,0,0-.5,1.8v3.6h-1.1v-7h1.1v1.4h0a3.46,3.46,0,0,1,.7-1.2,1.5,1.5,0,0,1,1.1-.4,1.48,1.48,0,0,1,.7.1Z"/><path class="cls-18" d="M850.5,23.7h-4.9a2.44,2.44,0,0,0,.6,1.8,2.35,2.35,0,0,0,1.7.6,3.72,3.72,0,0,0,2.2-.8v1.1a4.27,4.27,0,0,1-2.4.7,2.64,2.64,0,0,1-2.3-1,3.65,3.65,0,0,1-.8-2.7,4,4,0,0,1,.9-2.7,2.9,2.9,0,0,1,2.3-1,2.58,2.58,0,0,1,2.1.9,3.74,3.74,0,0,1,.8,2.5v.6Zm-1.1-1a2.25,2.25,0,0,0-.5-1.5,1.73,1.73,0,0,0-1.3-.5,1.61,1.61,0,0,0-1.3.6,3.48,3.48,0,0,0-.7,1.5h3.8Z"/><path class="cls-18" d="M857,26.6a3.83,3.83,0,0,1-1.9.5,3,3,0,0,1-2.4-1,3.49,3.49,0,0,1-.9-2.5,3.71,3.71,0,0,1,1-2.8,3.39,3.39,0,0,1,2.6-1,3.81,3.81,0,0,1,1.6.3v1.1a2.62,2.62,0,0,0-1.7-.5,2.5,2.5,0,0,0-1.8.8,2.72,2.72,0,0,0-.7,2,2.71,2.71,0,0,0,.6,1.9,2.41,2.41,0,0,0,1.7.7,2.72,2.72,0,0,0,1.7-.6v1.1Z"/><path class="cls-18" d="M863.7,26.9h-1.1V25.8h0a2.48,2.48,0,0,1-2.2,1.3,2.11,2.11,0,0,1-1.6-.6,2,2,0,0,1-.6-1.5c0-1.3.8-2.1,2.3-2.3l2.1-.3c0-1.2-.5-1.8-1.4-1.8a3.52,3.52,0,0,0-2.3.9V20.4a4.81,4.81,0,0,1,2.4-.7,2.3,2.3,0,0,1,2.5,2.6v4.6Zm-1.1-3.5-1.7.2a3.37,3.37,0,0,0-1.2.4,1.05,1.05,0,0,0-.4,1,.91.91,0,0,0,.4.8,1.49,1.49,0,0,0,1,.3,1.82,1.82,0,0,0,1.4-.6,2,2,0,0,0,.5-1.5Z"/><path class="cls-18" d="M865.4,26.6V25.4a3.06,3.06,0,0,0,2,.7c1,0,1.5-.3,1.5-1a.9.9,0,0,0-.1-.5l-.3-.3a2.19,2.19,0,0,0-.5-.3,1.42,1.42,0,0,0-.6-.2,2,2,0,0,1-.8-.4c-.2-.1-.4-.3-.6-.4a1,1,0,0,1-.4-.5,1.48,1.48,0,0,1-.1-.7,2.92,2.92,0,0,1,.2-.9,1.17,1.17,0,0,1,.6-.6,1.88,1.88,0,0,1,.9-.4,3.75,3.75,0,0,1,1-.1,4.15,4.15,0,0,1,1.6.3v1.1a3.45,3.45,0,0,0-1.8-.5,1.27,1.27,0,0,0-.6.1.52.52,0,0,0-.4.2l-.3.3a.6.6,0,0,0-.1.4.9.9,0,0,0,.1.5l.3.3a2.19,2.19,0,0,0,.5.3l.6.3a2,2,0,0,1,.8.4,6.13,6.13,0,0,0,.6.4,1.76,1.76,0,0,1,.4.5,1.48,1.48,0,0,1,.1.7,2.92,2.92,0,0,1-.2.9,1.7,1.7,0,0,1-.6.6,2.47,2.47,0,0,1-.9.4,3.4,3.4,0,0,1-1,.1A3.83,3.83,0,0,1,865.4,26.6Z"/><path class="cls-18" d="M875,26.8a3,3,0,0,1-1,.2q-1.8,0-1.8-2.1V20.8H871v-1h1.2V18.1l1.1-.4v2.1h1.8v1h-1.8v3.9a2.15,2.15,0,0,0,.2,1,1,1,0,0,0,.8.3,1.45,1.45,0,0,0,.7-.2Z"/><path class="cls-18" d="M881.7,23.2v3.7h-1.1V17.1h2.7a3.46,3.46,0,0,1,2.4.8,2.66,2.66,0,0,1,.9,2.2,2.76,2.76,0,0,1-1,2.3,3.57,3.57,0,0,1-2.6.9h-1.3v-.1Zm0-5.1v4h1.2a3,3,0,0,0,1.8-.5,1.89,1.89,0,0,0,.6-1.5c0-1.3-.8-1.9-2.3-1.9h-1.3Z"/><path class="cls-18" d="M891.8,21a1.08,1.08,0,0,0-.8-.2,1.31,1.31,0,0,0-1.2.7,3.45,3.45,0,0,0-.5,1.8v3.6h-1.1v-7h1.1v1.4h0a3.46,3.46,0,0,1,.7-1.2,1.5,1.5,0,0,1,1.1-.4,1.48,1.48,0,0,1,.7.1Z"/><path class="cls-18" d="M898.5,23.7h-4.9a2.44,2.44,0,0,0,.6,1.8,2.35,2.35,0,0,0,1.7.6,3.72,3.72,0,0,0,2.2-.8v1.1a4.27,4.27,0,0,1-2.4.7,2.64,2.64,0,0,1-2.3-1,3.65,3.65,0,0,1-.8-2.7,4,4,0,0,1,.9-2.7,2.9,2.9,0,0,1,2.3-1,2.58,2.58,0,0,1,2.1.9,3.74,3.74,0,0,1,.8,2.5v.6Zm-1.1-1a2.25,2.25,0,0,0-.5-1.5,1.73,1.73,0,0,0-1.3-.5,1.61,1.61,0,0,0-1.3.6,3.48,3.48,0,0,0-.7,1.5h3.8Z"/><path class="cls-18" d="M907.6,17.1,904,26.9h-1.3l-3.6-9.8h1.3l2.7,7.8a2.39,2.39,0,0,1,.2.9h0a2.92,2.92,0,0,1,.2-.9l2.8-7.8Z"/><path class="cls-18" d="M915.3,17.2a9.43,9.43,0,0,0-1.8,5.7,9.43,9.43,0,0,0,1.8,5.7h-1a9.16,9.16,0,0,1-1.8-5.7,9.32,9.32,0,0,1,1.8-5.7Z"/><path class="cls-18" d="M915.9,26.2l3.3-8.8h1.4l3.2,8.7v.7h-7.9Zm6.6-.3-1.9-5.2c-.2-.7-.5-1.5-.7-2.1h0c-.1.5-.4,1.3-.6,1.9l-2,5.4Z"/><path class="cls-18" d="M924.2,28.6a9.43,9.43,0,0,0,1.8-5.7,9.43,9.43,0,0,0-1.8-5.7h1a8.71,8.71,0,0,1,1.8,5.7,9.16,9.16,0,0,1-1.8,5.7Z"/><path class="cls-19" d="M26,222.5a5.4,5.4,0,0,1-2.7.6,4.16,4.16,0,0,1-3.3-1.3,5.2,5.2,0,0,1-1.3-3.5,5.38,5.38,0,0,1,1.4-3.8,4.54,4.54,0,0,1,3.6-1.4,5.27,5.27,0,0,1,2.3.4v1.2a4.65,4.65,0,0,0-2.3-.6,3.69,3.69,0,0,0-2.7,1.1,4.19,4.19,0,0,0-1,3,4.1,4.1,0,0,0,1,2.9,3.14,3.14,0,0,0,2.6,1.1,4.62,4.62,0,0,0,2.6-.7v1Z"/><path class="cls-19" d="M28.9,222.9H27.8V212.5h1.1Z"/><path class="cls-19" d="M31.8,214.1a.68.68,0,1,1,.5-.2A.76.76,0,0,1,31.8,214.1Zm.5,8.8H31.2v-7h1.1Z"/><path class="cls-19" d="M40.2,219.7H35.3a2.44,2.44,0,0,0,.6,1.8,2.35,2.35,0,0,0,1.7.6,3.72,3.72,0,0,0,2.2-.8v1.1a4.27,4.27,0,0,1-2.4.7,2.64,2.64,0,0,1-2.3-1,4.34,4.34,0,0,1-.8-2.7,4,4,0,0,1,.9-2.7,2.9,2.9,0,0,1,2.3-1,2.58,2.58,0,0,1,2.1.9,3.74,3.74,0,0,1,.8,2.5v.6Zm-1.1-1a2.25,2.25,0,0,0-.5-1.5,1.73,1.73,0,0,0-1.3-.5,1.61,1.61,0,0,0-1.3.6,3.48,3.48,0,0,0-.7,1.5h3.8Z"/><path class="cls-19" d="M47.7,222.9H46.6v-4c0-1.5-.5-2.2-1.6-2.2a1.82,1.82,0,0,0-1.4.6,2.27,2.27,0,0,0-.6,1.6v4H41.9v-7H43v1.2h0a2.45,2.45,0,0,1,2.3-1.3,2.14,2.14,0,0,1,1.8.7,3.28,3.28,0,0,1,.6,2.1Z"/><path class="cls-19" d="M53.1,222.8a3,3,0,0,1-1,.2q-1.8,0-1.8-2.1v-4.1H49v-1h1.2v-1.7l1.1-.4v2.1h1.8v1H51.3v3.9a2.15,2.15,0,0,0,.2,1c.1.2.4.3.8.3a1.45,1.45,0,0,0,.7-.2l.1,1Z"/><path class="cls-19" d="M60.1,219.7H55.2a2.44,2.44,0,0,0,.6,1.8,2.35,2.35,0,0,0,1.7.6,3.72,3.72,0,0,0,2.2-.8v1.1a4.27,4.27,0,0,1-2.4.7,2.64,2.64,0,0,1-2.3-1,4.34,4.34,0,0,1-.8-2.7,4,4,0,0,1,.9-2.7,2.9,2.9,0,0,1,2.3-1,2.58,2.58,0,0,1,2.1.9,3.74,3.74,0,0,1,.8,2.5v.6Zm-1.2-1a2.25,2.25,0,0,0-.5-1.5,1.73,1.73,0,0,0-1.3-.5,1.61,1.61,0,0,0-1.3.6,3.48,3.48,0,0,0-.7,1.5h3.8Z"/><path class="cls-19" d="M61.4,222.6v-1.2a3.06,3.06,0,0,0,2,.7c1,0,1.5-.3,1.5-1a.9.9,0,0,0-.1-.5c-.1-.2-.2-.2-.3-.3a2.19,2.19,0,0,0-.5-.3,1.42,1.42,0,0,0-.6-.2,2,2,0,0,1-.8-.4,2.09,2.09,0,0,0-.6-.4,1,1,0,0,1-.4-.5,1.48,1.48,0,0,1-.1-.7,2.92,2.92,0,0,1,.2-.9,1.17,1.17,0,0,1,.6-.6,3.92,3.92,0,0,1,.9-.4,3.75,3.75,0,0,1,1-.1,4.15,4.15,0,0,1,1.6.3v1.1a3.45,3.45,0,0,0-1.8-.5,1.27,1.27,0,0,0-.6.1c-.2.1-.3.1-.4.2l-.3.3a.6.6,0,0,0-.1.4.9.9,0,0,0,.1.5c.1.2.2.2.3.3a2.19,2.19,0,0,0,.5.3l.6.3a2,2,0,0,1,.8.4,6.13,6.13,0,0,0,.6.4,2.18,2.18,0,0,1,.4.5,1.48,1.48,0,0,1,.1.7,2.92,2.92,0,0,1-.2.9,1.17,1.17,0,0,1-.6.6,3.92,3.92,0,0,1-.9.4,3.75,3.75,0,0,1-1,.1A3.56,3.56,0,0,1,61.4,222.6Z"/><path class="cls-19" d="M27.2,266.9H25.8l-5-7.8-.3-.6h0c0,.2.1.7.1,1.3v7.1H19.5v-9.8H21l4.9,7.7a5.74,5.74,0,0,1,.4.7h0c0-.3-.1-.8-.1-1.4v-6.9h1.1v9.7Z"/><path class="cls-19" d="M35,266.9H29.8v-9.8h5v1H31v3.3h3.5v1H31v3.4h4Z"/><path class="cls-19" d="M42.7,258.1H39.9v8.8H38.8v-8.8H36v-1h6.8v1Z"/><path class="cls-19" d="M52.3,257.1l-4.7,11.4h-1l4.7-11.4Z"/><path class="cls-19" d="M64,266.5a5.4,5.4,0,0,1-2.7.6,4.16,4.16,0,0,1-3.3-1.3,5.2,5.2,0,0,1-1.3-3.5,5.38,5.38,0,0,1,1.4-3.8,4.54,4.54,0,0,1,3.6-1.4,5.27,5.27,0,0,1,2.3.4v1.2a4.65,4.65,0,0,0-2.3-.6,3.69,3.69,0,0,0-2.7,1.1,4.19,4.19,0,0,0-1,3,4.1,4.1,0,0,0,1,2.9,3.47,3.47,0,0,0,2.6,1.1,4.62,4.62,0,0,0,2.6-.7v1Z"/><path class="cls-19" d="M67,266.9H65.9V256.5H67Z"/><path class="cls-19" d="M69.8,258.1a.68.68,0,1,1,.5-.2C70.2,258.1,70,258.1,69.8,258.1Zm.6,8.8H69.3v-7h1.1Z"/><path class="cls-19" d="M78.3,263.7H73.4a2.44,2.44,0,0,0,.6,1.8,2.35,2.35,0,0,0,1.7.6,3.72,3.72,0,0,0,2.2-.8v1.1a4.27,4.27,0,0,1-2.4.7,2.64,2.64,0,0,1-2.3-1,4.34,4.34,0,0,1-.8-2.7,4,4,0,0,1,.9-2.7,2.9,2.9,0,0,1,2.3-1,2.58,2.58,0,0,1,2.1.9,3.74,3.74,0,0,1,.8,2.5v.6Zm-1.2-1a2.25,2.25,0,0,0-.5-1.5,1.43,1.43,0,0,0-1.3-.5,1.61,1.61,0,0,0-1.3.6,2.63,2.63,0,0,0-.7,1.5h3.8Z"/><path class="cls-19" d="M85.8,266.9H84.7v-4c0-1.5-.5-2.2-1.6-2.2a1.82,1.82,0,0,0-1.4.6,2.27,2.27,0,0,0-.6,1.6v4H80v-7h1.1v1.2h0a2.45,2.45,0,0,1,2.3-1.3,2.14,2.14,0,0,1,1.8.7,3.28,3.28,0,0,1,.6,2.1Z"/><path class="cls-19" d="M91.1,266.8a3,3,0,0,1-1,.2q-1.8,0-1.8-2.1v-4.1H87v-1h1.2v-1.7l1.1-.4v2.1h1.8v1H89.3v3.9a2.15,2.15,0,0,0,.2,1,1,1,0,0,0,.8.3,1.45,1.45,0,0,0,.7-.2v1Z"/><path class="cls-19" d="M98.1,263.7H93.2a2.44,2.44,0,0,0,.6,1.8,2.35,2.35,0,0,0,1.7.6,3.72,3.72,0,0,0,2.2-.8v1.1a4.27,4.27,0,0,1-2.4.7,2.64,2.64,0,0,1-2.3-1,4.34,4.34,0,0,1-.8-2.7,4,4,0,0,1,.9-2.7,2.9,2.9,0,0,1,2.3-1,2.58,2.58,0,0,1,2.1.9,3.74,3.74,0,0,1,.8,2.5v.6Zm-1.1-1a2.25,2.25,0,0,0-.5-1.5,1.43,1.43,0,0,0-1.3-.5,1.61,1.61,0,0,0-1.3.6,2.63,2.63,0,0,0-.7,1.5H97Z"/><g class="cls-20"><path class="cls-19" d="M91.3,112.9H90.2v-6.6a13.43,13.43,0,0,1,.1-1.9h0a6.21,6.21,0,0,1-.3,1l-3.3,7.5H86l-3.3-7.5a6.21,6.21,0,0,1-.3-1h0c0,.4.1,1,.1,1.9v6.6H81.4v-9.8h1.5l3,6.8c.2.5.4.9.5,1.2h0c.2-.5.4-.9.5-1.2l3.1-6.8h1.4l-.1,9.8Z"/><path class="cls-19" d="M100.5,112.5a5.4,5.4,0,0,1-2.7.6,4.16,4.16,0,0,1-3.3-1.3,5.2,5.2,0,0,1-1.3-3.5,5.38,5.38,0,0,1,1.4-3.8,4.54,4.54,0,0,1,3.6-1.4,5.27,5.27,0,0,1,2.3.4v1.2a4.65,4.65,0,0,0-2.3-.6,3.69,3.69,0,0,0-2.7,1.1,4.19,4.19,0,0,0-1,3,4.1,4.1,0,0,0,1,2.9,3.14,3.14,0,0,0,2.6,1.1,4.62,4.62,0,0,0,2.6-.7v1Z"/><path class="cls-19" d="M104,108a1.86,1.86,0,0,1-1.6-.7,2.61,2.61,0,0,1-.6-1.8,2.71,2.71,0,0,1,.6-1.9,2.41,2.41,0,0,1,1.7-.7,2.11,2.11,0,0,1,1.6.6,2.44,2.44,0,0,1,.6,1.8,2.88,2.88,0,0,1-.6,1.9A2.14,2.14,0,0,1,104,108Zm.1-4.3a1.23,1.23,0,0,0-1,.5,2.5,2.5,0,0,0-.4,1.3,1.7,1.7,0,0,0,.4,1.3,1.39,1.39,0,0,0,1,.5,1.23,1.23,0,0,0,1-.5,2.5,2.5,0,0,0,.4-1.3,1.7,1.7,0,0,0-.4-1.3A1.39,1.39,0,0,0,104.1,103.7Zm6.5-.6-6.3,9.9h-1l6.3-9.9Zm-.8,10a1.86,1.86,0,0,1-1.6-.7,2.61,2.61,0,0,1-.6-1.8,2.71,2.71,0,0,1,.6-1.9,2.41,2.41,0,0,1,1.7-.7,1.86,1.86,0,0,1,1.6.7,2.79,2.79,0,0,1,.6,1.8,2.88,2.88,0,0,1-.6,1.9A2.06,2.06,0,0,1,109.8,113.1Zm.1-4.4a1.23,1.23,0,0,0-1,.5,2.5,2.5,0,0,0-.4,1.3,1.84,1.84,0,0,0,.4,1.3,1.39,1.39,0,0,0,1,.5,1.23,1.23,0,0,0,1-.5,2.5,2.5,0,0,0,.4-1.3,1.7,1.7,0,0,0-.4-1.3A1.39,1.39,0,0,0,109.9,108.7Z"/></g><path class="cls-19" d="M91.3,135.9H90.2v-6.6a13.43,13.43,0,0,1,.1-1.9h0a6.21,6.21,0,0,1-.3,1l-3.3,7.5H86l-3.3-7.5a6.21,6.21,0,0,1-.3-1h0c0,.4.1,1,.1,1.9v6.6H81.4v-9.8h1.5l3,6.8c.2.5.4.9.5,1.2h0c.2-.5.4-.9.5-1.2l3.1-6.8h1.4l-.1,9.8Z"/><path class="cls-19" d="M100.5,135.5a5.4,5.4,0,0,1-2.7.6,4.16,4.16,0,0,1-3.3-1.3,5.2,5.2,0,0,1-1.3-3.5,5.38,5.38,0,0,1,1.4-3.8,4.54,4.54,0,0,1,3.6-1.4,5.27,5.27,0,0,1,2.3.4v1.2a4.65,4.65,0,0,0-2.3-.6,3.69,3.69,0,0,0-2.7,1.1,4.19,4.19,0,0,0-1,3,4.1,4.1,0,0,0,1,2.9,3.14,3.14,0,0,0,2.6,1.1,4.62,4.62,0,0,0,2.6-.7v1Z"/><g class="cls-21"><path class="cls-22" d="M78,107H77a2,2,0,0,0-2,2v20a2,2,0,0,0,2,2h1"/><line class="cls-22" x1="72" y1="119" x2="75" y2="119"/></g></svg>
