<?xml version="1.0" encoding="utf-8"?>
<!-- Generator: Adobe Illustrator 25.4.1, SVG Export Plug-In . SVG Version: 6.00 Build 0)  -->
<svg version="1.1" id="linhas" xmlns="http://www.w3.org/2000/svg" xmlns:xlink="http://www.w3.org/1999/xlink" x="0px" y="0px"
	 viewBox="0 0 1888 135" style="enable-background:new 0 0 1888 135;" xml:space="preserve">
<style type="text/css">
	.st0{fill:#356885;}
	.st1{opacity:0.4;enable-background:new    ;}
	.st2{opacity:0.25;fill:#356885;enable-background:new    ;}
</style>
<path class="st0" d="M101.4,7.4L88,40H20c-6.6,0-12,5.4-12,12v21c0,6.6,5.4,12,12,12h68l13.4,32.6c1.9,4.5,6.2,7.4,11.1,7.4H160V0
	h-47.5C107.7,0,103.3,2.9,101.4,7.4z"/>
<path class="st1" d="M21,42h72c6.1,0,11,4.9,11,11v19c0,6.1-4.9,11-11,11H21c-6.1,0-11-4.9-11-11V53C10,46.9,14.9,42,21,42z"/>
<path class="st2" d="M152,0h1716c6.6,0,12,5.4,12,12v101c0,6.6-5.4,12-12,12H152l0,0V0L152,0z"/>
</svg>
