<?xml version="1.0" encoding="utf-8"?>
<!-- Generator: Adobe Illustrator 25.4.1, SVG Export Plug-In . SVG Version: 6.00 Build 0)  -->
<svg version="1.1" id="Camada_1" xmlns="http://www.w3.org/2000/svg" xmlns:xlink="http://www.w3.org/1999/xlink" x="0px" y="0px"
	 viewBox="0 0 1304 296" style="enable-background:new 0 0 1304 296;" xml:space="preserve">
<style type="text/css">
	.st0{fill:#5A75A3;}
	.st1{fill:url(#SVGID_1_);}
	.st2{fill:#D9AC5E;}
	.st3{fill:#55AE9F;}
	.st4{fill:#CC6A69;}
	.st5{opacity:0.5;fill:none;stroke:#FFFFFF;stroke-width:2;stroke-miterlimit:10;enable-background:new    ;}
	.st6{fill:#404952;}
	.st7{fill:url(#SVGID_00000004514503100540196120000016850133920723110589_);}
	.st8{fill:#5C574F;}
	.st9{fill:#4E615D;}
	.st10{fill:url(#SVGID_00000137825657706987870720000008301141476592516504_);}
	.st11{fill:url(#SVGID_00000020400099874801610160000004194732335797250724_);}
	.st12{fill:url(#SVGID_00000066510580508262848540000015235885487437623684_);}
	.st13{fill:url(#SVGID_00000102505267585235804540000005665570097333191350_);}
	.st14{fill:url(#SVGID_00000020361434786187063500000001858649451076043702_);}
	.st15{fill:url(#SVGID_00000087377905924325684260000002214159202149827752_);}
	.st16{fill:#624B4A;}
	.st17{fill:#D7E4E3;}
	.st18{fill:#FFFFFF;stroke:#FFFFFF;stroke-width:0.4;stroke-miterlimit:10;}
	.st19{fill:#556464;stroke:#556464;stroke-width:0.4;stroke-miterlimit:10;}
</style>
<g id="barras">
	<path class="st0" d="M19,50h1167l0,0v24l0,0H19c-6.6,0-12-5.4-12-12l0,0C7,55.4,12.4,50,19,50z"/>
	
		<linearGradient id="SVGID_1_" gradientUnits="userSpaceOnUse" x1="596.5" y1="12.89" x2="596.5" y2="36.89" gradientTransform="matrix(1 0 0 -1 0 295.89)">
		<stop  offset="0.3" style="stop-color:#55AE9F"/>
		<stop  offset="0.7" style="stop-color:#5A75A3"/>
	</linearGradient>
	<path class="st1" d="M19,259h1167l0,0v24l0,0H19c-6.6,0-12-5.4-12-12l0,0C7,264.4,12.4,259,19,259z"/>
	<path class="st2" d="M19,169h1167l0,0v24l0,0H19c-6.6,0-12-5.4-12-12l0,0C7,174.4,12.4,169,19,169z"/>
	<path class="st3" d="M19,214h1167l0,0v24l0,0H19c-6.6,0-12-5.4-12-12l0,0C7,219.4,12.4,214,19,214z"/>
	<path class="st4" d="M19,95c-6.6,0-12,5.4-12,12v29c0,6.6,5.4,12,12,12h1167V95H19z"/>
	<path class="st5" d="M96.4,132.9H92c-4.4,0-8-3.6-8-8v-6.9c0-4.4,3.6-8,8-8h4.4"/>
</g>
<g id="caixas">
	<path class="st6" d="M253,44h-78c-6.6,0-12,5.4-12,12v12c0,6.6,5.4,12,12,12h78c6.6,0,12-5.4,12-12V56C265,49.4,259.6,44,253,44z
		 M179,72c0,1.1-0.9,2-2,2c-4.4,0-8-3.6-8-8v-8c0-4.4,3.6-8,8-8c1.1,0,2,0.9,2,2V72z"/>
	
		<linearGradient id="SVGID_00000147180883899108221460000005421265343593952136_" gradientUnits="userSpaceOnUse" x1="214" y1="6.89" x2="214" y2="42.89" gradientTransform="matrix(1 0 0 -1 0 295.89)">
		<stop  offset="0" style="stop-color:#4E615D"/>
		<stop  offset="1" style="stop-color:#404952"/>
	</linearGradient>
	<path style="fill:url(#SVGID_00000147180883899108221460000005421265343593952136_);" d="M253,253h-78c-6.6,0-12,5.4-12,12v12
		c0,6.6,5.4,12,12,12h78c6.6,0,12-5.4,12-12v-12C265,258.4,259.6,253,253,253z M179,281c0,1.1-0.9,2-2,2c-4.4,0-8-3.6-8-8v-8
		c0-4.4,3.6-8,8-8c1.1,0,2,0.9,2,2V281z"/>
	<path class="st8" d="M253,163h-78c-6.6,0-12,5.4-12,12v12c0,6.6,5.4,12,12,12h78c6.6,0,12-5.4,12-12v-12
		C265,168.4,259.6,163,253,163z M179,191c0,1.1-0.9,2-2,2c-4.4,0-8-3.6-8-8v-8c0-4.4,3.6-8,8-8c1.1,0,2,0.9,2,2V191z"/>
	<path class="st9" d="M253,208h-78c-6.6,0-12,5.4-12,12v12c0,6.6,5.4,12,12,12l0,0h78c6.6,0,12-5.4,12-12l0,0v-12
		C265,213.4,259.6,208,253,208z M179,236c0,1.1-0.9,2-2,2c-4.4,0-8-3.6-8-8v-8c0-4.4,3.6-8,8-8c1.1,0,2,0.9,2,2V236z"/>
	<path class="st6" d="M365,44h-78c-6.6,0-12,5.4-12,12v12c0,6.6,5.4,12,12,12h78c6.6,0,12-5.4,12-12V56C377,49.4,371.6,44,365,44z
		 M291,72c0,1.1-0.9,2-2,2c-4.4,0-8-3.6-8-8v-8c0-4.4,3.6-8,8-8c1.1,0,2,0.9,2,2V72z"/>
	
		<linearGradient id="SVGID_00000088822159199480805570000017542576138812828065_" gradientUnits="userSpaceOnUse" x1="326" y1="6.89" x2="326" y2="42.89" gradientTransform="matrix(1 0 0 -1 0 295.89)">
		<stop  offset="0" style="stop-color:#4E615D"/>
		<stop  offset="1" style="stop-color:#404952"/>
	</linearGradient>
	<path style="fill:url(#SVGID_00000088822159199480805570000017542576138812828065_);" d="M365,253h-78c-6.6,0-12,5.4-12,12v12
		c0,6.6,5.4,12,12,12h78c6.6,0,12-5.4,12-12v-12C377,258.4,371.6,253,365,253z M291,281c0,1.1-0.9,2-2,2c-4.4,0-8-3.6-8-8v-8
		c0-4.4,3.6-8,8-8c1.1,0,2,0.9,2,2V281z"/>
	<path class="st8" d="M365,163h-78c-6.6,0-12,5.4-12,12v12c0,6.6,5.4,12,12,12h78c6.6,0,12-5.4,12-12v-12
		C377,168.4,371.6,163,365,163z M291,191c0,1.1-0.9,2-2,2c-4.4,0-8-3.6-8-8v-8c0-4.4,3.6-8,8-8c1.1,0,2,0.9,2,2V191z"/>
	<path class="st9" d="M365,208h-78c-6.6,0-12,5.4-12,12v12c0,6.6,5.4,12,12,12l0,0h78c6.6,0,12-5.4,12-12l0,0v-12
		C377,213.4,371.6,208,365,208z M291,236c0,1.1-0.9,2-2,2c-4.4,0-8-3.6-8-8v-8c0-4.4,3.6-8,8-8c1.1,0,2,0.9,2,2V236z"/>
	<path class="st6" d="M477,44h-78c-6.6,0-12,5.4-12,12v12c0,6.6,5.4,12,12,12h78c6.6,0,12-5.4,12-12V56C489,49.4,483.6,44,477,44z
		 M403,72c0,1.1-0.9,2-2,2c-4.4,0-8-3.6-8-8v-8c0-4.4,3.6-8,8-8c1.1,0,2,0.9,2,2V72z"/>
	
		<linearGradient id="SVGID_00000026157026020672527290000013901724865695436956_" gradientUnits="userSpaceOnUse" x1="438" y1="6.89" x2="438" y2="42.89" gradientTransform="matrix(1 0 0 -1 0 295.89)">
		<stop  offset="0" style="stop-color:#4E615D"/>
		<stop  offset="1" style="stop-color:#404952"/>
	</linearGradient>
	<path style="fill:url(#SVGID_00000026157026020672527290000013901724865695436956_);" d="M477,253h-78c-6.6,0-12,5.4-12,12v12
		c0,6.6,5.4,12,12,12h78c6.6,0,12-5.4,12-12v-12C489,258.4,483.6,253,477,253z M403,281c0,1.1-0.9,2-2,2c-4.4,0-8-3.6-8-8v-8
		c0-4.4,3.6-8,8-8c1.1,0,2,0.9,2,2V281z"/>
	<path class="st8" d="M477,163h-78c-6.6,0-12,5.4-12,12v12c0,6.6,5.4,12,12,12h78c6.6,0,12-5.4,12-12v-12
		C489,168.4,483.6,163,477,163z M403,191c0,1.1-0.9,2-2,2c-4.4,0-8-3.6-8-8v-8c0-4.4,3.6-8,8-8c1.1,0,2,0.9,2,2V191z"/>
	<path class="st9" d="M477,208h-78c-6.6,0-12,5.4-12,12v12c0,6.6,5.4,12,12,12l0,0h78c6.6,0,12-5.4,12-12l0,0v-12
		C489,213.4,483.6,208,477,208z M403,236c0,1.1-0.9,2-2,2c-4.4,0-8-3.6-8-8v-8c0-4.4,3.6-8,8-8c1.1,0,2,0.9,2,2V236z"/>
	<path class="st6" d="M589,44h-78c-6.6,0-12,5.4-12,12v12c0,6.6,5.4,12,12,12h78c6.6,0,12-5.4,12-12V56C601,49.4,595.6,44,589,44z
		 M515,72c0,1.1-0.9,2-2,2c-4.4,0-8-3.6-8-8v-8c0-4.4,3.6-8,8-8c1.1,0,2,0.9,2,2V72z"/>
	
		<linearGradient id="SVGID_00000066516590358958056790000017795839881418889913_" gradientUnits="userSpaceOnUse" x1="550" y1="6.89" x2="550" y2="42.89" gradientTransform="matrix(1 0 0 -1 0 295.89)">
		<stop  offset="0" style="stop-color:#4E615D"/>
		<stop  offset="1" style="stop-color:#404952"/>
	</linearGradient>
	<path style="fill:url(#SVGID_00000066516590358958056790000017795839881418889913_);" d="M589,253h-78c-6.6,0-12,5.4-12,12v12
		c0,6.6,5.4,12,12,12h78c6.6,0,12-5.4,12-12v-12C601,258.4,595.6,253,589,253z M515,281c0,1.1-0.9,2-2,2c-4.4,0-8-3.6-8-8v-8
		c0-4.4,3.6-8,8-8c1.1,0,2,0.9,2,2V281z"/>
	<path class="st8" d="M589,163h-78c-6.6,0-12,5.4-12,12v12c0,6.6,5.4,12,12,12h78c6.6,0,12-5.4,12-12v-12
		C601,168.4,595.6,163,589,163z M515,191c0,1.1-0.9,2-2,2c-4.4,0-8-3.6-8-8v-8c0-4.4,3.6-8,8-8c1.1,0,2,0.9,2,2V191z"/>
	<path class="st9" d="M589,208h-78c-6.6,0-12,5.4-12,12v12c0,6.6,5.4,12,12,12l0,0h78c6.6,0,12-5.4,12-12l0,0v-12
		C601,213.4,595.6,208,589,208z M515,236c0,1.1-0.9,2-2,2c-4.4,0-8-3.6-8-8v-8c0-4.4,3.6-8,8-8c1.1,0,2,0.9,2,2V236z"/>
	<path class="st6" d="M821,44H623c-6.6,0-12,5.4-12,12v12c0,6.6,5.4,12,12,12h198c6.6,0,12-5.4,12-12V56C833,49.4,827.6,44,821,44z
		 M627,72c0,1.1-0.9,2-2,2c-4.4,0-8-3.6-8-8v-8c0-4.4,3.6-8,8-8c1.1,0,2,0.9,2,2V72z"/>
	
		<linearGradient id="SVGID_00000123416480126932547430000012182007362675130265_" gradientUnits="userSpaceOnUse" x1="722" y1="6.89" x2="722" y2="42.89" gradientTransform="matrix(1 0 0 -1 0 295.89)">
		<stop  offset="0" style="stop-color:#4E615D"/>
		<stop  offset="1" style="stop-color:#404952"/>
	</linearGradient>
	<path style="fill:url(#SVGID_00000123416480126932547430000012182007362675130265_);" d="M821,253H623c-6.6,0-12,5.4-12,12v12
		c0,6.6,5.4,12,12,12h198c6.6,0,12-5.4,12-12v-12C833,258.4,827.6,253,821,253z M627,281c0,1.1-0.9,2-2,2c-4.4,0-8-3.6-8-8v-8
		c0-4.4,3.6-8,8-8c1.1,0,2,0.9,2,2V281z"/>
	<path class="st8" d="M821,163H623c-6.6,0-12,5.4-12,12v12c0,6.6,5.4,12,12,12h198c6.6,0,12-5.4,12-12v-12
		C833,168.4,827.6,163,821,163z M627,191c0,1.1-0.9,2-2,2c-4.4,0-8-3.6-8-8v-8c0-4.4,3.6-8,8-8c1.1,0,2,0.9,2,2V191z"/>
	<path class="st9" d="M821,208H623c-6.6,0-12,5.4-12,12v12c0,6.6,5.4,12,12,12l0,0h198c6.6,0,12-5.4,12-12l0,0v-12
		C833,213.4,827.6,208,821,208z M627,236c0,1.1-0.9,2-2,2c-4.4,0-8-3.6-8-8v-8c0-4.4,3.6-8,8-8c1.1,0,2,0.9,2,2V236z"/>
	<path class="st6" d="M1053,44H855c-6.6,0-12,5.4-12,12v12c0,6.6,5.4,12,12,12h198c6.6,0,12-5.4,12-12V56
		C1065,49.4,1059.6,44,1053,44z M859,72c0,1.1-0.9,2-2,2c-4.4,0-8-3.6-8-8v-8c0-4.4,3.6-8,8-8c1.1,0,2,0.9,2,2V72z"/>
	
		<linearGradient id="SVGID_00000023283573442378948640000001786838040048621247_" gradientUnits="userSpaceOnUse" x1="954" y1="6.89" x2="954" y2="42.89" gradientTransform="matrix(1 0 0 -1 0 295.89)">
		<stop  offset="0" style="stop-color:#4E615D"/>
		<stop  offset="1" style="stop-color:#404952"/>
	</linearGradient>
	<path style="fill:url(#SVGID_00000023283573442378948640000001786838040048621247_);" d="M1053,253H855c-6.6,0-12,5.4-12,12v12
		c0,6.6,5.4,12,12,12h198c6.6,0,12-5.4,12-12v-12C1065,258.4,1059.6,253,1053,253z M859,281c0,1.1-0.9,2-2,2c-4.4,0-8-3.6-8-8v-8
		c0-4.4,3.6-8,8-8c1.1,0,2,0.9,2,2V281z"/>
	<path class="st8" d="M1053,163H855c-6.6,0-12,5.4-12,12v12c0,6.6,5.4,12,12,12h198c6.6,0,12-5.4,12-12v-12
		C1065,168.4,1059.6,163,1053,163z M859,191c0,1.1-0.9,2-2,2c-4.4,0-8-3.6-8-8v-8c0-4.4,3.6-8,8-8c1.1,0,2,0.9,2,2V191z"/>
	<path class="st9" d="M1053,208H855c-6.6,0-12,5.4-12,12v12c0,6.6,5.4,12,12,12l0,0h198c6.6,0,12-5.4,12-12l0,0v-12
		C1065,213.4,1059.6,208,1053,208z M859,236c0,1.1-0.9,2-2,2c-4.4,0-8-3.6-8-8v-8c0-4.4,3.6-8,8-8c1.1,0,2,0.9,2,2V236z"/>
	<path class="st6" d="M1285,44h-198c-6.6,0-12,5.4-12,12v12c0,6.6,5.4,12,12,12h198c6.6,0,12-5.4,12-12V56
		C1297,49.4,1291.6,44,1285,44z M1091,72c0,1.1-0.9,2-2,2c-4.4,0-8-3.6-8-8v-8c0-4.4,3.6-8,8-8c1.1,0,2,0.9,2,2V72z"/>
	
		<linearGradient id="SVGID_00000094596691146217355510000010958300190019790265_" gradientUnits="userSpaceOnUse" x1="1186" y1="6.89" x2="1186" y2="42.89" gradientTransform="matrix(1 0 0 -1 0 295.89)">
		<stop  offset="0" style="stop-color:#4E615D"/>
		<stop  offset="1" style="stop-color:#404952"/>
	</linearGradient>
	<path style="fill:url(#SVGID_00000094596691146217355510000010958300190019790265_);" d="M1285,253h-198c-6.6,0-12,5.4-12,12v12
		c0,6.6,5.4,12,12,12h198c6.6,0,12-5.4,12-12v-12C1297,258.4,1291.6,253,1285,253z M1091,281c0,1.1-0.9,2-2,2c-4.4,0-8-3.6-8-8v-8
		c0-4.4,3.6-8,8-8c1.1,0,2,0.9,2,2V281z"/>
	<path class="st8" d="M1285,163h-198c-6.6,0-12,5.4-12,12v12c0,6.6,5.4,12,12,12h198c6.6,0,12-5.4,12-12v-12
		C1297,168.4,1291.6,163,1285,163z M1091,191c0,1.1-0.9,2-2,2c-4.4,0-8-3.6-8-8v-8c0-4.4,3.6-8,8-8c1.1,0,2,0.9,2,2V191z"/>
	<path class="st9" d="M1285,208h-198c-6.6,0-12,5.4-12,12v12c0,6.6,5.4,12,12,12l0,0h198c6.6,0,12-5.4,12-12l0,0v-12
		C1297,213.4,1291.6,208,1285,208z M1091,236c0,1.1-0.9,2-2,2c-4.4,0-8-3.6-8-8v-8c0-4.4,3.6-8,8-8c1.1,0,2,0.9,2,2V236z"/>
	<path class="st16" d="M163,142c0,6.6,5.4,12,12,12h78c6.6,0,12-5.4,12-12v-41c0-6.6-5.4-12-12-12h-78c-6.6,0-12,5.4-12,12V142z
		 M179,133.4V146c0,1.1-0.9,2-2,2c-4.4,0-8-3.6-8-8v-14c0-1.1,0.9-2,2-2h6c0.1,0,0.2,0,0.4,0h0.1l0.2,0.1l0.1,0.1l0.1,0.1l0.2,0.1
		l0.1,0.1c0.5,0.4,0.8,1,0.7,1.6V133.4z M179,109.6v7.4c0,0.6-0.3,1.2-0.7,1.5l-0.1,0.1l-0.2,0.1l-0.1,0.1l-0.1,0.1l-0.2,0.1h-0.1
		c-0.1,0-0.2,0-0.4,0h-6c-1.1,0-2-0.9-2-2V103c0-4.4,3.6-8,8-8c1.1,0,2,0.9,2,2V109.6z"/>
	<path class="st16" d="M275,142c0,6.6,5.4,12,12,12h78c6.6,0,12-5.4,12-12v-41c0-6.6-5.4-12-12-12h-78c-6.6,0-12,5.4-12,12V142z
		 M291,133.4V146c0,1.1-0.9,2-2,2c-4.4,0-8-3.6-8-8v-14c0-1.1,0.9-2,2-2h6c0.1,0,0.2,0,0.4,0h0.1l0.2,0.1l0.1,0.1l0.1,0.1l0.2,0.1
		l0.1,0.1c0.5,0.4,0.8,1,0.7,1.6V133.4z M291,109.6v7.4c0,0.6-0.3,1.2-0.7,1.5l-0.1,0.1l-0.2,0.1l-0.1,0.1l-0.1,0.1l-0.2,0.1h-0.1
		c-0.1,0-0.2,0-0.4,0h-6c-1.1,0-2-0.9-2-2V103c0-4.4,3.6-8,8-8c1.1,0,2,0.9,2,2L291,109.6z"/>
	<path class="st16" d="M387,142c0,6.6,5.4,12,12,12h78c6.6,0,12-5.4,12-12v-41c0-6.6-5.4-12-12-12h-78c-6.6,0-12,5.4-12,12V142z
		 M403,133.4V146c0,1.1-0.9,2-2,2c-4.4,0-8-3.6-8-8v-14c0-1.1,0.9-2,2-2h6c0.1,0,0.2,0,0.4,0h0.1l0.2,0.1l0.1,0.1l0.1,0.1l0.2,0.1
		l0.1,0.1c0.5,0.4,0.8,1,0.7,1.6V133.4z M403,109.6v7.4c0,0.6-0.3,1.2-0.7,1.5l-0.1,0.1l-0.2,0.1l-0.1,0.1l-0.1,0.1l-0.2,0.1h-0.1
		c-0.1,0-0.2,0-0.4,0h-6c-1.1,0-2-0.9-2-2V103c0-4.4,3.6-8,8-8c1.1,0,2,0.9,2,2L403,109.6z"/>
	<path class="st16" d="M499,142c0,6.6,5.4,12,12,12h78c6.6,0,12-5.4,12-12v-41c0-6.6-5.4-12-12-12h-78c-6.6,0-12,5.4-12,12V142z
		 M515,133.4V146c0,1.1-0.9,2-2,2c-4.4,0-8-3.6-8-8v-14c0-1.1,0.9-2,2-2h6c0.1,0,0.2,0,0.4,0h0.1l0.2,0.1l0.2,0.1l0.2,0.1l0.2,0.1
		l0.1,0.1c0.5,0.4,0.8,1,0.7,1.6V133.4z M515,109.6v7.4c0,0.6-0.3,1.2-0.7,1.5l-0.1,0.1l-0.2,0.1l-0.2,0.1l-0.2,0.1l-0.2,0.1h-0.1
		c-0.1,0-0.2,0-0.4,0h-6c-1.1,0-2-0.9-2-2V103c0-4.4,3.6-8,8-8c1.1,0,2,0.9,2,2L515,109.6z"/>
	<path class="st16" d="M611,142c0,6.6,5.4,12,12,12h198c6.6,0,12-5.4,12-12v-41c0-6.6-5.4-12-12-12H623c-6.6,0-12,5.4-12,12V142z
		 M627,133.4V146c0,1.1-0.9,2-2,2c-4.4,0-8-3.6-8-8v-14c0-1.1,0.9-2,2-2h6c0.1,0,0.2,0,0.4,0h0.1l0.2,0.1l0.2,0.1l0.2,0.1l0.2,0.1
		l0.1,0.1c0.5,0.4,0.8,1,0.7,1.6V133.4z M627,109.6v7.4c0,0.6-0.3,1.2-0.7,1.5l-0.1,0.1l-0.2,0.1l-0.2,0.1l-0.2,0.1l-0.2,0.1h-0.1
		c-0.1,0-0.2,0-0.4,0h-6c-1.1,0-2-0.9-2-2V103c0-4.4,3.6-8,8-8c1.1,0,2,0.9,2,2L627,109.6z"/>
	<path class="st16" d="M843,142c0,6.6,5.4,12,12,12h198c6.6,0,12-5.4,12-12v-41c0-6.6-5.4-12-12-12H855c-6.6,0-12,5.4-12,12V142z
		 M859,133.4V146c0,1.1-0.9,2-2,2c-4.4,0-8-3.6-8-8v-14c0-1.1,0.9-2,2-2h6c0.1,0,0.2,0,0.4,0h0.1l0.2,0.1l0.2,0.1l0.2,0.1l0.2,0.1
		l0.1,0.1c0.5,0.4,0.8,1,0.7,1.6V133.4z M859,109.6v7.4c0,0.6-0.3,1.2-0.7,1.5l-0.1,0.1l-0.2,0.1l-0.2,0.1l-0.2,0.1l-0.2,0.1h-0.1
		c-0.1,0-0.2,0-0.4,0h-6c-1.1,0-2-0.9-2-2V103c0-4.4,3.6-8,8-8c1.1,0,2,0.9,2,2L859,109.6z"/>
	<path class="st16" d="M1075,142c0,6.6,5.4,12,12,12h198c6.6,0,12-5.4,12-12v-41c0-6.6-5.4-12-12-12h-198c-6.6,0-12,5.4-12,12V142z
		 M1091,133.4V146c0,1.1-0.9,2-2,2c-4.4,0-8-3.6-8-8v-14c0-1.1,0.9-2,2-2h6c0.1,0,0.2,0,0.4,0h0.1l0.2,0.1l0.2,0.1l0.2,0.1l0.2,0.1
		l0.1,0.1c0.5,0.4,0.8,1,0.7,1.6V133.4z M1091,109.6v7.4c0,0.6-0.3,1.2-0.7,1.5l-0.1,0.1l-0.2,0.1l-0.2,0.1l-0.2,0.1l-0.2,0.1h-0.1
		c-0.1,0-0.2,0-0.4,0h-6c-1.1,0-2-0.9-2-2V103c0-4.4,3.6-8,8-8c1.1,0,2,0.9,2,2V109.6z"/>
	<path class="st17" d="M175,7h78c6.6,0,12,5.4,12,12v4c0,6.6-5.4,12-12,12h-78c-6.6,0-12-5.4-12-12v-4C163,12.4,168.4,7,175,7z"/>
	<path class="st17" d="M399,7h78c6.6,0,12,5.4,12,12v4c0,6.6-5.4,12-12,12h-78c-6.6,0-12-5.4-12-12v-4C387,12.4,392.4,7,399,7z"/>
	<path class="st17" d="M287,7h78c6.6,0,12,5.4,12,12v4c0,6.6-5.4,12-12,12h-78c-6.6,0-12-5.4-12-12v-4C275,12.4,280.4,7,287,7z"/>
	<path class="st17" d="M511,7h78c6.6,0,12,5.4,12,12v4c0,6.6-5.4,12-12,12h-78c-6.6,0-12-5.4-12-12v-4C499,12.4,504.4,7,511,7z"/>
	<path class="st17" d="M623,7h198c6.6,0,12,5.4,12,12v4c0,6.6-5.4,12-12,12H623c-6.6,0-12-5.4-12-12v-4C611,12.4,616.4,7,623,7z"/>
	<path class="st17" d="M855,7h198c6.6,0,12,5.4,12,12v4c0,6.6-5.4,12-12,12H855c-6.6,0-12-5.4-12-12v-4C843,12.4,848.4,7,855,7z"/>
	<path class="st17" d="M1087,7h198c6.6,0,12,5.4,12,12v4c0,6.6-5.4,12-12,12h-198c-6.6,0-12-5.4-12-12v-4C1075,12.4,1080.4,7,1087,7
		z"/>
</g>
<g id="txt">
	<path class="st18" d="M28.3,231.2c-1,0.5-2,0.7-3.1,0.7c-1.4,0.1-2.8-0.5-3.8-1.5c-1-1.1-1.5-2.5-1.4-4c-0.1-1.6,0.5-3.2,1.6-4.4
		c1.1-1.1,2.6-1.7,4.1-1.6c0.9,0,1.8,0.1,2.6,0.5v1.4c-0.8-0.5-1.7-0.7-2.7-0.7c-1.2,0-2.3,0.4-3.1,1.3c-0.8,1-1.3,2.2-1.2,3.4
		c-0.1,1.2,0.3,2.4,1.1,3.3c0.8,0.8,1.8,1.3,3,1.2c1,0,2-0.2,2.9-0.8V231.2z"/>
	<path class="st18" d="M31.7,231.6h-1.3v-11.8h1.3V231.6z"/>
	<path class="st18" d="M34.9,221.6c-0.2,0-0.4-0.1-0.6-0.2c-0.2-0.2-0.2-0.4-0.2-0.6c0-0.5,0.3-0.8,0.8-0.8c0,0,0,0,0,0
		c0.2,0,0.4,0.1,0.6,0.2c0.2,0.2,0.2,0.4,0.2,0.6c0,0.2-0.1,0.4-0.2,0.6C35.4,221.5,35.2,221.6,34.9,221.6z M35.6,231.6h-1.3v-8h1.3
		V231.6z"/>
	<path class="st18" d="M44.6,228h-5.7c0,0.8,0.2,1.5,0.7,2.1c0.5,0.5,1.2,0.8,1.9,0.7c0.9,0,1.8-0.3,2.5-0.9v1.2
		c-0.8,0.5-1.8,0.8-2.8,0.8c-1,0-2-0.4-2.7-1.1c-0.7-0.9-1.1-2-1-3.1c0-1.1,0.3-2.2,1.1-3c0.7-0.8,1.6-1.2,2.6-1.2
		c0.9-0.1,1.8,0.3,2.4,1c0.6,0.8,0.9,1.8,0.9,2.8L44.6,228z M43.3,226.9c0-0.6-0.2-1.2-0.5-1.7c-0.4-0.4-0.9-0.6-1.5-0.6
		c-0.6,0-1.1,0.2-1.5,0.6c-0.4,0.5-0.7,1.1-0.8,1.7H43.3z"/>
	<path class="st18" d="M53.2,231.6h-1.3v-4.6c0-1.7-0.6-2.6-1.9-2.6c-0.6,0-1.2,0.2-1.6,0.7c-0.4,0.5-0.7,1.2-0.6,1.8v4.6h-1.3v-8
		h1.3v1.4l0,0c0.5-1,1.5-1.6,2.6-1.5c0.8,0,1.5,0.3,2,0.9c0.5,0.7,0.8,1.6,0.7,2.4L53.2,231.6z"/>
	<path class="st18" d="M59.3,231.6c-0.4,0.2-0.8,0.3-1.2,0.2c-1.4,0-2.1-0.8-2.1-2.3v-4.7h-1.4v-1.1H56v-2l1.3-0.4v2.4h2v1.1h-2v4.5
		c0,0.4,0.1,0.8,0.3,1.1c0.2,0.2,0.6,0.4,0.9,0.3c0.3,0,0.6-0.1,0.8-0.3L59.3,231.6z"/>
	<path class="st18" d="M67.3,228h-5.6c0,0.8,0.2,1.5,0.7,2.1c0.5,0.5,1.2,0.8,1.9,0.7c0.9,0,1.8-0.3,2.5-0.9v1.2
		c-0.8,0.5-1.8,0.8-2.8,0.8c-1,0-2-0.4-2.7-1.1c-0.7-0.9-1.1-2-1-3.1c0-1.1,0.3-2.2,1.1-3c0.6-0.8,1.6-1.3,2.6-1.2
		c0.9-0.1,1.8,0.3,2.4,1c0.6,0.8,0.9,1.8,0.8,2.8L67.3,228z M66,226.9c0-0.6-0.2-1.2-0.5-1.7c-0.4-0.4-0.9-0.6-1.5-0.6
		c-0.6,0-1.1,0.2-1.5,0.6c-0.4,0.5-0.7,1.1-0.8,1.7H66z"/>
	<path class="st18" d="M68.8,231.4V230c0.7,0.5,1.5,0.8,2.3,0.8c1.1,0,1.7-0.4,1.7-1.1c0-0.2,0-0.4-0.1-0.5
		c-0.1-0.2-0.2-0.3-0.4-0.4c-0.2-0.1-0.4-0.2-0.6-0.3l-0.7-0.3c-0.4-0.1-0.7-0.3-0.9-0.4c-0.2-0.1-0.5-0.3-0.7-0.5
		c-0.2-0.2-0.3-0.4-0.4-0.6c-0.1-0.3-0.1-0.5-0.1-0.8c0-0.4,0.1-0.7,0.3-1c0.2-0.3,0.4-0.5,0.7-0.7c0.3-0.2,0.6-0.4,1-0.4
		c0.4-0.1,0.8-0.2,1.1-0.1c0.6,0,1.3,0.1,1.9,0.4v1.3c-0.6-0.4-1.3-0.6-2-0.6c-0.2,0-0.4,0-0.6,0.1c-0.2,0-0.3,0.1-0.5,0.2
		c-0.1,0.1-0.2,0.2-0.3,0.4c-0.1,0.1-0.1,0.3-0.1,0.4c0,0.2,0,0.4,0.1,0.5c0.1,0.1,0.2,0.3,0.3,0.4c0.2,0.1,0.3,0.2,0.5,0.3l0.7,0.3
		c0.3,0.1,0.7,0.3,1,0.4c0.3,0.1,0.5,0.3,0.7,0.5c0.2,0.2,0.3,0.4,0.4,0.6c0.1,0.3,0.2,0.6,0.2,0.8c0,0.4-0.1,0.7-0.3,1
		c-0.2,0.3-0.4,0.5-0.7,0.7c-0.3,0.2-0.6,0.3-1,0.4c-0.4,0.1-0.8,0.1-1.2,0.1C70.2,231.9,69.5,231.7,68.8,231.4z"/>
	<path class="st19" d="M214.5,26.6h-1.6l-5.8-8.9c-0.1-0.2-0.3-0.5-0.4-0.7h-0.1c0.1,0.5,0.1,1,0.1,1.5v8.1h-1.3V15.4h1.7l5.6,8.8
		c0.2,0.2,0.3,0.5,0.5,0.8l0,0c-0.1-0.5-0.1-1.1-0.1-1.6v-7.9h1.3L214.5,26.6z"/>
	<path class="st19" d="M223.1,16.6h-4.4v3.9h4.1v1.2h-4.1v5h-1.3V15.4h5.7V16.6z"/>
	<path class="st19" d="M319.2,22.4v4.2h-1.3V15.4h3.1c1-0.1,2,0.2,2.8,0.9c0.7,0.6,1,1.5,1,2.5c0,1-0.4,1.9-1.1,2.6
		c-0.8,0.7-1.9,1.1-3,1L319.2,22.4z M319.2,16.6v4.6h1.4c0.7,0,1.5-0.2,2.1-0.6c0.5-0.5,0.7-1.1,0.7-1.8c0-1.5-0.9-2.2-2.6-2.2
		H319.2z"/>
	<path class="st19" d="M335.2,15.4l-4.1,11.2h-1.4l-4.1-11.2h1.4l3.1,8.9c0.1,0.3,0.2,0.7,0.2,1l0,0c0-0.3,0.1-0.7,0.2-1l3.2-8.9
		L335.2,15.4z"/>
	<path class="st19" d="M531.2,26.6h-1.6l-5.8-8.9c-0.1-0.2-0.3-0.5-0.3-0.7h0c0.1,0.5,0.1,1,0.1,1.5v8.1h-1.3V15.4h1.7l5.6,8.8
		c0.2,0.2,0.3,0.5,0.5,0.8l0,0c-0.1-0.5-0.1-1.1-0.1-1.6v-7.9h1.3L531.2,26.6z"/>
	<path class="st19" d="M539.8,16.6h-4.4v3.9h4v1.2h-4v5h-1.3V15.4h5.7V16.6z"/>
	<path class="st19" d="M554,22.5h-3.2v3.1h-1v-3.1h-3.1v-1h3.1v-3.1h1v3.1h3.2V22.5z"/>
	<path class="st19" d="M563,22.4v4.2h-1.3V15.4h3.1c1-0.1,2,0.2,2.8,0.9c0.7,0.6,1,1.5,1,2.5c0,1-0.4,1.9-1.1,2.6
		c-0.8,0.7-1.9,1.1-3,1L563,22.4z M563,16.6v4.6h1.4c0.7,0.1,1.5-0.2,2.1-0.6c0.5-0.4,0.8-1.1,0.7-1.8c0-1.5-0.9-2.2-2.6-2.2H563z"
		/>
	<path class="st19" d="M579,15.4l-4.2,11.2h-1.4l-4.1-11.2h1.5l3.1,8.9c0.1,0.3,0.2,0.7,0.2,1l0,0c0.1-0.3,0.1-0.7,0.3-1l3.2-8.9
		L579,15.4z"/>
	<path class="st19" d="M402.2,26.6V15.4h3.1c4,0,5.9,1.8,5.9,5.5c0.1,1.6-0.5,3.1-1.6,4.1c-1.2,1.1-2.8,1.7-4.4,1.6L402.2,26.6z
		 M403.5,16.6v8.8h1.7c1.3,0.1,2.5-0.3,3.4-1.2c0.9-0.9,1.3-2.1,1.2-3.3c0-2.9-1.5-4.3-4.6-4.3L403.5,16.6z"/>
	<path class="st19" d="M419.7,22.9H414c0,0.8,0.2,1.5,0.7,2.1c0.5,0.5,1.2,0.8,1.9,0.7c0.9,0,1.8-0.3,2.5-0.9V26
		c-0.8,0.5-1.8,0.8-2.8,0.8c-1,0.1-2-0.3-2.7-1.1c-0.7-0.9-1.1-2-1-3.1c0-1.1,0.3-2.2,1.1-3c0.7-0.8,1.6-1.2,2.6-1.2
		c0.9-0.1,1.8,0.3,2.4,1c0.6,0.8,0.9,1.8,0.9,2.8L419.7,22.9z M418.4,21.8c0-0.6-0.2-1.2-0.5-1.7c-0.4-0.4-0.9-0.6-1.5-0.6
		c-0.6,0-1.1,0.2-1.5,0.6c-0.4,0.5-0.7,1.1-0.8,1.7H418.4z"/>
	<path class="st19" d="M427.9,18.6l-3.2,8h-1.3l-3-8h1.4l2,5.8c0.1,0.4,0.2,0.7,0.3,1.1l0,0c0-0.4,0.1-0.7,0.2-1.1l2.1-5.9H427.9z"
		/>
	<path class="st19" d="M432.5,26.8c-1.1,0.1-2.1-0.4-2.8-1.1c-0.7-0.8-1.1-1.9-1.1-3c-0.1-1.2,0.3-2.3,1.1-3.1
		c0.8-0.8,1.9-1.2,3-1.1c1-0.1,2.1,0.3,2.8,1.1c0.7,0.9,1.1,1.9,1,3c0.1,1.1-0.3,2.2-1.1,3.1C434.7,26.4,433.6,26.8,432.5,26.8z
		 M432.6,19.5c-0.7,0-1.5,0.3-2,0.8c-0.5,0.7-0.8,1.5-0.7,2.3c0,0.8,0.2,1.6,0.7,2.2c0.5,0.6,1.2,0.9,1.9,0.8c0.7,0,1.4-0.3,1.9-0.8
		c0.5-0.7,0.7-1.5,0.7-2.3c0.1-0.8-0.2-1.6-0.7-2.3C434,19.7,433.3,19.4,432.6,19.5z"/>
	<path class="st19" d="M439.8,26.6h-1.3V14.8h1.3V26.6z"/>
	<path class="st19" d="M448.9,26.6h-1.3v-1.3l0,0c-0.5,0.9-1.4,1.5-2.5,1.5c-1.9,0-2.9-1.1-2.9-3.4v-4.8h1.3v4.6
		c0,1.7,0.6,2.5,1.9,2.5c0.6,0,1.1-0.3,1.5-0.7c0.4-0.5,0.6-1.2,0.6-1.8v-4.6h1.3L448.9,26.6z"/>
	<path class="st19" d="M456.9,26.2c-0.7,0.4-1.4,0.6-2.2,0.6c-1,0-2-0.4-2.7-1.1c-0.7-0.8-1.1-1.8-1-2.9c-0.1-1.2,0.4-2.3,1.1-3.2
		c0.8-0.8,1.9-1.2,3-1.2c0.6,0,1.3,0.1,1.9,0.4v1.3c-0.6-0.4-1.2-0.6-1.9-0.6c-0.8,0-1.5,0.3-2,0.9c-0.5,0.6-0.8,1.5-0.8,2.3
		c0,0.8,0.2,1.6,0.8,2.2c0.5,0.6,1.2,0.9,2,0.8c0.7,0,1.4-0.2,2-0.7L456.9,26.2z M456.3,28.6c0,0.9-0.7,1.4-2.1,1.4h-0.5v-0.7
		c0.2,0,0.4,0,0.5,0c0.7,0,1.1-0.2,1.1-0.7s-0.3-0.6-1-0.6h-0.3v-1.4h0.9v0.8c0.4,0,0.8,0.1,1.1,0.3
		C456.1,27.9,456.3,28.3,456.3,28.6L456.3,28.6z"/>
	<path class="st19" d="M464.6,26.6h-1.3v-1.2l0,0c-0.8,1.4-2.6,1.9-4,1c-0.1-0.1-0.2-0.1-0.3-0.2c-0.5-0.4-0.7-1.1-0.7-1.7
		c0-1.5,0.9-2.4,2.6-2.6l2.4-0.3c0-1.4-0.5-2-1.6-2c-1,0-1.9,0.4-2.6,1v-1.4c0.8-0.5,1.8-0.8,2.7-0.8c1.9,0,2.8,1,2.8,3L464.6,26.6z
		 M464.2,15.2c0,0.5-0.1,0.9-0.4,1.3c-0.2,0.3-0.6,0.5-1,0.5c-0.5,0-0.9-0.2-1.3-0.4c-0.3-0.2-0.6-0.3-0.9-0.3
		c-0.5,0-0.7,0.3-0.7,0.9h-0.7c0-0.5,0.1-0.9,0.4-1.3c0.2-0.3,0.6-0.5,1-0.5c0.4,0,0.8,0.2,1.2,0.4c0.3,0.2,0.6,0.3,1,0.3
		c0.4,0,0.7-0.3,0.7-0.9L464.2,15.2z M463.3,22.5l-1.9,0.3c-0.5,0-0.9,0.2-1.3,0.4c-0.3,0.3-0.5,0.7-0.5,1.1c0,0.4,0.1,0.7,0.4,1
		c0.3,0.3,0.7,0.4,1.1,0.4c0.6,0,1.2-0.2,1.6-0.7c0.4-0.5,0.6-1.1,0.6-1.7V22.5z"/>
	<path class="st19" d="M470.4,26.8c-1.1,0-2.1-0.4-2.8-1.1c-0.7-0.8-1.1-1.9-1.1-3c-0.1-1.2,0.3-2.3,1.1-3.1c0.8-0.8,1.9-1.2,3-1.1
		c1-0.1,2.1,0.3,2.8,1.1c0.7,0.9,1.1,1.9,1,3c0.1,1.1-0.3,2.2-1.1,3.1C472.5,26.4,471.4,26.8,470.4,26.8z M470.5,19.5
		c-0.8,0-1.5,0.3-2,0.8c-0.5,0.7-0.8,1.5-0.7,2.3c0,0.8,0.2,1.6,0.7,2.2c0.5,0.6,1.2,0.9,2,0.8c0.7,0,1.4-0.3,1.9-0.8
		c0.5-0.7,0.7-1.5,0.7-2.3c0-0.8-0.2-1.6-0.7-2.3C471.9,19.8,471.2,19.5,470.5,19.5z"/>
	<path class="st19" d="M683.7,26.6h-5.8V15.4h1.3v10h4.5V26.6z"/>
	<path class="st19" d="M691.7,15.4l-3.7,7.1v4.1h-1.3v-4.1l-3.6-7.1h1.5l2.5,5.1c0,0.1,0.1,0.3,0.3,0.7l0,0c0.1-0.2,0.2-0.5,0.3-0.7
		l2.6-5.1H691.7z"/>
	<path class="st19" d="M706.7,26.6H705l-5.8-8.9c-0.1-0.2-0.3-0.5-0.4-0.7l0,0c0.1,0.5,0.1,1,0.1,1.5v8.1h-1.3V15.4h1.7l5.6,8.8
		c0.2,0.4,0.4,0.6,0.5,0.8l0,0c-0.1-0.5-0.1-1.1-0.1-1.6v-7.9h1.3L706.7,26.6z"/>
	<path class="st19" d="M715.3,16.6h-4.4v3.9h4v1.2h-4v5h-1.3V15.4h5.7V16.6z"/>
	<path class="st19" d="M724.5,15.5c-1.4,1.9-2.1,4.2-2,6.6c-0.1,2.3,0.6,4.6,2,6.5h-1.1c-1.4-1.9-2.1-4.2-2.1-6.5
		c-0.1-2.4,0.7-4.7,2.1-6.5L724.5,15.5z"/>
	<path class="st19" d="M725.3,25.8l3.8-10h1.6l3.7,10v0.8h-9.1V25.8z M732.8,25.4l-2.2-5.9c-0.3-0.8-0.6-1.7-0.8-2.4l0,0
		c-0.2,0.5-0.5,1.4-0.7,2.2l-2.3,6.1H732.8z"/>
	<path class="st19" d="M745.5,15.4l-5.4,13.1h-1.2l5.4-13.1H745.5z"/>
	<path class="st19" d="M752.9,21c-0.7,0-1.4-0.3-1.8-0.8c-0.5-0.6-0.7-1.3-0.7-2c0-0.8,0.2-1.6,0.7-2.2c0.5-0.6,1.2-0.9,2-0.8
		c0.7,0,1.4,0.2,1.8,0.7c0.5,0.6,0.7,1.3,0.7,2.1c0,0.8-0.2,1.6-0.7,2.2C754.4,20.8,753.7,21,752.9,21z M753,16.1
		c-0.5,0-0.9,0.2-1.2,0.5c-0.3,0.4-0.5,1-0.4,1.5c0,0.5,0.1,1,0.4,1.5c0.3,0.3,0.7,0.5,1.2,0.5c0.5,0,0.9-0.2,1.2-0.5
		c0.3-0.4,0.4-1,0.4-1.5c0-0.5-0.1-1-0.4-1.5C753.9,16.2,753.4,16.1,753,16.1L753,16.1z M760.4,15.4l-7.2,11.3h-1.1l7.2-11.3H760.4z
		 M759.6,26.7c-0.7,0-1.4-0.2-1.8-0.8c-0.5-0.6-0.7-1.3-0.7-2c0-0.8,0.2-1.6,0.7-2.2c0.5-0.6,1.2-0.9,2-0.8c0.7,0,1.4,0.2,1.8,0.8
		c0.5,0.6,0.7,1.3,0.7,2.1c0,0.8-0.2,1.6-0.7,2.1C761.1,26.5,760.3,26.8,759.6,26.7L759.6,26.7z M759.7,21.8c-0.5,0-0.9,0.2-1.2,0.5
		c-0.3,0.4-0.5,1-0.4,1.5c0,0.5,0.1,1,0.4,1.5c0.3,0.3,0.7,0.5,1.2,0.5c0.5,0,0.9-0.2,1.2-0.5c0.3-0.4,0.4-1,0.4-1.5
		c0-0.5-0.1-1-0.4-1.5C760.6,22,760.1,21.8,759.7,21.8L759.7,21.8z"/>
	<path class="st19" d="M763.2,28.5c1.4-1.9,2.1-4.2,2-6.5c0.1-2.3-0.6-4.6-2-6.5h1.1c1.4,1.9,2.2,4.2,2.1,6.5
		c0.1,2.4-0.7,4.7-2.1,6.5L763.2,28.5z"/>
	<path class="st19" d="M910.2,26.6h-1.3v-7.5c0-0.6,0-1.3,0.1-2.2l0,0c-0.1,0.4-0.2,0.7-0.3,1.1l-3.8,8.6h-0.6l-3.8-8.5
		c-0.1-0.4-0.3-0.8-0.3-1.1l0,0c0,0.4,0.1,1.2,0.1,2.2v7.5h-1.3V15.4h1.7l3.4,7.8c0.2,0.4,0.4,0.9,0.5,1.3l0,0
		c0.2-0.6,0.4-1.1,0.5-1.4l3.5-7.8h1.6L910.2,26.6z"/>
	<path class="st19" d="M919.4,22.9h-5.7c0,0.8,0.2,1.5,0.7,2.1c0.5,0.5,1.2,0.8,1.9,0.7c0.9,0,1.8-0.3,2.5-0.9V26
		c-0.8,0.5-1.8,0.8-2.8,0.8c-1,0.1-2-0.3-2.7-1.1c-0.7-0.9-1.1-2-1-3.1c0-1.1,0.3-2.2,1.1-3c0.7-0.8,1.6-1.2,2.6-1.2
		c0.9-0.1,1.8,0.3,2.4,1c0.6,0.8,0.9,1.8,0.9,2.8L919.4,22.9z M918.1,21.8c0-0.6-0.2-1.2-0.5-1.7c-0.4-0.4-0.9-0.6-1.5-0.6
		c-0.6,0-1.1,0.2-1.5,0.6c-0.4,0.5-0.7,1.1-0.8,1.7H918.1z"/>
	<path class="st19" d="M925,26.5c-0.4,0.2-0.8,0.3-1.2,0.2c-1.4,0-2.1-0.8-2.1-2.3v-4.7h-1.4v-1.1h1.4v-2l1.3-0.4v2.4h2v1.1h-2v4.5
		c0,0.4,0.1,0.8,0.3,1.1c0.2,0.3,0.6,0.4,0.9,0.4c0.3,0,0.6-0.1,0.8-0.3L925,26.5z"/>
	<path class="st19" d="M932.5,26.6h-1.3v-1.2l0,0c-0.5,0.9-1.4,1.5-2.5,1.4c-0.7,0-1.4-0.2-1.9-0.6c-0.5-0.4-0.7-1-0.7-1.7
		c0-1.5,0.9-2.4,2.6-2.6l2.4-0.3c0-1.3-0.6-2-1.7-2c-1,0-1.9,0.4-2.6,1v-1.4c0.8-0.5,1.8-0.8,2.7-0.8c1.9,0,2.8,1,2.8,3L932.5,26.6z
		 M931.2,22.5l-1.9,0.3c-0.5,0-0.9,0.2-1.3,0.4c-0.3,0.3-0.5,0.7-0.5,1.1c0,0.4,0.1,0.7,0.4,1c0.3,0.3,0.7,0.4,1.1,0.4
		c0.6,0,1.2-0.2,1.6-0.7c0.4-0.5,0.6-1.1,0.6-1.7L931.2,22.5z"/>
	<path class="st19" d="M940.8,22.4v4.2h-1.3V15.4h3.1c1-0.1,2,0.2,2.8,0.9c0.7,0.6,1,1.5,1,2.5c0,1-0.4,1.9-1.1,2.6
		c-0.8,0.7-1.9,1.1-3,1L940.8,22.4z M940.8,16.6v4.6h1.4c0.7,0.1,1.5-0.2,2.1-0.6c0.5-0.4,0.8-1.1,0.7-1.8c0-1.5-0.9-2.2-2.6-2.2
		H940.8z"/>
	<path class="st19" d="M952.9,26.8c-1.4,0.1-2.8-0.5-3.8-1.6c-1-1.1-1.5-2.6-1.4-4.1c-0.1-1.6,0.4-3.1,1.5-4.3c1-1.1,2.5-1.7,4-1.6
		c1.4-0.1,2.8,0.5,3.7,1.6c1,1.1,1.5,2.6,1.4,4.1c0.1,1.6-0.4,3.1-1.5,4.3C955.9,26.3,954.4,26.9,952.9,26.8z M953,16.4
		c-1.1,0-2.2,0.4-2.9,1.3c-0.8,0.9-1.2,2.1-1.1,3.4c-0.1,1.2,0.3,2.4,1.1,3.3c0.7,0.8,1.7,1.3,2.8,1.3c1.1,0.1,2.2-0.4,2.9-1.2
		c0.8-1,1.2-2.2,1.1-3.4c0.1-1.2-0.3-2.4-1-3.4C955.2,16.7,954.1,16.3,953,16.4z"/>
	<path class="st19" d="M967.6,15.5c-1.4,1.9-2.1,4.2-2,6.6c0,2.3,0.7,4.6,2,6.5h-1.1c-1.4-1.9-2.2-4.2-2.1-6.5
		c0-2.4,0.7-4.7,2.1-6.5L967.6,15.5z"/>
	<path class="st19" d="M968.3,25.8l3.8-10h1.6l3.7,10v0.8h-9.1L968.3,25.8z M975.9,25.4l-2.2-5.9c-0.3-0.8-0.6-1.7-0.8-2.4h0
		c-0.2,0.5-0.5,1.4-0.7,2.2l-2.3,6.1H975.9z"/>
	<path class="st19" d="M988.6,15.4l-5.4,13.1H982l5.4-13.1L988.6,15.4z"/>
	<path class="st19" d="M996,21c-0.7,0-1.4-0.3-1.8-0.8c-0.5-0.6-0.7-1.3-0.7-2c0-0.8,0.2-1.6,0.7-2.2c0.5-0.6,1.2-0.8,2-0.8
		c0.7,0,1.3,0.3,1.8,0.8c0.5,0.6,0.7,1.3,0.7,2.1c0,0.8-0.2,1.6-0.7,2.2C997.4,20.8,996.7,21,996,21z M996.1,16.1
		c-0.5,0-0.9,0.2-1.2,0.5c-0.3,0.4-0.5,1-0.4,1.5c0,0.5,0.1,1,0.4,1.5c0.3,0.4,0.7,0.5,1.2,0.5c0.5,0,0.9-0.2,1.2-0.5
		c0.3-0.4,0.4-1,0.4-1.5c0-0.5-0.1-1-0.4-1.5C997,16.3,996.6,16.1,996.1,16.1L996.1,16.1z M1003.5,15.4l-7.2,11.3h-1.1l7.2-11.3
		H1003.5z M1002.7,26.7c-0.7,0-1.4-0.2-1.8-0.8c-0.5-0.6-0.7-1.3-0.7-2c0-0.8,0.2-1.6,0.7-2.2c0.5-0.6,1.2-0.9,2-0.8
		c0.7,0,1.4,0.2,1.8,0.8c0.5,0.6,0.7,1.3,0.7,2.1c0,0.8-0.2,1.6-0.7,2.1C1004.1,26.5,1003.4,26.8,1002.7,26.7L1002.7,26.7z
		 M1002.8,21.8c-0.5,0-0.9,0.2-1.2,0.5c-0.3,0.4-0.5,1-0.4,1.5c0,0.5,0.1,1,0.4,1.5c0.5,0.6,1.5,0.7,2.1,0.2
		c0.1-0.1,0.1-0.1,0.2-0.2c0.3-0.4,0.4-1,0.4-1.5c0-0.5-0.1-1-0.4-1.5C1003.6,22,1003.2,21.8,1002.8,21.8L1002.8,21.8z"/>
	<path class="st19" d="M1006.3,28.5c1.4-1.9,2.1-4.2,2-6.5c0.1-2.3-0.6-4.6-2-6.5h1.1c1.4,1.9,2.2,4.2,2.1,6.5
		c0.1,2.4-0.7,4.7-2.1,6.5L1006.3,28.5z"/>
	<path class="st19" d="M1119.5,16.6h-4.4v3.9h4.1v1.2h-4.1v5h-1.3V15.4h5.7L1119.5,16.6z"/>
	<path class="st19" d="M1124.8,26.8c-1.1,0-2.1-0.4-2.8-1.1c-0.7-0.8-1.1-1.9-1.1-3c-0.1-1.2,0.3-2.3,1.1-3.1c0.8-0.8,1.9-1.2,3-1.1
		c1-0.1,2.1,0.3,2.8,1.1c0.7,0.9,1.1,1.9,1,3c0.1,1.1-0.3,2.2-1.1,3.1C1127,26.4,1125.9,26.8,1124.8,26.8z M1124.9,19.5
		c-0.8,0-1.5,0.3-2,0.8c-0.5,0.7-0.8,1.5-0.7,2.3c0,0.8,0.2,1.6,0.7,2.2c0.5,0.6,1.2,0.9,2,0.8c0.7,0,1.4-0.3,1.9-0.8
		c0.5-0.7,0.7-1.5,0.7-2.3c0.1-0.8-0.2-1.6-0.7-2.3C1126.3,19.7,1125.6,19.4,1124.9,19.5z"/>
	<path class="st19" d="M1135,19.9c-0.3-0.2-0.6-0.3-1-0.3c-0.6,0-1.1,0.3-1.4,0.8c-0.4,0.6-0.6,1.4-0.6,2.1v4.1h-1.3v-8h1.3v1.6l0,0
		c0.1-0.5,0.4-1,0.8-1.3c0.4-0.3,0.8-0.5,1.3-0.5c0.3,0,0.5,0,0.8,0.1L1135,19.9z"/>
	<path class="st19" d="M1142.6,22.9h-5.6c0,0.8,0.2,1.5,0.7,2.1c0.5,0.5,1.2,0.8,1.9,0.7c0.9,0,1.8-0.3,2.5-0.9V26
		c-0.8,0.5-1.8,0.8-2.8,0.8c-1,0.1-2-0.3-2.7-1.1c-0.7-0.9-1.1-2-1-3.1c0-1.1,0.3-2.2,1.1-3c0.7-0.8,1.6-1.2,2.6-1.2
		c0.9-0.1,1.8,0.3,2.4,1c0.6,0.8,0.9,1.8,0.9,2.8L1142.6,22.9z M1141.3,21.8c0-0.6-0.2-1.2-0.5-1.7c-0.4-0.4-0.9-0.6-1.5-0.6
		c-0.6,0-1.1,0.2-1.5,0.6c-0.4,0.5-0.7,1.1-0.8,1.7H1141.3z"/>
	<path class="st19" d="M1150,26.2c-0.7,0.4-1.4,0.6-2.2,0.6c-1,0-2-0.4-2.8-1.1c-0.7-0.8-1.1-1.8-1-2.9c-0.1-1.2,0.3-2.3,1.1-3.2
		c0.8-0.8,1.9-1.2,3-1.2c0.6,0,1.3,0.1,1.9,0.4v1.3c-0.6-0.4-1.2-0.6-1.9-0.6c-0.8,0-1.5,0.3-2,0.9c-0.5,0.6-0.8,1.5-0.8,2.3
		c0,0.8,0.2,1.6,0.7,2.2c0.5,0.6,1.2,0.9,2,0.8c0.7,0,1.4-0.2,2-0.7L1150,26.2z"/>
	<path class="st19" d="M1157.7,26.6h-1.3v-1.2l0,0c-0.5,0.9-1.4,1.5-2.5,1.4c-0.7,0-1.4-0.2-1.9-0.6c-0.5-0.4-0.7-1-0.7-1.7
		c0-1.5,0.9-2.4,2.6-2.6l2.4-0.3c0-1.3-0.6-2-1.7-2c-1,0-1.9,0.4-2.6,1v-1.4c0.8-0.5,1.8-0.8,2.7-0.8c1.9,0,2.8,1,2.8,3L1157.7,26.6
		z M1156.4,22.5l-1.9,0.3c-0.5,0-0.9,0.2-1.3,0.4c-0.3,0.3-0.5,0.7-0.5,1.1c0,0.4,0.1,0.7,0.4,1c0.3,0.3,0.7,0.4,1.1,0.4
		c0.6,0,1.2-0.2,1.6-0.7c0.4-0.5,0.6-1.1,0.6-1.7V22.5z"/>
	<path class="st19" d="M1159.6,26.3v-1.4c0.7,0.5,1.5,0.8,2.3,0.8c1.1,0,1.7-0.4,1.7-1.1c0-0.2,0-0.4-0.1-0.5
		c-0.1-0.2-0.2-0.3-0.4-0.4c-0.2-0.1-0.4-0.2-0.6-0.3l-0.7-0.3c-0.3-0.1-0.7-0.3-0.9-0.4c-0.2-0.1-0.5-0.3-0.7-0.5
		c-0.2-0.2-0.3-0.4-0.4-0.6c-0.1-0.3-0.1-0.5-0.1-0.8c0-0.3,0.1-0.7,0.2-1c0.2-0.3,0.4-0.5,0.7-0.7c0.3-0.2,0.6-0.3,1-0.4
		c0.4-0.1,0.8-0.2,1.1-0.1c0.6,0,1.3,0.1,1.9,0.4v1.3c-0.6-0.4-1.3-0.6-2-0.6c-0.2,0-0.4,0-0.7,0.1c-0.2,0.1-0.3,0.1-0.5,0.2
		c-0.1,0.1-0.2,0.2-0.3,0.4c-0.1,0.1-0.1,0.3-0.1,0.5c0,0.2,0,0.4,0.1,0.5c0.1,0.1,0.2,0.3,0.3,0.4c0.2,0.1,0.3,0.2,0.5,0.3l0.7,0.3
		c0.3,0.1,0.7,0.3,1,0.4c0.3,0.1,0.5,0.3,0.7,0.5c0.2,0.2,0.3,0.4,0.4,0.6c0.1,0.3,0.2,0.6,0.2,0.8c0,0.4-0.1,0.7-0.3,1
		c-0.2,0.3-0.4,0.5-0.7,0.7c-0.3,0.2-0.6,0.3-1,0.4c-0.4,0.1-0.8,0.1-1.2,0.1C1161.1,26.8,1160.3,26.6,1159.6,26.3z"/>
	<path class="st19" d="M1170.6,26.5c-0.4,0.2-0.8,0.3-1.2,0.2c-1.4,0-2.1-0.8-2.1-2.3v-4.7h-1.4v-1.1h1.4v-2l1.3-0.4v2.4h2v1.1h-2
		v4.5c0,0.4,0.1,0.8,0.3,1.1c0.2,0.3,0.6,0.4,0.9,0.4c0.3,0,0.6-0.1,0.8-0.3L1170.6,26.5z"/>
	<path class="st19" d="M1178.2,22.4v4.2h-1.3V15.4h3.1c1-0.1,2,0.2,2.8,0.9c0.7,0.6,1,1.5,1,2.5c0,1-0.4,1.9-1.1,2.6
		c-0.8,0.7-1.9,1.1-3,1L1178.2,22.4z M1178.2,16.6v4.6h1.4c0.7,0,1.5-0.2,2.1-0.6c0.5-0.4,0.8-1.1,0.7-1.8c0-1.5-0.9-2.2-2.6-2.2
		H1178.2z"/>
	<path class="st19" d="M1189.8,19.9c-0.3-0.2-0.6-0.3-1-0.3c-0.6,0-1.1,0.3-1.4,0.8c-0.4,0.6-0.6,1.4-0.6,2.1v4.1h-1.3v-8h1.3v1.6
		l0,0c0.1-0.5,0.4-1,0.8-1.3c0.3-0.3,0.8-0.5,1.3-0.5c0.3,0,0.5,0,0.8,0.1L1189.8,19.9z"/>
	<path class="st19" d="M1197.4,22.9h-5.7c0,0.8,0.2,1.5,0.7,2.1c0.5,0.5,1.2,0.8,1.9,0.7c0.9,0,1.8-0.3,2.5-0.9V26
		c-0.8,0.5-1.8,0.8-2.8,0.8c-1,0.1-2-0.3-2.7-1.1c-0.7-0.9-1.1-2-1-3.1c0-1.1,0.3-2.2,1.1-3c0.7-0.8,1.6-1.2,2.6-1.2
		c0.9-0.1,1.8,0.3,2.4,1c0.6,0.8,0.9,1.8,0.9,2.8L1197.4,22.9z M1196.1,21.8c0-0.6-0.2-1.2-0.5-1.7c-0.4-0.4-0.9-0.6-1.5-0.6
		c-0.6,0-1.1,0.2-1.5,0.6c-0.4,0.5-0.7,1.1-0.8,1.7H1196.1z"/>
	<path class="st19" d="M1207.8,15.4l-4.2,11.2h-1.4l-4.1-11.2h1.5l3.1,8.9c0.1,0.3,0.2,0.7,0.2,1l0,0c0-0.3,0.1-0.7,0.3-1l3.2-8.9
		L1207.8,15.4z"/>
	<path class="st19" d="M1216.6,15.5c-1.4,1.9-2.1,4.2-2,6.6c-0.1,2.3,0.6,4.6,2,6.5h-1.1c-1.4-1.9-2.1-4.2-2.1-6.5
		c-0.1-2.4,0.7-4.7,2.1-6.5L1216.6,15.5z"/>
	<path class="st19" d="M1217.3,25.8l3.8-10h1.6l3.7,10v0.8h-9.1L1217.3,25.8z M1224.8,25.4l-2.2-5.9c-0.3-0.8-0.6-1.7-0.8-2.4l0,0
		c-0.2,0.5-0.4,1.4-0.7,2.2l-2.3,6.1H1224.8z"/>
	<path class="st19" d="M1237.6,15.4l-5.4,13.1h-1.2l5.4-13.1L1237.6,15.4z"/>
	<path class="st19" d="M1245,21c-0.7,0-1.4-0.3-1.8-0.8c-0.5-0.6-0.7-1.3-0.7-2c0-0.8,0.2-1.6,0.7-2.2c0.5-0.6,1.2-0.9,2-0.8
		c0.7,0,1.3,0.3,1.8,0.8c0.5,0.6,0.7,1.3,0.7,2.1c0,0.8-0.2,1.6-0.7,2.2C1246.4,20.8,1245.7,21,1245,21z M1245.1,16.1
		c-0.5,0-0.9,0.2-1.2,0.5c-0.3,0.4-0.5,1-0.4,1.5c0,0.5,0.1,1,0.4,1.5c0.3,0.4,0.7,0.5,1.2,0.5c0.5,0,0.9-0.2,1.2-0.5
		c0.3-0.4,0.4-1,0.4-1.5c0-0.5-0.1-1-0.4-1.5C1246,16.2,1245.5,16.1,1245.1,16.1L1245.1,16.1z M1252.5,15.4l-7.2,11.3h-1.1l7.2-11.3
		H1252.5z M1251.7,26.7c-0.7,0-1.4-0.2-1.8-0.8c-0.5-0.6-0.7-1.3-0.7-2c0-0.8,0.2-1.6,0.7-2.2c0.5-0.6,1.2-0.9,2-0.8
		c0.7,0,1.4,0.2,1.8,0.8c0.5,0.6,0.7,1.3,0.7,2.1c0,0.8-0.2,1.5-0.7,2.1C1253.1,26.5,1252.4,26.8,1251.7,26.7L1251.7,26.7z
		 M1251.8,21.8c-0.5,0-0.9,0.2-1.2,0.5c-0.3,0.4-0.5,1-0.4,1.5c0,0.5,0.1,1,0.4,1.5c0.3,0.3,0.7,0.5,1.2,0.5c0.5,0,0.9-0.2,1.2-0.5
		c0.3-0.4,0.4-1,0.4-1.5c0-0.5-0.1-1-0.4-1.5C1252.6,22,1252.2,21.8,1251.8,21.8L1251.8,21.8z"/>
	<path class="st19" d="M1255.2,28.5c1.4-1.9,2.1-4.2,2-6.5c0.1-2.3-0.6-4.6-2-6.5h1.1c1.4,1.9,2.2,4.2,2.1,6.5
		c0.1,2.4-0.7,4.7-2.1,6.5L1255.2,28.5z"/>
	<path class="st18" d="M29.7,276.6h-1.6l-5.8-8.9c-0.1-0.2-0.2-0.5-0.3-0.7l0,0c0.1,0.5,0.1,1,0.1,1.5v8.1h-1.4v-11.2h1.7l5.6,8.8
		c0.2,0.4,0.4,0.6,0.5,0.8l0,0c-0.1-0.5-0.1-1.1-0.1-1.6v-7.9h1.3V276.6z"/>
	<path class="st18" d="M38.6,276.6h-5.9v-11.2h5.7v1.2H34v3.7h4v1.2h-4v3.9h4.6L38.6,276.6z"/>
	<path class="st18" d="M47.4,266.6h-3.2v10h-1.3v-10h-3.2v-1.2h7.8V266.6z"/>
	<path class="st18" d="M58.4,265.4L53,278.5h-1.2l5.4-13.1H58.4z"/>
	<path class="st18" d="M71.8,276.2c-1,0.5-2,0.7-3.1,0.6c-1.4,0.1-2.8-0.5-3.8-1.5c-1-1.1-1.5-2.5-1.4-4c-0.1-1.6,0.5-3.2,1.6-4.4
		c1.1-1.1,2.6-1.7,4.1-1.6c0.9,0,1.8,0.1,2.6,0.5v1.4c-0.8-0.5-1.7-0.7-2.7-0.7c-1.2,0-2.3,0.4-3.1,1.3c-0.8,1-1.3,2.2-1.2,3.5
		c-0.1,1.2,0.3,2.4,1.1,3.3c0.8,0.8,1.8,1.3,2.9,1.2c1,0,2-0.2,2.9-0.8L71.8,276.2z"/>
	<path class="st18" d="M75.2,276.6h-1.3v-11.9h1.3L75.2,276.6z"/>
	<path class="st18" d="M78.4,266.6c-0.5,0-0.8-0.4-0.8-0.8c0,0,0,0,0,0c0-0.2,0.1-0.4,0.2-0.6c0.2-0.2,0.4-0.2,0.6-0.2
		c0.2,0,0.4,0.1,0.6,0.2c0.2,0.2,0.3,0.4,0.2,0.6c0,0.2-0.1,0.4-0.2,0.6C78.9,266.5,78.6,266.6,78.4,266.6z M79,276.6h-1.3v-8H79
		L79,276.6z"/>
	<path class="st18" d="M88.1,273h-5.6c0,0.8,0.2,1.5,0.7,2.1c0.5,0.5,1.2,0.8,1.9,0.7c0.9,0,1.8-0.3,2.5-0.9v1.2
		c-0.8,0.5-1.8,0.8-2.8,0.8c-1,0.1-2-0.3-2.7-1.1c-1.3-1.8-1.3-4.3,0.1-6.1c0.7-0.8,1.6-1.2,2.6-1.2c0.9-0.1,1.8,0.3,2.4,1
		c0.6,0.8,0.9,1.8,0.9,2.8V273z M86.8,271.9c0-0.6-0.2-1.2-0.5-1.7c-0.4-0.4-0.9-0.6-1.5-0.6c-0.6,0-1.1,0.2-1.5,0.6
		c-0.4,0.5-0.7,1.1-0.8,1.7H86.8z"/>
	<path class="st18" d="M96.6,276.6h-1.3v-4.6c0-1.7-0.6-2.5-1.9-2.5c-0.6,0-1.2,0.2-1.6,0.7c-0.4,0.5-0.7,1.2-0.6,1.8v4.6H90v-8h1.3
		v1.4l0,0c0.5-1,1.5-1.5,2.6-1.5c0.8,0,1.5,0.3,2,0.9c0.5,0.7,0.8,1.6,0.7,2.5L96.6,276.6z"/>
	<path class="st18" d="M102.8,276.6c-0.4,0.2-0.8,0.3-1.2,0.2c-1.4,0-2.1-0.8-2.1-2.4v-4.7h-1.4v-1.1h1.4v-2l1.3-0.4v2.4h2v1.1h-2
		v4.5c0,0.4,0.1,0.8,0.3,1.1c0.2,0.2,0.6,0.4,0.9,0.3c0.3,0,0.6-0.1,0.8-0.3L102.8,276.6z"/>
	<path class="st18" d="M110.8,273h-5.7c0,0.8,0.2,1.5,0.7,2.1c0.5,0.5,1.2,0.8,1.9,0.7c0.9,0,1.8-0.3,2.5-0.9v1.2
		c-0.8,0.5-1.8,0.8-2.8,0.8c-1,0.1-2-0.3-2.7-1.1c-1.3-1.8-1.3-4.3,0.1-6.1c0.7-0.8,1.6-1.2,2.6-1.2c0.9-0.1,1.8,0.3,2.4,1
		c0.6,0.8,0.9,1.8,0.9,2.8L110.8,273z M109.5,271.9c0-0.6-0.2-1.2-0.5-1.7c-0.4-0.4-0.9-0.6-1.5-0.6c-0.6,0-1.1,0.2-1.5,0.6
		c-0.4,0.5-0.7,1.1-0.8,1.7H109.5z"/>
	<path class="st18" d="M29,56.4l-4.1,11.2h-1.4l-4.1-11.2h1.5l3.1,8.9c0.1,0.3,0.2,0.7,0.2,1l0,0c0.1-0.3,0.1-0.7,0.3-1l3.2-8.9
		L29,56.4z"/>
	<path class="st18" d="M35,67.6h-1.3v-1.2l0,0c-0.5,0.9-1.4,1.5-2.5,1.4c-0.7,0-1.4-0.2-1.9-0.6c-0.5-0.4-0.7-1-0.7-1.7
		c0-1.5,0.9-2.4,2.6-2.6l2.4-0.3c0-1.4-0.5-2-1.6-2c-1,0-1.9,0.4-2.6,1v-1.4c0.8-0.5,1.8-0.8,2.7-0.8c1.9,0,2.8,1,2.8,3L35,67.6z
		 M33.7,63.6l-1.9,0.3c-0.5,0-0.9,0.2-1.3,0.4C30.1,64.6,30,65,30,65.4c0,0.4,0.1,0.7,0.4,1c0.3,0.3,0.7,0.4,1.1,0.4
		c0.6,0,1.2-0.2,1.6-0.7c0.4-0.5,0.6-1.1,0.6-1.7L33.7,63.6z"/>
	<path class="st18" d="M38.7,67.6h-1.3V55.8h1.3V67.6z"/>
	<path class="st18" d="M44.7,67.8c-1.1,0-2.1-0.4-2.8-1.1c-0.7-0.8-1.1-1.9-1.1-3c-0.1-1.2,0.3-2.3,1.1-3.2c0.8-0.8,1.9-1.2,3-1.1
		c1-0.1,2.1,0.3,2.8,1.1c0.7,0.9,1.1,2,1,3.1c0.1,1.1-0.3,2.2-1.1,3.1C46.8,67.4,45.7,67.9,44.7,67.8z M44.7,60.5
		c-0.8,0-1.5,0.3-2,0.8C42.2,62,42,62.9,42,63.7c0,0.8,0.2,1.6,0.7,2.2c0.5,0.6,1.2,0.9,1.9,0.8c0.7,0,1.4-0.3,1.9-0.8
		c0.5-0.7,0.7-1.5,0.7-2.3c0.1-0.8-0.2-1.6-0.7-2.3C46.1,60.8,45.5,60.5,44.7,60.5z"/>
	<path class="st18" d="M54.8,60.9c-0.3-0.2-0.6-0.3-1-0.3c-0.6,0-1.1,0.3-1.4,0.8c-0.4,0.6-0.5,1.4-0.5,2.1v4.1h-1.3v-8H52v1.7l0,0
		c0.2-0.5,0.4-0.9,0.8-1.3c0.3-0.3,0.8-0.5,1.3-0.5c0.3,0,0.5,0,0.8,0.1V60.9z"/>
	<path class="st18" d="M69.8,67.6h-1.6l-5.8-8.9c-0.1-0.2-0.3-0.5-0.4-0.7l0,0c0.1,0.5,0.1,1,0.1,1.5v8.1h-1.4V56.4h1.7l5.6,8.8
		c0.2,0.4,0.4,0.6,0.4,0.8l0,0c-0.1-0.5-0.1-1.1-0.1-1.7v-7.9h1.3L69.8,67.6z"/>
	<path class="st18" d="M78.7,67.6h-5.9V56.4h5.7v1.2h-4.4v3.7h4v1.2h-4v3.9h4.6V67.6z"/>
	<path class="st18" d="M87.5,57.6h-3.2v10H83v-10h-3.3v-1.2h7.8V57.6z"/>
	<path class="st18" d="M22,182.4v4.2h-1.3v-11.2h3.1c1-0.1,2,0.2,2.8,0.9c0.7,0.6,1,1.5,1,2.5c0,1-0.4,1.9-1.1,2.6
		c-0.8,0.7-1.9,1.1-3,1L22,182.4z M22,176.6v4.6h1.4c0.7,0.1,1.5-0.2,2.1-0.6c0.5-0.4,0.8-1.1,0.7-1.8c0-1.5-0.9-2.2-2.6-2.2H22z"/>
	<path class="st18" d="M35.3,183h-5.6c0,0.8,0.2,1.5,0.7,2.1c0.5,0.5,1.2,0.8,1.9,0.7c0.9,0,1.8-0.3,2.5-0.9v1.2
		c-0.8,0.5-1.8,0.8-2.8,0.8c-1,0.1-2-0.3-2.7-1.1c-0.7-0.9-1.1-2-1-3.1c0-1.1,0.3-2.2,1.1-3c0.6-0.8,1.6-1.3,2.7-1.2
		c0.9-0.1,1.8,0.3,2.4,1c0.6,0.8,0.9,1.8,0.9,2.8L35.3,183z M34,181.9c0-0.6-0.2-1.2-0.5-1.7c-0.4-0.4-0.9-0.6-1.5-0.6
		c-0.6,0-1.1,0.2-1.5,0.6c-0.4,0.5-0.7,1.1-0.8,1.7H34z"/>
	<path class="st18" d="M36.8,186.4V185c0.7,0.5,1.5,0.8,2.3,0.8c1.1,0,1.7-0.4,1.7-1.1c0-0.2,0-0.4-0.1-0.6
		c-0.1-0.2-0.2-0.3-0.4-0.4c-0.2-0.1-0.4-0.2-0.6-0.3l-0.7-0.3c-0.3-0.1-0.7-0.3-0.9-0.4c-0.2-0.1-0.5-0.3-0.7-0.5
		c-0.2-0.2-0.3-0.4-0.4-0.6c-0.1-0.3-0.1-0.5-0.1-0.8c0-0.3,0.1-0.7,0.2-1c0.2-0.3,0.4-0.5,0.7-0.7c0.3-0.2,0.6-0.3,1-0.4
		c0.4-0.1,0.8-0.2,1.1-0.1c0.6,0,1.3,0.1,1.9,0.4v1.3c-0.6-0.4-1.3-0.6-2-0.6c-0.2,0-0.4,0-0.7,0.1c-0.2,0.1-0.3,0.1-0.5,0.2
		c-0.1,0.1-0.2,0.2-0.3,0.4c-0.1,0.1-0.1,0.3-0.1,0.5c0,0.2,0,0.4,0.1,0.5c0.1,0.1,0.2,0.3,0.3,0.4c0.2,0.1,0.3,0.2,0.5,0.3l0.7,0.3
		c0.3,0.1,0.7,0.3,1,0.4c0.3,0.1,0.5,0.3,0.7,0.5c0.2,0.2,0.3,0.4,0.5,0.6c0.1,0.3,0.2,0.6,0.2,0.8c0,0.4-0.1,0.7-0.3,1
		c-0.2,0.3-0.4,0.5-0.7,0.7c-0.3,0.2-0.6,0.3-1,0.4c-0.4,0.1-0.8,0.1-1.2,0.1C38.2,186.9,37.4,186.7,36.8,186.4z"/>
	<path class="st18" d="M47.4,186.8c-1.1,0-2.1-0.4-2.8-1.1c-0.7-0.8-1.1-1.9-1.1-3c-0.1-1.2,0.3-2.3,1.1-3.1c0.8-0.8,1.9-1.2,3-1.1
		c1-0.1,2.1,0.3,2.8,1.1c0.7,0.9,1.1,2,1,3.1c0.1,1.1-0.3,2.2-1.1,3.1C49.5,186.5,48.5,186.9,47.4,186.8z M47.5,179.5
		c-0.8,0-1.5,0.3-2,0.8c-0.5,0.7-0.8,1.5-0.7,2.3c0,0.8,0.2,1.6,0.7,2.2c0.5,0.6,1.2,0.9,1.9,0.8c0.7,0,1.4-0.3,1.9-0.8
		c0.5-0.7,0.7-1.5,0.7-2.3c0.1-0.8-0.2-1.6-0.7-2.3C48.9,179.8,48.2,179.5,47.5,179.5z"/>
	<path class="st18" d="M63.8,186.6H58v-11.2h1.3v10h4.5L63.8,186.6z"/>
	<path class="st18" d="M67.7,174.6l-2,2.6h-1l1.8-2.6H67.7z M66.6,186.6h-1.3v-8h1.3V186.6z"/>
	<path class="st18" d="M76,190.3h-1.3v-5.1l0,0c-0.5,1-1.6,1.6-2.7,1.6c-0.9,0-1.8-0.4-2.4-1.1c-0.6-0.8-1-1.9-0.9-2.9
		c-0.1-1.1,0.3-2.3,1-3.2c0.7-0.8,1.7-1.2,2.7-1.2c1-0.1,1.9,0.4,2.4,1.3l0,0v-1.1H76V190.3z M74.7,183v-1.2c0-0.6-0.2-1.2-0.6-1.7
		c-0.4-0.4-1-0.7-1.6-0.7c-0.7,0-1.4,0.3-1.8,0.9c-0.5,0.7-0.7,1.6-0.7,2.4c0,0.8,0.2,1.6,0.7,2.2c0.4,0.5,1,0.8,1.7,0.8
		c0.7,0,1.3-0.3,1.8-0.8C74.5,184.5,74.8,183.8,74.7,183L74.7,183z"/>
	<path class="st18" d="M85.1,186.6h-1.3v-1.3l0,0c-0.5,0.9-1.4,1.5-2.5,1.4c-1.9,0-2.9-1.1-2.9-3.4v-4.8h1.3v4.6
		c0,1.7,0.7,2.5,1.9,2.5c0.6,0,1.2-0.2,1.5-0.7c0.4-0.5,0.6-1.2,0.6-1.8v-4.6h1.3L85.1,186.6z"/>
	<path class="st18" d="M88.3,176.6c-0.2,0-0.4-0.1-0.6-0.2c-0.3-0.3-0.3-0.9,0-1.2c0.2-0.1,0.4-0.2,0.6-0.2c0.2,0,0.4,0.1,0.6,0.2
		c0.3,0.3,0.3,0.9,0,1.2C88.8,176.5,88.5,176.6,88.3,176.6z M88.9,186.6h-1.3v-8H89L88.9,186.6z"/>
	<path class="st18" d="M98.4,186.6h-1.3v-1.4l0,0c-0.5,1-1.6,1.6-2.8,1.6c-0.9,0-1.8-0.4-2.4-1.1c-0.6-0.8-1-1.9-0.9-2.9
		c-0.1-1.1,0.3-2.3,1-3.2c0.7-0.8,1.6-1.2,2.7-1.2c1-0.1,1.9,0.4,2.4,1.3l0,0v-4.9h1.3L98.4,186.6z M97.1,183v-1.2
		c0-0.6-0.2-1.2-0.6-1.6c-0.9-0.9-2.4-0.9-3.3,0c0,0-0.1,0.1-0.1,0.1c-0.5,0.7-0.7,1.5-0.7,2.4c0,0.8,0.2,1.6,0.7,2.2
		c0.4,0.5,1.1,0.8,1.7,0.8c0.7,0,1.3-0.3,1.7-0.8C96.9,184.5,97.1,183.7,97.1,183z"/>
	<path class="st18" d="M104.3,186.8c-1.1,0-2.1-0.4-2.8-1.1c-0.7-0.8-1.1-1.9-1.1-3c-0.1-1.2,0.3-2.3,1.1-3.1c0.8-0.8,1.9-1.2,3-1.1
		c1-0.1,2.1,0.3,2.8,1.1c0.7,0.9,1.1,2,1,3.1c0.1,1.1-0.3,2.2-1.1,3.1C106.5,186.5,105.4,186.9,104.3,186.8z M104.4,179.5
		c-0.8-0.1-1.5,0.3-2,0.8c-0.5,0.7-0.8,1.5-0.7,2.3c0,0.8,0.2,1.6,0.7,2.2c0.5,0.6,1.2,0.9,2,0.8c0.7,0,1.4-0.3,1.9-0.8
		c0.5-0.7,0.7-1.5,0.7-2.3c0-0.8-0.2-1.6-0.7-2.3C105.8,179.8,105.1,179.5,104.4,179.5z"/>
	<path class="st18" d="M114.6,114.9h-1.3v-7.5c0-0.6,0-1.3,0.1-2.2l0,0c-0.1,0.4-0.2,0.7-0.3,1.1l-3.8,8.6h-0.6l-3.8-8.6
		c-0.1-0.4-0.3-0.8-0.3-1.2l0,0c0,0.4,0.1,1.2,0.1,2.2v7.5h-1.3v-11.2h1.7l3.4,7.8c0.2,0.4,0.4,0.9,0.5,1.3h0.1
		c0.2-0.6,0.4-1.1,0.5-1.4l3.5-7.8h1.6L114.6,114.9z"/>
	<path class="st18" d="M125.2,114.4c-1,0.5-2,0.7-3.1,0.7c-1.4,0.1-2.8-0.5-3.8-1.5c-1-1.1-1.5-2.5-1.4-4c-0.1-1.6,0.5-3.2,1.6-4.3
		c1.1-1.1,2.6-1.7,4.1-1.7c0.9,0,1.8,0.1,2.7,0.5v1.4c-0.8-0.5-1.7-0.7-2.7-0.7c-1.2-0.1-2.3,0.4-3.1,1.3c-0.8,1-1.3,2.2-1.2,3.4
		c-0.1,1.2,0.3,2.4,1.1,3.3c0.8,0.8,1.8,1.3,2.9,1.2c1,0,2-0.2,2.9-0.8L125.2,114.4z"/>
	<path class="st18" d="M129.1,109.3c-0.7,0-1.4-0.2-1.8-0.8c-0.5-0.6-0.7-1.3-0.7-2c0-0.8,0.2-1.6,0.7-2.2c0.5-0.6,1.2-0.8,2-0.8
		c0.7,0,1.4,0.2,1.9,0.8c0.5,0.6,0.7,1.3,0.7,2.1c0,0.8-0.2,1.6-0.7,2.2C130.6,109.1,129.9,109.4,129.1,109.3z M129.3,104.4
		c-0.5,0-0.9,0.2-1.2,0.6c-0.3,0.4-0.5,1-0.4,1.5c0,0.5,0.1,1,0.4,1.5c0.3,0.3,0.7,0.5,1.1,0.5c0.5,0,0.9-0.2,1.1-0.6
		c0.3-0.4,0.4-1,0.4-1.5c0-0.5-0.1-1-0.4-1.5C130.1,104.6,129.7,104.4,129.3,104.4z M136.6,103.7l-7.2,11.3h-1.1l7.2-11.3
		L136.6,103.7z M135.8,115.1c-0.7,0-1.4-0.2-1.9-0.8c-0.5-0.6-0.7-1.3-0.7-2c0-0.8,0.2-1.6,0.7-2.2c0.5-0.5,1.2-0.8,1.9-0.8
		c0.7,0,1.4,0.2,1.9,0.8c0.5,0.6,0.7,1.3,0.7,2.1c0,0.8-0.2,1.5-0.7,2.1C137.3,114.8,136.6,115.1,135.8,115.1L135.8,115.1z
		 M135.9,110.1c-0.5,0-0.9,0.2-1.2,0.6c-0.3,0.4-0.5,1-0.4,1.5c0,0.5,0.1,1,0.4,1.5c0.3,0.3,0.7,0.5,1.1,0.5c0.5,0,0.9-0.2,1.1-0.6
		c0.3-0.4,0.5-1,0.4-1.5c0-0.5-0.1-1-0.4-1.5C136.8,110.3,136.4,110.1,135.9,110.1L135.9,110.1z"/>
	<path class="st18" d="M114.6,137.5h-1.3V130c0-0.6,0-1.3,0.1-2.2l0,0c-0.1,0.4-0.2,0.7-0.3,1.1l-3.8,8.6h-0.6l-3.8-8.6
		c-0.1-0.4-0.3-0.8-0.3-1.1l0,0c0,0.4,0.1,1.2,0.1,2.2v7.5h-1.3v-11.2h1.7l3.4,7.8c0.2,0.4,0.4,0.9,0.5,1.3h0.1
		c0.2-0.6,0.4-1.1,0.5-1.4l3.5-7.8h1.6L114.6,137.5z"/>
	<path class="st18" d="M125.2,137c-1,0.5-2,0.7-3.1,0.7c-1.4,0.1-2.8-0.5-3.8-1.5c-1-1.1-1.5-2.5-1.4-4c-0.1-1.6,0.5-3.2,1.6-4.3
		c1.1-1.1,2.6-1.7,4.1-1.7c0.9,0,1.8,0.1,2.6,0.5v1.4c-0.8-0.5-1.7-0.7-2.7-0.7c-1.2,0-2.3,0.4-3.1,1.3c-0.8,0.9-1.3,2.2-1.2,3.4
		c-0.1,1.2,0.3,2.4,1.1,3.3c0.8,0.8,1.8,1.3,2.9,1.2c1,0,2-0.2,2.9-0.8L125.2,137z"/>
	<path class="st18" d="M32.1,126.9h-1.3v-7.5c0-0.6,0-1.3,0.1-2.2l0,0c-0.1,0.4-0.2,0.7-0.3,1.1l-3.9,8.6h-0.6l-3.8-8.6
		c-0.1-0.4-0.3-0.8-0.3-1.2l0,0c0,0.4,0.1,1.2,0.1,2.2v7.5h-1.3v-11.2h1.7l3.4,7.8c0.2,0.4,0.4,0.9,0.5,1.3h0
		c0.2-0.6,0.4-1.1,0.5-1.4l3.5-7.8h1.6V126.9z"/>
	<path class="st18" d="M40.6,126.9h-1.3v-1.2l0,0c-0.5,0.9-1.4,1.5-2.5,1.4c-0.7,0-1.4-0.2-1.9-0.6c-0.5-0.4-0.7-1-0.7-1.7
		c0-1.5,0.9-2.4,2.6-2.6l2.4-0.3c0-1.3-0.5-2-1.7-2c-1,0-1.9,0.4-2.6,1v-1.3c0.8-0.5,1.8-0.8,2.7-0.8c1.9,0,2.8,1,2.8,3L40.6,126.9z
		 M39.3,122.8l-1.9,0.3c-0.5,0-0.9,0.2-1.3,0.4c-0.3,0.3-0.5,0.7-0.5,1.1c0,0.4,0.1,0.7,0.4,1c0.3,0.3,0.7,0.4,1.1,0.4
		c0.6,0,1.2-0.2,1.6-0.7c0.4-0.5,0.6-1.1,0.6-1.7L39.3,122.8z"/>
	<path class="st18" d="M47.2,120.2c-0.3-0.2-0.6-0.3-1-0.3c-0.6,0-1.1,0.3-1.4,0.8c-0.4,0.6-0.6,1.4-0.5,2.1v4.1H43v-8h1.3v1.7l0,0
		c0.1-0.5,0.4-1,0.8-1.3c0.3-0.3,0.8-0.5,1.2-0.5c0.3,0,0.5,0,0.8,0.1L47.2,120.2z"/>
	<path class="st18" d="M55.2,126.3c0,2.9-1.4,4.4-4.2,4.4c-0.9,0-1.8-0.2-2.6-0.6v-1.3c0.8,0.5,1.7,0.7,2.6,0.8c2,0,3-1,3-3.1v-0.9
		l0,0c-0.9,1.5-2.9,2-4.5,1c-0.3-0.2-0.5-0.4-0.7-0.6c-0.6-0.8-1-1.8-0.9-2.9c-0.1-1.2,0.3-2.3,1-3.2c0.7-0.8,1.7-1.2,2.7-1.2
		c1-0.1,1.9,0.5,2.4,1.3l0,0v-1.1h1.3L55.2,126.3z M53.9,123.3v-1.2c0-0.6-0.2-1.2-0.7-1.6c-0.4-0.4-1-0.7-1.6-0.7
		c-0.7,0-1.4,0.3-1.9,0.9c-0.5,0.7-0.7,1.6-0.7,2.4c0,0.8,0.2,1.5,0.7,2.1c0.4,0.5,1,0.8,1.7,0.8c0.7,0,1.3-0.3,1.8-0.8
		C53.7,124.7,53.9,124,53.9,123.3L53.9,123.3z"/>
	<path class="st18" d="M64.2,123.2h-5.6c0,0.8,0.2,1.5,0.7,2.1c0.5,0.5,1.2,0.8,1.9,0.7c0.9,0,1.8-0.3,2.5-0.9v1.2
		c-0.8,0.5-1.8,0.8-2.8,0.8c-1,0-2-0.4-2.7-1.1c-0.7-0.9-1.1-2-1-3.1c0-1.1,0.3-2.2,1.1-3c0.7-0.8,1.6-1.2,2.6-1.2
		c0.9-0.1,1.8,0.3,2.4,1c0.6,0.8,0.9,1.8,0.9,2.8L64.2,123.2z M62.9,122.1c0-0.6-0.2-1.2-0.5-1.7c-0.4-0.4-0.9-0.6-1.5-0.6
		c-0.6,0-1.1,0.2-1.5,0.7c-0.4,0.5-0.7,1.1-0.8,1.7H62.9z"/>
	<path class="st18" d="M77.5,126.9h-1.3v-4.6c0-0.7-0.1-1.3-0.4-1.9c-0.3-0.4-0.8-0.6-1.4-0.6c-0.6,0-1.1,0.3-1.4,0.8
		c-0.4,0.5-0.6,1.2-0.6,1.8v4.6h-1.3v-4.8c0-1.6-0.6-2.4-1.8-2.4c-0.6,0-1.1,0.3-1.4,0.7c-0.4,0.5-0.6,1.2-0.6,1.8v4.6h-1.3v-8h1.3
		v1.3l0,0c0.5-0.9,1.5-1.5,2.6-1.4c0.5,0,1,0.2,1.4,0.5c0.4,0.3,0.7,0.7,0.8,1.2c0.5-1,1.5-1.7,2.7-1.7c1.8,0,2.6,1.1,2.6,3.3
		L77.5,126.9z"/>
</g>
</svg>
