<svg xmlns="http://www.w3.org/2000/svg" xmlns:xlink="http://www.w3.org/1999/xlink" viewBox="0 0 1320 312"><defs><style>.cls-1{fill:#5a75a3;}.cls-2{fill:url(#Gradiente_sem_nome_2);}.cls-3{fill:#d9ac5e;}.cls-4{fill:#55ae9f;}.cls-5{fill:#cc6a69;}.cls-6{fill:none;stroke-width:2px;opacity:0.5;}.cls-19,.cls-6{stroke:#fff;}.cls-19,.cls-20,.cls-6{stroke-miterlimit:10;}.cls-7{fill:#404952;}.cls-8{fill:url(#Gradiente_sem_nome_6);}.cls-9{fill:#5c574f;}.cls-10{fill:#4e615d;}.cls-11{fill:url(#Gradiente_sem_nome_6-2);}.cls-12{fill:url(#Gradiente_sem_nome_6-3);}.cls-13{fill:url(#Gradiente_sem_nome_6-4);}.cls-14{fill:url(#Gradiente_sem_nome_6-5);}.cls-15{fill:url(#Gradiente_sem_nome_6-6);}.cls-16{fill:url(#Gradiente_sem_nome_6-7);}.cls-17{fill:#624b4a;}.cls-18{fill:#d7e4e3;}.cls-19{fill:#fff;}.cls-19,.cls-20{stroke-width:0.4px;}.cls-20{fill:#556464;stroke:#556464;}</style><linearGradient id="Gradiente_sem_nome_2" x1="604.5" y1="291" x2="604.5" y2="267" gradientUnits="userSpaceOnUse"><stop offset="0.3" stop-color="#55ae9f"/><stop offset="0.7" stop-color="#5a75a3"/></linearGradient><linearGradient id="Gradiente_sem_nome_6" x1="222" y1="297" x2="222" y2="261" gradientUnits="userSpaceOnUse"><stop offset="0" stop-color="#4e615d"/><stop offset="1" stop-color="#404952"/></linearGradient><linearGradient id="Gradiente_sem_nome_6-2" x1="334" x2="334" xlink:href="#Gradiente_sem_nome_6"/><linearGradient id="Gradiente_sem_nome_6-3" x1="446" x2="446" xlink:href="#Gradiente_sem_nome_6"/><linearGradient id="Gradiente_sem_nome_6-4" x1="558" x2="558" xlink:href="#Gradiente_sem_nome_6"/><linearGradient id="Gradiente_sem_nome_6-5" x1="730" x2="730" xlink:href="#Gradiente_sem_nome_6"/><linearGradient id="Gradiente_sem_nome_6-6" x1="962" x2="962" xlink:href="#Gradiente_sem_nome_6"/><linearGradient id="Gradiente_sem_nome_6-7" x1="1194" x2="1194" xlink:href="#Gradiente_sem_nome_6"/></defs><g id="barras"><path class="cls-1" d="M27,58H1194a0,0,0,0,1,0,0V82a0,0,0,0,1,0,0H27A12,12,0,0,1,15,70v0A12,12,0,0,1,27,58Z"/><path class="cls-2" d="M27,267H1194a0,0,0,0,1,0,0v24a0,0,0,0,1,0,0H27a12,12,0,0,1-12-12v0a12,12,0,0,1,12-12Z"/><path class="cls-3" d="M27,177H1194a0,0,0,0,1,0,0v24a0,0,0,0,1,0,0H27a12,12,0,0,1-12-12v0a12,12,0,0,1,12-12Z"/><path class="cls-4" d="M27,222H1194a0,0,0,0,1,0,0v24a0,0,0,0,1,0,0H27a12,12,0,0,1-12-12v0a12,12,0,0,1,12-12Z"/><path class="cls-5" d="M27,103a12,12,0,0,0-12,12v29a12,12,0,0,0,12,12H1194V103Z"/><path class="cls-6" d="M104.41,140.94H100a8,8,0,0,1-8-8v-6.88a8,8,0,0,1,8-8h4.4"/></g><g id="caixas"><path class="cls-7" d="M261,52H183a12,12,0,0,0-12,12V76a12,12,0,0,0,12,12h78a12,12,0,0,0,12-12V64A12,12,0,0,0,261,52ZM187,80a2,2,0,0,1-2,2,8,8,0,0,1-8-8V66a8,8,0,0,1,8-8,2,2,0,0,1,2,2Z"/><path class="cls-8" d="M261,261H183a12,12,0,0,0-12,12v12a12,12,0,0,0,12,12h78a12,12,0,0,0,12-12V273A12,12,0,0,0,261,261Zm-74,28a2,2,0,0,1-2,2,8,8,0,0,1-8-8v-8a8,8,0,0,1,8-8,2,2,0,0,1,2,2Z"/><path class="cls-9" d="M261,171H183a12,12,0,0,0-12,12v12a12,12,0,0,0,12,12h78a12,12,0,0,0,12-12V183A12,12,0,0,0,261,171Zm-74,28a2,2,0,0,1-2,2,8,8,0,0,1-8-8v-8a8,8,0,0,1,8-8,2,2,0,0,1,2,2Z"/><path class="cls-10" d="M261,216H183a12,12,0,0,0-12,12v12a12,12,0,0,0,12,12h78a12,12,0,0,0,12-12V228A12,12,0,0,0,261,216Zm-74,28a2,2,0,0,1-2,2,8,8,0,0,1-8-8v-8a8,8,0,0,1,8-8,2,2,0,0,1,2,2Z"/><path class="cls-7" d="M373,52H295a12,12,0,0,0-12,12V76a12,12,0,0,0,12,12h78a12,12,0,0,0,12-12V64A12,12,0,0,0,373,52ZM299,80a2,2,0,0,1-2,2,8,8,0,0,1-8-8V66a8,8,0,0,1,8-8,2,2,0,0,1,2,2Z"/><path class="cls-11" d="M373,261H295a12,12,0,0,0-12,12v12a12,12,0,0,0,12,12h78a12,12,0,0,0,12-12V273A12,12,0,0,0,373,261Zm-74,28a2,2,0,0,1-2,2,8,8,0,0,1-8-8v-8a8,8,0,0,1,8-8,2,2,0,0,1,2,2Z"/><path class="cls-9" d="M373,171H295a12,12,0,0,0-12,12v12a12,12,0,0,0,12,12h78a12,12,0,0,0,12-12V183A12,12,0,0,0,373,171Zm-74,28a2,2,0,0,1-2,2,8,8,0,0,1-8-8v-8a8,8,0,0,1,8-8,2,2,0,0,1,2,2Z"/><path class="cls-10" d="M373,216H295a12,12,0,0,0-12,12v12a12,12,0,0,0,12,12h78a12,12,0,0,0,12-12V228A12,12,0,0,0,373,216Zm-74,28a2,2,0,0,1-2,2,8,8,0,0,1-8-8v-8a8,8,0,0,1,8-8,2,2,0,0,1,2,2Z"/><path class="cls-7" d="M485,52H407a12,12,0,0,0-12,12V76a12,12,0,0,0,12,12h78a12,12,0,0,0,12-12V64A12,12,0,0,0,485,52ZM411,80a2,2,0,0,1-2,2,8,8,0,0,1-8-8V66a8,8,0,0,1,8-8,2,2,0,0,1,2,2Z"/><path class="cls-12" d="M485,261H407a12,12,0,0,0-12,12v12a12,12,0,0,0,12,12h78a12,12,0,0,0,12-12V273A12,12,0,0,0,485,261Zm-74,28a2,2,0,0,1-2,2,8,8,0,0,1-8-8v-8a8,8,0,0,1,8-8,2,2,0,0,1,2,2Z"/><path class="cls-9" d="M485,171H407a12,12,0,0,0-12,12v12a12,12,0,0,0,12,12h78a12,12,0,0,0,12-12V183A12,12,0,0,0,485,171Zm-74,28a2,2,0,0,1-2,2,8,8,0,0,1-8-8v-8a8,8,0,0,1,8-8,2,2,0,0,1,2,2Z"/><path class="cls-10" d="M485,216H407a12,12,0,0,0-12,12v12a12,12,0,0,0,12,12h78a12,12,0,0,0,12-12V228A12,12,0,0,0,485,216Zm-74,28a2,2,0,0,1-2,2,8,8,0,0,1-8-8v-8a8,8,0,0,1,8-8,2,2,0,0,1,2,2Z"/><path class="cls-7" d="M597,52H519a12,12,0,0,0-12,12V76a12,12,0,0,0,12,12h78a12,12,0,0,0,12-12V64A12,12,0,0,0,597,52ZM523,80a2,2,0,0,1-2,2,8,8,0,0,1-8-8V66a8,8,0,0,1,8-8,2,2,0,0,1,2,2Z"/><path class="cls-13" d="M597,261H519a12,12,0,0,0-12,12v12a12,12,0,0,0,12,12h78a12,12,0,0,0,12-12V273A12,12,0,0,0,597,261Zm-74,28a2,2,0,0,1-2,2,8,8,0,0,1-8-8v-8a8,8,0,0,1,8-8,2,2,0,0,1,2,2Z"/><path class="cls-9" d="M597,171H519a12,12,0,0,0-12,12v12a12,12,0,0,0,12,12h78a12,12,0,0,0,12-12V183A12,12,0,0,0,597,171Zm-74,28a2,2,0,0,1-2,2,8,8,0,0,1-8-8v-8a8,8,0,0,1,8-8,2,2,0,0,1,2,2Z"/><path class="cls-10" d="M597,216H519a12,12,0,0,0-12,12v12a12,12,0,0,0,12,12h78a12,12,0,0,0,12-12V228A12,12,0,0,0,597,216Zm-74,28a2,2,0,0,1-2,2,8,8,0,0,1-8-8v-8a8,8,0,0,1,8-8,2,2,0,0,1,2,2Z"/><path class="cls-7" d="M829,52H631a12,12,0,0,0-12,12V76a12,12,0,0,0,12,12H829a12,12,0,0,0,12-12V64A12,12,0,0,0,829,52ZM635,80a2,2,0,0,1-2,2,8,8,0,0,1-8-8V66a8,8,0,0,1,8-8,2,2,0,0,1,2,2Z"/><path class="cls-14" d="M829,261H631a12,12,0,0,0-12,12v12a12,12,0,0,0,12,12H829a12,12,0,0,0,12-12V273A12,12,0,0,0,829,261ZM635,289a2,2,0,0,1-2,2,8,8,0,0,1-8-8v-8a8,8,0,0,1,8-8,2,2,0,0,1,2,2Z"/><path class="cls-9" d="M829,171H631a12,12,0,0,0-12,12v12a12,12,0,0,0,12,12H829a12,12,0,0,0,12-12V183A12,12,0,0,0,829,171ZM635,199a2,2,0,0,1-2,2,8,8,0,0,1-8-8v-8a8,8,0,0,1,8-8,2,2,0,0,1,2,2Z"/><path class="cls-10" d="M829,216H631a12,12,0,0,0-12,12v12a12,12,0,0,0,12,12H829a12,12,0,0,0,12-12V228A12,12,0,0,0,829,216ZM635,244a2,2,0,0,1-2,2,8,8,0,0,1-8-8v-8a8,8,0,0,1,8-8,2,2,0,0,1,2,2Z"/><path class="cls-7" d="M1061,52H863a12,12,0,0,0-12,12V76a12,12,0,0,0,12,12h198a12,12,0,0,0,12-12V64A12,12,0,0,0,1061,52ZM867,80a2,2,0,0,1-2,2,8,8,0,0,1-8-8V66a8,8,0,0,1,8-8,2,2,0,0,1,2,2Z"/><path class="cls-15" d="M1061,261H863a12,12,0,0,0-12,12v12a12,12,0,0,0,12,12h198a12,12,0,0,0,12-12V273A12,12,0,0,0,1061,261ZM867,289a2,2,0,0,1-2,2,8,8,0,0,1-8-8v-8a8,8,0,0,1,8-8,2,2,0,0,1,2,2Z"/><path class="cls-9" d="M1061,171H863a12,12,0,0,0-12,12v12a12,12,0,0,0,12,12h198a12,12,0,0,0,12-12V183A12,12,0,0,0,1061,171ZM867,199a2,2,0,0,1-2,2,8,8,0,0,1-8-8v-8a8,8,0,0,1,8-8,2,2,0,0,1,2,2Z"/><path class="cls-10" d="M1061,216H863a12,12,0,0,0-12,12v12a12,12,0,0,0,12,12h198a12,12,0,0,0,12-12V228A12,12,0,0,0,1061,216ZM867,244a2,2,0,0,1-2,2,8,8,0,0,1-8-8v-8a8,8,0,0,1,8-8,2,2,0,0,1,2,2Z"/><path class="cls-7" d="M1293,52H1095a12,12,0,0,0-12,12V76a12,12,0,0,0,12,12h198a12,12,0,0,0,12-12V64A12,12,0,0,0,1293,52ZM1099,80a2,2,0,0,1-2,2,8,8,0,0,1-8-8V66a8,8,0,0,1,8-8,2,2,0,0,1,2,2Z"/><path class="cls-16" d="M1293,261H1095a12,12,0,0,0-12,12v12a12,12,0,0,0,12,12h198a12,12,0,0,0,12-12V273A12,12,0,0,0,1293,261Zm-194,28a2,2,0,0,1-2,2,8,8,0,0,1-8-8v-8a8,8,0,0,1,8-8,2,2,0,0,1,2,2Z"/><path class="cls-9" d="M1293,171H1095a12,12,0,0,0-12,12v12a12,12,0,0,0,12,12h198a12,12,0,0,0,12-12V183A12,12,0,0,0,1293,171Zm-194,28a2,2,0,0,1-2,2,8,8,0,0,1-8-8v-8a8,8,0,0,1,8-8,2,2,0,0,1,2,2Z"/><path class="cls-10" d="M1293,216H1095a12,12,0,0,0-12,12v12a12,12,0,0,0,12,12h198a12,12,0,0,0,12-12V228A12,12,0,0,0,1293,216Zm-194,28a2,2,0,0,1-2,2,8,8,0,0,1-8-8v-8a8,8,0,0,1,8-8,2,2,0,0,1,2,2Z"/><path class="cls-17" d="M171,150a12,12,0,0,0,12,12h78a12,12,0,0,0,12-12V109a12,12,0,0,0-12-12H183a12,12,0,0,0-12,12Zm16-8.6V154a2,2,0,0,1-2,2,8,8,0,0,1-8-8V134a2,2,0,0,1,2-2h6a1.5,1.5,0,0,1,.37,0l.13,0,.21.07.15.06.15.08.17.11.08.07A2,2,0,0,1,187,134Zm0-23.8V125a2,2,0,0,1-.74,1.54l-.08.07-.17.11-.15.08-.15.06-.21.07-.13,0a1.5,1.5,0,0,1-.37,0h-6a2,2,0,0,1-2-2V111a8,8,0,0,1,8-8,2,2,0,0,1,2,2Z"/><path class="cls-17" d="M283,150a12,12,0,0,0,12,12h78a12,12,0,0,0,12-12V109a12,12,0,0,0-12-12H295a12,12,0,0,0-12,12Zm16-8.6V154a2,2,0,0,1-2,2,8,8,0,0,1-8-8V134a2,2,0,0,1,2-2h6a1.5,1.5,0,0,1,.37,0l.13,0,.21.07.15.06.15.08.17.11.08.07A2,2,0,0,1,299,134Zm0-23.8V125a2,2,0,0,1-.74,1.54l-.08.07-.17.11-.15.08-.15.06-.21.07-.13,0a1.5,1.5,0,0,1-.37,0h-6a2,2,0,0,1-2-2V111a8,8,0,0,1,8-8,2,2,0,0,1,2,2Z"/><path class="cls-17" d="M395,150a12,12,0,0,0,12,12h78a12,12,0,0,0,12-12V109a12,12,0,0,0-12-12H407a12,12,0,0,0-12,12Zm16-8.6V154a2,2,0,0,1-2,2,8,8,0,0,1-8-8V134a2,2,0,0,1,2-2h6a1.5,1.5,0,0,1,.37,0l.13,0,.21.07.15.06.15.08.17.11.08.07A2,2,0,0,1,411,134Zm0-23.8V125a2,2,0,0,1-.74,1.54l-.08.07-.17.11-.15.08-.15.06-.21.07-.13,0a1.5,1.5,0,0,1-.37,0h-6a2,2,0,0,1-2-2V111a8,8,0,0,1,8-8,2,2,0,0,1,2,2Z"/><path class="cls-17" d="M507,150a12,12,0,0,0,12,12h78a12,12,0,0,0,12-12V109a12,12,0,0,0-12-12H519a12,12,0,0,0-12,12Zm16-8.6V154a2,2,0,0,1-2,2,8,8,0,0,1-8-8V134a2,2,0,0,1,2-2h6a1.5,1.5,0,0,1,.37,0l.13,0,.21.07.15.06.15.08.17.11.08.07A2,2,0,0,1,523,134Zm0-23.8V125a2,2,0,0,1-.74,1.54l-.08.07-.17.11-.15.08-.15.06-.21.07-.13,0a1.5,1.5,0,0,1-.37,0h-6a2,2,0,0,1-2-2V111a8,8,0,0,1,8-8,2,2,0,0,1,2,2Z"/><path class="cls-17" d="M619,150a12,12,0,0,0,12,12H829a12,12,0,0,0,12-12V109a12,12,0,0,0-12-12H631a12,12,0,0,0-12,12Zm16-8.6V154a2,2,0,0,1-2,2,8,8,0,0,1-8-8V134a2,2,0,0,1,2-2h6a1.5,1.5,0,0,1,.37,0l.13,0,.21.07.15.06.15.08.17.11.08.07A2,2,0,0,1,635,134Zm0-23.8V125a2,2,0,0,1-.74,1.54l-.08.07-.17.11-.15.08-.15.06-.21.07-.13,0a1.5,1.5,0,0,1-.37,0h-6a2,2,0,0,1-2-2V111a8,8,0,0,1,8-8,2,2,0,0,1,2,2Z"/><path class="cls-17" d="M851,150a12,12,0,0,0,12,12h198a12,12,0,0,0,12-12V109a12,12,0,0,0-12-12H863a12,12,0,0,0-12,12Zm16-8.6V154a2,2,0,0,1-2,2,8,8,0,0,1-8-8V134a2,2,0,0,1,2-2h6a1.5,1.5,0,0,1,.37,0l.13,0,.21.07.15.06.15.08.17.11.08.07A2,2,0,0,1,867,134Zm0-23.8V125a2,2,0,0,1-.74,1.54l-.08.07-.17.11-.15.08-.15.06-.21.07-.13,0a1.5,1.5,0,0,1-.37,0h-6a2,2,0,0,1-2-2V111a8,8,0,0,1,8-8,2,2,0,0,1,2,2Z"/><path class="cls-17" d="M1083,150a12,12,0,0,0,12,12h198a12,12,0,0,0,12-12V109a12,12,0,0,0-12-12H1095a12,12,0,0,0-12,12Zm16-8.6V154a2,2,0,0,1-2,2,8,8,0,0,1-8-8V134a2,2,0,0,1,2-2h6a1.5,1.5,0,0,1,.37,0l.13,0,.21.07.15.06.15.08.17.11.08.07A2,2,0,0,1,1099,134Zm0-23.8V125a2,2,0,0,1-.74,1.54l-.08.07-.17.11-.15.08-.15.06-.21.07-.13,0a1.5,1.5,0,0,1-.37,0h-6a2,2,0,0,1-2-2V111a8,8,0,0,1,8-8,2,2,0,0,1,2,2Z"/><rect class="cls-18" x="171" y="15" width="102" height="28" rx="12"/><rect class="cls-18" x="395" y="15" width="102" height="28" rx="12"/><rect class="cls-18" x="283" y="15" width="102" height="28" rx="12"/><rect class="cls-18" x="507" y="15" width="102" height="28" rx="12"/><rect class="cls-18" x="619" y="15" width="222" height="28" rx="12"/><rect class="cls-18" x="851" y="15" width="222" height="28" rx="12"/><rect class="cls-18" x="1083" y="15" width="222" height="28" rx="12"/></g><g id="txt"><path class="cls-19" d="M36.3,239.18a6.56,6.56,0,0,1-3.1.66,5,5,0,0,1-3.82-1.54,5.69,5.69,0,0,1-1.44-4,6,6,0,0,1,1.61-4.35,5.52,5.52,0,0,1,4.11-1.65,6.54,6.54,0,0,1,2.64.46v1.4a5.36,5.36,0,0,0-2.66-.67,4.1,4.1,0,0,0-3.13,1.28,4.86,4.86,0,0,0-1.2,3.45,4.66,4.66,0,0,0,1.12,3.26,3.83,3.83,0,0,0,3,1.22,5.54,5.54,0,0,0,2.92-.75Z"/><path class="cls-19" d="M39.69,239.65H38.41V227.8h1.28Z"/><path class="cls-19" d="M42.94,229.62a.81.81,0,0,1-.59-.24.78.78,0,0,1-.24-.59.82.82,0,0,1,.83-.84.85.85,0,0,1,.6.24.81.81,0,0,1,.24.6.82.82,0,0,1-.24.59A.85.85,0,0,1,42.94,229.62Zm.62,10H42.28v-8h1.28Z"/><path class="cls-19" d="M52.59,236H46.94a3,3,0,0,0,.72,2.06,2.43,2.43,0,0,0,1.89.73,3.93,3.93,0,0,0,2.48-.89v1.2a4.64,4.64,0,0,1-2.79.77,3.39,3.39,0,0,1-2.66-1.09,4.45,4.45,0,0,1-1-3.07,4.35,4.35,0,0,1,1.06-3,3.37,3.37,0,0,1,2.63-1.18,3,3,0,0,1,2.43,1,4.22,4.22,0,0,1,.86,2.82Zm-1.32-1.09a2.56,2.56,0,0,0-.53-1.72,1.83,1.83,0,0,0-1.47-.62,2.1,2.1,0,0,0-1.54.65,3,3,0,0,0-.78,1.69Z"/><path class="cls-19" d="M61.16,239.65H59.88v-4.56q0-2.55-1.86-2.55a2,2,0,0,0-1.59.72,2.68,2.68,0,0,0-.63,1.83v4.56H54.52v-8H55.8V233h0a2.88,2.88,0,0,1,2.62-1.52,2.44,2.44,0,0,1,2,.85,3.78,3.78,0,0,1,.69,2.45Z"/><path class="cls-19" d="M67.29,239.57a2.43,2.43,0,0,1-1.2.25q-2.1,0-2.1-2.34v-4.74H62.62v-1.09H64v-2l1.28-.42v2.37h2v1.09h-2v4.51a1.81,1.81,0,0,0,.28,1.15,1.07,1.07,0,0,0,.9.34,1.4,1.4,0,0,0,.84-.26Z"/><path class="cls-19" d="M75.3,236H69.66a3,3,0,0,0,.72,2.06,2.43,2.43,0,0,0,1.89.73,4,4,0,0,0,2.48-.89v1.2a4.64,4.64,0,0,1-2.79.77,3.39,3.39,0,0,1-2.66-1.09,4.45,4.45,0,0,1-1-3.07,4.35,4.35,0,0,1,1.06-3A3.37,3.37,0,0,1,72,231.46a3,3,0,0,1,2.43,1,4.22,4.22,0,0,1,.85,2.82ZM74,234.88a2.56,2.56,0,0,0-.53-1.72,1.83,1.83,0,0,0-1.47-.62,2.1,2.1,0,0,0-1.54.65,3,3,0,0,0-.78,1.69Z"/><path class="cls-19" d="M76.76,239.36V238a3.76,3.76,0,0,0,2.3.78c1.13,0,1.69-.38,1.69-1.13a1,1,0,0,0-.14-.54,1.36,1.36,0,0,0-.4-.39,2.56,2.56,0,0,0-.57-.31l-.72-.29q-.53-.21-.93-.42a3,3,0,0,1-.67-.49,1.77,1.77,0,0,1-.41-.61,2.21,2.21,0,0,1-.14-.81,1.92,1.92,0,0,1,.26-1,2.28,2.28,0,0,1,.69-.73,3.25,3.25,0,0,1,1-.44,4.35,4.35,0,0,1,1.14-.15,4.61,4.61,0,0,1,1.86.36v1.3a3.61,3.61,0,0,0-2-.58,2.49,2.49,0,0,0-.64.08,1.65,1.65,0,0,0-.5.23,1,1,0,0,0-.32.36.88.88,0,0,0-.11.45,1.07,1.07,0,0,0,.11.53,1.15,1.15,0,0,0,.33.37,2.63,2.63,0,0,0,.53.3l.71.29a7.26,7.26,0,0,1,1,.42,3.22,3.22,0,0,1,.72.48,1.93,1.93,0,0,1,.45.62,2,2,0,0,1,.16.84,1.93,1.93,0,0,1-.26,1,2.32,2.32,0,0,1-.7.73,3.42,3.42,0,0,1-1,.43,5.17,5.17,0,0,1-1.19.14A4.51,4.51,0,0,1,76.76,239.36Z"/><path class="cls-20" d="M222.51,34.6H220.9l-5.76-8.93a3.32,3.32,0,0,1-.36-.7h-.05a12,12,0,0,1,.06,1.54V34.6h-1.31V23.4h1.71l5.6,8.79a8.16,8.16,0,0,1,.46.75h0a12.17,12.17,0,0,1-.08-1.65V23.4h1.31Z"/><path class="cls-20" d="M231.14,24.59h-4.38v3.87h4.05v1.18h-4.05v5h-1.31V23.4h5.69Z"/><path class="cls-20" d="M327.24,30.37V34.6h-1.32V23.4H329a4.09,4.09,0,0,1,2.79.87,3.14,3.14,0,0,1,1,2.47,3.41,3.41,0,0,1-1.1,2.61,4.18,4.18,0,0,1-3,1Zm0-5.78v4.59h1.37a3.11,3.11,0,0,0,2.08-.62,2.23,2.23,0,0,0,.71-1.76c0-1.47-.87-2.21-2.62-2.21Z"/><path class="cls-20" d="M343.21,23.4l-4.15,11.2h-1.44l-4.06-11.2H335l3.1,8.88a6,6,0,0,1,.23,1h0a4.57,4.57,0,0,1,.25-1l3.17-8.87Z"/><path class="cls-20" d="M539.21,34.6H537.6l-5.77-8.93a3.81,3.81,0,0,1-.35-.7h-.05a12,12,0,0,1,.06,1.54V34.6h-1.31V23.4h1.7l5.61,8.79a5.84,5.84,0,0,1,.45.75h0a10.69,10.69,0,0,1-.08-1.65V23.4h1.31Z"/><path class="cls-20" d="M547.83,24.59h-4.37v3.87h4v1.18h-4v5h-1.31V23.4h5.68Z"/><path class="cls-20" d="M562,30.46h-3.16v3.15h-1V30.46h-3.14V29.41h3.14V26.27h1v3.14H562Z"/><path class="cls-20" d="M571,30.37V34.6h-1.31V23.4h3.08a4,4,0,0,1,2.78.87,3.14,3.14,0,0,1,1,2.47,3.38,3.38,0,0,1-1.1,2.61,4.18,4.18,0,0,1-3,1Zm0-5.78v4.59h1.38a3.08,3.08,0,0,0,2.07-.62,2.21,2.21,0,0,0,.72-1.76c0-1.47-.88-2.21-2.63-2.21Z"/><path class="cls-20" d="M587,23.4l-4.15,11.2h-1.44L577.3,23.4h1.46l3.11,8.88a6.07,6.07,0,0,1,.22,1h0a5.29,5.29,0,0,1,.26-1l3.17-8.87Z"/><path class="cls-20" d="M410.19,34.6V23.4h3.09q5.93,0,5.93,5.46A5.5,5.5,0,0,1,417.56,33a6.09,6.09,0,0,1-4.4,1.57Zm1.31-10v8.82h1.67a4.72,4.72,0,0,0,3.43-1.18,4.4,4.4,0,0,0,1.23-3.34q0-4.3-4.58-4.3Z"/><path class="cls-20" d="M427.67,30.92H422a3,3,0,0,0,.72,2.06,2.45,2.45,0,0,0,1.89.73,3.93,3.93,0,0,0,2.48-.89V34a4.64,4.64,0,0,1-2.79.77,3.35,3.35,0,0,1-2.66-1.09,4.45,4.45,0,0,1-1-3.07,4.35,4.35,0,0,1,1.06-3,3.4,3.4,0,0,1,2.63-1.18,3,3,0,0,1,2.43,1,4.26,4.26,0,0,1,.86,2.82Zm-1.32-1.08a2.59,2.59,0,0,0-.53-1.73,1.83,1.83,0,0,0-1.47-.62,2.1,2.1,0,0,0-1.54.65,3,3,0,0,0-.78,1.7Z"/><path class="cls-20" d="M435.89,26.6l-3.18,8h-1.26l-3-8h1.4l2,5.81a4.93,4.93,0,0,1,.28,1.12h0a4.76,4.76,0,0,1,.25-1.08l2.12-5.85Z"/><path class="cls-20" d="M440.52,34.79a3.68,3.68,0,0,1-2.83-1.12,4.14,4.14,0,0,1-1.06-3,4.29,4.29,0,0,1,1.1-3.15,4,4,0,0,1,3-1.14,3.57,3.57,0,0,1,2.79,1.11,4.35,4.35,0,0,1,1,3.05,4.31,4.31,0,0,1-1.08,3.07A3.78,3.78,0,0,1,440.52,34.79Zm.09-7.3a2.44,2.44,0,0,0-1.95.84,3.45,3.45,0,0,0-.72,2.32,3.23,3.23,0,0,0,.73,2.24,2.45,2.45,0,0,0,1.94.82,2.35,2.35,0,0,0,1.91-.8,3.47,3.47,0,0,0,.67-2.29,3.56,3.56,0,0,0-.67-2.32A2.33,2.33,0,0,0,440.61,27.49Z"/><path class="cls-20" d="M447.83,34.6h-1.28V22.76h1.28Z"/><path class="cls-20" d="M456.89,34.6h-1.28V33.34h0a2.64,2.64,0,0,1-2.47,1.45c-1.9,0-2.86-1.14-2.86-3.41V26.6h1.28v4.58c0,1.69.64,2.53,1.93,2.53A2,2,0,0,0,455,33a2.65,2.65,0,0,0,.6-1.81V26.6h1.28Z"/><path class="cls-20" d="M464.93,34.23a4.15,4.15,0,0,1-2.19.56A3.62,3.62,0,0,1,460,33.68a4.06,4.06,0,0,1-1.05-2.89,4.46,4.46,0,0,1,1.13-3.18,4,4,0,0,1,3-1.2,4.24,4.24,0,0,1,1.86.39v1.32a3.26,3.26,0,0,0-1.91-.63,2.58,2.58,0,0,0-2,.88,3.37,3.37,0,0,0-.79,2.31A3.18,3.18,0,0,0,461,32.9a2.54,2.54,0,0,0,2,.81,3.22,3.22,0,0,0,2-.69Zm-.67,2.37c0,.92-.72,1.38-2.15,1.38l-.51,0v-.7a4.27,4.27,0,0,0,.55,0c.73,0,1.1-.23,1.1-.7s-.33-.61-1-.61l-.32,0V34.6h.85v.81a1.72,1.72,0,0,1,1.09.32A1,1,0,0,1,464.26,36.6Z"/><path class="cls-20" d="M472.6,34.6h-1.29V33.35h0a2.92,2.92,0,0,1-4.33.81,2.21,2.21,0,0,1-.67-1.68q0-2.25,2.64-2.61l2.39-.34c0-1.36-.55-2-1.64-2a3.9,3.9,0,0,0-2.61,1V27.16a4.94,4.94,0,0,1,2.72-.75c1.88,0,2.82,1,2.82,3Zm-.43-11.39a2.24,2.24,0,0,1-.38,1.34,1.18,1.18,0,0,1-1,.52,2.54,2.54,0,0,1-1.27-.41,2.16,2.16,0,0,0-.93-.33c-.46,0-.69.29-.69.88h-.73a2.19,2.19,0,0,1,.37-1.34,1.25,1.25,0,0,1,1.05-.5,2.24,2.24,0,0,1,1.16.4,2.07,2.07,0,0,0,1,.35c.44,0,.66-.3.66-.91Zm-.86,7.34-1.93.27a3.09,3.09,0,0,0-1.34.44,1.28,1.28,0,0,0-.45,1.12,1.23,1.23,0,0,0,.42,1,1.58,1.58,0,0,0,1.11.37,2,2,0,0,0,1.57-.67,2.35,2.35,0,0,0,.62-1.69Z"/><path class="cls-20" d="M478.35,34.79a3.71,3.71,0,0,1-2.83-1.12,4.18,4.18,0,0,1-1.06-3,4.33,4.33,0,0,1,1.1-3.15,4,4,0,0,1,3-1.14,3.56,3.56,0,0,1,2.79,1.11,4.35,4.35,0,0,1,1,3.05,4.31,4.31,0,0,1-1.08,3.07A3.8,3.8,0,0,1,478.35,34.79Zm.1-7.3a2.44,2.44,0,0,0-2,.84,3.44,3.44,0,0,0-.71,2.32,3.28,3.28,0,0,0,.72,2.24,2.47,2.47,0,0,0,1.95.82,2.36,2.36,0,0,0,1.91-.8,3.53,3.53,0,0,0,.67-2.29,3.62,3.62,0,0,0-.67-2.32A2.34,2.34,0,0,0,478.45,27.49Z"/><path class="cls-20" d="M691.68,34.6h-5.81V23.4h1.31v10h4.5Z"/><path class="cls-20" d="M699.67,23.4,696,30.46V34.6h-1.32V30.49l-3.6-7.09h1.49l2.51,5.06q0,.09.27.69h0a3.59,3.59,0,0,1,.3-.69l2.62-5.06Z"/><path class="cls-20" d="M714.65,34.6H713l-5.77-8.93a4.63,4.63,0,0,1-.36-.7h0a12,12,0,0,1,.06,1.54V34.6h-1.31V23.4h1.7l5.61,8.79q.35.54.45.75h0a12.17,12.17,0,0,1-.08-1.65V23.4h1.32Z"/><path class="cls-20" d="M723.27,24.59H718.9v3.87h4v1.18h-4v5h-1.32V23.4h5.69Z"/><path class="cls-20" d="M732.54,23.49a10.55,10.55,0,0,0-2,6.55,10.77,10.77,0,0,0,2,6.5h-1.11a10.35,10.35,0,0,1-2.09-6.5,10.55,10.55,0,0,1,2.09-6.55Z"/><path class="cls-20" d="M733.26,33.82l3.76-10h1.58l3.72,10v.8h-9.06Zm7.5-.39-2.19-5.94c-.27-.75-.61-1.71-.8-2.4h0c-.16.55-.45,1.44-.72,2.2l-2.26,6.14Z"/><path class="cls-20" d="M753.51,23.4l-5.38,13.06h-1.19L752.3,23.4Z"/><path class="cls-20" d="M760.93,29a2.36,2.36,0,0,1-1.84-.77,2.89,2.89,0,0,1-.69-2,3.1,3.1,0,0,1,.73-2.19,2.48,2.48,0,0,1,2-.8,2.33,2.33,0,0,1,1.85.74,3,3,0,0,1,.66,2.08,3.09,3.09,0,0,1-.73,2.16A2.51,2.51,0,0,1,760.93,29Zm.11-4.93a1.41,1.41,0,0,0-1.17.55,2.36,2.36,0,0,0-.43,1.51,2.3,2.3,0,0,0,.42,1.47,1.41,1.41,0,0,0,1.15.53,1.36,1.36,0,0,0,1.15-.55,2.49,2.49,0,0,0,.41-1.51,2.33,2.33,0,0,0-.41-1.48A1.34,1.34,0,0,0,761,24.09Zm7.39-.69-7.19,11.28h-1.11l7.18-11.28Zm-.83,11.37a2.35,2.35,0,0,1-1.84-.76,2.92,2.92,0,0,1-.69-2,3.15,3.15,0,0,1,.74-2.2,2.51,2.51,0,0,1,2-.81,2.34,2.34,0,0,1,1.85.75,3.08,3.08,0,0,1,.67,2.1,3,3,0,0,1-.74,2.14A2.51,2.51,0,0,1,767.6,34.77Zm.11-4.92a1.38,1.38,0,0,0-1.17.55,2.36,2.36,0,0,0-.43,1.51,2.29,2.29,0,0,0,.42,1.46,1.41,1.41,0,0,0,1.15.53,1.38,1.38,0,0,0,1.15-.55,2.44,2.44,0,0,0,.41-1.51,2.26,2.26,0,0,0-.41-1.47A1.33,1.33,0,0,0,767.71,29.85Z"/><path class="cls-20" d="M771.19,36.54a10.84,10.84,0,0,0,2-6.55,10.65,10.65,0,0,0-2-6.5h1.09a10.24,10.24,0,0,1,2.1,6.52,10.41,10.41,0,0,1-2.1,6.53Z"/><path class="cls-20" d="M918.2,34.6h-1.3V27.09c0-.6,0-1.32.11-2.18h0a7.46,7.46,0,0,1-.34,1.08l-3.83,8.61h-.64l-3.82-8.55a6.35,6.35,0,0,1-.33-1.14h0c0,.44.07,1.18.07,2.19v7.5h-1.27V23.4h1.74L912,31.21a10.24,10.24,0,0,1,.52,1.34h0c.22-.61.4-1.07.53-1.37l3.51-7.78h1.64Z"/><path class="cls-20" d="M927.41,30.92h-5.65a3,3,0,0,0,.72,2.06,2.43,2.43,0,0,0,1.89.73,3.93,3.93,0,0,0,2.48-.89V34a4.64,4.64,0,0,1-2.79.77,3.35,3.35,0,0,1-2.66-1.09,4.45,4.45,0,0,1-1-3.07,4.35,4.35,0,0,1,1.06-3,3.4,3.4,0,0,1,2.63-1.18,3,3,0,0,1,2.43,1,4.26,4.26,0,0,1,.86,2.82Zm-1.32-1.08a2.59,2.59,0,0,0-.53-1.73,1.83,1.83,0,0,0-1.47-.62,2.1,2.1,0,0,0-1.54.65,3,3,0,0,0-.78,1.7Z"/><path class="cls-20" d="M933.05,34.52a2.42,2.42,0,0,1-1.19.25q-2.1,0-2.1-2.34V27.7h-1.38V26.6h1.38v-2l1.28-.42V26.6h2v1.1h-2v4.5a1.89,1.89,0,0,0,.27,1.15,1.1,1.1,0,0,0,.91.35,1.31,1.31,0,0,0,.83-.27Z"/><path class="cls-20" d="M940.49,34.6h-1.28V33.35h0a2.69,2.69,0,0,1-2.46,1.44,2.63,2.63,0,0,1-1.87-.63,2.22,2.22,0,0,1-.68-1.68q0-2.25,2.64-2.61l2.4-.34q0-2-1.65-2a3.94,3.94,0,0,0-2.61,1V27.16a5,5,0,0,1,2.72-.75c1.88,0,2.82,1,2.82,3Zm-1.28-4.05-1.93.27a3.09,3.09,0,0,0-1.34.44,1.26,1.26,0,0,0-.46,1.12,1.23,1.23,0,0,0,.42,1,1.61,1.61,0,0,0,1.12.37,2,2,0,0,0,1.57-.67,2.4,2.4,0,0,0,.62-1.69Z"/><path class="cls-20" d="M948.77,30.37V34.6h-1.31V23.4h3.08a4,4,0,0,1,2.78.87,3.14,3.14,0,0,1,1,2.47,3.38,3.38,0,0,1-1.1,2.61,4.18,4.18,0,0,1-3,1Zm0-5.78v4.59h1.38a3.08,3.08,0,0,0,2.07-.62,2.21,2.21,0,0,0,.72-1.76c0-1.47-.88-2.21-2.63-2.21Z"/><path class="cls-20" d="M960.94,34.79a4.92,4.92,0,0,1-3.82-1.57,5.86,5.86,0,0,1-1.43-4.09,6.13,6.13,0,0,1,1.46-4.31,5.1,5.1,0,0,1,4-1.61,4.8,4.8,0,0,1,3.74,1.56,5.85,5.85,0,0,1,1.42,4.09,6.2,6.2,0,0,1-1.45,4.34A5,5,0,0,1,960.94,34.79ZM961,24.4a3.62,3.62,0,0,0-2.87,1.27,5,5,0,0,0-1.1,3.35,4.94,4.94,0,0,0,1.08,3.33,3.5,3.5,0,0,0,2.8,1.26,3.67,3.67,0,0,0,2.9-1.2A4.94,4.94,0,0,0,964.91,29a5.18,5.18,0,0,0-1-3.43A3.54,3.54,0,0,0,961,24.4Z"/><path class="cls-20" d="M975.62,23.49a10.62,10.62,0,0,0-2,6.55,10.83,10.83,0,0,0,2,6.5h-1.1a10.35,10.35,0,0,1-2.1-6.5,10.61,10.61,0,0,1,2.1-6.55Z"/><path class="cls-20" d="M976.34,33.82l3.76-10h1.59l3.71,10v.8h-9.06Zm7.51-.39-2.19-5.94c-.28-.75-.61-1.71-.8-2.4h-.05c-.16.55-.45,1.44-.72,2.2l-2.26,6.14Z"/><path class="cls-20" d="M996.6,23.4l-5.38,13.06H990l5.36-13.06Z"/><path class="cls-20" d="M1004,29a2.38,2.38,0,0,1-1.85-.77,2.93,2.93,0,0,1-.68-2,3.14,3.14,0,0,1,.72-2.19,2.51,2.51,0,0,1,2-.8A2.34,2.34,0,0,1,1006,24a3,3,0,0,1,.66,2.08,3.09,3.09,0,0,1-.74,2.16A2.48,2.48,0,0,1,1004,29Zm.11-4.93a1.38,1.38,0,0,0-1.17.55,2.36,2.36,0,0,0-.43,1.51,2.3,2.3,0,0,0,.42,1.47,1.39,1.39,0,0,0,1.15.53,1.36,1.36,0,0,0,1.15-.55,2.49,2.49,0,0,0,.41-1.51,2.39,2.39,0,0,0-.41-1.48A1.34,1.34,0,0,0,1004.13,24.09Zm7.39-.69-7.19,11.28h-1.12l7.18-11.28Zm-.83,11.37a2.33,2.33,0,0,1-1.84-.76,2.92,2.92,0,0,1-.69-2,3.14,3.14,0,0,1,.73-2.2,2.51,2.51,0,0,1,2-.81,2.35,2.35,0,0,1,1.85.75,3.07,3.07,0,0,1,.66,2.1,3,3,0,0,1-.74,2.14A2.48,2.48,0,0,1,1010.69,34.77Zm.11-4.92a1.41,1.41,0,0,0-1.18.55,2.42,2.42,0,0,0-.42,1.51,2.29,2.29,0,0,0,.42,1.46,1.49,1.49,0,0,0,2.3,0,2.51,2.51,0,0,0,.41-1.51,2.32,2.32,0,0,0-.41-1.47A1.34,1.34,0,0,0,1010.8,29.85Z"/><path class="cls-20" d="M1014.28,36.54a10.9,10.9,0,0,0,2-6.55,10.65,10.65,0,0,0-2-6.5h1.08a10.18,10.18,0,0,1,2.1,6.52,10.35,10.35,0,0,1-2.1,6.53Z"/><path class="cls-20" d="M1127.5,24.59h-4.38v3.87h4.05v1.18h-4.05v5h-1.31V23.4h5.69Z"/><path class="cls-20" d="M1132.79,34.79a3.71,3.71,0,0,1-2.83-1.12,4.14,4.14,0,0,1-1.06-3,4.33,4.33,0,0,1,1.1-3.15,4,4,0,0,1,3-1.14,3.57,3.57,0,0,1,2.79,1.11,4.35,4.35,0,0,1,1,3.05,4.31,4.31,0,0,1-1.08,3.07A3.8,3.8,0,0,1,1132.79,34.79Zm.1-7.3a2.44,2.44,0,0,0-2,.84,3.45,3.45,0,0,0-.72,2.32,3.28,3.28,0,0,0,.73,2.24,2.47,2.47,0,0,0,2,.82,2.38,2.38,0,0,0,1.91-.8,3.53,3.53,0,0,0,.66-2.29,3.62,3.62,0,0,0-.66-2.32A2.35,2.35,0,0,0,1132.89,27.49Z"/><path class="cls-20" d="M1143,27.9a1.6,1.6,0,0,0-1-.26,1.63,1.63,0,0,0-1.37.77,3.57,3.57,0,0,0-.55,2.11V34.6h-1.29v-8h1.29v1.65h0a2.86,2.86,0,0,1,.83-1.32,2,2,0,0,1,1.26-.47,2.21,2.21,0,0,1,.77.11Z"/><path class="cls-20" d="M1150.61,30.92H1145a3,3,0,0,0,.72,2.06,2.43,2.43,0,0,0,1.89.73,4,4,0,0,0,2.48-.89V34a4.64,4.64,0,0,1-2.79.77,3.35,3.35,0,0,1-2.66-1.09,4.45,4.45,0,0,1-1-3.07,4.35,4.35,0,0,1,1.06-3,3.4,3.4,0,0,1,2.63-1.18,3,3,0,0,1,2.43,1,4.26,4.26,0,0,1,.86,2.82Zm-1.32-1.08a2.59,2.59,0,0,0-.53-1.73,1.83,1.83,0,0,0-1.47-.62,2.1,2.1,0,0,0-1.54.65,3,3,0,0,0-.78,1.7Z"/><path class="cls-20" d="M1158,34.23a4.2,4.2,0,0,1-2.19.56,3.62,3.62,0,0,1-2.76-1.11,4.06,4.06,0,0,1-1-2.89,4.42,4.42,0,0,1,1.13-3.18,4,4,0,0,1,3-1.2,4.21,4.21,0,0,1,1.86.39v1.32a3.23,3.23,0,0,0-1.9-.63,2.62,2.62,0,0,0-2,.88,3.37,3.37,0,0,0-.78,2.31,3.14,3.14,0,0,0,.74,2.22,2.54,2.54,0,0,0,2,.81,3.26,3.26,0,0,0,2-.69Z"/><path class="cls-20" d="M1165.66,34.6h-1.28V33.35h0a2.69,2.69,0,0,1-2.46,1.44,2.63,2.63,0,0,1-1.87-.63,2.19,2.19,0,0,1-.68-1.68q0-2.25,2.64-2.61l2.4-.34q0-2-1.65-2a3.94,3.94,0,0,0-2.61,1V27.16a5,5,0,0,1,2.72-.75c1.88,0,2.82,1,2.82,3Zm-1.28-4.05-1.93.27a3.09,3.09,0,0,0-1.34.44,1.26,1.26,0,0,0-.46,1.12,1.23,1.23,0,0,0,.42,1,1.6,1.6,0,0,0,1.11.37,2.06,2.06,0,0,0,1.58-.67,2.4,2.4,0,0,0,.62-1.69Z"/><path class="cls-20" d="M1167.59,34.31V32.94a3.83,3.83,0,0,0,2.3.77c1.13,0,1.69-.37,1.69-1.12a1,1,0,0,0-.14-.55,1.45,1.45,0,0,0-.39-.39,2.89,2.89,0,0,0-.58-.31l-.72-.29q-.52-.21-.93-.42a2.7,2.7,0,0,1-.67-.49,1.77,1.77,0,0,1-.41-.61,2.2,2.2,0,0,1-.13-.8,1.93,1.93,0,0,1,.25-1,2.4,2.4,0,0,1,.69-.73,3.37,3.37,0,0,1,1-.44,4.35,4.35,0,0,1,1.14-.15,4.61,4.61,0,0,1,1.86.36v1.3a3.68,3.68,0,0,0-2-.58,2.57,2.57,0,0,0-.65.08,1.93,1.93,0,0,0-.5.23,1.1,1.1,0,0,0-.32.36,1,1,0,0,0-.11.46,1.14,1.14,0,0,0,.11.52,1.31,1.31,0,0,0,.33.38,3.71,3.71,0,0,0,.53.29l.72.29c.35.14.67.28,1,.42a3.22,3.22,0,0,1,.72.48,1.93,1.93,0,0,1,.45.62,2,2,0,0,1,.16.84,1.9,1.9,0,0,1-.26,1,2.22,2.22,0,0,1-.7.73,3.36,3.36,0,0,1-1,.43,5.26,5.26,0,0,1-1.2.14A4.51,4.51,0,0,1,1167.59,34.31Z"/><path class="cls-20" d="M1178.57,34.52a2.42,2.42,0,0,1-1.19.25q-2.1,0-2.1-2.34V27.7h-1.38V26.6h1.38v-2l1.28-.42V26.6h2v1.1h-2v4.5a1.89,1.89,0,0,0,.27,1.15,1.1,1.1,0,0,0,.91.35,1.31,1.31,0,0,0,.83-.27Z"/><path class="cls-20" d="M1186.15,30.37V34.6h-1.31V23.4h3.08a4.06,4.06,0,0,1,2.78.87,3.14,3.14,0,0,1,1,2.47,3.38,3.38,0,0,1-1.1,2.61,4.18,4.18,0,0,1-3,1Zm0-5.78v4.59h1.38a3.1,3.1,0,0,0,2.07-.62,2.21,2.21,0,0,0,.72-1.76c0-1.47-.88-2.21-2.63-2.21Z"/><path class="cls-20" d="M1197.8,27.9a1.58,1.58,0,0,0-1-.26,1.66,1.66,0,0,0-1.37.77,3.57,3.57,0,0,0-.55,2.11V34.6h-1.28v-8h1.28v1.65h0a2.79,2.79,0,0,1,.84-1.32,1.91,1.91,0,0,1,1.26-.47,2.14,2.14,0,0,1,.76.11Z"/><path class="cls-20" d="M1205.41,30.92h-5.65a3,3,0,0,0,.72,2.06,2.46,2.46,0,0,0,1.89.73,4,4,0,0,0,2.49-.89V34a4.68,4.68,0,0,1-2.79.77,3.39,3.39,0,0,1-2.67-1.09,4.5,4.5,0,0,1-1-3.07,4.4,4.4,0,0,1,1.06-3,3.41,3.41,0,0,1,2.63-1.18,3,3,0,0,1,2.43,1,4.26,4.26,0,0,1,.86,2.82Zm-1.31-1.08a2.65,2.65,0,0,0-.54-1.73,1.82,1.82,0,0,0-1.46-.62,2.07,2.07,0,0,0-1.54.65,3,3,0,0,0-.78,1.7Z"/><path class="cls-20" d="M1215.85,23.4l-4.15,11.2h-1.45l-4.06-11.2h1.46l3.1,8.88a5.15,5.15,0,0,1,.23,1h0a4.62,4.62,0,0,1,.26-1l3.16-8.87Z"/><path class="cls-20" d="M1224.6,23.49a10.55,10.55,0,0,0-2,6.55,10.77,10.77,0,0,0,2,6.5h-1.11a10.35,10.35,0,0,1-2.09-6.5,10.55,10.55,0,0,1,2.09-6.55Z"/><path class="cls-20" d="M1225.32,33.82l3.76-10h1.58l3.72,10v.8h-9.06Zm7.5-.39-2.19-5.94c-.27-.75-.61-1.71-.8-2.4h0c-.16.55-.45,1.44-.72,2.2l-2.26,6.14Z"/><path class="cls-20" d="M1245.57,23.4l-5.38,13.06H1239l5.36-13.06Z"/><path class="cls-20" d="M1253,29a2.36,2.36,0,0,1-1.84-.77,2.89,2.89,0,0,1-.69-2,3.1,3.1,0,0,1,.73-2.19,2.48,2.48,0,0,1,2-.8A2.33,2.33,0,0,1,1255,24a3,3,0,0,1,.66,2.08,3,3,0,0,1-.74,2.16A2.48,2.48,0,0,1,1253,29Zm.11-4.93a1.39,1.39,0,0,0-1.17.55,2.36,2.36,0,0,0-.43,1.51,2.3,2.3,0,0,0,.42,1.47,1.39,1.39,0,0,0,1.15.53,1.36,1.36,0,0,0,1.15-.55,2.49,2.49,0,0,0,.41-1.51,2.33,2.33,0,0,0-.41-1.48A1.34,1.34,0,0,0,1253.1,24.09Zm7.39-.69-7.19,11.28h-1.11l7.18-11.28Zm-.83,11.37a2.35,2.35,0,0,1-1.84-.76,2.92,2.92,0,0,1-.69-2,3.15,3.15,0,0,1,.74-2.2,2.51,2.51,0,0,1,2-.81,2.34,2.34,0,0,1,1.85.75,3.07,3.07,0,0,1,.66,2.1,3,3,0,0,1-.73,2.14A2.51,2.51,0,0,1,1259.66,34.77Zm.11-4.92a1.38,1.38,0,0,0-1.17.55,2.36,2.36,0,0,0-.43,1.51,2.29,2.29,0,0,0,.42,1.46,1.41,1.41,0,0,0,1.15.53,1.38,1.38,0,0,0,1.15-.55,2.44,2.44,0,0,0,.41-1.51,2.26,2.26,0,0,0-.41-1.47A1.33,1.33,0,0,0,1259.77,29.85Z"/><path class="cls-20" d="M1263.25,36.54a10.9,10.9,0,0,0,2-6.55,10.65,10.65,0,0,0-2-6.5h1.09a10.24,10.24,0,0,1,2.09,6.52,10.41,10.41,0,0,1-2.09,6.53Z"/><path class="cls-19" d="M37.7,284.65H36.09l-5.76-8.93A3.39,3.39,0,0,1,30,275h0a12.1,12.1,0,0,1,.06,1.54v8.1H28.67V273.44h1.71l5.6,8.79c.24.37.39.62.46.75h0a12.07,12.07,0,0,1-.08-1.65v-7.89H37.7Z"/><path class="cls-19" d="M46.58,284.65H40.64V273.44h5.69v1.19H42v3.73h4v1.18H42v3.92h4.63Z"/><path class="cls-19" d="M55.39,274.63H52.16v10H50.84v-10H47.62v-1.19h7.77Z"/><path class="cls-19" d="M66.41,273.44,61,286.51h-1.2l5.36-13.07Z"/><path class="cls-19" d="M79.77,284.18a6.52,6.52,0,0,1-3.09.65,5,5,0,0,1-3.83-1.54,5.65,5.65,0,0,1-1.44-4A6,6,0,0,1,73,274.91a5.51,5.51,0,0,1,4.1-1.65,6.48,6.48,0,0,1,2.64.46v1.4a5.31,5.31,0,0,0-2.65-.68A4.07,4.07,0,0,0,74,275.73a4.86,4.86,0,0,0-1.2,3.45,4.61,4.61,0,0,0,1.12,3.26,3.82,3.82,0,0,0,2.94,1.21,5.49,5.49,0,0,0,2.92-.75Z"/><path class="cls-19" d="M83.16,284.65H81.88V272.8h1.28Z"/><path class="cls-19" d="M86.41,274.62a.82.82,0,0,1-.82-.83.81.81,0,0,1,.24-.6.78.78,0,0,1,.58-.24.81.81,0,0,1,.6.24.79.79,0,0,1,.25.6.76.76,0,0,1-.25.58A.82.82,0,0,1,86.41,274.62Zm.63,10H85.76v-8H87Z"/><path class="cls-19" d="M96.06,281H90.41a3,3,0,0,0,.72,2.06,2.5,2.5,0,0,0,1.89.73,4,4,0,0,0,2.49-.89v1.2a4.65,4.65,0,0,1-2.79.76,3.39,3.39,0,0,1-2.67-1.09,5.15,5.15,0,0,1,.09-6.11,3.42,3.42,0,0,1,2.63-1.17,3,3,0,0,1,2.43,1,4.21,4.21,0,0,1,.86,2.82Zm-1.31-1.09a2.61,2.61,0,0,0-.54-1.73,1.8,1.8,0,0,0-1.46-.61,2,2,0,0,0-1.54.65,2.93,2.93,0,0,0-.78,1.69Z"/><path class="cls-19" d="M104.64,284.65h-1.28v-4.57c0-1.69-.62-2.54-1.86-2.54a2,2,0,0,0-1.59.72,2.67,2.67,0,0,0-.63,1.82v4.57H98v-8h1.28V278h0a2.89,2.89,0,0,1,2.63-1.51,2.45,2.45,0,0,1,2,.85,3.78,3.78,0,0,1,.69,2.45Z"/><path class="cls-19" d="M110.77,284.57a2.61,2.61,0,0,1-1.2.25c-1.4,0-2.1-.78-2.1-2.35v-4.73h-1.38v-1.09h1.38v-2l1.28-.41v2.37h2v1.09h-2v4.51a1.91,1.91,0,0,0,.27,1.15,1.11,1.11,0,0,0,.91.34,1.36,1.36,0,0,0,.84-.27Z"/><path class="cls-19" d="M118.78,281h-5.65a3,3,0,0,0,.72,2.06,2.5,2.5,0,0,0,1.89.73,4,4,0,0,0,2.49-.89v1.2a4.68,4.68,0,0,1-2.79.76,3.39,3.39,0,0,1-2.67-1.09,5.11,5.11,0,0,1,.09-6.11,3.42,3.42,0,0,1,2.63-1.17,3,3,0,0,1,2.43,1,4.26,4.26,0,0,1,.86,2.82Zm-1.31-1.09a2.61,2.61,0,0,0-.54-1.73,1.82,1.82,0,0,0-1.46-.61,2,2,0,0,0-1.54.65,2.93,2.93,0,0,0-.78,1.69Z"/><path class="cls-19" d="M37,64.44l-4.15,11.2H31.41l-4.07-11.2H28.8l3.11,8.88a6.07,6.07,0,0,1,.22,1h0a5.58,5.58,0,0,1,.26-1l3.17-8.86Z"/><path class="cls-19" d="M43,75.64H41.73V74.39h0a2.67,2.67,0,0,1-2.46,1.44,2.6,2.6,0,0,1-1.87-.64,2.19,2.19,0,0,1-.67-1.68q0-2.24,2.64-2.61l2.39-.33c0-1.36-.55-2-1.64-2a3.94,3.94,0,0,0-2.61,1V68.2a4.94,4.94,0,0,1,2.72-.75c1.88,0,2.82,1,2.82,3Zm-1.29-4-1.93.27a3.09,3.09,0,0,0-1.34.44A1.27,1.27,0,0,0,38,73.42a1.23,1.23,0,0,0,.42,1,1.63,1.63,0,0,0,1.11.37,2,2,0,0,0,1.57-.67,2.35,2.35,0,0,0,.62-1.69Z"/><path class="cls-19" d="M46.71,75.64H45.43V63.8h1.28Z"/><path class="cls-19" d="M52.65,75.83a3.73,3.73,0,0,1-2.83-1.12,4.15,4.15,0,0,1-1.06-3,4.32,4.32,0,0,1,1.1-3.15,4,4,0,0,1,3-1.13,3.6,3.6,0,0,1,2.79,1.1,4.39,4.39,0,0,1,1,3.06,4.28,4.28,0,0,1-1.08,3.06A3.79,3.79,0,0,1,52.65,75.83Zm.09-7.3a2.44,2.44,0,0,0-2,.84,3.45,3.45,0,0,0-.72,2.32,3.25,3.25,0,0,0,.73,2.24,2.45,2.45,0,0,0,1.94.82,2.33,2.33,0,0,0,1.91-.81,3.46,3.46,0,0,0,.67-2.29,3.52,3.52,0,0,0-.67-2.31A2.33,2.33,0,0,0,52.74,68.53Z"/><path class="cls-19" d="M62.85,68.94a1.52,1.52,0,0,0-1-.26,1.66,1.66,0,0,0-1.37.77A3.57,3.57,0,0,0,60,71.56v4.08H58.68v-8H60v1.65h0A2.79,2.79,0,0,1,60.83,68a1.91,1.91,0,0,1,1.26-.47,2.14,2.14,0,0,1,.76.11Z"/><path class="cls-19" d="M77.83,75.64H76.22l-5.77-8.93a4.63,4.63,0,0,1-.36-.7h0a12,12,0,0,1,.06,1.54v8.09H68.8V64.44h1.7l5.61,8.79q.35.54.45.75h0a12.74,12.74,0,0,1-.07-1.65V64.44h1.31Z"/><path class="cls-19" d="M86.7,75.64H80.77V64.44h5.68v1.18H82.08v3.73h4v1.18h-4v3.92H86.7Z"/><path class="cls-19" d="M95.52,65.62H92.28v10H91v-10H87.74V64.44h7.78Z"/><path class="cls-19" d="M30,190.42v4.23H28.67v-11.2h3.08a4.09,4.09,0,0,1,2.79.87,3.16,3.16,0,0,1,1,2.47,3.4,3.4,0,0,1-1.09,2.61,4.2,4.2,0,0,1-3,1Zm0-5.78v4.59h1.38a3.06,3.06,0,0,0,2.07-.62,2.21,2.21,0,0,0,.72-1.76c0-1.47-.88-2.21-2.63-2.21Z"/><path class="cls-19" d="M43.3,191H37.65a3,3,0,0,0,.72,2.06,2.46,2.46,0,0,0,1.89.73,3.93,3.93,0,0,0,2.48-.89v1.2a4.64,4.64,0,0,1-2.79.77,3.35,3.35,0,0,1-2.66-1.09,4.45,4.45,0,0,1-1-3.07,4.35,4.35,0,0,1,1.06-3A3.4,3.4,0,0,1,40,186.46a3,3,0,0,1,2.43,1,4.26,4.26,0,0,1,.86,2.82ZM42,189.89a2.59,2.59,0,0,0-.53-1.73,1.83,1.83,0,0,0-1.47-.62,2.06,2.06,0,0,0-1.53.65,2.91,2.91,0,0,0-.79,1.7Z"/><path class="cls-19" d="M44.75,194.36V193a3.83,3.83,0,0,0,2.3.77c1.13,0,1.69-.37,1.69-1.12a1,1,0,0,0-.14-.55,1.45,1.45,0,0,0-.39-.39,2.89,2.89,0,0,0-.58-.31l-.72-.29q-.52-.21-.93-.42a2.7,2.7,0,0,1-.67-.49,1.77,1.77,0,0,1-.41-.61,2.2,2.2,0,0,1-.13-.8,1.93,1.93,0,0,1,.25-1,2.4,2.4,0,0,1,.69-.73,3.37,3.37,0,0,1,1-.44,4.35,4.35,0,0,1,1.14-.15,4.61,4.61,0,0,1,1.86.36v1.3a3.6,3.6,0,0,0-2-.58,2.57,2.57,0,0,0-.65.08,1.93,1.93,0,0,0-.5.23,1.1,1.1,0,0,0-.32.36,1,1,0,0,0-.11.46,1.14,1.14,0,0,0,.11.52,1.16,1.16,0,0,0,.33.37,2.94,2.94,0,0,0,.53.3l.72.29c.35.14.67.28.95.42a3.22,3.22,0,0,1,.72.48,1.79,1.79,0,0,1,.45.62,2,2,0,0,1,.16.84,1.9,1.9,0,0,1-.26,1,2.12,2.12,0,0,1-.7.73,3.36,3.36,0,0,1-1,.43,5.19,5.19,0,0,1-1.2.14A4.51,4.51,0,0,1,44.75,194.36Z"/><path class="cls-19" d="M55.37,194.84a3.71,3.71,0,0,1-2.83-1.12,4.15,4.15,0,0,1-1.06-3,4.28,4.28,0,0,1,1.1-3.14,3.92,3.92,0,0,1,3-1.14,3.61,3.61,0,0,1,2.8,1.1,4.39,4.39,0,0,1,1,3.06,4.31,4.31,0,0,1-1.08,3.07A3.82,3.82,0,0,1,55.37,194.84Zm.09-7.3a2.44,2.44,0,0,0-2,.84,3.45,3.45,0,0,0-.72,2.32,3.23,3.23,0,0,0,.73,2.24,2.45,2.45,0,0,0,1.94.82,2.35,2.35,0,0,0,1.91-.8,3.47,3.47,0,0,0,.67-2.29,3.56,3.56,0,0,0-.67-2.32A2.33,2.33,0,0,0,55.46,187.54Z"/><path class="cls-19" d="M71.77,194.65H66v-11.2h1.32v10h4.5Z"/><path class="cls-19" d="M75.74,182.57l-2,2.57h-1l1.75-2.57Zm-1.15,12.08H73.31v-8h1.28Z"/><path class="cls-19" d="M84,198.33H82.73v-5.05h0A2.86,2.86,0,0,1,80,194.84a3,3,0,0,1-2.42-1.08,4.34,4.34,0,0,1-.91-2.92,4.8,4.8,0,0,1,1-3.19,3.34,3.34,0,0,1,2.69-1.19,2.53,2.53,0,0,1,2.37,1.3h0v-1.11H84Zm-1.29-7.28v-1.16a2.33,2.33,0,0,0-.64-1.67,2.18,2.18,0,0,0-1.64-.68,2.21,2.21,0,0,0-1.83.86,3.86,3.86,0,0,0-.67,2.41A3.34,3.34,0,0,0,78.6,193a2.07,2.07,0,0,0,1.67.78,2.29,2.29,0,0,0,1.8-.77A2.87,2.87,0,0,0,82.73,191.05Z"/><path class="cls-19" d="M93.08,194.65H91.8v-1.26h0a2.66,2.66,0,0,1-2.47,1.45q-2.86,0-2.86-3.41v-4.78h1.27v4.58c0,1.69.65,2.53,1.94,2.53a2,2,0,0,0,1.54-.69,2.66,2.66,0,0,0,.61-1.81v-4.61h1.28Z"/><path class="cls-19" d="M96.32,184.62a.86.86,0,0,1-.59-.23.87.87,0,0,1,0-1.2.86.86,0,0,1,.59-.23.88.88,0,0,1,.6.23.86.86,0,0,1,0,1.19A.85.85,0,0,1,96.32,184.62Zm.63,10H95.66v-8H97Z"/><path class="cls-19" d="M106.37,194.65h-1.28v-1.36h0a3,3,0,0,1-2.75,1.55,3,3,0,0,1-2.41-1.08,4.39,4.39,0,0,1-.9-2.92,4.84,4.84,0,0,1,1-3.18,3.31,3.31,0,0,1,2.67-1.2,2.57,2.57,0,0,1,2.39,1.3h0v-4.95h1.28ZM105.09,191v-1.18a2.33,2.33,0,0,0-.64-1.64,2.36,2.36,0,0,0-3.47.19,3.76,3.76,0,0,0-.68,2.38A3.37,3.37,0,0,0,101,193a2.12,2.12,0,0,0,1.73.8,2.22,2.22,0,0,0,1.74-.77A2.93,2.93,0,0,0,105.09,191Z"/><path class="cls-19" d="M112.3,194.84a3.74,3.74,0,0,1-2.83-1.12,4.19,4.19,0,0,1-1.06-3,4.28,4.28,0,0,1,1.11-3.14,3.92,3.92,0,0,1,3-1.14,3.62,3.62,0,0,1,2.8,1.1,4.44,4.44,0,0,1,1,3.06,4.31,4.31,0,0,1-1.08,3.07A3.82,3.82,0,0,1,112.3,194.84Zm.1-7.3a2.42,2.42,0,0,0-2,.84,3.45,3.45,0,0,0-.72,2.32,3.28,3.28,0,0,0,.72,2.24,2.48,2.48,0,0,0,2,.82,2.36,2.36,0,0,0,1.91-.8,3.53,3.53,0,0,0,.67-2.29,3.62,3.62,0,0,0-.67-2.32A2.34,2.34,0,0,0,112.4,187.54Z"/><path class="cls-19" d="M122.61,122.9h-1.3v-7.52c0-.59,0-1.32.11-2.18h0a7.28,7.28,0,0,1-.34,1.09l-3.83,8.61h-.64l-3.82-8.55a6.25,6.25,0,0,1-.33-1.15h0c0,.45.06,1.18.06,2.2v7.5h-1.27V111.7h1.74l3.43,7.81a9.72,9.72,0,0,1,.52,1.34h.05c.22-.61.4-1.07.54-1.37l3.5-7.78h1.64Z"/><path class="cls-19" d="M133.19,122.43a6.56,6.56,0,0,1-3.1.66,5,5,0,0,1-3.83-1.54,5.69,5.69,0,0,1-1.43-4,6,6,0,0,1,1.61-4.35,5.51,5.51,0,0,1,4.1-1.65,6.56,6.56,0,0,1,2.65.46v1.4a5.36,5.36,0,0,0-2.66-.67A4.06,4.06,0,0,0,127.4,114a4.86,4.86,0,0,0-1.2,3.45,4.61,4.61,0,0,0,1.12,3.26,3.82,3.82,0,0,0,2.94,1.22,5.55,5.55,0,0,0,2.93-.75Z"/><path class="cls-19" d="M137.15,117.31a2.35,2.35,0,0,1-1.84-.76,2.92,2.92,0,0,1-.69-2,3.14,3.14,0,0,1,.73-2.2,2.53,2.53,0,0,1,2-.8,2.35,2.35,0,0,1,1.86.75,3,3,0,0,1,.66,2.08,3.07,3.07,0,0,1-.74,2.15A2.5,2.5,0,0,1,137.15,117.31Zm.11-4.93a1.43,1.43,0,0,0-1.17.55,2.39,2.39,0,0,0-.43,1.52,2.3,2.3,0,0,0,.42,1.47,1.41,1.41,0,0,0,1.15.53,1.38,1.38,0,0,0,1.15-.55,2.45,2.45,0,0,0,.41-1.52,2.3,2.3,0,0,0-.41-1.47A1.34,1.34,0,0,0,137.26,112.38Zm7.39-.68L137.47,123h-1.12l7.18-11.28Zm-.82,11.37a2.33,2.33,0,0,1-1.85-.77,2.9,2.9,0,0,1-.69-2,3.16,3.16,0,0,1,.74-2.2,2.53,2.53,0,0,1,1.95-.8,2.34,2.34,0,0,1,1.85.75,3,3,0,0,1,.67,2.1,3.06,3.06,0,0,1-.74,2.14A2.49,2.49,0,0,1,143.83,123.07Zm.11-4.92a1.4,1.4,0,0,0-1.18.55,2.42,2.42,0,0,0-.43,1.51,2.23,2.23,0,0,0,.43,1.46,1.39,1.39,0,0,0,1.14.53,1.35,1.35,0,0,0,1.15-.56,2.42,2.42,0,0,0,.42-1.51,2.36,2.36,0,0,0-.41-1.47A1.37,1.37,0,0,0,143.94,118.15Z"/><path class="cls-19" d="M122.61,145.47h-1.3V138c0-.6,0-1.32.11-2.18h0a7.46,7.46,0,0,1-.34,1.08l-3.83,8.61h-.64l-3.82-8.55a6.35,6.35,0,0,1-.33-1.14h0c0,.44.06,1.18.06,2.19v7.5h-1.27v-11.2h1.74l3.43,7.81a10.24,10.24,0,0,1,.52,1.34h.05c.22-.61.4-1.07.54-1.37l3.5-7.78h1.64Z"/><path class="cls-19" d="M133.18,145a6.49,6.49,0,0,1-3.09.66,5,5,0,0,1-3.83-1.54,5.67,5.67,0,0,1-1.43-4,5.93,5.93,0,0,1,1.61-4.34,5.48,5.48,0,0,1,4.1-1.66,6.48,6.48,0,0,1,2.64.46v1.4a5.3,5.3,0,0,0-2.65-.67,4.07,4.07,0,0,0-3.13,1.29,4.85,4.85,0,0,0-1.2,3.44,4.58,4.58,0,0,0,1.12,3.26,3.82,3.82,0,0,0,2.94,1.22,5.49,5.49,0,0,0,2.92-.75Z"/><path class="cls-19" d="M40.09,134.9h-1.3v-7.52c0-.59,0-1.32.11-2.18h0a7.28,7.28,0,0,1-.34,1.09L34.7,134.9h-.64l-3.82-8.55a6.25,6.25,0,0,1-.33-1.15h0c0,.45.06,1.18.06,2.2v7.5H28.67V123.7h1.74l3.43,7.81a10.24,10.24,0,0,1,.52,1.34h0c.22-.61.4-1.07.54-1.37l3.5-7.78h1.64Z"/><path class="cls-19" d="M48.59,134.9H47.31v-1.25h0a2.69,2.69,0,0,1-2.46,1.44,2.59,2.59,0,0,1-1.87-.64,2.19,2.19,0,0,1-.68-1.68q0-2.24,2.64-2.61l2.4-.33q0-2-1.65-2a4,4,0,0,0-2.61,1v-1.31a5,5,0,0,1,2.72-.75c1.88,0,2.82,1,2.82,3Zm-1.28-4.05-1.93.27a3.09,3.09,0,0,0-1.34.44,1.27,1.27,0,0,0-.45,1.12,1.25,1.25,0,0,0,.41,1,1.66,1.66,0,0,0,1.12.37,2,2,0,0,0,1.57-.67,2.35,2.35,0,0,0,.62-1.69Z"/><path class="cls-19" d="M55.18,128.2a1.52,1.52,0,0,0-1-.26,1.64,1.64,0,0,0-1.37.77,3.57,3.57,0,0,0-.55,2.11v4.08H51v-8h1.28v1.65h0a2.74,2.74,0,0,1,.84-1.32,1.91,1.91,0,0,1,1.25-.47,2,2,0,0,1,.77.11Z"/><path class="cls-19" d="M63.19,134.26c0,2.94-1.41,4.4-4.22,4.4a5.56,5.56,0,0,1-2.59-.56v-1.28a5.32,5.32,0,0,0,2.57.75q3,0,3-3.14v-.87h0a3.24,3.24,0,0,1-5.16.46,4.3,4.3,0,0,1-.91-2.86,5,5,0,0,1,1-3.25,3.29,3.29,0,0,1,2.69-1.2,2.62,2.62,0,0,1,2.4,1.3h0V126.9h1.28Zm-1.28-3V130.1a2.29,2.29,0,0,0-.65-1.63,2.12,2.12,0,0,0-1.6-.68,2.22,2.22,0,0,0-1.86.86,3.85,3.85,0,0,0-.68,2.42,3.33,3.33,0,0,0,.65,2.14,2.1,2.1,0,0,0,1.71.8,2.22,2.22,0,0,0,1.75-.77A2.85,2.85,0,0,0,61.91,131.28Z"/><path class="cls-19" d="M72.21,131.22H66.56a3,3,0,0,0,.72,2.06,2.46,2.46,0,0,0,1.89.73,4,4,0,0,0,2.49-.89v1.2a4.68,4.68,0,0,1-2.79.77A3.42,3.42,0,0,1,66.2,134a4.5,4.5,0,0,1-1-3.07,4.4,4.4,0,0,1,1.06-3,3.4,3.4,0,0,1,2.63-1.18,3,3,0,0,1,2.43,1,4.22,4.22,0,0,1,.86,2.82Zm-1.31-1.09a2.62,2.62,0,0,0-.54-1.72,1.82,1.82,0,0,0-1.46-.62,2.07,2.07,0,0,0-1.54.65,3,3,0,0,0-.78,1.69Z"/><path class="cls-19" d="M85.51,134.9H84.23v-4.59a3.53,3.53,0,0,0-.41-1.93,1.58,1.58,0,0,0-1.38-.59,1.72,1.72,0,0,0-1.4.75,2.89,2.89,0,0,0-.57,1.8v4.56H79.19v-4.75c0-1.57-.61-2.36-1.82-2.36a1.68,1.68,0,0,0-1.39.71,2.88,2.88,0,0,0-.55,1.84v4.56H74.15v-8h1.28v1.26h0A2.74,2.74,0,0,1,78,126.71a2.31,2.31,0,0,1,1.43.46,2.28,2.28,0,0,1,.83,1.2,2.85,2.85,0,0,1,2.66-1.66c1.76,0,2.64,1.09,2.64,3.26Z"/></g></svg>