<svg xmlns="http://www.w3.org/2000/svg" xmlns:xlink="http://www.w3.org/1999/xlink" viewBox="0 0 1320 312"><defs><style>.cls-1{fill:#5a75a3;}.cls-2{fill:url(#Gradiente_sem_nome_2);}.cls-3{fill:#d9ac5e;}.cls-4{fill:#55ae9f;}.cls-5{fill:#cc6a69;}.cls-6{fill:none;stroke-width:2px;opacity:0.5;}.cls-19,.cls-6{stroke:#fff;}.cls-19,.cls-20,.cls-6{stroke-miterlimit:10;}.cls-7{fill:#404952;}.cls-8{fill:url(#Gradiente_sem_nome_6);}.cls-9{fill:#5c574f;}.cls-10{fill:#4e615d;}.cls-11{fill:url(#Gradiente_sem_nome_6-2);}.cls-12{fill:url(#Gradiente_sem_nome_6-3);}.cls-13{fill:url(#Gradiente_sem_nome_6-4);}.cls-14{fill:url(#Gradiente_sem_nome_6-5);}.cls-15{fill:url(#Gradiente_sem_nome_6-6);}.cls-16{fill:url(#Gradiente_sem_nome_6-7);}.cls-17{fill:#624b4a;}.cls-18{fill:#d7e4e3;}.cls-19{fill:#fff;}.cls-19,.cls-20{stroke-width:0.4px;}.cls-20{fill:#556464;stroke:#556464;}</style><linearGradient id="Gradiente_sem_nome_2" x1="604.5" y1="291" x2="604.5" y2="267" gradientUnits="userSpaceOnUse"><stop offset="0.3" stop-color="#55ae9f"/><stop offset="0.7" stop-color="#5a75a3"/></linearGradient><linearGradient id="Gradiente_sem_nome_6" x1="222" y1="297" x2="222" y2="261" gradientUnits="userSpaceOnUse"><stop offset="0" stop-color="#4e615d"/><stop offset="1" stop-color="#404952"/></linearGradient><linearGradient id="Gradiente_sem_nome_6-2" x1="334" x2="334" xlink:href="#Gradiente_sem_nome_6"/><linearGradient id="Gradiente_sem_nome_6-3" x1="446" x2="446" xlink:href="#Gradiente_sem_nome_6"/><linearGradient id="Gradiente_sem_nome_6-4" x1="558" x2="558" xlink:href="#Gradiente_sem_nome_6"/><linearGradient id="Gradiente_sem_nome_6-5" x1="730" x2="730" xlink:href="#Gradiente_sem_nome_6"/><linearGradient id="Gradiente_sem_nome_6-6" x1="962" x2="962" xlink:href="#Gradiente_sem_nome_6"/><linearGradient id="Gradiente_sem_nome_6-7" x1="1194" x2="1194" xlink:href="#Gradiente_sem_nome_6"/></defs><g id="barras"><path class="cls-1" d="M27,58H1194a0,0,0,0,1,0,0V82a0,0,0,0,1,0,0H27A12,12,0,0,1,15,70v0A12,12,0,0,1,27,58Z"/><path class="cls-2" d="M27,267H1194a0,0,0,0,1,0,0v24a0,0,0,0,1,0,0H27a12,12,0,0,1-12-12v0A12,12,0,0,1,27,267Z"/><path class="cls-3" d="M27,177H1194a0,0,0,0,1,0,0v24a0,0,0,0,1,0,0H27a12,12,0,0,1-12-12v0a12,12,0,0,1,12-12Z"/><path class="cls-4" d="M27,222H1194a0,0,0,0,1,0,0v24a0,0,0,0,1,0,0H27a12,12,0,0,1-12-12v0a12,12,0,0,1,12-12Z"/><path class="cls-5" d="M27,103a12,12,0,0,0-12,12v29a12,12,0,0,0,12,12H1194V103Z"/><path class="cls-6" d="M104.41,140.94H100a8,8,0,0,1-8-8v-6.88a8,8,0,0,1,8-8h4.4"/></g><g id="caixas"><path class="cls-7" d="M261,52H183a12,12,0,0,0-12,12V76a12,12,0,0,0,12,12h78a12,12,0,0,0,12-12V64A12,12,0,0,0,261,52ZM187,80a2,2,0,0,1-2,2,8,8,0,0,1-8-8V66a8,8,0,0,1,8-8,2,2,0,0,1,2,2Z"/><path class="cls-8" d="M261,261H183a12,12,0,0,0-12,12v12a12,12,0,0,0,12,12h78a12,12,0,0,0,12-12V273A12,12,0,0,0,261,261Zm-74,28a2,2,0,0,1-2,2,8,8,0,0,1-8-8v-8a8,8,0,0,1,8-8,2,2,0,0,1,2,2Z"/><path class="cls-9" d="M261,171H183a12,12,0,0,0-12,12v12a12,12,0,0,0,12,12h78a12,12,0,0,0,12-12V183A12,12,0,0,0,261,171Zm-74,28a2,2,0,0,1-2,2,8,8,0,0,1-8-8v-8a8,8,0,0,1,8-8,2,2,0,0,1,2,2Z"/><path class="cls-10" d="M261,216H183a12,12,0,0,0-12,12v12a12,12,0,0,0,12,12h78a12,12,0,0,0,12-12V228A12,12,0,0,0,261,216Zm-74,28a2,2,0,0,1-2,2,8,8,0,0,1-8-8v-8a8,8,0,0,1,8-8,2,2,0,0,1,2,2Z"/><path class="cls-7" d="M373,52H295a12,12,0,0,0-12,12V76a12,12,0,0,0,12,12h78a12,12,0,0,0,12-12V64A12,12,0,0,0,373,52ZM299,80a2,2,0,0,1-2,2,8,8,0,0,1-8-8V66a8,8,0,0,1,8-8,2,2,0,0,1,2,2Z"/><path class="cls-11" d="M373,261H295a12,12,0,0,0-12,12v12a12,12,0,0,0,12,12h78a12,12,0,0,0,12-12V273A12,12,0,0,0,373,261Zm-74,28a2,2,0,0,1-2,2,8,8,0,0,1-8-8v-8a8,8,0,0,1,8-8,2,2,0,0,1,2,2Z"/><path class="cls-9" d="M373,171H295a12,12,0,0,0-12,12v12a12,12,0,0,0,12,12h78a12,12,0,0,0,12-12V183A12,12,0,0,0,373,171Zm-74,28a2,2,0,0,1-2,2,8,8,0,0,1-8-8v-8a8,8,0,0,1,8-8,2,2,0,0,1,2,2Z"/><path class="cls-10" d="M373,216H295a12,12,0,0,0-12,12v12a12,12,0,0,0,12,12h78a12,12,0,0,0,12-12V228A12,12,0,0,0,373,216Zm-74,28a2,2,0,0,1-2,2,8,8,0,0,1-8-8v-8a8,8,0,0,1,8-8,2,2,0,0,1,2,2Z"/><path class="cls-7" d="M485,52H407a12,12,0,0,0-12,12V76a12,12,0,0,0,12,12h78a12,12,0,0,0,12-12V64A12,12,0,0,0,485,52ZM411,80a2,2,0,0,1-2,2,8,8,0,0,1-8-8V66a8,8,0,0,1,8-8,2,2,0,0,1,2,2Z"/><path class="cls-12" d="M485,261H407a12,12,0,0,0-12,12v12a12,12,0,0,0,12,12h78a12,12,0,0,0,12-12V273A12,12,0,0,0,485,261Zm-74,28a2,2,0,0,1-2,2,8,8,0,0,1-8-8v-8a8,8,0,0,1,8-8,2,2,0,0,1,2,2Z"/><path class="cls-9" d="M485,171H407a12,12,0,0,0-12,12v12a12,12,0,0,0,12,12h78a12,12,0,0,0,12-12V183A12,12,0,0,0,485,171Zm-74,28a2,2,0,0,1-2,2,8,8,0,0,1-8-8v-8a8,8,0,0,1,8-8,2,2,0,0,1,2,2Z"/><path class="cls-10" d="M485,216H407a12,12,0,0,0-12,12v12a12,12,0,0,0,12,12h78a12,12,0,0,0,12-12V228A12,12,0,0,0,485,216Zm-74,28a2,2,0,0,1-2,2,8,8,0,0,1-8-8v-8a8,8,0,0,1,8-8,2,2,0,0,1,2,2Z"/><path class="cls-7" d="M597,52H519a12,12,0,0,0-12,12V76a12,12,0,0,0,12,12h78a12,12,0,0,0,12-12V64A12,12,0,0,0,597,52ZM523,80a2,2,0,0,1-2,2,8,8,0,0,1-8-8V66a8,8,0,0,1,8-8,2,2,0,0,1,2,2Z"/><path class="cls-13" d="M597,261H519a12,12,0,0,0-12,12v12a12,12,0,0,0,12,12h78a12,12,0,0,0,12-12V273A12,12,0,0,0,597,261Zm-74,28a2,2,0,0,1-2,2,8,8,0,0,1-8-8v-8a8,8,0,0,1,8-8,2,2,0,0,1,2,2Z"/><path class="cls-9" d="M597,171H519a12,12,0,0,0-12,12v12a12,12,0,0,0,12,12h78a12,12,0,0,0,12-12V183A12,12,0,0,0,597,171Zm-74,28a2,2,0,0,1-2,2,8,8,0,0,1-8-8v-8a8,8,0,0,1,8-8,2,2,0,0,1,2,2Z"/><path class="cls-10" d="M597,216H519a12,12,0,0,0-12,12v12a12,12,0,0,0,12,12h78a12,12,0,0,0,12-12V228A12,12,0,0,0,597,216Zm-74,28a2,2,0,0,1-2,2,8,8,0,0,1-8-8v-8a8,8,0,0,1,8-8,2,2,0,0,1,2,2Z"/><path class="cls-7" d="M829,52H631a12,12,0,0,0-12,12V76a12,12,0,0,0,12,12H829a12,12,0,0,0,12-12V64A12,12,0,0,0,829,52ZM635,80a2,2,0,0,1-2,2,8,8,0,0,1-8-8V66a8,8,0,0,1,8-8,2,2,0,0,1,2,2Z"/><path class="cls-14" d="M829,261H631a12,12,0,0,0-12,12v12a12,12,0,0,0,12,12H829a12,12,0,0,0,12-12V273A12,12,0,0,0,829,261ZM635,289a2,2,0,0,1-2,2,8,8,0,0,1-8-8v-8a8,8,0,0,1,8-8,2,2,0,0,1,2,2Z"/><path class="cls-9" d="M829,171H631a12,12,0,0,0-12,12v12a12,12,0,0,0,12,12H829a12,12,0,0,0,12-12V183A12,12,0,0,0,829,171ZM635,199a2,2,0,0,1-2,2,8,8,0,0,1-8-8v-8a8,8,0,0,1,8-8,2,2,0,0,1,2,2Z"/><path class="cls-10" d="M829,216H631a12,12,0,0,0-12,12v12a12,12,0,0,0,12,12H829a12,12,0,0,0,12-12V228A12,12,0,0,0,829,216ZM635,244a2,2,0,0,1-2,2,8,8,0,0,1-8-8v-8a8,8,0,0,1,8-8,2,2,0,0,1,2,2Z"/><path class="cls-7" d="M1061,52H863a12,12,0,0,0-12,12V76a12,12,0,0,0,12,12h198a12,12,0,0,0,12-12V64A12,12,0,0,0,1061,52ZM867,80a2,2,0,0,1-2,2,8,8,0,0,1-8-8V66a8,8,0,0,1,8-8,2,2,0,0,1,2,2Z"/><path class="cls-15" d="M1061,261H863a12,12,0,0,0-12,12v12a12,12,0,0,0,12,12h198a12,12,0,0,0,12-12V273A12,12,0,0,0,1061,261ZM867,289a2,2,0,0,1-2,2,8,8,0,0,1-8-8v-8a8,8,0,0,1,8-8,2,2,0,0,1,2,2Z"/><path class="cls-9" d="M1061,171H863a12,12,0,0,0-12,12v12a12,12,0,0,0,12,12h198a12,12,0,0,0,12-12V183A12,12,0,0,0,1061,171ZM867,199a2,2,0,0,1-2,2,8,8,0,0,1-8-8v-8a8,8,0,0,1,8-8,2,2,0,0,1,2,2Z"/><path class="cls-10" d="M1061,216H863a12,12,0,0,0-12,12v12a12,12,0,0,0,12,12h198a12,12,0,0,0,12-12V228A12,12,0,0,0,1061,216ZM867,244a2,2,0,0,1-2,2,8,8,0,0,1-8-8v-8a8,8,0,0,1,8-8,2,2,0,0,1,2,2Z"/><path class="cls-7" d="M1293,52H1095a12,12,0,0,0-12,12V76a12,12,0,0,0,12,12h198a12,12,0,0,0,12-12V64A12,12,0,0,0,1293,52ZM1099,80a2,2,0,0,1-2,2,8,8,0,0,1-8-8V66a8,8,0,0,1,8-8,2,2,0,0,1,2,2Z"/><path class="cls-16" d="M1293,261H1095a12,12,0,0,0-12,12v12a12,12,0,0,0,12,12h198a12,12,0,0,0,12-12V273A12,12,0,0,0,1293,261Zm-194,28a2,2,0,0,1-2,2,8,8,0,0,1-8-8v-8a8,8,0,0,1,8-8,2,2,0,0,1,2,2Z"/><path class="cls-9" d="M1293,171H1095a12,12,0,0,0-12,12v12a12,12,0,0,0,12,12h198a12,12,0,0,0,12-12V183A12,12,0,0,0,1293,171Zm-194,28a2,2,0,0,1-2,2,8,8,0,0,1-8-8v-8a8,8,0,0,1,8-8,2,2,0,0,1,2,2Z"/><path class="cls-10" d="M1293,216H1095a12,12,0,0,0-12,12v12a12,12,0,0,0,12,12h198a12,12,0,0,0,12-12V228A12,12,0,0,0,1293,216Zm-194,28a2,2,0,0,1-2,2,8,8,0,0,1-8-8v-8a8,8,0,0,1,8-8,2,2,0,0,1,2,2Z"/><path class="cls-17" d="M171,150a12,12,0,0,0,12,12h78a12,12,0,0,0,12-12V109a12,12,0,0,0-12-12H183a12,12,0,0,0-12,12Zm16-8.6V154a2,2,0,0,1-2,2,8,8,0,0,1-8-8V134a2,2,0,0,1,2-2h6a1.5,1.5,0,0,1,.37,0l.13,0,.21.07.15.06.15.08.17.11.08.07A2,2,0,0,1,187,134Zm0-23.8V125a2,2,0,0,1-.74,1.54l-.08.07-.17.11-.15.08-.15.06-.21.07-.13,0a1.5,1.5,0,0,1-.37,0h-6a2,2,0,0,1-2-2V111a8,8,0,0,1,8-8,2,2,0,0,1,2,2Z"/><path class="cls-17" d="M283,150a12,12,0,0,0,12,12h78a12,12,0,0,0,12-12V109a12,12,0,0,0-12-12H295a12,12,0,0,0-12,12Zm16-8.6V154a2,2,0,0,1-2,2,8,8,0,0,1-8-8V134a2,2,0,0,1,2-2h6a1.5,1.5,0,0,1,.37,0l.13,0,.21.07.15.06.15.08.17.11.08.07A2,2,0,0,1,299,134Zm0-23.8V125a2,2,0,0,1-.74,1.54l-.08.07-.17.11-.15.08-.15.06-.21.07-.13,0a1.5,1.5,0,0,1-.37,0h-6a2,2,0,0,1-2-2V111a8,8,0,0,1,8-8,2,2,0,0,1,2,2Z"/><path class="cls-17" d="M395,150a12,12,0,0,0,12,12h78a12,12,0,0,0,12-12V109a12,12,0,0,0-12-12H407a12,12,0,0,0-12,12Zm16-8.6V154a2,2,0,0,1-2,2,8,8,0,0,1-8-8V134a2,2,0,0,1,2-2h6a1.5,1.5,0,0,1,.37,0l.13,0,.21.07.15.06.15.08.17.11.08.07A2,2,0,0,1,411,134Zm0-23.8V125a2,2,0,0,1-.74,1.54l-.08.07-.17.11-.15.08-.15.06-.21.07-.13,0a1.5,1.5,0,0,1-.37,0h-6a2,2,0,0,1-2-2V111a8,8,0,0,1,8-8,2,2,0,0,1,2,2Z"/><path class="cls-17" d="M507,150a12,12,0,0,0,12,12h78a12,12,0,0,0,12-12V109a12,12,0,0,0-12-12H519a12,12,0,0,0-12,12Zm16-8.6V154a2,2,0,0,1-2,2,8,8,0,0,1-8-8V134a2,2,0,0,1,2-2h6a1.5,1.5,0,0,1,.37,0l.13,0,.21.07.15.06.15.08.17.11.08.07A2,2,0,0,1,523,134Zm0-23.8V125a2,2,0,0,1-.74,1.54l-.08.07-.17.11-.15.08-.15.06-.21.07-.13,0a1.5,1.5,0,0,1-.37,0h-6a2,2,0,0,1-2-2V111a8,8,0,0,1,8-8,2,2,0,0,1,2,2Z"/><path class="cls-17" d="M619,150a12,12,0,0,0,12,12H829a12,12,0,0,0,12-12V109a12,12,0,0,0-12-12H631a12,12,0,0,0-12,12Zm16-8.6V154a2,2,0,0,1-2,2,8,8,0,0,1-8-8V134a2,2,0,0,1,2-2h6a1.5,1.5,0,0,1,.37,0l.13,0,.21.07.15.06.15.08.17.11.08.07A2,2,0,0,1,635,134Zm0-23.8V125a2,2,0,0,1-.74,1.54l-.08.07-.17.11-.15.08-.15.06-.21.07-.13,0a1.5,1.5,0,0,1-.37,0h-6a2,2,0,0,1-2-2V111a8,8,0,0,1,8-8,2,2,0,0,1,2,2Z"/><path class="cls-17" d="M851,150a12,12,0,0,0,12,12h198a12,12,0,0,0,12-12V109a12,12,0,0,0-12-12H863a12,12,0,0,0-12,12Zm16-8.6V154a2,2,0,0,1-2,2,8,8,0,0,1-8-8V134a2,2,0,0,1,2-2h6a1.5,1.5,0,0,1,.37,0l.13,0,.21.07.15.06.15.08.17.11.08.07A2,2,0,0,1,867,134Zm0-23.8V125a2,2,0,0,1-.74,1.54l-.08.07-.17.11-.15.08-.15.06-.21.07-.13,0a1.5,1.5,0,0,1-.37,0h-6a2,2,0,0,1-2-2V111a8,8,0,0,1,8-8,2,2,0,0,1,2,2Z"/><path class="cls-17" d="M1083,150a12,12,0,0,0,12,12h198a12,12,0,0,0,12-12V109a12,12,0,0,0-12-12H1095a12,12,0,0,0-12,12Zm16-8.6V154a2,2,0,0,1-2,2,8,8,0,0,1-8-8V134a2,2,0,0,1,2-2h6a1.5,1.5,0,0,1,.37,0l.13,0,.21.07.15.06.15.08.17.11.08.07A2,2,0,0,1,1099,134Zm0-23.8V125a2,2,0,0,1-.74,1.54l-.08.07-.17.11-.15.08-.15.06-.21.07-.13,0a1.5,1.5,0,0,1-.37,0h-6a2,2,0,0,1-2-2V111a8,8,0,0,1,8-8,2,2,0,0,1,2,2Z"/><rect class="cls-18" x="171" y="15" width="102" height="28" rx="12"/><rect class="cls-18" x="395" y="15" width="102" height="28" rx="12"/><rect class="cls-18" x="283" y="15" width="102" height="28" rx="12"/><rect class="cls-18" x="507" y="15" width="102" height="28" rx="12"/><rect class="cls-18" x="619" y="15" width="222" height="28" rx="12"/><rect class="cls-18" x="851" y="15" width="222" height="28" rx="12"/><rect class="cls-18" x="1083" y="15" width="222" height="28" rx="12"/></g><g id="txt"><path class="cls-19" d="M36.3,239.18a6.56,6.56,0,0,1-3.1.66,5,5,0,0,1-3.82-1.54,5.69,5.69,0,0,1-1.44-4,6,6,0,0,1,1.61-4.35,5.52,5.52,0,0,1,4.11-1.65,6.54,6.54,0,0,1,2.64.46v1.4a5.36,5.36,0,0,0-2.66-.67,4.1,4.1,0,0,0-3.13,1.28,4.86,4.86,0,0,0-1.2,3.45,4.66,4.66,0,0,0,1.12,3.26,3.83,3.83,0,0,0,3,1.22,5.54,5.54,0,0,0,2.92-.75Z"/><path class="cls-19" d="M44.88,239.65H43.59v-1.27h0a2.63,2.63,0,0,1-2.47,1.46c-1.9,0-2.86-1.14-2.86-3.41v-4.78h1.28v4.58c0,1.68.64,2.53,1.94,2.53a2,2,0,0,0,1.54-.69,2.67,2.67,0,0,0,.6-1.81v-4.61h1.29Z"/><path class="cls-19" d="M47,239.36V238a3.74,3.74,0,0,0,2.3.78c1.13,0,1.69-.38,1.69-1.13a1,1,0,0,0-.15-.54,1.21,1.21,0,0,0-.39-.39,2.56,2.56,0,0,0-.57-.31l-.72-.29q-.53-.21-.93-.42a2.77,2.77,0,0,1-.67-.49,1.77,1.77,0,0,1-.41-.61,2.21,2.21,0,0,1-.14-.81,1.92,1.92,0,0,1,.26-1,2.28,2.28,0,0,1,.69-.73,3.25,3.25,0,0,1,1-.44,4.28,4.28,0,0,1,1.13-.15,4.54,4.54,0,0,1,1.86.36v1.3a3.56,3.56,0,0,0-2-.58,2.63,2.63,0,0,0-.65.08,1.71,1.71,0,0,0-.49.23,1,1,0,0,0-.32.36.89.89,0,0,0-.12.45,1.07,1.07,0,0,0,.12.53,1,1,0,0,0,.33.37,2.63,2.63,0,0,0,.53.3l.71.29a7.89,7.89,0,0,1,1,.42,2.94,2.94,0,0,1,.71.48,2,2,0,0,1,.46.62,2,2,0,0,1,.16.84,2,2,0,0,1-.26,1,2.43,2.43,0,0,1-.7.73,3.42,3.42,0,0,1-1,.43,5.17,5.17,0,0,1-1.19.14A4.48,4.48,0,0,1,47,239.36Z"/><path class="cls-19" d="M58,239.57a2.42,2.42,0,0,1-1.19.25c-1.41,0-2.11-.78-2.11-2.34v-4.74H53.29v-1.09h1.37v-2l1.29-.42v2.37h2v1.09H56v4.51a1.89,1.89,0,0,0,.27,1.15,1.07,1.07,0,0,0,.9.34,1.38,1.38,0,0,0,.84-.26Z"/><path class="cls-19" d="M62.89,239.84a3.7,3.7,0,0,1-2.83-1.13,4.11,4.11,0,0,1-1.06-3,4.36,4.36,0,0,1,1.1-3.15,4,4,0,0,1,3-1.13,3.6,3.6,0,0,1,2.79,1.1,4.39,4.39,0,0,1,1,3.06,4.29,4.29,0,0,1-1.09,3.06A3.79,3.79,0,0,1,62.89,239.84Zm.09-7.3a2.44,2.44,0,0,0-1.95.84,3.45,3.45,0,0,0-.72,2.32,3.25,3.25,0,0,0,.73,2.24,2.48,2.48,0,0,0,1.94.82,2.33,2.33,0,0,0,1.91-.81,3.46,3.46,0,0,0,.67-2.29,3.52,3.52,0,0,0-.67-2.31A2.33,2.33,0,0,0,63,232.54Z"/><path class="cls-19" d="M80.28,239.65H79v-4.6a3.51,3.51,0,0,0-.41-1.92,1.56,1.56,0,0,0-1.38-.59,1.69,1.69,0,0,0-1.39.75,2.84,2.84,0,0,0-.58,1.8v4.56H74V234.9c0-1.57-.61-2.36-1.82-2.36a1.66,1.66,0,0,0-1.39.71,2.94,2.94,0,0,0-.55,1.84v4.56H68.92v-8H70.2v1.26h0a2.74,2.74,0,0,1,2.49-1.45A2.3,2.3,0,0,1,75,233.12a2.86,2.86,0,0,1,2.66-1.66c1.76,0,2.64,1.09,2.64,3.26Z"/><path class="cls-19" d="M89.13,236H83.48A3,3,0,0,0,84.2,238a2.46,2.46,0,0,0,1.89.73,4,4,0,0,0,2.49-.89v1.2a4.64,4.64,0,0,1-2.79.77,3.42,3.42,0,0,1-2.67-1.09,4.5,4.5,0,0,1-1-3.07,4.39,4.39,0,0,1,1-3,3.4,3.4,0,0,1,2.63-1.18,3,3,0,0,1,2.43,1,4.17,4.17,0,0,1,.86,2.82Zm-1.31-1.09a2.62,2.62,0,0,0-.53-1.72,1.85,1.85,0,0,0-1.47-.62,2.09,2.09,0,0,0-1.54.65,3,3,0,0,0-.78,1.69Z"/><path class="cls-19" d="M95.24,233a1.5,1.5,0,0,0-1-.26,1.66,1.66,0,0,0-1.37.77,3.64,3.64,0,0,0-.55,2.11v4.08H91.07v-8h1.28v1.65h0a2.74,2.74,0,0,1,.84-1.32,1.91,1.91,0,0,1,1.26-.47,1.94,1.94,0,0,1,.76.11Z"/><path class="cls-20" d="M200.83,23.4v1.12h-1.09v9h1.09V34.6h-3.5V33.48h1.1v-9h-1.1V23.4Z"/><path class="cls-20" d="M209.15,34.6h-1.28V30q0-2.55-1.86-2.55a2,2,0,0,0-1.59.72,2.7,2.7,0,0,0-.63,1.83V34.6h-1.28v-8h1.28v1.33h0a2.88,2.88,0,0,1,2.62-1.52,2.47,2.47,0,0,1,2,.85,3.8,3.8,0,0,1,.69,2.45Z"/><path class="cls-20" d="M217.86,26.6l-3.19,8h-1.26l-3-8h1.41l2,5.81a5.52,5.52,0,0,1,.28,1.12h0a5.36,5.36,0,0,1,.25-1.08l2.13-5.85Z"/><path class="cls-20" d="M222.48,34.79a3.71,3.71,0,0,1-2.83-1.12,4.14,4.14,0,0,1-1.06-3,4.33,4.33,0,0,1,1.1-3.15,4,4,0,0,1,3-1.14,3.57,3.57,0,0,1,2.79,1.11,4.35,4.35,0,0,1,1,3.05,4.27,4.27,0,0,1-1.09,3.07A3.77,3.77,0,0,1,222.48,34.79Zm.1-7.3a2.44,2.44,0,0,0-2,.84,3.45,3.45,0,0,0-.72,2.32,3.28,3.28,0,0,0,.73,2.24,2.45,2.45,0,0,0,2,.82,2.38,2.38,0,0,0,1.91-.8,3.53,3.53,0,0,0,.66-2.29,3.62,3.62,0,0,0-.66-2.32A2.35,2.35,0,0,0,222.58,27.49Z"/><path class="cls-20" d="M229.17,24.57a.84.84,0,0,1-.59-.23.87.87,0,0,1,0-1.2.84.84,0,0,1,.59-.23.88.88,0,0,1,.6.23.86.86,0,0,1,0,1.19A.85.85,0,0,1,229.17,24.57Zm.62,10h-1.28v-8h1.28Z"/><path class="cls-20" d="M237.84,34.23a4.15,4.15,0,0,1-2.19.56,3.62,3.62,0,0,1-2.76-1.11,4.06,4.06,0,0,1-1-2.89A4.46,4.46,0,0,1,233,27.61a4,4,0,0,1,3-1.2,4.24,4.24,0,0,1,1.86.39v1.32a3.26,3.26,0,0,0-1.91-.63,2.58,2.58,0,0,0-2,.88,3.37,3.37,0,0,0-.79,2.31,3.18,3.18,0,0,0,.74,2.22,2.54,2.54,0,0,0,2,.81,3.22,3.22,0,0,0,2-.69Z"/><path class="cls-20" d="M246.21,30.92h-5.65a3,3,0,0,0,.72,2.06,2.46,2.46,0,0,0,1.89.73,3.93,3.93,0,0,0,2.48-.89V34a4.64,4.64,0,0,1-2.79.77,3.37,3.37,0,0,1-2.66-1.09,4.45,4.45,0,0,1-1-3.07,4.35,4.35,0,0,1,1.06-3,3.41,3.41,0,0,1,2.63-1.18,3,3,0,0,1,2.43,1,4.26,4.26,0,0,1,.86,2.82Zm-1.31-1.08a2.65,2.65,0,0,0-.54-1.73,1.82,1.82,0,0,0-1.46-.62,2.07,2.07,0,0,0-1.54.65,2.9,2.9,0,0,0-.78,1.7Z"/><path class="cls-20" d="M319.51,34.79a4.9,4.9,0,0,1-3.82-1.57,5.81,5.81,0,0,1-1.43-4.09,6.13,6.13,0,0,1,1.46-4.31,5.1,5.1,0,0,1,4-1.61,4.8,4.8,0,0,1,3.74,1.56,5.85,5.85,0,0,1,1.42,4.09,6.2,6.2,0,0,1-1.45,4.34A5,5,0,0,1,319.51,34.79Zm.09-10.39a3.62,3.62,0,0,0-2.87,1.27,5,5,0,0,0-1.1,3.35,4.94,4.94,0,0,0,1.08,3.33,3.48,3.48,0,0,0,2.8,1.26,3.68,3.68,0,0,0,2.9-1.2A4.93,4.93,0,0,0,323.47,29a5.13,5.13,0,0,0-1-3.43A3.51,3.51,0,0,0,319.6,24.4Z"/><path class="cls-20" d="M331.05,27.9a1.56,1.56,0,0,0-1-.26,1.66,1.66,0,0,0-1.37.77,3.64,3.64,0,0,0-.55,2.11V34.6h-1.28v-8h1.28v1.65h0a2.87,2.87,0,0,1,.84-1.32,1.91,1.91,0,0,1,1.26-.47,2.11,2.11,0,0,1,.76.11Z"/><path class="cls-20" d="M339.06,34.6h-1.28V33.24h0a3.22,3.22,0,0,1-5.16.47,4.39,4.39,0,0,1-.9-2.92,4.79,4.79,0,0,1,1-3.18,3.27,3.27,0,0,1,2.66-1.2,2.58,2.58,0,0,1,2.4,1.3h0V22.76h1.28ZM337.78,31V29.8a2.29,2.29,0,0,0-.64-1.64,2.19,2.19,0,0,0-1.63-.67,2.22,2.22,0,0,0-1.84.86,3.76,3.76,0,0,0-.67,2.38,3.37,3.37,0,0,0,.64,2.18,2.12,2.12,0,0,0,1.73.8,2.19,2.19,0,0,0,1.74-.77A2.88,2.88,0,0,0,337.78,31Z"/><path class="cls-20" d="M348.08,30.92h-5.64a3,3,0,0,0,.71,2.06,2.46,2.46,0,0,0,1.89.73,4,4,0,0,0,2.49-.89V34a4.64,4.64,0,0,1-2.79.77,3.35,3.35,0,0,1-2.66-1.09,4.45,4.45,0,0,1-1-3.07,4.35,4.35,0,0,1,1.06-3,3.39,3.39,0,0,1,2.62-1.18,3,3,0,0,1,2.43,1,4.21,4.21,0,0,1,.86,2.82Zm-1.31-1.08a2.59,2.59,0,0,0-.53-1.73,1.85,1.85,0,0,0-1.47-.62,2.09,2.09,0,0,0-1.54.65,3,3,0,0,0-.78,1.7Z"/><path class="cls-20" d="M354.19,27.9a1.56,1.56,0,0,0-1-.26,1.66,1.66,0,0,0-1.37.77,3.64,3.64,0,0,0-.55,2.11V34.6H350v-8h1.28v1.65h0a2.87,2.87,0,0,1,.84-1.32,1.91,1.91,0,0,1,1.26-.47,2.11,2.11,0,0,1,.76.11Z"/><path class="cls-20" d="M528,23.4v1.12h-1.1v9H528V34.6h-3.5V33.48h1.09v-9h-1.09V23.4Z"/><path class="cls-20" d="M536.34,34.6h-1.28V30q0-2.55-1.86-2.55a2,2,0,0,0-1.59.72A2.7,2.7,0,0,0,531,30V34.6H529.7v-8H531v1.33h0a2.89,2.89,0,0,1,2.63-1.52,2.45,2.45,0,0,1,2,.85,3.75,3.75,0,0,1,.7,2.45Z"/><path class="cls-20" d="M545,26.6l-3.19,8H540.6l-3-8H539l2,5.81a4.93,4.93,0,0,1,.28,1.12h0a4.76,4.76,0,0,1,.25-1.08l2.12-5.85Z"/><path class="cls-20" d="M558.66,30.46H555.5v3.15h-1V30.46h-3.14V29.41h3.14V26.27h1v3.14h3.16Z"/><path class="cls-20" d="M570.82,34.79A4.9,4.9,0,0,1,567,33.22a5.81,5.81,0,0,1-1.43-4.09A6.13,6.13,0,0,1,567,24.82a5.1,5.1,0,0,1,4-1.61,4.8,4.8,0,0,1,3.74,1.56,5.85,5.85,0,0,1,1.42,4.09,6.25,6.25,0,0,1-1.45,4.34A5,5,0,0,1,570.82,34.79Zm.09-10.39A3.62,3.62,0,0,0,568,25.67a5,5,0,0,0-1.1,3.35A5,5,0,0,0,568,32.35a3.52,3.52,0,0,0,2.81,1.26,3.68,3.68,0,0,0,2.9-1.2A4.93,4.93,0,0,0,574.78,29a5.13,5.13,0,0,0-1-3.43A3.51,3.51,0,0,0,570.91,24.4Z"/><path class="cls-20" d="M582.36,27.9a1.56,1.56,0,0,0-1-.26,1.66,1.66,0,0,0-1.37.77,3.64,3.64,0,0,0-.55,2.11V34.6h-1.28v-8h1.28v1.65h0a2.79,2.79,0,0,1,.84-1.32,1.91,1.91,0,0,1,1.26-.47,2.14,2.14,0,0,1,.76.11Z"/><path class="cls-20" d="M590.37,34.6h-1.28V33.24h0a3.22,3.22,0,0,1-5.16.47,4.39,4.39,0,0,1-.9-2.92,4.79,4.79,0,0,1,1-3.18,3.27,3.27,0,0,1,2.66-1.2,2.58,2.58,0,0,1,2.4,1.3h0V22.76h1.28ZM589.09,31V29.8a2.29,2.29,0,0,0-.64-1.64,2.19,2.19,0,0,0-1.63-.67,2.22,2.22,0,0,0-1.84.86,3.76,3.76,0,0,0-.67,2.38,3.37,3.37,0,0,0,.64,2.18,2.12,2.12,0,0,0,1.73.8,2.19,2.19,0,0,0,1.74-.77A2.88,2.88,0,0,0,589.09,31Z"/><path class="cls-20" d="M432.13,34.6h-1.57l-1.87-3.14a7.49,7.49,0,0,0-.5-.75,3,3,0,0,0-.5-.5,1.74,1.74,0,0,0-.54-.28,2.29,2.29,0,0,0-.66-.09h-1.08V34.6H424.1V23.4h3.34a4.79,4.79,0,0,1,1.35.18,2.92,2.92,0,0,1,1.08.56,2.54,2.54,0,0,1,.72.93,3.38,3.38,0,0,1,.08,2.39,2.9,2.9,0,0,1-.5.87,3.29,3.29,0,0,1-.78.65,4.12,4.12,0,0,1-1,.42v0a2.52,2.52,0,0,1,.49.28,2.79,2.79,0,0,1,.39.38c.13.15.25.32.38.5l.41.64Zm-6.72-10v4.06h1.78a2.67,2.67,0,0,0,.91-.15,2,2,0,0,0,.72-.43,1.86,1.86,0,0,0,.48-.68,2.29,2.29,0,0,0,.17-.9,1.75,1.75,0,0,0-.58-1.4,2.48,2.48,0,0,0-1.68-.5Z"/><path class="cls-20" d="M439.48,30.92h-5.65a3,3,0,0,0,.72,2.06,2.46,2.46,0,0,0,1.89.73,3.93,3.93,0,0,0,2.48-.89V34a4.64,4.64,0,0,1-2.79.77,3.37,3.37,0,0,1-2.66-1.09,4.5,4.5,0,0,1-1-3.07,4.35,4.35,0,0,1,1.06-3,3.41,3.41,0,0,1,2.63-1.18,3,3,0,0,1,2.43,1,4.26,4.26,0,0,1,.86,2.82Zm-1.31-1.08a2.65,2.65,0,0,0-.54-1.73,1.82,1.82,0,0,0-1.46-.62,2.07,2.07,0,0,0-1.54.65,2.9,2.9,0,0,0-.78,1.7Z"/><path class="cls-20" d="M445.13,34.52a2.43,2.43,0,0,1-1.2.25q-2.1,0-2.1-2.34V27.7h-1.37V26.6h1.37v-2l1.28-.42V26.6h2v1.1h-2v4.5a1.89,1.89,0,0,0,.27,1.15,1.11,1.11,0,0,0,.91.35,1.36,1.36,0,0,0,.84-.27Z"/><path class="cls-20" d="M453.31,34.6H452V33.34h0a2.63,2.63,0,0,1-2.46,1.45q-2.86,0-2.86-3.41V26.6h1.27v4.58c0,1.69.64,2.53,1.94,2.53a2,2,0,0,0,1.54-.69,2.66,2.66,0,0,0,.61-1.81V26.6h1.28Z"/><path class="cls-20" d="M460.06,27.9a1.55,1.55,0,0,0-1-.26,1.66,1.66,0,0,0-1.38.77,3.64,3.64,0,0,0-.55,2.11V34.6h-1.28v-8h1.28v1.65h0a2.86,2.86,0,0,1,.83-1.32,1.93,1.93,0,0,1,1.26-.47,2.11,2.11,0,0,1,.76.11Z"/><path class="cls-20" d="M468.06,34.6h-1.28V30q0-2.55-1.86-2.55a2,2,0,0,0-1.59.72,2.74,2.74,0,0,0-.62,1.83V34.6h-1.29v-8h1.29v1.33h0a2.89,2.89,0,0,1,2.62-1.52,2.46,2.46,0,0,1,2,.85,3.8,3.8,0,0,1,.69,2.45Z"/><path class="cls-20" d="M676.62,34.6h-5.81V23.4h1.31v10h4.5Z"/><path class="cls-20" d="M684.62,23.4l-3.7,7.06V34.6h-1.31V30.49L676,23.4h1.49L680,28.46q0,.09.27.69h0a5.55,5.55,0,0,1,.3-.69l2.63-5.06Z"/><path class="cls-20" d="M693,23.4v1.12h-1.1v9H693V34.6h-3.5V33.48h1.09v-9h-1.09V23.4Z"/><path class="cls-20" d="M701.29,34.6H700V30q0-2.55-1.86-2.55a2,2,0,0,0-1.59.72,2.7,2.7,0,0,0-.63,1.83V34.6h-1.28v-8h1.28v1.33h0a2.89,2.89,0,0,1,2.62-1.52,2.46,2.46,0,0,1,2,.85,3.75,3.75,0,0,1,.7,2.45Z"/><path class="cls-20" d="M710,26.6l-3.19,8h-1.25l-3-8h1.41l2,5.81a4.93,4.93,0,0,1,.28,1.12h0a6.14,6.14,0,0,1,.25-1.08l2.13-5.85Z"/><path class="cls-20" d="M714.62,34.79a3.71,3.71,0,0,1-2.84-1.12,4.18,4.18,0,0,1-1-3,4.29,4.29,0,0,1,1.1-3.15,3.92,3.92,0,0,1,3-1.14,3.58,3.58,0,0,1,2.8,1.11,4.35,4.35,0,0,1,1,3.05,4.31,4.31,0,0,1-1.08,3.07A3.78,3.78,0,0,1,714.62,34.79Zm.09-7.3a2.44,2.44,0,0,0-2,.84,3.45,3.45,0,0,0-.72,2.32,3.28,3.28,0,0,0,.72,2.24,2.48,2.48,0,0,0,2,.82,2.36,2.36,0,0,0,1.91-.8,3.47,3.47,0,0,0,.67-2.29,3.56,3.56,0,0,0-.67-2.32A2.34,2.34,0,0,0,714.71,27.49Z"/><path class="cls-20" d="M721.3,24.57a.83.83,0,1,1,0-1.66.85.85,0,0,1,.6.23.83.83,0,0,1,0,1.19A.81.81,0,0,1,721.3,24.57Zm.63,10h-1.28v-8h1.28Z"/><path class="cls-20" d="M730,34.23a4.2,4.2,0,0,1-2.19.56A3.62,3.62,0,0,1,725,33.68a4.06,4.06,0,0,1-1-2.89,4.42,4.42,0,0,1,1.13-3.18,4,4,0,0,1,3-1.2,4.21,4.21,0,0,1,1.86.39v1.32a3.24,3.24,0,0,0-1.91-.63,2.61,2.61,0,0,0-2,.88,3.37,3.37,0,0,0-.78,2.31A3.14,3.14,0,0,0,726,32.9a2.54,2.54,0,0,0,2,.81,3.24,3.24,0,0,0,2-.69Z"/><path class="cls-20" d="M738.34,30.92h-5.65a3,3,0,0,0,.72,2.06,2.46,2.46,0,0,0,1.89.73,4,4,0,0,0,2.49-.89V34a4.66,4.66,0,0,1-2.79.77,3.39,3.39,0,0,1-2.67-1.09,4.5,4.5,0,0,1-1-3.07,4.39,4.39,0,0,1,1-3,3.43,3.43,0,0,1,2.63-1.18,3,3,0,0,1,2.43,1,4.21,4.21,0,0,1,.86,2.82ZM737,29.84a2.59,2.59,0,0,0-.53-1.73,1.85,1.85,0,0,0-1.47-.62,2.09,2.09,0,0,0-1.54.65,3,3,0,0,0-.78,1.7Z"/><path class="cls-20" d="M747.59,23.49a10.55,10.55,0,0,0-2,6.55,10.83,10.83,0,0,0,2,6.5h-1.1a10.35,10.35,0,0,1-2.1-6.5,10.61,10.61,0,0,1,2.1-6.55Z"/><path class="cls-20" d="M748.31,33.82l3.76-10h1.59l3.71,10v.8h-9.06Zm7.51-.39-2.2-5.94c-.27-.75-.6-1.71-.8-2.4h0c-.16.55-.45,1.44-.72,2.2l-2.26,6.14Z"/><path class="cls-20" d="M768.56,23.4l-5.37,13.06H762l5.36-13.06Z"/><path class="cls-20" d="M776,29a2.36,2.36,0,0,1-1.85-.77,2.88,2.88,0,0,1-.68-2,3.14,3.14,0,0,1,.72-2.19,2.51,2.51,0,0,1,2-.8A2.34,2.34,0,0,1,778,24a3,3,0,0,1,.66,2.08,3.09,3.09,0,0,1-.74,2.16A2.49,2.49,0,0,1,776,29Zm.11-4.93a1.41,1.41,0,0,0-1.18.55,2.42,2.42,0,0,0-.43,1.51,2.24,2.24,0,0,0,.43,1.47,1.39,1.39,0,0,0,1.14.53,1.34,1.34,0,0,0,1.15-.55,2.42,2.42,0,0,0,.42-1.51,2.39,2.39,0,0,0-.41-1.48A1.35,1.35,0,0,0,776.1,24.09Zm7.39-.69L776.3,34.68h-1.12l7.18-11.28Zm-.83,11.37a2.37,2.37,0,0,1-1.85-.76,3,3,0,0,1-.68-2,3.14,3.14,0,0,1,.73-2.2,2.51,2.51,0,0,1,1.95-.81,2.36,2.36,0,0,1,1.86.75,3.07,3.07,0,0,1,.66,2.1,3,3,0,0,1-.74,2.14A2.48,2.48,0,0,1,782.66,34.77Zm.11-4.92a1.41,1.41,0,0,0-1.18.55,2.42,2.42,0,0,0-.42,1.51,2.29,2.29,0,0,0,.42,1.46,1.39,1.39,0,0,0,1.15.53,1.35,1.35,0,0,0,1.14-.55,2.44,2.44,0,0,0,.42-1.51,2.32,2.32,0,0,0-.41-1.47A1.34,1.34,0,0,0,782.77,29.85Z"/><path class="cls-20" d="M786.24,36.54a10.84,10.84,0,0,0,2-6.55,10.59,10.59,0,0,0-2-6.5h1.09a10.18,10.18,0,0,1,2.1,6.52,10.35,10.35,0,0,1-2.1,6.53Z"/><path class="cls-20" d="M929.93,33.84a7.57,7.57,0,0,1-3.75.95,5.14,5.14,0,0,1-3.88-1.55,5.65,5.65,0,0,1-1.48-4.09,5.84,5.84,0,0,1,1.64-4.27,5.63,5.63,0,0,1,4.17-1.67,7.15,7.15,0,0,1,3.07.59v1.46a5.91,5.91,0,0,0-3.22-.86,4,4,0,0,0-3.08,1.3,4.73,4.73,0,0,0-1.2,3.35,4.76,4.76,0,0,0,1.11,3.34,3.93,3.93,0,0,0,3,1.22,4.68,4.68,0,0,0,2.28-.52V30h-2.46V28.76h3.77Z"/><path class="cls-20" d="M935.7,34.79a3.71,3.71,0,0,1-2.83-1.12,4.18,4.18,0,0,1-1.06-3,4.33,4.33,0,0,1,1.1-3.15,4,4,0,0,1,3-1.14,3.57,3.57,0,0,1,2.79,1.11,4.35,4.35,0,0,1,1,3.05,4.31,4.31,0,0,1-1.08,3.07A3.8,3.8,0,0,1,935.7,34.79Zm.1-7.3a2.44,2.44,0,0,0-2,.84,3.45,3.45,0,0,0-.72,2.32,3.28,3.28,0,0,0,.73,2.24,2.47,2.47,0,0,0,1.95.82,2.38,2.38,0,0,0,1.91-.8,3.53,3.53,0,0,0,.67-2.29,3.62,3.62,0,0,0-.67-2.32A2.35,2.35,0,0,0,935.8,27.49Z"/><path class="cls-20" d="M947.25,34.6H946V33.35h0a2.69,2.69,0,0,1-2.46,1.44,2.63,2.63,0,0,1-1.87-.63,2.19,2.19,0,0,1-.68-1.68q0-2.25,2.64-2.61l2.4-.34q0-2-1.65-2a3.94,3.94,0,0,0-2.61,1V27.16a5,5,0,0,1,2.72-.75c1.88,0,2.82,1,2.82,3ZM946,30.55l-1.93.27a3.09,3.09,0,0,0-1.34.44,1.26,1.26,0,0,0-.46,1.12,1.23,1.23,0,0,0,.42,1,1.6,1.6,0,0,0,1.11.37,2.06,2.06,0,0,0,1.58-.67,2.4,2.4,0,0,0,.62-1.69Z"/><path class="cls-20" d="M951,34.6h-1.29V22.76H951Z"/><path class="cls-20" d="M960.85,23.49a10.55,10.55,0,0,0-2,6.55,10.77,10.77,0,0,0,2,6.5h-1.1a10.35,10.35,0,0,1-2.1-6.5,10.61,10.61,0,0,1,2.1-6.55Z"/><path class="cls-20" d="M961.57,33.82l3.76-10h1.59l3.71,10v.8h-9.06Zm7.51-.39-2.2-5.94c-.27-.75-.61-1.71-.8-2.4h0c-.16.55-.45,1.44-.73,2.2l-2.25,6.14Z"/><path class="cls-20" d="M981.82,23.4l-5.37,13.06h-1.2l5.36-13.06Z"/><path class="cls-20" d="M989.25,29a2.36,2.36,0,0,1-1.85-.77,2.89,2.89,0,0,1-.69-2,3.15,3.15,0,0,1,.73-2.19,2.49,2.49,0,0,1,2-.8,2.34,2.34,0,0,1,1.86.74,3,3,0,0,1,.66,2.08,3.09,3.09,0,0,1-.74,2.16A2.49,2.49,0,0,1,989.25,29Zm.1-4.93a1.41,1.41,0,0,0-1.17.55,2.42,2.42,0,0,0-.43,1.51,2.3,2.3,0,0,0,.42,1.47,1.42,1.42,0,0,0,1.15.53,1.34,1.34,0,0,0,1.15-.55,2.42,2.42,0,0,0,.42-1.51,2.39,2.39,0,0,0-.41-1.48A1.36,1.36,0,0,0,989.35,24.09Zm7.4-.69-7.19,11.28h-1.12l7.18-11.28Zm-.83,11.37a2.37,2.37,0,0,1-1.85-.76,2.92,2.92,0,0,1-.68-2,3.14,3.14,0,0,1,.73-2.2,2.51,2.51,0,0,1,2-.81,2.34,2.34,0,0,1,1.85.75,3,3,0,0,1,.67,2.1,3,3,0,0,1-.74,2.14A2.49,2.49,0,0,1,995.92,34.77Zm.11-4.92a1.4,1.4,0,0,0-1.18.55,2.42,2.42,0,0,0-.43,1.51,2.29,2.29,0,0,0,.43,1.46,1.39,1.39,0,0,0,1.15.53,1.36,1.36,0,0,0,1.14-.55,2.44,2.44,0,0,0,.42-1.51,2.32,2.32,0,0,0-.41-1.47A1.35,1.35,0,0,0,996,29.85Z"/><path class="cls-20" d="M999.5,36.54a10.84,10.84,0,0,0,2-6.55,10.59,10.59,0,0,0-2-6.5h1.09a10.18,10.18,0,0,1,2.1,6.52,10.35,10.35,0,0,1-2.1,6.53Z"/><path class="cls-20" d="M1146,24.59h-4.38v3.87h4.05v1.18h-4.05v5h-1.31V23.4H1146Z"/><path class="cls-20" d="M1151.29,34.79a3.71,3.71,0,0,1-2.83-1.12,4.14,4.14,0,0,1-1.06-3,4.33,4.33,0,0,1,1.1-3.15,4,4,0,0,1,3-1.14,3.57,3.57,0,0,1,2.79,1.11,4.35,4.35,0,0,1,1,3.05,4.31,4.31,0,0,1-1.08,3.07A3.8,3.8,0,0,1,1151.29,34.79Zm.1-7.3a2.44,2.44,0,0,0-2,.84,3.45,3.45,0,0,0-.72,2.32,3.28,3.28,0,0,0,.73,2.24,2.47,2.47,0,0,0,2,.82,2.38,2.38,0,0,0,1.91-.8,3.53,3.53,0,0,0,.66-2.29,3.62,3.62,0,0,0-.66-2.32A2.35,2.35,0,0,0,1151.39,27.49Z"/><path class="cls-20" d="M1161.5,27.9a1.6,1.6,0,0,0-1-.26,1.63,1.63,0,0,0-1.37.77,3.57,3.57,0,0,0-.55,2.11V34.6h-1.29v-8h1.29v1.65h0a2.86,2.86,0,0,1,.83-1.32,2,2,0,0,1,1.26-.47,2.21,2.21,0,0,1,.77.11Z"/><path class="cls-20" d="M1169.11,30.92h-5.65a3,3,0,0,0,.72,2.06,2.43,2.43,0,0,0,1.89.73,4,4,0,0,0,2.48-.89V34a4.64,4.64,0,0,1-2.79.77,3.35,3.35,0,0,1-2.66-1.09,4.45,4.45,0,0,1-1-3.07,4.35,4.35,0,0,1,1.06-3,3.4,3.4,0,0,1,2.63-1.18,3,3,0,0,1,2.43,1,4.26,4.26,0,0,1,.86,2.82Zm-1.32-1.08a2.59,2.59,0,0,0-.53-1.73,1.83,1.83,0,0,0-1.47-.62,2.1,2.1,0,0,0-1.54.65,3,3,0,0,0-.78,1.7Z"/><path class="cls-20" d="M1176.5,34.23a4.2,4.2,0,0,1-2.19.56,3.62,3.62,0,0,1-2.76-1.11,4.06,4.06,0,0,1-1-2.89,4.42,4.42,0,0,1,1.13-3.18,4,4,0,0,1,3-1.2,4.21,4.21,0,0,1,1.86.39v1.32a3.23,3.23,0,0,0-1.9-.63,2.62,2.62,0,0,0-2,.88,3.37,3.37,0,0,0-.78,2.31,3.14,3.14,0,0,0,.74,2.22,2.54,2.54,0,0,0,2,.81,3.26,3.26,0,0,0,2-.69Z"/><path class="cls-20" d="M1184.16,34.6h-1.28V33.35h0a2.69,2.69,0,0,1-2.46,1.44,2.63,2.63,0,0,1-1.87-.63,2.19,2.19,0,0,1-.68-1.68q0-2.25,2.64-2.61l2.4-.34q0-2-1.65-2a3.94,3.94,0,0,0-2.61,1V27.16a5,5,0,0,1,2.72-.75c1.88,0,2.82,1,2.82,3Zm-1.28-4.05-1.93.27a3.09,3.09,0,0,0-1.34.44,1.26,1.26,0,0,0-.46,1.12,1.23,1.23,0,0,0,.42,1,1.6,1.6,0,0,0,1.11.37,2.06,2.06,0,0,0,1.58-.67,2.4,2.4,0,0,0,.62-1.69Z"/><path class="cls-20" d="M1186.09,34.31V32.94a3.83,3.83,0,0,0,2.3.77c1.13,0,1.69-.37,1.69-1.12a1,1,0,0,0-.14-.55,1.45,1.45,0,0,0-.39-.39,2.89,2.89,0,0,0-.58-.31l-.72-.29q-.52-.21-.93-.42a2.7,2.7,0,0,1-.67-.49,1.77,1.77,0,0,1-.41-.61,2.2,2.2,0,0,1-.13-.8,1.93,1.93,0,0,1,.25-1,2.4,2.4,0,0,1,.69-.73,3.37,3.37,0,0,1,1-.44,4.35,4.35,0,0,1,1.14-.15,4.61,4.61,0,0,1,1.86.36v1.3a3.68,3.68,0,0,0-2-.58,2.57,2.57,0,0,0-.65.08,1.93,1.93,0,0,0-.5.23,1.1,1.1,0,0,0-.32.36,1,1,0,0,0-.11.46,1.14,1.14,0,0,0,.11.52,1.31,1.31,0,0,0,.33.38,3.71,3.71,0,0,0,.53.29l.72.29c.35.14.67.28,1,.42a3.22,3.22,0,0,1,.72.48,1.93,1.93,0,0,1,.45.62,2,2,0,0,1,.16.84,1.9,1.9,0,0,1-.26,1,2.22,2.22,0,0,1-.7.73,3.36,3.36,0,0,1-1,.43,5.26,5.26,0,0,1-1.2.14A4.51,4.51,0,0,1,1186.09,34.31Z"/><path class="cls-20" d="M1197.07,34.52a2.42,2.42,0,0,1-1.19.25q-2.1,0-2.1-2.34V27.7h-1.38V26.6h1.38v-2l1.28-.42V26.6h2v1.1h-2v4.5a1.89,1.89,0,0,0,.27,1.15,1.1,1.1,0,0,0,.91.35,1.31,1.31,0,0,0,.83-.27Z"/><path class="cls-20" d="M1206.1,23.49a10.55,10.55,0,0,0-2,6.55,10.77,10.77,0,0,0,2,6.5H1205a10.35,10.35,0,0,1-2.09-6.5,10.55,10.55,0,0,1,2.09-6.55Z"/><path class="cls-20" d="M1206.82,33.82l3.76-10h1.58l3.72,10v.8h-9.06Zm7.5-.39-2.19-5.94c-.27-.75-.61-1.71-.8-2.4h0c-.16.55-.45,1.44-.72,2.2l-2.26,6.14Z"/><path class="cls-20" d="M1227.07,23.4l-5.38,13.06h-1.19l5.36-13.06Z"/><path class="cls-20" d="M1234.49,29a2.36,2.36,0,0,1-1.84-.77,2.89,2.89,0,0,1-.69-2,3.1,3.1,0,0,1,.73-2.19,2.48,2.48,0,0,1,2-.8,2.33,2.33,0,0,1,1.85.74,3,3,0,0,1,.66,2.08,3,3,0,0,1-.74,2.16A2.48,2.48,0,0,1,1234.49,29Zm.11-4.93a1.39,1.39,0,0,0-1.17.55,2.36,2.36,0,0,0-.43,1.51,2.3,2.3,0,0,0,.42,1.47,1.39,1.39,0,0,0,1.15.53,1.36,1.36,0,0,0,1.15-.55,2.49,2.49,0,0,0,.41-1.51,2.33,2.33,0,0,0-.41-1.48A1.34,1.34,0,0,0,1234.6,24.09Zm7.39-.69-7.19,11.28h-1.11l7.18-11.28Zm-.83,11.37a2.35,2.35,0,0,1-1.84-.76,2.92,2.92,0,0,1-.69-2,3.15,3.15,0,0,1,.74-2.2,2.51,2.51,0,0,1,2-.81,2.34,2.34,0,0,1,1.85.75,3.07,3.07,0,0,1,.66,2.1,3,3,0,0,1-.73,2.14A2.51,2.51,0,0,1,1241.16,34.77Zm.11-4.92a1.38,1.38,0,0,0-1.17.55,2.36,2.36,0,0,0-.43,1.51,2.29,2.29,0,0,0,.42,1.46,1.41,1.41,0,0,0,1.15.53,1.38,1.38,0,0,0,1.15-.55,2.44,2.44,0,0,0,.41-1.51,2.26,2.26,0,0,0-.41-1.47A1.33,1.33,0,0,0,1241.27,29.85Z"/><path class="cls-20" d="M1244.75,36.54a10.9,10.9,0,0,0,2-6.55,10.65,10.65,0,0,0-2-6.5h1.09a10.24,10.24,0,0,1,2.09,6.52,10.41,10.41,0,0,1-2.09,6.53Z"/><path class="cls-19" d="M37.7,284.65H36.09l-5.76-8.93A3.39,3.39,0,0,1,30,275h0a12.1,12.1,0,0,1,.06,1.54v8.1H28.67V273.44h1.71l5.6,8.79c.24.37.39.62.46.75h0a12.07,12.07,0,0,1-.08-1.65v-7.89H37.7Z"/><path class="cls-19" d="M46.58,284.65H40.64V273.44h5.69v1.19H42v3.73h4v1.18H42v3.92h4.63Z"/><path class="cls-19" d="M55.39,274.63H52.16v10H50.84v-10H47.62v-1.19h7.77Z"/><path class="cls-19" d="M66.41,273.44,61,286.51h-1.2l5.36-13.07Z"/><path class="cls-19" d="M79.77,284.18a6.52,6.52,0,0,1-3.09.65,5,5,0,0,1-3.83-1.54,5.65,5.65,0,0,1-1.44-4A6,6,0,0,1,73,274.91a5.51,5.51,0,0,1,4.1-1.65,6.48,6.48,0,0,1,2.64.46v1.4a5.31,5.31,0,0,0-2.65-.68A4.07,4.07,0,0,0,74,275.73a4.86,4.86,0,0,0-1.2,3.45,4.61,4.61,0,0,0,1.12,3.26,3.82,3.82,0,0,0,2.94,1.21,5.49,5.49,0,0,0,2.92-.75Z"/><path class="cls-19" d="M88.35,284.65H87.07v-1.27h0a2.63,2.63,0,0,1-2.47,1.45q-2.86,0-2.86-3.4v-4.78H83v4.57c0,1.69.65,2.54,1.94,2.54a1.92,1.92,0,0,0,1.54-.7,2.6,2.6,0,0,0,.61-1.8v-4.61h1.28Z"/><path class="cls-19" d="M90.45,284.36V283a3.79,3.79,0,0,0,2.31.78c1.12,0,1.69-.38,1.69-1.13a1,1,0,0,0-.15-.54,1.64,1.64,0,0,0-.39-.4,3.88,3.88,0,0,0-.58-.31l-.71-.28a7.64,7.64,0,0,1-.94-.43,2.87,2.87,0,0,1-.67-.48,1.75,1.75,0,0,1-.4-.61,2,2,0,0,1-.14-.81,1.81,1.81,0,0,1,.26-1,2.26,2.26,0,0,1,.68-.73,3.23,3.23,0,0,1,1-.44,4.35,4.35,0,0,1,1.14-.15,4.61,4.61,0,0,1,1.86.36v1.3a3.6,3.6,0,0,0-2-.58,2.18,2.18,0,0,0-.65.08,1.53,1.53,0,0,0-.5.23,1.22,1.22,0,0,0-.32.36,1,1,0,0,0-.11.45,1.22,1.22,0,0,0,.11.53,1.18,1.18,0,0,0,.34.37,2.38,2.38,0,0,0,.53.3l.71.29a9.65,9.65,0,0,1,1,.41,3.63,3.63,0,0,1,.72.49,2,2,0,0,1,.46.62,2.1,2.1,0,0,1,.16.84,2,2,0,0,1-.26,1,2.29,2.29,0,0,1-.7.72,3.05,3.05,0,0,1-1,.43,5.14,5.14,0,0,1-3.34-.33Z"/><path class="cls-19" d="M101.44,284.57a2.55,2.55,0,0,1-1.2.25c-1.4,0-2.1-.78-2.1-2.35v-4.73H96.77v-1.09h1.37v-2l1.28-.41v2.37h2v1.09h-2v4.51a1.83,1.83,0,0,0,.28,1.15,1.07,1.07,0,0,0,.9.34,1.36,1.36,0,0,0,.84-.27Z"/><path class="cls-19" d="M106.37,284.83a3.68,3.68,0,0,1-2.83-1.12,4.12,4.12,0,0,1-1.06-3,4.32,4.32,0,0,1,1.1-3.15,4,4,0,0,1,3-1.13,3.61,3.61,0,0,1,2.8,1.1,4.36,4.36,0,0,1,1,3.06,4.3,4.3,0,0,1-1.08,3.06A3.78,3.78,0,0,1,106.37,284.83Zm.09-7.29a2.44,2.44,0,0,0-1.95.84,3.44,3.44,0,0,0-.72,2.31,3.26,3.26,0,0,0,.73,2.25,2.48,2.48,0,0,0,1.94.82,2.33,2.33,0,0,0,1.91-.81,3.46,3.46,0,0,0,.67-2.29,3.52,3.52,0,0,0-.67-2.31A2.33,2.33,0,0,0,106.46,277.54Z"/><path class="cls-19" d="M123.76,284.65h-1.28v-4.6a3.51,3.51,0,0,0-.41-1.92,1.58,1.58,0,0,0-1.38-.59,1.72,1.72,0,0,0-1.4.75,2.88,2.88,0,0,0-.57,1.79v4.57h-1.28V279.9c0-1.58-.61-2.36-1.82-2.36a1.67,1.67,0,0,0-1.39.7,2.92,2.92,0,0,0-.55,1.84v4.57H112.4v-8h1.28v1.26h0a2.72,2.72,0,0,1,2.49-1.45,2.33,2.33,0,0,1,2.26,1.66,2.85,2.85,0,0,1,2.66-1.66c1.76,0,2.64,1.08,2.64,3.26Z"/><path class="cls-19" d="M132.61,281H127a3,3,0,0,0,.72,2.06,2.5,2.5,0,0,0,1.89.73,3.93,3.93,0,0,0,2.48-.89v1.2a4.62,4.62,0,0,1-2.78.76,3.39,3.39,0,0,1-2.67-1.09,5.11,5.11,0,0,1,.09-6.11,3.41,3.41,0,0,1,2.63-1.17,3,3,0,0,1,2.43,1,4.26,4.26,0,0,1,.86,2.82Zm-1.31-1.09a2.67,2.67,0,0,0-.54-1.73,1.82,1.82,0,0,0-1.46-.61,2,2,0,0,0-1.54.65,2.93,2.93,0,0,0-.78,1.69Z"/><path class="cls-19" d="M138.72,277.94a1.6,1.6,0,0,0-1-.25,1.62,1.62,0,0,0-1.37.77,3.55,3.55,0,0,0-.55,2.11v4.08h-1.28v-8h1.28v1.64h0a2.71,2.71,0,0,1,.84-1.31,1.86,1.86,0,0,1,1.25-.47,2,2,0,0,1,.77.11Z"/><path class="cls-19" d="M37.7,75.64H36.09l-5.76-8.93A3.32,3.32,0,0,1,30,66h0A12,12,0,0,1,30,67.55v8.09H28.67V64.44h1.71L36,73.23a8.16,8.16,0,0,1,.46.75h0a12.28,12.28,0,0,1-.08-1.65V64.44H37.7Z"/><path class="cls-19" d="M46.58,75.64H40.64V64.44h5.69v1.18H42v3.73h4v1.18H42v3.92h4.63Z"/><path class="cls-19" d="M55.39,65.62H52.16v10H50.84v-10H47.62V64.44h7.77Z"/><path class="cls-19" d="M69.86,64.44l-4.15,11.2H64.27L60.2,64.44h1.46l3.11,8.88a6.07,6.07,0,0,1,.22,1h0a4.86,4.86,0,0,1,.26-1l3.17-8.86Z"/><path class="cls-19" d="M75.88,75.64H74.59V74.39h0a2.69,2.69,0,0,1-2.46,1.44,2.59,2.59,0,0,1-1.87-.64,2.19,2.19,0,0,1-.68-1.68c0-1.49.88-2.36,2.65-2.61l2.39-.33c0-1.36-.55-2-1.64-2a3.94,3.94,0,0,0-2.61,1V68.2a4.93,4.93,0,0,1,2.71-.75c1.88,0,2.83,1,2.83,3Zm-1.29-4-1.93.27a3.09,3.09,0,0,0-1.34.44,1.27,1.27,0,0,0-.45,1.12,1.23,1.23,0,0,0,.42,1,1.62,1.62,0,0,0,1.11.37A2,2,0,0,0,74,74.08a2.35,2.35,0,0,0,.62-1.69Z"/><path class="cls-19" d="M79.57,75.64H78.29V63.8h1.28Z"/><path class="cls-19" d="M88.63,75.64H87.35V74.37h0a2.63,2.63,0,0,1-2.47,1.46C83,75.83,82,74.69,82,72.42V67.64h1.28v4.58c0,1.68.64,2.53,1.93,2.53a2,2,0,0,0,1.55-.69,2.67,2.67,0,0,0,.6-1.81V67.64h1.28Z"/><path class="cls-19" d="M97.65,72H92A3,3,0,0,0,92.72,74a2.46,2.46,0,0,0,1.89.73,3.93,3.93,0,0,0,2.48-.89v1.2a4.64,4.64,0,0,1-2.79.77,3.4,3.4,0,0,1-2.66-1.09,4.45,4.45,0,0,1-1-3.07,4.35,4.35,0,0,1,1.06-3,3.38,3.38,0,0,1,2.63-1.18,3,3,0,0,1,2.43,1,4.22,4.22,0,0,1,.86,2.82Zm-1.31-1.09a2.62,2.62,0,0,0-.54-1.72,1.82,1.82,0,0,0-1.46-.62,2.07,2.07,0,0,0-1.54.65A2.9,2.9,0,0,0,92,70.87Z"/><path class="cls-19" d="M37.7,194.65H36.09l-5.76-8.93A3.32,3.32,0,0,1,30,185h0a12,12,0,0,1,.06,1.54v8.09H28.67v-11.2h1.71l5.6,8.79a8.16,8.16,0,0,1,.46.75h0a12.28,12.28,0,0,1-.08-1.65v-7.89H37.7Z"/><path class="cls-19" d="M46.9,191H41.25A3,3,0,0,0,42,193a2.46,2.46,0,0,0,1.89.73,3.93,3.93,0,0,0,2.48-.89v1.2a4.64,4.64,0,0,1-2.79.77,3.37,3.37,0,0,1-2.66-1.09,4.45,4.45,0,0,1-1-3.07,4.35,4.35,0,0,1,1.06-3,3.41,3.41,0,0,1,2.63-1.18,3,3,0,0,1,2.43,1,4.26,4.26,0,0,1,.86,2.82Zm-1.31-1.08a2.65,2.65,0,0,0-.54-1.73,1.82,1.82,0,0,0-1.46-.62,2.07,2.07,0,0,0-1.54.65,2.84,2.84,0,0,0-.78,1.7Z"/><path class="cls-19" d="M52.55,194.57a2.46,2.46,0,0,1-1.2.25q-2.1,0-2.1-2.34v-4.74H47.88v-1.09h1.37v-2l1.28-.42v2.37h2v1.09h-2v4.51a1.89,1.89,0,0,0,.27,1.15,1.11,1.11,0,0,0,.91.34,1.35,1.35,0,0,0,.84-.26Z"/><path class="cls-19" d="M72.09,183.45l-3.16,11.2H67.39l-2.3-8.19a5,5,0,0,1-.18-1.14h0a6.09,6.09,0,0,1-.21,1.13l-2.32,8.2H60.83l-3.28-11.2H59L61.38,192a5.92,5.92,0,0,1,.18,1.13h0a7.76,7.76,0,0,1,.24-1.13l2.48-8.59h1.26L68,192.1a5.65,5.65,0,0,1,.19,1.05h0a6.22,6.22,0,0,1,.21-1.08l2.29-8.62Z"/><path class="cls-19" d="M79.63,191H74A3,3,0,0,0,74.7,193a2.46,2.46,0,0,0,1.89.73,4,4,0,0,0,2.49-.89v1.2a4.64,4.64,0,0,1-2.79.77,3.39,3.39,0,0,1-2.67-1.09,4.5,4.5,0,0,1-1-3.07,4.39,4.39,0,0,1,1-3,3.43,3.43,0,0,1,2.63-1.18,3,3,0,0,1,2.43,1,4.21,4.21,0,0,1,.86,2.82Zm-1.31-1.08a2.65,2.65,0,0,0-.53-1.73,1.85,1.85,0,0,0-1.47-.62,2.09,2.09,0,0,0-1.54.65,3,3,0,0,0-.78,1.7Z"/><path class="cls-19" d="M82.23,184.62a.84.84,0,0,1-.59-.23.87.87,0,0,1,0-1.2.87.87,0,0,1,1.18,0,.83.83,0,0,1,0,1.19A.81.81,0,0,1,82.23,184.62Zm.62,10H81.57v-8h1.28Z"/><path class="cls-19" d="M92.27,194c0,2.94-1.4,4.41-4.22,4.41a5.59,5.59,0,0,1-2.59-.57v-1.28a5.32,5.32,0,0,0,2.58.75c2,0,2.95-1,2.95-3.14v-.87h0a3.23,3.23,0,0,1-5.15.46,4.23,4.23,0,0,1-.91-2.86,5,5,0,0,1,1-3.24,3.25,3.25,0,0,1,2.68-1.21,2.62,2.62,0,0,1,2.4,1.3h0v-1.11h1.28ZM91,191v-1.18a2.28,2.28,0,0,0-.64-1.63,2.14,2.14,0,0,0-1.61-.68,2.24,2.24,0,0,0-1.86.86,3.87,3.87,0,0,0-.67,2.42,3.31,3.31,0,0,0,.65,2.14,2.08,2.08,0,0,0,1.7.8,2.21,2.21,0,0,0,1.76-.77A2.84,2.84,0,0,0,91,191Z"/><path class="cls-19" d="M101.51,194.65h-1.28V190c0-1.66-.62-2.5-1.86-2.5a2,2,0,0,0-1.58.72,2.7,2.7,0,0,0-.64,1.86v4.53H94.87V182.81h1.28V188h0a2.91,2.91,0,0,1,2.62-1.52c1.81,0,2.71,1.09,2.71,3.26Z"/><path class="cls-19" d="M107.63,194.57a2.42,2.42,0,0,1-1.19.25q-2.1,0-2.1-2.34v-4.74H103v-1.09h1.38v-2l1.28-.42v2.37h2v1.09h-2v4.51a1.89,1.89,0,0,0,.27,1.15,1.09,1.09,0,0,0,.91.34,1.31,1.31,0,0,0,.83-.26Z"/><path class="cls-19" d="M122.61,122.9h-1.3v-7.52c0-.59,0-1.32.11-2.18h0a7.28,7.28,0,0,1-.34,1.09l-3.83,8.61h-.64l-3.82-8.55a6.25,6.25,0,0,1-.33-1.15h0c0,.45.06,1.18.06,2.2v7.5h-1.27V111.7h1.74l3.43,7.81a9.72,9.72,0,0,1,.52,1.34h.05c.22-.61.4-1.07.54-1.37l3.5-7.78h1.64Z"/><path class="cls-19" d="M133.19,122.43a6.56,6.56,0,0,1-3.1.66,5,5,0,0,1-3.83-1.54,5.69,5.69,0,0,1-1.43-4,6,6,0,0,1,1.61-4.35,5.51,5.51,0,0,1,4.1-1.65,6.56,6.56,0,0,1,2.65.46v1.4a5.36,5.36,0,0,0-2.66-.67A4.06,4.06,0,0,0,127.4,114a4.86,4.86,0,0,0-1.2,3.45,4.61,4.61,0,0,0,1.12,3.26,3.82,3.82,0,0,0,2.94,1.22,5.55,5.55,0,0,0,2.93-.75Z"/><path class="cls-19" d="M137.15,117.31a2.35,2.35,0,0,1-1.84-.76,2.92,2.92,0,0,1-.69-2,3.14,3.14,0,0,1,.73-2.2,2.53,2.53,0,0,1,2-.8,2.35,2.35,0,0,1,1.86.75,3,3,0,0,1,.66,2.08,3.07,3.07,0,0,1-.74,2.15A2.5,2.5,0,0,1,137.15,117.31Zm.11-4.93a1.43,1.43,0,0,0-1.17.55,2.39,2.39,0,0,0-.43,1.52,2.3,2.3,0,0,0,.42,1.47,1.41,1.41,0,0,0,1.15.53,1.38,1.38,0,0,0,1.15-.55,2.45,2.45,0,0,0,.41-1.52,2.3,2.3,0,0,0-.41-1.47A1.34,1.34,0,0,0,137.26,112.38Zm7.39-.68L137.47,123h-1.12l7.18-11.28Zm-.82,11.37a2.33,2.33,0,0,1-1.85-.77,2.9,2.9,0,0,1-.69-2,3.16,3.16,0,0,1,.74-2.2,2.53,2.53,0,0,1,1.95-.8,2.34,2.34,0,0,1,1.85.75,3,3,0,0,1,.67,2.1,3.06,3.06,0,0,1-.74,2.14A2.49,2.49,0,0,1,143.83,123.07Zm.11-4.92a1.4,1.4,0,0,0-1.18.55,2.42,2.42,0,0,0-.43,1.51,2.23,2.23,0,0,0,.43,1.46,1.39,1.39,0,0,0,1.14.53,1.35,1.35,0,0,0,1.15-.56,2.42,2.42,0,0,0,.42-1.51,2.36,2.36,0,0,0-.41-1.47A1.37,1.37,0,0,0,143.94,118.15Z"/><path class="cls-19" d="M122.61,145.47h-1.3V138c0-.6,0-1.32.11-2.18h0a7.46,7.46,0,0,1-.34,1.08l-3.83,8.61h-.64l-3.82-8.55a6.35,6.35,0,0,1-.33-1.14h0c0,.44.06,1.18.06,2.19v7.5h-1.27v-11.2h1.74l3.43,7.81a10.24,10.24,0,0,1,.52,1.34h.05c.22-.61.4-1.07.54-1.37l3.5-7.78h1.64Z"/><path class="cls-19" d="M133.18,145a6.49,6.49,0,0,1-3.09.66,5,5,0,0,1-3.83-1.54,5.67,5.67,0,0,1-1.43-4,5.93,5.93,0,0,1,1.61-4.34,5.48,5.48,0,0,1,4.1-1.66,6.48,6.48,0,0,1,2.64.46v1.4a5.3,5.3,0,0,0-2.65-.67,4.07,4.07,0,0,0-3.13,1.29,4.85,4.85,0,0,0-1.2,3.44,4.58,4.58,0,0,0,1.12,3.26,3.82,3.82,0,0,0,2.94,1.22,5.49,5.49,0,0,0,2.92-.75Z"/><path class="cls-19" d="M40.09,134.9h-1.3v-7.52c0-.59,0-1.32.11-2.18h0a7.28,7.28,0,0,1-.34,1.09L34.7,134.9h-.64l-3.82-8.55a6.25,6.25,0,0,1-.33-1.15h0c0,.45.06,1.18.06,2.2v7.5H28.67V123.7h1.74l3.43,7.81a10.24,10.24,0,0,1,.52,1.34h0c.22-.61.4-1.07.54-1.37l3.5-7.78h1.64Z"/><path class="cls-19" d="M48.59,134.9H47.31v-1.25h0a2.69,2.69,0,0,1-2.46,1.44,2.59,2.59,0,0,1-1.87-.64,2.19,2.19,0,0,1-.68-1.68q0-2.24,2.64-2.61l2.4-.33q0-2-1.65-2a4,4,0,0,0-2.61,1v-1.31a5,5,0,0,1,2.72-.75c1.88,0,2.82,1,2.82,3Zm-1.28-4.05-1.93.27a3.09,3.09,0,0,0-1.34.44,1.27,1.27,0,0,0-.45,1.12,1.25,1.25,0,0,0,.41,1,1.66,1.66,0,0,0,1.12.37,2,2,0,0,0,1.57-.67,2.35,2.35,0,0,0,.62-1.69Z"/><path class="cls-19" d="M55.18,128.2a1.52,1.52,0,0,0-1-.26,1.64,1.64,0,0,0-1.37.77,3.57,3.57,0,0,0-.55,2.11v4.08H51v-8h1.28v1.65h0a2.74,2.74,0,0,1,.84-1.32,1.91,1.91,0,0,1,1.25-.47,2,2,0,0,1,.77.11Z"/><path class="cls-19" d="M63.19,134.26c0,2.94-1.41,4.4-4.22,4.4a5.56,5.56,0,0,1-2.59-.56v-1.28a5.32,5.32,0,0,0,2.57.75q3,0,3-3.14v-.87h0a3.24,3.24,0,0,1-5.16.46,4.3,4.3,0,0,1-.91-2.86,5,5,0,0,1,1-3.25,3.29,3.29,0,0,1,2.69-1.2,2.62,2.62,0,0,1,2.4,1.3h0V126.9h1.28Zm-1.28-3V130.1a2.29,2.29,0,0,0-.65-1.63,2.12,2.12,0,0,0-1.6-.68,2.22,2.22,0,0,0-1.86.86,3.85,3.85,0,0,0-.68,2.42,3.33,3.33,0,0,0,.65,2.14,2.1,2.1,0,0,0,1.71.8,2.22,2.22,0,0,0,1.75-.77A2.85,2.85,0,0,0,61.91,131.28Z"/><path class="cls-19" d="M66.44,124.87a.81.81,0,0,1-.59-.24.78.78,0,0,1-.24-.59.82.82,0,0,1,.83-.84.85.85,0,0,1,.6.24.81.81,0,0,1,.24.6.82.82,0,0,1-.24.59A.85.85,0,0,1,66.44,124.87Zm.62,10H65.78v-8h1.28Z"/><path class="cls-19" d="M76.3,134.9H75v-4.56q0-2.55-1.86-2.55a2,2,0,0,0-1.59.72,2.68,2.68,0,0,0-.63,1.83v4.56H69.66v-8h1.28v1.33h0a2.89,2.89,0,0,1,2.62-1.52,2.43,2.43,0,0,1,2,.85,3.78,3.78,0,0,1,.7,2.45Z"/></g></svg>