<svg id="Camada_2" data-name="Camada 2" xmlns="http://www.w3.org/2000/svg" xmlns:xlink="http://www.w3.org/1999/xlink" viewBox="0 0 832 360"><defs><style>.cls-1{fill:url(#Gradiente_sem_nome_89);}.cls-2{fill:url(#Gradiente_sem_nome_90);}.cls-3{fill:url(#Gradiente_sem_nome_115);}.cls-4{fill:url(#Gradiente_sem_nome_110);}</style><linearGradient id="Gradiente_sem_nome_89" x1="256.51" y1="351.49" x2="521.5" y2="86.5" gradientUnits="userSpaceOnUse"><stop offset="0" stop-color="#1d305a" stop-opacity="0"/><stop offset="1" stop-color="#1d305a" stop-opacity="0.25"/></linearGradient><linearGradient id="Gradiente_sem_nome_90" x1="793.27" y1="350.27" x2="530" y2="87" gradientUnits="userSpaceOnUse"><stop offset="0" stop-color="#88651e" stop-opacity="0"/><stop offset="1" stop-color="#88651e" stop-opacity="0.25"/></linearGradient><linearGradient id="Gradiente_sem_nome_115" x1="820.03" y1="227.07" x2="498.09" y2="170.31" gradientUnits="userSpaceOnUse"><stop offset="0" stop-color="#83662c" stop-opacity="0.3"/><stop offset="0.15" stop-color="#83662c" stop-opacity="0.5"/><stop offset="0.37" stop-color="#83662c" stop-opacity="0.72"/><stop offset="0.58" stop-color="#83662c" stop-opacity="0.87"/><stop offset="0.8" stop-color="#83662c" stop-opacity="0.97"/><stop offset="1" stop-color="#83662c"/></linearGradient><linearGradient id="Gradiente_sem_nome_110" x1="155.17" y1="297.16" x2="537.98" y2="29.11" gradientUnits="userSpaceOnUse"><stop offset="0" stop-color="#1d305a" stop-opacity="0"/><stop offset="0.15" stop-color="#1d305a" stop-opacity="0.27"/><stop offset="0.36" stop-color="#1d305a" stop-opacity="0.59"/><stop offset="0.58" stop-color="#1d305a" stop-opacity="0.82"/><stop offset="0.79" stop-color="#1d305a" stop-opacity="0.95"/><stop offset="1" stop-color="#1d305a"/></linearGradient></defs><path class="cls-1" d="M526,352H262a12,12,0,0,1-12-12V88H523Z"/><path class="cls-2" d="M788.07,350.57,526,352l3-264H800V338.57A12,12,0,0,1,788.07,350.57Z"/><path class="cls-3" d="M800,88V56a11,11,0,0,0-11-11H631.72a12,12,0,0,1-9.32-4.44L600.8,17.92A16,16,0,0,0,588.37,12H526V352h0a3,3,0,0,0,3-3V325H801.5a1.5,1.5,0,0,0,1.5-1.5h0a1.5,1.5,0,0,0-1.5-1.5H529V88Z"/><path class="cls-4" d="M523,12H461.63a16,16,0,0,0-12.43,5.92L427.6,40.56A12,12,0,0,1,418.28,45H262a12,12,0,0,0-12,12V85H9.5A1.5,1.5,0,0,0,8,86.5H8A1.5,1.5,0,0,0,9.5,88H523V322H248.5a1.5,1.5,0,0,0-1.5,1.5h0a1.5,1.5,0,0,0,1.5,1.5H523v24a3,3,0,0,0,3,3h0V12Z"/></svg>
