<?xml version="1.0" encoding="utf-8"?>
<!-- Generator: Adobe Illustrator 25.4.1, SVG Export Plug-In . SVG Version: 6.00 Build 0)  -->
<svg version="1.1" id="icones" xmlns="http://www.w3.org/2000/svg" xmlns:xlink="http://www.w3.org/1999/xlink" x="0px" y="0px"
	 viewBox="0 0 1056 288" style="enable-background:new 0 0 1056 288;" xml:space="preserve">
<style type="text/css">
	.st0{fill:url(#SVGID_1_);}
	.st1{fill:#C06F6C;}
	.st2{fill:url(#SVGID_00000112596410301657698340000001421249956589301657_);}
	.st3{fill:#5E75A0;}
	.st4{fill:#D3AD6A;}
	.st5{fill:#6CACA0;}
	.st6{fill:#5E4B4B;}
	.st7{fill:#414951;}
	.st8{fill:#D8E4E3;}
	.st9{fill:#5B564F;}
	.st10{fill:#51605C;}
	.st11{fill:url(#SVGID_00000164490072389357927600000000132645556886888109_);}
	.st12{fill:url(#SVGID_00000096050344447085577510000016426711362025920647_);}
	.st13{fill:url(#SVGID_00000057830210300316316790000011306418510657440695_);}
	.st14{fill:url(#SVGID_00000018234658636028010720000006308720621810894249_);}
	.st15{fill:url(#SVGID_00000038414125738753513640000016236155301990072216_);}
	.st16{fill:url(#SVGID_00000087371757658223640190000017342385166314922682_);}
	.st17{fill:#556464;stroke:#566564;stroke-width:0.4;stroke-miterlimit:10;}
	.st18{fill:#FFFFFF;stroke:#FFFFFF;stroke-width:0.4;stroke-miterlimit:10;}
	.st19{opacity:0.75;}
	.st20{opacity:0.3;}
	.st21{fill:none;stroke:#FFFFFF;stroke-miterlimit:10;}
</style>
<linearGradient id="SVGID_1_" gradientUnits="userSpaceOnUse" x1="482" y1="39.89" x2="482" y2="11.89" gradientTransform="matrix(1 0 0 -1 0 287.89)">
	<stop  offset="0.3" style="stop-color:#6CACA0"/>
	<stop  offset="0.7" style="stop-color:#5E75A0"/>
</linearGradient>
<path class="st0" d="M16,248h932c4.4,0,8,3.6,8,8v12c0,4.4-3.6,8-8,8H16c-4.4,0-8-3.6-8-8v-12C8,251.6,11.6,248,16,248z"/>
<path class="st1" d="M16,96h932c4.4,0,8,3.6,8,8v32c0,4.4-3.6,8-8,8H16c-4.4,0-8-3.6-8-8v-32C8,99.6,11.6,96,16,96z"/>
<linearGradient id="SVGID_00000044876603433473802310000003540543236013340068_" gradientUnits="userSpaceOnUse" x1="482" y1="13.89" x2="482" y2="37.89" gradientTransform="matrix(1 0 0 -1 0 287.89)">
	<stop  offset="0.3" style="stop-color:#6CACA0"/>
	<stop  offset="0.7" style="stop-color:#5E75A0"/>
</linearGradient>
<path style="fill:url(#SVGID_00000044876603433473802310000003540543236013340068_);" d="M16.6,250h930.8c3.6,0,6.6,3,6.6,6.6v10.8
	c0,3.6-3,6.6-6.6,6.6H16.6c-3.6,0-6.6-3-6.6-6.6v-10.8C10,253,13,250,16.6,250z"/>
<path class="st3" d="M16,52h932c4.4,0,8,3.6,8,8v12c0,4.4-3.6,8-8,8H16c-4.4,0-8-3.6-8-8V60C8,55.6,11.6,52,16,52z"/>
<path class="st4" d="M16,160h932c4.4,0,8,3.6,8,8v12c0,4.4-3.6,8-8,8H16c-4.4,0-8-3.6-8-8v-12C8,163.6,11.6,160,16,160z"/>
<path class="st5" d="M16,204h932c4.4,0,8,3.6,8,8v12c0,4.4-3.6,8-8,8H16c-4.4,0-8-3.6-8-8v-12C8,207.6,11.6,204,16,204z"/>
<path class="st6" d="M1036,92H876c-6.6,0-12,5.4-12,12v32c0,6.6,5.4,12,12,12h160c6.6,0,12-5.4,12-12v-32
	C1048,97.4,1042.6,92,1036,92z M884,122v14c0,3.3-2.7,6-6,6s-6-2.7-6-6v-14H884z M872,118v-14c0-3.3,2.7-6,6-6s6,2.7,6,6v14H872z"/>
<path class="st7" d="M1036,48H876c-6.6,0-12,5.4-12,12v12c0,6.6,5.4,12,12,12h160c6.6,0,12-5.4,12-12V60
	C1048,53.4,1042.6,48,1036,48z M884,72c0,3.3-2.7,6-6,6s-6-2.7-6-6V60c0-3.3,2.7-6,6-6s6,2.7,6,6V72z"/>
<path class="st8" d="M876,8h160c6.6,0,12,5.4,12,12v4c0,6.6-5.4,12-12,12H876c-6.6,0-12-5.4-12-12v-4C864,13.4,869.4,8,876,8z"/>
<path class="st9" d="M1036,156H876c-6.6,0-12,5.4-12,12v12c0,6.6,5.4,12,12,12h160c6.6,0,12-5.4,12-12v-12
	C1048,161.4,1042.6,156,1036,156z M884,180c0,3.3-2.7,6-6,6s-6-2.7-6-6v-12c0-3.3,2.7-6,6-6s6,2.7,6,6V180z"/>
<path class="st10" d="M1036,200H876c-6.6,0-12,5.4-12,12v12c0,6.6,5.4,12,12,12h160c6.6,0,12-5.4,12-12v-12
	C1048,205.4,1042.6,200,1036,200z M884,224c0,3.3-2.7,6-6,6s-6-2.7-6-6v-12c0-3.3,2.7-6,6-6s6,2.7,6,6V224z"/>
<linearGradient id="SVGID_00000096749189555991407160000011200654155496342160_" gradientUnits="userSpaceOnUse" x1="956" y1="7.89" x2="956" y2="43.89" gradientTransform="matrix(1 0 0 -1 0 287.89)">
	<stop  offset="0" style="stop-color:#51605C"/>
	<stop  offset="1" style="stop-color:#414951"/>
</linearGradient>
<path style="fill:url(#SVGID_00000096749189555991407160000011200654155496342160_);" d="M1036,244H876c-6.6,0-12,5.4-12,12v12
	c0,6.6,5.4,12,12,12h160c6.6,0,12-5.4,12-12v-12C1048,249.4,1042.6,244,1036,244z M884,268c0,3.3-2.7,6-6,6s-6-2.7-6-6v-12
	c0-3.3,2.7-6,6-6s6,2.7,6,6V268z"/>
<path class="st6" d="M220,92h-88c-6.6,0-12,5.4-12,12v32c0,6.6,5.4,12,12,12h88c6.6,0,12-5.4,12-12v-32C232,97.4,226.6,92,220,92z
	 M140,122v14c0,3.3-2.7,6-6,6s-6-2.7-6-6v-14H140z M128,118v-14c0-3.3,2.7-6,6-6s6,2.7,6,6v14H128z"/>
<path class="st6" d="M340,92h-88c-6.6,0-12,5.4-12,12v32c0,6.6,5.4,12,12,12h88c6.6,0,12-5.4,12-12v-32C352,97.4,346.6,92,340,92z
	 M260,122v14c0,3.3-2.7,6-6,6c-3.3,0-6-2.7-6-6v-14H260z M248,118v-14c0-3.3,2.7-6,6-6c3.3,0,6,2.7,6,6v14H248z"/>
<path class="st6" d="M652,92H492c-6.6,0-12,5.4-12,12v32c0,6.6,5.4,12,12,12h160c6.6,0,12-5.4,12-12v-32C664,97.4,658.6,92,652,92z
	 M500,122v14c0,3.3-2.7,6-6,6s-6-2.7-6-6v-14H500z M488,118v-14c0-3.3,2.7-6,6-6s6,2.7,6,6v14H488z"/>
<path class="st6" d="M844,92H684c-6.6,0-12,5.4-12,12v32c0,6.6,5.4,12,12,12h160c6.6,0,12-5.4,12-12v-32C856,97.4,850.6,92,844,92z
	 M692,122v14c0,3.3-2.7,6-6,6s-6-2.7-6-6v-14H692z M680,118v-14c0-3.3,2.7-6,6-6s6,2.7,6,6v14H680z"/>
<path class="st6" d="M460,92h-88c-6.6,0-12,5.4-12,12v32c0,6.6,5.4,12,12,12h88c6.6,0,12-5.4,12-12v-32C472,97.4,466.6,92,460,92z
	 M380,122v14c0,3.3-2.7,6-6,6s-6-2.7-6-6v-14H380z M368,118v-14c0-3.3,2.7-6,6-6s6,2.7,6,6v14H368z"/>
<path class="st8" d="M252,8h88c6.6,0,12,5.4,12,12v4c0,6.6-5.4,12-12,12h-88c-6.6,0-12-5.4-12-12v-4C240,13.4,245.4,8,252,8z"/>
<path class="st8" d="M372,8h88c6.6,0,12,5.4,12,12v4c0,6.6-5.4,12-12,12h-88c-6.6,0-12-5.4-12-12v-4C360,13.4,365.4,8,372,8z"/>
<path class="st8" d="M132,8h88c6.6,0,12,5.4,12,12v4c0,6.6-5.4,12-12,12h-88c-6.6,0-12-5.4-12-12v-4C120,13.4,125.4,8,132,8z"/>
<path class="st8" d="M492,8h160c6.6,0,12,5.4,12,12v4c0,6.6-5.4,12-12,12H492c-6.6,0-12-5.4-12-12v-4C480,13.4,485.4,8,492,8z"/>
<path class="st7" d="M340,48h-88c-6.6,0-12,5.4-12,12v12c0,6.6,5.4,12,12,12h88c6.6,0,12-5.4,12-12V60C352,53.4,346.6,48,340,48z
	 M260,72c0,3.3-2.7,6-6,6c-3.3,0-6-2.7-6-6V60c0-3.3,2.7-6,6-6c3.3,0,6,2.7,6,6V72z"/>
<path class="st7" d="M460,48h-88c-6.6,0-12,5.4-12,12v12c0,6.6,5.4,12,12,12h88c6.6,0,12-5.4,12-12V60C472,53.4,466.6,48,460,48z
	 M380,72c0,3.3-2.7,6-6,6s-6-2.7-6-6V60c0-3.3,2.7-6,6-6s6,2.7,6,6V72z"/>
<path class="st7" d="M220,48h-88c-6.6,0-12,5.4-12,12v12c0,6.6,5.4,12,12,12h88c6.6,0,12-5.4,12-12V60C232,53.4,226.6,48,220,48z
	 M140,72c0,3.3-2.7,6-6,6s-6-2.7-6-6V60c0-3.3,2.7-6,6-6s6,2.7,6,6V72z"/>
<path class="st7" d="M844,48H684c-6.6,0-12,5.4-12,12v12c0,6.6,5.4,12,12,12h160c6.6,0,12-5.4,12-12V60C856,53.4,850.6,48,844,48z
	 M692,72c0,3.3-2.7,6-6,6s-6-2.7-6-6V60c0-3.3,2.7-6,6-6s6,2.7,6,6V72z"/>
<path class="st7" d="M652,48H492c-6.6,0-12,5.4-12,12v12c0,6.6,5.4,12,12,12h160c6.6,0,12-5.4,12-12V60C664,53.4,658.6,48,652,48z
	 M500,72c0,3.3-2.7,6-6,6s-6-2.7-6-6V60c0-3.3,2.7-6,6-6s6,2.7,6,6V72z"/>
<path class="st8" d="M684,8h160c6.6,0,12,5.4,12,12v4c0,6.6-5.4,12-12,12H684c-6.6,0-12-5.4-12-12v-4C672,13.4,677.4,8,684,8z"/>
<path class="st9" d="M340,156h-88c-6.6,0-12,5.4-12,12v12c0,6.6,5.4,12,12,12h88c6.6,0,12-5.4,12-12v-12
	C352,161.4,346.6,156,340,156z M260,180c0,3.3-2.7,6-6,6c-3.3,0-6-2.7-6-6v-12c0-3.3,2.7-6,6-6c3.3,0,6,2.7,6,6V180z"/>
<path class="st9" d="M460,156h-88c-6.6,0-12,5.4-12,12v12c0,6.6,5.4,12,12,12h88c6.6,0,12-5.4,12-12v-12
	C472,161.4,466.6,156,460,156z M380,180c0,3.3-2.7,6-6,6s-6-2.7-6-6v-12c0-3.3,2.7-6,6-6s6,2.7,6,6V180z"/>
<path class="st9" d="M220,156h-88c-6.6,0-12,5.4-12,12v12c0,6.6,5.4,12,12,12h88c6.6,0,12-5.4,12-12v-12
	C232,161.4,226.6,156,220,156z M140,180c0,3.3-2.7,6-6,6s-6-2.7-6-6v-12c0-3.3,2.7-6,6-6s6,2.7,6,6V180z"/>
<path class="st9" d="M844,156H684c-6.6,0-12,5.4-12,12v12c0,6.6,5.4,12,12,12h160c6.6,0,12-5.4,12-12v-12
	C856,161.4,850.6,156,844,156z M692,180c0,3.3-2.7,6-6,6s-6-2.7-6-6v-12c0-3.3,2.7-6,6-6s6,2.7,6,6V180z"/>
<path class="st9" d="M652,156H492c-6.6,0-12,5.4-12,12v12c0,6.6,5.4,12,12,12h160c6.6,0,12-5.4,12-12v-12
	C664,161.4,658.6,156,652,156z M500,180c0,3.3-2.7,6-6,6s-6-2.7-6-6v-12c0-3.3,2.7-6,6-6s6,2.7,6,6V180z"/>
<path class="st10" d="M340,200h-88c-6.6,0-12,5.4-12,12v12c0,6.6,5.4,12,12,12h88c6.6,0,12-5.4,12-12v-12
	C352,205.4,346.6,200,340,200z M260,224c0,3.3-2.7,6-6,6c-3.3,0-6-2.7-6-6v-12c0-3.3,2.7-6,6-6c3.3,0,6,2.7,6,6V224z"/>
<path class="st10" d="M460,200h-88c-6.6,0-12,5.4-12,12v12c0,6.6,5.4,12,12,12h88c6.6,0,12-5.4,12-12v-12
	C472,205.4,466.6,200,460,200z M380,224c0,3.3-2.7,6-6,6s-6-2.7-6-6v-12c0-3.3,2.7-6,6-6s6,2.7,6,6V224z"/>
<path class="st10" d="M220,200h-88c-6.6,0-12,5.4-12,12v12c0,6.6,5.4,12,12,12h88c6.6,0,12-5.4,12-12v-12
	C232,205.4,226.6,200,220,200z M140,224c0,3.3-2.7,6-6,6s-6-2.7-6-6v-12c0-3.3,2.7-6,6-6s6,2.7,6,6V224z"/>
<path class="st10" d="M844,200H684c-6.6,0-12,5.4-12,12v12c0,6.6,5.4,12,12,12h160c6.6,0,12-5.4,12-12v-12
	C856,205.4,850.6,200,844,200z M692,224c0,3.3-2.7,6-6,6s-6-2.7-6-6v-12c0-3.3,2.7-6,6-6s6,2.7,6,6V224z"/>
<path class="st10" d="M652,200H492c-6.6,0-12,5.4-12,12v12c0,6.6,5.4,12,12,12h160c6.6,0,12-5.4,12-12v-12
	C664,205.4,658.6,200,652,200z M500,224c0,3.3-2.7,6-6,6s-6-2.7-6-6v-12c0-3.3,2.7-6,6-6s6,2.7,6,6V224z"/>
<linearGradient id="SVGID_00000034805147608699970710000009205168229183151033_" gradientUnits="userSpaceOnUse" x1="296" y1="7.89" x2="296" y2="43.89" gradientTransform="matrix(1 0 0 -1 0 287.89)">
	<stop  offset="0" style="stop-color:#51605C"/>
	<stop  offset="1" style="stop-color:#414951"/>
</linearGradient>
<path style="fill:url(#SVGID_00000034805147608699970710000009205168229183151033_);" d="M340,244h-88c-6.6,0-12,5.4-12,12v12
	c0,6.6,5.4,12,12,12h88c6.6,0,12-5.4,12-12v-12C352,249.4,346.6,244,340,244z M260,268c0,3.3-2.7,6-6,6c-3.3,0-6-2.7-6-6v-12
	c0-3.3,2.7-6,6-6c3.3,0,6,2.7,6,6V268z"/>
<linearGradient id="SVGID_00000052089340513886846400000010934800701007800978_" gradientUnits="userSpaceOnUse" x1="416" y1="7.89" x2="416" y2="43.89" gradientTransform="matrix(1 0 0 -1 0 287.89)">
	<stop  offset="0" style="stop-color:#51605C"/>
	<stop  offset="1" style="stop-color:#414951"/>
</linearGradient>
<path style="fill:url(#SVGID_00000052089340513886846400000010934800701007800978_);" d="M460,244h-88c-6.6,0-12,5.4-12,12v12
	c0,6.6,5.4,12,12,12h88c6.6,0,12-5.4,12-12v-12C472,249.4,466.6,244,460,244z M380,268c0,3.3-2.7,6-6,6s-6-2.7-6-6v-12
	c0-3.3,2.7-6,6-6s6,2.7,6,6V268z"/>
<linearGradient id="SVGID_00000039133274862241157170000006881568155082618262_" gradientUnits="userSpaceOnUse" x1="176" y1="7.89" x2="176" y2="43.89" gradientTransform="matrix(1 0 0 -1 0 287.89)">
	<stop  offset="0" style="stop-color:#51605C"/>
	<stop  offset="1" style="stop-color:#414951"/>
</linearGradient>
<path style="fill:url(#SVGID_00000039133274862241157170000006881568155082618262_);" d="M220,244h-88c-6.6,0-12,5.4-12,12v12
	c0,6.6,5.4,12,12,12h88c6.6,0,12-5.4,12-12v-12C232,249.4,226.6,244,220,244z M140,268c0,3.3-2.7,6-6,6s-6-2.7-6-6v-12
	c0-3.3,2.7-6,6-6s6,2.7,6,6V268z"/>
<linearGradient id="SVGID_00000093883404999869166520000013830623013043902644_" gradientUnits="userSpaceOnUse" x1="764" y1="7.89" x2="764" y2="43.89" gradientTransform="matrix(1 0 0 -1 0 287.89)">
	<stop  offset="0" style="stop-color:#51605C"/>
	<stop  offset="1" style="stop-color:#414951"/>
</linearGradient>
<path style="fill:url(#SVGID_00000093883404999869166520000013830623013043902644_);" d="M844,244H684c-6.6,0-12,5.4-12,12v12
	c0,6.6,5.4,12,12,12h160c6.6,0,12-5.4,12-12v-12C856,249.4,850.6,244,844,244z M692,268c0,3.3-2.7,6-6,6s-6-2.7-6-6v-12
	c0-3.3,2.7-6,6-6s6,2.7,6,6V268z"/>
<linearGradient id="SVGID_00000172399694401436795440000006272176797443715223_" gradientUnits="userSpaceOnUse" x1="572" y1="7.89" x2="572" y2="43.89" gradientTransform="matrix(1 0 0 -1 0 287.89)">
	<stop  offset="0" style="stop-color:#51605C"/>
	<stop  offset="1" style="stop-color:#414951"/>
</linearGradient>
<path style="fill:url(#SVGID_00000172399694401436795440000006272176797443715223_);" d="M652,244H492c-6.6,0-12,5.4-12,12v12
	c0,6.6,5.4,12,12,12h160c6.6,0,12-5.4,12-12v-12C664,249.4,658.6,244,652,244z M500,268c0,3.3-2.7,6-6,6s-6-2.7-6-6v-12
	c0-3.3,2.7-6,6-6s6,2.7,6,6V268z"/>
<path class="st17" d="M157.6,17.1v1h-0.9v7.8h0.9v1h-3.1v-1h1v-7.9h-1v-1L157.6,17.1z"/>
<path class="st17" d="M164.8,26.9h-1.1v-4c0-1.5-0.5-2.2-1.6-2.2c-0.5,0-1.1,0.2-1.4,0.6c-0.4,0.4-0.6,1-0.6,1.6v4H159v-7h1.1v1.2
	l0,0c0.5-0.8,1.3-1.3,2.3-1.3c0.7,0,1.3,0.2,1.8,0.7c0.4,0.6,0.7,1.4,0.6,2.1L164.8,26.9z"/>
<path class="st17" d="M172.5,19.9l-2.8,7h-1.1l-2.6-7h1.2l1.8,5.1c0.1,0.3,0.2,0.7,0.2,1l0,0c0-0.3,0.1-0.6,0.2-1l1.9-5.1
	L172.5,19.9z"/>
<path class="st17" d="M176.5,27.1c-0.9,0-1.8-0.3-2.5-1c-0.6-0.7-1-1.6-0.9-2.6c-0.1-1,0.3-2,1-2.8c0.7-0.7,1.6-1,2.6-1
	c0.9,0,1.8,0.3,2.4,1c0.6,0.7,0.9,1.7,0.9,2.7c0.1,1-0.3,2-0.9,2.7C178.4,26.8,177.5,27.1,176.5,27.1z M176.6,20.7
	c-0.7,0-1.3,0.2-1.7,0.7c-0.4,0.6-0.7,1.3-0.6,2c-0.1,0.7,0.2,1.4,0.6,2c0.4,0.5,1.1,0.7,1.7,0.7c0.6,0,1.3-0.2,1.7-0.7
	c0.4-0.6,0.6-1.3,0.6-2c0-0.7-0.2-1.4-0.6-2C177.9,20.9,177.2,20.7,176.6,20.7z"/>
<path class="st17" d="M182.4,18.1c-0.2,0-0.4-0.1-0.5-0.2c-0.3-0.3-0.3-0.7,0-1c0.1-0.1,0.3-0.2,0.5-0.2c0.2,0,0.4,0.1,0.5,0.2
	c0.3,0.3,0.3,0.7,0,1C182.7,18.1,182.6,18.1,182.4,18.1z M182.9,26.9h-1.1v-7h1.1V26.9z"/>
<path class="st17" d="M190,26.6c-0.6,0.3-1.2,0.5-1.9,0.5c-0.9,0-1.8-0.3-2.4-1c-0.6-0.7-0.9-1.6-0.9-2.5c0-1,0.3-2,1-2.8
	c0.7-0.7,1.7-1.1,2.6-1c0.6,0,1.1,0.1,1.6,0.3v1.1c-0.5-0.4-1.1-0.5-1.7-0.5c-0.7,0-1.3,0.3-1.8,0.8c-0.5,0.6-0.7,1.3-0.7,2
	c0,0.7,0.2,1.4,0.6,1.9c0.4,0.5,1.1,0.7,1.7,0.7c0.6,0,1.2-0.2,1.7-0.6L190,26.6z"/>
<path class="st17" d="M197.3,23.7h-5c0,0.7,0.2,1.3,0.6,1.8c0.4,0.4,1,0.7,1.7,0.6c0.8,0,1.6-0.3,2.2-0.8v1.1
	c-0.7,0.5-1.6,0.7-2.4,0.7c-0.9,0-1.7-0.3-2.3-1c-0.6-0.8-0.9-1.7-0.9-2.7c0-1,0.3-1.9,0.9-2.7c0.6-0.7,1.4-1,2.3-1
	c0.8,0,1.6,0.3,2.1,0.9c0.5,0.7,0.8,1.6,0.8,2.5L197.3,23.7z M196.1,22.7c0-0.5-0.1-1.1-0.5-1.5c-0.3-0.4-0.8-0.6-1.3-0.5
	c-0.5,0-1,0.2-1.4,0.6c-0.4,0.4-0.6,0.9-0.7,1.5L196.1,22.7z"/>
<path class="st17" d="M283.4,27.1c-1.3,0.1-2.5-0.5-3.3-1.4c-0.9-1-1.3-2.3-1.2-3.6c-0.1-1.4,0.4-2.7,1.3-3.8c0.9-1,2.2-1.5,3.5-1.4
	c1.2,0,2.4,0.4,3.3,1.4c0.9,1,1.3,2.3,1.2,3.6c0.1,1.4-0.4,2.7-1.3,3.8C285.9,26.6,284.7,27.1,283.4,27.1z M283.5,18
	c-1,0-1.9,0.4-2.5,1.1c-0.7,0.8-1,1.9-1,2.9c-0.1,1.1,0.3,2.1,0.9,2.9c0.6,0.7,1.5,1.1,2.5,1.1c1,0.1,1.9-0.3,2.5-1
	c0.7-0.8,1-1.9,0.9-3c0.1-1.1-0.3-2.1-0.9-3C285.3,18.3,284.4,18,283.5,18L283.5,18z"/>
<path class="st17" d="M293.5,21c-0.2-0.2-0.5-0.2-0.8-0.2c-0.5,0-0.9,0.3-1.2,0.7c-0.3,0.5-0.5,1.2-0.5,1.8v3.6h-1.1v-7h1.2v1.4l0,0
	c0.1-0.4,0.4-0.8,0.7-1.1c0.3-0.3,0.7-0.4,1.1-0.4c0.2,0,0.5,0,0.7,0.1L293.5,21z"/>
<path class="st17" d="M300.5,26.9h-1.1v-1.2l0,0c-0.5,0.9-1.4,1.4-2.4,1.4c-0.8,0-1.6-0.3-2.1-0.9c-0.6-0.7-0.8-1.6-0.8-2.6
	c-0.1-1,0.3-2,0.9-2.8c0.6-0.7,1.4-1,2.3-1c0.9-0.1,1.7,0.4,2.1,1.1l0,0v-4.4h1.1V26.9z M299.4,23.7v-1c0-0.5-0.2-1-0.6-1.4
	c-0.4-0.4-0.9-0.6-1.4-0.6c-0.6,0-1.2,0.3-1.6,0.8c-0.4,0.6-0.6,1.3-0.6,2.1c0,0.7,0.2,1.4,0.6,1.9c0.4,0.5,0.9,0.7,1.5,0.7
	c0.6,0,1.1-0.2,1.5-0.7C299.2,25,299.4,24.4,299.4,23.7z"/>
<path class="st17" d="M308.4,23.7h-5c0,0.7,0.2,1.3,0.6,1.8c0.4,0.4,1,0.7,1.7,0.6c0.8,0,1.6-0.3,2.2-0.8v1.1
	c-0.7,0.5-1.6,0.7-2.4,0.7c-0.9,0-1.7-0.3-2.3-1c-0.6-0.8-0.9-1.7-0.9-2.7c0-1,0.3-1.9,0.9-2.7c0.6-0.7,1.4-1,2.3-1
	c0.8,0,1.6,0.3,2.1,0.9c0.5,0.7,0.8,1.6,0.8,2.5L308.4,23.7z M307.3,22.7c0-0.5-0.1-1.1-0.5-1.5c-0.3-0.4-0.8-0.6-1.3-0.5
	c-0.5,0-1,0.2-1.4,0.6c-0.4,0.4-0.6,0.9-0.7,1.5L307.3,22.7z"/>
<path class="st17" d="M313.8,21c-0.2-0.2-0.5-0.2-0.8-0.2c-0.5,0-0.9,0.3-1.2,0.7c-0.4,0.5-0.5,1.2-0.5,1.8v3.6h-1.1v-7h1.1v1.4l0,0
	c0.1-0.4,0.4-0.8,0.7-1.1c0.3-0.3,0.7-0.4,1.1-0.4c0.2,0,0.5,0,0.7,0.1L313.8,21z"/>
<path class="st17" d="M391.8,17.1v1h-1v7.8h1v1h-3.1v-1h1v-7.9h-1v-1L391.8,17.1z"/>
<path class="st17" d="M399,26.9h-1.1v-4c0-1.5-0.5-2.2-1.6-2.2c-0.5,0-1,0.2-1.4,0.6c-0.4,0.4-0.6,1-0.5,1.6v4h-1.1v-7h1.1v1.2l0,0
	c0.5-0.8,1.3-1.3,2.3-1.3c0.7,0,1.3,0.2,1.8,0.7c0.4,0.6,0.7,1.4,0.6,2.1L399,26.9z"/>
<path class="st17" d="M406.7,19.9l-2.8,7h-1.1l-2.6-7h1.2l1.8,5.1c0.1,0.3,0.2,0.7,0.2,1l0,0c0-0.3,0.1-0.6,0.2-1l1.9-5.1
	L406.7,19.9z"/>
<path class="st17" d="M414.7,23.3H412V26h-0.9v-2.7h-2.8v-0.9h2.8v-2.8h0.9v2.8h2.8L414.7,23.3z"/>
<path class="st17" d="M425.4,27.1c-1.3,0.1-2.5-0.4-3.4-1.4c-0.9-1-1.3-2.3-1.2-3.6c-0.1-1.4,0.4-2.7,1.3-3.8c0.9-1,2.2-1.5,3.5-1.4
	c1.2-0.1,2.4,0.4,3.3,1.4c0.9,1,1.3,2.3,1.2,3.6c0.1,1.4-0.4,2.7-1.3,3.8C427.9,26.6,426.7,27.1,425.4,27.1z M425.5,18
	c-0.9,0-1.8,0.4-2.5,1.1c-0.7,0.8-1,1.9-1,2.9c-0.1,1.1,0.3,2.1,0.9,2.9c0.6,0.7,1.5,1.1,2.5,1.1c1,0.1,1.9-0.3,2.5-1
	c0.7-0.8,1-1.9,0.9-3c0.1-1.1-0.3-2.1-0.9-3C427.3,18.3,426.4,18,425.5,18L425.5,18z"/>
<path class="st17" d="M435.5,21c-0.3-0.2-0.5-0.2-0.9-0.2c-0.5,0-0.9,0.3-1.2,0.7c-0.4,0.5-0.5,1.2-0.5,1.8v3.6h-1.1v-7h1.2v1.4l0,0
	c0.1-0.4,0.4-0.8,0.7-1.1c0.3-0.3,0.7-0.4,1.1-0.4c0.2,0,0.5,0,0.7,0.1L435.5,21z"/>
<path class="st17" d="M442.5,26.9h-1.1v-1.2l0,0c-0.8,1.3-2.5,1.8-3.9,0.9c-0.2-0.1-0.5-0.3-0.6-0.5c-0.6-0.7-0.8-1.6-0.8-2.6
	c-0.1-1,0.3-2,0.9-2.8c0.6-0.7,1.4-1,2.3-1c0.9-0.1,1.7,0.4,2.1,1.1l0,0v-4.4h1.1L442.5,26.9z M441.4,23.7v-1c0-0.5-0.2-1-0.6-1.4
	c-0.4-0.4-0.9-0.6-1.4-0.6c-0.6,0-1.2,0.3-1.6,0.8c-0.4,0.6-0.6,1.3-0.6,2.1c0,0.7,0.2,1.4,0.6,1.9c0.4,0.5,0.9,0.7,1.5,0.7
	c0.6,0,1.1-0.2,1.5-0.7C441.2,25,441.4,24.4,441.4,23.7z"/>
<path class="st18" d="M27.2,70.9h-1.4l-5.1-7.8c-0.1-0.2-0.2-0.4-0.3-0.6l0,0c0,0.4,0.1,0.9,0,1.3v7.1h-1.2v-9.8h1.5l4.9,7.7
	c0.1,0.2,0.3,0.4,0.4,0.7l0,0C26,69,26,68.5,26,68v-6.9h1.1L27.2,70.9z"/>
<path class="st18" d="M35,70.9h-5.2v-9.8h5v1h-3.9v3.3h3.5v1h-3.5v3.4h4L35,70.9z"/>
<path class="st18" d="M42.7,62.1h-2.8v8.8h-1.1v-8.8h-2.8v-1h6.8V62.1z"/>
<path class="st18" d="M55.3,61.1l-3.6,9.8h-1.3l-3.5-9.8h1.3l2.7,7.8c0.1,0.3,0.2,0.6,0.2,0.9l0,0c0-0.3,0.1-0.6,0.2-0.9l2.8-7.8
	L55.3,61.1z"/>
<path class="st18" d="M60.6,70.9h-1.1v-1.1l0,0c-0.4,0.8-1.3,1.3-2.2,1.3c-0.6,0-1.2-0.2-1.6-0.6c-0.4-0.4-0.7-0.9-0.6-1.5
	c0-1.3,0.8-2.1,2.3-2.3l2.1-0.3c0-1.2-0.5-1.8-1.5-1.8c-0.8,0-1.6,0.3-2.3,0.9v-1.1c0.7-0.4,1.5-0.7,2.4-0.7c1.7,0,2.5,0.9,2.5,2.6
	L60.6,70.9z M59.5,67.4l-1.7,0.2c-0.4,0-0.8,0.2-1.2,0.4c-0.3,0.2-0.4,0.6-0.4,1c0,0.3,0.1,0.6,0.4,0.8c0.3,0.2,0.6,0.3,1,0.3
	c0.5,0,1-0.2,1.4-0.6c0.4-0.4,0.6-0.9,0.5-1.5L59.5,67.4z"/>
<path class="st18" d="M63.8,70.9h-1.1V60.5h1.1V70.9z"/>
<path class="st18" d="M71.8,70.9h-1.1v-1.1l0,0c-0.4,0.8-1.3,1.3-2.2,1.3c-1.7,0-2.5-1-2.5-3v-4.2h1.1v4c0,1.5,0.6,2.2,1.7,2.2
	c0.5,0,1-0.2,1.3-0.6c0.4-0.4,0.6-1,0.5-1.6v-4h1.1L71.8,70.9z"/>
<path class="st18" d="M79.6,67.7h-4.9c0,0.7,0.2,1.3,0.6,1.8c0.4,0.4,1,0.7,1.7,0.6c0.8,0,1.6-0.3,2.2-0.8v1.1
	c-0.7,0.5-1.6,0.7-2.4,0.7c-0.9,0-1.7-0.3-2.3-1c-0.6-0.8-0.9-1.7-0.8-2.7c0-1,0.3-1.9,0.9-2.7c0.6-0.7,1.4-1,2.3-1
	c0.8-0.1,1.6,0.3,2.1,0.9c0.5,0.7,0.8,1.6,0.8,2.5L79.6,67.7z M78.5,66.7c0-0.5-0.2-1-0.5-1.5c-0.3-0.4-0.8-0.6-1.3-0.5
	c-0.5,0-1,0.2-1.3,0.6c-0.4,0.4-0.6,0.9-0.7,1.5L78.5,66.7z"/>
<path class="st18" d="M29.3,122.9h-1.1v-6.6c0-0.5,0-1.2,0.1-1.9l0,0c-0.1,0.3-0.2,0.7-0.3,1l-3.4,7.5H24l-3.3-7.5
	c-0.1-0.3-0.2-0.7-0.3-1l0,0c0,0.4,0,1,0,1.9v6.6h-1.1v-9.8h1.5l3,6.8c0.2,0.4,0.3,0.8,0.5,1.2l0,0c0.2-0.5,0.4-0.9,0.5-1.2l3.1-6.8
	h1.4L29.3,122.9z"/>
<path class="st18" d="M36.7,122.9h-1.1v-1.1l0,0c-0.4,0.8-1.3,1.3-2.2,1.3c-0.6,0-1.2-0.2-1.6-0.6c-0.4-0.4-0.6-0.9-0.6-1.5
	c0-1.3,0.8-2.1,2.3-2.3l2.1-0.3c0-1.2-0.5-1.8-1.5-1.8c-0.8,0-1.6,0.3-2.3,0.9v-1.2c0.7-0.4,1.5-0.7,2.4-0.7c1.6,0,2.5,0.9,2.5,2.6
	L36.7,122.9z M35.6,119.4l-1.7,0.2c-0.4,0-0.8,0.2-1.2,0.4c-0.3,0.2-0.4,0.6-0.4,1c0,0.3,0.1,0.6,0.4,0.8c0.3,0.2,0.6,0.3,1,0.3
	c0.5,0,1-0.2,1.4-0.6c0.4-0.4,0.6-0.9,0.5-1.5L35.6,119.4z"/>
<path class="st18" d="M42.5,117c-0.3-0.2-0.5-0.2-0.8-0.2c-0.5,0-0.9,0.3-1.2,0.7c-0.3,0.5-0.5,1.2-0.5,1.8v3.6h-1.1v-7H40v1.4l0,0
	c0.1-0.4,0.4-0.8,0.7-1.2c0.3-0.3,0.7-0.4,1.1-0.4c0.2,0,0.5,0,0.7,0.1L42.5,117z"/>
<path class="st18" d="M49.5,122.3c0,2.6-1.2,3.9-3.7,3.9c-0.8,0-1.6-0.2-2.3-0.5v-1.1c0.7,0.4,1.5,0.6,2.2,0.7
	c1.7,0,2.6-0.9,2.6-2.8v-0.8l0,0c-0.8,1.3-2.6,1.7-3.9,0.9c-0.2-0.1-0.4-0.3-0.6-0.5c-0.6-0.7-0.8-1.6-0.8-2.5c-0.1-1,0.3-2,0.9-2.8
	c0.6-0.7,1.4-1.1,2.3-1.1c0.9,0,1.7,0.4,2.1,1.1l0,0v-1h1.1L49.5,122.3z M48.4,119.7v-1c0-0.5-0.2-1-0.6-1.4
	c-0.4-0.4-0.9-0.6-1.4-0.6c-0.6,0-1.2,0.3-1.6,0.8c-0.4,0.6-0.6,1.4-0.6,2.1c0,0.7,0.2,1.3,0.6,1.9c0.4,0.5,0.9,0.7,1.5,0.7
	c0.6,0,1.1-0.2,1.5-0.7C48.2,121,48.4,120.4,48.4,119.7z"/>
<path class="st18" d="M52.3,114.1c-0.2,0-0.4-0.1-0.5-0.2c-0.2-0.3-0.1-0.8,0.3-1c0.2-0.1,0.5-0.1,0.7,0c0.3,0.3,0.3,0.7,0,1
	C52.7,114,52.5,114.1,52.3,114.1z M52.9,122.9h-1.1v-7h1.1L52.9,122.9z"/>
<path class="st18" d="M61,122.9h-1.2v-4c0-1.5-0.5-2.2-1.6-2.2c-0.5,0-1,0.2-1.4,0.6c-0.4,0.4-0.6,1-0.5,1.6v4h-1.1v-7h1.1v1.2l0,0
	c0.5-0.8,1.3-1.3,2.3-1.3c0.7,0,1.3,0.2,1.8,0.7c0.4,0.6,0.7,1.4,0.6,2.1L61,122.9z"/>
<path class="st18" d="M27.2,178.9h-1.4l-5.1-7.8c-0.1-0.2-0.2-0.4-0.3-0.6l0,0c0,0.4,0.1,0.9,0,1.4v7.1h-1.2v-9.8h1.5l4.9,7.7
	c0.1,0.2,0.3,0.4,0.4,0.7l0,0c-0.1-0.5-0.1-1-0.1-1.5v-6.9h1.1L27.2,178.9z"/>
<path class="st18" d="M35.2,175.7h-4.9c0,0.7,0.2,1.3,0.6,1.8c0.4,0.4,1,0.7,1.6,0.6c0.8,0,1.6-0.3,2.2-0.8v1.1
	c-0.7,0.5-1.6,0.7-2.4,0.7c-0.9,0-1.7-0.3-2.3-1c-0.6-0.8-0.9-1.7-0.9-2.7c0-1,0.3-1.9,0.9-2.7c0.6-0.7,1.4-1,2.3-1
	c0.8,0,1.6,0.3,2.1,0.9c0.5,0.7,0.8,1.6,0.8,2.5V175.7z M34.1,174.7c0-0.5-0.1-1.1-0.5-1.5c-0.3-0.4-0.8-0.6-1.3-0.5
	c-0.5,0-1,0.2-1.3,0.6c-0.4,0.4-0.6,0.9-0.7,1.5L34.1,174.7z"/>
<path class="st18" d="M40.2,178.8c-0.3,0.2-0.7,0.2-1,0.2c-1.2,0-1.8-0.7-1.8-2.1v-4.1h-1.2v-1h1.2v-1.7l1.1-0.4v2.1h1.8v1h-1.8v3.9
	c0,0.4,0.1,0.7,0.2,1c0.2,0.2,0.5,0.3,0.8,0.3c0.3,0,0.5-0.1,0.7-0.2L40.2,178.8z"/>
<path class="st18" d="M57.3,169.1l-2.8,9.8h-1.3l-2-7.2c-0.1-0.3-0.1-0.7-0.2-1l0,0c0,0.3-0.1,0.7-0.2,1l-2,7.2h-1.4l-2.9-9.8h1.3
	l2.1,7.5c0.1,0.3,0.1,0.7,0.2,1l0,0c0-0.3,0.1-0.7,0.2-1l2.2-7.5h1.1l2.1,7.6c0.1,0.3,0.1,0.6,0.2,0.9l0,0c0-0.3,0.1-0.6,0.2-0.9
	l2-7.6L57.3,169.1z"/>
<path class="st18" d="M63.9,175.7h-5c0,0.7,0.2,1.3,0.6,1.8c0.4,0.4,1,0.7,1.7,0.6c0.8,0,1.6-0.3,2.2-0.8v1.1
	c-0.7,0.5-1.6,0.7-2.4,0.7c-0.9,0-1.7-0.3-2.3-1c-0.6-0.8-0.9-1.7-0.8-2.7c0-1,0.3-1.9,0.9-2.7c0.6-0.7,1.4-1,2.3-1
	c0.8,0,1.6,0.3,2.1,0.9c0.5,0.7,0.8,1.6,0.8,2.5L63.9,175.7z M62.7,174.7c0-0.5-0.1-1.1-0.5-1.5c-0.3-0.4-0.8-0.6-1.3-0.5
	c-0.5,0-1,0.2-1.3,0.6c-0.4,0.4-0.6,0.9-0.7,1.5L62.7,174.7z"/>
<path class="st18" d="M66.2,170.1c-0.2,0-0.4-0.1-0.5-0.2c-0.3-0.3-0.3-0.7,0-1c0.1-0.1,0.3-0.2,0.5-0.2c0.2,0,0.4,0.1,0.5,0.2
	c0.3,0.3,0.3,0.7,0,1C66.5,170,66.3,170.1,66.2,170.1z M66.7,178.9h-1.1v-7h1.1V178.9z"/>
<path class="st18" d="M74.9,178.3c0,2.6-1.2,3.9-3.7,3.9c-0.8,0-1.6-0.2-2.3-0.5v-1.1c0.7,0.4,1.5,0.6,2.2,0.7
	c1.7,0,2.6-0.9,2.6-2.8v-0.8l0,0c-0.8,1.3-2.6,1.7-3.9,0.9c-0.2-0.1-0.4-0.3-0.6-0.5c-0.6-0.7-0.8-1.6-0.8-2.5c-0.1-1,0.3-2,0.9-2.8
	c0.6-0.7,1.5-1.1,2.3-1c0.9,0,1.7,0.4,2.1,1.1l0,0v-1h1.1L74.9,178.3z M73.8,175.7v-1c0-0.5-0.2-1-0.6-1.4c-0.4-0.4-0.9-0.6-1.4-0.6
	c-0.6,0-1.2,0.3-1.6,0.8c-0.4,0.6-0.6,1.4-0.6,2.1c0,0.7,0.2,1.3,0.6,1.9c0.4,0.5,0.9,0.7,1.5,0.7c0.6,0,1.1-0.2,1.5-0.7
	C73.6,177,73.9,176.4,73.8,175.7L73.8,175.7z"/>
<path class="st18" d="M83,178.9h-1.1v-4c0-1.5-0.6-2.2-1.6-2.2c-0.5,0-1,0.2-1.4,0.6c-0.4,0.5-0.6,1-0.6,1.6v4h-1.1v-10.4h1.1v4.5
	l0,0c0.5-0.8,1.3-1.3,2.3-1.3c1.6,0,2.4,0.9,2.4,2.9L83,178.9z"/>
<path class="st18" d="M88.4,178.8c-0.3,0.2-0.7,0.2-1,0.2c-1.2,0-1.8-0.7-1.8-2.1v-4.1h-1.2v-1h1.2v-1.7l1.1-0.4v2.1h1.8v1h-1.8v3.9
	c0,0.4,0.1,0.7,0.2,1c0.2,0.2,0.5,0.3,0.8,0.3c0.3,0,0.5-0.1,0.7-0.2V178.8z"/>
<path class="st17" d="M537.5,26.9h-5.1v-9.8h1.2v8.8h3.9L537.5,26.9z"/>
<path class="st17" d="M544.5,17.1l-3.2,6.2v3.6h-1.2v-3.6l-3.1-6.2h1.3l2.2,4.4c0,0,0.1,0.2,0.2,0.6l0,0c0.1-0.2,0.2-0.4,0.3-0.6
	l2.3-4.4H544.5z"/>
<path class="st17" d="M551.8,17.1v1h-1v7.8h1v1h-3.1v-1h1v-7.9h-1v-1L551.8,17.1z"/>
<path class="st17" d="M559.1,26.9H558v-4c0-1.5-0.5-2.2-1.6-2.2c-0.5,0-1,0.2-1.4,0.6c-0.4,0.4-0.6,1-0.5,1.6v4h-1.1v-7h1.1v1.2l0,0
	c0.5-0.8,1.3-1.3,2.3-1.3c0.7,0,1.3,0.2,1.8,0.7c0.4,0.6,0.7,1.4,0.6,2.1L559.1,26.9z"/>
<path class="st17" d="M566.7,19.9l-2.8,7h-1.1l-2.7-7h1.2l1.8,5.1c0.1,0.3,0.2,0.7,0.2,1l0,0c0-0.3,0.1-0.6,0.2-1l1.9-5.1
	L566.7,19.9z"/>
<path class="st17" d="M574.3,17.2c-1.2,1.7-1.8,3.7-1.8,5.7c0,2,0.6,4,1.8,5.7h-1c-1.2-1.6-1.9-3.6-1.8-5.7c0-2.1,0.6-4.1,1.8-5.7
	H574.3z"/>
<path class="st17" d="M574.9,26.2l3.3-8.8h1.4l3.2,8.7v0.7h-7.9V26.2z M581.5,25.9l-1.9-5.2c-0.2-0.7-0.5-1.5-0.7-2.1l0,0
	c-0.1,0.5-0.4,1.3-0.6,1.9l-2,5.4L581.5,25.9z"/>
<path class="st17" d="M586.2,27.5l3.9-10.1h1l-3.9,10.1H586.2z"/>
<path class="st17" d="M598.7,20.4c0,1.9-1,2.9-2.2,2.9s-2.1-0.9-2.1-2.7s1-2.9,2.2-2.9S598.7,18.6,598.7,20.4z M595.4,20.4
	c0,1.2,0.4,2,1.2,2s1.2-0.9,1.2-2.1s-0.3-2-1.2-2S595.4,19.3,595.4,20.4L595.4,20.4z M596.4,27.1l5.3-9.4h0.8l-5.3,9.4H596.4z
	 M604.6,24.1c0,1.9-1,2.9-2.2,2.9s-2.1-0.9-2.1-2.7s1-2.9,2.2-2.9S604.6,22.4,604.6,24.1L604.6,24.1z M601.3,24.2c0,1.2,0.4,2,1.2,2
	s1.2-0.9,1.2-2.1s-0.3-2-1.2-2S601.3,23.1,601.3,24.2L601.3,24.2z"/>
<path class="st17" d="M605.3,28.6c1.2-1.7,1.8-3.7,1.8-5.7c0.1-2-0.6-4-1.8-5.7h1c1.3,1.6,1.9,3.6,1.8,5.7c0.1,2.1-0.6,4.1-1.8,5.7
	H605.3z"/>
<path class="st17" d="M737.4,26.2c-1,0.6-2.1,0.9-3.3,0.8c-1.3,0-2.5-0.4-3.4-1.4c-0.9-1-1.3-2.3-1.3-3.6c0-1.4,0.5-2.7,1.4-3.7
	c1-1,2.3-1.5,3.6-1.5c0.9,0,1.8,0.1,2.7,0.5v1.3c-0.8-0.5-1.8-0.8-2.8-0.8c-1,0-2,0.4-2.7,1.1c-0.7,0.8-1.1,1.9-1,2.9
	c-0.1,1.1,0.3,2.1,1,2.9c0.7,0.7,1.6,1.1,2.6,1c0.7,0,1.4-0.1,2-0.5v-2.7h-2.2v-1h3.3L737.4,26.2z"/>
<path class="st17" d="M742.5,27.1c-0.9,0-1.8-0.3-2.5-1c-0.6-0.7-1-1.6-0.9-2.6c0-1,0.3-2,1-2.8c0.7-0.7,1.6-1,2.6-1
	c0.9,0,1.8,0.3,2.5,1c0.6,0.7,0.9,1.7,0.9,2.7c0,1-0.3,2-1,2.7C744.3,26.8,743.4,27.1,742.5,27.1z M742.5,20.7
	c-0.7,0-1.3,0.2-1.7,0.7c-0.4,0.6-0.7,1.3-0.6,2c0,0.7,0.2,1.4,0.6,2c0.4,0.5,1.1,0.7,1.7,0.7c0.6,0,1.3-0.2,1.7-0.7
	c0.4-0.6,0.6-1.3,0.6-2c0-0.7-0.2-1.4-0.6-2C743.8,20.9,743.2,20.6,742.5,20.7z"/>
<path class="st17" d="M752.5,26.9h-1.1v-1.1l0,0c-0.4,0.8-1.3,1.3-2.2,1.3c-0.6,0-1.2-0.2-1.6-0.6c-0.4-0.4-0.7-0.9-0.6-1.5
	c0-1.3,0.8-2.1,2.3-2.3l2.1-0.3c0-1.2-0.5-1.8-1.4-1.8c-0.8,0-1.6,0.3-2.3,0.9v-1.1c0.7-0.4,1.5-0.7,2.4-0.6c1.6,0,2.5,0.9,2.5,2.6
	L752.5,26.9z M751.4,23.4l-1.7,0.2c-0.4,0-0.8,0.2-1.2,0.4c-0.3,0.2-0.5,0.6-0.4,1c0,0.3,0.1,0.6,0.4,0.8c0.3,0.2,0.6,0.3,1,0.3
	c0.5,0,1-0.2,1.4-0.6c0.4-0.4,0.6-0.9,0.5-1.5L751.4,23.4z"/>
<path class="st17" d="M755.8,26.9h-1.1V16.5h1.1V26.9z"/>
<path class="st17" d="M764.5,17.2c-1.2,1.7-1.8,3.7-1.8,5.7c0,2,0.6,4,1.8,5.7h-1c-1.2-1.6-1.9-3.6-1.8-5.7c0-2.1,0.6-4.1,1.8-5.7
	H764.5z"/>
<path class="st17" d="M765.1,26.2l3.3-8.8h1.4l3.2,8.7v0.7h-7.9L765.1,26.2z M771.7,25.9l-1.9-5.2c-0.2-0.7-0.5-1.5-0.7-2.1l0,0
	c-0.1,0.5-0.4,1.3-0.6,1.9l-2,5.4L771.7,25.9z"/>
<path class="st17" d="M776.4,27.5l3.9-10.1h1l-3.9,10.1H776.4z"/>
<path class="st17" d="M788.9,20.4c0,1.9-1,2.9-2.2,2.9s-2.1-0.9-2.1-2.7s1-2.9,2.2-2.9S788.9,18.6,788.9,20.4z M785.5,20.4
	c0,1.2,0.4,2,1.2,2s1.2-0.9,1.2-2.1s-0.3-2-1.2-2S785.5,19.3,785.5,20.4z M786.6,27.1l5.4-9.4h0.8l-5.3,9.4L786.6,27.1z M794.8,24.1
	c0,1.9-1,2.9-2.2,2.9s-2.1-0.9-2.1-2.7s1-2.9,2.2-2.9S794.8,22.4,794.8,24.1z M791.5,24.2c0,1.2,0.4,2,1.2,2s1.2-0.9,1.2-2.1
	s-0.3-2-1.2-2S791.5,23.1,791.5,24.2z"/>
<path class="st17" d="M795.5,28.6c1.2-1.7,1.8-3.7,1.8-5.7c0.1-2-0.6-4-1.8-5.7h1c1.3,1.6,1.9,3.6,1.8,5.7c0.1,2.1-0.6,4.1-1.8,5.7
	H795.5z"/>
<path class="st17" d="M915.5,18.1h-3.8v3.4h3.5v1h-3.5v4.4h-1.2v-9.8h5L915.5,18.1z"/>
<path class="st17" d="M920.1,27.1c-0.9,0-1.8-0.3-2.5-1c-0.6-0.7-1-1.6-0.9-2.6c0-1,0.3-2,1-2.8c0.7-0.7,1.6-1,2.6-1
	c0.9,0,1.8,0.3,2.4,1c0.6,0.7,0.9,1.7,0.9,2.7c0,1-0.3,2-1,2.7C922,26.8,921,27.1,920.1,27.1z M920.2,20.7c-0.7,0-1.3,0.2-1.7,0.7
	c-0.4,0.6-0.7,1.3-0.6,2c-0.1,0.7,0.2,1.4,0.6,2c0.4,0.5,1.1,0.7,1.7,0.7c0.6,0,1.3-0.2,1.7-0.7c0.4-0.6,0.6-1.3,0.6-2
	c0-0.7-0.2-1.4-0.6-2C921.4,20.9,920.8,20.6,920.2,20.7L920.2,20.7z"/>
<path class="st17" d="M929,21c-0.3-0.2-0.5-0.2-0.8-0.2c-0.5,0-0.9,0.3-1.2,0.7c-0.3,0.5-0.5,1.2-0.5,1.8v3.6h-1.1v-7h1.1v1.4l0,0
	c0.1-0.4,0.4-0.8,0.7-1.1c0.3-0.3,0.7-0.4,1.1-0.4c0.2,0,0.5,0,0.7,0.1L929,21z"/>
<path class="st17" d="M935.7,23.7h-4.9c0,0.7,0.2,1.3,0.6,1.8c0.4,0.4,1,0.7,1.7,0.6c0.8,0,1.6-0.3,2.2-0.8v1.1
	c-0.7,0.5-1.6,0.7-2.4,0.7c-0.9,0-1.7-0.3-2.3-1c-0.6-0.8-0.9-1.7-0.8-2.7c0-1,0.3-1.9,0.9-2.7c0.6-0.7,1.4-1,2.3-1
	c0.8,0,1.6,0.3,2.1,0.9c0.5,0.7,0.8,1.6,0.8,2.5L935.7,23.7z M934.5,22.7c0-0.5-0.1-1.1-0.5-1.5c-0.3-0.4-0.8-0.6-1.3-0.5
	c-0.5,0-1,0.2-1.3,0.6c-0.4,0.4-0.6,0.9-0.7,1.5L934.5,22.7z"/>
<path class="st17" d="M942.1,26.6c-0.6,0.3-1.2,0.5-1.9,0.5c-0.9,0-1.8-0.3-2.4-1c-0.6-0.7-1-1.6-0.9-2.5c-0.1-1,0.3-2,1-2.8
	c0.7-0.7,1.7-1.1,2.6-1c0.6,0,1.1,0.1,1.6,0.3v1.1c-0.5-0.4-1.1-0.5-1.7-0.5c-0.7,0-1.3,0.3-1.8,0.8c-0.5,0.6-0.7,1.3-0.7,2
	c0,0.7,0.2,1.4,0.7,1.9c0.4,0.5,1.1,0.7,1.7,0.7c0.6,0,1.2-0.2,1.7-0.6L942.1,26.6z"/>
<path class="st17" d="M948.8,26.9h-1.1v-1.1l0,0c-0.4,0.8-1.3,1.3-2.2,1.3c-0.6,0-1.2-0.2-1.6-0.6c-0.4-0.4-0.6-0.9-0.6-1.5
	c0-1.3,0.8-2.1,2.3-2.3l2.1-0.3c0-1.2-0.5-1.8-1.4-1.8c-0.8,0-1.7,0.3-2.3,0.9v-1.2c0.7-0.4,1.5-0.7,2.4-0.6c1.7,0,2.5,0.9,2.5,2.6
	L948.8,26.9z M947.7,23.4l-1.7,0.2c-0.4,0-0.8,0.2-1.2,0.4c-0.5,0.5-0.5,1.3,0,1.8c0,0,0,0,0,0c0.3,0.2,0.6,0.3,1,0.3
	c0.5,0,1-0.2,1.4-0.6c0.4-0.4,0.6-0.9,0.5-1.5L947.7,23.4z"/>
<path class="st17" d="M950.5,26.6v-1.2c0.6,0.4,1.3,0.7,2,0.7c1,0,1.5-0.3,1.5-1c0-0.2,0-0.3-0.1-0.5c-0.1-0.1-0.2-0.3-0.3-0.3
	c-0.2-0.1-0.3-0.2-0.5-0.3c-0.2-0.1-0.4-0.2-0.6-0.2c-0.3-0.1-0.5-0.2-0.8-0.4c-0.2-0.1-0.4-0.2-0.6-0.4c-0.2-0.1-0.3-0.3-0.4-0.5
	c-0.1-0.2-0.1-0.5-0.1-0.7c0-0.3,0.1-0.6,0.2-0.9c0.2-0.3,0.4-0.5,0.6-0.6c0.3-0.2,0.6-0.3,0.9-0.4c0.3-0.1,0.7-0.1,1-0.1
	c0.6,0,1.1,0.1,1.6,0.3v1.1c-0.5-0.3-1.1-0.5-1.8-0.5c-0.2,0-0.4,0-0.6,0.1c-0.2,0-0.3,0.1-0.4,0.2c-0.1,0.1-0.2,0.2-0.3,0.3
	c-0.1,0.1-0.1,0.3-0.1,0.4c0,0.2,0,0.3,0.1,0.5c0.1,0.1,0.2,0.2,0.3,0.3c0.1,0.1,0.3,0.2,0.5,0.3l0.6,0.2c0.3,0.1,0.6,0.2,0.8,0.4
	c0.2,0.1,0.4,0.3,0.6,0.4c0.2,0.2,0.3,0.3,0.4,0.5c0.1,0.2,0.1,0.5,0.1,0.7c0,0.3-0.1,0.6-0.2,0.9c-0.2,0.3-0.4,0.5-0.6,0.6
	c-0.3,0.2-0.6,0.3-0.9,0.4c-0.3,0.1-0.7,0.1-1,0.1C951.7,27.1,951.1,26.9,950.5,26.6z"/>
<path class="st17" d="M960.2,26.8c-0.3,0.2-0.7,0.2-1,0.2c-1.2,0-1.8-0.7-1.8-2v-4.1h-1.2v-1h1.2v-1.7l1.1-0.4v2.1h1.8v1h-1.8v3.9
	c0,0.4,0.1,0.7,0.2,1c0.2,0.2,0.5,0.3,0.8,0.3c0.3,0,0.5-0.1,0.7-0.2L960.2,26.8z"/>
<path class="st17" d="M968,17.2c-1.2,1.7-1.8,3.7-1.8,5.7c0,2,0.6,4,1.8,5.7h-1c-1.2-1.6-1.9-3.6-1.8-5.7c0-2.1,0.6-4.1,1.8-5.7H968
	z"/>
<path class="st17" d="M968.7,26.2l3.3-8.8h1.4l3.2,8.7v0.7h-7.9V26.2z M975.2,25.9l-1.9-5.2c-0.2-0.7-0.5-1.5-0.7-2.1l0,0
	c-0.1,0.5-0.4,1.3-0.6,1.9l-2,5.4L975.2,25.9z"/>
<path class="st17" d="M980,27.5l3.9-10.1h1l-4,10.1H980z"/>
<path class="st17" d="M992.5,20.4c0,1.9-1,2.9-2.2,2.9s-2.1-0.9-2.1-2.7s1-2.9,2.2-2.9S992.5,18.6,992.5,20.4z M989.1,20.4
	c0,1.2,0.4,2,1.2,2s1.2-0.9,1.2-2.1s-0.3-2-1.2-2S989.1,19.3,989.1,20.4L989.1,20.4z M990.2,27.1l5.3-9.4h0.8l-5.3,9.4L990.2,27.1z
	 M998.4,24.1c0,1.9-1,2.9-2.2,2.9s-2.1-0.9-2.1-2.7s1-2.9,2.2-2.9S998.4,22.4,998.4,24.1L998.4,24.1z M995.1,24.2c0,1.2,0.4,2,1.2,2
	s1.2-0.9,1.2-2.1s-0.3-2-1.2-2S995.1,23.1,995.1,24.2L995.1,24.2z"/>
<path class="st17" d="M999.1,28.6c1.2-1.7,1.8-3.7,1.8-5.7c0.1-2-0.6-4-1.8-5.7h1c1.3,1.6,1.9,3.6,1.8,5.7c0.1,2.1-0.6,4.1-1.8,5.7
	H999.1z"/>
<path class="st18" d="M26,222.5c-0.8,0.4-1.8,0.6-2.7,0.6c-1.3,0.1-2.5-0.4-3.4-1.4c-0.9-1-1.3-2.2-1.3-3.5
	c-0.1-1.4,0.5-2.8,1.4-3.8c0.9-1,2.2-1.5,3.6-1.4c0.8,0,1.6,0.1,2.3,0.4v1.2c-0.7-0.4-1.5-0.6-2.3-0.6c-1,0-2,0.4-2.7,1.1
	c-0.7,0.8-1.1,1.9-1,3c-0.1,1,0.3,2.1,1,2.9c0.6,0.7,1.5,1.1,2.5,1c0.9,0,1.8-0.2,2.6-0.6L26,222.5z"/>
<path class="st18" d="M33.5,222.9h-1.1v-1.1l0,0c-0.4,0.8-1.3,1.3-2.2,1.3c-1.7,0-2.5-1-2.5-3v-4.2h1.1v4c0,1.5,0.6,2.2,1.7,2.2
	c0.5,0,1-0.2,1.4-0.6c0.4-0.4,0.6-1,0.5-1.6v-4h1.1L33.5,222.9z"/>
<path class="st18" d="M35.3,222.6v-1.2c0.6,0.4,1.3,0.7,2,0.7c1,0,1.5-0.3,1.5-1c0-0.2,0-0.3-0.1-0.5c-0.1-0.1-0.2-0.2-0.3-0.3
	c-0.2-0.1-0.3-0.2-0.5-0.3l-0.6-0.2c-0.3-0.1-0.6-0.2-0.8-0.4c-0.2-0.1-0.4-0.3-0.6-0.4c-0.2-0.1-0.3-0.3-0.3-0.5
	c-0.1-0.2-0.1-0.5-0.1-0.7c0-0.3,0.1-0.6,0.2-0.9c0.2-0.3,0.4-0.5,0.6-0.6c0.3-0.2,0.6-0.3,0.9-0.4c0.3-0.1,0.7-0.1,1-0.1
	c0.6,0,1.1,0.1,1.6,0.3v1.1c-0.5-0.3-1.1-0.5-1.8-0.5c-0.2,0-0.4,0-0.6,0.1c-0.2,0-0.3,0.1-0.4,0.2c-0.1,0.1-0.2,0.2-0.3,0.3
	c-0.1,0.1-0.1,0.3-0.1,0.4c0,0.2,0,0.3,0.1,0.4c0.1,0.1,0.2,0.2,0.3,0.3c0.1,0.1,0.3,0.2,0.5,0.3l0.6,0.2c0.3,0.1,0.6,0.2,0.8,0.4
	c0.2,0.1,0.4,0.3,0.6,0.4c0.2,0.2,0.3,0.3,0.4,0.6c0.2,0.5,0.2,1.1-0.1,1.6c-0.1,0.3-0.4,0.5-0.6,0.6c-0.3,0.2-0.6,0.3-0.9,0.4
	c-0.3,0.1-0.7,0.1-1,0.1C36.5,223.1,35.9,222.9,35.3,222.6z"/>
<path class="st18" d="M44.9,222.8c-0.3,0.2-0.7,0.2-1,0.2c-1.2,0-1.8-0.7-1.8-2.1v-4.1h-1.2v-1H42v-1.7l1.1-0.4v2.1h1.8v1h-1.7v3.9
	c0,0.4,0.1,0.7,0.2,1c0.2,0.2,0.5,0.3,0.8,0.3c0.3,0,0.5-0.1,0.7-0.2L44.9,222.8z"/>
<path class="st18" d="M49.2,223.1c-0.9,0-1.8-0.3-2.5-1c-0.6-0.7-1-1.6-0.9-2.6c-0.1-1,0.3-2,1-2.8c0.7-0.7,1.6-1,2.6-1
	c0.9,0,1.8,0.3,2.4,1c1.2,1.6,1.2,3.8-0.1,5.4C51.1,222.8,50.2,223.1,49.2,223.1z M49.3,216.7c-0.7,0-1.3,0.2-1.7,0.7
	c-0.4,0.6-0.7,1.3-0.6,2c-0.1,0.7,0.2,1.4,0.6,2c0.4,0.5,1.1,0.7,1.7,0.7c0.6,0,1.3-0.2,1.7-0.7c0.4-0.6,0.6-1.3,0.6-2
	c0-0.7-0.2-1.4-0.6-2C50.6,216.9,50,216.7,49.3,216.7L49.3,216.7z"/>
<path class="st18" d="M64.4,222.9h-1.1v-4c0.1-0.6,0-1.2-0.3-1.7c-0.3-0.4-0.7-0.6-1.2-0.5c-0.5,0-0.9,0.3-1.2,0.7
	c-0.3,0.4-0.5,1-0.5,1.6v4h-1.2v-4.1c0-1.4-0.5-2.1-1.6-2.1c-0.5,0-0.9,0.2-1.2,0.6c-0.3,0.5-0.5,1-0.5,1.6v4h-1.1v-7h1.1v1.1l0,0
	c0.4-0.8,1.3-1.3,2.2-1.3c0.4,0,0.9,0.1,1.2,0.4c0.4,0.3,0.6,0.6,0.7,1.1c0.4-0.9,1.3-1.5,2.3-1.4c1.5,0,2.3,0.9,2.3,2.9L64.4,222.9
	z"/>
<path class="st18" d="M72.2,219.7h-4.9c0,0.7,0.2,1.3,0.6,1.8c0.4,0.4,1,0.7,1.7,0.6c0.8,0,1.6-0.3,2.2-0.8v1.1
	c-0.7,0.5-1.6,0.7-2.4,0.7c-0.9,0-1.7-0.3-2.3-1c-0.6-0.8-0.9-1.7-0.8-2.7c0-1,0.3-1.9,0.9-2.7c0.6-0.7,1.4-1,2.3-1
	c0.8-0.1,1.6,0.3,2.1,0.9c0.5,0.7,0.8,1.6,0.8,2.5L72.2,219.7z M71,218.7c0-0.5-0.1-1.1-0.5-1.5c-0.3-0.4-0.8-0.6-1.3-0.5
	c-0.5,0-1,0.2-1.3,0.6c-0.4,0.4-0.6,0.9-0.7,1.5L71,218.7z"/>
<path class="st18" d="M77.5,217c-0.2-0.2-0.5-0.2-0.8-0.2c-0.5,0-0.9,0.3-1.2,0.7c-0.4,0.5-0.5,1.2-0.5,1.8v3.6h-1.1v-7H75v1.4l0,0
	c0.1-0.4,0.4-0.8,0.7-1.1c0.3-0.3,0.7-0.4,1.1-0.4c0.2,0,0.5,0,0.7,0.1L77.5,217z"/>
<path class="st18" d="M27.2,266.9h-1.4l-5.1-7.8c-0.1-0.2-0.2-0.4-0.3-0.6l0,0c0,0.4,0.1,0.9,0,1.4v7.1h-1.2v-9.8h1.5l4.9,7.7
	c0.1,0.2,0.3,0.4,0.4,0.7l0,0c-0.1-0.5-0.1-1-0.1-1.5v-6.9h1.1L27.2,266.9z"/>
<path class="st18" d="M35,266.9h-5.2v-9.8h5v1h-3.9v3.3h3.5v1h-3.5v3.4h4L35,266.9z"/>
<path class="st18" d="M42.7,258.1h-2.8v8.8h-1.1v-8.8h-2.8v-1h6.8V258.1z"/>
<path class="st18" d="M52.3,257.1l-4.7,11.4h-1l4.7-11.4H52.3z"/>
<path class="st18" d="M64,266.5c-0.8,0.4-1.8,0.6-2.7,0.6c-1.3,0.1-2.5-0.4-3.3-1.4c-0.9-1-1.3-2.2-1.3-3.5
	c-0.1-1.4,0.5-2.8,1.4-3.8c0.9-1,2.2-1.5,3.6-1.5c0.8,0,1.6,0.1,2.3,0.4v1.2c-0.7-0.4-1.5-0.6-2.3-0.6c-1,0-2,0.4-2.7,1.1
	c-0.7,0.8-1.1,1.9-1,3c-0.1,1,0.3,2.1,1,2.9c0.6,0.7,1.6,1.1,2.5,1.1c0.9,0,1.8-0.2,2.6-0.6V266.5z"/>
<path class="st18" d="M71.5,266.9h-1.1v-1.1l0,0c-0.4,0.8-1.3,1.3-2.2,1.3c-1.7,0-2.5-1-2.5-3v-4.2h1.1v4c0,1.5,0.6,2.2,1.7,2.2
	c0.5,0,1-0.2,1.3-0.6c0.4-0.4,0.6-1,0.5-1.6v-4h1.1V266.9z"/>
<path class="st18" d="M73.3,266.6v-1.2c0.6,0.4,1.3,0.7,2,0.7c1,0,1.5-0.3,1.5-1c0-0.2,0-0.3-0.1-0.5c-0.1-0.1-0.2-0.3-0.3-0.3
	c-0.2-0.1-0.3-0.2-0.5-0.3l-0.6-0.2c-0.3-0.1-0.6-0.2-0.8-0.4c-0.2-0.1-0.4-0.3-0.6-0.4c-0.2-0.2-0.3-0.3-0.3-0.5
	c-0.1-0.2-0.1-0.5-0.1-0.7c0-0.3,0.1-0.6,0.2-0.9c0.2-0.3,0.4-0.5,0.6-0.6c0.3-0.2,0.6-0.3,0.9-0.4c0.3-0.1,0.7-0.1,1-0.1
	c0.6,0,1.1,0.1,1.6,0.3v1.1c-0.5-0.3-1.1-0.5-1.8-0.5c-0.2,0-0.4,0-0.6,0.1c-0.2,0-0.3,0.1-0.4,0.2c-0.2,0.2-0.4,0.4-0.4,0.7
	c0,0.2,0,0.3,0.1,0.5c0.1,0.1,0.2,0.2,0.3,0.3c0.1,0.1,0.3,0.2,0.5,0.3L76,263c0.3,0.1,0.6,0.2,0.8,0.4c0.2,0.1,0.4,0.3,0.6,0.4
	c0.3,0.3,0.5,0.7,0.5,1.2c0,0.3-0.1,0.6-0.2,0.9c-0.2,0.3-0.4,0.5-0.6,0.6c-0.3,0.2-0.6,0.3-0.9,0.4c-0.3,0.1-0.7,0.1-1,0.1
	C74.6,267.1,73.9,266.9,73.3,266.6z"/>
<path class="st18" d="M83,266.8c-0.3,0.2-0.7,0.2-1,0.2c-1.2,0-1.8-0.7-1.8-2v-4.1H79v-1h1.2v-1.7l1.1-0.4v2.1H83v1h-1.8v3.9
	c0,0.4,0.1,0.7,0.2,1c0.2,0.2,0.5,0.3,0.8,0.3c0.3,0,0.5-0.1,0.7-0.2L83,266.8z"/>
<path class="st18" d="M87.3,267.1c-0.9,0-1.8-0.3-2.5-1c-0.6-0.7-1-1.6-0.9-2.6c0-1,0.3-2,1-2.8c0.7-0.7,1.6-1,2.6-1
	c0.9,0,1.8,0.3,2.4,1c0.6,0.7,0.9,1.7,0.9,2.7c0,1-0.3,1.9-0.9,2.7C89.2,266.8,88.2,267.1,87.3,267.1z M87.3,260.7
	c-0.7,0-1.3,0.2-1.7,0.7c-0.4,0.6-0.7,1.3-0.6,2c-0.1,0.7,0.2,1.4,0.6,2c0.4,0.5,1.1,0.7,1.7,0.7c0.6,0,1.3-0.2,1.7-0.7
	c0.4-0.6,0.6-1.3,0.6-2c0-0.7-0.2-1.4-0.6-2C88.6,260.9,88,260.6,87.3,260.7z"/>
<path class="st18" d="M102.5,266.9h-1.1v-4c0-0.6-0.1-1.2-0.3-1.7c-0.3-0.4-0.7-0.6-1.2-0.5c-0.5,0-0.9,0.3-1.2,0.7
	c-0.3,0.5-0.5,1-0.5,1.6v4H97v-4.1c0-1.4-0.5-2.1-1.6-2.1c-0.5,0-0.9,0.2-1.2,0.6c-0.3,0.5-0.5,1-0.5,1.6v4h-1.2v-7h1.1v1.1l0,0
	c0.4-0.8,1.3-1.3,2.2-1.3c0.4,0,0.9,0.1,1.2,0.4c0.4,0.3,0.6,0.6,0.7,1c0.4-0.9,1.3-1.5,2.3-1.5c1.6,0,2.3,1,2.3,2.9L102.5,266.9z"
	/>
<path class="st18" d="M110.2,263.7h-4.9c0,0.7,0.2,1.3,0.6,1.8c0.4,0.4,1,0.7,1.7,0.6c0.8,0,1.6-0.3,2.2-0.8v1.1
	c-0.7,0.5-1.6,0.7-2.4,0.7c-0.9,0-1.7-0.3-2.3-1c-0.6-0.8-0.9-1.7-0.8-2.7c0-1,0.3-1.9,0.9-2.7c0.6-0.7,1.4-1,2.3-1
	c0.8-0.1,1.6,0.3,2.1,0.9c0.5,0.7,0.8,1.6,0.8,2.5V263.7z M109.1,262.7c0-0.5-0.1-1.1-0.5-1.5c-0.3-0.4-0.8-0.6-1.3-0.5
	c-0.5,0-1,0.2-1.3,0.6c-0.4,0.4-0.6,0.9-0.7,1.5H109.1z"/>
<path class="st18" d="M115.6,261c-0.3-0.2-0.5-0.2-0.8-0.2c-0.5,0-0.9,0.3-1.2,0.7c-0.3,0.5-0.5,1.2-0.5,1.8v3.6h-1.1v-7h1.1v1.4
	l0,0c0.1-0.4,0.4-0.8,0.7-1.1c0.3-0.3,0.7-0.4,1.1-0.4c0.2,0,0.5,0,0.7,0.1L115.6,261z"/>
<g class="st19">
	<path class="st18" d="M91.3,112.9h-1.1v-6.6c0-0.5,0-1.2,0.1-1.9l0,0c-0.1,0.3-0.2,0.7-0.3,1l-3.3,7.5H86l-3.3-7.5
		c-0.1-0.3-0.2-0.7-0.3-1l0,0c0,0.4,0,1,0,1.9v6.6h-1.1v-9.8h1.5l3,6.8c0.2,0.4,0.3,0.8,0.4,1.2l0,0c0.2-0.5,0.4-0.9,0.5-1.2
		l3.1-6.8h1.4L91.3,112.9z"/>
	<path class="st18" d="M100.5,112.5c-0.8,0.4-1.8,0.6-2.7,0.6c-1.3,0.1-2.5-0.4-3.3-1.3c-0.9-1-1.3-2.2-1.3-3.5
		c-0.1-1.4,0.5-2.8,1.4-3.8c0.9-1,2.2-1.5,3.6-1.4c0.8,0,1.6,0.1,2.3,0.4v1.2c-0.7-0.4-1.5-0.6-2.3-0.6c-1,0-2,0.4-2.7,1.1
		c-0.7,0.8-1.1,1.9-1,3c-0.1,1,0.3,2.1,1,2.8c0.7,0.7,1.6,1.1,2.5,1c0.9,0,1.8-0.2,2.6-0.7L100.5,112.5z"/>
	<path class="st18" d="M104,108c-0.6,0-1.2-0.2-1.6-0.7c-0.4-0.5-0.6-1.1-0.6-1.8c0-0.7,0.2-1.4,0.6-1.9c0.4-0.5,1.1-0.7,1.7-0.7
		c0.6,0,1.2,0.2,1.6,0.7c0.4,0.5,0.6,1.2,0.6,1.8c0,0.7-0.2,1.4-0.7,1.9C105.3,107.8,104.6,108,104,108z M104.1,103.7
		c-0.4,0-0.8,0.2-1,0.5c-0.3,0.4-0.4,0.9-0.4,1.3c0,0.5,0.1,0.9,0.4,1.3c0.2,0.3,0.6,0.5,1,0.5c0.4,0,0.8-0.2,1-0.5
		c0.3-0.4,0.4-0.9,0.4-1.3c0-0.5-0.1-0.9-0.4-1.3C104.9,103.8,104.5,103.7,104.1,103.7L104.1,103.7z M110.6,103.1l-6.3,9.9h-1
		l6.3-9.9L110.6,103.1z M109.8,113.1c-0.6,0-1.2-0.2-1.6-0.7c-0.4-0.5-0.6-1.1-0.6-1.8c0-0.7,0.2-1.4,0.7-1.9
		c0.4-0.5,1.1-0.8,1.7-0.7c0.6,0,1.2,0.2,1.6,0.7c0.4,0.5,0.6,1.2,0.6,1.8c0,0.7-0.2,1.4-0.7,1.9
		C111.1,112.8,110.5,113.1,109.8,113.1L109.8,113.1z M109.9,108.8c-0.4,0-0.8,0.2-1,0.5c-0.3,0.4-0.4,0.9-0.4,1.3
		c0,0.5,0.1,0.9,0.4,1.3c0.2,0.3,0.6,0.5,1,0.5c0.4,0,0.8-0.2,1-0.5c0.3-0.4,0.4-0.9,0.4-1.3c0-0.5-0.1-0.9-0.3-1.3
		C110.7,108.9,110.3,108.7,109.9,108.8L109.9,108.8z"/>
</g>
<path class="st18" d="M91.3,135.9h-1.1v-6.6c0-0.5,0-1.2,0.1-1.9l0,0c-0.1,0.3-0.2,0.7-0.3,1l-3.3,7.5H86l-3.3-7.5
	c-0.1-0.3-0.2-0.7-0.3-1l0,0c0,0.4,0,1,0,1.9v6.6h-1.1v-9.8h1.5l3,6.8c0.2,0.4,0.3,0.8,0.4,1.2l0,0c0.2-0.5,0.4-0.9,0.5-1.2l3.1-6.8
	h1.4L91.3,135.9z"/>
<path class="st18" d="M100.5,135.5c-0.8,0.4-1.8,0.6-2.7,0.6c-1.3,0.1-2.5-0.4-3.3-1.4c-0.9-1-1.3-2.2-1.3-3.5
	c-0.1-1.4,0.5-2.8,1.4-3.8c0.9-1,2.2-1.5,3.6-1.4c0.8,0,1.6,0.1,2.3,0.4v1.2c-0.7-0.4-1.5-0.6-2.3-0.6c-1,0-2,0.4-2.7,1.1
	c-0.7,0.8-1.1,1.9-1,3c-0.1,1,0.3,2.1,1,2.9c0.7,0.7,1.6,1.1,2.5,1c0.9,0,1.8-0.2,2.6-0.6L100.5,135.5z"/>
<g class="st20">
	<path class="st21" d="M78,107h-1c-1.1,0-2,0.9-2,2v20c0,1.1,0.9,2,2,2h1"/>
	<line class="st21" x1="72" y1="119" x2="75" y2="119"/>
</g>
</svg>
