<?xml version="1.0" encoding="utf-8"?>
<!-- Generator: Adobe Illustrator 25.4.1, SVG Export Plug-In . SVG Version: 6.00 Build 0)  -->
<svg version="1.1" id="txt" xmlns="http://www.w3.org/2000/svg" xmlns:xlink="http://www.w3.org/1999/xlink" x="0px" y="0px"
	 viewBox="0 0 392 312" style="enable-background:new 0 0 392 312;" xml:space="preserve">
<style type="text/css">
	.st0{opacity:0.5;}
	.st1{clip-path:url(#SVGID_00000165218929944049848300000016768739035512333955_);}
	.st2{fill:url(#SVGID_00000084532340490935654180000004658231332364899766_);stroke:#FFFFFF;stroke-width:2;stroke-miterlimit:10;}
	.st3{fill:url(#SVGID_00000124149178195689264080000017880838732496700603_);stroke:#FFFFFF;stroke-width:2;stroke-miterlimit:10;}
	.st4{fill:url(#SVGID_00000175286568795869180260000005653660507162148492_);stroke:#FFFFFF;stroke-width:2;stroke-miterlimit:10;}
	.st5{fill:#5A75A3;}
	.st6{fill:#D9AC5E;}
	.st7{fill:#606060;}
	.st8{fill:#5C574F;stroke:#D9AC5E;stroke-width:2;stroke-miterlimit:10;}
	.st9{fill:#624B4A;stroke:#CC6A69;stroke-width:2;stroke-miterlimit:10;}
	.st10{fill:#4E615D;stroke:#55AE9F;stroke-width:2;stroke-miterlimit:10;}
	.st11{fill:#404952;stroke:#5A75A3;stroke-width:2;stroke-miterlimit:10;}
	
		.st12{fill:url(#SVGID_00000145748660946421837220000000495344541061621932_);stroke:url(#SVGID_00000072985053182557478580000003564834206721945236_);stroke-width:2;stroke-miterlimit:10;}
	.st13{opacity:0.7;}
	.st14{fill:#FFFFFF;stroke:#FFFFFF;stroke-width:0.4;stroke-miterlimit:10;}
</style>
<g class="st0">
	<g>
		<defs>
			<polygon id="SVGID_1_" points="166,12 148,18 68,122 68,190 148,294 166,300 			"/>
		</defs>
		<clipPath id="SVGID_00000165922806834491058520000018008087100229036449_">
			<use xlink:href="#SVGID_1_"  style="overflow:visible;"/>
		</clipPath>
		<g style="clip-path:url(#SVGID_00000165922806834491058520000018008087100229036449_);">
			<g>
				<defs>
					<rect id="SVGID_00000005971136705022716040000009169305175242624409_" x="63" y="7" width="108" height="298"/>
				</defs>
				<clipPath id="SVGID_00000150096306479567827200000011546223836962594722_">
					<use xlink:href="#SVGID_00000005971136705022716040000009169305175242624409_"  style="overflow:visible;"/>
				</clipPath>
				
					<g transform="matrix(1 0 0 1 3.814697e-06 0)" style="clip-path:url(#SVGID_00000150096306479567827200000011546223836962594722_);">
					
						<image style="overflow:visible;" width="226" height="622" xlink:href="60F56EC073ECF3AC.jpg"  transform="matrix(0.48 0 0 0.48 62.88 6.72)">
					</image>
				</g>
			</g>
		</g>
	</g>
</g>
<g>
	
		<linearGradient id="SVGID_00000039123845788225395070000008071591147877642377_" gradientUnits="userSpaceOnUse" x1="157" y1="156" x2="157" y2="16">
		<stop  offset="0.3" style="stop-color:#D9AC5E"/>
		<stop  offset="0.7" style="stop-color:#55AE9F"/>
	</linearGradient>
	
		<rect x="148" y="16" style="fill:url(#SVGID_00000039123845788225395070000008071591147877642377_);stroke:#FFFFFF;stroke-width:2;stroke-miterlimit:10;" width="18" height="140"/>
	
		<linearGradient id="SVGID_00000154404747649384222450000004173455558321291436_" gradientUnits="userSpaceOnUse" x1="157" y1="296" x2="157" y2="156">
		<stop  offset="0.3" style="stop-color:#CC6A69"/>
		<stop  offset="0.7" style="stop-color:#D9AC5E"/>
	</linearGradient>
	
		<rect x="148" y="156" style="fill:url(#SVGID_00000154404747649384222450000004173455558321291436_);stroke:#FFFFFF;stroke-width:2;stroke-miterlimit:10;" width="18" height="140"/>
	
		<linearGradient id="SVGID_00000029021833027009452030000009730140244505368721_" gradientUnits="userSpaceOnUse" x1="96" y1="156" x2="148" y2="156">
		<stop  offset="0.3" style="stop-color:#5A75A3"/>
		<stop  offset="0.7" style="stop-color:#D9AC5E"/>
	</linearGradient>
	
		<rect x="96" y="142" style="fill:url(#SVGID_00000029021833027009452030000009730140244505368721_);stroke:#FFFFFF;stroke-width:2;stroke-miterlimit:10;" width="52" height="28"/>
</g>
<rect x="17.9" y="131" class="st5" width="16.4" height="49.8"/>
<rect x="148.9" y="131.1" class="st6" width="16.4" height="49.8"/>
<rect x="72.4" y="142" class="st7" width="24" height="28"/>
<path class="st8" d="M279.3,122H158.7c-10.9,0-19.7,8.1-19.7,18.1v31.7c0,10,8.8,18.1,19.7,18.1h120.6c10.9,0,19.7-8.1,19.7-18.1
	v-31.7C299,130.1,290.2,122,279.3,122z M165.3,177.9c-0.1,1.7-1.6,3.1-3.3,3c-7.3,0-13.1-5.4-13.1-12.1v-25.7
	c0-6.7,5.9-12.1,13.1-12.1c1.7-0.1,3.2,1.3,3.3,3V177.9z"/>
<path class="st9" d="M363.3,236H158.7c-10.9,0-19.7,8.1-19.7,18.1v31.7c0,10,8.8,18.1,19.7,18.1h204.6c10.9,0,19.7-8.1,19.7-18.1
	v-31.7C383,244.1,374.2,236,363.3,236z M165.3,291.9c-0.1,1.7-1.6,3.1-3.3,3c-7.3,0-13.1-5.4-13.1-12.1v-25.7
	c0-6.7,5.9-12.1,13.1-12.1c1.7-0.1,3.2,1.3,3.3,3V291.9z"/>
<path class="st10" d="M279.3,8H158.7C147.8,8,139,16.1,139,26.1v31.7c0,10,8.8,18.1,19.7,18.1h120.6c10.9,0,19.7-8.1,19.7-18.1V26.1
	C299,16.1,290.2,8,279.3,8z M165.3,63.9c-0.1,1.7-1.6,3.1-3.3,3c-7.3,0-13.1-5.4-13.1-12.1V29.2c0-6.7,5.9-12.1,13.1-12.1
	c1.7-0.1,3.2,1.3,3.3,3V63.9z"/>
<path class="st11" d="M96.3,122H27.7C16.8,122,8,130.1,8,140.1v31.7c0,10,8.8,18.1,19.7,18.1h68.6c10.9,0,19.7-8.1,19.7-18.1v-31.7
	C116,130.1,107.2,122,96.3,122z M34.3,177.9c-0.1,1.7-1.6,3.1-3.3,3c-7.3,0-13.1-5.4-13.1-12.1v-25.7c0-6.7,5.9-12.1,13.1-12.1
	c1.7-0.1,3.2,1.3,3.3,3V177.9z"/>
<linearGradient id="SVGID_00000146469552332694130360000016935798478077646980_" gradientUnits="userSpaceOnUse" x1="333" y1="588" x2="333" y2="671" gradientTransform="matrix(1 0 0 1 0 -530)">
	<stop  offset="0.3" style="stop-color:#4E615D"/>
	<stop  offset="0.7" style="stop-color:#5C574F"/>
</linearGradient>
<linearGradient id="SVGID_00000112618194452757857730000014452660101688071589_" gradientUnits="userSpaceOnUse" x1="333" y1="587" x2="333" y2="672" gradientTransform="matrix(1 0 0 1 0 -530)">
	<stop  offset="0.3" style="stop-color:#55AE9F"/>
	<stop  offset="0.7" style="stop-color:#D9AC5E"/>
</linearGradient>
<path style="fill:url(#SVGID_00000146469552332694130360000016935798478077646980_);stroke:url(#SVGID_00000112618194452757857730000014452660101688071589_);stroke-width:2;stroke-miterlimit:10;" d="
	M363.3,58h-60.6c-10.9,0-19.7,8.1-19.7,18.1v46.7c0,10,8.8,18.1,19.7,18.1h60.6c10.9,0,19.7-8.1,19.7-18.1V76.1
	C383,66.1,374.2,58,363.3,58z"/>
<g class="st13">
	<path class="st14" d="M50.1,136.6h-3.2v10h-1.3v-10h-3.2v-1.2h7.8L50.1,136.6L50.1,136.6z"/>
	<path class="st14" d="M53.4,146.8c-1.1,0.1-2.1-0.4-2.8-1.1c-0.7-0.8-1.1-1.9-1.1-3c-0.1-1.2,0.3-2.3,1.1-3.1s1.9-1.2,3-1.1
		c1.1-0.1,2.1,0.3,2.8,1.1s1.1,1.9,1,3c0.1,1.1-0.3,2.2-1.1,3.1C55.6,146.4,54.5,146.8,53.4,146.8z M53.5,139.5
		c-0.7,0-1.5,0.3-2,0.8c-0.5,0.7-0.8,1.5-0.7,2.3c0,0.8,0.2,1.6,0.7,2.2c0.5,0.6,1.2,0.9,2,0.8c0.7,0,1.4-0.3,1.9-0.8
		c0.5-0.7,0.7-1.5,0.7-2.3s-0.2-1.6-0.7-2.3C54.9,139.7,54.2,139.4,53.5,139.5L53.5,139.5z"/>
	<path class="st14" d="M63.1,146.5c-0.4,0.2-0.8,0.3-1.2,0.2c-1.4,0-2.1-0.8-2.1-2.3v-4.7h-1.4v-1.1h1.4v-1.9l1.3-0.4v2.4h2v1.1h-2
		v4.5c0,0.4,0.1,0.8,0.3,1.1s0.6,0.4,0.9,0.4c0.3,0,0.6-0.1,0.8-0.3V146.5z"/>
	<path class="st14" d="M70.6,146.6h-1.3v-1.2l0,0c-0.5,0.9-1.4,1.5-2.5,1.4c-0.7,0-1.4-0.2-1.9-0.6c-0.5-0.4-0.7-1-0.7-1.7
		c0-1.5,0.9-2.4,2.7-2.6l2.4-0.3c0-1.3-0.6-2-1.7-2c-1,0-1.9,0.4-2.6,1v-1.3c0.8-0.5,1.8-0.8,2.7-0.8c1.9,0,2.8,1,2.8,3L70.6,146.6z
		 M69.3,142.6l-1.9,0.3c-0.5,0-0.9,0.2-1.3,0.4c-0.3,0.3-0.5,0.7-0.4,1.1c0,0.4,0.1,0.7,0.4,1s0.7,0.4,1.1,0.4
		c0.6,0,1.2-0.2,1.6-0.7s0.6-1.1,0.6-1.7L69.3,142.6z"/>
	<path class="st14" d="M74.2,146.6H73v-11.8h1.3L74.2,146.6z"/>
</g>
<g class="st13">
	<path class="st14" d="M188.8,21.4l-3.2,11.2h-1.5l-2.3-8.2c-0.1-0.4-0.2-0.8-0.2-1.1l0,0c0,0.4-0.1,0.8-0.2,1.1l-2.4,8.2h-1.5
		l-3.3-11.2h1.4L178,30c0.1,0.4,0.2,0.7,0.2,1.1l0,0c0.1-0.4,0.2-0.8,0.3-1.1l2.5-8.6h1.2l2.4,8.6c0.1,0.3,0.2,0.7,0.2,1l0,0
		c0-0.4,0.1-0.7,0.2-1.1l2.3-8.6L188.8,21.4z"/>
	<path class="st14" d="M193.2,32.8c-1.1,0-2.1-0.4-2.8-1.1c-0.7-0.8-1.1-1.9-1.1-3c-0.1-1.2,0.3-2.3,1.1-3.1c0.8-0.8,1.9-1.2,3-1.1
		c1-0.1,2.1,0.3,2.8,1.1c0.7,0.9,1.1,1.9,1,3c0.1,1.1-0.3,2.2-1.1,3.1C195.4,32.4,194.3,32.8,193.2,32.8z M193.3,25.5
		c-0.8,0-1.5,0.3-2,0.8c-0.5,0.7-0.8,1.5-0.7,2.3c0,0.8,0.2,1.6,0.7,2.2s1.2,0.9,2,0.8c0.7,0,1.4-0.3,1.9-0.8
		c0.5-0.7,0.7-1.5,0.7-2.3s-0.2-1.6-0.7-2.3C194.7,25.7,194,25.4,193.3,25.5z"/>
	<path class="st14" d="M205.9,32.6h-1.3V28c0-1.7-0.6-2.5-1.9-2.5c-0.6,0-1.2,0.2-1.6,0.7c-0.4,0.5-0.6,1.2-0.6,1.8v4.6h-1.3v-8h1.3
		v1.3l0,0c0.5-1,1.5-1.5,2.6-1.5c0.8,0,1.5,0.3,2,0.9c0.5,0.7,0.8,1.6,0.7,2.5L205.9,32.6z"/>
</g>
<g class="st13">
	<path class="st14" d="M176.8,142.4v4.2h-1.3v-11.2h3.1c1-0.1,2,0.2,2.8,0.9c0.7,0.6,1,1.5,1,2.5s-0.4,1.9-1.1,2.6
		c-0.8,0.7-1.9,1.1-3,1H176.8z M176.8,136.6v4.6h1.4c0.7,0,1.5-0.2,2.1-0.6c0.5-0.4,0.8-1.1,0.7-1.8c0-1.5-0.9-2.2-2.6-2.2H176.8z"
		/>
	<path class="st14" d="M189.5,146.6h-1.3v-1.2l0,0c-0.5,0.9-1.4,1.5-2.5,1.4c-0.7,0-1.4-0.2-1.9-0.6c-0.5-0.4-0.7-1.1-0.7-1.7
		c0-1.5,0.9-2.4,2.6-2.6l2.4-0.3c0-1.3-0.6-2-1.6-2s-1.9,0.4-2.6,1v-1.3c0.8-0.5,1.8-0.8,2.7-0.8c1.9,0,2.8,1,2.8,3L189.5,146.6z
		 M188.2,142.6l-1.9,0.3c-0.5,0-0.9,0.2-1.4,0.4c-0.3,0.3-0.5,0.7-0.4,1.1c0,0.4,0.1,0.7,0.4,1c0.3,0.3,0.7,0.4,1.1,0.4
		c0.6,0,1.2-0.2,1.6-0.7c0.4-0.5,0.6-1.1,0.6-1.7L188.2,142.6L188.2,142.6z"/>
	<path class="st14" d="M196.1,139.9c-0.3-0.2-0.6-0.3-1-0.3c-0.6,0-1.1,0.3-1.4,0.8c-0.4,0.6-0.6,1.4-0.6,2.1v4.1h-1.3v-8h1.3v1.6
		l0,0c0.1-0.5,0.4-1,0.8-1.3c0.4-0.3,0.8-0.5,1.3-0.5c0.3,0,0.5,0,0.8,0.1L196.1,139.9z"/>
	<path class="st14" d="M201.6,146.5c-0.4,0.2-0.8,0.3-1.2,0.2c-1.4,0-2.1-0.8-2.1-2.3v-4.7H197v-1.1h1.4v-1.9l1.3-0.4v2.4h2v1.1h-2
		v4.5c0,0.4,0.1,0.8,0.3,1.1s0.6,0.4,0.9,0.4c0.3,0,0.6-0.1,0.8-0.3L201.6,146.5z"/>
	<path class="st14" d="M204,136.6c-0.5,0-0.8-0.4-0.8-0.8s0.4-0.8,0.8-0.8c0.2,0,0.4,0.1,0.6,0.2c0.3,0.3,0.3,0.8,0,1.2l0,0
		C204.4,136.5,204.2,136.6,204,136.6z M204.6,146.6h-1.3v-8h1.3V146.6z"/>
	<path class="st14" d="M212.9,146.6h-1.3v-1.2l0,0c-0.5,0.9-1.4,1.5-2.5,1.4c-0.7,0-1.4-0.2-1.9-0.6c-0.5-0.4-0.7-1-0.7-1.7
		c0-1.5,0.9-2.4,2.6-2.6l2.4-0.3c0-1.3-0.5-2-1.6-2c-1,0-1.9,0.4-2.6,1v-1.3c0.8-0.5,1.8-0.8,2.7-0.8c1.9,0,2.8,1,2.8,3L212.9,146.6
		z M211.6,142.6l-1.9,0.3c-0.5,0-0.9,0.2-1.3,0.4c-0.3,0.3-0.5,0.7-0.5,1.1c0,0.4,0.1,0.7,0.4,1c0.3,0.3,0.7,0.4,1.1,0.4
		c0.6,0,1.2-0.3,1.6-0.8c0.4-0.5,0.6-1.1,0.6-1.7L211.6,142.6z"/>
	<path class="st14" d="M216.6,146.6h-1.3v-11.8h1.3V146.6z"/>
</g>
<g class="st13">
	<path class="st14" d="M181.3,260.6h-5.8v-11.2h1.3v10h4.5V260.6z"/>
	<path class="st14" d="M186.2,260.8c-1.1,0.1-2.1-0.4-2.8-1.1c-0.7-0.8-1.1-1.9-1.1-3c-0.1-1.2,0.3-2.3,1.1-3.2
		c0.8-0.8,1.9-1.2,3-1.1c1-0.1,2.1,0.3,2.8,1.1c1.4,1.8,1.3,4.3-0.1,6.1C188.3,260.4,187.3,260.8,186.2,260.8z M186.3,253.5
		c-0.8,0-1.5,0.3-2,0.8c-0.5,0.7-0.8,1.5-0.7,2.3c0,0.8,0.2,1.6,0.7,2.2s1.2,0.9,2,0.8c0.7,0,1.4-0.3,1.9-0.8
		c0.5-0.7,0.7-1.5,0.7-2.3c0.1-0.8-0.2-1.6-0.7-2.3C187.7,253.7,187,253.4,186.3,253.5z"/>
	<path class="st14" d="M191.7,260.3v-1.4c0.7,0.5,1.5,0.8,2.3,0.8c1.1,0,1.7-0.4,1.7-1.1c0-0.2,0-0.4-0.1-0.5
		c-0.1-0.2-0.2-0.3-0.4-0.4s-0.4-0.2-0.6-0.3l-0.7-0.3c-0.3-0.1-0.7-0.3-0.9-0.4s-0.5-0.3-0.7-0.5c-0.2-0.2-0.3-0.4-0.4-0.6
		c-0.1-0.3-0.1-0.5-0.1-0.8c0-0.4,0.1-0.7,0.3-1s0.4-0.5,0.7-0.7s0.6-0.3,1-0.4c0.4-0.1,0.8-0.2,1.1-0.1c0.6,0,1.3,0.1,1.9,0.4v1.3
		c-0.6-0.4-1.3-0.6-2-0.6c-0.2,0-0.4,0-0.6,0.1c-0.2,0.1-0.3,0.1-0.5,0.2c-0.1,0.1-0.2,0.2-0.3,0.4c-0.1,0.1-0.1,0.3-0.1,0.5
		s0,0.4,0.1,0.5s0.2,0.3,0.3,0.4c0.2,0.1,0.3,0.2,0.5,0.3l0.7,0.3c0.4,0.1,0.7,0.3,1,0.4s0.5,0.3,0.7,0.5s0.3,0.4,0.4,0.6
		c0.1,0.3,0.2,0.6,0.2,0.8c0,0.4-0.1,0.7-0.3,1s-0.4,0.5-0.7,0.7s-0.6,0.3-1,0.4s-0.8,0.1-1.2,0.1
		C193.2,260.8,192.4,260.7,191.7,260.3z"/>
	<path class="st14" d="M202.7,260.5c-0.4,0.2-0.8,0.3-1.2,0.2c-1.4,0-2.1-0.8-2.1-2.3v-4.7H198v-1.1h1.4v-1.9l1.3-0.4v2.4h2v1.1h-2
		v4.5c0,0.4,0.1,0.8,0.3,1.1c0.2,0.3,0.6,0.4,0.9,0.4c0.3,0,0.6-0.1,0.8-0.3V260.5z"/>
</g>
</svg>
