<svg id="icones" xmlns="http://www.w3.org/2000/svg" xmlns:xlink="http://www.w3.org/1999/xlink" viewBox="0 0 1056 288"><defs><style>.cls-1{fill:#c06f6c;}.cls-2{fill:#5e4b4b;}.cls-3{fill:url(#Gradiente_sem_nome_3);}.cls-4{fill:url(#Gradiente_sem_nome_3-2);}.cls-5{fill:#5e75a0;}.cls-6{fill:#d3ad6a;}.cls-7{fill:#d8e4e3;}.cls-8{fill:#414951;}.cls-9{fill:#6caca0;}.cls-10{fill:#5b564f;}.cls-11{fill:#51605c;}.cls-12{fill:url(#Gradiente_sem_nome_4);}.cls-13{fill:url(#Gradiente_sem_nome_4-2);}.cls-14{fill:url(#Gradiente_sem_nome_4-3);}.cls-15{fill:url(#Gradiente_sem_nome_4-4);}.cls-16{fill:url(#Gradiente_sem_nome_4-5);}.cls-17{fill:url(#Gradiente_sem_nome_4-6);}.cls-18{fill:#556464;stroke:#566564;}.cls-18,.cls-19,.cls-22{stroke-miterlimit:10;}.cls-18,.cls-19{stroke-width:0.4px;}.cls-19{fill:#fff;}.cls-19,.cls-22{stroke:#fff;}.cls-20{opacity:0.75;}.cls-21{opacity:0.3;}.cls-22{fill:none;}</style><linearGradient id="Gradiente_sem_nome_3" x1="482" y1="248" x2="482" y2="277.47" gradientUnits="userSpaceOnUse"><stop offset="0.3" stop-color="#6caca0"/><stop offset="0.7" stop-color="#5e75a0"/></linearGradient><linearGradient id="Gradiente_sem_nome_3-2" x1="482" y1="275.47" x2="482" y2="250" xlink:href="#Gradiente_sem_nome_3"/><linearGradient id="Gradiente_sem_nome_4" x1="296" y1="280" x2="296" y2="244" gradientUnits="userSpaceOnUse"><stop offset="0" stop-color="#51605c"/><stop offset="1" stop-color="#414951"/></linearGradient><linearGradient id="Gradiente_sem_nome_4-2" x1="416" x2="416" xlink:href="#Gradiente_sem_nome_4"/><linearGradient id="Gradiente_sem_nome_4-3" x1="176" x2="176" xlink:href="#Gradiente_sem_nome_4"/><linearGradient id="Gradiente_sem_nome_4-4" x1="764" x2="764" xlink:href="#Gradiente_sem_nome_4"/><linearGradient id="Gradiente_sem_nome_4-5" x1="572" x2="572" xlink:href="#Gradiente_sem_nome_4"/><linearGradient id="Gradiente_sem_nome_4-6" x1="956" x2="956" xlink:href="#Gradiente_sem_nome_4"/></defs><path class="cls-1" d="M948,145.47,16,144a8,8,0,0,1-8-8V104a8,8,0,0,1,8-8l932,1.47a8,8,0,0,1,8,8v32A8,8,0,0,1,948,145.47Z"/><path class="cls-2" d="M1036,92H876a12,12,0,0,0-12,12v32a12,12,0,0,0,12,12h160a12,12,0,0,0,12-12V104A12,12,0,0,0,1036,92ZM884,122v14a6,6,0,0,1-12,0V122Zm-12-4V104a6,6,0,0,1,12,0v14Z"/><path class="cls-2" d="M220,92H132a12,12,0,0,0-12,12v32a12,12,0,0,0,12,12h88a12,12,0,0,0,12-12V104A12,12,0,0,0,220,92Zm-80,30v14a6,6,0,0,1-12,0V122Zm-12-4V104a6,6,0,0,1,12,0v14Z"/><path class="cls-2" d="M340,92H252a12,12,0,0,0-12,12v32a12,12,0,0,0,12,12h88a12,12,0,0,0,12-12V104A12,12,0,0,0,340,92Zm-80,30v14a6,6,0,0,1-12,0V122Zm-12-4V104a6,6,0,0,1,12,0v14Z"/><path class="cls-2" d="M652,92H492a12,12,0,0,0-12,12v32a12,12,0,0,0,12,12H652a12,12,0,0,0,12-12V104A12,12,0,0,0,652,92ZM500,122v14a6,6,0,0,1-12,0V122Zm-12-4V104a6,6,0,0,1,12,0v14Z"/><path class="cls-2" d="M844,92H684a12,12,0,0,0-12,12v32a12,12,0,0,0,12,12H844a12,12,0,0,0,12-12V104A12,12,0,0,0,844,92ZM692,122v14a6,6,0,0,1-12,0V122Zm-12-4V104a6,6,0,0,1,12,0v14Z"/><path class="cls-2" d="M460,92H372a12,12,0,0,0-12,12v32a12,12,0,0,0,12,12h88a12,12,0,0,0,12-12V104A12,12,0,0,0,460,92Zm-80,30v14a6,6,0,0,1-12,0V122Zm-12-4V104a6,6,0,0,1,12,0v14Z"/><path class="cls-3" d="M948,277.47,16,276a8,8,0,0,1-8-8V256a8,8,0,0,1,8-8l932,1.47a8,8,0,0,1,8,8v12A8,8,0,0,1,948,277.47Z"/><path class="cls-4" d="M947.4,275.47,16.6,274a6.59,6.59,0,0,1-6.6-6.6V256.6a6.59,6.59,0,0,1,6.6-6.6l930.8,1.47a6.6,6.6,0,0,1,6.6,6.6v10.8A6.59,6.59,0,0,1,947.4,275.47Z"/><path class="cls-5" d="M948,81.47,16,80a8,8,0,0,1-8-8V60a8,8,0,0,1,8-8l932,1.47a8,8,0,0,1,8,8v12A8,8,0,0,1,948,81.47Z"/><path class="cls-6" d="M948,189.47,16,188a8,8,0,0,1-8-8V168a8,8,0,0,1,8-8l932,1.47a8,8,0,0,1,8,8v12A8,8,0,0,1,948,189.47Z"/><rect class="cls-7" x="240" y="8" width="112" height="28" rx="12"/><rect class="cls-7" x="360" y="8" width="112" height="28" rx="12"/><rect class="cls-7" x="120" y="8" width="112" height="28" rx="12"/><rect class="cls-7" x="480" y="8" width="184" height="28" rx="12"/><path class="cls-8" d="M340,48H252a12,12,0,0,0-12,12V72a12,12,0,0,0,12,12h88a12,12,0,0,0,12-12V60A12,12,0,0,0,340,48ZM260,72a6,6,0,0,1-12,0V60a6,6,0,0,1,12,0Z"/><path class="cls-8" d="M460,48H372a12,12,0,0,0-12,12V72a12,12,0,0,0,12,12h88a12,12,0,0,0,12-12V60A12,12,0,0,0,460,48ZM380,72a6,6,0,0,1-12,0V60a6,6,0,0,1,12,0Z"/><path class="cls-8" d="M220,48H132a12,12,0,0,0-12,12V72a12,12,0,0,0,12,12h88a12,12,0,0,0,12-12V60A12,12,0,0,0,220,48ZM140,72a6,6,0,0,1-12,0V60a6,6,0,0,1,12,0Z"/><path class="cls-8" d="M844,48H684a12,12,0,0,0-12,12V72a12,12,0,0,0,12,12H844a12,12,0,0,0,12-12V60A12,12,0,0,0,844,48ZM692,72a6,6,0,0,1-12,0V60a6,6,0,0,1,12,0Z"/><path class="cls-8" d="M652,48H492a12,12,0,0,0-12,12V72a12,12,0,0,0,12,12H652a12,12,0,0,0,12-12V60A12,12,0,0,0,652,48ZM500,72a6,6,0,0,1-12,0V60a6,6,0,0,1,12,0Z"/><path class="cls-8" d="M1036,48H876a12,12,0,0,0-12,12V72a12,12,0,0,0,12,12h160a12,12,0,0,0,12-12V60A12,12,0,0,0,1036,48ZM884,72a6,6,0,0,1-12,0V60a6,6,0,0,1,12,0Z"/><rect class="cls-7" x="672" y="8" width="184" height="28" rx="12"/><rect class="cls-7" x="864" y="8" width="184" height="28" rx="12"/><path class="cls-9" d="M948,233.47,16,232a8,8,0,0,1-8-8V212a8,8,0,0,1,8-8l932,1.47a8,8,0,0,1,8,8v12A8,8,0,0,1,948,233.47Z"/><path class="cls-10" d="M340,156H252a12,12,0,0,0-12,12v12a12,12,0,0,0,12,12h88a12,12,0,0,0,12-12V168A12,12,0,0,0,340,156Zm-80,24a6,6,0,0,1-12,0V168a6,6,0,0,1,12,0Z"/><path class="cls-10" d="M460,156H372a12,12,0,0,0-12,12v12a12,12,0,0,0,12,12h88a12,12,0,0,0,12-12V168A12,12,0,0,0,460,156Zm-80,24a6,6,0,0,1-12,0V168a6,6,0,0,1,12,0Z"/><path class="cls-10" d="M220,156H132a12,12,0,0,0-12,12v12a12,12,0,0,0,12,12h88a12,12,0,0,0,12-12V168A12,12,0,0,0,220,156Zm-80,24a6,6,0,0,1-12,0V168a6,6,0,0,1,12,0Z"/><path class="cls-10" d="M844,156H684a12,12,0,0,0-12,12v12a12,12,0,0,0,12,12H844a12,12,0,0,0,12-12V168A12,12,0,0,0,844,156ZM692,180a6,6,0,0,1-12,0V168a6,6,0,0,1,12,0Z"/><path class="cls-10" d="M652,156H492a12,12,0,0,0-12,12v12a12,12,0,0,0,12,12H652a12,12,0,0,0,12-12V168A12,12,0,0,0,652,156ZM500,180a6,6,0,0,1-12,0V168a6,6,0,0,1,12,0Z"/><path class="cls-10" d="M1036,156H876a12,12,0,0,0-12,12v12a12,12,0,0,0,12,12h160a12,12,0,0,0,12-12V168A12,12,0,0,0,1036,156ZM884,180a6,6,0,0,1-12,0V168a6,6,0,0,1,12,0Z"/><path class="cls-11" d="M340,200H252a12,12,0,0,0-12,12v12a12,12,0,0,0,12,12h88a12,12,0,0,0,12-12V212A12,12,0,0,0,340,200Zm-80,24a6,6,0,0,1-12,0V212a6,6,0,0,1,12,0Z"/><path class="cls-11" d="M460,200H372a12,12,0,0,0-12,12v12a12,12,0,0,0,12,12h88a12,12,0,0,0,12-12V212A12,12,0,0,0,460,200Zm-80,24a6,6,0,0,1-12,0V212a6,6,0,0,1,12,0Z"/><path class="cls-11" d="M220,200H132a12,12,0,0,0-12,12v12a12,12,0,0,0,12,12h88a12,12,0,0,0,12-12V212A12,12,0,0,0,220,200Zm-80,24a6,6,0,0,1-12,0V212a6,6,0,0,1,12,0Z"/><path class="cls-11" d="M844,200H684a12,12,0,0,0-12,12v12a12,12,0,0,0,12,12H844a12,12,0,0,0,12-12V212A12,12,0,0,0,844,200ZM692,224a6,6,0,0,1-12,0V212a6,6,0,0,1,12,0Z"/><path class="cls-11" d="M652,200H492a12,12,0,0,0-12,12v12a12,12,0,0,0,12,12H652a12,12,0,0,0,12-12V212A12,12,0,0,0,652,200ZM500,224a6,6,0,0,1-12,0V212a6,6,0,0,1,12,0Z"/><path class="cls-11" d="M1036,200H876a12,12,0,0,0-12,12v12a12,12,0,0,0,12,12h160a12,12,0,0,0,12-12V212A12,12,0,0,0,1036,200ZM884,224a6,6,0,0,1-12,0V212a6,6,0,0,1,12,0Z"/><path class="cls-12" d="M340,244H252a12,12,0,0,0-12,12v12a12,12,0,0,0,12,12h88a12,12,0,0,0,12-12V256A12,12,0,0,0,340,244Zm-80,24a6,6,0,0,1-12,0V256a6,6,0,0,1,12,0Z"/><path class="cls-13" d="M460,244H372a12,12,0,0,0-12,12v12a12,12,0,0,0,12,12h88a12,12,0,0,0,12-12V256A12,12,0,0,0,460,244Zm-80,24a6,6,0,0,1-12,0V256a6,6,0,0,1,12,0Z"/><path class="cls-14" d="M220,244H132a12,12,0,0,0-12,12v12a12,12,0,0,0,12,12h88a12,12,0,0,0,12-12V256A12,12,0,0,0,220,244Zm-80,24a6,6,0,0,1-12,0V256a6,6,0,0,1,12,0Z"/><path class="cls-15" d="M844,244H684a12,12,0,0,0-12,12v12a12,12,0,0,0,12,12H844a12,12,0,0,0,12-12V256A12,12,0,0,0,844,244ZM692,268a6,6,0,0,1-12,0V256a6,6,0,0,1,12,0Z"/><path class="cls-16" d="M652,244H492a12,12,0,0,0-12,12v12a12,12,0,0,0,12,12H652a12,12,0,0,0,12-12V256A12,12,0,0,0,652,244ZM500,268a6,6,0,0,1-12,0V256a6,6,0,0,1,12,0Z"/><path class="cls-17" d="M1036,244H876a12,12,0,0,0-12,12v12a12,12,0,0,0,12,12h160a12,12,0,0,0,12-12V256A12,12,0,0,0,1036,244ZM884,268a6,6,0,0,1-12,0V256a6,6,0,0,1,12,0Z"/><path class="cls-18" d="M157,18.14h-3.83v3.39h3.54v1h-3.54V26.9H152V17.1h5Z"/><path class="cls-18" d="M163.21,26.9h-1.12V25.81h0a2.34,2.34,0,0,1-2.15,1.26,2.31,2.31,0,0,1-1.64-.56,1.94,1.94,0,0,1-.59-1.47q0-2,2.31-2.28l2.1-.29c0-1.19-.48-1.79-1.44-1.79a3.47,3.47,0,0,0-2.29.86V20.39a4.4,4.4,0,0,1,2.38-.65c1.65,0,2.47.87,2.47,2.61Zm-1.12-3.54-1.69.23a2.81,2.81,0,0,0-1.18.39,1.11,1.11,0,0,0-.39,1,1.09,1.09,0,0,0,.36.84,1.46,1.46,0,0,0,1,.32,1.82,1.82,0,0,0,1.38-.58,2.09,2.09,0,0,0,.54-1.48Z"/><path class="cls-18" d="M170.09,26.58a3.64,3.64,0,0,1-1.91.49,3.19,3.19,0,0,1-2.42-1,3.54,3.54,0,0,1-.92-2.52,3.88,3.88,0,0,1,1-2.78,3.49,3.49,0,0,1,2.65-1.05,3.65,3.65,0,0,1,1.63.34v1.15a2.83,2.83,0,0,0-1.67-.55,2.26,2.26,0,0,0-1.76.77,2.91,2.91,0,0,0-.69,2,2.77,2.77,0,0,0,.65,1.94,2.21,2.21,0,0,0,1.73.71,2.76,2.76,0,0,0,1.72-.61Z"/><path class="cls-18" d="M175,26.83a2.15,2.15,0,0,1-1,.22c-1.23,0-1.84-.68-1.84-2.05V20.86H171v-1h1.2V18.19l1.12-.36V19.9H175v1h-1.77V24.8a1.65,1.65,0,0,0,.24,1,1,1,0,0,0,.79.3,1.23,1.23,0,0,0,.74-.23Z"/><path class="cls-18" d="M182.19,26.9h-1.12V25.79h0a2.3,2.3,0,0,1-2.16,1.28c-1.66,0-2.5-1-2.5-3V19.9h1.12v4c0,1.47.56,2.21,1.69,2.21a1.71,1.71,0,0,0,1.35-.6,2.29,2.29,0,0,0,.53-1.58v-4h1.12Z"/><path class="cls-18" d="M188.11,21a1.39,1.39,0,0,0-.85-.23,1.43,1.43,0,0,0-1.2.68,3.12,3.12,0,0,0-.48,1.84V26.9h-1.12v-7h1.12v1.44h0a2.47,2.47,0,0,1,.74-1.15,1.67,1.67,0,0,1,1.1-.41,2,2,0,0,1,.67.09Z"/><path class="cls-18" d="M194.33,26.9h-1.12V25.81h0A2.36,2.36,0,0,1,191,27.07a2.27,2.27,0,0,1-1.63-.56,1.91,1.91,0,0,1-.6-1.47q0-2,2.31-2.28l2.1-.29c0-1.19-.48-1.79-1.44-1.79a3.47,3.47,0,0,0-2.28.86V20.39a4.4,4.4,0,0,1,2.38-.65q2.46,0,2.46,2.61Zm-1.12-3.54-1.69.23a2.71,2.71,0,0,0-1.17.39,1.09,1.09,0,0,0-.4,1,1.07,1.07,0,0,0,.37.84,1.44,1.44,0,0,0,1,.32,1.79,1.79,0,0,0,1.38-.58,2.09,2.09,0,0,0,.54-1.48Z"/><path class="cls-18" d="M196,26.65v-1.2a3.33,3.33,0,0,0,2,.67c1,0,1.48-.33,1.48-1a.9.9,0,0,0-.13-.48,1.37,1.37,0,0,0-.34-.34,2.7,2.7,0,0,0-.51-.27l-.62-.25a8.17,8.17,0,0,1-.82-.37,2.5,2.5,0,0,1-.59-.43,1.53,1.53,0,0,1-.35-.53,2,2,0,0,1-.12-.71,1.66,1.66,0,0,1,.22-.87,2,2,0,0,1,.6-.64,2.68,2.68,0,0,1,.86-.38,3.66,3.66,0,0,1,1-.13,4,4,0,0,1,1.62.31v1.14a3.12,3.12,0,0,0-1.77-.51,2.47,2.47,0,0,0-.57.07,1.63,1.63,0,0,0-.44.2,1.06,1.06,0,0,0-.28.32.88.88,0,0,0-.1.4,1,1,0,0,0,.1.45,1,1,0,0,0,.29.33,2.31,2.31,0,0,0,.47.26l.62.25a8.42,8.42,0,0,1,.84.37,3.35,3.35,0,0,1,.62.42,1.53,1.53,0,0,1,.4.55,1.64,1.64,0,0,1,.14.73,1.72,1.72,0,0,1-.22.9,2,2,0,0,1-.62.64,2.68,2.68,0,0,1-.88.37,4.42,4.42,0,0,1-1,.13A4,4,0,0,1,196,26.65Z"/><path class="cls-18" d="M269.58,26.9h-1.37l-1.64-2.75a6.61,6.61,0,0,0-.44-.65,2.58,2.58,0,0,0-.43-.44,1.57,1.57,0,0,0-.48-.25,2.08,2.08,0,0,0-.58-.08h-.94V26.9h-1.15V17.1h2.92a4.08,4.08,0,0,1,1.19.16,2.63,2.63,0,0,1,.94.49,2.23,2.23,0,0,1,.63.82,2.67,2.67,0,0,1,.22,1.14,2.81,2.81,0,0,1-.15.94,2.3,2.3,0,0,1-.44.76,2.35,2.35,0,0,1-.68.57,3.62,3.62,0,0,1-.9.37v0a1.8,1.8,0,0,1,.43.25,2.1,2.1,0,0,1,.34.33,4,4,0,0,1,.33.43l.36.57Zm-5.88-8.76v3.55h1.56a2.26,2.26,0,0,0,.79-.13,1.64,1.64,0,0,0,.63-.37,1.67,1.67,0,0,0,.42-.59,2,2,0,0,0,.15-.79,1.53,1.53,0,0,0-.51-1.23,2.21,2.21,0,0,0-1.47-.44Z"/><path class="cls-18" d="M276,23.68h-4.94a2.6,2.6,0,0,0,.62,1.81,2.21,2.21,0,0,0,1.66.63,3.42,3.42,0,0,0,2.17-.78V26.4a4.1,4.1,0,0,1-2.44.67,3,3,0,0,1-2.33-1,3.92,3.92,0,0,1-.85-2.68,3.8,3.8,0,0,1,.93-2.66,3,3,0,0,1,2.3-1,2.62,2.62,0,0,1,2.13.89,3.69,3.69,0,0,1,.75,2.46Zm-1.15-.95a2.24,2.24,0,0,0-.47-1.51,1.59,1.59,0,0,0-1.28-.54,1.81,1.81,0,0,0-1.35.57,2.58,2.58,0,0,0-.68,1.48Z"/><path class="cls-18" d="M287.64,26.9h-1.12v-4a3,3,0,0,0-.36-1.68,1.35,1.35,0,0,0-1.2-.52,1.48,1.48,0,0,0-1.22.66,2.47,2.47,0,0,0-.51,1.57v4h-1.12V22.75q0-2.07-1.59-2.07a1.49,1.49,0,0,0-1.22.62,2.55,2.55,0,0,0-.48,1.61v4H277.7v-7h1.12V21h0A2.38,2.38,0,0,1,281,19.74a2,2,0,0,1,1.25.4,2,2,0,0,1,.73,1.05,2.49,2.49,0,0,1,2.32-1.45q2.31,0,2.31,2.85Z"/><path class="cls-18" d="M290.34,18.12a.71.71,0,0,1-.52-.2.75.75,0,0,1,0-1,.75.75,0,0,1,1,0,.74.74,0,0,1,0,1A.72.72,0,0,1,290.34,18.12Zm.54,8.78h-1.12v-7h1.12Z"/><path class="cls-18" d="M292.73,26.65v-1.2a3.31,3.31,0,0,0,2,.67c1,0,1.47-.33,1.47-1a.9.9,0,0,0-.12-.48,1.26,1.26,0,0,0-.35-.34,2.61,2.61,0,0,0-.5-.27c-.2-.08-.4-.17-.63-.25a7.93,7.93,0,0,1-.81-.37,2.5,2.5,0,0,1-.59-.43,1.56,1.56,0,0,1-.36-.53,2,2,0,0,1-.12-.71,1.66,1.66,0,0,1,.23-.87,2,2,0,0,1,.6-.64,2.68,2.68,0,0,1,.86-.38,3.64,3.64,0,0,1,1-.13,4,4,0,0,1,1.63.31v1.14a3.17,3.17,0,0,0-1.78-.51,2.47,2.47,0,0,0-.57.07,1.71,1.71,0,0,0-.43.2,1.06,1.06,0,0,0-.28.32.77.77,0,0,0-.1.4.88.88,0,0,0,.1.45.91.91,0,0,0,.29.33,2.07,2.07,0,0,0,.47.26l.62.25a7.3,7.3,0,0,1,.83.37,3.13,3.13,0,0,1,.63.42,1.66,1.66,0,0,1,.4.55,1.79,1.79,0,0,1,.14.73,1.72,1.72,0,0,1-.23.9,1.87,1.87,0,0,1-.61.64,2.78,2.78,0,0,1-.88.37,4.44,4.44,0,0,1-1,.13A3.94,3.94,0,0,1,292.73,26.65Z"/><path class="cls-18" d="M299.67,18.12a.72.72,0,0,1-.52-.2.75.75,0,0,1,0-1,.73.73,0,0,1,.52-.21.72.72,0,0,1,.52.21.71.71,0,0,1,0,1A.72.72,0,0,1,299.67,18.12Zm.54,8.78h-1.12v-7h1.12Z"/><path class="cls-18" d="M305.41,27.07a3.25,3.25,0,0,1-2.48-1,3.61,3.61,0,0,1-.92-2.6,3.79,3.79,0,0,1,1-2.75,3.46,3.46,0,0,1,2.6-1,3.16,3.16,0,0,1,2.45,1,3.85,3.85,0,0,1,.88,2.67,3.78,3.78,0,0,1-.95,2.69A3.33,3.33,0,0,1,305.41,27.07Zm.08-6.39a2.14,2.14,0,0,0-1.71.74,3,3,0,0,0-.63,2,2.85,2.85,0,0,0,.64,2,2.15,2.15,0,0,0,1.7.72,2,2,0,0,0,1.67-.7,3.06,3.06,0,0,0,.59-2,3.13,3.13,0,0,0-.59-2A2,2,0,0,0,305.49,20.68Z"/><path class="cls-18" d="M316.5,26.9h-1.12v-4c0-1.49-.55-2.23-1.63-2.23a1.77,1.77,0,0,0-1.39.63,2.34,2.34,0,0,0-.55,1.6v4h-1.12v-7h1.12v1.16h0a2.51,2.51,0,0,1,2.29-1.32,2.13,2.13,0,0,1,1.76.74,3.33,3.33,0,0,1,.61,2.14Z"/><path class="cls-18" d="M324.24,23.68h-4.95a2.66,2.66,0,0,0,.63,1.81,2.19,2.19,0,0,0,1.66.63,3.42,3.42,0,0,0,2.17-.78V26.4a4.1,4.1,0,0,1-2.44.67,2.94,2.94,0,0,1-2.33-1,3.87,3.87,0,0,1-.85-2.68,3.8,3.8,0,0,1,.93-2.66,3,3,0,0,1,2.3-1,2.6,2.6,0,0,1,2.12.89,3.64,3.64,0,0,1,.76,2.46Zm-1.15-.95a2.29,2.29,0,0,0-.47-1.51,1.6,1.6,0,0,0-1.28-.54,1.81,1.81,0,0,0-1.35.57,2.52,2.52,0,0,0-.68,1.48Z"/><path class="cls-18" d="M325.51,26.65v-1.2a3.31,3.31,0,0,0,2,.67c1,0,1.48-.33,1.48-1a.82.82,0,0,0-.13-.48,1.1,1.1,0,0,0-.34-.34,2.61,2.61,0,0,0-.5-.27l-.63-.25c-.31-.12-.58-.25-.82-.37A2.43,2.43,0,0,1,326,23a1.56,1.56,0,0,1-.36-.53,2,2,0,0,1-.12-.71,1.66,1.66,0,0,1,.23-.87,2,2,0,0,1,.6-.64,2.59,2.59,0,0,1,.86-.38,3.64,3.64,0,0,1,1-.13,4,4,0,0,1,1.63.31v1.14a3.17,3.17,0,0,0-1.78-.51,2.47,2.47,0,0,0-.57.07,1.56,1.56,0,0,0-.43.2.94.94,0,0,0-.28.32.77.77,0,0,0-.1.4.88.88,0,0,0,.1.45.83.83,0,0,0,.29.33,2.22,2.22,0,0,0,.46.26l.63.25a8.19,8.19,0,0,1,.83.37,3.13,3.13,0,0,1,.63.42,1.66,1.66,0,0,1,.4.55,1.79,1.79,0,0,1,.14.73,1.72,1.72,0,0,1-.23.9,2,2,0,0,1-.61.64,2.78,2.78,0,0,1-.88.37,4.51,4.51,0,0,1-1.05.13A3.94,3.94,0,0,1,325.51,26.65Z"/><path class="cls-18" d="M390.93,18.14H387.1v3.39h3.55v1H387.1V26.9H386V17.1h5Z"/><path class="cls-18" d="M397.41,26.58a3.64,3.64,0,0,1-1.91.49,3.19,3.19,0,0,1-2.42-1,3.54,3.54,0,0,1-.92-2.52,3.88,3.88,0,0,1,1-2.78,3.48,3.48,0,0,1,2.65-1.05,3.65,3.65,0,0,1,1.63.34v1.15a2.83,2.83,0,0,0-1.67-.55,2.26,2.26,0,0,0-1.76.77,2.91,2.91,0,0,0-.69,2,2.77,2.77,0,0,0,.65,1.94,2.21,2.21,0,0,0,1.73.71,2.76,2.76,0,0,0,1.72-.61Z"/><path class="cls-18" d="M402.36,26.83a2.15,2.15,0,0,1-1.05.22c-1.23,0-1.84-.68-1.84-2.05V20.86h-1.2v-1h1.2V18.19l1.12-.36V19.9h1.77v1h-1.77V24.8a1.65,1.65,0,0,0,.24,1,1,1,0,0,0,.79.3,1.23,1.23,0,0,0,.74-.23Z"/><path class="cls-18" d="M414.56,23.28H411.8V26h-.91V23.28h-2.75v-.92h2.75V19.61h.91v2.75h2.76Z"/><path class="cls-18" d="M428.28,26.9h-1.37l-1.64-2.75a6.61,6.61,0,0,0-.44-.65,2.25,2.25,0,0,0-.43-.44,1.57,1.57,0,0,0-.48-.25,2,2,0,0,0-.58-.08h-.94V26.9h-1.15V17.1h2.93a4.06,4.06,0,0,1,1.18.16,2.76,2.76,0,0,1,.95.49,2.37,2.37,0,0,1,.62.81,2.74,2.74,0,0,1,.23,1.15,2.81,2.81,0,0,1-.16.94,2.4,2.4,0,0,1-.44.76,2.22,2.22,0,0,1-.68.57,3.62,3.62,0,0,1-.9.37v0a1.62,1.62,0,0,1,.43.25,1.76,1.76,0,0,1,.34.33,4,4,0,0,1,.33.43q.17.24.36.57Zm-5.88-8.76v3.55H424a2.26,2.26,0,0,0,.79-.13,1.77,1.77,0,0,0,.64-.37,1.78,1.78,0,0,0,.41-.59,2,2,0,0,0,.15-.79,1.53,1.53,0,0,0-.51-1.23,2.15,2.15,0,0,0-1.47-.44Z"/><path class="cls-18" d="M434.71,23.68h-4.94a2.66,2.66,0,0,0,.63,1.81,2.17,2.17,0,0,0,1.65.63,3.42,3.42,0,0,0,2.17-.78V26.4a4.08,4.08,0,0,1-2.44.67,3,3,0,0,1-2.33-1,3.91,3.91,0,0,1-.84-2.68,3.79,3.79,0,0,1,.92-2.66,3,3,0,0,1,2.3-1,2.61,2.61,0,0,1,2.13.89,3.69,3.69,0,0,1,.75,2.46Zm-1.15-.95a2.24,2.24,0,0,0-.47-1.51,1.58,1.58,0,0,0-1.28-.54,1.81,1.81,0,0,0-1.35.57,2.65,2.65,0,0,0-.68,1.48Z"/><path class="cls-18" d="M446.34,26.9h-1.12v-4a3,3,0,0,0-.36-1.68,1.34,1.34,0,0,0-1.2-.52,1.48,1.48,0,0,0-1.22.66,2.46,2.46,0,0,0-.5,1.57v4h-1.13V22.75q0-2.07-1.59-2.07a1.49,1.49,0,0,0-1.22.62,2.61,2.61,0,0,0-.47,1.61v4h-1.12v-7h1.12V21h0a2.38,2.38,0,0,1,2.18-1.27,2,2,0,0,1,1.25.4,2,2,0,0,1,.73,1.05A2.49,2.49,0,0,1,444,19.74q2.31,0,2.31,2.85Z"/><path class="cls-19" d="M26.57,61.1l-3.63,9.8H21.68l-3.56-9.8H19.4l2.72,7.77a4.7,4.7,0,0,1,.19.87h0a4.1,4.1,0,0,1,.23-.88l2.76-7.76Z"/><path class="cls-19" d="M31.84,70.9H30.71V69.81h0a2.36,2.36,0,0,1-2.16,1.26,2.29,2.29,0,0,1-1.63-.56A1.9,1.9,0,0,1,26.31,69q0-2,2.31-2.28l2.09-.3c0-1.18-.48-1.78-1.44-1.78a3.47,3.47,0,0,0-2.28.86V64.39a4.4,4.4,0,0,1,2.38-.65c1.64,0,2.47.87,2.47,2.61Zm-1.13-3.54L29,67.59a2.76,2.76,0,0,0-1.18.39,1.12,1.12,0,0,0-.4,1,1.1,1.1,0,0,0,.37.84,1.44,1.44,0,0,0,1,.32,1.79,1.79,0,0,0,1.38-.58,2.11,2.11,0,0,0,.54-1.48Z"/><path class="cls-19" d="M35.07,70.9H34V60.54h1.12Z"/><path class="cls-19" d="M40.26,71.07a3.21,3.21,0,0,1-2.47-1,3.62,3.62,0,0,1-.93-2.6,3.79,3.79,0,0,1,1-2.75,3.48,3.48,0,0,1,2.61-1,3.13,3.13,0,0,1,2.44,1,3.79,3.79,0,0,1,.88,2.67,3.75,3.75,0,0,1-1,2.69A3.31,3.31,0,0,1,40.26,71.07Zm.09-6.39a2.14,2.14,0,0,0-1.71.74,3,3,0,0,0-.63,2,2.85,2.85,0,0,0,.63,2,2.18,2.18,0,0,0,1.71.72,2,2,0,0,0,1.67-.7,3.06,3.06,0,0,0,.58-2,3.13,3.13,0,0,0-.58-2A2.06,2.06,0,0,0,40.35,64.68Z"/><path class="cls-19" d="M49.19,65a1.37,1.37,0,0,0-.85-.23,1.43,1.43,0,0,0-1.19.68,3,3,0,0,0-.49,1.84V70.9H45.54v-7h1.12v1.44h0a2.46,2.46,0,0,1,.73-1.15,1.71,1.71,0,0,1,1.1-.41,1.92,1.92,0,0,1,.67.09Z"/><path class="cls-19" d="M62.3,70.9H60.89l-5-7.81a3.59,3.59,0,0,1-.31-.62h0a11.85,11.85,0,0,1,0,1.35V70.9H54.39V61.1h1.49l4.91,7.69a7.6,7.6,0,0,1,.4.66h0A9.82,9.82,0,0,1,61.15,68V61.1H62.3Z"/><path class="cls-19" d="M70.06,70.9H64.87V61.1h5v1H66V65.4h3.54v1H66v3.43h4Z"/><path class="cls-19" d="M77.77,62.14H74.94V70.9H73.79V62.14H71v-1h6.8Z"/><path class="cls-19" d="M82.63,71.07a4.3,4.3,0,0,1-3.34-1.38A5.11,5.11,0,0,1,78,66.12a5.42,5.42,0,0,1,1.28-3.78,4.46,4.46,0,0,1,3.48-1.41,4.22,4.22,0,0,1,3.27,1.37,5.1,5.1,0,0,1,1.24,3.58A5.4,5.4,0,0,1,86,69.67,4.39,4.39,0,0,1,82.63,71.07Zm.09-9.1a3.17,3.17,0,0,0-2.51,1.12,4.27,4.27,0,0,0-1,2.92,4.39,4.39,0,0,0,.94,2.92A3.06,3.06,0,0,0,82.63,70a3.23,3.23,0,0,0,2.55-1,4.3,4.3,0,0,0,.93-3,4.46,4.46,0,0,0-.91-3A3.1,3.1,0,0,0,82.72,62Z"/><path class="cls-19" d="M29.28,122.9H28.14v-6.57c0-.52,0-1.16.09-1.91h0a5.7,5.7,0,0,1-.3,1l-3.35,7.53H24l-3.34-7.48a5.51,5.51,0,0,1-.29-1h0c0,.39.05,1,.05,1.92v6.56h-1.1v-9.8H20.8l3,6.83a9.65,9.65,0,0,1,.45,1.18h0c.2-.54.36-.94.47-1.2l3.07-6.81h1.44Z"/><path class="cls-19" d="M36.72,122.9H35.6v-1.09h0a2.35,2.35,0,0,1-2.15,1.26,2.3,2.3,0,0,1-1.64-.56,1.9,1.9,0,0,1-.59-1.47q0-2,2.31-2.28l2.1-.3c0-1.18-.49-1.78-1.45-1.78a3.47,3.47,0,0,0-2.28.86v-1.15a4.4,4.4,0,0,1,2.38-.65c1.64,0,2.47.87,2.47,2.61Zm-1.12-3.54-1.69.23a2.81,2.81,0,0,0-1.18.39,1.12,1.12,0,0,0-.4,1,1.1,1.1,0,0,0,.37.84,1.44,1.44,0,0,0,1,.32,1.79,1.79,0,0,0,1.38-.58,2.12,2.12,0,0,0,.55-1.48Z"/><path class="cls-19" d="M42.48,117a1.39,1.39,0,0,0-.85-.23,1.43,1.43,0,0,0-1.2.68,3.12,3.12,0,0,0-.48,1.84v3.57H38.83v-7H40v1.44h0a2.46,2.46,0,0,1,.73-1.15,1.69,1.69,0,0,1,1.1-.41,2,2,0,0,1,.67.09Z"/><path class="cls-19" d="M49.49,122.34q0,3.85-3.7,3.86a4.89,4.89,0,0,1-2.26-.5v-1.12a4.61,4.61,0,0,0,2.25.66c1.72,0,2.59-.92,2.59-2.75v-.76h0a2.83,2.83,0,0,1-4.51.4,3.71,3.71,0,0,1-.8-2.5,4.37,4.37,0,0,1,.86-2.84,2.87,2.87,0,0,1,2.35-1.05,2.3,2.3,0,0,1,2.1,1.13h0v-1h1.12Zm-1.12-2.6v-1a2,2,0,0,0-.57-1.42,1.83,1.83,0,0,0-1.4-.6,1.93,1.93,0,0,0-1.63.76,3.37,3.37,0,0,0-.59,2.11,2.88,2.88,0,0,0,.57,1.87,1.8,1.8,0,0,0,1.49.7,1.92,1.92,0,0,0,1.53-.67A2.46,2.46,0,0,0,48.37,119.74Z"/><path class="cls-19" d="M57.38,119.68H52.44a2.66,2.66,0,0,0,.63,1.81,2.17,2.17,0,0,0,1.65.63,3.45,3.45,0,0,0,2.18-.78v1.06a4.12,4.12,0,0,1-2.44.67,3,3,0,0,1-2.34-1,3.91,3.91,0,0,1-.84-2.68,3.84,3.84,0,0,1,.92-2.66,3,3,0,0,1,2.3-1,2.61,2.61,0,0,1,2.13.89,3.69,3.69,0,0,1,.75,2.46Zm-1.15-1a2.29,2.29,0,0,0-.46-1.51,1.61,1.61,0,0,0-1.29-.54,1.79,1.79,0,0,0-1.34.57,2.59,2.59,0,0,0-.69,1.48Z"/><path class="cls-19" d="M64.89,122.9H63.77v-4c0-1.49-.55-2.23-1.63-2.23a1.77,1.77,0,0,0-1.39.63,2.34,2.34,0,0,0-.55,1.6v4H59.08v-7H60.2v1.16h0a2.51,2.51,0,0,1,2.29-1.32,2.13,2.13,0,0,1,1.76.74,3.27,3.27,0,0,1,.61,2.14Z"/><path class="cls-19" d="M20.43,175.2v3.7H19.29v-9.8H22a3.57,3.57,0,0,1,2.44.76,2.75,2.75,0,0,1,.86,2.16,3,3,0,0,1-1,2.29,3.69,3.69,0,0,1-2.59.89Zm0-5.06v4h1.21a2.65,2.65,0,0,0,1.81-.55,1.91,1.91,0,0,0,.63-1.53c0-1.3-.77-1.94-2.3-1.94Z"/><path class="cls-19" d="M32.08,175.68H27.14a2.66,2.66,0,0,0,.63,1.81,2.17,2.17,0,0,0,1.65.63,3.45,3.45,0,0,0,2.18-.78v1.06a4.12,4.12,0,0,1-2.44.67,2.94,2.94,0,0,1-2.33-1,4.47,4.47,0,0,1,.07-5.34,3,3,0,0,1,2.3-1,2.61,2.61,0,0,1,2.13.89,3.69,3.69,0,0,1,.75,2.46Zm-1.15-1a2.29,2.29,0,0,0-.46-1.51,1.61,1.61,0,0,0-1.29-.54,1.79,1.79,0,0,0-1.34.57,2.59,2.59,0,0,0-.69,1.48Z"/><path class="cls-19" d="M33.35,178.65v-1.2a3.33,3.33,0,0,0,2,.67c1,0,1.48-.33,1.48-1a.9.9,0,0,0-.13-.48,1.22,1.22,0,0,0-.34-.34,2.7,2.7,0,0,0-.51-.27l-.62-.25c-.31-.13-.58-.25-.82-.37a2.72,2.72,0,0,1-.59-.43,1.62,1.62,0,0,1-.35-.54,1.86,1.86,0,0,1-.12-.7,1.66,1.66,0,0,1,.22-.87,2,2,0,0,1,.6-.64,2.68,2.68,0,0,1,.86-.38,3.71,3.71,0,0,1,1-.13,4,4,0,0,1,1.62.31v1.14a3.12,3.12,0,0,0-1.77-.51,2,2,0,0,0-.57.07,1.56,1.56,0,0,0-.43.2.88.88,0,0,0-.29.32.87.87,0,0,0-.09.4,1,1,0,0,0,.09.45.94.94,0,0,0,.3.33,2,2,0,0,0,.46.26L36,175a8.42,8.42,0,0,1,.84.37,3.83,3.83,0,0,1,.63.42A1.73,1.73,0,0,1,38,177a1.74,1.74,0,0,1-.23.9,2,2,0,0,1-.62.64,2.92,2.92,0,0,1-.88.37,4.42,4.42,0,0,1-1,.13A4,4,0,0,1,33.35,178.65Z"/><path class="cls-19" d="M42.64,179.07a3.21,3.21,0,0,1-2.47-1,3.62,3.62,0,0,1-.93-2.6,3.79,3.79,0,0,1,1-2.75,3.48,3.48,0,0,1,2.61-1,3.13,3.13,0,0,1,2.44,1,4.38,4.38,0,0,1-.07,5.36A3.31,3.31,0,0,1,42.64,179.07Zm.09-6.39a2.14,2.14,0,0,0-1.71.74,3,3,0,0,0-.63,2,2.85,2.85,0,0,0,.63,2,2.17,2.17,0,0,0,1.71.72,2,2,0,0,0,1.67-.7,3.06,3.06,0,0,0,.58-2,3.13,3.13,0,0,0-.58-2A2.06,2.06,0,0,0,42.73,172.68Z"/><path class="cls-19" d="M59.81,178.9H58.4l-5-7.81a3,3,0,0,1-.32-.62h0a9.81,9.81,0,0,1,0,1.35v7.08H51.91v-9.8H53.4l4.9,7.69a7.6,7.6,0,0,1,.4.66h0a9.82,9.82,0,0,1-.07-1.45v-6.9h1.15Z"/><path class="cls-19" d="M67.57,178.9H62.38v-9.8h5v1H63.53v3.26h3.54v1H63.53v3.43h4Z"/><path class="cls-19" d="M75.29,170.14H72.46v8.76H71.31v-8.76H68.48v-1h6.81Z"/><path class="cls-19" d="M80.15,179.07a4.29,4.29,0,0,1-3.34-1.38,5.07,5.07,0,0,1-1.26-3.57,5.42,5.42,0,0,1,1.28-3.78,4.46,4.46,0,0,1,3.48-1.41,4.22,4.22,0,0,1,3.27,1.37,5.1,5.1,0,0,1,1.24,3.58,5.4,5.4,0,0,1-1.27,3.79A4.38,4.38,0,0,1,80.15,179.07Zm.08-9.1a3.17,3.17,0,0,0-2.51,1.12,4.32,4.32,0,0,0-1,2.92,4.39,4.39,0,0,0,.94,2.92,3.07,3.07,0,0,0,2.46,1.1A3.22,3.22,0,0,0,82.69,177a4.3,4.3,0,0,0,.93-2.95,4.51,4.51,0,0,0-.9-3A3.14,3.14,0,0,0,80.23,170Z"/><path class="cls-18" d="M524.39,26.9H519.3V17.1h1.15v8.76h3.94Z"/><path class="cls-18" d="M531.38,17.1l-3.23,6.18V26.9H527V23.31l-3.15-6.21h1.3l2.2,4.43s.1.25.23.6h0a4.94,4.94,0,0,1,.26-.6l2.3-4.43Z"/><path class="cls-18" d="M541.56,18.14h-3.83v3.39h3.54v1h-3.54V26.9h-1.15V17.1h5Z"/><path class="cls-18" d="M547.76,26.9h-1.12V25.81h0a2.35,2.35,0,0,1-2.15,1.26,2.3,2.3,0,0,1-1.64-.56,1.9,1.9,0,0,1-.59-1.47q0-2,2.31-2.28l2.1-.29c0-1.19-.48-1.79-1.45-1.79a3.47,3.47,0,0,0-2.28.86V20.39a4.4,4.4,0,0,1,2.38-.65c1.64,0,2.47.87,2.47,2.61Zm-1.12-3.54-1.69.23a2.81,2.81,0,0,0-1.18.39,1.11,1.11,0,0,0-.39,1,1.09,1.09,0,0,0,.36.84,1.44,1.44,0,0,0,1,.32,1.78,1.78,0,0,0,1.37-.58,2.06,2.06,0,0,0,.55-1.48Z"/><path class="cls-18" d="M554.64,26.58a3.66,3.66,0,0,1-1.91.49,3.17,3.17,0,0,1-2.42-1,3.54,3.54,0,0,1-.92-2.52,3.88,3.88,0,0,1,1-2.78A3.46,3.46,0,0,1,553,19.74a3.61,3.61,0,0,1,1.62.34v1.15a2.78,2.78,0,0,0-1.66-.55,2.25,2.25,0,0,0-1.76.77,2.91,2.91,0,0,0-.69,2,2.73,2.73,0,0,0,.65,1.94,2.19,2.19,0,0,0,1.73.71,2.78,2.78,0,0,0,1.72-.61Z"/><path class="cls-18" d="M559.58,26.83a2.09,2.09,0,0,1-1,.22c-1.23,0-1.84-.68-1.84-2.05V20.86h-1.2v-1h1.2V18.19l1.12-.36V19.9h1.76v1h-1.76V24.8a1.65,1.65,0,0,0,.24,1,1,1,0,0,0,.79.3,1.2,1.2,0,0,0,.73-.23Z"/><path class="cls-18" d="M566.74,26.9h-1.12V25.79h0a2.3,2.3,0,0,1-2.16,1.28c-1.67,0-2.5-1-2.5-3V19.9H562v4c0,1.47.57,2.21,1.7,2.21a1.71,1.71,0,0,0,1.35-.6,2.34,2.34,0,0,0,.53-1.58v-4h1.12Z"/><path class="cls-18" d="M572.65,21a1.33,1.33,0,0,0-.84-.23,1.43,1.43,0,0,0-1.2.68,3.11,3.11,0,0,0-.49,1.84V26.9H569v-7h1.12v1.44h0a2.54,2.54,0,0,1,.73-1.15,1.71,1.71,0,0,1,1.1-.41,1.89,1.89,0,0,1,.67.09Z"/><path class="cls-18" d="M578.88,26.9h-1.12V25.81h0a2.54,2.54,0,0,1-3.79.7,1.94,1.94,0,0,1-.59-1.47q0-2,2.31-2.28l2.1-.29c0-1.19-.48-1.79-1.44-1.79a3.47,3.47,0,0,0-2.29.86V20.39a4.43,4.43,0,0,1,2.38-.65c1.65,0,2.47.87,2.47,2.61Zm-1.12-3.54-1.69.23a2.71,2.71,0,0,0-1.17.39,1.09,1.09,0,0,0-.4,1,1.07,1.07,0,0,0,.37.84,1.42,1.42,0,0,0,1,.32,1.81,1.81,0,0,0,1.38-.58,2.09,2.09,0,0,0,.54-1.48Z"/><path class="cls-18" d="M587.39,17.18a9.24,9.24,0,0,0-1.76,5.73,9.49,9.49,0,0,0,1.76,5.69h-1a9,9,0,0,1-1.84-5.69,9.18,9.18,0,0,1,1.84-5.73Z"/><path class="cls-18" d="M588,26.22l3.29-8.76h1.39L596,26.2v.7H588Zm6.57-.34-1.92-5.2c-.24-.66-.53-1.5-.7-2.1h0c-.14.48-.39,1.26-.63,1.92l-2,5.38Z"/><path class="cls-18" d="M599.3,27.46l3.91-10.15h.95l-3.92,10.15Z"/><path class="cls-18" d="M611.82,20.36c0,1.92-1,2.87-2.18,2.87s-2.12-.91-2.13-2.74,1-2.85,2.2-2.85S611.82,18.62,611.82,20.36Zm-3.33.08c0,1.17.4,2,1.17,2s1.18-.87,1.18-2.07-.32-2-1.18-2S608.49,19.3,608.49,20.44Zm1.06,6.62,5.35-9.42h.79l-5.35,9.42Zm8.2-2.93c0,1.92-1,2.87-2.17,2.87s-2.12-.91-2.13-2.73,1-2.86,2.2-2.86S617.75,22.39,617.75,24.13Zm-3.34.08c0,1.17.44,2.05,1.19,2.05s1.18-.87,1.18-2.08-.32-2-1.18-2S614.41,23.06,614.41,24.21Z"/><path class="cls-18" d="M618.46,28.6a9.52,9.52,0,0,0,1.76-5.73,9.35,9.35,0,0,0-1.76-5.69h.95a9,9,0,0,1,1.83,5.7,9.14,9.14,0,0,1-1.83,5.72Z"/><path class="cls-18" d="M727.14,26.9H726V20.33c0-.52,0-1.16.09-1.91h0a5,5,0,0,1-.29.95l-3.35,7.53h-.56l-3.34-7.48a5.37,5.37,0,0,1-.3-1h0c0,.39,0,1,0,1.92V26.9h-1.11V17.1h1.52l3,6.84a9.06,9.06,0,0,1,.45,1.17h0c.2-.54.35-.94.47-1.2l3.07-6.81h1.44Z"/><path class="cls-18" d="M735.19,23.68h-4.94a2.66,2.66,0,0,0,.63,1.81,2.17,2.17,0,0,0,1.65.63,3.47,3.47,0,0,0,2.18-.78V26.4a4.12,4.12,0,0,1-2.44.67,3,3,0,0,1-2.34-1,3.91,3.91,0,0,1-.84-2.68,3.84,3.84,0,0,1,.92-2.66,3,3,0,0,1,2.3-1,2.61,2.61,0,0,1,2.13.89,3.69,3.69,0,0,1,.75,2.46ZM734,22.73a2.24,2.24,0,0,0-.47-1.51,1.58,1.58,0,0,0-1.28-.54,1.78,1.78,0,0,0-1.34.57,2.59,2.59,0,0,0-.69,1.48Z"/><path class="cls-18" d="M740.13,26.83a2.09,2.09,0,0,1-1,.22c-1.23,0-1.84-.68-1.84-2.05V20.86h-1.2v-1h1.2V18.19l1.12-.36V19.9h1.76v1h-1.76V24.8a1.65,1.65,0,0,0,.24,1,1,1,0,0,0,.79.3,1.2,1.2,0,0,0,.73-.23Z"/><path class="cls-18" d="M746.64,26.9h-1.12V25.81h0a2.34,2.34,0,0,1-2.15,1.26,2.31,2.31,0,0,1-1.64-.56,1.94,1.94,0,0,1-.59-1.47q0-2,2.31-2.28l2.1-.29c0-1.19-.48-1.79-1.44-1.79a3.47,3.47,0,0,0-2.29.86V20.39a4.43,4.43,0,0,1,2.38-.65c1.65,0,2.47.87,2.47,2.61Zm-1.12-3.54-1.69.23a2.71,2.71,0,0,0-1.17.39,1.28,1.28,0,0,0,0,1.82,1.46,1.46,0,0,0,1,.32,1.81,1.81,0,0,0,1.38-.58,2.09,2.09,0,0,0,.54-1.48Z"/><path class="cls-18" d="M753.89,23.2v3.7h-1.15V17.1h2.69a3.57,3.57,0,0,1,2.44.76,2.75,2.75,0,0,1,.86,2.16,3,3,0,0,1-1,2.29,3.67,3.67,0,0,1-2.59.89Zm0-5.06v4h1.2a2.68,2.68,0,0,0,1.82-.55,1.93,1.93,0,0,0,.62-1.53c0-1.29-.76-1.94-2.3-1.94Z"/><path class="cls-18" d="M764.53,27.07a4.3,4.3,0,0,1-3.34-1.38,5.07,5.07,0,0,1-1.25-3.57,5.38,5.38,0,0,1,1.28-3.78,4.44,4.44,0,0,1,3.47-1.4A4.22,4.22,0,0,1,768,18.3a5.16,5.16,0,0,1,1.24,3.58,5.44,5.44,0,0,1-1.27,3.79A4.4,4.4,0,0,1,764.53,27.07Zm.08-9.1a3.19,3.19,0,0,0-2.51,1.12,4.32,4.32,0,0,0-1,2.92,4.34,4.34,0,0,0,.94,2.92,3,3,0,0,0,2.45,1.1A3.21,3.21,0,0,0,767.07,25,4.3,4.3,0,0,0,768,22a4.51,4.51,0,0,0-.9-3A3.11,3.11,0,0,0,764.61,18Z"/><path class="cls-18" d="M777.38,17.18a9.24,9.24,0,0,0-1.76,5.73,9.49,9.49,0,0,0,1.76,5.69h-1a9,9,0,0,1-1.84-5.69,9.18,9.18,0,0,1,1.84-5.73Z"/><path class="cls-18" d="M778,26.22l3.29-8.76h1.39l3.25,8.74v.7H778Zm6.57-.34-1.92-5.2c-.24-.66-.53-1.5-.7-2.1h0c-.14.48-.39,1.26-.63,1.92l-2,5.38Z"/><path class="cls-18" d="M789.29,27.46l3.91-10.15h.95l-3.92,10.15Z"/><path class="cls-18" d="M801.81,20.36c0,1.92-1,2.87-2.18,2.87s-2.12-.91-2.13-2.74,1-2.85,2.2-2.85S801.81,18.62,801.81,20.36Zm-3.33.08c0,1.17.4,2,1.17,2s1.18-.87,1.18-2.07-.32-2-1.18-2S798.48,19.3,798.48,20.44Zm1.06,6.62,5.35-9.42h.79l-5.35,9.42Zm8.2-2.93c0,1.92-1,2.87-2.17,2.87s-2.12-.91-2.13-2.73,1-2.86,2.2-2.86S807.74,22.39,807.74,24.13Zm-3.34.08c0,1.17.44,2.05,1.19,2.05s1.18-.87,1.18-2.08-.32-2-1.18-2S804.4,23.06,804.4,24.21Z"/><path class="cls-18" d="M808.45,28.6a9.52,9.52,0,0,0,1.76-5.73,9.35,9.35,0,0,0-1.76-5.69h.95a9,9,0,0,1,1.83,5.7,9.14,9.14,0,0,1-1.83,5.72Z"/><path class="cls-18" d="M915.46,18.14h-3.83v3.39h3.54v1h-3.54V26.9h-1.15V17.1h5Z"/><path class="cls-18" d="M920.09,27.07a3.25,3.25,0,0,1-2.48-1,3.65,3.65,0,0,1-.92-2.6,3.79,3.79,0,0,1,1-2.75,3.47,3.47,0,0,1,2.61-1,3.15,3.15,0,0,1,2.44,1,3.81,3.81,0,0,1,.88,2.67,3.78,3.78,0,0,1-1,2.69A3.33,3.33,0,0,1,920.09,27.07Zm.08-6.39a2.14,2.14,0,0,0-1.71.74,3,3,0,0,0-.62,2,2.85,2.85,0,0,0,.63,2,2.16,2.16,0,0,0,1.7.72,2,2,0,0,0,1.67-.7,3.06,3.06,0,0,0,.59-2,3.13,3.13,0,0,0-.59-2A2,2,0,0,0,920.17,20.68Z"/><path class="cls-18" d="M929,21a1.39,1.39,0,0,0-.85-.23,1.43,1.43,0,0,0-1.2.68,3.12,3.12,0,0,0-.48,1.84V26.9h-1.12v-7h1.12v1.44h0a2.46,2.46,0,0,1,.73-1.15,1.69,1.69,0,0,1,1.1-.41,2,2,0,0,1,.67.09Z"/><path class="cls-18" d="M935.68,23.68h-4.94a2.6,2.6,0,0,0,.62,1.81,2.19,2.19,0,0,0,1.66.63,3.42,3.42,0,0,0,2.17-.78V26.4a4.1,4.1,0,0,1-2.44.67,3,3,0,0,1-2.33-1,3.92,3.92,0,0,1-.85-2.68,3.8,3.8,0,0,1,.93-2.66,3,3,0,0,1,2.3-1,2.62,2.62,0,0,1,2.13.89,3.69,3.69,0,0,1,.75,2.46Zm-1.15-.95a2.29,2.29,0,0,0-.47-1.51,1.59,1.59,0,0,0-1.28-.54,1.81,1.81,0,0,0-1.35.57,2.52,2.52,0,0,0-.68,1.48Z"/><path class="cls-18" d="M942.14,26.58a3.64,3.64,0,0,1-1.91.49,3.19,3.19,0,0,1-2.42-1,3.54,3.54,0,0,1-.92-2.52,3.84,3.84,0,0,1,1-2.78,3.46,3.46,0,0,1,2.64-1.05,3.65,3.65,0,0,1,1.63.34v1.15a2.83,2.83,0,0,0-1.67-.55,2.26,2.26,0,0,0-1.76.77,2.91,2.91,0,0,0-.69,2,2.77,2.77,0,0,0,.65,1.94,2.21,2.21,0,0,0,1.73.71,2.76,2.76,0,0,0,1.72-.61Z"/><path class="cls-18" d="M948.85,26.9h-1.12V25.81h0a2.34,2.34,0,0,1-2.15,1.26,2.31,2.31,0,0,1-1.64-.56,1.94,1.94,0,0,1-.59-1.47q0-2,2.31-2.28l2.1-.29c0-1.19-.48-1.79-1.44-1.79a3.47,3.47,0,0,0-2.29.86V20.39a4.4,4.4,0,0,1,2.38-.65c1.65,0,2.47.87,2.47,2.61Zm-1.12-3.54-1.69.23a2.71,2.71,0,0,0-1.17.39,1.28,1.28,0,0,0,0,1.82,1.46,1.46,0,0,0,1,.32,1.82,1.82,0,0,0,1.38-.58,2.09,2.09,0,0,0,.54-1.48Z"/><path class="cls-18" d="M950.54,26.65v-1.2a3.31,3.31,0,0,0,2,.67c1,0,1.47-.33,1.47-1a.9.9,0,0,0-.12-.48,1.26,1.26,0,0,0-.35-.34,2.61,2.61,0,0,0-.5-.27c-.2-.08-.4-.17-.63-.25a7.93,7.93,0,0,1-.81-.37A2.31,2.31,0,0,1,951,23a1.56,1.56,0,0,1-.36-.53,2,2,0,0,1-.12-.71,1.66,1.66,0,0,1,.23-.87,2,2,0,0,1,.6-.64,2.68,2.68,0,0,1,.86-.38,3.64,3.64,0,0,1,1-.13,4,4,0,0,1,1.63.31v1.14a3.17,3.17,0,0,0-1.78-.51,2.47,2.47,0,0,0-.57.07,1.71,1.71,0,0,0-.43.2,1.06,1.06,0,0,0-.28.32.77.77,0,0,0-.1.4.88.88,0,0,0,.1.45.91.91,0,0,0,.29.33,2.07,2.07,0,0,0,.47.26l.62.25a7.3,7.3,0,0,1,.83.37,3.13,3.13,0,0,1,.63.42,1.66,1.66,0,0,1,.4.55,1.79,1.79,0,0,1,.14.73,1.72,1.72,0,0,1-.23.9,2,2,0,0,1-.61.64,2.78,2.78,0,0,1-.88.37,4.51,4.51,0,0,1-1.05.13A3.94,3.94,0,0,1,950.54,26.65Z"/><path class="cls-18" d="M960.15,26.83a2.1,2.1,0,0,1-1,.22c-1.22,0-1.83-.68-1.83-2.05V20.86h-1.21v-1h1.21V18.19l1.12-.36V19.9h1.76v1h-1.76V24.8a1.65,1.65,0,0,0,.24,1,1,1,0,0,0,.79.3,1.2,1.2,0,0,0,.73-.23Z"/><path class="cls-18" d="M968,17.18a9.24,9.24,0,0,0-1.76,5.73A9.49,9.49,0,0,0,968,28.6h-1a9.1,9.1,0,0,1-1.84-5.69,9.31,9.31,0,0,1,1.84-5.73Z"/><path class="cls-18" d="M968.67,26.22l3.3-8.76h1.38l3.25,8.74v.7h-7.93Zm6.57-.34-1.92-5.2c-.23-.66-.53-1.5-.7-2.1h0c-.14.48-.39,1.26-.63,1.92l-2,5.38Z"/><path class="cls-18" d="M980,27.46l3.91-10.15h1L980.9,27.46Z"/><path class="cls-18" d="M992.47,20.36c0,1.92-1,2.87-2.18,2.87s-2.12-.91-2.13-2.74,1-2.85,2.2-2.85S992.47,18.62,992.47,20.36Zm-3.33.08c0,1.17.41,2,1.18,2s1.17-.87,1.17-2.07-.32-2-1.17-2S989.14,19.3,989.14,20.44Zm1.07,6.62,5.35-9.42h.78L991,27.06Zm8.19-2.93c0,1.92-1,2.87-2.17,2.87s-2.12-.91-2.13-2.73,1-2.86,2.2-2.86S998.4,22.39,998.4,24.13Zm-3.33.08c0,1.17.43,2.05,1.19,2.05s1.17-.87,1.17-2.08-.32-2-1.17-2S995.07,23.06,995.07,24.21Z"/><path class="cls-18" d="M999.11,28.6a9.52,9.52,0,0,0,1.76-5.73,9.29,9.29,0,0,0-1.76-5.69h.95a8.9,8.9,0,0,1,1.84,5.7,9.07,9.07,0,0,1-1.84,5.72Z"/><path class="cls-19" d="M26,222.49a5.81,5.81,0,0,1-2.71.58,4.37,4.37,0,0,1-3.35-1.35,5,5,0,0,1-1.26-3.54,5.2,5.2,0,0,1,1.42-3.8,4.82,4.82,0,0,1,3.59-1.45,5.72,5.72,0,0,1,2.31.41v1.22a4.72,4.72,0,0,0-2.33-.59,3.55,3.55,0,0,0-2.73,1.13,4.25,4.25,0,0,0-1,3,4,4,0,0,0,1,2.85A3.32,3.32,0,0,0,23.4,222a4.92,4.92,0,0,0,2.56-.65Z"/><path class="cls-19" d="M28.92,222.9H27.8V212.54h1.12Z"/><path class="cls-19" d="M31.77,214.12a.72.72,0,0,1-.52-.2.75.75,0,0,1,0-1,.73.73,0,0,1,.52-.21.72.72,0,0,1,.52.21.71.71,0,0,1,0,1A.72.72,0,0,1,31.77,214.12Zm.54,8.78H31.19v-7h1.12Z"/><path class="cls-19" d="M40.21,219.68H35.27a2.66,2.66,0,0,0,.63,1.81,2.17,2.17,0,0,0,1.65.63,3.42,3.42,0,0,0,2.17-.78v1.06a4.08,4.08,0,0,1-2.44.67,3,3,0,0,1-2.33-1,3.91,3.91,0,0,1-.84-2.68,3.79,3.79,0,0,1,.92-2.66,3,3,0,0,1,2.3-1,2.61,2.61,0,0,1,2.13.89,3.69,3.69,0,0,1,.75,2.46Zm-1.15-1a2.24,2.24,0,0,0-.47-1.51,1.58,1.58,0,0,0-1.28-.54,1.81,1.81,0,0,0-1.35.57,2.65,2.65,0,0,0-.68,1.48Z"/><path class="cls-19" d="M47.72,222.9H46.59v-4c0-1.49-.54-2.23-1.62-2.23a1.76,1.76,0,0,0-1.39.63,2.34,2.34,0,0,0-.55,1.6v4H41.91v-7H43v1.16h0a2.54,2.54,0,0,1,2.3-1.32,2.13,2.13,0,0,1,1.76.74,3.33,3.33,0,0,1,.61,2.14Z"/><path class="cls-19" d="M53.08,222.83a2.15,2.15,0,0,1-1,.22c-1.23,0-1.84-.68-1.84-2.05v-4.14H49v-1h1.2v-1.71l1.12-.36v2.07h1.77v1H51.31v3.94a1.65,1.65,0,0,0,.24,1,1,1,0,0,0,.79.3,1.23,1.23,0,0,0,.74-.23Z"/><path class="cls-19" d="M60.09,219.68H55.15a2.56,2.56,0,0,0,.63,1.81,2.17,2.17,0,0,0,1.65.63,3.42,3.42,0,0,0,2.17-.78v1.06a4.1,4.1,0,0,1-2.44.67,3,3,0,0,1-2.33-1,3.92,3.92,0,0,1-.85-2.68,3.8,3.8,0,0,1,.93-2.66,3,3,0,0,1,2.3-1,2.61,2.61,0,0,1,2.13.89,3.69,3.69,0,0,1,.75,2.46Zm-1.15-1a2.24,2.24,0,0,0-.47-1.51,1.59,1.59,0,0,0-1.28-.54,1.81,1.81,0,0,0-1.35.57,2.58,2.58,0,0,0-.68,1.48Z"/><path class="cls-19" d="M61.36,222.65v-1.2a3.31,3.31,0,0,0,2,.67c1,0,1.47-.33,1.47-1a.9.9,0,0,0-.12-.48,1.37,1.37,0,0,0-.34-.34,3.05,3.05,0,0,0-.51-.27c-.19-.08-.4-.17-.63-.25s-.58-.25-.81-.37a2.5,2.5,0,0,1-.59-.43,1.51,1.51,0,0,1-.36-.54,1.86,1.86,0,0,1-.12-.7,1.66,1.66,0,0,1,.23-.87,2,2,0,0,1,.6-.64,2.68,2.68,0,0,1,.86-.38,3.64,3.64,0,0,1,1-.13,4,4,0,0,1,1.63.31v1.14a3.15,3.15,0,0,0-1.78-.51,1.91,1.91,0,0,0-.56.07,1.63,1.63,0,0,0-.44.2,1,1,0,0,0-.28.32.88.88,0,0,0-.1.4,1,1,0,0,0,.1.45.91.91,0,0,0,.29.33,2.07,2.07,0,0,0,.47.26L64,219a7.3,7.3,0,0,1,.83.37,3.13,3.13,0,0,1,.63.42,1.53,1.53,0,0,1,.4.55,1.92,1.92,0,0,1-.09,1.63,1.87,1.87,0,0,1-.61.64,2.92,2.92,0,0,1-.88.37,4.44,4.44,0,0,1-1.05.13A3.94,3.94,0,0,1,61.36,222.65Z"/><path class="cls-19" d="M27.19,266.9H25.78l-5.05-7.81a3.59,3.59,0,0,1-.31-.62h0a9.81,9.81,0,0,1,.05,1.35v7.08H19.29v-9.8h1.49l4.9,7.69a7.6,7.6,0,0,1,.4.66h0A9.82,9.82,0,0,1,26,264v-6.9h1.15Z"/><path class="cls-19" d="M35,266.9H29.76v-9.8h5v1H30.91v3.26h3.54v1H30.91v3.43h4Z"/><path class="cls-19" d="M42.66,258.14H39.83v8.76H38.69v-8.76H35.86v-1h6.8Z"/><path class="cls-19" d="M47.52,267.07a4.26,4.26,0,0,1-3.33-1.38,5.07,5.07,0,0,1-1.26-3.57,5.42,5.42,0,0,1,1.28-3.78,4.46,4.46,0,0,1,3.48-1.41A4.22,4.22,0,0,1,51,258.3a5.1,5.1,0,0,1,1.24,3.58,5.4,5.4,0,0,1-1.27,3.79A4.39,4.39,0,0,1,47.52,267.07Zm.09-9.1a3.14,3.14,0,0,0-2.51,1.12,4.32,4.32,0,0,0-1,2.92,4.39,4.39,0,0,0,.94,2.92,3.06,3.06,0,0,0,2.45,1.1,3.23,3.23,0,0,0,2.55-1,4.3,4.3,0,0,0,.93-3,4.46,4.46,0,0,0-.91-3A3.1,3.1,0,0,0,47.61,258Z"/><path class="cls-19" d="M62.24,257.1l-4.71,11.43h-1l4.69-11.43Z"/><path class="cls-19" d="M73.92,266.49a5.74,5.74,0,0,1-2.7.58,4.36,4.36,0,0,1-3.35-1.35,5,5,0,0,1-1.26-3.54,5.2,5.2,0,0,1,1.42-3.8,4.82,4.82,0,0,1,3.58-1.45,5.72,5.72,0,0,1,2.31.41v1.22A4.68,4.68,0,0,0,71.6,258a3.59,3.59,0,0,0-2.74,1.13,4.25,4.25,0,0,0-1,3,4.06,4.06,0,0,0,1,2.85A3.36,3.36,0,0,0,71.37,266a4.88,4.88,0,0,0,2.55-.65Z"/><path class="cls-19" d="M76.89,266.9H75.77V256.54h1.12Z"/><path class="cls-19" d="M79.74,258.12a.69.69,0,0,1-.52-.2.73.73,0,0,1,.52-1.25.73.73,0,0,1,.52.21.74.74,0,0,1,0,1A.73.73,0,0,1,79.74,258.12Zm.54,8.78H79.16v-7h1.12Z"/><path class="cls-19" d="M88.18,263.68H83.24a2.6,2.6,0,0,0,.62,1.81,2.21,2.21,0,0,0,1.66.63,3.42,3.42,0,0,0,2.17-.78v1.06a4.1,4.1,0,0,1-2.44.67,3,3,0,0,1-2.33-1,3.92,3.92,0,0,1-.85-2.68,3.8,3.8,0,0,1,.93-2.66,3,3,0,0,1,2.3-1,2.62,2.62,0,0,1,2.13.89,3.69,3.69,0,0,1,.75,2.46ZM87,262.73a2.29,2.29,0,0,0-.47-1.51,1.59,1.59,0,0,0-1.28-.54,1.81,1.81,0,0,0-1.35.57,2.58,2.58,0,0,0-.68,1.48Z"/><path class="cls-19" d="M95.68,266.9H94.56v-4c0-1.49-.54-2.23-1.62-2.23a1.79,1.79,0,0,0-1.4.63,2.39,2.39,0,0,0-.55,1.6v4H89.87v-7H91v1.16h0a2.54,2.54,0,0,1,2.3-1.32,2.14,2.14,0,0,1,1.76.74,3.33,3.33,0,0,1,.6,2.14Z"/><path class="cls-19" d="M101,266.83a2.09,2.09,0,0,1-1,.22c-1.23,0-1.84-.68-1.84-2.05v-4.14H97v-1h1.2v-1.71l1.12-.36v2.07H101v1H99.28v3.94a1.65,1.65,0,0,0,.24,1,1,1,0,0,0,.79.3,1.2,1.2,0,0,0,.73-.23Z"/><path class="cls-19" d="M108.06,263.68h-5a2.66,2.66,0,0,0,.63,1.81,2.19,2.19,0,0,0,1.66.63,3.42,3.42,0,0,0,2.17-.78v1.06a4.1,4.1,0,0,1-2.44.67,2.94,2.94,0,0,1-2.33-1,3.87,3.87,0,0,1-.85-2.68,3.8,3.8,0,0,1,.93-2.66,3,3,0,0,1,2.3-1,2.6,2.6,0,0,1,2.12.89,3.64,3.64,0,0,1,.76,2.46Zm-1.15-.95a2.29,2.29,0,0,0-.47-1.51,1.59,1.59,0,0,0-1.28-.54,1.81,1.81,0,0,0-1.35.57,2.52,2.52,0,0,0-.68,1.48Z"/><g class="cls-20"><path class="cls-19" d="M91.28,112.9H90.14v-6.57c0-.52,0-1.16.09-1.91h0a5.7,5.7,0,0,1-.3,1l-3.35,7.53H86l-3.34-7.48a5.51,5.51,0,0,1-.29-1h0c0,.39,0,1,0,1.92v6.56h-1.1v-9.8H82.8l3,6.83a9.65,9.65,0,0,1,.45,1.18h0c.2-.54.36-.94.47-1.2l3.07-6.81h1.44Z"/><path class="cls-19" d="M100.53,112.49a5.81,5.81,0,0,1-2.71.58,4.37,4.37,0,0,1-3.35-1.35,5,5,0,0,1-1.26-3.54,5.24,5.24,0,0,1,1.42-3.8,4.82,4.82,0,0,1,3.59-1.45,5.72,5.72,0,0,1,2.31.41v1.22A4.72,4.72,0,0,0,98.2,104a3.57,3.57,0,0,0-2.73,1.13,4.25,4.25,0,0,0-1,3,4,4,0,0,0,1,2.85A3.32,3.32,0,0,0,98,112a4.89,4.89,0,0,0,2.56-.65Z"/><path class="cls-19" d="M104,108a2.07,2.07,0,0,1-1.61-.66,2.57,2.57,0,0,1-.6-1.78,2.78,2.78,0,0,1,.63-1.92,2.21,2.21,0,0,1,1.72-.7,2,2,0,0,1,1.62.65,2.62,2.62,0,0,1,.58,1.82,2.71,2.71,0,0,1-.65,1.89A2.17,2.17,0,0,1,104,108Zm.1-4.31a1.23,1.23,0,0,0-1,.48,2.09,2.09,0,0,0-.37,1.32,2,2,0,0,0,.36,1.29,1.23,1.23,0,0,0,1,.46,1.17,1.17,0,0,0,1-.47,2.1,2.1,0,0,0,.37-1.33,2.06,2.06,0,0,0-.36-1.29A1.17,1.17,0,0,0,104.1,103.7Zm6.46-.6L104.27,113h-1l6.28-9.87Zm-.72,10a2,2,0,0,1-1.61-.67,2.52,2.52,0,0,1-.61-1.78,2.74,2.74,0,0,1,.65-1.92A2.18,2.18,0,0,1,110,108a2.05,2.05,0,0,1,1.62.66,2.72,2.72,0,0,1,.58,1.84,2.66,2.66,0,0,1-.65,1.87A2.15,2.15,0,0,1,109.84,113.05Zm.09-4.3a1.2,1.2,0,0,0-1,.47,2.1,2.1,0,0,0-.38,1.33,2,2,0,0,0,.37,1.27,1.23,1.23,0,0,0,1,.47,1.16,1.16,0,0,0,1-.49,2.16,2.16,0,0,0,.36-1.32,2.07,2.07,0,0,0-.35-1.28A1.2,1.2,0,0,0,109.93,108.75Z"/></g><path class="cls-19" d="M91.28,135.9H90.14v-6.57c0-.52,0-1.16.09-1.91h0a5.7,5.7,0,0,1-.3,1l-3.35,7.53H86l-3.34-7.48a5.51,5.51,0,0,1-.29-1h0c0,.39,0,1,0,1.92v6.56h-1.1v-9.8H82.8l3,6.83a9.65,9.65,0,0,1,.45,1.18h0c.2-.54.36-.94.47-1.2l3.07-6.81h1.44Z"/><path class="cls-19" d="M100.53,135.49a5.81,5.81,0,0,1-2.71.58,4.37,4.37,0,0,1-3.35-1.35,5,5,0,0,1-1.26-3.54,5.24,5.24,0,0,1,1.42-3.8,4.82,4.82,0,0,1,3.59-1.45,5.72,5.72,0,0,1,2.31.41v1.22A4.72,4.72,0,0,0,98.2,127a3.57,3.57,0,0,0-2.73,1.13,4.25,4.25,0,0,0-1,3,4,4,0,0,0,1,2.85A3.32,3.32,0,0,0,98,135a4.89,4.89,0,0,0,2.56-.65Z"/><g class="cls-21"><path class="cls-22" d="M78,107H77a2,2,0,0,0-2,2v20a2,2,0,0,0,2,2h1"/><line class="cls-22" x1="68.07" y1="119" x2="75" y2="119"/></g></svg>
