<svg id="Camada_2" data-name="Camada 2" xmlns="http://www.w3.org/2000/svg" xmlns:xlink="http://www.w3.org/1999/xlink" viewBox="0 0 832 360"><defs><style>.cls-1{fill:url(#Gradiente_sem_nome_51);}.cls-2{fill:url(#Gradiente_sem_nome_45);}.cls-3{fill:#898989;}.cls-4{fill:url(#Gradiente_sem_nome_29);}.cls-5{fill:url(#Gradiente_sem_nome_31);}.cls-6{font-size:12px;font-family:MyriadPro-Regular, Myriad Pro;}</style><linearGradient id="Gradiente_sem_nome_51" x1="791.27" y1="350.27" x2="526.5" y2="85.5" gradientUnits="userSpaceOnUse"><stop offset="0" stop-color="#88651e" stop-opacity="0"/><stop offset="1" stop-color="#88651e" stop-opacity="0.35"/></linearGradient><linearGradient id="Gradiente_sem_nome_45" x1="256.01" y1="350.99" x2="521.5" y2="85.5" gradientUnits="userSpaceOnUse"><stop offset="0" stop-color="#1d305a" stop-opacity="0"/><stop offset="1" stop-color="#1d305a" stop-opacity="0.35"/></linearGradient><linearGradient id="Gradiente_sem_nome_29" x1="672.62" y1="213.38" x2="497.62" y2="38.38" gradientUnits="userSpaceOnUse"><stop offset="0" stop-color="#e4c687"/><stop offset="1" stop-color="#83662c"/></linearGradient><linearGradient id="Gradiente_sem_nome_31" x1="375.51" y1="213.51" x2="550.51" y2="38.51" gradientUnits="userSpaceOnUse"><stop offset="0" stop-color="#b5bdd8"/><stop offset="1" stop-color="#1d305a"/></linearGradient></defs><path class="cls-1" d="M786.07,350.57,524,352V88H798V338.57A12,12,0,0,1,786.07,350.57Z"/><path class="cls-2" d="M524,352H262a12,12,0,0,1-12-12V88H524Z"/><rect class="cls-3" x="8" y="322" width="790" height="3"/><path class="cls-4" d="M798,56c0-6.63-5.37-11-12-11H629.72a12,12,0,0,1-9.32-4.44L598.8,17.92A16,16,0,0,0,586.37,12H524V352h3V88H798Z"/><path class="cls-5" d="M521,12H461.63a16,16,0,0,0-12.43,5.92L427.6,40.56A12,12,0,0,1,418.28,45H262a12,12,0,0,0-12,12V88H521V352h3V12Z"/><text class="cls-6" transform="translate(80.22 28.28)">1</text></svg>
