<svg id="icones" xmlns="http://www.w3.org/2000/svg" xmlns:xlink="http://www.w3.org/1999/xlink" viewBox="0 0 1056 288"><defs><style>.cls-1{fill:url(#Gradiente_sem_nome_3);}.cls-2{fill:#c06f6c;}.cls-3{fill:url(#Gradiente_sem_nome_3-2);}.cls-4{fill:#5e75a0;}.cls-5{fill:#d3ad6a;}.cls-6{fill:#6caca0;}.cls-7{fill:#5e4b4b;}.cls-8{fill:#414951;}.cls-9{fill:#d8e4e3;}.cls-10{fill:#5b564f;}.cls-11{fill:#51605c;}.cls-12{fill:url(#Gradiente_sem_nome_4);}.cls-13{fill:url(#Gradiente_sem_nome_4-2);}.cls-14{fill:url(#Gradiente_sem_nome_4-3);}.cls-15{fill:url(#Gradiente_sem_nome_4-4);}.cls-16{fill:url(#Gradiente_sem_nome_4-5);}.cls-17{fill:url(#Gradiente_sem_nome_4-6);}.cls-18{fill:#556464;stroke:#566564;}.cls-18,.cls-19,.cls-22{stroke-miterlimit:10;}.cls-18,.cls-19{stroke-width:0.4px;}.cls-19{fill:#fff;}.cls-19,.cls-22{stroke:#fff;}.cls-20{opacity:0.75;}.cls-21{opacity:0.3;}.cls-22{fill:none;}</style><linearGradient id="Gradiente_sem_nome_3" x1="482" y1="248" x2="482" y2="276" gradientUnits="userSpaceOnUse"><stop offset="0.3" stop-color="#6caca0"/><stop offset="0.7" stop-color="#5e75a0"/></linearGradient><linearGradient id="Gradiente_sem_nome_3-2" x1="482" y1="274" x2="482" y2="250" xlink:href="#Gradiente_sem_nome_3"/><linearGradient id="Gradiente_sem_nome_4" x1="956" y1="280" x2="956" y2="244" gradientUnits="userSpaceOnUse"><stop offset="0" stop-color="#51605c"/><stop offset="1" stop-color="#414951"/></linearGradient><linearGradient id="Gradiente_sem_nome_4-2" x1="296" y1="280" x2="296" y2="244" xlink:href="#Gradiente_sem_nome_4"/><linearGradient id="Gradiente_sem_nome_4-3" x1="416" y1="280" x2="416" y2="244" xlink:href="#Gradiente_sem_nome_4"/><linearGradient id="Gradiente_sem_nome_4-4" x1="176" y1="280" x2="176" y2="244" xlink:href="#Gradiente_sem_nome_4"/><linearGradient id="Gradiente_sem_nome_4-5" x1="764" y1="280" x2="764" y2="244" xlink:href="#Gradiente_sem_nome_4"/><linearGradient id="Gradiente_sem_nome_4-6" x1="572" y1="280" x2="572" y2="244" xlink:href="#Gradiente_sem_nome_4"/></defs><rect class="cls-1" x="8" y="248" width="948" height="28" rx="8"/><rect class="cls-2" x="8" y="96" width="948" height="48" rx="8"/><rect class="cls-3" x="10" y="250" width="944" height="24" rx="6.6"/><rect class="cls-4" x="8" y="52" width="948" height="28" rx="8"/><rect class="cls-5" x="8" y="160" width="948" height="28" rx="8"/><rect class="cls-6" x="8" y="204" width="948" height="28" rx="8"/><path class="cls-7" d="M1036,92H876a12,12,0,0,0-12,12v32a12,12,0,0,0,12,12h160a12,12,0,0,0,12-12V104A12,12,0,0,0,1036,92ZM884,122v14a6,6,0,0,1-12,0V122Zm-12-4V104a6,6,0,0,1,12,0v14Z"/><path class="cls-8" d="M1036,48H876a12,12,0,0,0-12,12V72a12,12,0,0,0,12,12h160a12,12,0,0,0,12-12V60A12,12,0,0,0,1036,48ZM884,72a6,6,0,0,1-12,0V60a6,6,0,0,1,12,0Z"/><rect class="cls-9" x="864" y="8" width="184" height="28" rx="12"/><path class="cls-10" d="M1036,156H876a12,12,0,0,0-12,12v12a12,12,0,0,0,12,12h160a12,12,0,0,0,12-12V168A12,12,0,0,0,1036,156ZM884,180a6,6,0,0,1-12,0V168a6,6,0,0,1,12,0Z"/><path class="cls-11" d="M1036,200H876a12,12,0,0,0-12,12v12a12,12,0,0,0,12,12h160a12,12,0,0,0,12-12V212A12,12,0,0,0,1036,200ZM884,224a6,6,0,0,1-12,0V212a6,6,0,0,1,12,0Z"/><path class="cls-12" d="M1036,244H876a12,12,0,0,0-12,12v12a12,12,0,0,0,12,12h160a12,12,0,0,0,12-12V256A12,12,0,0,0,1036,244ZM884,268a6,6,0,0,1-12,0V256a6,6,0,0,1,12,0Z"/><path class="cls-7" d="M220,92H132a12,12,0,0,0-12,12v32a12,12,0,0,0,12,12h88a12,12,0,0,0,12-12V104A12,12,0,0,0,220,92Zm-80,30v14a6,6,0,0,1-12,0V122Zm-12-4V104a6,6,0,0,1,12,0v14Z"/><path class="cls-7" d="M340,92H252a12,12,0,0,0-12,12v32a12,12,0,0,0,12,12h88a12,12,0,0,0,12-12V104A12,12,0,0,0,340,92Zm-80,30v14a6,6,0,0,1-12,0V122Zm-12-4V104a6,6,0,0,1,12,0v14Z"/><path class="cls-7" d="M652,92H492a12,12,0,0,0-12,12v32a12,12,0,0,0,12,12H652a12,12,0,0,0,12-12V104A12,12,0,0,0,652,92ZM500,122v14a6,6,0,0,1-12,0V122Zm-12-4V104a6,6,0,0,1,12,0v14Z"/><path class="cls-7" d="M844,92H684a12,12,0,0,0-12,12v32a12,12,0,0,0,12,12H844a12,12,0,0,0,12-12V104A12,12,0,0,0,844,92ZM692,122v14a6,6,0,0,1-12,0V122Zm-12-4V104a6,6,0,0,1,12,0v14Z"/><path class="cls-7" d="M460,92H372a12,12,0,0,0-12,12v32a12,12,0,0,0,12,12h88a12,12,0,0,0,12-12V104A12,12,0,0,0,460,92Zm-80,30v14a6,6,0,0,1-12,0V122Zm-12-4V104a6,6,0,0,1,12,0v14Z"/><rect class="cls-9" x="240" y="8" width="112" height="28" rx="12"/><rect class="cls-9" x="360" y="8" width="112" height="28" rx="12"/><rect class="cls-9" x="120" y="8" width="112" height="28" rx="12"/><rect class="cls-9" x="480" y="8" width="184" height="28" rx="12"/><path class="cls-8" d="M340,48H252a12,12,0,0,0-12,12V72a12,12,0,0,0,12,12h88a12,12,0,0,0,12-12V60A12,12,0,0,0,340,48ZM260,72a6,6,0,0,1-12,0V60a6,6,0,0,1,12,0Z"/><path class="cls-8" d="M460,48H372a12,12,0,0,0-12,12V72a12,12,0,0,0,12,12h88a12,12,0,0,0,12-12V60A12,12,0,0,0,460,48ZM380,72a6,6,0,0,1-12,0V60a6,6,0,0,1,12,0Z"/><path class="cls-8" d="M220,48H132a12,12,0,0,0-12,12V72a12,12,0,0,0,12,12h88a12,12,0,0,0,12-12V60A12,12,0,0,0,220,48ZM140,72a6,6,0,0,1-12,0V60a6,6,0,0,1,12,0Z"/><path class="cls-8" d="M844,48H684a12,12,0,0,0-12,12V72a12,12,0,0,0,12,12H844a12,12,0,0,0,12-12V60A12,12,0,0,0,844,48ZM692,72a6,6,0,0,1-12,0V60a6,6,0,0,1,12,0Z"/><path class="cls-8" d="M652,48H492a12,12,0,0,0-12,12V72a12,12,0,0,0,12,12H652a12,12,0,0,0,12-12V60A12,12,0,0,0,652,48ZM500,72a6,6,0,0,1-12,0V60a6,6,0,0,1,12,0Z"/><rect class="cls-9" x="672" y="8" width="184" height="28" rx="12"/><path class="cls-10" d="M340,156H252a12,12,0,0,0-12,12v12a12,12,0,0,0,12,12h88a12,12,0,0,0,12-12V168A12,12,0,0,0,340,156Zm-80,24a6,6,0,0,1-12,0V168a6,6,0,0,1,12,0Z"/><path class="cls-10" d="M460,156H372a12,12,0,0,0-12,12v12a12,12,0,0,0,12,12h88a12,12,0,0,0,12-12V168A12,12,0,0,0,460,156Zm-80,24a6,6,0,0,1-12,0V168a6,6,0,0,1,12,0Z"/><path class="cls-10" d="M220,156H132a12,12,0,0,0-12,12v12a12,12,0,0,0,12,12h88a12,12,0,0,0,12-12V168A12,12,0,0,0,220,156Zm-80,24a6,6,0,0,1-12,0V168a6,6,0,0,1,12,0Z"/><path class="cls-10" d="M844,156H684a12,12,0,0,0-12,12v12a12,12,0,0,0,12,12H844a12,12,0,0,0,12-12V168A12,12,0,0,0,844,156ZM692,180a6,6,0,0,1-12,0V168a6,6,0,0,1,12,0Z"/><path class="cls-10" d="M652,156H492a12,12,0,0,0-12,12v12a12,12,0,0,0,12,12H652a12,12,0,0,0,12-12V168A12,12,0,0,0,652,156ZM500,180a6,6,0,0,1-12,0V168a6,6,0,0,1,12,0Z"/><path class="cls-11" d="M340,200H252a12,12,0,0,0-12,12v12a12,12,0,0,0,12,12h88a12,12,0,0,0,12-12V212A12,12,0,0,0,340,200Zm-80,24a6,6,0,0,1-12,0V212a6,6,0,0,1,12,0Z"/><path class="cls-11" d="M460,200H372a12,12,0,0,0-12,12v12a12,12,0,0,0,12,12h88a12,12,0,0,0,12-12V212A12,12,0,0,0,460,200Zm-80,24a6,6,0,0,1-12,0V212a6,6,0,0,1,12,0Z"/><path class="cls-11" d="M220,200H132a12,12,0,0,0-12,12v12a12,12,0,0,0,12,12h88a12,12,0,0,0,12-12V212A12,12,0,0,0,220,200Zm-80,24a6,6,0,0,1-12,0V212a6,6,0,0,1,12,0Z"/><path class="cls-11" d="M844,200H684a12,12,0,0,0-12,12v12a12,12,0,0,0,12,12H844a12,12,0,0,0,12-12V212A12,12,0,0,0,844,200ZM692,224a6,6,0,0,1-12,0V212a6,6,0,0,1,12,0Z"/><path class="cls-11" d="M652,200H492a12,12,0,0,0-12,12v12a12,12,0,0,0,12,12H652a12,12,0,0,0,12-12V212A12,12,0,0,0,652,200ZM500,224a6,6,0,0,1-12,0V212a6,6,0,0,1,12,0Z"/><path class="cls-13" d="M340,244H252a12,12,0,0,0-12,12v12a12,12,0,0,0,12,12h88a12,12,0,0,0,12-12V256A12,12,0,0,0,340,244Zm-80,24a6,6,0,0,1-12,0V256a6,6,0,0,1,12,0Z"/><path class="cls-14" d="M460,244H372a12,12,0,0,0-12,12v12a12,12,0,0,0,12,12h88a12,12,0,0,0,12-12V256A12,12,0,0,0,460,244Zm-80,24a6,6,0,0,1-12,0V256a6,6,0,0,1,12,0Z"/><path class="cls-15" d="M220,244H132a12,12,0,0,0-12,12v12a12,12,0,0,0,12,12h88a12,12,0,0,0,12-12V256A12,12,0,0,0,220,244Zm-80,24a6,6,0,0,1-12,0V256a6,6,0,0,1,12,0Z"/><path class="cls-16" d="M844,244H684a12,12,0,0,0-12,12v12a12,12,0,0,0,12,12H844a12,12,0,0,0,12-12V256A12,12,0,0,0,844,244ZM692,268a6,6,0,0,1-12,0V256a6,6,0,0,1,12,0Z"/><path class="cls-17" d="M652,244H492a12,12,0,0,0-12,12v12a12,12,0,0,0,12,12H652a12,12,0,0,0,12-12V256A12,12,0,0,0,652,244ZM500,268a6,6,0,0,1-12,0V256a6,6,0,0,1,12,0Z"/><path class="cls-18" d="M176.53,26.9h-1.41l-5-7.81a3,3,0,0,1-.31-.62h-.05a9.25,9.25,0,0,1,.06,1.35V26.9h-1.15V17.1h1.49L175,24.79c.2.32.34.54.4.66h0a11.49,11.49,0,0,1-.07-1.45V17.1h1.15Z"/><path class="cls-18" d="M184.08,18.14h-3.83v3.39h3.54v1h-3.54V26.9H179.1V17.1h5Z"/><path class="cls-18" d="M290.17,23.2v3.7H289V17.1h2.69a3.57,3.57,0,0,1,2.44.76A2.78,2.78,0,0,1,295,20a3,3,0,0,1-1,2.29,3.67,3.67,0,0,1-2.59.89Zm0-5.06v4h1.2a2.63,2.63,0,0,0,1.81-.55,1.91,1.91,0,0,0,.63-1.53c0-1.29-.77-1.94-2.3-1.94Z"/><path class="cls-18" d="M304.15,17.1l-3.63,9.8h-1.27l-3.55-9.8H297l2.72,7.77a5.62,5.62,0,0,1,.2.87h0a4.79,4.79,0,0,1,.23-.88l2.77-7.76Z"/><path class="cls-18" d="M399.64,26.9h-1.41l-5-7.81a3.64,3.64,0,0,1-.32-.62h0a9.25,9.25,0,0,1,.06,1.35V26.9h-1.15V17.1h1.49l4.91,7.69a6.73,6.73,0,0,1,.39.66h0a11.49,11.49,0,0,1-.07-1.45V17.1h1.15Z"/><path class="cls-18" d="M407.19,18.14h-3.83v3.39h3.54v1h-3.54V26.9h-1.15V17.1h5Z"/><path class="cls-18" d="M419.61,23.28h-2.76V26h-.91V23.28h-2.76v-.92h2.76V19.61h.91v2.75h2.76Z"/><path class="cls-18" d="M427.44,23.2v3.7h-1.15V17.1H429a3.57,3.57,0,0,1,2.44.76,2.78,2.78,0,0,1,.86,2.16,3,3,0,0,1-1,2.29,3.69,3.69,0,0,1-2.59.89Zm0-5.06v4h1.21a2.65,2.65,0,0,0,1.81-.55,1.91,1.91,0,0,0,.63-1.53c0-1.29-.77-1.94-2.3-1.94Z"/><path class="cls-18" d="M441.42,17.1l-3.63,9.8h-1.26L433,17.1h1.28L437,24.87a4.7,4.7,0,0,1,.19.87h0a4.1,4.1,0,0,1,.23-.88l2.77-7.76Z"/><path class="cls-19" d="M26.57,61.1l-3.63,9.8H21.68l-3.56-9.8H19.4l2.72,7.77a4.7,4.7,0,0,1,.19.87h0a4.1,4.1,0,0,1,.23-.88l2.76-7.76Z"/><path class="cls-19" d="M31.84,70.9H30.71V69.81h0a2.36,2.36,0,0,1-2.16,1.26,2.29,2.29,0,0,1-1.63-.56A1.9,1.9,0,0,1,26.31,69q0-2,2.31-2.28l2.09-.3c0-1.18-.48-1.78-1.44-1.78a3.47,3.47,0,0,0-2.28.86V64.39a4.4,4.4,0,0,1,2.38-.65c1.64,0,2.47.87,2.47,2.61Zm-1.13-3.54L29,67.59a2.76,2.76,0,0,0-1.18.39,1.12,1.12,0,0,0-.4,1,1.1,1.1,0,0,0,.37.84,1.44,1.44,0,0,0,1,.32,1.79,1.79,0,0,0,1.38-.58,2.11,2.11,0,0,0,.54-1.48Z"/><path class="cls-19" d="M35.07,70.9H34V60.54h1.12Z"/><path class="cls-19" d="M40.26,71.07a3.21,3.21,0,0,1-2.47-1,3.62,3.62,0,0,1-.93-2.6,3.79,3.79,0,0,1,1-2.75,3.48,3.48,0,0,1,2.61-1,3.13,3.13,0,0,1,2.44,1,3.79,3.79,0,0,1,.88,2.67,3.75,3.75,0,0,1-1,2.69A3.31,3.31,0,0,1,40.26,71.07Zm.09-6.39a2.14,2.14,0,0,0-1.71.74,3,3,0,0,0-.63,2,2.85,2.85,0,0,0,.63,2,2.18,2.18,0,0,0,1.71.72,2,2,0,0,0,1.67-.7,3.06,3.06,0,0,0,.58-2,3.13,3.13,0,0,0-.58-2A2.06,2.06,0,0,0,40.35,64.68Z"/><path class="cls-19" d="M49.19,65a1.37,1.37,0,0,0-.85-.23,1.43,1.43,0,0,0-1.19.68,3,3,0,0,0-.49,1.84V70.9H45.54v-7h1.12v1.44h0a2.46,2.46,0,0,1,.73-1.15,1.71,1.71,0,0,1,1.1-.41,1.92,1.92,0,0,1,.67.09Z"/><path class="cls-19" d="M62.3,70.9H60.89l-5-7.81a3.59,3.59,0,0,1-.31-.62h0a11.85,11.85,0,0,1,0,1.35V70.9H54.39V61.1h1.49l4.91,7.69a7.6,7.6,0,0,1,.4.66h0A9.82,9.82,0,0,1,61.15,68V61.1H62.3Z"/><path class="cls-19" d="M70.06,70.9H64.87V61.1h5v1H66V65.4h3.54v1H66v3.43h4Z"/><path class="cls-19" d="M77.77,62.14H74.94V70.9H73.79V62.14H71v-1h6.8Z"/><path class="cls-19" d="M29.28,122.9H28.14v-6.57c0-.52,0-1.16.09-1.91h0a5.7,5.7,0,0,1-.3,1l-3.35,7.53H24l-3.34-7.48a5.51,5.51,0,0,1-.29-1h0c0,.39.05,1,.05,1.92v6.56h-1.1v-9.8H20.8l3,6.83a9.65,9.65,0,0,1,.45,1.18h0c.2-.54.36-.94.47-1.2l3.07-6.81h1.44Z"/><path class="cls-19" d="M36.72,122.9H35.6v-1.09h0a2.35,2.35,0,0,1-2.15,1.26,2.3,2.3,0,0,1-1.64-.56,1.9,1.9,0,0,1-.59-1.47q0-2,2.31-2.28l2.1-.3c0-1.18-.49-1.78-1.45-1.78a3.47,3.47,0,0,0-2.28.86v-1.15a4.4,4.4,0,0,1,2.38-.65c1.64,0,2.47.87,2.47,2.61Zm-1.12-3.54-1.69.23a2.81,2.81,0,0,0-1.18.39,1.12,1.12,0,0,0-.4,1,1.1,1.1,0,0,0,.37.84,1.44,1.44,0,0,0,1,.32,1.79,1.79,0,0,0,1.38-.58,2.12,2.12,0,0,0,.55-1.48Z"/><path class="cls-19" d="M42.48,117a1.39,1.39,0,0,0-.85-.23,1.43,1.43,0,0,0-1.2.68,3.12,3.12,0,0,0-.48,1.84v3.57H38.83v-7H40v1.44h0a2.46,2.46,0,0,1,.73-1.15,1.69,1.69,0,0,1,1.1-.41,2,2,0,0,1,.67.09Z"/><path class="cls-19" d="M49.49,122.34q0,3.85-3.7,3.86a4.89,4.89,0,0,1-2.26-.5v-1.12a4.61,4.61,0,0,0,2.25.66c1.72,0,2.59-.92,2.59-2.75v-.76h0a2.83,2.83,0,0,1-4.51.4,3.71,3.71,0,0,1-.8-2.5,4.37,4.37,0,0,1,.86-2.84,2.87,2.87,0,0,1,2.35-1.05,2.3,2.3,0,0,1,2.1,1.13h0v-1h1.12Zm-1.12-2.6v-1a2,2,0,0,0-.57-1.42,1.83,1.83,0,0,0-1.4-.6,1.93,1.93,0,0,0-1.63.76,3.37,3.37,0,0,0-.59,2.11,2.88,2.88,0,0,0,.57,1.87,1.8,1.8,0,0,0,1.49.7,1.92,1.92,0,0,0,1.53-.67A2.46,2.46,0,0,0,48.37,119.74Z"/><path class="cls-19" d="M57.38,119.68H52.44a2.66,2.66,0,0,0,.63,1.81,2.17,2.17,0,0,0,1.65.63,3.45,3.45,0,0,0,2.18-.78v1.06a4.12,4.12,0,0,1-2.44.67,3,3,0,0,1-2.34-1,3.91,3.91,0,0,1-.84-2.68,3.84,3.84,0,0,1,.92-2.66,3,3,0,0,1,2.3-1,2.61,2.61,0,0,1,2.13.89,3.69,3.69,0,0,1,.75,2.46Zm-1.15-1a2.29,2.29,0,0,0-.46-1.51,1.61,1.61,0,0,0-1.29-.54,1.79,1.79,0,0,0-1.34.57,2.59,2.59,0,0,0-.69,1.48Z"/><path class="cls-19" d="M69,122.9H67.9v-4a3,3,0,0,0-.36-1.68,1.35,1.35,0,0,0-1.21-.52,1.48,1.48,0,0,0-1.22.66,2.46,2.46,0,0,0-.5,1.57v4H63.49v-4.15c0-1.38-.53-2.07-1.6-2.07a1.48,1.48,0,0,0-1.21.62,2.55,2.55,0,0,0-.48,1.61v4H59.08v-7H60.2V117h0a2.36,2.36,0,0,1,2.17-1.27,2,2,0,0,1,1.25.4,1.92,1.92,0,0,1,.73,1,2.5,2.5,0,0,1,2.33-1.45q2.31,0,2.31,2.85Z"/><path class="cls-19" d="M20.43,175.2v3.7H19.29v-9.8H22a3.57,3.57,0,0,1,2.44.76,2.75,2.75,0,0,1,.86,2.16,3,3,0,0,1-1,2.29,3.69,3.69,0,0,1-2.59.89Zm0-5.06v4h1.21a2.65,2.65,0,0,0,1.81-.55,1.91,1.91,0,0,0,.63-1.53c0-1.3-.77-1.94-2.3-1.94Z"/><path class="cls-19" d="M32.08,175.68H27.14a2.66,2.66,0,0,0,.63,1.81,2.17,2.17,0,0,0,1.65.63,3.45,3.45,0,0,0,2.18-.78v1.06a4.12,4.12,0,0,1-2.44.67,2.94,2.94,0,0,1-2.33-1,4.47,4.47,0,0,1,.07-5.34,3,3,0,0,1,2.3-1,2.61,2.61,0,0,1,2.13.89,3.69,3.69,0,0,1,.75,2.46Zm-1.15-1a2.29,2.29,0,0,0-.46-1.51,1.61,1.61,0,0,0-1.29-.54,1.79,1.79,0,0,0-1.34.57,2.59,2.59,0,0,0-.69,1.48Z"/><path class="cls-19" d="M33.35,178.65v-1.2a3.33,3.33,0,0,0,2,.67c1,0,1.48-.33,1.48-1a.9.9,0,0,0-.13-.48,1.22,1.22,0,0,0-.34-.34,2.7,2.7,0,0,0-.51-.27l-.62-.25c-.31-.13-.58-.25-.82-.37a2.72,2.72,0,0,1-.59-.43,1.62,1.62,0,0,1-.35-.54,1.86,1.86,0,0,1-.12-.7,1.66,1.66,0,0,1,.22-.87,2,2,0,0,1,.6-.64,2.68,2.68,0,0,1,.86-.38,3.71,3.71,0,0,1,1-.13,4,4,0,0,1,1.62.31v1.14a3.12,3.12,0,0,0-1.77-.51,2,2,0,0,0-.57.07,1.56,1.56,0,0,0-.43.2.88.88,0,0,0-.29.32.87.87,0,0,0-.09.4,1,1,0,0,0,.09.45.94.94,0,0,0,.3.33,2,2,0,0,0,.46.26L36,175a8.42,8.42,0,0,1,.84.37,3.83,3.83,0,0,1,.63.42A1.73,1.73,0,0,1,38,177a1.74,1.74,0,0,1-.23.9,2,2,0,0,1-.62.64,2.92,2.92,0,0,1-.88.37,4.42,4.42,0,0,1-1,.13A4,4,0,0,1,33.35,178.65Z"/><path class="cls-19" d="M42.64,179.07a3.21,3.21,0,0,1-2.47-1,3.62,3.62,0,0,1-.93-2.6,3.79,3.79,0,0,1,1-2.75,3.48,3.48,0,0,1,2.61-1,3.13,3.13,0,0,1,2.44,1,4.38,4.38,0,0,1-.07,5.36A3.31,3.31,0,0,1,42.64,179.07Zm.09-6.39a2.14,2.14,0,0,0-1.71.74,3,3,0,0,0-.63,2,2.85,2.85,0,0,0,.63,2,2.17,2.17,0,0,0,1.71.72,2,2,0,0,0,1.67-.7,3.06,3.06,0,0,0,.58-2,3.13,3.13,0,0,0-.58-2A2.06,2.06,0,0,0,42.73,172.68Z"/><path class="cls-19" d="M57,178.9H51.91v-9.8h1.14v8.76H57Z"/><path class="cls-19" d="M60.47,168.33l-1.79,2.25h-.87l1.53-2.25Zm-1,10.57H58.35v-7h1.12Z"/><path class="cls-19" d="M67.71,182.12H66.59V177.7h0a2.51,2.51,0,0,1-2.39,1.37,2.66,2.66,0,0,1-2.12-.94,3.84,3.84,0,0,1-.79-2.56,4.2,4.2,0,0,1,.87-2.79,2.91,2.91,0,0,1,2.35-1,2.22,2.22,0,0,1,2.08,1.13h0v-1h1.12Zm-1.12-6.37v-1a2,2,0,0,0-.56-1.45,1.9,1.9,0,0,0-1.44-.6,1.94,1.94,0,0,0-1.6.75,3.35,3.35,0,0,0-.58,2.11,3,3,0,0,0,.56,1.9,1.84,1.84,0,0,0,1.47.68,2,2,0,0,0,1.57-.67A2.51,2.51,0,0,0,66.59,175.75Z"/><path class="cls-19" d="M75.64,178.9H74.52v-1.11h0a2.3,2.3,0,0,1-2.16,1.28c-1.67,0-2.5-1-2.5-3V171.9h1.11v4c0,1.47.57,2.21,1.7,2.21a1.71,1.71,0,0,0,1.35-.6,2.35,2.35,0,0,0,.53-1.59v-4h1.12Z"/><path class="cls-19" d="M78.48,170.12a.72.72,0,0,1-.52-.2.75.75,0,0,1,0-1,.73.73,0,0,1,.52-.21.72.72,0,0,1,.52.21.71.71,0,0,1,0,1A.72.72,0,0,1,78.48,170.12ZM79,178.9H77.9v-7H79Z"/><path class="cls-19" d="M87.27,178.9H86.15v-1.19h0a2.6,2.6,0,0,1-2.41,1.36,2.64,2.64,0,0,1-2.11-.94,3.89,3.89,0,0,1-.78-2.56,4.23,4.23,0,0,1,.87-2.79,2.9,2.9,0,0,1,2.33-1,2.26,2.26,0,0,1,2.1,1.13h0v-4.33h1.12Zm-1.12-3.16v-1a2,2,0,0,0-.56-1.43,1.9,1.9,0,0,0-1.42-.59,1.94,1.94,0,0,0-1.62.75,3.32,3.32,0,0,0-.59,2.08,2.94,2.94,0,0,0,.57,1.91,1.82,1.82,0,0,0,1.51.7,1.9,1.9,0,0,0,1.52-.67A2.56,2.56,0,0,0,86.15,175.74Z"/><path class="cls-19" d="M92.46,179.07a3.21,3.21,0,0,1-2.47-1,3.62,3.62,0,0,1-.93-2.6,3.79,3.79,0,0,1,1-2.75,3.48,3.48,0,0,1,2.61-1,3.13,3.13,0,0,1,2.44,1,4.38,4.38,0,0,1-.07,5.36A3.31,3.31,0,0,1,92.46,179.07Zm.09-6.39a2.14,2.14,0,0,0-1.71.74,3,3,0,0,0-.63,2,2.85,2.85,0,0,0,.63,2,2.17,2.17,0,0,0,1.71.72,2,2,0,0,0,1.67-.7,3.06,3.06,0,0,0,.58-2,3.13,3.13,0,0,0-.58-2A2.06,2.06,0,0,0,92.55,172.68Z"/><path class="cls-18" d="M538,26.9h-5.08V17.1h1.15v8.76H538Z"/><path class="cls-18" d="M545,17.1l-3.24,6.18V26.9h-1.15V23.31l-3.15-6.21h1.31L541,21.53s.11.25.24.6h0a3.73,3.73,0,0,1,.26-.6l2.3-4.43Z"/><path class="cls-18" d="M558.11,26.9H556.7l-5-7.81a3,3,0,0,1-.32-.62h0a9.25,9.25,0,0,1,.06,1.35V26.9h-1.15V17.1h1.49l4.91,7.69q.3.48.39.66h0A9.82,9.82,0,0,1,557,24V17.1h1.15Z"/><path class="cls-18" d="M565.66,18.14h-3.83v3.39h3.54v1h-3.54V26.9h-1.15V17.1h5Z"/><path class="cls-18" d="M573.76,17.18A9.24,9.24,0,0,0,572,22.91a9.49,9.49,0,0,0,1.76,5.69h-1A9.1,9.1,0,0,1,571,22.91a9.31,9.31,0,0,1,1.84-5.73Z"/><path class="cls-18" d="M574.39,26.22l3.29-8.76h1.39l3.25,8.74v.7h-7.93Zm6.57-.34L579,20.68c-.23-.66-.53-1.5-.7-2.1h0c-.14.48-.39,1.26-.63,1.92l-2,5.38Z"/><path class="cls-18" d="M585.68,27.46l3.9-10.15h1l-3.93,10.15Z"/><path class="cls-18" d="M598.19,20.36c0,1.92-1,2.87-2.18,2.87s-2.12-.91-2.13-2.74,1-2.85,2.2-2.85S598.19,18.62,598.19,20.36Zm-3.33.08c0,1.17.41,2,1.18,2s1.17-.87,1.17-2.07-.32-2-1.17-2S594.86,19.3,594.86,20.44Zm1.06,6.62,5.36-9.42h.78l-5.35,9.42Zm8.2-2.93c0,1.92-1,2.87-2.17,2.87s-2.12-.91-2.13-2.73,1-2.86,2.2-2.86S604.12,22.39,604.12,24.13Zm-3.33.08c0,1.17.43,2.05,1.19,2.05s1.17-.87,1.17-2.08-.32-2-1.17-2S600.79,23.06,600.79,24.21Z"/><path class="cls-18" d="M604.83,28.6a9.52,9.52,0,0,0,1.76-5.73,9.29,9.29,0,0,0-1.76-5.69h.95a8.9,8.9,0,0,1,1.84,5.7,9.07,9.07,0,0,1-1.84,5.72Z"/><path class="cls-18" d="M727.14,26.9H726V20.33c0-.52,0-1.16.09-1.91h0a5,5,0,0,1-.29.95l-3.35,7.53h-.56l-3.34-7.48a5.37,5.37,0,0,1-.3-1h0c0,.39,0,1,0,1.92V26.9h-1.11V17.1h1.52l3,6.84a9.06,9.06,0,0,1,.45,1.17h0c.2-.54.35-.94.47-1.2l3.07-6.81h1.44Z"/><path class="cls-18" d="M735.19,23.68h-4.94a2.66,2.66,0,0,0,.63,1.81,2.17,2.17,0,0,0,1.65.63,3.47,3.47,0,0,0,2.18-.78V26.4a4.12,4.12,0,0,1-2.44.67,3,3,0,0,1-2.34-1,3.91,3.91,0,0,1-.84-2.68,3.84,3.84,0,0,1,.92-2.66,3,3,0,0,1,2.3-1,2.61,2.61,0,0,1,2.13.89,3.69,3.69,0,0,1,.75,2.46ZM734,22.73a2.24,2.24,0,0,0-.47-1.51,1.58,1.58,0,0,0-1.28-.54,1.78,1.78,0,0,0-1.34.57,2.59,2.59,0,0,0-.69,1.48Z"/><path class="cls-18" d="M740.13,26.83a2.09,2.09,0,0,1-1,.22c-1.23,0-1.84-.68-1.84-2.05V20.86h-1.2v-1h1.2V18.19l1.12-.36V19.9h1.76v1h-1.76V24.8a1.65,1.65,0,0,0,.24,1,1,1,0,0,0,.79.3,1.2,1.2,0,0,0,.73-.23Z"/><path class="cls-18" d="M746.64,26.9h-1.12V25.81h0a2.34,2.34,0,0,1-2.15,1.26,2.31,2.31,0,0,1-1.64-.56,1.94,1.94,0,0,1-.59-1.47q0-2,2.31-2.28l2.1-.29c0-1.19-.48-1.79-1.44-1.79a3.47,3.47,0,0,0-2.29.86V20.39a4.43,4.43,0,0,1,2.38-.65c1.65,0,2.47.87,2.47,2.61Zm-1.12-3.54-1.69.23a2.71,2.71,0,0,0-1.17.39,1.28,1.28,0,0,0,0,1.82,1.46,1.46,0,0,0,1,.32,1.81,1.81,0,0,0,1.38-.58,2.09,2.09,0,0,0,.54-1.48Z"/><path class="cls-18" d="M753.89,23.2v3.7h-1.15V17.1h2.69a3.57,3.57,0,0,1,2.44.76,2.75,2.75,0,0,1,.86,2.16,3,3,0,0,1-1,2.29,3.67,3.67,0,0,1-2.59.89Zm0-5.06v4h1.2a2.68,2.68,0,0,0,1.82-.55,1.93,1.93,0,0,0,.62-1.53c0-1.29-.76-1.94-2.3-1.94Z"/><path class="cls-18" d="M764.53,27.07a4.3,4.3,0,0,1-3.34-1.38,5.07,5.07,0,0,1-1.25-3.57,5.38,5.38,0,0,1,1.28-3.78,4.44,4.44,0,0,1,3.47-1.4A4.22,4.22,0,0,1,768,18.3a5.16,5.16,0,0,1,1.24,3.58,5.44,5.44,0,0,1-1.27,3.79A4.4,4.4,0,0,1,764.53,27.07Zm.08-9.1a3.19,3.19,0,0,0-2.51,1.12,4.32,4.32,0,0,0-1,2.92,4.34,4.34,0,0,0,.94,2.92,3,3,0,0,0,2.45,1.1A3.21,3.21,0,0,0,767.07,25,4.3,4.3,0,0,0,768,22a4.51,4.51,0,0,0-.9-3A3.11,3.11,0,0,0,764.61,18Z"/><path class="cls-18" d="M777.38,17.18a9.24,9.24,0,0,0-1.76,5.73,9.49,9.49,0,0,0,1.76,5.69h-1a9,9,0,0,1-1.84-5.69,9.18,9.18,0,0,1,1.84-5.73Z"/><path class="cls-18" d="M778,26.22l3.29-8.76h1.39l3.25,8.74v.7H778Zm6.57-.34-1.92-5.2c-.24-.66-.53-1.5-.7-2.1h0c-.14.48-.39,1.26-.63,1.92l-2,5.38Z"/><path class="cls-18" d="M789.29,27.46l3.91-10.15h.95l-3.92,10.15Z"/><path class="cls-18" d="M801.81,20.36c0,1.92-1,2.87-2.18,2.87s-2.12-.91-2.13-2.74,1-2.85,2.2-2.85S801.81,18.62,801.81,20.36Zm-3.33.08c0,1.17.4,2,1.17,2s1.18-.87,1.18-2.07-.32-2-1.18-2S798.48,19.3,798.48,20.44Zm1.06,6.62,5.35-9.42h.79l-5.35,9.42Zm8.2-2.93c0,1.92-1,2.87-2.17,2.87s-2.12-.91-2.13-2.73,1-2.86,2.2-2.86S807.74,22.39,807.74,24.13Zm-3.34.08c0,1.17.44,2.05,1.19,2.05s1.18-.87,1.18-2.08-.32-2-1.18-2S804.4,23.06,804.4,24.21Z"/><path class="cls-18" d="M808.45,28.6a9.52,9.52,0,0,0,1.76-5.73,9.35,9.35,0,0,0-1.76-5.69h.95a9,9,0,0,1,1.83,5.7,9.14,9.14,0,0,1-1.83,5.72Z"/><path class="cls-18" d="M899.27,18.14h-3.83v3.39H899v1h-3.54V26.9h-1.15V17.1h5Z"/><path class="cls-18" d="M903.9,27.07a3.21,3.21,0,0,1-2.47-1,3.62,3.62,0,0,1-.93-2.6,3.79,3.79,0,0,1,1-2.75,3.48,3.48,0,0,1,2.61-1,3.13,3.13,0,0,1,2.44,1,3.81,3.81,0,0,1,.88,2.67,3.73,3.73,0,0,1-.95,2.69A3.31,3.31,0,0,1,903.9,27.07Zm.09-6.39a2.14,2.14,0,0,0-1.71.74,3,3,0,0,0-.63,2,2.85,2.85,0,0,0,.63,2,2.18,2.18,0,0,0,1.71.72,2,2,0,0,0,1.67-.7,3.06,3.06,0,0,0,.58-2,3.13,3.13,0,0,0-.58-2A2.06,2.06,0,0,0,904,20.68Z"/><path class="cls-18" d="M912.83,21a1.37,1.37,0,0,0-.85-.23,1.46,1.46,0,0,0-1.2.68,3.12,3.12,0,0,0-.48,1.84V26.9h-1.12v-7h1.12v1.44h0a2.46,2.46,0,0,1,.73-1.15,1.71,1.71,0,0,1,1.1-.41,1.92,1.92,0,0,1,.67.09Z"/><path class="cls-18" d="M919.49,23.68h-4.94a2.66,2.66,0,0,0,.63,1.81,2.17,2.17,0,0,0,1.65.63,3.42,3.42,0,0,0,2.17-.78V26.4a4.08,4.08,0,0,1-2.44.67,3,3,0,0,1-2.33-1,3.91,3.91,0,0,1-.84-2.68,3.79,3.79,0,0,1,.92-2.66,3,3,0,0,1,2.3-1,2.61,2.61,0,0,1,2.13.89,3.69,3.69,0,0,1,.75,2.46Zm-1.15-.95a2.24,2.24,0,0,0-.47-1.51,1.58,1.58,0,0,0-1.28-.54,1.78,1.78,0,0,0-1.34.57,2.59,2.59,0,0,0-.69,1.48Z"/><path class="cls-18" d="M926,26.58a3.7,3.7,0,0,1-1.92.49,3.15,3.15,0,0,1-2.41-1,3.49,3.49,0,0,1-.92-2.52,3.88,3.88,0,0,1,1-2.78,3.46,3.46,0,0,1,2.64-1.05,3.65,3.65,0,0,1,1.63.34v1.15a2.83,2.83,0,0,0-1.67-.55,2.27,2.27,0,0,0-1.76.77,2.91,2.91,0,0,0-.68,2,2.77,2.77,0,0,0,.64,1.94,2.21,2.21,0,0,0,1.73.71,2.81,2.81,0,0,0,1.73-.61Z"/><path class="cls-18" d="M932.66,26.9h-1.12V25.81h0a2.54,2.54,0,0,1-3.79.7,1.94,1.94,0,0,1-.59-1.47q0-2,2.31-2.28l2.1-.29c0-1.19-.48-1.79-1.44-1.79a3.47,3.47,0,0,0-2.28.86V20.39a4.38,4.38,0,0,1,2.38-.65q2.46,0,2.46,2.61Zm-1.12-3.54-1.69.23a2.71,2.71,0,0,0-1.17.39,1.09,1.09,0,0,0-.4,1,1.07,1.07,0,0,0,.37.84,1.42,1.42,0,0,0,1,.32,1.79,1.79,0,0,0,1.38-.58,2.09,2.09,0,0,0,.54-1.48Z"/><path class="cls-18" d="M934.35,26.65v-1.2a3.31,3.31,0,0,0,2,.67c1,0,1.47-.33,1.47-1a.9.9,0,0,0-.12-.48,1.37,1.37,0,0,0-.34-.34,3.05,3.05,0,0,0-.51-.27l-.62-.25a7.26,7.26,0,0,1-.82-.37,2.5,2.5,0,0,1-.59-.43,1.56,1.56,0,0,1-.36-.53,2.2,2.2,0,0,1-.11-.71,1.66,1.66,0,0,1,.22-.87,2,2,0,0,1,.6-.64,2.68,2.68,0,0,1,.86-.38,3.64,3.64,0,0,1,1-.13,4,4,0,0,1,1.63.31v1.14a3.15,3.15,0,0,0-1.78-.51,2.38,2.38,0,0,0-.56.07,1.63,1.63,0,0,0-.44.2,1.06,1.06,0,0,0-.28.32.88.88,0,0,0-.1.4,1,1,0,0,0,.1.45,1,1,0,0,0,.29.33,2.31,2.31,0,0,0,.47.26L937,23a7.3,7.3,0,0,1,.83.37,3.13,3.13,0,0,1,.63.42,1.53,1.53,0,0,1,.4.55,1.92,1.92,0,0,1-.09,1.63,1.87,1.87,0,0,1-.61.64,2.68,2.68,0,0,1-.88.37,4.44,4.44,0,0,1-1,.13A3.94,3.94,0,0,1,934.35,26.65Z"/><path class="cls-18" d="M944,26.83a2.09,2.09,0,0,1-1,.22c-1.23,0-1.84-.68-1.84-2.05V20.86h-1.2v-1h1.2V18.19l1.12-.36V19.9H944v1H942.2V24.8a1.65,1.65,0,0,0,.24,1,1,1,0,0,0,.79.3,1.2,1.2,0,0,0,.73-.23Z"/><path class="cls-18" d="M950.59,23.2v3.7h-1.14V17.1h2.69a3.57,3.57,0,0,1,2.44.76,2.78,2.78,0,0,1,.86,2.16,3,3,0,0,1-1,2.29,3.69,3.69,0,0,1-2.59.89Zm0-5.06v4h1.21a2.65,2.65,0,0,0,1.81-.55,1.91,1.91,0,0,0,.63-1.53c0-1.29-.77-1.94-2.3-1.94Z"/><path class="cls-18" d="M960.79,21a1.39,1.39,0,0,0-.85-.23,1.43,1.43,0,0,0-1.2.68,3.12,3.12,0,0,0-.48,1.84V26.9h-1.12v-7h1.12v1.44h0a2.47,2.47,0,0,1,.74-1.15,1.67,1.67,0,0,1,1.1-.41,2,2,0,0,1,.67.09Z"/><path class="cls-18" d="M967.44,23.68H962.5a2.66,2.66,0,0,0,.63,1.81,2.18,2.18,0,0,0,1.66.63,3.44,3.44,0,0,0,2.17-.78V26.4a4.12,4.12,0,0,1-2.44.67,2.94,2.94,0,0,1-2.33-1,3.87,3.87,0,0,1-.85-2.68,3.8,3.8,0,0,1,.93-2.66,2.94,2.94,0,0,1,2.3-1,2.6,2.6,0,0,1,2.12.89,3.69,3.69,0,0,1,.75,2.46Zm-1.14-.95a2.35,2.35,0,0,0-.47-1.51,1.6,1.6,0,0,0-1.28-.54,1.81,1.81,0,0,0-1.35.57,2.52,2.52,0,0,0-.68,1.48Z"/><path class="cls-18" d="M976.58,17.1,973,26.9h-1.27l-3.55-9.8h1.28l2.71,7.77a4.66,4.66,0,0,1,.2.87h0a4,4,0,0,1,.22-.88l2.77-7.76Z"/><path class="cls-18" d="M984.23,17.18a9.24,9.24,0,0,0-1.76,5.73,9.49,9.49,0,0,0,1.76,5.69h-1a9,9,0,0,1-1.84-5.69,9.24,9.24,0,0,1,1.84-5.73Z"/><path class="cls-18" d="M984.86,26.22l3.29-8.76h1.39l3.25,8.74v.7h-7.93Zm6.57-.34-1.92-5.2c-.24-.66-.53-1.5-.7-2.1h0c-.14.48-.39,1.26-.63,1.92l-2,5.38Z"/><path class="cls-18" d="M996.14,27.46l3.91-10.15h1l-3.92,10.15Z"/><path class="cls-18" d="M1008.66,20.36c0,1.92-1,2.87-2.18,2.87s-2.12-.91-2.13-2.74,1-2.85,2.2-2.85S1008.66,18.62,1008.66,20.36Zm-3.33.08c0,1.17.41,2,1.17,2s1.18-.87,1.18-2.07-.32-2-1.18-2S1005.33,19.3,1005.33,20.44Zm1.06,6.62,5.35-9.42h.79l-5.35,9.42Zm8.2-2.93c0,1.92-1,2.87-2.17,2.87s-2.12-.91-2.13-2.73,1-2.86,2.2-2.86S1014.59,22.39,1014.59,24.13Zm-3.34.08c0,1.17.44,2.05,1.19,2.05s1.18-.87,1.18-2.08-.32-2-1.18-2S1011.25,23.06,1011.25,24.21Z"/><path class="cls-18" d="M1015.3,28.6a9.52,9.52,0,0,0,1.76-5.73,9.35,9.35,0,0,0-1.76-5.69h1a9,9,0,0,1,1.83,5.7,9.14,9.14,0,0,1-1.83,5.72Z"/><path class="cls-19" d="M26,222.49a5.81,5.81,0,0,1-2.71.58,4.37,4.37,0,0,1-3.35-1.35,5,5,0,0,1-1.26-3.54,5.2,5.2,0,0,1,1.42-3.8,4.82,4.82,0,0,1,3.59-1.45,5.72,5.72,0,0,1,2.31.41v1.22a4.72,4.72,0,0,0-2.33-.59,3.55,3.55,0,0,0-2.73,1.13,4.25,4.25,0,0,0-1,3,4,4,0,0,0,1,2.85A3.32,3.32,0,0,0,23.4,222a4.92,4.92,0,0,0,2.56-.65Z"/><path class="cls-19" d="M28.92,222.9H27.8V212.54h1.12Z"/><path class="cls-19" d="M31.77,214.12a.72.72,0,0,1-.52-.2.75.75,0,0,1,0-1,.73.73,0,0,1,.52-.21.72.72,0,0,1,.52.21.71.71,0,0,1,0,1A.72.72,0,0,1,31.77,214.12Zm.54,8.78H31.19v-7h1.12Z"/><path class="cls-19" d="M40.21,219.68H35.27a2.66,2.66,0,0,0,.63,1.81,2.17,2.17,0,0,0,1.65.63,3.42,3.42,0,0,0,2.17-.78v1.06a4.08,4.08,0,0,1-2.44.67,3,3,0,0,1-2.33-1,3.91,3.91,0,0,1-.84-2.68,3.79,3.79,0,0,1,.92-2.66,3,3,0,0,1,2.3-1,2.61,2.61,0,0,1,2.13.89,3.69,3.69,0,0,1,.75,2.46Zm-1.15-1a2.24,2.24,0,0,0-.47-1.51,1.58,1.58,0,0,0-1.28-.54,1.81,1.81,0,0,0-1.35.57,2.65,2.65,0,0,0-.68,1.48Z"/><path class="cls-19" d="M47.72,222.9H46.59v-4c0-1.49-.54-2.23-1.62-2.23a1.76,1.76,0,0,0-1.39.63,2.34,2.34,0,0,0-.55,1.6v4H41.91v-7H43v1.16h0a2.54,2.54,0,0,1,2.3-1.32,2.13,2.13,0,0,1,1.76.74,3.33,3.33,0,0,1,.61,2.14Z"/><path class="cls-19" d="M53.08,222.83a2.15,2.15,0,0,1-1,.22c-1.23,0-1.84-.68-1.84-2.05v-4.14H49v-1h1.2v-1.71l1.12-.36v2.07h1.77v1H51.31v3.94a1.65,1.65,0,0,0,.24,1,1,1,0,0,0,.79.3,1.23,1.23,0,0,0,.74-.23Z"/><path class="cls-19" d="M60.09,219.68H55.15a2.56,2.56,0,0,0,.63,1.81,2.17,2.17,0,0,0,1.65.63,3.42,3.42,0,0,0,2.17-.78v1.06a4.1,4.1,0,0,1-2.44.67,3,3,0,0,1-2.33-1,3.92,3.92,0,0,1-.85-2.68,3.8,3.8,0,0,1,.93-2.66,3,3,0,0,1,2.3-1,2.61,2.61,0,0,1,2.13.89,3.69,3.69,0,0,1,.75,2.46Zm-1.15-1a2.24,2.24,0,0,0-.47-1.51,1.59,1.59,0,0,0-1.28-.54,1.81,1.81,0,0,0-1.35.57,2.58,2.58,0,0,0-.68,1.48Z"/><path class="cls-19" d="M61.36,222.65v-1.2a3.31,3.31,0,0,0,2,.67c1,0,1.47-.33,1.47-1a.9.9,0,0,0-.12-.48,1.37,1.37,0,0,0-.34-.34,3.05,3.05,0,0,0-.51-.27c-.19-.08-.4-.17-.63-.25s-.58-.25-.81-.37a2.5,2.5,0,0,1-.59-.43,1.51,1.51,0,0,1-.36-.54,1.86,1.86,0,0,1-.12-.7,1.66,1.66,0,0,1,.23-.87,2,2,0,0,1,.6-.64,2.68,2.68,0,0,1,.86-.38,3.64,3.64,0,0,1,1-.13,4,4,0,0,1,1.63.31v1.14a3.15,3.15,0,0,0-1.78-.51,1.91,1.91,0,0,0-.56.07,1.63,1.63,0,0,0-.44.2,1,1,0,0,0-.28.32.88.88,0,0,0-.1.4,1,1,0,0,0,.1.45.91.91,0,0,0,.29.33,2.07,2.07,0,0,0,.47.26L64,219a7.3,7.3,0,0,1,.83.37,3.13,3.13,0,0,1,.63.42,1.53,1.53,0,0,1,.4.55,1.92,1.92,0,0,1-.09,1.63,1.87,1.87,0,0,1-.61.64,2.92,2.92,0,0,1-.88.37,4.44,4.44,0,0,1-1.05.13A3.94,3.94,0,0,1,61.36,222.65Z"/><path class="cls-19" d="M27.19,266.9H25.78l-5.05-7.81a3.59,3.59,0,0,1-.31-.62h0a9.81,9.81,0,0,1,.05,1.35v7.08H19.29v-9.8h1.49l4.9,7.69a7.6,7.6,0,0,1,.4.66h0A9.82,9.82,0,0,1,26,264v-6.9h1.15Z"/><path class="cls-19" d="M35,266.9H29.76v-9.8h5v1H30.91v3.26h3.54v1H30.91v3.43h4Z"/><path class="cls-19" d="M42.66,258.14H39.83v8.76H38.69v-8.76H35.86v-1h6.8Z"/><path class="cls-19" d="M52.31,257.1l-4.7,11.43h-1l4.69-11.43Z"/><path class="cls-19" d="M64,266.49a5.81,5.81,0,0,1-2.71.58,4.37,4.37,0,0,1-3.35-1.35,5,5,0,0,1-1.26-3.54,5.24,5.24,0,0,1,1.42-3.8,4.82,4.82,0,0,1,3.59-1.45,5.72,5.72,0,0,1,2.31.41v1.22a4.72,4.72,0,0,0-2.33-.59,3.57,3.57,0,0,0-2.73,1.13,4.25,4.25,0,0,0-1,3,4,4,0,0,0,1,2.85A3.32,3.32,0,0,0,61.44,266a4.89,4.89,0,0,0,2.56-.65Z"/><path class="cls-19" d="M67,266.9H65.84V256.54H67Z"/><path class="cls-19" d="M69.81,258.12a.69.69,0,0,1-.51-.2.72.72,0,0,1,0-1,.69.69,0,0,1,.51-.21.72.72,0,0,1,.52.21.71.71,0,0,1,0,1A.72.72,0,0,1,69.81,258.12Zm.55,8.78H69.24v-7h1.12Z"/><path class="cls-19" d="M78.25,263.68H73.31a2.66,2.66,0,0,0,.63,1.81,2.17,2.17,0,0,0,1.65.63,3.45,3.45,0,0,0,2.18-.78v1.06a4.12,4.12,0,0,1-2.44.67,2.94,2.94,0,0,1-2.33-1,4.47,4.47,0,0,1,.07-5.34,3,3,0,0,1,2.3-1,2.61,2.61,0,0,1,2.13.89,3.69,3.69,0,0,1,.75,2.46Zm-1.15-.95a2.29,2.29,0,0,0-.46-1.51,1.61,1.61,0,0,0-1.29-.54,1.79,1.79,0,0,0-1.34.57,2.59,2.59,0,0,0-.69,1.48Z"/><path class="cls-19" d="M85.76,266.9H84.64v-4c0-1.49-.55-2.23-1.63-2.23a1.77,1.77,0,0,0-1.39.63,2.34,2.34,0,0,0-.55,1.6v4H80v-7h1.12v1.16h0a2.51,2.51,0,0,1,2.29-1.32,2.13,2.13,0,0,1,1.76.74,3.27,3.27,0,0,1,.61,2.14Z"/><path class="cls-19" d="M91.12,266.83a2.15,2.15,0,0,1-1.05.22c-1.22,0-1.84-.68-1.84-2.05v-4.14H87v-1h1.2v-1.71l1.12-.36v2.07h1.77v1H89.35v3.94a1.65,1.65,0,0,0,.24,1,1,1,0,0,0,.8.3,1.22,1.22,0,0,0,.73-.23Z"/><path class="cls-19" d="M98.13,263.68H93.19a2.66,2.66,0,0,0,.63,1.81,2.17,2.17,0,0,0,1.65.63,3.47,3.47,0,0,0,2.18-.78v1.06a4.12,4.12,0,0,1-2.44.67,3,3,0,0,1-2.34-1,3.91,3.91,0,0,1-.84-2.68,3.79,3.79,0,0,1,.92-2.66,3,3,0,0,1,2.3-1,2.61,2.61,0,0,1,2.13.89,3.69,3.69,0,0,1,.75,2.46ZM97,262.73a2.24,2.24,0,0,0-.47-1.51,1.58,1.58,0,0,0-1.28-.54,1.78,1.78,0,0,0-1.34.57,2.59,2.59,0,0,0-.69,1.48Z"/><g class="cls-20"><path class="cls-19" d="M91.28,112.9H90.14v-6.57c0-.52,0-1.16.09-1.91h0a5.7,5.7,0,0,1-.3,1l-3.35,7.53H86l-3.34-7.48a5.51,5.51,0,0,1-.29-1h0c0,.39,0,1,0,1.92v6.56h-1.1v-9.8H82.8l3,6.83a9.65,9.65,0,0,1,.45,1.18h0c.2-.54.36-.94.47-1.2l3.07-6.81h1.44Z"/><path class="cls-19" d="M100.53,112.49a5.81,5.81,0,0,1-2.71.58,4.37,4.37,0,0,1-3.35-1.35,5,5,0,0,1-1.26-3.54,5.24,5.24,0,0,1,1.42-3.8,4.82,4.82,0,0,1,3.59-1.45,5.72,5.72,0,0,1,2.31.41v1.22A4.72,4.72,0,0,0,98.2,104a3.57,3.57,0,0,0-2.73,1.13,4.25,4.25,0,0,0-1,3,4,4,0,0,0,1,2.85A3.32,3.32,0,0,0,98,112a4.89,4.89,0,0,0,2.56-.65Z"/><path class="cls-19" d="M104,108a2.07,2.07,0,0,1-1.61-.66,2.57,2.57,0,0,1-.6-1.78,2.78,2.78,0,0,1,.63-1.92,2.21,2.21,0,0,1,1.72-.7,2,2,0,0,1,1.62.65,2.62,2.62,0,0,1,.58,1.82,2.71,2.71,0,0,1-.65,1.89A2.17,2.17,0,0,1,104,108Zm.1-4.31a1.23,1.23,0,0,0-1,.48,2.09,2.09,0,0,0-.37,1.32,2,2,0,0,0,.36,1.29,1.23,1.23,0,0,0,1,.46,1.17,1.17,0,0,0,1-.47,2.1,2.1,0,0,0,.37-1.33,2.06,2.06,0,0,0-.36-1.29A1.17,1.17,0,0,0,104.1,103.7Zm6.46-.6L104.27,113h-1l6.28-9.87Zm-.72,10a2,2,0,0,1-1.61-.67,2.52,2.52,0,0,1-.61-1.78,2.74,2.74,0,0,1,.65-1.92A2.18,2.18,0,0,1,110,108a2.05,2.05,0,0,1,1.62.66,2.72,2.72,0,0,1,.58,1.84,2.66,2.66,0,0,1-.65,1.87A2.15,2.15,0,0,1,109.84,113.05Zm.09-4.3a1.2,1.2,0,0,0-1,.47,2.1,2.1,0,0,0-.38,1.33,2,2,0,0,0,.37,1.27,1.23,1.23,0,0,0,1,.47,1.16,1.16,0,0,0,1-.49,2.16,2.16,0,0,0,.36-1.32,2.07,2.07,0,0,0-.35-1.28A1.2,1.2,0,0,0,109.93,108.75Z"/></g><path class="cls-19" d="M91.28,135.9H90.14v-6.57c0-.52,0-1.16.09-1.91h0a5.7,5.7,0,0,1-.3,1l-3.35,7.53H86l-3.34-7.48a5.51,5.51,0,0,1-.29-1h0c0,.39,0,1,0,1.92v6.56h-1.1v-9.8H82.8l3,6.83a9.65,9.65,0,0,1,.45,1.18h0c.2-.54.36-.94.47-1.2l3.07-6.81h1.44Z"/><path class="cls-19" d="M100.53,135.49a5.81,5.81,0,0,1-2.71.58,4.37,4.37,0,0,1-3.35-1.35,5,5,0,0,1-1.26-3.54,5.24,5.24,0,0,1,1.42-3.8,4.82,4.82,0,0,1,3.59-1.45,5.72,5.72,0,0,1,2.31.41v1.22A4.72,4.72,0,0,0,98.2,127a3.57,3.57,0,0,0-2.73,1.13,4.25,4.25,0,0,0-1,3,4,4,0,0,0,1,2.85A3.32,3.32,0,0,0,98,135a4.89,4.89,0,0,0,2.56-.65Z"/><g class="cls-21"><path class="cls-22" d="M78,107H77a2,2,0,0,0-2,2v20a2,2,0,0,0,2,2h1"/><line class="cls-22" x1="72" y1="119" x2="75" y2="119"/></g></svg>
