<?xml version="1.0" encoding="utf-8"?>
<!-- Generator: Adobe Illustrator 25.4.1, SVG Export Plug-In . SVG Version: 6.00 Build 0)  -->
<svg version="1.1" id="icones" xmlns="http://www.w3.org/2000/svg" xmlns:xlink="http://www.w3.org/1999/xlink" x="0px" y="0px"
	 viewBox="0 0 1176 288" style="enable-background:new 0 0 1176 288;" xml:space="preserve">
<style type="text/css">
	.st0{fill:url(#SVGID_1_);}
	.st1{fill:#C06F6C;}
	.st2{fill:url(#SVGID_00000069363040508995178780000005466819524434987394_);}
	.st3{fill:#5E75A0;}
	.st4{fill:#D3AD6A;}
	.st5{fill:#6CACA0;}
	.st6{fill:#5E4B4B;}
	.st7{fill:#414951;}
	.st8{fill:#D8E4E3;}
	.st9{fill:#5B564F;}
	.st10{fill:#51605C;}
	.st11{fill:url(#SVGID_00000074425606076510441180000009645664298810887853_);}
	.st12{fill:url(#SVGID_00000068664654755819342160000001791528031380009118_);}
	.st13{fill:url(#SVGID_00000142886601575875606930000000092143382258086024_);}
	.st14{fill:url(#SVGID_00000182527978380624954690000017756699344383531441_);}
	.st15{fill:url(#SVGID_00000070085349389951165010000017628436846342135460_);}
	.st16{fill:url(#SVGID_00000176003532088466426800000003450210570232909954_);}
	.st17{fill:#556464;stroke:#566564;stroke-width:0.4;stroke-miterlimit:10;}
	.st18{fill:#FFFFFF;stroke:#FFFFFF;stroke-width:0.4;stroke-miterlimit:10;}
	.st19{opacity:0.75;}
	.st20{opacity:0.3;}
	.st21{fill:none;stroke:#FFFFFF;stroke-miterlimit:10;}
	.st22{fill:url(#SVGID_00000052099594025225057530000004683721605307496088_);}
</style>
<g>
	
		<linearGradient id="SVGID_1_" gradientUnits="userSpaceOnUse" x1="542" y1="802" x2="542" y2="830" gradientTransform="matrix(1 0 0 1 0 -554)">
		<stop  offset="0.3" style="stop-color:#6CACA0"/>
		<stop  offset="0.7" style="stop-color:#5E75A0"/>
	</linearGradient>
	<path class="st0" d="M16,248h1052c4.4,0,8,3.6,8,8v12c0,4.4-3.6,8-8,8H16c-4.4,0-8-3.6-8-8v-12C8,251.6,11.6,248,16,248z"/>
	<g>
		<path class="st1" d="M16,96h1052c4.4,0,8,3.6,8,8v32c0,4.4-3.6,8-8,8H16c-4.4,0-8-3.6-8-8v-32C8,99.6,11.6,96,16,96z"/>
		
			<linearGradient id="SVGID_00000014635741880058359260000000472159093179748753_" gradientUnits="userSpaceOnUse" x1="542" y1="828" x2="542" y2="804" gradientTransform="matrix(1 0 0 1 0 -554)">
			<stop  offset="0.3" style="stop-color:#6CACA0"/>
			<stop  offset="0.7" style="stop-color:#5E75A0"/>
		</linearGradient>
		<path style="fill:url(#SVGID_00000014635741880058359260000000472159093179748753_);" d="M16.6,250h1050.8c3.6,0,6.6,3,6.6,6.6
			v10.8c0,3.6-3,6.6-6.6,6.6H16.6c-3.6,0-6.6-3-6.6-6.6v-10.8C10,253,13,250,16.6,250z"/>
		<path class="st3" d="M16,52h1052c4.4,0,8,3.6,8,8v12c0,4.4-3.6,8-8,8H16c-4.4,0-8-3.6-8-8V60C8,55.6,11.6,52,16,52z"/>
		<path class="st4" d="M16,160h1052c4.4,0,8,3.6,8,8v12c0,4.4-3.6,8-8,8H16c-4.4,0-8-3.6-8-8v-12C8,163.6,11.6,160,16,160z"/>
		<path class="st5" d="M16,204h1052c4.4,0,8,3.6,8,8v12c0,4.4-3.6,8-8,8H16c-4.4,0-8-3.6-8-8v-12C8,207.6,11.6,204,16,204z"/>
	</g>
</g>
<path class="st6" d="M1156,92H996c-6.6,0-12,5.4-12,12v32c0,6.6,5.4,12,12,12h160c6.6,0,12-5.4,12-12v-32
	C1168,97.4,1162.6,92,1156,92z M1004,122v14c0,3.3-2.7,6-6,6s-6-2.7-6-6v-14H1004z M992,118v-14c0-3.3,2.7-6,6-6s6,2.7,6,6v14H992z"
	/>
<path class="st7" d="M1156,48H996c-6.6,0-12,5.4-12,12v12c0,6.6,5.4,12,12,12h160c6.6,0,12-5.4,12-12V60
	C1168,53.4,1162.6,48,1156,48z M1004,72c0,3.3-2.7,6-6,6s-6-2.7-6-6V60c0-3.3,2.7-6,6-6s6,2.7,6,6V72z"/>
<path class="st8" d="M996,8h160c6.6,0,12,5.4,12,12v4c0,6.6-5.4,12-12,12H996c-6.6,0-12-5.4-12-12v-4C984,13.4,989.4,8,996,8z"/>
<path class="st9" d="M1156,156H996c-6.6,0-12,5.4-12,12v12c0,6.6,5.4,12,12,12h160c6.6,0,12-5.4,12-12v-12
	C1168,161.4,1162.6,156,1156,156z M1004,180c0,3.3-2.7,6-6,6s-6-2.7-6-6v-12c0-3.3,2.7-6,6-6s6,2.7,6,6V180z"/>
<path class="st10" d="M1156,200H996c-6.6,0-12,5.4-12,12v12c0,6.6,5.4,12,12,12h160c6.6,0,12-5.4,12-12v-12
	C1168,205.4,1162.6,200,1156,200z M1004,224c0,3.3-2.7,6-6,6s-6-2.7-6-6v-12c0-3.3,2.7-6,6-6s6,2.7,6,6V224z"/>
<linearGradient id="SVGID_00000122690063263550857910000003975195662896199071_" gradientUnits="userSpaceOnUse" x1="1076" y1="834" x2="1076" y2="798" gradientTransform="matrix(1 0 0 1 0 -554)">
	<stop  offset="0" style="stop-color:#51605C"/>
	<stop  offset="1" style="stop-color:#414951"/>
</linearGradient>
<path style="fill:url(#SVGID_00000122690063263550857910000003975195662896199071_);" d="M1156,244H996c-6.6,0-12,5.4-12,12v12
	c0,6.6,5.4,12,12,12h160c6.6,0,12-5.4,12-12v-12C1168,249.4,1162.6,244,1156,244z M1004,268c0,3.3-2.7,6-6,6s-6-2.7-6-6v-12
	c0-3.3,2.7-6,6-6s6,2.7,6,6V268z"/>
<path class="st6" d="M220,92h-88c-6.6,0-12,5.4-12,12v32c0,6.6,5.4,12,12,12h88c6.6,0,12-5.4,12-12v-32C232,97.4,226.6,92,220,92z
	 M140,122v14c0,3.3-2.7,6-6,6s-6-2.7-6-6v-14H140z M128,118v-14c0-3.3,2.7-6,6-6s6,2.7,6,6v14H128z"/>
<path class="st6" d="M340,92h-88c-6.6,0-12,5.4-12,12v32c0,6.6,5.4,12,12,12h88c6.6,0,12-5.4,12-12v-32C352,97.4,346.6,92,340,92z
	 M260,122v14c0,3.3-2.7,6-6,6c-3.3,0-6-2.7-6-6v-14H260z M248,118v-14c0-3.3,2.7-6,6-6c3.3,0,6,2.7,6,6v14H248z"/>
<path class="st6" d="M772,92H612c-6.6,0-12,5.4-12,12v32c0,6.6,5.4,12,12,12h160c6.6,0,12-5.4,12-12v-32C784,97.4,778.6,92,772,92z
	 M620,122v14c0,3.3-2.7,6-6,6s-6-2.7-6-6v-14H620z M608,118v-14c0-3.3,2.7-6,6-6s6,2.7,6,6v14H608z"/>
<path class="st6" d="M964,92H804c-6.6,0-12,5.4-12,12v32c0,6.6,5.4,12,12,12h160c6.6,0,12-5.4,12-12v-32C976,97.4,970.6,92,964,92z
	 M812,122v14c0,3.3-2.7,6-6,6s-6-2.7-6-6v-14H812z M800,118v-14c0-3.3,2.7-6,6-6s6,2.7,6,6v14H800z"/>
<path class="st6" d="M580,92h-88c-6.6,0-12,5.4-12,12v32c0,6.6,5.4,12,12,12h88c6.6,0,12-5.4,12-12v-32C592,97.4,586.6,92,580,92z
	 M500,122v14c0,3.3-2.7,6-6,6s-6-2.7-6-6v-14H500z M488,118v-14c0-3.3,2.7-6,6-6s6,2.7,6,6v14H488z"/>
<path class="st8" d="M252,8h88c6.6,0,12,5.4,12,12v4c0,6.6-5.4,12-12,12h-88c-6.6,0-12-5.4-12-12v-4C240,13.4,245.4,8,252,8z"/>
<path class="st8" d="M492,8h88c6.6,0,12,5.4,12,12v4c0,6.6-5.4,12-12,12h-88c-6.6,0-12-5.4-12-12v-4C480,13.4,485.4,8,492,8z"/>
<path class="st8" d="M132,8h88c6.6,0,12,5.4,12,12v4c0,6.6-5.4,12-12,12h-88c-6.6,0-12-5.4-12-12v-4C120,13.4,125.4,8,132,8z"/>
<path class="st8" d="M612,8h160c6.6,0,12,5.4,12,12v4c0,6.6-5.4,12-12,12H612c-6.6,0-12-5.4-12-12v-4C600,13.4,605.4,8,612,8z"/>
<path class="st7" d="M340,48h-88c-6.6,0-12,5.4-12,12v12c0,6.6,5.4,12,12,12h88c6.6,0,12-5.4,12-12V60C352,53.4,346.6,48,340,48z
	 M260,72c0,3.3-2.7,6-6,6c-3.3,0-6-2.7-6-6V60c0-3.3,2.7-6,6-6c3.3,0,6,2.7,6,6V72z"/>
<path class="st7" d="M580,48h-88c-6.6,0-12,5.4-12,12v12c0,6.6,5.4,12,12,12h88c6.6,0,12-5.4,12-12V60C592,53.4,586.6,48,580,48z
	 M500,72c0,3.3-2.7,6-6,6s-6-2.7-6-6V60c0-3.3,2.7-6,6-6s6,2.7,6,6V72z"/>
<path class="st7" d="M220,48h-88c-6.6,0-12,5.4-12,12v12c0,6.6,5.4,12,12,12h88c6.6,0,12-5.4,12-12V60C232,53.4,226.6,48,220,48z
	 M140,72c0,3.3-2.7,6-6,6s-6-2.7-6-6V60c0-3.3,2.7-6,6-6s6,2.7,6,6V72z"/>
<path class="st7" d="M964,48H804c-6.6,0-12,5.4-12,12v12c0,6.6,5.4,12,12,12h160c6.6,0,12-5.4,12-12V60C976,53.4,970.6,48,964,48z
	 M812,72c0,3.3-2.7,6-6,6s-6-2.7-6-6V60c0-3.3,2.7-6,6-6s6,2.7,6,6V72z"/>
<path class="st7" d="M772,48H612c-6.6,0-12,5.4-12,12v12c0,6.6,5.4,12,12,12h160c6.6,0,12-5.4,12-12V60C784,53.4,778.6,48,772,48z
	 M620,72c0,3.3-2.7,6-6,6s-6-2.7-6-6V60c0-3.3,2.7-6,6-6s6,2.7,6,6V72z"/>
<path class="st8" d="M804,8h160c6.6,0,12,5.4,12,12v4c0,6.6-5.4,12-12,12H804c-6.6,0-12-5.4-12-12v-4C792,13.4,797.4,8,804,8z"/>
<path class="st9" d="M340,156h-88c-6.6,0-12,5.4-12,12v12c0,6.6,5.4,12,12,12h88c6.6,0,12-5.4,12-12v-12
	C352,161.4,346.6,156,340,156z M260,180c0,3.3-2.7,6-6,6c-3.3,0-6-2.7-6-6v-12c0-3.3,2.7-6,6-6c3.3,0,6,2.7,6,6V180z"/>
<path class="st9" d="M580,156h-88c-6.6,0-12,5.4-12,12v12c0,6.6,5.4,12,12,12h88c6.6,0,12-5.4,12-12v-12
	C592,161.4,586.6,156,580,156z M500,180c0,3.3-2.7,6-6,6s-6-2.7-6-6v-12c0-3.3,2.7-6,6-6s6,2.7,6,6V180z"/>
<path class="st9" d="M220,156h-88c-6.6,0-12,5.4-12,12v12c0,6.6,5.4,12,12,12h88c6.6,0,12-5.4,12-12v-12
	C232,161.4,226.6,156,220,156z M140,180c0,3.3-2.7,6-6,6s-6-2.7-6-6v-12c0-3.3,2.7-6,6-6s6,2.7,6,6V180z"/>
<path class="st9" d="M964,156H804c-6.6,0-12,5.4-12,12v12c0,6.6,5.4,12,12,12h160c6.6,0,12-5.4,12-12v-12
	C976,161.4,970.6,156,964,156z M812,180c0,3.3-2.7,6-6,6s-6-2.7-6-6v-12c0-3.3,2.7-6,6-6s6,2.7,6,6V180z"/>
<path class="st9" d="M772,156H612c-6.6,0-12,5.4-12,12v12c0,6.6,5.4,12,12,12h160c6.6,0,12-5.4,12-12v-12
	C784,161.4,778.6,156,772,156z M620,180c0,3.3-2.7,6-6,6s-6-2.7-6-6v-12c0-3.3,2.7-6,6-6s6,2.7,6,6V180z"/>
<path class="st10" d="M340,200h-88c-6.6,0-12,5.4-12,12v12c0,6.6,5.4,12,12,12h88c6.6,0,12-5.4,12-12v-12
	C352,205.4,346.6,200,340,200z M260,224c0,3.3-2.7,6-6,6c-3.3,0-6-2.7-6-6v-12c0-3.3,2.7-6,6-6c3.3,0,6,2.7,6,6V224z"/>
<path class="st10" d="M580,200h-88c-6.6,0-12,5.4-12,12v12c0,6.6,5.4,12,12,12h88c6.6,0,12-5.4,12-12v-12
	C592,205.4,586.6,200,580,200z M500,224c0,3.3-2.7,6-6,6s-6-2.7-6-6v-12c0-3.3,2.7-6,6-6s6,2.7,6,6V224z"/>
<path class="st10" d="M220,200h-88c-6.6,0-12,5.4-12,12v12c0,6.6,5.4,12,12,12h88c6.6,0,12-5.4,12-12v-12
	C232,205.4,226.6,200,220,200z M140,224c0,3.3-2.7,6-6,6s-6-2.7-6-6v-12c0-3.3,2.7-6,6-6s6,2.7,6,6V224z"/>
<path class="st10" d="M964,200H804c-6.6,0-12,5.4-12,12v12c0,6.6,5.4,12,12,12h160c6.6,0,12-5.4,12-12v-12
	C976,205.4,970.6,200,964,200z M812,224c0,3.3-2.7,6-6,6s-6-2.7-6-6v-12c0-3.3,2.7-6,6-6s6,2.7,6,6V224z"/>
<path class="st10" d="M772,200H612c-6.6,0-12,5.4-12,12v12c0,6.6,5.4,12,12,12h160c6.6,0,12-5.4,12-12v-12
	C784,205.4,778.6,200,772,200z M620,224c0,3.3-2.7,6-6,6s-6-2.7-6-6v-12c0-3.3,2.7-6,6-6s6,2.7,6,6V224z"/>
<linearGradient id="SVGID_00000119094524803213651180000015599920282298133408_" gradientUnits="userSpaceOnUse" x1="296" y1="834" x2="296" y2="798" gradientTransform="matrix(1 0 0 1 0 -554)">
	<stop  offset="0" style="stop-color:#51605C"/>
	<stop  offset="1" style="stop-color:#414951"/>
</linearGradient>
<path style="fill:url(#SVGID_00000119094524803213651180000015599920282298133408_);" d="M340,244h-88c-6.6,0-12,5.4-12,12v12
	c0,6.6,5.4,12,12,12h88c6.6,0,12-5.4,12-12v-12C352,249.4,346.6,244,340,244z M260,268c0,3.3-2.7,6-6,6c-3.3,0-6-2.7-6-6v-12
	c0-3.3,2.7-6,6-6c3.3,0,6,2.7,6,6V268z"/>
<linearGradient id="SVGID_00000086682059288759582620000016206372490178047659_" gradientUnits="userSpaceOnUse" x1="536" y1="834" x2="536" y2="798" gradientTransform="matrix(1 0 0 1 0 -554)">
	<stop  offset="0" style="stop-color:#51605C"/>
	<stop  offset="1" style="stop-color:#414951"/>
</linearGradient>
<path style="fill:url(#SVGID_00000086682059288759582620000016206372490178047659_);" d="M580,244h-88c-6.6,0-12,5.4-12,12v12
	c0,6.6,5.4,12,12,12h88c6.6,0,12-5.4,12-12v-12C592,249.4,586.6,244,580,244z M500,268c0,3.3-2.7,6-6,6s-6-2.7-6-6v-12
	c0-3.3,2.7-6,6-6s6,2.7,6,6V268z"/>
<linearGradient id="SVGID_00000011000506897220034060000008357159138534817187_" gradientUnits="userSpaceOnUse" x1="176" y1="834" x2="176" y2="798" gradientTransform="matrix(1 0 0 1 0 -554)">
	<stop  offset="0" style="stop-color:#51605C"/>
	<stop  offset="1" style="stop-color:#414951"/>
</linearGradient>
<path style="fill:url(#SVGID_00000011000506897220034060000008357159138534817187_);" d="M220,244h-88c-6.6,0-12,5.4-12,12v12
	c0,6.6,5.4,12,12,12h88c6.6,0,12-5.4,12-12v-12C232,249.4,226.6,244,220,244z M140,268c0,3.3-2.7,6-6,6s-6-2.7-6-6v-12
	c0-3.3,2.7-6,6-6s6,2.7,6,6V268z"/>
<linearGradient id="SVGID_00000110472530781476135340000003934515577861813928_" gradientUnits="userSpaceOnUse" x1="884" y1="834" x2="884" y2="798" gradientTransform="matrix(1 0 0 1 0 -554)">
	<stop  offset="0" style="stop-color:#51605C"/>
	<stop  offset="1" style="stop-color:#414951"/>
</linearGradient>
<path style="fill:url(#SVGID_00000110472530781476135340000003934515577861813928_);" d="M964,244H804c-6.6,0-12,5.4-12,12v12
	c0,6.6,5.4,12,12,12h160c6.6,0,12-5.4,12-12v-12C976,249.4,970.6,244,964,244z M812,268c0,3.3-2.7,6-6,6s-6-2.7-6-6v-12
	c0-3.3,2.7-6,6-6s6,2.7,6,6V268z"/>
<linearGradient id="SVGID_00000006690466410855844160000007476952102837441154_" gradientUnits="userSpaceOnUse" x1="692" y1="834" x2="692" y2="798" gradientTransform="matrix(1 0 0 1 0 -554)">
	<stop  offset="0" style="stop-color:#51605C"/>
	<stop  offset="1" style="stop-color:#414951"/>
</linearGradient>
<path style="fill:url(#SVGID_00000006690466410855844160000007476952102837441154_);" d="M772,244H612c-6.6,0-12,5.4-12,12v12
	c0,6.6,5.4,12,12,12h160c6.6,0,12-5.4,12-12v-12C784,249.4,778.6,244,772,244z M620,268c0,3.3-2.7,6-6,6s-6-2.7-6-6v-12
	c0-3.3,2.7-6,6-6s6,2.7,6,6V268z"/>
<path class="st17" d="M176.5,26.9h-1.4l-5-7.8c-0.1-0.2-0.2-0.4-0.3-0.6h-0.1c0.1,0.4,0.1,0.9,0.1,1.4V27h-1.1v-9.8h1.5l4.8,7.7
	c0.2,0.3,0.3,0.5,0.4,0.7l0,0c-0.1-0.5-0.1-1-0.1-1.5v-6.9h1.1L176.5,26.9z"/>
<path class="st17" d="M184.1,18.1h-3.8v3.4h3.5v1h-3.5v4.4h-1.1v-9.8h5L184.1,18.1z"/>
<path class="st17" d="M290.2,23.2v3.7H289v-9.8h2.7c0.9-0.1,1.7,0.2,2.4,0.8c0.6,0.6,0.9,1.3,0.9,2.1c0,0.9-0.3,1.7-1,2.3
	c-0.7,0.6-1.6,0.9-2.6,0.9H290.2z M290.2,18.1v4h1.2c0.7,0,1.3-0.1,1.8-0.5c0.4-0.4,0.7-1,0.6-1.5c0-1.3-0.8-1.9-2.3-1.9L290.2,18.1
	z"/>
<path class="st17" d="M304.1,17.1l-3.6,9.8h-1.3l-3.5-9.8h1.3l2.7,7.8c0.1,0.3,0.2,0.6,0.2,0.9l0,0c0-0.3,0.1-0.6,0.2-0.9l2.8-7.8
	L304.1,17.1z"/>
<path class="st17" d="M519.6,26.9h-1.4l-5-7.8c-0.1-0.2-0.2-0.4-0.3-0.6l0,0c0.1,0.4,0.1,0.9,0.1,1.4V27h-1.1v-9.8h1.5l4.9,7.7
	c0.1,0.2,0.3,0.4,0.4,0.7l0,0c-0.1-0.5-0.1-1-0.1-1.5v-6.9h1.1L519.6,26.9z"/>
<path class="st17" d="M527.2,18.1h-3.8v3.4h3.5v1h-3.5v4.4h-1.1v-9.8h5L527.2,18.1z"/>
<path class="st17" d="M539.6,23.3h-2.8V26h-0.9v-2.7h-2.8v-0.9h2.8v-2.8h0.9v2.8h2.8V23.3z"/>
<path class="st17" d="M547.4,23.2v3.7h-1.1v-9.8h2.7c0.9-0.1,1.7,0.2,2.4,0.8c0.6,0.6,0.9,1.3,0.9,2.2c0,0.9-0.3,1.7-1,2.3
	c-0.7,0.6-1.6,0.9-2.6,0.9h-1.3V23.2z M547.4,18.1v4h1.2c0.7,0,1.3-0.2,1.8-0.5c0.4-0.4,0.7-1,0.6-1.5c0-1.3-0.8-1.9-2.3-1.9
	L547.4,18.1z"/>
<path class="st17" d="M561.4,17.1l-3.6,9.8h-1.3l-3.5-9.8h1.3l2.7,7.8c0.1,0.3,0.2,0.6,0.2,0.9l0,0c0-0.3,0.1-0.6,0.2-0.9l2.8-7.8
	L561.4,17.1z"/>
<path class="st18" d="M26.6,61.1L23,70.9h-1.3l-3.6-9.8h1.3l2.7,7.8c0.1,0.3,0.2,0.6,0.2,0.9l0,0c0-0.3,0.1-0.6,0.2-0.9l2.8-7.8
	L26.6,61.1z"/>
<path class="st18" d="M31.8,70.9h-1.1v-1.1l0,0c-0.4,0.8-1.3,1.3-2.2,1.3c-0.6,0-1.2-0.2-1.6-0.6s-0.6-0.9-0.6-1.5
	c0-1.3,0.8-2.1,2.3-2.3l2.1-0.3c0-1.2-0.5-1.8-1.4-1.8c-0.8,0-1.6,0.3-2.3,0.9v-1.1c0.7-0.4,1.5-0.7,2.4-0.7c1.6,0,2.5,0.9,2.5,2.6
	L31.8,70.9z M30.7,67.4L29,67.6c-0.4,0-0.8,0.2-1.2,0.4c-0.3,0.2-0.4,0.6-0.4,1c0,0.3,0.1,0.6,0.4,0.8c0.3,0.2,0.6,0.3,1,0.3
	c0.5,0,1-0.2,1.4-0.6s0.6-0.9,0.5-1.5C30.7,68,30.7,67.4,30.7,67.4z"/>
<path class="st18" d="M35.1,70.9H34V60.5h1.1V70.9z"/>
<path class="st18" d="M40.3,71.1c-0.9,0-1.8-0.3-2.5-1c-0.6-0.7-1-1.6-0.9-2.6c0-1,0.3-2,1-2.8c0.7-0.7,1.6-1,2.6-1
	c0.9,0,1.8,0.3,2.4,1c0.6,0.7,0.9,1.7,0.9,2.7s-0.3,2-1,2.7C42.1,70.8,41.2,71.1,40.3,71.1z M40.3,64.7c-0.7,0-1.3,0.2-1.7,0.7
	c-0.4,0.6-0.7,1.3-0.6,2c-0.1,0.7,0.2,1.4,0.6,2c0.4,0.5,1.1,0.7,1.7,0.7c0.6,0,1.3-0.2,1.7-0.7c0.4-0.6,0.6-1.3,0.6-2
	s-0.2-1.4-0.6-2C41.6,64.9,41,64.7,40.3,64.7z"/>
<path class="st18" d="M49.2,65c-0.3-0.2-0.5-0.2-0.8-0.2c-0.5,0-0.9,0.3-1.2,0.7c-0.4,0.5-0.5,1.2-0.5,1.8v3.6h-1.1v-7h1.1v1.4l0,0
	c0.1-0.4,0.4-0.8,0.7-1.2c0.3-0.3,0.7-0.4,1.1-0.4c0.2,0,0.5,0,0.7,0.1V65z"/>
<path class="st18" d="M62.3,70.9h-1.4l-5-7.8c-0.1-0.2-0.2-0.4-0.3-0.6l0,0c0,0.4,0,0.9,0,1.3v7.1h-1.2v-9.8h1.5l4.9,7.7
	c0.1,0.2,0.3,0.4,0.4,0.7l0,0c0-0.5-0.1-1,0-1.5v-6.9h1.1V70.9z"/>
<path class="st18" d="M70.1,70.9h-5.2v-9.8h5v1H66v3.3h3.5v1H66v3.4h4L70.1,70.9z"/>
<path class="st18" d="M77.8,62.1H75v8.8h-1.2v-8.8H71v-1h6.8V62.1z"/>
<path class="st18" d="M29.3,122.9h-1.1v-6.6c0-0.5,0-1.2,0.1-1.9l0,0c-0.1,0.3-0.2,0.7-0.3,1l-3.4,7.5H24l-3.3-7.5
	c-0.1-0.3-0.2-0.7-0.3-1l0,0c0,0.4,0,1,0,1.9v6.6h-1.1v-9.8h1.5l3,6.8c0.2,0.4,0.3,0.8,0.5,1.2l0,0c0.2-0.5,0.4-0.9,0.5-1.2l3.1-6.8
	h1.4L29.3,122.9z"/>
<path class="st18" d="M36.7,122.9h-1.1v-1.1l0,0c-0.4,0.8-1.3,1.3-2.2,1.3c-0.6,0-1.2-0.2-1.6-0.6s-0.6-0.9-0.6-1.5
	c0-1.3,0.8-2.1,2.3-2.3l2.1-0.3c0-1.2-0.5-1.8-1.5-1.8c-0.8,0-1.6,0.3-2.3,0.9v-1.2c0.7-0.4,1.5-0.7,2.4-0.7c1.6,0,2.5,0.9,2.5,2.6
	V122.9z M35.6,119.4l-1.7,0.2c-0.4,0-0.8,0.2-1.2,0.4c-0.3,0.2-0.4,0.6-0.4,1c0,0.3,0.1,0.6,0.4,0.8c0.3,0.2,0.6,0.3,1,0.3
	c0.5,0,1-0.2,1.4-0.6s0.6-0.9,0.5-1.5V119.4z"/>
<path class="st18" d="M42.5,117c-0.3-0.2-0.5-0.2-0.8-0.2c-0.5,0-0.9,0.3-1.2,0.7c-0.3,0.5-0.5,1.2-0.5,1.8v3.6h-1.1v-7H40v1.4l0,0
	c0.1-0.4,0.4-0.8,0.7-1.2c0.3-0.3,0.7-0.4,1.1-0.4c0.2,0,0.5,0,0.7,0.1V117z"/>
<path class="st18" d="M49.5,122.3c0,2.6-1.2,3.9-3.7,3.9c-0.8,0-1.6-0.2-2.3-0.5v-1.1c0.7,0.4,1.5,0.6,2.2,0.7
	c1.7,0,2.6-0.9,2.6-2.8v-0.8l0,0c-0.8,1.3-2.6,1.7-3.9,0.9c-0.2-0.1-0.4-0.3-0.6-0.5c-0.6-0.7-0.8-1.6-0.8-2.5c-0.1-1,0.3-2,0.9-2.8
	c0.6-0.7,1.4-1.1,2.3-1.1c0.9,0,1.7,0.4,2.1,1.1l0,0v-1h1.1L49.5,122.3z M48.4,119.7v-1c0-0.5-0.2-1-0.6-1.4
	c-0.4-0.4-0.9-0.6-1.4-0.6c-0.6,0-1.2,0.3-1.6,0.8c-0.4,0.6-0.6,1.4-0.6,2.1s0.2,1.3,0.6,1.9c0.4,0.5,0.9,0.7,1.5,0.7
	s1.1-0.2,1.5-0.7C48.2,121,48.4,120.4,48.4,119.7z"/>
<path class="st18" d="M57.4,119.7h-4.9c0,0.7,0.2,1.3,0.6,1.8c0.4,0.4,1,0.7,1.7,0.6c0.8,0,1.6-0.3,2.2-0.8v1.1
	c-0.7,0.5-1.6,0.7-2.4,0.7c-0.9,0-1.7-0.3-2.3-1c-0.6-0.8-0.9-1.7-0.8-2.7c0-1,0.3-1.9,0.9-2.7c0.6-0.7,1.4-1,2.3-1
	c0.8-0.1,1.6,0.3,2.1,0.9c0.5,0.7,0.8,1.6,0.8,2.5v0.6H57.4z M56.2,118.7c0-0.5-0.1-1.1-0.5-1.5c-0.3-0.4-0.8-0.6-1.3-0.5
	c-0.5,0-1,0.2-1.3,0.6c-0.4,0.4-0.6,0.9-0.7,1.5L56.2,118.7L56.2,118.7z"/>
<path class="st18" d="M69,122.9h-1.1v-4c0-0.6-0.1-1.2-0.4-1.7c-0.3-0.4-0.7-0.6-1.2-0.5c-0.5,0-0.9,0.3-1.2,0.7
	c-0.3,0.5-0.5,1-0.5,1.6v4h-1.1v-4.2c0-1.4-0.5-2.1-1.6-2.1c-0.5,0-0.9,0.2-1.2,0.6c-0.3,0.5-0.5,1-0.5,1.6v4h-1.1v-7h1.1v1.1l0,0
	c0.4-0.8,1.3-1.3,2.2-1.3c0.4,0,0.9,0.1,1.2,0.4c0.3,0.2,0.6,0.6,0.7,1c0.4-0.9,1.3-1.5,2.3-1.4c1.5,0,2.3,0.9,2.3,2.8L69,122.9z"/>
<path class="st18" d="M20.4,175.2v3.7h-1.1v-9.8H22c0.9-0.1,1.7,0.2,2.4,0.8c0.6,0.6,0.9,1.3,0.9,2.2s-0.3,1.7-1,2.3
	s-1.6,0.9-2.6,0.9L20.4,175.2z M20.4,170.1v4h1.2c0.7,0,1.3-0.2,1.8-0.6c0.4-0.4,0.7-1,0.6-1.5c0-1.3-0.8-1.9-2.3-1.9H20.4z"/>
<path class="st18" d="M32.1,175.7h-4.9c0,0.7,0.2,1.3,0.6,1.8c0.4,0.4,1,0.7,1.6,0.6c0.8,0,1.6-0.3,2.2-0.8v1.1
	c-0.7,0.5-1.6,0.7-2.4,0.7c-0.9,0-1.7-0.3-2.3-1c-1.2-1.6-1.1-3.8,0.1-5.3c0.6-0.7,1.4-1,2.3-1c0.8-0.1,1.6,0.3,2.1,0.9
	c0.5,0.7,0.8,1.6,0.8,2.5L32.1,175.7z M30.9,174.7c0-0.5-0.1-1.1-0.5-1.5c-0.3-0.4-0.8-0.6-1.3-0.5c-0.5,0-1,0.2-1.3,0.6
	c-0.4,0.4-0.6,0.9-0.7,1.5L30.9,174.7z"/>
<path class="st18" d="M33.3,178.6v-1.2c0.6,0.4,1.3,0.7,2,0.7c1,0,1.5-0.3,1.5-1c0-0.2,0-0.3-0.1-0.5c-0.1-0.1-0.2-0.3-0.3-0.3
	c-0.2-0.1-0.3-0.2-0.5-0.3l-0.6-0.2c-0.3-0.1-0.6-0.2-0.8-0.4c-0.2-0.1-0.4-0.3-0.6-0.4c-0.2-0.2-0.3-0.3-0.3-0.5
	c-0.1-0.2-0.1-0.5-0.1-0.7c0-0.3,0.1-0.6,0.2-0.9c0.2-0.3,0.4-0.5,0.6-0.6c0.3-0.2,0.6-0.3,0.9-0.4c0.3-0.1,0.7-0.1,1-0.1
	c0.6,0,1.1,0.1,1.6,0.3v1.1c-0.5-0.3-1.1-0.5-1.8-0.5c-0.2,0-0.4,0-0.6,0.1c-0.2,0-0.3,0.1-0.4,0.2c-0.1,0.1-0.2,0.2-0.3,0.3
	s-0.1,0.3-0.1,0.4c0,0.2,0,0.3,0.1,0.4c0.1,0.1,0.2,0.2,0.3,0.3s0.3,0.2,0.5,0.3L36,175c0.3,0.1,0.6,0.2,0.8,0.4
	c0.2,0.1,0.4,0.3,0.6,0.4c0.3,0.3,0.5,0.8,0.5,1.2c0,0.3-0.1,0.6-0.2,0.9c-0.2,0.3-0.4,0.5-0.6,0.6c-0.3,0.2-0.6,0.3-0.9,0.4
	c-0.3,0.1-0.7,0.1-1,0.1C34.6,179.1,33.9,178.9,33.3,178.6z"/>
<path class="st18" d="M42.6,179.1c-0.9,0-1.8-0.3-2.5-1c-0.6-0.7-1-1.6-0.9-2.6c0-1,0.3-2,1-2.8c0.7-0.7,1.6-1,2.6-1
	c0.9,0,1.8,0.3,2.4,1c1.2,1.6,1.2,3.8-0.1,5.4C44.5,178.8,43.6,179.1,42.6,179.1z M42.7,172.7c-0.7,0-1.3,0.2-1.7,0.7
	c-0.4,0.6-0.7,1.3-0.6,2c-0.1,0.7,0.2,1.4,0.6,2c0.4,0.5,1.1,0.7,1.7,0.7c0.6,0,1.3-0.2,1.7-0.7c0.4-0.6,0.6-1.3,0.6-2
	s-0.2-1.4-0.6-2C44,172.9,43.4,172.7,42.7,172.7L42.7,172.7z"/>
<path class="st18" d="M57,178.9h-5.1v-9.8H53v8.8h4V178.9z"/>
<path class="st18" d="M60.5,168.3l-1.8,2.2h-0.9l1.5-2.2H60.5z M59.5,178.9h-1.1v-7h1.1V178.9z"/>
<path class="st18" d="M67.7,182.1h-1.1v-4.4l0,0c-0.5,0.9-1.4,1.4-2.4,1.4c-0.8,0-1.6-0.3-2.1-0.9c-0.6-0.7-0.8-1.6-0.8-2.6
	c-0.1-1,0.3-2,0.9-2.8c0.6-0.7,1.5-1,2.3-1c0.9-0.1,1.7,0.4,2.1,1.1l0,0v-1h1.1V182.1z M66.6,175.7v-1c0-0.5-0.2-1.1-0.6-1.4
	c-0.4-0.4-0.9-0.6-1.4-0.6c-0.6,0-1.2,0.3-1.6,0.8c-0.4,0.6-0.6,1.4-0.6,2.1c0,0.7,0.2,1.3,0.6,1.9c0.4,0.4,0.9,0.7,1.5,0.7
	s1.2-0.2,1.6-0.7C66.4,177,66.6,176.4,66.6,175.7z"/>
<path class="st18" d="M75.6,178.9h-1.1v-1.1l0,0c-0.4,0.8-1.3,1.3-2.2,1.3c-1.7,0-2.5-1-2.5-3v-4.2H71v4c0,1.5,0.6,2.2,1.7,2.2
	c0.5,0,1-0.2,1.3-0.6c0.4-0.4,0.6-1,0.5-1.6v-4h1.1V178.9z"/>
<path class="st18" d="M78.5,170.1c-0.2,0-0.4-0.1-0.5-0.2c-0.3-0.3-0.3-0.7,0-1c0.1-0.1,0.3-0.2,0.5-0.2s0.4,0.1,0.5,0.2
	c0.3,0.3,0.3,0.7,0,1C78.9,170.1,78.7,170.1,78.5,170.1z M79,178.9h-1.1v-7H79V178.9z"/>
<path class="st18" d="M87.3,178.9h-1.1v-1.2l0,0c-0.5,0.9-1.4,1.4-2.4,1.4c-0.8,0-1.6-0.3-2.1-0.9c-0.6-0.7-0.8-1.6-0.8-2.6
	c-0.1-1,0.3-2,0.9-2.8c0.6-0.7,1.4-1,2.3-1c0.9-0.1,1.7,0.4,2.1,1.1l0,0v-4.3h1.1V178.9z M86.1,175.7v-1c0-0.5-0.2-1-0.6-1.4
	s-0.9-0.6-1.4-0.6c-0.6,0-1.2,0.3-1.6,0.8c-0.4,0.6-0.6,1.3-0.6,2.1c0,0.7,0.2,1.4,0.6,1.9s0.9,0.7,1.5,0.7s1.1-0.2,1.5-0.7
	C86,177,86.2,176.4,86.1,175.7L86.1,175.7z"/>
<path class="st18" d="M92.5,179.1c-0.9,0-1.8-0.3-2.5-1c-0.6-0.7-1-1.6-0.9-2.6c0-1,0.3-2,1-2.8c0.7-0.7,1.6-1,2.6-1
	c0.9,0,1.8,0.3,2.4,1c1.2,1.6,1.2,3.8-0.1,5.4C94.4,178.8,93.4,179.1,92.5,179.1z M92.5,172.7c-0.7,0-1.3,0.2-1.7,0.7
	c-0.4,0.6-0.7,1.3-0.6,2c-0.1,0.7,0.2,1.4,0.6,2c0.4,0.5,1.1,0.7,1.7,0.7s1.3-0.2,1.7-0.7c0.4-0.6,0.6-1.3,0.6-2s-0.2-1.4-0.6-2
	C93.8,172.9,93.2,172.7,92.5,172.7L92.5,172.7z"/>
<path class="st17" d="M658,26.9h-5.1v-9.8h1.2v8.8h3.9L658,26.9L658,26.9z"/>
<path class="st17" d="M665,17.1l-3.2,6.2v3.6h-1.2v-3.6l-3.2-6.2h1.3l2.2,4.4c0,0,0.1,0.2,0.2,0.6l0,0c0.1-0.2,0.2-0.4,0.3-0.6
	l2.3-4.4C663.7,17.1,665,17.1,665,17.1z"/>
<path class="st17" d="M678.1,26.9h-1.4l-5-7.8c-0.1-0.2-0.2-0.4-0.3-0.6l0,0c0.1,0.4,0.1,0.9,0.1,1.4V27h-1.2v-9.8h1.5l4.9,7.7
	c0.2,0.3,0.3,0.5,0.4,0.7l0,0c-0.1-0.5-0.1-1-0.1-1.5v-6.9h1.2L678.1,26.9z"/>
<path class="st17" d="M685.7,18.1h-3.8v3.4h3.5v1h-3.5v4.4h-1.2v-9.8h5V18.1z"/>
<path class="st17" d="M693.8,17.2c-1.2,1.7-1.8,3.7-1.8,5.7s0.6,4,1.8,5.7h-1c-1.2-1.6-1.8-3.6-1.8-5.7s0.6-4.1,1.8-5.7H693.8z"/>
<path class="st17" d="M694.4,26.2l3.3-8.8h1.4l3.2,8.7v0.7h-7.9V26.2z M701,25.9l-2-5.2c-0.2-0.7-0.5-1.5-0.7-2.1l0,0
	c-0.1,0.5-0.4,1.3-0.6,1.9l-2,5.4H701z"/>
<path class="st17" d="M705.7,27.5l3.9-10.1h1l-3.9,10.1H705.7z"/>
<path class="st17" d="M718.2,20.4c0,1.9-1,2.9-2.2,2.9s-2.1-0.9-2.1-2.7s1-2.9,2.2-2.9S718.2,18.6,718.2,20.4z M714.9,20.4
	c0,1.2,0.4,2,1.2,2s1.2-0.9,1.2-2.1s-0.3-2-1.2-2S714.9,19.3,714.9,20.4z M715.9,27.1l5.4-9.4h0.8l-5.3,9.4H715.9z M724.1,24.1
	c0,1.9-1,2.9-2.2,2.9s-2.1-0.9-2.1-2.7s1-2.9,2.2-2.9S724.1,22.4,724.1,24.1z M720.8,24.2c0,1.2,0.4,2,1.2,2s1.2-0.9,1.2-2.1
	s-0.3-2-1.2-2S720.8,23.1,720.8,24.2z"/>
<path class="st17" d="M724.8,28.6c1.2-1.7,1.8-3.7,1.8-5.7c0.1-2-0.6-4-1.8-5.7h1c1.3,1.6,1.9,3.6,1.8,5.7c0.1,2.1-0.6,4.1-1.8,5.7
	C725.8,28.6,724.8,28.6,724.8,28.6z"/>
<path class="st17" d="M847.1,26.9H846v-6.6c0-0.5,0-1.2,0.1-1.9l0,0c-0.1,0.3-0.2,0.6-0.3,1l-3.3,7.5h-0.6l-3.3-7.5
	c-0.1-0.3-0.2-0.7-0.3-1l0,0c0,0.4,0,1,0,1.9v6.6h-1.1v-9.8h1.5l3,6.8c0.2,0.4,0.3,0.8,0.5,1.2l0,0c0.2-0.5,0.3-0.9,0.5-1.2l3.1-6.8
	h1.4L847.1,26.9z"/>
<path class="st17" d="M855.2,23.7h-4.9c0,0.7,0.2,1.3,0.6,1.8c0.4,0.4,1,0.7,1.7,0.6c0.8,0,1.6-0.3,2.2-0.8v1.1
	c-0.7,0.5-1.6,0.7-2.4,0.7c-0.9,0-1.7-0.3-2.3-1c-0.6-0.8-0.9-1.7-0.8-2.7c0-1,0.3-1.9,0.9-2.7c0.6-0.7,1.4-1,2.3-1
	c0.8-0.1,1.6,0.3,2.1,0.9c0.5,0.7,0.8,1.6,0.8,2.5L855.2,23.7z M854,22.7c0-0.5-0.1-1.1-0.5-1.5c-0.3-0.4-0.8-0.6-1.3-0.5
	c-0.5,0-1,0.2-1.3,0.6c-0.4,0.4-0.6,0.9-0.7,1.5L854,22.7z"/>
<path class="st17" d="M860.1,26.8c-0.3,0.2-0.7,0.2-1,0.2c-1.2,0-1.8-0.7-1.8-2v-4.1h-1.2v-1h1.2v-1.7l1.1-0.4v2.1h1.8v1h-1.8v3.9
	c0,0.4,0.1,0.7,0.2,1c0.2,0.2,0.5,0.3,0.8,0.3s0.5-0.1,0.7-0.2V26.8z"/>
<path class="st17" d="M866.6,26.9h-1.1v-1.1l0,0c-0.4,0.8-1.3,1.3-2.2,1.3c-0.6,0-1.2-0.2-1.6-0.6c-0.4-0.4-0.6-0.9-0.6-1.5
	c0-1.3,0.8-2.1,2.3-2.3l2.1-0.3c0-1.2-0.5-1.8-1.4-1.8c-0.8,0-1.7,0.3-2.3,0.9v-1.2c0.7-0.4,1.5-0.7,2.4-0.6c1.7,0,2.5,0.9,2.5,2.6
	L866.6,26.9z M865.5,23.4l-1.7,0.2c-0.4,0-0.8,0.2-1.2,0.4c-0.5,0.5-0.5,1.3,0,1.8l0,0c0.3,0.2,0.6,0.3,1,0.3c0.5,0,1-0.2,1.4-0.6
	s0.6-0.9,0.5-1.5V23.4z"/>
<path class="st17" d="M873.9,23.2v3.7h-1.2v-9.8h2.7c0.9-0.1,1.7,0.2,2.4,0.8c0.6,0.6,0.9,1.3,0.9,2.2c0,0.9-0.3,1.7-1,2.3
	c-0.7,0.6-1.6,0.9-2.6,0.9h-1.2V23.2z M873.9,18.1v4h1.2c0.7,0,1.3-0.2,1.8-0.5c0.4-0.4,0.7-1,0.6-1.5c0-1.3-0.8-1.9-2.3-1.9
	L873.9,18.1z"/>
<path class="st17" d="M884.5,27.1c-1.3,0.1-2.5-0.5-3.3-1.4c-0.9-1-1.3-2.3-1.2-3.6c-0.1-1.4,0.4-2.7,1.3-3.8c0.9-1,2.2-1.5,3.5-1.4
	c1.3-0.1,2.5,0.4,3.3,1.4c0.9,1,1.3,2.3,1.2,3.6c0.1,1.4-0.4,2.7-1.3,3.8C887.1,26.6,885.8,27.1,884.5,27.1z M884.6,18
	c-1,0-1.9,0.4-2.5,1.1c-0.7,0.8-1,1.9-1,2.9c-0.1,1.1,0.3,2.1,0.9,2.9c0.6,0.7,1.5,1.1,2.5,1.1c1,0.1,1.9-0.3,2.6-1
	c0.7-0.8,1-1.9,0.9-3c0.1-1.1-0.3-2.1-0.9-3C886.5,18.3,885.5,17.9,884.6,18L884.6,18z"/>
<path class="st17" d="M897.4,17.2c-1.2,1.7-1.8,3.7-1.8,5.7s0.6,4,1.8,5.7h-1c-1.2-1.6-1.9-3.6-1.8-5.7c0-2.1,0.6-4.1,1.8-5.7H897.4
	z"/>
<path class="st17" d="M898,26.2l3.3-8.8h1.4l3.2,8.7v0.7H898V26.2z M904.6,25.9l-1.9-5.2c-0.2-0.7-0.5-1.5-0.7-2.1l0,0
	c-0.1,0.5-0.4,1.3-0.6,1.9l-2,5.4H904.6z"/>
<path class="st17" d="M909.3,27.5l3.9-10.1h1l-3.9,10.1H909.3z"/>
<path class="st17" d="M921.8,20.4c0,1.9-1,2.9-2.2,2.9s-2.1-0.9-2.1-2.7s1-2.9,2.2-2.9S921.8,18.6,921.8,20.4z M918.5,20.4
	c0,1.2,0.4,2,1.2,2s1.2-0.9,1.2-2.1s-0.3-2-1.2-2S918.5,19.3,918.5,20.4z M919.5,27.1l5.3-9.4h0.8l-5.3,9.4H919.5z M927.7,24.1
	c0,1.9-1,2.9-2.2,2.9s-2.1-0.9-2.1-2.7s1-2.9,2.2-2.9S927.7,22.4,927.7,24.1z M924.4,24.2c0,1.2,0.4,2,1.2,2s1.2-0.9,1.2-2.1
	s-0.3-2-1.2-2S924.4,23.1,924.4,24.2L924.4,24.2z"/>
<path class="st17" d="M928.5,28.6c1.2-1.7,1.8-3.7,1.8-5.7s-0.6-4-1.8-5.7h1c1.2,1.6,1.9,3.6,1.8,5.7c0.1,2.1-0.6,4.1-1.8,5.7
	C929.5,28.6,928.5,28.6,928.5,28.6z"/>
<path class="st17" d="M1019.3,18.1h-3.8v3.4h3.6v1h-3.5v4.4h-1.2v-9.8h5L1019.3,18.1z"/>
<path class="st17" d="M1023.9,27.1c-0.9,0-1.8-0.3-2.5-1c-0.6-0.7-1-1.6-0.9-2.6c0-1,0.3-2,1-2.8c0.7-0.7,1.6-1,2.6-1
	c0.9,0,1.8,0.3,2.4,1c0.6,0.7,0.9,1.7,0.9,2.7c0.1,1-0.3,2-1,2.7C1025.8,26.8,1024.9,27.1,1023.9,27.1z M1024,20.7
	c-0.7,0-1.3,0.2-1.7,0.7c-0.4,0.6-0.7,1.3-0.6,2c-0.1,0.7,0.2,1.4,0.6,2c0.4,0.5,1.1,0.7,1.7,0.7c0.6,0,1.3-0.2,1.7-0.7
	c0.4-0.6,0.6-1.3,0.6-2s-0.2-1.4-0.6-2C1025.3,20.9,1024.6,20.7,1024,20.7L1024,20.7z"/>
<path class="st17" d="M1032.8,21c-0.3-0.2-0.5-0.2-0.8-0.2c-0.5,0-0.9,0.3-1.2,0.7c-0.3,0.5-0.5,1.2-0.5,1.8v3.6h-1.1v-7h1.1v1.4
	l0,0c0.1-0.4,0.4-0.8,0.7-1.1c0.3-0.3,0.7-0.4,1.1-0.4c0.2,0,0.5,0,0.7,0.1V21z"/>
<path class="st17" d="M1039.5,23.7h-4.9c0,0.7,0.2,1.3,0.6,1.8c0.4,0.4,1,0.7,1.7,0.6c0.8,0,1.6-0.3,2.2-0.8v1.1
	c-0.7,0.5-1.6,0.7-2.4,0.7c-0.9,0-1.7-0.3-2.3-1c-0.6-0.8-0.9-1.7-0.8-2.7c0-1,0.3-1.9,0.9-2.7c0.6-0.7,1.4-1,2.3-1
	c0.8-0.1,1.6,0.3,2.1,0.9c0.5,0.7,0.8,1.6,0.8,2.5L1039.5,23.7z M1038.3,22.7c0-0.5-0.1-1.1-0.5-1.5c-0.3-0.4-0.8-0.6-1.3-0.5
	c-0.5,0-1,0.2-1.3,0.6c-0.4,0.4-0.6,0.9-0.7,1.5L1038.3,22.7z"/>
<path class="st17" d="M1046,26.6c-0.6,0.3-1.2,0.5-1.9,0.5c-0.9,0-1.8-0.3-2.4-1c-0.6-0.7-1-1.6-0.9-2.5c0-1,0.3-2,1-2.8
	c0.7-0.7,1.7-1.1,2.6-1c0.6,0,1.1,0.1,1.6,0.3v1.1c-0.5-0.4-1.1-0.5-1.7-0.5c-0.7,0-1.3,0.3-1.8,0.8c-0.5,0.6-0.7,1.3-0.7,2
	s0.2,1.4,0.6,1.9c0.4,0.5,1.1,0.7,1.7,0.7c0.6,0,1.2-0.2,1.7-0.6L1046,26.6z"/>
<path class="st17" d="M1052.7,26.9h-1.1v-1.1l0,0c-0.7,1.2-2.3,1.6-3.5,0.9c-0.1-0.1-0.2-0.1-0.3-0.2c-0.4-0.4-0.6-0.9-0.6-1.5
	c0-1.3,0.8-2.1,2.3-2.3l2.1-0.3c0-1.2-0.5-1.8-1.4-1.8c-0.8,0-1.6,0.3-2.3,0.9v-1.2c0.7-0.4,1.5-0.7,2.4-0.6c1.6,0,2.5,0.9,2.5,2.6
	L1052.7,26.9z M1051.5,23.4l-1.7,0.2c-0.4,0-0.8,0.2-1.2,0.4c-0.3,0.2-0.5,0.6-0.4,1c0,0.3,0.1,0.6,0.4,0.8c0.3,0.2,0.6,0.3,1,0.3
	c0.5,0,1-0.2,1.4-0.6s0.6-0.9,0.5-1.5V23.4z"/>
<path class="st17" d="M1054.3,26.6v-1.2c0.6,0.4,1.3,0.7,2,0.7c1,0,1.5-0.3,1.5-1c0-0.2,0-0.3-0.1-0.5c-0.1-0.1-0.2-0.2-0.3-0.3
	c-0.2-0.1-0.3-0.2-0.5-0.3l-0.6-0.2c-0.3-0.1-0.6-0.2-0.8-0.4c-0.2-0.1-0.4-0.3-0.6-0.4c-0.2-0.1-0.3-0.3-0.4-0.5
	c-0.1-0.2-0.1-0.5-0.1-0.7c0-0.3,0.1-0.6,0.2-0.9c0.2-0.3,0.4-0.5,0.6-0.6c0.3-0.2,0.6-0.3,0.9-0.4s0.7-0.1,1-0.1
	c0.6,0,1.1,0.1,1.6,0.3v1.1c-0.5-0.3-1.1-0.5-1.8-0.5c-0.2,0-0.4,0-0.6,0.1c-0.2,0-0.3,0.1-0.4,0.2c-0.1,0.1-0.2,0.2-0.3,0.3
	c-0.1,0.1-0.1,0.3-0.1,0.4c0,0.2,0,0.3,0.1,0.5c0.1,0.1,0.2,0.2,0.3,0.3c0.1,0.1,0.3,0.2,0.5,0.3l0.6,0.2c0.3,0.1,0.6,0.2,0.8,0.4
	c0.2,0.1,0.4,0.3,0.6,0.4c0.2,0.2,0.3,0.3,0.4,0.5c0.2,0.5,0.2,1.1-0.1,1.6c-0.1,0.3-0.4,0.5-0.6,0.6c-0.3,0.2-0.6,0.3-0.9,0.4
	c-0.3,0.1-0.7,0.1-1,0.1C1055.6,27.1,1054.9,27,1054.3,26.6z"/>
<path class="st17" d="M1064,26.8c-0.3,0.2-0.7,0.2-1,0.2c-1.2,0-1.8-0.7-1.8-2v-4.1h-1.2v-1h1.2v-1.7l1.1-0.4v2.1h1.7v1h-1.8v3.9
	c0,0.4,0.1,0.7,0.2,1c0.2,0.2,0.5,0.3,0.8,0.3c0.3,0,0.5-0.1,0.7-0.2L1064,26.8z"/>
<path class="st17" d="M1070.6,23.2v3.7h-1.1v-9.8h2.7c0.9-0.1,1.7,0.2,2.4,0.8c0.6,0.6,0.9,1.3,0.9,2.2c0,0.9-0.3,1.7-1,2.3
	c-0.7,0.6-1.6,0.9-2.6,0.9h-1.3V23.2z M1070.6,18.1v4h1.2c0.7,0,1.3-0.2,1.8-0.5c0.4-0.4,0.7-1,0.6-1.5c0-1.3-0.8-1.9-2.3-1.9
	L1070.6,18.1z"/>
<path class="st17" d="M1080.8,21c-0.3-0.2-0.5-0.2-0.8-0.2c-0.5,0-0.9,0.3-1.2,0.7c-0.3,0.5-0.5,1.2-0.5,1.8v3.6h-1.1v-7h1.1v1.4
	l0,0c0.1-0.4,0.4-0.8,0.7-1.1c0.3-0.3,0.7-0.4,1.1-0.4c0.2,0,0.5,0,0.7,0.1V21z"/>
<path class="st17" d="M1087.4,23.7h-4.9c0,0.7,0.2,1.3,0.6,1.8c0.4,0.4,1,0.7,1.7,0.6c0.8,0,1.6-0.3,2.2-0.8v1.1
	c-0.7,0.5-1.6,0.7-2.4,0.7c-0.9,0-1.7-0.3-2.3-1c-0.6-0.8-0.9-1.7-0.8-2.7c0-1,0.3-1.9,0.9-2.7c0.6-0.7,1.4-1,2.3-1
	c0.8,0,1.6,0.3,2.1,0.9c0.5,0.7,0.8,1.6,0.8,2.5L1087.4,23.7z M1086.3,22.7c0-0.5-0.1-1.1-0.5-1.5c-0.3-0.4-0.8-0.6-1.3-0.5
	c-0.5,0-1,0.2-1.3,0.6c-0.4,0.4-0.6,0.9-0.7,1.5L1086.3,22.7z"/>
<path class="st17" d="M1096.6,17.1l-3.6,9.8h-1.3l-3.5-9.8h1.3l2.7,7.8c0.1,0.3,0.2,0.6,0.2,0.9l0,0c0-0.3,0.1-0.6,0.2-0.9l2.8-7.8
	C1095.4,17.1,1096.6,17.1,1096.6,17.1z"/>
<path class="st17" d="M1104.2,17.2c-1.2,1.7-1.8,3.7-1.8,5.7s0.6,4,1.8,5.7h-1c-1.2-1.6-1.9-3.6-1.8-5.7c0-2.1,0.6-4.1,1.8-5.7
	H1104.2z"/>
<path class="st17" d="M1104.9,26.2l3.3-8.8h1.4l3.2,8.7v0.7h-7.9V26.2z M1111.4,25.9l-1.9-5.2c-0.2-0.7-0.5-1.5-0.7-2.1l0,0
	c-0.1,0.5-0.4,1.3-0.6,1.9l-2,5.4H1111.4z"/>
<path class="st17" d="M1116.1,27.5l3.9-10.1h1l-3.9,10.1H1116.1z"/>
<path class="st17" d="M1128.7,20.4c0,1.9-1,2.9-2.2,2.9s-2.1-0.9-2.1-2.7s1-2.9,2.2-2.9C1127.8,17.7,1128.7,18.6,1128.7,20.4z
	 M1125.3,20.4c0,1.2,0.4,2,1.2,2s1.2-0.9,1.2-2.1s-0.3-2-1.2-2S1125.3,19.3,1125.3,20.4L1125.3,20.4z M1126.4,27.1l5.3-9.4h0.8
	l-5.3,9.4H1126.4z M1134.6,24.1c0,1.9-1,2.9-2.2,2.9c-1.2,0-2.1-0.9-2.1-2.7s1-2.9,2.2-2.9S1134.6,22.4,1134.6,24.1L1134.6,24.1z
	 M1131.2,24.2c0,1.2,0.4,2,1.2,2s1.2-0.9,1.2-2.1s-0.3-2-1.2-2S1131.2,23.1,1131.2,24.2L1131.2,24.2z"/>
<path class="st17" d="M1135.3,28.6c1.2-1.7,1.8-3.7,1.8-5.7s-0.6-4-1.8-5.7h1c1.2,1.6,1.9,3.6,1.8,5.7c0.1,2.1-0.6,4.1-1.8,5.7
	C1136.3,28.6,1135.3,28.6,1135.3,28.6z"/>
<path class="st18" d="M26,222.5c-0.8,0.4-1.8,0.6-2.7,0.6c-1.3,0.1-2.5-0.4-3.4-1.4s-1.3-2.2-1.3-3.5c-0.1-1.4,0.5-2.8,1.4-3.8
	s2.2-1.5,3.6-1.4c0.8,0,1.6,0.1,2.3,0.4v1.2c-0.7-0.4-1.5-0.6-2.3-0.6c-1,0-2,0.4-2.7,1.1c-0.7,0.8-1.1,1.9-1,3
	c-0.1,1,0.3,2.1,1,2.9c0.6,0.7,1.5,1.1,2.5,1c0.9,0,1.8-0.2,2.6-0.6V222.5z"/>
<path class="st18" d="M28.9,222.9h-1.1v-10.4h1.1V222.9z"/>
<path class="st18" d="M31.8,214.1c-0.2,0-0.4-0.1-0.5-0.2c-0.3-0.3-0.3-0.7,0-1c0.1-0.1,0.3-0.2,0.5-0.2s0.4,0.1,0.5,0.2
	c0.3,0.3,0.3,0.7,0,1C32.2,214.1,32,214.1,31.8,214.1z M32.3,222.9h-1.1v-7h1.1V222.9z"/>
<path class="st18" d="M40.2,219.7h-4.9c0,0.7,0.2,1.3,0.6,1.8c0.4,0.4,1,0.7,1.7,0.6c0.8,0,1.6-0.3,2.2-0.8v1.1
	c-0.7,0.5-1.6,0.7-2.4,0.7c-0.9,0-1.7-0.3-2.3-1c-0.6-0.8-0.9-1.7-0.8-2.7c0-1,0.3-1.9,0.9-2.7c0.6-0.7,1.4-1,2.3-1
	c0.8-0.1,1.6,0.3,2.1,0.9c0.5,0.7,0.8,1.6,0.8,2.5L40.2,219.7z M39.1,218.7c0-0.5-0.1-1.1-0.5-1.5c-0.3-0.4-0.8-0.6-1.3-0.5
	c-0.5,0-1,0.2-1.3,0.6c-0.4,0.4-0.6,0.9-0.7,1.5L39.1,218.7z"/>
<path class="st18" d="M47.7,222.9h-1.1v-4c0-1.5-0.5-2.2-1.6-2.2c-0.5,0-1,0.2-1.4,0.6c-0.4,0.4-0.6,1-0.5,1.6v4H42v-7h1v1.2l0,0
	c0.5-0.8,1.3-1.3,2.3-1.3c0.7,0,1.3,0.2,1.8,0.7c0.4,0.6,0.7,1.4,0.6,2.1L47.7,222.9z"/>
<path class="st18" d="M53.1,222.8c-0.3,0.2-0.7,0.2-1,0.2c-1.2,0-1.8-0.7-1.8-2.1v-4.1H49v-1h1.2v-1.7l1.1-0.4v2.1h1.8v1h-1.8v3.9
	c0,0.4,0.1,0.7,0.2,1c0.2,0.2,0.5,0.3,0.8,0.3s0.5-0.1,0.7-0.2L53.1,222.8z"/>
<path class="st18" d="M60.1,219.7h-4.9c0,0.7,0.2,1.3,0.6,1.8c0.4,0.4,1,0.7,1.7,0.6c0.8,0,1.6-0.3,2.2-0.8v1.1
	c-0.7,0.5-1.6,0.7-2.4,0.7c-0.9,0-1.7-0.3-2.3-1c-0.6-0.8-0.9-1.7-0.8-2.7c0-1,0.3-1.9,0.9-2.7c0.6-0.7,1.4-1,2.3-1
	c0.8-0.1,1.6,0.3,2.1,0.9c0.5,0.7,0.8,1.6,0.8,2.5L60.1,219.7z M58.9,218.7c0-0.5-0.1-1.1-0.5-1.5c-0.3-0.4-0.8-0.6-1.3-0.5
	c-0.5,0-1,0.2-1.3,0.6c-0.4,0.4-0.6,0.9-0.7,1.5L58.9,218.7z"/>
<path class="st18" d="M61.4,222.6v-1.2c0.6,0.4,1.3,0.7,2,0.7c1,0,1.5-0.3,1.5-1c0-0.2,0-0.3-0.1-0.5c-0.1-0.1-0.2-0.2-0.3-0.3
	c-0.2-0.1-0.3-0.2-0.5-0.3c-0.2-0.1-0.4-0.2-0.6-0.2s-0.6-0.2-0.8-0.4c-0.2-0.1-0.4-0.3-0.6-0.4c-0.2-0.2-0.3-0.3-0.4-0.5
	c-0.1-0.2-0.1-0.5-0.1-0.7c0-0.3,0.1-0.6,0.2-0.9c0.2-0.3,0.4-0.5,0.6-0.6c0.3-0.2,0.6-0.3,0.9-0.4c0.3-0.1,0.7-0.1,1-0.1
	c0.6,0,1.1,0.1,1.6,0.3v1.1c-0.5-0.3-1.1-0.5-1.8-0.5c-0.2,0-0.4,0-0.6,0.1c-0.2,0-0.3,0.1-0.4,0.2c-0.1,0.1-0.2,0.2-0.3,0.3
	s-0.1,0.3-0.1,0.4c0,0.2,0,0.3,0.1,0.4c0.1,0.1,0.2,0.2,0.3,0.3s0.3,0.2,0.5,0.3L64,219c0.3,0.1,0.6,0.2,0.8,0.4
	c0.2,0.1,0.4,0.3,0.6,0.4c0.2,0.2,0.3,0.3,0.4,0.6c0.2,0.5,0.2,1.1-0.1,1.6c-0.1,0.3-0.4,0.5-0.6,0.6c-0.3,0.2-0.6,0.3-0.9,0.4
	c-0.3,0.1-0.7,0.1-1,0.1C62.6,223.1,61.9,223,61.4,222.6z"/>
<path class="st18" d="M27.2,266.9h-1.4l-5.1-7.8c-0.1-0.2-0.2-0.4-0.3-0.6l0,0c0,0.4,0.1,0.9,0,1.4v7.1h-1.2v-9.8h1.5l4.9,7.7
	c0.1,0.2,0.3,0.4,0.4,0.7l0,0c-0.1-0.5-0.1-1-0.1-1.5v-6.9H27L27.2,266.9z"/>
<path class="st18" d="M35,266.9h-5.2v-9.8h5v1h-3.9v3.3h3.5v1h-3.5v3.4h4L35,266.9z"/>
<path class="st18" d="M42.7,258.1h-2.8v8.8h-1.1v-8.8H36v-1h6.8v1H42.7z"/>
<path class="st18" d="M52.3,257.1l-4.7,11.4h-1l4.7-11.4H52.3z"/>
<path class="st18" d="M64,266.5c-0.8,0.4-1.8,0.6-2.7,0.6c-1.3,0.1-2.5-0.4-3.3-1.4c-0.9-1-1.3-2.2-1.3-3.5
	c-0.1-1.4,0.5-2.8,1.4-3.8s2.2-1.5,3.6-1.5c0.8,0,1.6,0.1,2.3,0.4v1.2c-0.7-0.4-1.5-0.6-2.3-0.6c-1,0-2,0.4-2.7,1.1
	c-0.7,0.8-1.1,1.9-1,3c-0.1,1,0.3,2.1,1,2.9c0.6,0.7,1.6,1.1,2.5,1.1s1.8-0.2,2.6-0.6L64,266.5L64,266.5z"/>
<path class="st18" d="M67,266.9h-1.2v-10.4H67V266.9z"/>
<path class="st18" d="M69.8,258.1c-0.2,0-0.4-0.1-0.5-0.2c-0.3-0.3-0.3-0.7,0-1c0.1-0.1,0.3-0.2,0.5-0.2s0.4,0.1,0.5,0.2
	c0.3,0.3,0.3,0.7,0,1C70.2,258.1,70,258.1,69.8,258.1z M70.4,266.9h-1.1v-7h1.1V266.9z"/>
<path class="st18" d="M78.2,263.7h-4.9c0,0.7,0.2,1.3,0.6,1.8c0.4,0.4,1,0.7,1.7,0.6c0.8,0,1.6-0.3,2.2-0.8v1.1
	c-0.7,0.5-1.6,0.7-2.4,0.7c-0.9,0-1.7-0.3-2.3-1c-1.2-1.6-1.1-3.8,0.1-5.3c0.6-0.7,1.4-1,2.3-1c0.8-0.1,1.6,0.3,2.1,0.9
	c0.5,0.7,0.8,1.6,0.8,2.5L78.2,263.7z M77.1,262.7c0-0.5-0.1-1.1-0.5-1.5c-0.3-0.4-0.8-0.6-1.3-0.5c-0.5,0-1,0.2-1.3,0.6
	c-0.4,0.4-0.6,0.9-0.7,1.5h3.8V262.7z"/>
<path class="st18" d="M85.8,266.9h-1.1v-4c0-1.5-0.6-2.2-1.6-2.2c-0.5,0-1,0.2-1.4,0.6s-0.6,1-0.6,1.6v4H80v-7h1.1v1.2l0,0
	c0.5-0.8,1.3-1.4,2.3-1.3c0.7,0,1.3,0.2,1.8,0.7c0.4,0.6,0.7,1.4,0.6,2.1V266.9z"/>
<path class="st18" d="M91.1,266.8c-0.3,0.2-0.7,0.2-1.1,0.2c-1.2,0-1.8-0.7-1.8-2v-4.1H87v-1h1.2v-1.7l1.1-0.4v2.1h1.8v1h-1.7v3.9
	c0,0.4,0.1,0.7,0.2,1c0.2,0.2,0.5,0.3,0.8,0.3s0.5-0.1,0.7-0.2V266.8z"/>
<path class="st18" d="M98.1,263.7h-4.9c0,0.7,0.2,1.3,0.6,1.8c0.4,0.4,1,0.7,1.7,0.6c0.8,0,1.6-0.3,2.2-0.8v1.1
	c-0.7,0.5-1.6,0.7-2.4,0.7c-0.9,0-1.7-0.3-2.3-1c-0.6-0.8-0.9-1.7-0.8-2.7c0-1,0.3-1.9,0.9-2.7c0.6-0.7,1.4-1,2.3-1
	c0.8-0.1,1.6,0.3,2.1,0.9c0.5,0.7,0.8,1.6,0.8,2.5L98.1,263.7z M97,262.7c0-0.5-0.1-1.1-0.5-1.5c-0.3-0.4-0.8-0.6-1.3-0.5
	c-0.5,0-1,0.2-1.3,0.6c-0.4,0.4-0.6,0.9-0.7,1.5H97V262.7z"/>
<g class="st19">
	<path class="st18" d="M91.3,112.9h-1.1v-6.6c0-0.5,0-1.2,0.1-1.9l0,0c-0.1,0.3-0.2,0.7-0.3,1l-3.3,7.5H86l-3.3-7.5
		c-0.1-0.3-0.2-0.7-0.3-1l0,0c0,0.4,0,1,0,1.9v6.6h-1.1v-9.8h1.5l3,6.8c0.2,0.4,0.3,0.8,0.4,1.2l0,0c0.2-0.5,0.4-0.9,0.5-1.2
		l3.1-6.8h1.4L91.3,112.9z"/>
	<path class="st18" d="M100.5,112.5c-0.8,0.4-1.8,0.6-2.7,0.6c-1.3,0.1-2.5-0.4-3.3-1.3c-0.9-1-1.3-2.2-1.3-3.5
		c-0.1-1.4,0.5-2.8,1.4-3.8s2.2-1.5,3.6-1.4c0.8,0,1.6,0.1,2.3,0.4v1.2c-0.7-0.4-1.5-0.6-2.3-0.6c-1,0-2,0.4-2.7,1.1
		c-0.7,0.8-1.1,1.9-1,3c-0.1,1,0.3,2.1,1,2.8c0.7,0.7,1.6,1.1,2.5,1c0.9,0,1.8-0.2,2.6-0.7L100.5,112.5z"/>
	<path class="st18" d="M104,108c-0.6,0-1.2-0.2-1.6-0.7s-0.6-1.1-0.6-1.8c0-0.7,0.2-1.4,0.6-1.9s1.1-0.7,1.7-0.7s1.2,0.2,1.6,0.7
		s0.6,1.2,0.6,1.8c0,0.7-0.2,1.4-0.7,1.9C105.3,107.8,104.6,108,104,108z M104.1,103.7c-0.4,0-0.8,0.2-1,0.5
		c-0.3,0.4-0.4,0.9-0.4,1.3c0,0.5,0.1,0.9,0.4,1.3c0.2,0.3,0.6,0.5,1,0.5s0.8-0.2,1-0.5c0.3-0.4,0.4-0.9,0.4-1.3
		c0-0.5-0.1-0.9-0.4-1.3C104.9,103.8,104.5,103.7,104.1,103.7L104.1,103.7z M110.6,103.1l-6.3,9.9h-1l6.3-9.9H110.6z M109.8,113.1
		c-0.6,0-1.2-0.2-1.6-0.7s-0.6-1.1-0.6-1.8c0-0.7,0.2-1.4,0.7-1.9c0.4-0.5,1.1-0.8,1.7-0.7c0.6,0,1.2,0.2,1.6,0.7s0.6,1.2,0.6,1.8
		c0,0.7-0.2,1.4-0.7,1.9C111.1,112.8,110.5,113.1,109.8,113.1L109.8,113.1z M109.9,108.8c-0.4,0-0.8,0.2-1,0.5
		c-0.3,0.4-0.4,0.9-0.4,1.3c0,0.5,0.1,0.9,0.4,1.3c0.2,0.3,0.6,0.5,1,0.5s0.8-0.2,1-0.5c0.3-0.4,0.4-0.9,0.4-1.3
		c0-0.5-0.1-0.9-0.3-1.3C110.7,108.9,110.3,108.7,109.9,108.8L109.9,108.8z"/>
</g>
<path class="st18" d="M91.3,135.9h-1.1v-6.6c0-0.5,0-1.2,0.1-1.9l0,0c-0.1,0.3-0.2,0.7-0.3,1l-3.3,7.5H86l-3.3-7.5
	c-0.1-0.3-0.2-0.7-0.3-1l0,0c0,0.4,0,1,0,1.9v6.6h-1.1v-9.8h1.5l3,6.8c0.2,0.4,0.3,0.8,0.4,1.2l0,0c0.2-0.5,0.4-0.9,0.5-1.2l3.1-6.8
	h1.4L91.3,135.9z"/>
<path class="st18" d="M100.5,135.5c-0.8,0.4-1.8,0.6-2.7,0.6c-1.3,0.1-2.5-0.4-3.3-1.4c-0.9-1-1.3-2.2-1.3-3.5
	c-0.1-1.4,0.5-2.8,1.4-3.8s2.2-1.5,3.6-1.4c0.8,0,1.6,0.1,2.3,0.4v1.2c-0.7-0.4-1.5-0.6-2.3-0.6c-1,0-2,0.4-2.7,1.1
	c-0.7,0.8-1.1,1.9-1,3c-0.1,1,0.3,2.1,1,2.9c0.7,0.7,1.6,1.1,2.5,1c0.9,0,1.8-0.2,2.6-0.6L100.5,135.5z"/>
<g class="st20">
	<path class="st21" d="M78,107h-1c-1.1,0-2,0.9-2,2v20c0,1.1,0.9,2,2,2h1"/>
	<line class="st21" x1="72" y1="119" x2="75" y2="119"/>
</g>
<path class="st6" d="M460,92h-88c-6.6,0-12,5.4-12,12v32c0,6.6,5.4,12,12,12h88c6.6,0,12-5.4,12-12v-32C472,97.4,466.6,92,460,92z
	 M380,122v14c0,3.3-2.7,6-6,6s-6-2.7-6-6v-14H380z M368,118v-14c0-3.3,2.7-6,6-6s6,2.7,6,6v14H368z"/>
<path class="st8" d="M372,8h88c6.6,0,12,5.4,12,12v4c0,6.6-5.4,12-12,12h-88c-6.6,0-12-5.4-12-12v-4C360,13.4,365.4,8,372,8z"/>
<path class="st7" d="M460,48h-88c-6.6,0-12,5.4-12,12v12c0,6.6,5.4,12,12,12h88c6.6,0,12-5.4,12-12V60C472,53.4,466.6,48,460,48z
	 M380,72c0,3.3-2.7,6-6,6s-6-2.7-6-6V60c0-3.3,2.7-6,6-6s6,2.7,6,6V72z"/>
<path class="st9" d="M460,156h-88c-6.6,0-12,5.4-12,12v12c0,6.6,5.4,12,12,12h88c6.6,0,12-5.4,12-12v-12
	C472,161.4,466.6,156,460,156z M380,180c0,3.3-2.7,6-6,6s-6-2.7-6-6v-12c0-3.3,2.7-6,6-6s6,2.7,6,6V180z"/>
<path class="st10" d="M460,200h-88c-6.6,0-12,5.4-12,12v12c0,6.6,5.4,12,12,12h88c6.6,0,12-5.4,12-12v-12
	C472,205.4,466.6,200,460,200z M380,224c0,3.3-2.7,6-6,6s-6-2.7-6-6v-12c0-3.3,2.7-6,6-6s6,2.7,6,6V224z"/>
<linearGradient id="SVGID_00000135672731589968842920000002213298502168505235_" gradientUnits="userSpaceOnUse" x1="416" y1="834" x2="416" y2="798" gradientTransform="matrix(1 0 0 1 0 -554)">
	<stop  offset="0" style="stop-color:#51605C"/>
	<stop  offset="1" style="stop-color:#414951"/>
</linearGradient>
<path style="fill:url(#SVGID_00000135672731589968842920000002213298502168505235_);" d="M460,244h-88c-6.6,0-12,5.4-12,12v12
	c0,6.6,5.4,12,12,12h88c6.6,0,12-5.4,12-12v-12C472,249.4,466.6,244,460,244z M380,268c0,3.3-2.7,6-6,6s-6-2.7-6-6v-12
	c0-3.3,2.7-6,6-6s6,2.7,6,6V268z"/>
<g>
	<g>
		<path class="st17" d="M384.7,27v-9.8h2.7c3.5,0,5.2,1.6,5.2,4.8c0,1.5-0.5,2.7-1.4,3.6c-1,0.9-2.2,1.4-3.9,1.4H384.7z M385.9,18.2
			V26h1.5c1.3,0,2.3-0.3,3-1c0.7-0.7,1.1-1.7,1.1-2.9c0-2.5-1.3-3.8-4-3.8H385.9z"/>
		<path class="st17" d="M400,23.8h-4.9c0,0.8,0.2,1.4,0.6,1.8c0.4,0.4,1,0.6,1.7,0.6c0.8,0,1.5-0.3,2.2-0.8v1.1
			c-0.6,0.4-1.4,0.7-2.4,0.7c-1,0-1.8-0.3-2.3-1c-0.6-0.6-0.8-1.5-0.8-2.7c0-1.1,0.3-2,0.9-2.7c0.6-0.7,1.4-1,2.3-1s1.6,0.3,2.1,0.9
			c0.5,0.6,0.8,1.4,0.8,2.5V23.8z M398.9,22.8c0-0.6-0.2-1.2-0.5-1.5s-0.7-0.5-1.3-0.5c-0.5,0-1,0.2-1.3,0.6s-0.6,0.9-0.7,1.5H398.9
			z"/>
		<path class="st17" d="M407.2,20l-2.8,7h-1.1l-2.7-7h1.2l1.8,5.1c0.1,0.4,0.2,0.7,0.2,1h0c0-0.4,0.1-0.7,0.2-1l1.9-5.1H407.2z"/>
		<path class="st17" d="M411.3,27.2c-1,0-1.9-0.3-2.5-1c-0.6-0.7-0.9-1.5-0.9-2.6c0-1.2,0.3-2.1,1-2.8s1.5-1,2.6-1
			c1,0,1.9,0.3,2.4,1c0.6,0.6,0.9,1.5,0.9,2.7c0,1.1-0.3,2-0.9,2.7C413.2,26.8,412.3,27.2,411.3,27.2z M411.4,20.8
			c-0.7,0-1.3,0.2-1.7,0.7c-0.4,0.5-0.6,1.2-0.6,2c0,0.8,0.2,1.5,0.6,2s1,0.7,1.7,0.7c0.7,0,1.3-0.2,1.7-0.7s0.6-1.1,0.6-2
			c0-0.9-0.2-1.5-0.6-2S412.1,20.8,411.4,20.8z"/>
		<path class="st17" d="M417.7,27h-1.1V16.6h1.1V27z"/>
		<path class="st17" d="M425.6,27h-1.1v-1.1h0c-0.5,0.8-1.2,1.3-2.2,1.3c-1.7,0-2.5-1-2.5-3V20h1.1v4c0,1.5,0.6,2.2,1.7,2.2
			c0.5,0,1-0.2,1.4-0.6c0.4-0.4,0.5-0.9,0.5-1.6v-4h1.1V27z"/>
		<path class="st17" d="M432.6,26.7c-0.5,0.3-1.2,0.5-1.9,0.5c-1,0-1.8-0.3-2.4-1c-0.6-0.6-0.9-1.5-0.9-2.5c0-1.2,0.3-2.1,1-2.8
			c0.7-0.7,1.5-1,2.6-1c0.6,0,1.2,0.1,1.6,0.3v1.1c-0.5-0.4-1.1-0.5-1.7-0.5c-0.7,0-1.3,0.3-1.8,0.8s-0.7,1.2-0.7,2
			c0,0.8,0.2,1.5,0.6,1.9s1,0.7,1.7,0.7c0.6,0,1.2-0.2,1.7-0.6V26.7z M432.1,28.8c0,0.8-0.6,1.2-1.9,1.2c-0.2,0-0.3,0-0.4,0v-0.6
			c0.2,0,0.4,0,0.5,0c0.6,0,1-0.2,1-0.6c0-0.4-0.3-0.5-0.9-0.5c0,0-0.1,0-0.3,0V27h0.7v0.7c0.4,0,0.7,0.1,1,0.3
			C431.9,28.2,432.1,28.4,432.1,28.8z"/>
		<path class="st17" d="M439.4,27h-1.1v-1.1h0c-0.5,0.8-1.2,1.3-2.2,1.3c-0.7,0-1.2-0.2-1.6-0.6c-0.4-0.4-0.6-0.9-0.6-1.5
			c0-1.3,0.8-2.1,2.3-2.3l2.1-0.3c0-1.2-0.5-1.8-1.4-1.8c-0.8,0-1.6,0.3-2.3,0.9v-1.1c0.7-0.4,1.5-0.7,2.4-0.7
			c1.6,0,2.5,0.9,2.5,2.6V27z M439,17c0,0.5-0.1,0.9-0.3,1.2s-0.5,0.5-0.9,0.5c-0.3,0-0.7-0.1-1.1-0.4c-0.4-0.2-0.6-0.3-0.8-0.3
			c-0.4,0-0.6,0.3-0.6,0.8h-0.6c0-0.5,0.1-0.9,0.3-1.2s0.5-0.4,0.9-0.4c0.3,0,0.6,0.1,1,0.4c0.3,0.2,0.6,0.3,0.9,0.3
			c0.4,0,0.6-0.3,0.6-0.8H439z M438.2,23.5l-1.7,0.2c-0.5,0.1-0.9,0.2-1.2,0.4c-0.3,0.2-0.4,0.5-0.4,1c0,0.3,0.1,0.6,0.4,0.8
			c0.2,0.2,0.6,0.3,1,0.3c0.6,0,1-0.2,1.4-0.6s0.5-0.9,0.5-1.5V23.5z"/>
		<path class="st17" d="M444.4,27.2c-1,0-1.9-0.3-2.5-1c-0.6-0.7-0.9-1.5-0.9-2.6c0-1.2,0.3-2.1,1-2.8s1.5-1,2.6-1
			c1,0,1.9,0.3,2.4,1c0.6,0.6,0.9,1.5,0.9,2.7c0,1.1-0.3,2-0.9,2.7C446.3,26.8,445.5,27.2,444.4,27.2z M444.5,20.8
			c-0.7,0-1.3,0.2-1.7,0.7c-0.4,0.5-0.6,1.2-0.6,2c0,0.8,0.2,1.5,0.6,2s1,0.7,1.7,0.7c0.7,0,1.3-0.2,1.7-0.7s0.6-1.1,0.6-2
			c0-0.9-0.2-1.5-0.6-2S445.2,20.8,444.5,20.8z"/>
	</g>
</g>
</svg>
