<?xml version="1.0" encoding="utf-8"?>
<!-- Generator: Adobe Illustrator 25.4.1, SVG Export Plug-In . SVG Version: 6.00 Build 0)  -->
<svg version="1.1" id="Camada_1" xmlns="http://www.w3.org/2000/svg" xmlns:xlink="http://www.w3.org/1999/xlink" x="0px" y="0px"
	 viewBox="0 0 1304 296" style="enable-background:new 0 0 1304 296;" xml:space="preserve">
<style type="text/css">
	.st0{fill:#5A75A3;}
	.st1{fill:url(#SVGID_1_);}
	.st2{fill:#D9AC5E;}
	.st3{fill:#55AE9F;}
	.st4{fill:#CC6A69;}
	.st5{opacity:0.5;fill:none;stroke:#FFFFFF;stroke-width:2;stroke-miterlimit:10;enable-background:new    ;}
	.st6{fill:#404952;}
	.st7{fill:url(#SVGID_00000123427832883308621520000008386451264646729902_);}
	.st8{fill:#5C574F;}
	.st9{fill:#4E615D;}
	.st10{fill:url(#SVGID_00000100378830244844937510000017899747311125212854_);}
	.st11{fill:url(#SVGID_00000052076589992447363000000012361879152211525300_);}
	.st12{fill:url(#SVGID_00000183939077744943984160000015271952981388824738_);}
	.st13{fill:url(#SVGID_00000165197420070566786590000013654539956759918522_);}
	.st14{fill:url(#SVGID_00000065062600329401527520000009756865418127468193_);}
	.st15{fill:url(#SVGID_00000129921068574988837140000001783066240189107088_);}
	.st16{fill:#624B4A;}
	.st17{fill:#D7E4E3;}
	.st18{fill:#FFFFFF;stroke:#FFFFFF;stroke-width:0.4;stroke-miterlimit:10;}
	.st19{fill:#556464;stroke:#556464;stroke-width:0.4;stroke-miterlimit:10;}
</style>
<g id="barras">
	<path class="st0" d="M19,50h1167l0,0v24l0,0H19c-6.6,0-12-5.4-12-12l0,0C7,55.4,12.4,50,19,50z"/>
	
		<linearGradient id="SVGID_1_" gradientUnits="userSpaceOnUse" x1="596.5" y1="12.89" x2="596.5" y2="36.89" gradientTransform="matrix(1 0 0 -1 0 295.89)">
		<stop  offset="0.3" style="stop-color:#55AE9F"/>
		<stop  offset="0.7" style="stop-color:#5A75A3"/>
	</linearGradient>
	<path class="st1" d="M19,259h1167l0,0v24l0,0H19c-6.6,0-12-5.4-12-12l0,0C7,264.4,12.4,259,19,259z"/>
	<path class="st2" d="M19,169h1167l0,0v24l0,0H19c-6.6,0-12-5.4-12-12l0,0C7,174.4,12.4,169,19,169z"/>
	<path class="st3" d="M19,214h1167l0,0v24l0,0H19c-6.6,0-12-5.4-12-12l0,0C7,219.4,12.4,214,19,214L19,214z"/>
	<path class="st4" d="M19,95c-6.6,0-12,5.4-12,12v29c0,6.6,5.4,12,12,12h1167V95H19z"/>
	<path class="st5" d="M96.4,132.9H92c-4.4,0-8-3.6-8-8v-6.9c0-4.4,3.6-8,8-8h4.4"/>
</g>
<g id="caixas">
	<path class="st6" d="M253,44h-78c-6.6,0-12,5.4-12,12v12c0,6.6,5.4,12,12,12h78c6.6,0,12-5.4,12-12V56C265,49.4,259.6,44,253,44z
		 M179,72c0,1.1-0.9,2-2,2c-4.4,0-8-3.6-8-8v-8c0-4.4,3.6-8,8-8c1.1,0,2,0.9,2,2V72z"/>
	
		<linearGradient id="SVGID_00000009548496593003798640000014906272583142194055_" gradientUnits="userSpaceOnUse" x1="214" y1="6.89" x2="214" y2="42.89" gradientTransform="matrix(1 0 0 -1 0 295.89)">
		<stop  offset="0" style="stop-color:#4E615D"/>
		<stop  offset="1" style="stop-color:#404952"/>
	</linearGradient>
	<path style="fill:url(#SVGID_00000009548496593003798640000014906272583142194055_);" d="M253,253h-78c-6.6,0-12,5.4-12,12v12
		c0,6.6,5.4,12,12,12h78c6.6,0,12-5.4,12-12v-12C265,258.4,259.6,253,253,253z M179,281c0,1.1-0.9,2-2,2c-4.4,0-8-3.6-8-8v-8
		c0-4.4,3.6-8,8-8c1.1,0,2,0.9,2,2V281z"/>
	<path class="st8" d="M253,163h-78c-6.6,0-12,5.4-12,12v12c0,6.6,5.4,12,12,12h78c6.6,0,12-5.4,12-12v-12
		C265,168.4,259.6,163,253,163z M179,191c0,1.1-0.9,2-2,2c-4.4,0-8-3.6-8-8v-8c0-4.4,3.6-8,8-8c1.1,0,2,0.9,2,2V191z"/>
	<path class="st9" d="M253,208h-78c-6.6,0-12,5.4-12,12v12c0,6.6,5.4,12,12,12h78c6.6,0,12-5.4,12-12v-12
		C265,213.4,259.6,208,253,208z M179,236c0,1.1-0.9,2-2,2c-4.4,0-8-3.6-8-8v-8c0-4.4,3.6-8,8-8c1.1,0,2,0.9,2,2V236z"/>
	<path class="st6" d="M365,44h-78c-6.6,0-12,5.4-12,12v12c0,6.6,5.4,12,12,12h78c6.6,0,12-5.4,12-12V56C377,49.4,371.6,44,365,44z
		 M291,72c0,1.1-0.9,2-2,2c-4.4,0-8-3.6-8-8v-8c0-4.4,3.6-8,8-8c1.1,0,2,0.9,2,2V72z"/>
	
		<linearGradient id="SVGID_00000055687895627526839590000008230897995829067417_" gradientUnits="userSpaceOnUse" x1="326" y1="6.89" x2="326" y2="42.89" gradientTransform="matrix(1 0 0 -1 0 295.89)">
		<stop  offset="0" style="stop-color:#4E615D"/>
		<stop  offset="1" style="stop-color:#404952"/>
	</linearGradient>
	<path style="fill:url(#SVGID_00000055687895627526839590000008230897995829067417_);" d="M365,253h-78c-6.6,0-12,5.4-12,12v12
		c0,6.6,5.4,12,12,12h78c6.6,0,12-5.4,12-12v-12C377,258.4,371.6,253,365,253z M291,281c0,1.1-0.9,2-2,2c-4.4,0-8-3.6-8-8v-8
		c0-4.4,3.6-8,8-8c1.1,0,2,0.9,2,2V281z"/>
	<path class="st8" d="M365,163h-78c-6.6,0-12,5.4-12,12v12c0,6.6,5.4,12,12,12h78c6.6,0,12-5.4,12-12v-12
		C377,168.4,371.6,163,365,163z M291,191c0,1.1-0.9,2-2,2c-4.4,0-8-3.6-8-8v-8c0-4.4,3.6-8,8-8c1.1,0,2,0.9,2,2V191z"/>
	<path class="st9" d="M365,208h-78c-6.6,0-12,5.4-12,12v12c0,6.6,5.4,12,12,12h78c6.6,0,12-5.4,12-12v-12
		C377,213.4,371.6,208,365,208z M291,236c0,1.1-0.9,2-2,2c-4.4,0-8-3.6-8-8v-8c0-4.4,3.6-8,8-8c1.1,0,2,0.9,2,2V236z"/>
	<path class="st6" d="M477,44h-78c-6.6,0-12,5.4-12,12v12c0,6.6,5.4,12,12,12h78c6.6,0,12-5.4,12-12V56C489,49.4,483.6,44,477,44z
		 M403,72c0,1.1-0.9,2-2,2c-4.4,0-8-3.6-8-8v-8c0-4.4,3.6-8,8-8c1.1,0,2,0.9,2,2V72z"/>
	
		<linearGradient id="SVGID_00000164488958086960530170000015073414182770064512_" gradientUnits="userSpaceOnUse" x1="438" y1="6.89" x2="438" y2="42.89" gradientTransform="matrix(1 0 0 -1 0 295.89)">
		<stop  offset="0" style="stop-color:#4E615D"/>
		<stop  offset="1" style="stop-color:#404952"/>
	</linearGradient>
	<path style="fill:url(#SVGID_00000164488958086960530170000015073414182770064512_);" d="M477,253h-78c-6.6,0-12,5.4-12,12v12
		c0,6.6,5.4,12,12,12h78c6.6,0,12-5.4,12-12v-12C489,258.4,483.6,253,477,253z M403,281c0,1.1-0.9,2-2,2c-4.4,0-8-3.6-8-8v-8
		c0-4.4,3.6-8,8-8c1.1,0,2,0.9,2,2V281z"/>
	<path class="st8" d="M477,163h-78c-6.6,0-12,5.4-12,12v12c0,6.6,5.4,12,12,12h78c6.6,0,12-5.4,12-12v-12
		C489,168.4,483.6,163,477,163z M403,191c0,1.1-0.9,2-2,2c-4.4,0-8-3.6-8-8v-8c0-4.4,3.6-8,8-8c1.1,0,2,0.9,2,2V191z"/>
	<path class="st9" d="M477,208h-78c-6.6,0-12,5.4-12,12v12c0,6.6,5.4,12,12,12h78c6.6,0,12-5.4,12-12v-12
		C489,213.4,483.6,208,477,208z M403,236c0,1.1-0.9,2-2,2c-4.4,0-8-3.6-8-8v-8c0-4.4,3.6-8,8-8c1.1,0,2,0.9,2,2V236z"/>
	<path class="st6" d="M589,44h-78c-6.6,0-12,5.4-12,12v12c0,6.6,5.4,12,12,12h78c6.6,0,12-5.4,12-12V56C601,49.4,595.6,44,589,44z
		 M515,72c0,1.1-0.9,2-2,2c-4.4,0-8-3.6-8-8v-8c0-4.4,3.6-8,8-8c1.1,0,2,0.9,2,2V72z"/>
	
		<linearGradient id="SVGID_00000023273565102880027980000009446270412024724128_" gradientUnits="userSpaceOnUse" x1="550" y1="6.89" x2="550" y2="42.89" gradientTransform="matrix(1 0 0 -1 0 295.89)">
		<stop  offset="0" style="stop-color:#4E615D"/>
		<stop  offset="1" style="stop-color:#404952"/>
	</linearGradient>
	<path style="fill:url(#SVGID_00000023273565102880027980000009446270412024724128_);" d="M589,253h-78c-6.6,0-12,5.4-12,12v12
		c0,6.6,5.4,12,12,12h78c6.6,0,12-5.4,12-12v-12C601,258.4,595.6,253,589,253z M515,281c0,1.1-0.9,2-2,2c-4.4,0-8-3.6-8-8v-8
		c0-4.4,3.6-8,8-8c1.1,0,2,0.9,2,2V281z"/>
	<path class="st8" d="M589,163h-78c-6.6,0-12,5.4-12,12v12c0,6.6,5.4,12,12,12h78c6.6,0,12-5.4,12-12v-12
		C601,168.4,595.6,163,589,163z M515,191c0,1.1-0.9,2-2,2c-4.4,0-8-3.6-8-8v-8c0-4.4,3.6-8,8-8c1.1,0,2,0.9,2,2V191z"/>
	<path class="st9" d="M589,208h-78c-6.6,0-12,5.4-12,12v12c0,6.6,5.4,12,12,12h78c6.6,0,12-5.4,12-12v-12
		C601,213.4,595.6,208,589,208z M515,236c0,1.1-0.9,2-2,2c-4.4,0-8-3.6-8-8v-8c0-4.4,3.6-8,8-8c1.1,0,2,0.9,2,2V236z"/>
	<path class="st6" d="M821,44H623c-6.6,0-12,5.4-12,12v12c0,6.6,5.4,12,12,12h198c6.6,0,12-5.4,12-12V56C833,49.4,827.6,44,821,44z
		 M627,72c0,1.1-0.9,2-2,2c-4.4,0-8-3.6-8-8v-8c0-4.4,3.6-8,8-8c1.1,0,2,0.9,2,2V72z"/>
	
		<linearGradient id="SVGID_00000099634722650510947280000008552568126026952870_" gradientUnits="userSpaceOnUse" x1="722" y1="6.89" x2="722" y2="42.89" gradientTransform="matrix(1 0 0 -1 0 295.89)">
		<stop  offset="0" style="stop-color:#4E615D"/>
		<stop  offset="1" style="stop-color:#404952"/>
	</linearGradient>
	<path style="fill:url(#SVGID_00000099634722650510947280000008552568126026952870_);" d="M821,253H623c-6.6,0-12,5.4-12,12v12
		c0,6.6,5.4,12,12,12h198c6.6,0,12-5.4,12-12v-12C833,258.4,827.6,253,821,253z M627,281c0,1.1-0.9,2-2,2c-4.4,0-8-3.6-8-8v-8
		c0-4.4,3.6-8,8-8c1.1,0,2,0.9,2,2V281z"/>
	<path class="st8" d="M821,163H623c-6.6,0-12,5.4-12,12v12c0,6.6,5.4,12,12,12h198c6.6,0,12-5.4,12-12v-12
		C833,168.4,827.6,163,821,163z M627,191c0,1.1-0.9,2-2,2c-4.4,0-8-3.6-8-8v-8c0-4.4,3.6-8,8-8c1.1,0,2,0.9,2,2V191z"/>
	<path class="st9" d="M821,208H623c-6.6,0-12,5.4-12,12v12c0,6.6,5.4,12,12,12h198c6.6,0,12-5.4,12-12v-12
		C833,213.4,827.6,208,821,208z M627,236c0,1.1-0.9,2-2,2c-4.4,0-8-3.6-8-8v-8c0-4.4,3.6-8,8-8c1.1,0,2,0.9,2,2V236z"/>
	<path class="st6" d="M1053,44H855c-6.6,0-12,5.4-12,12v12c0,6.6,5.4,12,12,12h198c6.6,0,12-5.4,12-12V56
		C1065,49.4,1059.6,44,1053,44z M859,72c0,1.1-0.9,2-2,2c-4.4,0-8-3.6-8-8v-8c0-4.4,3.6-8,8-8c1.1,0,2,0.9,2,2V72z"/>
	
		<linearGradient id="SVGID_00000163761677314418266470000001043061775326641340_" gradientUnits="userSpaceOnUse" x1="954" y1="6.89" x2="954" y2="42.89" gradientTransform="matrix(1 0 0 -1 0 295.89)">
		<stop  offset="0" style="stop-color:#4E615D"/>
		<stop  offset="1" style="stop-color:#404952"/>
	</linearGradient>
	<path style="fill:url(#SVGID_00000163761677314418266470000001043061775326641340_);" d="M1053,253H855c-6.6,0-12,5.4-12,12v12
		c0,6.6,5.4,12,12,12h198c6.6,0,12-5.4,12-12v-12C1065,258.4,1059.6,253,1053,253z M859,281c0,1.1-0.9,2-2,2c-4.4,0-8-3.6-8-8v-8
		c0-4.4,3.6-8,8-8c1.1,0,2,0.9,2,2V281z"/>
	<path class="st8" d="M1053,163H855c-6.6,0-12,5.4-12,12v12c0,6.6,5.4,12,12,12h198c6.6,0,12-5.4,12-12v-12
		C1065,168.4,1059.6,163,1053,163z M859,191c0,1.1-0.9,2-2,2c-4.4,0-8-3.6-8-8v-8c0-4.4,3.6-8,8-8c1.1,0,2,0.9,2,2V191z"/>
	<path class="st9" d="M1053,208H855c-6.6,0-12,5.4-12,12v12c0,6.6,5.4,12,12,12h198c6.6,0,12-5.4,12-12v-12
		C1065,213.4,1059.6,208,1053,208z M859,236c0,1.1-0.9,2-2,2c-4.4,0-8-3.6-8-8v-8c0-4.4,3.6-8,8-8c1.1,0,2,0.9,2,2V236z"/>
	<path class="st6" d="M1285,44h-198c-6.6,0-12,5.4-12,12v12c0,6.6,5.4,12,12,12h198c6.6,0,12-5.4,12-12V56
		C1297,49.4,1291.6,44,1285,44z M1091,72c0,1.1-0.9,2-2,2c-4.4,0-8-3.6-8-8v-8c0-4.4,3.6-8,8-8c1.1,0,2,0.9,2,2V72z"/>
	
		<linearGradient id="SVGID_00000062178184034729729180000003973669274253255586_" gradientUnits="userSpaceOnUse" x1="1186" y1="6.89" x2="1186" y2="42.89" gradientTransform="matrix(1 0 0 -1 0 295.89)">
		<stop  offset="0" style="stop-color:#4E615D"/>
		<stop  offset="1" style="stop-color:#404952"/>
	</linearGradient>
	<path style="fill:url(#SVGID_00000062178184034729729180000003973669274253255586_);" d="M1285,253h-198c-6.6,0-12,5.4-12,12v12
		c0,6.6,5.4,12,12,12h198c6.6,0,12-5.4,12-12v-12C1297,258.4,1291.6,253,1285,253z M1091,281c0,1.1-0.9,2-2,2c-4.4,0-8-3.6-8-8v-8
		c0-4.4,3.6-8,8-8c1.1,0,2,0.9,2,2V281z"/>
	<path class="st8" d="M1285,163h-198c-6.6,0-12,5.4-12,12v12c0,6.6,5.4,12,12,12h198c6.6,0,12-5.4,12-12v-12
		C1297,168.4,1291.6,163,1285,163z M1091,191c0,1.1-0.9,2-2,2c-4.4,0-8-3.6-8-8v-8c0-4.4,3.6-8,8-8c1.1,0,2,0.9,2,2V191z"/>
	<path class="st9" d="M1285,208h-198c-6.6,0-12,5.4-12,12v12c0,6.6,5.4,12,12,12h198c6.6,0,12-5.4,12-12v-12
		C1297,213.4,1291.6,208,1285,208z M1091,236c0,1.1-0.9,2-2,2c-4.4,0-8-3.6-8-8v-8c0-4.4,3.6-8,8-8c1.1,0,2,0.9,2,2V236z"/>
	<path class="st16" d="M163,142c0,6.6,5.4,12,12,12h78c6.6,0,12-5.4,12-12v-41c0-6.6-5.4-12-12-12h-78c-6.6,0-12,5.4-12,12V142z
		 M179,133.4V146c0,1.1-0.9,2-2,2c-4.4,0-8-3.6-8-8v-14c0-1.1,0.9-2,2-2h6c0.1,0,0.2,0,0.4,0h0.1l0.2,0.1l0.1,0.1l0.1,0.1l0.2,0.1
		l0.1,0.1c0.5,0.4,0.8,1,0.7,1.6V133.4z M179,109.6v7.4c0,0.6-0.3,1.2-0.7,1.5l-0.1,0.1l-0.2,0.1l-0.1,0.1l-0.1,0.1l-0.2,0.1h-0.1
		c-0.1,0-0.2,0-0.4,0h-6c-1.1,0-2-0.9-2-2V103c0-4.4,3.6-8,8-8c1.1,0,2,0.9,2,2V109.6z"/>
	<path class="st16" d="M275,142c0,6.6,5.4,12,12,12h78c6.6,0,12-5.4,12-12v-41c0-6.6-5.4-12-12-12h-78c-6.6,0-12,5.4-12,12V142z
		 M291,133.4V146c0,1.1-0.9,2-2,2c-4.4,0-8-3.6-8-8v-14c0-1.1,0.9-2,2-2h6c0.1,0,0.2,0,0.4,0h0.1l0.2,0.1l0.1,0.1l0.1,0.1l0.2,0.1
		l0.1,0.1c0.5,0.4,0.8,1,0.7,1.6V133.4z M291,109.6v7.4c0,0.6-0.3,1.2-0.7,1.5l-0.1,0.1l-0.2,0.1l-0.1,0.1l-0.1,0.1l-0.2,0.1h-0.1
		c-0.1,0-0.2,0-0.4,0h-6c-1.1,0-2-0.9-2-2V103c0-4.4,3.6-8,8-8c1.1,0,2,0.9,2,2L291,109.6z"/>
	<path class="st16" d="M387,142c0,6.6,5.4,12,12,12h78c6.6,0,12-5.4,12-12v-41c0-6.6-5.4-12-12-12h-78c-6.6,0-12,5.4-12,12V142z
		 M403,133.4V146c0,1.1-0.9,2-2,2c-4.4,0-8-3.6-8-8v-14c0-1.1,0.9-2,2-2h6c0.1,0,0.2,0,0.4,0h0.1l0.2,0.1l0.1,0.1l0.1,0.1l0.2,0.1
		l0.1,0.1c0.5,0.4,0.8,1,0.7,1.6V133.4z M403,109.6v7.4c0,0.6-0.3,1.2-0.7,1.5l-0.1,0.1l-0.2,0.1l-0.1,0.1l-0.1,0.1l-0.2,0.1h-0.1
		c-0.1,0-0.2,0-0.4,0h-6c-1.1,0-2-0.9-2-2V103c0-4.4,3.6-8,8-8c1.1,0,2,0.9,2,2L403,109.6z"/>
	<path class="st16" d="M499,142c0,6.6,5.4,12,12,12h78c6.6,0,12-5.4,12-12v-41c0-6.6-5.4-12-12-12h-78c-6.6,0-12,5.4-12,12V142z
		 M515,133.4V146c0,1.1-0.9,2-2,2c-4.4,0-8-3.6-8-8v-14c0-1.1,0.9-2,2-2h6c0.1,0,0.2,0,0.4,0h0.1l0.2,0.1l0.2,0.1l0.2,0.1l0.2,0.1
		l0.1,0.1c0.5,0.4,0.8,1,0.7,1.6V133.4z M515,109.6v7.4c0,0.6-0.3,1.2-0.7,1.5l-0.1,0.1l-0.2,0.1l-0.2,0.1l-0.2,0.1l-0.2,0.1h-0.1
		c-0.1,0-0.2,0-0.4,0h-6c-1.1,0-2-0.9-2-2V103c0-4.4,3.6-8,8-8c1.1,0,2,0.9,2,2L515,109.6z"/>
	<path class="st16" d="M611,142c0,6.6,5.4,12,12,12h198c6.6,0,12-5.4,12-12v-41c0-6.6-5.4-12-12-12H623c-6.6,0-12,5.4-12,12V142z
		 M627,133.4V146c0,1.1-0.9,2-2,2c-4.4,0-8-3.6-8-8v-14c0-1.1,0.9-2,2-2h6c0.1,0,0.2,0,0.4,0h0.1l0.2,0.1l0.2,0.1l0.2,0.1l0.2,0.1
		l0.1,0.1c0.5,0.4,0.8,1,0.7,1.6V133.4z M627,109.6v7.4c0,0.6-0.3,1.2-0.7,1.5l-0.1,0.1l-0.2,0.1l-0.2,0.1l-0.2,0.1l-0.2,0.1h-0.1
		c-0.1,0-0.2,0-0.4,0h-6c-1.1,0-2-0.9-2-2V103c0-4.4,3.6-8,8-8c1.1,0,2,0.9,2,2L627,109.6z"/>
	<path class="st16" d="M843,142c0,6.6,5.4,12,12,12h198c6.6,0,12-5.4,12-12v-41c0-6.6-5.4-12-12-12H855c-6.6,0-12,5.4-12,12V142z
		 M859,133.4V146c0,1.1-0.9,2-2,2c-4.4,0-8-3.6-8-8v-14c0-1.1,0.9-2,2-2h6c0.1,0,0.2,0,0.4,0h0.1l0.2,0.1l0.2,0.1l0.2,0.1l0.2,0.1
		l0.1,0.1c0.5,0.4,0.8,1,0.7,1.6V133.4z M859,109.6v7.4c0,0.6-0.3,1.2-0.7,1.5l-0.1,0.1l-0.2,0.1l-0.2,0.1l-0.2,0.1l-0.2,0.1h-0.1
		c-0.1,0-0.2,0-0.4,0h-6c-1.1,0-2-0.9-2-2V103c0-4.4,3.6-8,8-8c1.1,0,2,0.9,2,2L859,109.6z"/>
	<path class="st16" d="M1075,142c0,6.6,5.4,12,12,12h198c6.6,0,12-5.4,12-12v-41c0-6.6-5.4-12-12-12h-198c-6.6,0-12,5.4-12,12V142z
		 M1091,133.4V146c0,1.1-0.9,2-2,2c-4.4,0-8-3.6-8-8v-14c0-1.1,0.9-2,2-2h6c0.1,0,0.2,0,0.4,0h0.1l0.2,0.1l0.2,0.1l0.2,0.1l0.2,0.1
		l0.1,0.1c0.5,0.4,0.8,1,0.7,1.6V133.4z M1091,109.6v7.4c0,0.6-0.3,1.2-0.7,1.5l-0.1,0.1l-0.2,0.1l-0.2,0.1l-0.2,0.1l-0.2,0.1h-0.1
		c-0.1,0-0.2,0-0.4,0h-6c-1.1,0-2-0.9-2-2V103c0-4.4,3.6-8,8-8c1.1,0,2,0.9,2,2V109.6z"/>
	<path class="st17" d="M175,7h78c6.6,0,12,5.4,12,12v4c0,6.6-5.4,12-12,12h-78c-6.6,0-12-5.4-12-12v-4C163,12.4,168.4,7,175,7z"/>
	<path class="st17" d="M399,7h78c6.6,0,12,5.4,12,12v4c0,6.6-5.4,12-12,12h-78c-6.6,0-12-5.4-12-12v-4C387,12.4,392.4,7,399,7z"/>
	<path class="st17" d="M287,7h78c6.6,0,12,5.4,12,12v4c0,6.6-5.4,12-12,12h-78c-6.6,0-12-5.4-12-12v-4C275,12.4,280.4,7,287,7z"/>
	<path class="st17" d="M511,7h78c6.6,0,12,5.4,12,12v4c0,6.6-5.4,12-12,12h-78c-6.6,0-12-5.4-12-12v-4C499,12.4,504.4,7,511,7z"/>
	<path class="st17" d="M623,7h198c6.6,0,12,5.4,12,12v4c0,6.6-5.4,12-12,12H623c-6.6,0-12-5.4-12-12v-4C611,12.4,616.4,7,623,7z"/>
	<path class="st17" d="M855,7h198c6.6,0,12,5.4,12,12v4c0,6.6-5.4,12-12,12H855c-6.6,0-12-5.4-12-12v-4C843,12.4,848.4,7,855,7z"/>
	<path class="st17" d="M1087,7h198c6.6,0,12,5.4,12,12v4c0,6.6-5.4,12-12,12h-198c-6.6,0-12-5.4-12-12v-4C1075,12.4,1080.4,7,1087,7
		z"/>
</g>
<g id="txt">
	<path class="st18" d="M28.3,231.2c-1,0.5-2,0.7-3.1,0.7c-1.4,0.1-2.8-0.5-3.8-1.5c-1-1.1-1.5-2.5-1.4-4c-0.1-1.6,0.5-3.2,1.6-4.4
		c1.1-1.1,2.6-1.7,4.1-1.6c0.9,0,1.8,0.1,2.6,0.5v1.4c-0.8-0.5-1.7-0.7-2.7-0.7c-1.2,0-2.3,0.4-3.1,1.3c-0.8,1-1.3,2.2-1.2,3.4
		c-0.1,1.2,0.3,2.4,1.1,3.3c0.8,0.8,1.9,1.3,3,1.2c1,0,2-0.2,2.9-0.8L28.3,231.2z"/>
	<path class="st18" d="M36.9,231.6h-1.3v-1.3l0,0c-0.5,0.9-1.4,1.5-2.5,1.5c-1.9,0-2.9-1.1-2.9-3.4v-4.8h1.3v4.6
		c0,1.7,0.6,2.5,1.9,2.5c0.6,0,1.2-0.2,1.5-0.7c0.4-0.5,0.6-1.2,0.6-1.8v-4.6h1.3L36.9,231.6z"/>
	<path class="st18" d="M39,231.4V230c0.7,0.5,1.5,0.8,2.3,0.8c1.1,0,1.7-0.4,1.7-1.1c0-0.2,0-0.4-0.2-0.5c-0.1-0.2-0.2-0.3-0.4-0.4
		c-0.2-0.1-0.4-0.2-0.6-0.3l-0.7-0.3c-0.4-0.1-0.7-0.3-0.9-0.4c-0.2-0.1-0.5-0.3-0.7-0.5c-0.2-0.2-0.3-0.4-0.4-0.6
		c-0.1-0.3-0.1-0.5-0.1-0.8c0-0.4,0.1-0.7,0.3-1c0.2-0.3,0.4-0.5,0.7-0.7c0.3-0.2,0.6-0.4,1-0.4c0.4-0.1,0.7-0.2,1.1-0.1
		c0.6,0,1.3,0.1,1.9,0.4v1.3c-0.6-0.4-1.3-0.6-2-0.6c-0.2,0-0.4,0-0.7,0.1c-0.2,0.1-0.3,0.1-0.5,0.2c-0.1,0.1-0.2,0.2-0.3,0.4
		c-0.1,0.1-0.1,0.3-0.1,0.4c0,0.2,0,0.4,0.1,0.5c0.1,0.1,0.2,0.3,0.3,0.4c0.2,0.1,0.3,0.2,0.5,0.3l0.7,0.3c0.3,0.1,0.7,0.3,1,0.4
		c0.3,0.1,0.5,0.3,0.7,0.5c0.2,0.2,0.3,0.4,0.5,0.6c0.1,0.3,0.2,0.6,0.2,0.8c0,0.4-0.1,0.7-0.3,1c-0.2,0.3-0.4,0.5-0.7,0.7
		c-0.3,0.2-0.6,0.3-1,0.4c-0.4,0.1-0.8,0.1-1.2,0.1C40.5,231.9,39.7,231.7,39,231.4z"/>
	<path class="st18" d="M50,231.6c-0.4,0.2-0.8,0.3-1.2,0.2c-1.4,0-2.1-0.8-2.1-2.3v-4.7h-1.4v-1.1h1.4v-2l1.3-0.4v2.4h2v1.1h-2v4.5
		c0,0.4,0.1,0.8,0.3,1.1c0.2,0.2,0.6,0.4,0.9,0.3c0.3,0,0.6-0.1,0.8-0.3L50,231.6z"/>
	<path class="st18" d="M54.9,231.8c-1.1,0-2.1-0.4-2.8-1.1c-0.7-0.8-1.1-1.9-1.1-3c-0.1-1.2,0.3-2.3,1.1-3.1c0.8-0.8,1.9-1.2,3-1.1
		c1-0.1,2.1,0.3,2.8,1.1c0.7,0.9,1.1,2,1,3.1c0.1,1.1-0.3,2.2-1.1,3.1C57,231.4,56,231.9,54.9,231.8z M55,224.5
		c-0.7,0-1.5,0.3-2,0.8c-0.5,0.7-0.8,1.5-0.7,2.3c0,0.8,0.2,1.6,0.7,2.2c0.5,0.5,1.2,0.8,1.9,0.8c0.7,0,1.4-0.3,1.9-0.8
		c0.5-0.7,0.7-1.5,0.7-2.3c0.1-0.8-0.2-1.6-0.7-2.3C56.4,224.8,55.7,224.5,55,224.5L55,224.5z"/>
	<path class="st18" d="M72.3,231.6H71V227c0-0.7-0.1-1.3-0.4-1.9c-0.3-0.4-0.8-0.6-1.4-0.6c-0.6,0-1.1,0.3-1.4,0.8
		c-0.4,0.5-0.6,1.2-0.6,1.8v4.6H66v-4.8c0-1.6-0.6-2.4-1.8-2.4c-0.6,0-1.1,0.3-1.4,0.7c-0.4,0.5-0.6,1.2-0.6,1.8v4.6h-1.3v-8h1.3
		v1.3l0,0c0.5-0.9,1.5-1.5,2.5-1.4c1.1,0,2,0.6,2.3,1.7c0.5-1,1.5-1.7,2.7-1.7c1.8,0,2.6,1.1,2.6,3.3L72.3,231.6z"/>
	<path class="st18" d="M81.1,228h-5.6c0,0.7,0.2,1.4,0.7,2c0.5,0.5,1.2,0.8,1.9,0.7c0.9,0,1.8-0.3,2.5-0.9v1.2
		c-0.8,0.5-1.8,0.8-2.8,0.8c-1,0-2-0.4-2.7-1.1c-0.7-0.9-1.1-2-1-3.1c-0.1-1.1,0.3-2.2,1-3c0.7-0.8,1.6-1.2,2.6-1.2
		c0.9-0.1,1.8,0.3,2.4,1c0.6,0.8,0.9,1.8,0.9,2.8L81.1,228z M79.8,226.9c0-0.6-0.2-1.2-0.5-1.7c-0.4-0.4-0.9-0.6-1.5-0.6
		c-0.6,0-1.1,0.2-1.5,0.6c-0.4,0.5-0.7,1.1-0.8,1.7H79.8z"/>
	<path class="st18" d="M87.2,225c-0.3-0.2-0.6-0.3-1-0.3c-0.6,0-1.1,0.3-1.4,0.8c-0.4,0.6-0.6,1.4-0.6,2.1v4.1h-1.2v-8h1.3v1.6l0,0
		c0.1-0.5,0.4-1,0.8-1.3c0.3-0.3,0.8-0.5,1.3-0.5c0.3,0,0.5,0,0.8,0.1L87.2,225z"/>
	<path class="st19" d="M192.8,15.4v1.1h-1.1v9h1.1v1.1h-3.5v-1.1h1.1v-9h-1.1v-1.1H192.8z"/>
	<path class="st19" d="M201.1,26.6h-1.3V22c0-1.7-0.6-2.5-1.9-2.5c-0.6,0-1.2,0.2-1.6,0.7c-0.4,0.5-0.7,1.2-0.6,1.8v4.6h-1.3v-8h1.3
		v1.3l0,0c0.5-1,1.5-1.6,2.6-1.5c0.8,0,1.5,0.3,2,0.9c0.5,0.7,0.7,1.6,0.7,2.5L201.1,26.6z"/>
	<path class="st19" d="M209.9,18.6l-3.2,8h-1.3l-3-8h1.4l2,5.8c0.1,0.4,0.2,0.7,0.3,1.1l0,0c0-0.4,0.1-0.7,0.2-1.1l2.1-5.9
		L209.9,18.6z"/>
	<path class="st19" d="M214.5,26.8c-1.1,0-2.1-0.4-2.8-1.1c-0.7-0.8-1.1-1.9-1.1-3c-0.1-1.2,0.3-2.3,1.1-3.1c0.8-0.8,1.9-1.2,3-1.1
		c1-0.1,2.1,0.3,2.8,1.1c0.7,0.9,1.1,1.9,1,3c0.1,1.1-0.3,2.2-1.1,3.1C216.6,26.4,215.6,26.8,214.5,26.8z M214.6,19.5
		c-0.8,0-1.5,0.3-2,0.8c-0.5,0.7-0.8,1.5-0.7,2.3c0,0.8,0.2,1.6,0.7,2.2c0.5,0.6,1.2,0.9,2,0.8c0.7,0,1.4-0.3,1.9-0.8
		c0.5-0.7,0.7-1.5,0.7-2.3c0.1-0.8-0.2-1.6-0.7-2.3C216,19.7,215.3,19.4,214.6,19.5z"/>
	<path class="st19" d="M221.2,16.6c-0.2,0-0.4-0.1-0.6-0.2c-0.3-0.3-0.3-0.9,0-1.2c0.2-0.2,0.4-0.2,0.6-0.2c0.2,0,0.4,0.1,0.6,0.2
		c0.3,0.3,0.3,0.9,0,1.2C221.6,16.5,221.4,16.6,221.2,16.6z M221.8,26.6h-1.3v-8h1.3V26.6z"/>
	<path class="st19" d="M229.8,26.2c-0.7,0.4-1.4,0.6-2.2,0.6c-1,0-2-0.4-2.8-1.1c-0.7-0.8-1.1-1.8-1-2.9c-0.1-1.2,0.3-2.3,1.1-3.2
		c0.8-0.8,1.9-1.2,3-1.2c0.6,0,1.3,0.1,1.9,0.4v1.3c-0.6-0.4-1.2-0.6-1.9-0.6c-0.8,0-1.5,0.3-2,0.9c-0.5,0.6-0.8,1.5-0.8,2.3
		c0,0.8,0.2,1.6,0.7,2.2c0.5,0.6,1.2,0.9,2,0.8c0.7,0,1.4-0.2,2-0.7L229.8,26.2z"/>
	<path class="st19" d="M238.2,22.9h-5.6c0,0.8,0.2,1.5,0.7,2.1c0.5,0.5,1.2,0.8,1.9,0.7c0.9,0,1.8-0.3,2.5-0.9V26
		c-0.8,0.5-1.8,0.8-2.8,0.8c-1,0.1-2-0.3-2.7-1.1c-0.7-0.9-1.1-2-1-3.1c0-1.1,0.3-2.2,1.1-3c0.7-0.8,1.6-1.2,2.6-1.2
		c0.9-0.1,1.8,0.3,2.4,1c0.6,0.8,0.9,1.8,0.9,2.8L238.2,22.9z M236.9,21.8c0-0.6-0.2-1.2-0.5-1.7c-0.4-0.4-0.9-0.6-1.5-0.6
		c-0.6,0-1.1,0.2-1.5,0.6c-0.4,0.5-0.7,1.1-0.8,1.7H236.9z"/>
	<path class="st19" d="M311.5,26.8c-1.4,0.1-2.8-0.5-3.8-1.6c-1-1.1-1.5-2.6-1.4-4.1c-0.1-1.6,0.4-3.1,1.5-4.3c1-1.1,2.5-1.7,4-1.6
		c1.4-0.1,2.8,0.5,3.7,1.6c1,1.1,1.5,2.6,1.4,4.1c0.1,1.6-0.4,3.1-1.5,4.3C314.4,26.3,313,26.9,311.5,26.8z M311.6,16.4
		c-1.1,0-2.2,0.4-2.9,1.3c-0.8,0.9-1.2,2.1-1.1,3.4c-0.1,1.2,0.3,2.4,1.1,3.3c0.7,0.8,1.7,1.3,2.8,1.3c1.1,0.1,2.2-0.4,2.9-1.2
		c0.8-1,1.1-2.2,1.1-3.4c0.1-1.2-0.3-2.4-1-3.4C313.7,16.8,312.7,16.3,311.6,16.4z"/>
	<path class="st19" d="M323,19.9c-0.3-0.2-0.6-0.3-1-0.3c-0.6,0-1.1,0.3-1.4,0.8c-0.4,0.6-0.6,1.4-0.5,2.1v4.1h-1.3v-8h1.3v1.6l0,0
		c0.2-0.5,0.4-1,0.8-1.3c0.3-0.3,0.8-0.5,1.3-0.5c0.3,0,0.5,0,0.8,0.1L323,19.9z"/>
	<path class="st19" d="M331.1,26.6h-1.3v-1.4l0,0c-0.9,1.5-2.9,2-4.4,1.1c-0.3-0.2-0.5-0.4-0.7-0.6c-0.6-0.8-1-1.9-0.9-2.9
		c-0.1-1.1,0.3-2.3,1-3.2c0.6-0.8,1.6-1.2,2.7-1.2c1-0.1,1.9,0.4,2.4,1.3l0,0v-4.9h1.3V26.6z M329.8,23v-1.2c0-0.6-0.2-1.2-0.6-1.6
		c-0.4-0.4-1-0.7-1.6-0.7c-0.7,0-1.4,0.3-1.8,0.9c-0.5,0.7-0.7,1.5-0.7,2.4c0,0.8,0.2,1.5,0.6,2.2c0.4,0.5,1.1,0.8,1.7,0.8
		c0.7,0,1.3-0.3,1.7-0.8C329.6,24.4,329.8,23.7,329.8,23z"/>
	<path class="st19" d="M340.1,22.9h-5.6c0,0.8,0.2,1.5,0.7,2.1c0.5,0.5,1.2,0.8,1.9,0.7c0.9,0,1.8-0.3,2.5-0.9V26
		c-0.8,0.5-1.8,0.8-2.8,0.8c-1,0.1-2-0.3-2.7-1.1c-0.7-0.9-1.1-2-1-3.1c0-1.1,0.3-2.2,1.1-3c0.7-0.8,1.6-1.2,2.6-1.2
		c0.9-0.1,1.8,0.3,2.4,1c0.6,0.8,0.9,1.8,0.9,2.8L340.1,22.9z M338.8,21.8c0-0.6-0.2-1.2-0.5-1.7c-0.4-0.4-0.9-0.6-1.5-0.6
		c-0.6,0-1.1,0.2-1.5,0.6c-0.4,0.5-0.7,1.1-0.8,1.7H338.8z"/>
	<path class="st19" d="M346.2,19.9c-0.3-0.2-0.6-0.3-1-0.3c-0.6,0-1.1,0.3-1.4,0.8c-0.4,0.6-0.6,1.4-0.5,2.1v4.1H342v-8h1.3v1.6l0,0
		c0.2-0.5,0.4-1,0.8-1.3c0.3-0.3,0.8-0.5,1.3-0.5c0.3,0,0.5,0,0.8,0.1L346.2,19.9z"/>
	<path class="st19" d="M520,15.4v1.1h-1.1v9h1.1v1.1h-3.5v-1.1h1.1v-9h-1.1v-1.1H520z"/>
	<path class="st19" d="M528.3,26.6h-1.3V22c0-1.7-0.6-2.5-1.9-2.5c-0.6,0-1.2,0.2-1.6,0.7c-0.4,0.5-0.6,1.2-0.6,1.8v4.6h-1.3v-8h1.3
		v1.3l0,0c0.5-1,1.5-1.6,2.6-1.5c0.8,0,1.5,0.3,2,0.9c0.5,0.7,0.8,1.6,0.7,2.5L528.3,26.6z"/>
	<path class="st19" d="M537,18.6l-3.2,8h-1.2l-3-8h1.4l2,5.8c0.1,0.4,0.2,0.7,0.3,1.1l0,0c0-0.4,0.1-0.7,0.2-1.1l2.1-5.9L537,18.6z"
		/>
	<path class="st19" d="M550.7,22.5h-3.2v3.2h-1v-3.2h-3.1v-1h3.1v-3.1h1v3.1h3.2V22.5z"/>
	<path class="st19" d="M562.8,26.8c-1.4,0.1-2.8-0.5-3.8-1.6c-1-1.1-1.5-2.6-1.4-4.1c-0.1-1.6,0.4-3.1,1.4-4.3c1-1.1,2.5-1.7,4-1.6
		c1.4-0.1,2.8,0.5,3.7,1.6c1,1.1,1.5,2.6,1.4,4.1c0.1,1.6-0.4,3.1-1.5,4.3C565.7,26.3,564.3,26.9,562.8,26.8z M562.9,16.4
		c-1.1,0-2.2,0.4-2.9,1.3c-0.8,0.9-1.2,2.1-1.1,3.4c0,1.2,0.3,2.4,1.1,3.3c0.7,0.8,1.7,1.3,2.8,1.3c1.1,0.1,2.2-0.4,2.9-1.2
		c0.8-1,1.2-2.2,1.1-3.4c0.1-1.2-0.3-2.4-1-3.4C565.1,16.8,564,16.3,562.9,16.4L562.9,16.4z"/>
	<path class="st19" d="M574.4,19.9c-0.3-0.2-0.6-0.3-1-0.3c-0.6,0-1.1,0.3-1.4,0.8c-0.4,0.6-0.6,1.4-0.5,2.1v4.1h-1.3v-8h1.3v1.6
		l0,0c0.1-0.5,0.4-1,0.8-1.3c0.3-0.3,0.8-0.5,1.3-0.5c0.3,0,0.5,0,0.8,0.1L574.4,19.9z"/>
	<path class="st19" d="M582.4,26.6h-1.3v-1.4l0,0c-0.9,1.5-2.9,2-4.4,1.1c-0.3-0.2-0.5-0.4-0.7-0.6c-0.6-0.8-1-1.9-0.9-2.9
		c-0.1-1.1,0.3-2.3,1-3.2c0.6-0.8,1.6-1.2,2.7-1.2c1-0.1,1.9,0.4,2.4,1.3l0,0v-4.9h1.3V26.6z M581.1,23v-1.2c0-0.6-0.2-1.2-0.6-1.6
		c-0.4-0.4-1-0.7-1.6-0.7c-0.7,0-1.4,0.3-1.8,0.9c-0.5,0.7-0.7,1.5-0.7,2.4c0,0.8,0.2,1.5,0.6,2.2c0.4,0.5,1.1,0.8,1.7,0.8
		c0.7,0,1.3-0.3,1.7-0.8C580.9,24.4,581.1,23.7,581.1,23z"/>
	<path class="st19" d="M424.1,26.6h-1.6l-1.9-3.1c-0.2-0.3-0.3-0.5-0.5-0.8c-0.1-0.2-0.3-0.4-0.5-0.5c-0.2-0.1-0.3-0.2-0.5-0.3
		c-0.2-0.1-0.4-0.1-0.7-0.1h-1.1v4.8h-1.3V15.4h3.3c0.5,0,0.9,0.1,1.4,0.2c0.4,0.1,0.8,0.3,1.1,0.6c0.3,0.2,0.6,0.6,0.7,0.9
		c0.3,0.8,0.3,1.6,0.1,2.4c-0.1,0.3-0.3,0.6-0.5,0.9c-0.2,0.3-0.5,0.5-0.8,0.6c-0.3,0.2-0.6,0.3-1,0.4l0,0c0.2,0.1,0.3,0.2,0.5,0.3
		c0.1,0.1,0.3,0.2,0.4,0.4c0.1,0.1,0.2,0.3,0.4,0.5l0.4,0.6L424.1,26.6z M417.4,16.6v4.1h1.8c0.3,0,0.6,0,0.9-0.1
		c0.3-0.1,0.5-0.2,0.7-0.4c0.2-0.2,0.4-0.4,0.5-0.7c0.1-0.3,0.2-0.6,0.2-0.9c0-0.5-0.2-1-0.6-1.4c-0.5-0.4-1.1-0.5-1.7-0.5H417.4z"
		/>
	<path class="st19" d="M431.5,22.9h-5.6c0,0.8,0.2,1.5,0.7,2.1c0.5,0.5,1.2,0.8,1.9,0.7c0.9,0,1.8-0.3,2.5-0.9V26
		c-0.8,0.5-1.8,0.8-2.8,0.8c-1,0.1-2-0.3-2.7-1.1c-0.7-0.9-1.1-2-1-3.1c0-1.1,0.3-2.2,1.1-3c0.7-0.8,1.6-1.2,2.6-1.2
		c0.9-0.1,1.8,0.3,2.4,1c0.6,0.8,0.9,1.8,0.9,2.8L431.5,22.9z M430.2,21.8c0-0.6-0.2-1.2-0.5-1.7c-0.4-0.4-0.9-0.6-1.5-0.6
		c-0.6,0-1.1,0.2-1.5,0.6c-0.4,0.5-0.7,1.1-0.8,1.7H430.2z"/>
	<path class="st19" d="M437.1,26.5c-0.4,0.2-0.8,0.3-1.2,0.2c-1.4,0-2.1-0.8-2.1-2.3v-4.7h-1.4v-1.1h1.4v-2l1.3-0.4v2.4h2v1.1h-2
		v4.5c0,0.4,0.1,0.8,0.3,1.2c0.2,0.3,0.6,0.4,0.9,0.3c0.3,0,0.6-0.1,0.8-0.3L437.1,26.5z"/>
	<path class="st19" d="M445.3,26.6H444v-1.3l0,0c-0.5,0.9-1.4,1.5-2.5,1.5c-1.9,0-2.9-1.1-2.9-3.4v-4.8h1.3v4.6
		c0,1.7,0.6,2.5,1.9,2.5c0.6,0,1.2-0.2,1.5-0.7c0.4-0.5,0.6-1.2,0.6-1.8v-4.6h1.3L445.3,26.6z"/>
	<path class="st19" d="M452.1,19.9c-0.3-0.2-0.6-0.3-1-0.3c-0.6,0-1.1,0.3-1.4,0.8c-0.4,0.6-0.6,1.4-0.5,2.1v4.1h-1.3v-8h1.3v1.6
		l0,0c0.1-0.5,0.4-1,0.8-1.3c0.4-0.3,0.8-0.5,1.3-0.5c0.3,0,0.5,0,0.8,0.1L452.1,19.9z"/>
	<path class="st19" d="M460.1,26.6h-1.3V22c0-1.7-0.6-2.5-1.9-2.5c-0.6,0-1.2,0.2-1.6,0.7c-0.4,0.5-0.6,1.2-0.6,1.8v4.6h-1.3v-8h1.3
		v1.3l0,0c0.5-1,1.5-1.5,2.6-1.5c0.8,0,1.5,0.3,2,0.9c0.5,0.7,0.7,1.6,0.7,2.5L460.1,26.6z"/>
	<path class="st19" d="M668.6,26.6h-5.8V15.4h1.3v10h4.5V26.6z"/>
	<path class="st19" d="M676.6,15.4l-3.7,7.1v4.1h-1.3v-4.1l-3.6-7.1h1.5l2.5,5.1c0,0.1,0.1,0.3,0.3,0.7l0,0c0.1-0.2,0.2-0.5,0.3-0.7
		l2.6-5.1H676.6z"/>
	<path class="st19" d="M685,15.4v1.1h-1.1v9h1.1v1.1h-3.5v-1.1h1.1v-9h-1.1v-1.1H685z"/>
	<path class="st19" d="M693.3,26.6H692V22c0-1.7-0.6-2.5-1.9-2.5c-0.6,0-1.2,0.2-1.6,0.7c-0.4,0.5-0.7,1.2-0.6,1.8v4.6h-1.3v-8h1.3
		v1.3l0,0c0.5-1,1.5-1.5,2.6-1.5c0.8,0,1.5,0.3,2,0.9c0.5,0.7,0.8,1.6,0.7,2.5L693.3,26.6z"/>
	<path class="st19" d="M702,18.6l-3.2,8h-1.2l-3-8h1.4l2,5.8c0.1,0.4,0.2,0.7,0.3,1.1l0,0c0.1-0.4,0.1-0.7,0.2-1.1l2.1-5.9L702,18.6
		z"/>
	<path class="st19" d="M706.6,26.8c-1.1,0.1-2.1-0.4-2.8-1.1c-0.7-0.8-1.1-1.9-1-3c-0.1-1.2,0.3-2.3,1.1-3.1c0.8-0.8,1.9-1.2,3-1.1
		c1.1-0.1,2.1,0.3,2.8,1.1c0.7,0.9,1.1,1.9,1,3c0.1,1.1-0.3,2.2-1.1,3.1C708.8,26.4,707.7,26.9,706.6,26.8z M706.7,19.5
		c-0.8,0-1.5,0.3-2,0.8c-0.5,0.7-0.8,1.5-0.7,2.3c0,0.8,0.2,1.6,0.7,2.2c0.5,0.6,1.2,0.9,2,0.8c0.7,0,1.4-0.3,1.9-0.8
		c0.5-0.7,0.7-1.5,0.7-2.3c0.1-0.8-0.2-1.6-0.7-2.3C708.1,19.7,707.4,19.4,706.7,19.5z"/>
	<path class="st19" d="M713.3,16.6c-0.5,0-0.8-0.4-0.8-0.8c0-0.5,0.4-0.8,0.8-0.8c0,0,0,0,0,0c0.2,0,0.4,0.1,0.6,0.2
		c0.3,0.3,0.3,0.8,0,1.2c0,0,0,0,0,0C713.7,16.5,713.5,16.6,713.3,16.6z M713.9,26.6h-1.3v-8h1.3V26.6z"/>
	<path class="st19" d="M722,26.2c-0.7,0.4-1.4,0.6-2.2,0.6c-1.1,0.1-2.1-0.3-2.8-1.1c-0.7-0.8-1.1-1.8-1-2.9
		c-0.1-1.2,0.3-2.3,1.1-3.2c0.8-0.8,1.9-1.2,3-1.2c0.6,0,1.3,0.1,1.9,0.4v1.3c-0.6-0.4-1.2-0.6-1.9-0.6c-0.8,0-1.5,0.3-2,0.9
		c-0.5,0.6-0.8,1.5-0.8,2.3c-0.1,0.8,0.2,1.6,0.7,2.2c0.5,0.6,1.2,0.9,2,0.8c0.7,0,1.4-0.2,2-0.7V26.2z"/>
	<path class="st19" d="M730.3,22.9h-5.7c0,0.8,0.2,1.5,0.7,2.1c0.5,0.5,1.2,0.8,1.9,0.7c0.9,0,1.8-0.3,2.5-0.9V26
		c-0.8,0.5-1.8,0.8-2.8,0.8c-1,0.1-2-0.3-2.7-1.1c-0.7-0.9-1.1-2-1-3.1c-0.1-1.1,0.3-2.2,1-3c0.7-0.8,1.6-1.2,2.6-1.2
		c0.9-0.1,1.8,0.3,2.4,1c0.6,0.8,0.9,1.8,0.9,2.8L730.3,22.9z M729,21.8c0-0.6-0.2-1.2-0.5-1.7c-0.4-0.4-0.9-0.6-1.5-0.6
		c-0.6,0-1.1,0.2-1.5,0.6c-0.4,0.5-0.7,1.1-0.8,1.7H729z"/>
	<path class="st19" d="M739.6,15.5c-1.4,1.9-2.1,4.2-2,6.6c0,2.3,0.7,4.6,2,6.5h-1.1c-1.4-1.9-2.2-4.2-2.1-6.5
		c0-2.4,0.7-4.7,2.1-6.5L739.6,15.5z"/>
	<path class="st19" d="M740.3,25.8l3.8-10h1.6l3.7,10v0.8h-9.1L740.3,25.8z M747.8,25.4l-2.2-5.9c-0.3-0.8-0.6-1.7-0.8-2.4l0,0
		c-0.2,0.5-0.5,1.4-0.7,2.2l-2.3,6.1H747.8z"/>
	<path class="st19" d="M760.6,15.4l-5.4,13.1H754l5.4-13.1L760.6,15.4z"/>
	<path class="st19" d="M768,21c-0.7,0-1.4-0.3-1.8-0.8c-0.5-0.6-0.7-1.3-0.7-2c0-0.8,0.2-1.6,0.7-2.2c0.5-0.6,1.2-0.8,2-0.8
		c0.7,0,1.3,0.3,1.8,0.8c0.5,0.6,0.7,1.3,0.7,2.1c0,0.8-0.2,1.6-0.7,2.2C769.4,20.8,768.7,21,768,21z M768.1,16.1
		c-0.5,0-0.9,0.2-1.2,0.5c-0.3,0.4-0.5,1-0.4,1.5c0,0.5,0.1,1,0.4,1.5c0.3,0.3,0.7,0.5,1.1,0.5c0.5,0,0.9-0.2,1.2-0.5
		c0.3-0.4,0.5-1,0.4-1.5c0-0.5-0.1-1-0.4-1.5C769,16.3,768.5,16.1,768.1,16.1L768.1,16.1z M775.5,15.4l-7.2,11.3h-1.1l7.2-11.3
		L775.5,15.4z M774.7,26.7c-0.7,0-1.4-0.2-1.8-0.8c-0.5-0.6-0.7-1.3-0.7-2c0-0.8,0.2-1.6,0.7-2.2c0.5-0.5,1.2-0.8,2-0.8
		c0.7,0,1.4,0.2,1.9,0.8c0.5,0.6,0.7,1.3,0.7,2.1c0,0.8-0.2,1.6-0.7,2.1C776.1,26.5,775.4,26.8,774.7,26.7L774.7,26.7z M774.8,21.8
		c-0.5,0-0.9,0.2-1.2,0.5c-0.3,0.4-0.5,1-0.4,1.5c0,0.5,0.1,1,0.4,1.5c0.3,0.4,0.7,0.5,1.2,0.5c0.4,0,0.9-0.2,1.1-0.5
		c0.3-0.4,0.4-1,0.4-1.5c0-0.5-0.1-1-0.4-1.5C775.6,22,775.2,21.8,774.8,21.8L774.8,21.8z"/>
	<path class="st19" d="M778.2,28.5c1.4-1.9,2.1-4.2,2-6.5c0.1-2.3-0.6-4.6-2-6.5h1.1c1.4,1.9,2.2,4.2,2.1,6.5
		c0.1,2.4-0.7,4.7-2.1,6.5H778.2z"/>
	<path class="st19" d="M921.9,25.8c-1.1,0.6-2.4,1-3.8,1c-1.5,0.1-2.9-0.5-3.9-1.5c-1-1.1-1.6-2.6-1.5-4.1c-0.1-1.6,0.5-3.1,1.6-4.3
		c1.1-1.1,2.6-1.7,4.2-1.7c1.1,0,2.1,0.2,3.1,0.6v1.5c-1-0.6-2.1-0.9-3.2-0.9c-1.2,0-2.3,0.4-3.1,1.3c-0.8,0.9-1.3,2.1-1.2,3.4
		c-0.1,1.2,0.3,2.4,1.1,3.3c0.8,0.8,1.9,1.3,3,1.2c0.8,0,1.6-0.2,2.3-0.5V22h-2.5v-1.2h3.8L921.9,25.8z"/>
	<path class="st19" d="M927.7,26.8c-1.1,0-2.1-0.4-2.8-1.1c-0.7-0.8-1.1-1.9-1.1-3c-0.1-1.2,0.3-2.3,1.1-3.1c0.8-0.8,1.9-1.2,3-1.1
		c1-0.1,2.1,0.3,2.8,1.1c0.7,0.9,1.1,1.9,1,3c0.1,1.1-0.3,2.2-1.1,3.1C929.9,26.4,928.8,26.8,927.7,26.8z M927.8,19.5
		c-0.8,0-1.5,0.3-2,0.8c-0.5,0.7-0.8,1.5-0.7,2.3c0,0.8,0.2,1.6,0.7,2.2c0.5,0.6,1.2,0.9,2,0.8c0.7,0,1.4-0.3,1.9-0.8
		c0.5-0.7,0.7-1.5,0.7-2.3c0-0.8-0.2-1.6-0.7-2.3C929.2,19.8,928.5,19.5,927.8,19.5z"/>
	<path class="st19" d="M939.2,26.6H938v-1.2l0,0c-0.5,0.9-1.4,1.5-2.5,1.4c-0.7,0-1.4-0.2-1.9-0.6c-0.5-0.4-0.7-1-0.7-1.7
		c0-1.5,0.9-2.4,2.6-2.6l2.4-0.3c0-1.3-0.6-2-1.7-2c-1,0-1.9,0.4-2.6,1v-1.4c0.8-0.5,1.8-0.8,2.7-0.8c1.9,0,2.8,1,2.8,3L939.2,26.6z
		 M938,22.5l-1.9,0.3c-0.5,0-0.9,0.2-1.3,0.4c-0.3,0.3-0.5,0.7-0.5,1.1c0,0.4,0.1,0.7,0.4,1c0.3,0.3,0.7,0.4,1.1,0.4
		c0.6,0,1.2-0.2,1.6-0.7c0.4-0.5,0.6-1.1,0.6-1.7L938,22.5z"/>
	<path class="st19" d="M943,26.6h-1.3V14.8h1.3V26.6z"/>
	<path class="st19" d="M952.8,15.5c-1.4,1.9-2.1,4.2-2,6.6c-0.1,2.3,0.6,4.6,2,6.5h-1.1c-1.4-1.9-2.2-4.2-2.1-6.5
		c0-2.4,0.7-4.7,2.1-6.5L952.8,15.5z"/>
	<path class="st19" d="M953.6,25.8l3.8-10h1.6l3.7,10v0.8h-9.1L953.6,25.8z M961.1,25.4l-2.2-5.9c-0.3-0.8-0.6-1.7-0.8-2.4l0,0
		c-0.2,0.5-0.5,1.4-0.7,2.2l-2.2,6.1H961.1z"/>
	<path class="st19" d="M973.8,15.4l-5.4,13.1h-1.2l5.4-13.1L973.8,15.4z"/>
	<path class="st19" d="M981.2,21c-0.7,0-1.4-0.3-1.8-0.8c-0.5-0.6-0.7-1.3-0.7-2c0-0.8,0.2-1.6,0.7-2.2c0.5-0.6,1.2-0.9,2-0.8
		c0.7,0,1.4,0.2,1.9,0.7c0.5,0.6,0.7,1.3,0.7,2.1c0,0.8-0.2,1.6-0.7,2.2C982.7,20.8,982,21,981.2,21z M981.3,16.1
		c-0.5,0-0.9,0.2-1.2,0.5c-0.3,0.4-0.5,1-0.4,1.5c0,0.5,0.1,1,0.4,1.5c0.3,0.3,0.7,0.5,1.2,0.5c0.5,0,0.9-0.2,1.2-0.5
		c0.3-0.4,0.5-1,0.4-1.5c0-0.5-0.1-1-0.4-1.5C982.2,16.3,981.8,16.1,981.3,16.1L981.3,16.1z M988.8,15.4l-7.2,11.3h-1.1l7.2-11.3
		L988.8,15.4z M987.9,26.7c-0.7,0-1.4-0.2-1.8-0.8c-0.5-0.6-0.7-1.3-0.7-2c0-0.8,0.2-1.6,0.7-2.2c0.5-0.6,1.2-0.9,2-0.8
		c0.7,0,1.4,0.2,1.8,0.8c0.5,0.6,0.7,1.3,0.7,2.1c0,0.8-0.2,1.6-0.7,2.1C989.4,26.5,988.7,26.8,987.9,26.7L987.9,26.7z M988,21.8
		c-0.5,0-0.9,0.2-1.2,0.5c-0.3,0.4-0.5,1-0.4,1.5c0,0.5,0.1,1,0.4,1.5c0.3,0.4,0.7,0.5,1.2,0.5c0.4,0,0.9-0.2,1.1-0.5
		c0.3-0.4,0.4-1,0.4-1.5c0-0.5-0.1-1-0.4-1.5C988.9,22,988.4,21.8,988,21.8L988,21.8z"/>
	<path class="st19" d="M991.5,28.5c1.4-1.9,2.1-4.2,2-6.5c0.1-2.3-0.6-4.6-2-6.5h1.1c1.4,1.9,2.2,4.2,2.1,6.5
		c0.1,2.4-0.7,4.7-2.1,6.5H991.5z"/>
	<path class="st19" d="M1138,16.6h-4.4v3.9h4.1v1.2h-4.1v5h-1.3V15.4h5.7V16.6z"/>
	<path class="st19" d="M1143.3,26.8c-1.1,0-2.1-0.4-2.8-1.1c-0.7-0.8-1.1-1.9-1.1-3c-0.1-1.2,0.3-2.3,1.1-3.1c0.8-0.8,1.9-1.2,3-1.1
		c1-0.1,2.1,0.3,2.8,1.1c0.7,0.9,1.1,1.9,1,3c0.1,1.1-0.3,2.2-1.1,3.1C1145.5,26.4,1144.4,26.8,1143.3,26.8z M1143.4,19.5
		c-0.8,0-1.5,0.3-2,0.8c-0.5,0.7-0.8,1.5-0.7,2.3c0,0.8,0.2,1.6,0.7,2.2c0.5,0.6,1.2,0.9,2,0.8c0.7,0,1.4-0.3,1.9-0.8
		c0.5-0.7,0.7-1.5,0.7-2.3c0.1-0.8-0.2-1.6-0.7-2.3C1144.8,19.7,1144.1,19.4,1143.4,19.5z"/>
	<path class="st19" d="M1153.5,19.9c-0.3-0.2-0.6-0.3-1-0.3c-0.6,0-1.1,0.3-1.4,0.8c-0.4,0.6-0.6,1.4-0.6,2.1v4.1h-1.3v-8h1.3v1.6
		l0,0c0.1-0.5,0.4-1,0.8-1.3c0.4-0.3,0.8-0.5,1.3-0.5c0.3,0,0.5,0,0.8,0.1L1153.5,19.9z"/>
	<path class="st19" d="M1161.1,22.9h-5.7c0,0.8,0.2,1.5,0.7,2.1c0.5,0.5,1.2,0.8,1.9,0.7c0.9,0,1.8-0.3,2.5-0.9V26
		c-0.8,0.5-1.8,0.8-2.8,0.8c-1,0.1-2-0.3-2.7-1.1c-0.7-0.9-1.1-2-1-3.1c0-1.1,0.3-2.2,1.1-3c0.7-0.8,1.6-1.2,2.6-1.2
		c0.9-0.1,1.8,0.3,2.4,1c0.6,0.8,0.9,1.8,0.9,2.8L1161.1,22.9z M1159.8,21.8c0-0.6-0.2-1.2-0.5-1.7c-0.4-0.4-0.9-0.6-1.5-0.6
		c-0.6,0-1.1,0.2-1.5,0.6c-0.4,0.5-0.7,1.1-0.8,1.7H1159.8z"/>
	<path class="st19" d="M1168.5,26.2c-0.7,0.4-1.4,0.6-2.2,0.6c-1,0-2-0.4-2.8-1.1c-0.7-0.8-1.1-1.8-1-2.9c-0.1-1.2,0.3-2.3,1.1-3.2
		c0.8-0.8,1.9-1.2,3-1.2c0.6,0,1.3,0.1,1.9,0.4v1.3c-0.6-0.4-1.2-0.6-1.9-0.6c-0.8,0-1.5,0.3-2,0.9c-0.5,0.6-0.8,1.5-0.8,2.3
		c0,0.8,0.2,1.6,0.7,2.2c0.5,0.6,1.2,0.9,2,0.8c0.7,0,1.4-0.2,2-0.7L1168.5,26.2z"/>
	<path class="st19" d="M1176.2,26.6h-1.3v-1.2l0,0c-0.5,0.9-1.4,1.5-2.5,1.4c-0.7,0-1.4-0.2-1.9-0.6c-0.5-0.4-0.7-1-0.7-1.7
		c0-1.5,0.9-2.4,2.6-2.6l2.4-0.3c0-1.3-0.6-2-1.7-2c-1,0-1.9,0.4-2.6,1v-1.4c0.8-0.5,1.8-0.8,2.7-0.8c1.9,0,2.8,1,2.8,3L1176.2,26.6
		z M1174.9,22.5l-1.9,0.3c-0.5,0-0.9,0.2-1.3,0.4c-0.3,0.3-0.5,0.7-0.5,1.1c0,0.4,0.1,0.7,0.4,1c0.3,0.3,0.7,0.4,1.1,0.4
		c0.6,0,1.2-0.2,1.6-0.7c0.4-0.5,0.6-1.1,0.6-1.7V22.5z"/>
	<path class="st19" d="M1178.1,26.3v-1.4c0.7,0.5,1.5,0.8,2.3,0.8c1.1,0,1.7-0.4,1.7-1.1c0-0.2,0-0.4-0.1-0.5
		c-0.1-0.2-0.2-0.3-0.4-0.4c-0.2-0.1-0.4-0.2-0.6-0.3l-0.7-0.3c-0.3-0.1-0.7-0.3-0.9-0.4c-0.2-0.1-0.5-0.3-0.7-0.5
		c-0.2-0.2-0.3-0.4-0.4-0.6c-0.1-0.3-0.1-0.5-0.1-0.8c0-0.3,0.1-0.7,0.2-1c0.2-0.3,0.4-0.5,0.7-0.7c0.3-0.2,0.6-0.3,1-0.4
		c0.4-0.1,0.8-0.2,1.1-0.1c0.6,0,1.3,0.1,1.9,0.4v1.3c-0.6-0.4-1.3-0.6-2-0.6c-0.2,0-0.4,0-0.7,0.1c-0.2,0.1-0.3,0.1-0.5,0.2
		c-0.1,0.1-0.2,0.2-0.3,0.4c-0.1,0.1-0.1,0.3-0.1,0.5c0,0.2,0,0.4,0.1,0.5c0.1,0.1,0.2,0.3,0.3,0.4c0.2,0.1,0.3,0.2,0.5,0.3l0.7,0.3
		c0.3,0.1,0.7,0.3,1,0.4c0.3,0.1,0.5,0.3,0.7,0.5c0.2,0.2,0.3,0.4,0.4,0.6c0.1,0.3,0.2,0.6,0.2,0.8c0,0.4-0.1,0.7-0.3,1
		c-0.2,0.3-0.4,0.5-0.7,0.7c-0.3,0.2-0.6,0.3-1,0.4c-0.4,0.1-0.8,0.1-1.2,0.1C1179.6,26.8,1178.8,26.6,1178.1,26.3z"/>
	<path class="st19" d="M1189.1,26.5c-0.4,0.2-0.8,0.3-1.2,0.2c-1.4,0-2.1-0.8-2.1-2.3v-4.7h-1.4v-1.1h1.4v-2l1.3-0.4v2.4h2v1.1h-2
		v4.5c0,0.4,0.1,0.8,0.3,1.2c0.2,0.3,0.6,0.4,0.9,0.3c0.3,0,0.6-0.1,0.8-0.3L1189.1,26.5z"/>
	<path class="st19" d="M1198.1,15.5c-1.4,1.9-2.1,4.2-2,6.6c-0.1,2.3,0.6,4.6,2,6.5h-1.1c-1.4-1.9-2.1-4.2-2.1-6.5
		c-0.1-2.4,0.7-4.7,2.1-6.5L1198.1,15.5z"/>
	<path class="st19" d="M1198.8,25.8l3.8-10h1.6l3.7,10v0.8h-9.1L1198.8,25.8z M1206.3,25.4l-2.2-5.9c-0.3-0.8-0.6-1.7-0.8-2.4l0,0
		c-0.2,0.5-0.4,1.4-0.7,2.2l-2.3,6.1H1206.3z"/>
	<path class="st19" d="M1219.1,15.4l-5.4,13.1h-1.2l5.4-13.1L1219.1,15.4z"/>
	<path class="st19" d="M1226.5,21c-0.7,0-1.4-0.3-1.8-0.8c-0.5-0.6-0.7-1.3-0.7-2c0-0.8,0.2-1.6,0.7-2.2c0.5-0.6,1.2-0.9,2-0.8
		c0.7,0,1.4,0.2,1.8,0.7c0.5,0.6,0.7,1.3,0.7,2.1c0,0.8-0.2,1.6-0.7,2.2C1228,20.8,1227.2,21,1226.5,21z M1226.6,16.1
		c-0.5,0-0.9,0.2-1.2,0.5c-0.3,0.4-0.5,1-0.4,1.5c0,0.5,0.1,1,0.4,1.5c0.3,0.4,0.7,0.5,1.2,0.5c0.5,0,0.9-0.2,1.2-0.5
		c0.3-0.4,0.4-1,0.4-1.5c0-0.5-0.1-1-0.4-1.5C1227.4,16.3,1227,16.1,1226.6,16.1L1226.6,16.1z M1234,15.4l-7.2,11.3h-1.1l7.2-11.3
		L1234,15.4z M1233.2,26.7c-0.7,0-1.4-0.2-1.8-0.8c-0.5-0.6-0.7-1.3-0.7-2c0-0.8,0.2-1.6,0.7-2.2c0.5-0.6,1.2-0.9,2-0.8
		c0.7,0,1.4,0.2,1.8,0.8c0.5,0.6,0.7,1.3,0.7,2.1c0,0.8-0.2,1.5-0.7,2.1C1234.6,26.5,1233.9,26.8,1233.2,26.7L1233.2,26.7z
		 M1233.3,21.8c-0.5,0-0.9,0.2-1.2,0.5c-0.3,0.4-0.5,1-0.4,1.5c0,0.5,0.1,1,0.4,1.5c0.3,0.3,0.7,0.5,1.2,0.5c0.5,0,0.9-0.2,1.2-0.5
		c0.3-0.4,0.4-1,0.4-1.5c0-0.5-0.1-1-0.4-1.5C1234.1,22,1233.7,21.8,1233.3,21.8L1233.3,21.8z"/>
	<path class="st19" d="M1236.8,28.5c1.4-1.9,2.1-4.2,2-6.5c0.1-2.3-0.6-4.6-2-6.5h1.1c1.4,1.9,2.2,4.2,2.1,6.5
		c0.1,2.4-0.7,4.7-2.1,6.5H1236.8z"/>
	<path class="st18" d="M29.7,276.6h-1.6l-5.8-8.9c-0.1-0.2-0.2-0.5-0.3-0.7l0,0c0.1,0.5,0.1,1,0.1,1.5v8.1h-1.4v-11.2h1.7l5.6,8.8
		c0.2,0.4,0.4,0.6,0.5,0.8l0,0c-0.1-0.5-0.1-1.1-0.1-1.6v-7.9h1.3V276.6z"/>
	<path class="st18" d="M38.6,276.6h-5.9v-11.2h5.7v1.2H34v3.7h4v1.2h-4v3.9h4.6L38.6,276.6z"/>
	<path class="st18" d="M47.4,266.6h-3.2v10h-1.3v-10h-3.2v-1.2h7.8V266.6z"/>
	<path class="st18" d="M58.4,265.4L53,278.5h-1.2l5.4-13.1H58.4z"/>
	<path class="st18" d="M71.8,276.2c-1,0.5-2,0.7-3.1,0.6c-1.4,0.1-2.8-0.5-3.8-1.5c-1-1.1-1.5-2.5-1.4-4c-0.1-1.6,0.5-3.2,1.6-4.4
		c1.1-1.1,2.6-1.7,4.1-1.6c0.9,0,1.8,0.1,2.6,0.5v1.4c-0.8-0.5-1.7-0.7-2.7-0.7c-1.2,0-2.3,0.4-3.1,1.3c-0.8,1-1.3,2.2-1.2,3.5
		c-0.1,1.2,0.3,2.4,1.1,3.3c0.8,0.8,1.8,1.3,2.9,1.2c1,0,2-0.2,2.9-0.8L71.8,276.2z"/>
	<path class="st18" d="M80.3,276.6h-1.3v-1.3l0,0c-0.5,0.9-1.4,1.5-2.5,1.5c-1.9,0-2.9-1.1-2.9-3.4v-4.8H75v4.6
		c0,1.7,0.7,2.5,1.9,2.5c0.6,0,1.2-0.2,1.5-0.7c0.4-0.5,0.6-1.1,0.6-1.8v-4.6h1.3L80.3,276.6z"/>
	<path class="st18" d="M82.4,276.4V275c0.7,0.5,1.5,0.8,2.3,0.8c1.1,0,1.7-0.4,1.7-1.1c0-0.2,0-0.4-0.2-0.5
		c-0.1-0.2-0.2-0.3-0.4-0.4c-0.2-0.1-0.4-0.2-0.6-0.3l-0.7-0.3c-0.3-0.1-0.6-0.3-0.9-0.4c-0.2-0.1-0.5-0.3-0.7-0.5
		c-0.2-0.2-0.3-0.4-0.4-0.6c-0.1-0.3-0.1-0.5-0.1-0.8c0-0.4,0.1-0.7,0.3-1c0.2-0.3,0.4-0.5,0.7-0.7c0.3-0.2,0.6-0.4,1-0.4
		c0.4-0.1,0.8-0.2,1.1-0.1c0.6,0,1.3,0.1,1.9,0.4v1.3c-0.6-0.4-1.3-0.6-2-0.6c-0.2,0-0.4,0-0.7,0.1c-0.2,0-0.3,0.1-0.5,0.2
		c-0.1,0.1-0.2,0.2-0.3,0.4c-0.1,0.1-0.1,0.3-0.1,0.5c0,0.2,0,0.4,0.1,0.5c0.1,0.1,0.2,0.3,0.3,0.4c0.2,0.1,0.3,0.2,0.5,0.3l0.7,0.3
		c0.3,0.1,0.7,0.3,1,0.4c0.3,0.1,0.5,0.3,0.7,0.5c0.2,0.2,0.3,0.4,0.5,0.6c0.1,0.3,0.2,0.6,0.2,0.8c0,0.4-0.1,0.7-0.3,1
		c-0.2,0.3-0.4,0.5-0.7,0.7c-0.3,0.2-0.6,0.3-1,0.4c-1.1,0.3-2.3,0.2-3.3-0.3L82.4,276.4z"/>
	<path class="st18" d="M93.4,276.6c-0.4,0.2-0.8,0.3-1.2,0.2c-1.4,0-2.1-0.8-2.1-2.4v-4.7h-1.4v-1.1h1.4v-2l1.3-0.4v2.4h2v1.1h-2
		v4.5c0,0.4,0.1,0.8,0.3,1.1c0.2,0.2,0.6,0.4,0.9,0.3c0.3,0,0.6-0.1,0.8-0.3L93.4,276.6z"/>
	<path class="st18" d="M98.4,276.8c-1.1,0.1-2.1-0.4-2.8-1.1c-0.7-0.8-1.1-1.9-1.1-3c-0.1-1.2,0.3-2.3,1.1-3.1
		c0.8-0.8,1.9-1.2,3-1.1c1-0.1,2.1,0.3,2.8,1.1c0.7,0.9,1.1,1.9,1,3.1c0.1,1.1-0.3,2.2-1.1,3.1C100.5,276.5,99.5,276.9,98.4,276.8z
		 M98.5,269.5c-0.7,0-1.5,0.3-1.9,0.8c-0.5,0.7-0.8,1.5-0.7,2.3c0,0.8,0.2,1.6,0.7,2.2c0.5,0.5,1.2,0.8,1.9,0.8
		c0.7,0,1.4-0.3,1.9-0.8c0.5-0.7,0.7-1.5,0.7-2.3c0.1-0.8-0.2-1.6-0.7-2.3C99.9,269.8,99.2,269.5,98.5,269.5L98.5,269.5z"/>
	<path class="st18" d="M115.8,276.6h-1.3V272c0-0.7-0.1-1.3-0.4-1.9c-0.3-0.4-0.8-0.6-1.4-0.6c-0.6,0-1.1,0.3-1.4,0.8
		c-0.4,0.5-0.6,1.1-0.6,1.8v4.6h-1.3v-4.8c0-1.6-0.6-2.4-1.8-2.4c-0.6,0-1.1,0.3-1.4,0.7c-0.4,0.5-0.6,1.2-0.6,1.8v4.6h-1.3v-8h1.3
		v1.3l0,0c0.5-0.9,1.5-1.5,2.5-1.5c1,0,2,0.7,2.3,1.7c0.5-1,1.5-1.7,2.7-1.7c1.8,0,2.6,1.1,2.6,3.3L115.8,276.6z"/>
	<path class="st18" d="M124.6,273H119c0,0.8,0.2,1.5,0.7,2.1c0.5,0.5,1.2,0.8,1.9,0.7c0.9,0,1.8-0.3,2.5-0.9v1.2
		c-0.8,0.5-1.8,0.8-2.8,0.8c-1,0.1-2-0.3-2.7-1.1c-1.3-1.8-1.3-4.3,0.1-6.1c0.7-0.8,1.6-1.2,2.6-1.2c0.9-0.1,1.8,0.3,2.4,1
		c0.6,0.8,0.9,1.8,0.9,2.8L124.6,273z M123.3,271.9c0-0.6-0.2-1.2-0.5-1.7c-0.4-0.4-0.9-0.6-1.5-0.6c-0.6,0-1.1,0.2-1.5,0.6
		c-0.4,0.5-0.7,1.1-0.8,1.7H123.3z"/>
	<path class="st18" d="M130.7,269.9c-0.3-0.2-0.6-0.3-1-0.2c-0.6,0-1.1,0.3-1.4,0.8c-0.4,0.6-0.6,1.4-0.6,2.1v4.1h-1.3v-8h1.3v1.6
		l0,0c0.1-0.5,0.4-1,0.8-1.3c0.3-0.3,0.8-0.5,1.2-0.5c0.3,0,0.5,0,0.8,0.1L130.7,269.9z"/>
	<path class="st18" d="M29.7,67.6h-1.6l-5.8-8.9c-0.1-0.2-0.2-0.5-0.3-0.7l0,0c0,0.5,0,1,0,1.6v8.1h-1.3V56.4h1.7l5.6,8.8
		c0.2,0.2,0.3,0.5,0.5,0.8l0,0c-0.1-0.5-0.1-1.1-0.1-1.7v-7.9h1.3V67.6z"/>
	<path class="st18" d="M38.6,67.6h-5.9V56.4h5.7v1.2H34v3.7h4v1.2h-4v3.9h4.6L38.6,67.6z"/>
	<path class="st18" d="M47.4,57.6h-3.2v10h-1.3v-10h-3.2v-1.2h7.8V57.6z"/>
	<path class="st18" d="M61.9,56.4l-4.2,11.2h-1.4l-4.1-11.2h1.5l3.1,8.9c0.1,0.3,0.2,0.7,0.2,1l0,0c0.1-0.3,0.1-0.7,0.3-1l3.2-8.9
		L61.9,56.4z"/>
	<path class="st18" d="M67.9,67.6h-1.3v-1.2l0,0c-0.5,0.9-1.4,1.5-2.5,1.4c-0.7,0-1.4-0.2-1.9-0.6c-0.5-0.4-0.7-1-0.7-1.7
		c0-1.5,0.9-2.4,2.7-2.6l2.4-0.3c0-1.4-0.6-2-1.6-2c-1,0-1.9,0.4-2.6,1v-1.4c0.8-0.5,1.8-0.8,2.7-0.8c1.9,0,2.8,1,2.8,3L67.9,67.6z
		 M66.6,63.6l-1.9,0.3c-0.5,0-0.9,0.2-1.3,0.4c-0.3,0.3-0.5,0.7-0.4,1.1c0,0.4,0.1,0.7,0.4,1c0.3,0.3,0.7,0.4,1.1,0.4
		c0.6,0,1.2-0.3,1.6-0.8c0.4-0.5,0.6-1.1,0.6-1.7L66.6,63.6z"/>
	<path class="st18" d="M71.6,67.6h-1.3V55.8h1.3V67.6z"/>
	<path class="st18" d="M80.6,67.6h-1.3v-1.3l0,0c-0.5,0.9-1.4,1.5-2.5,1.5c-1.9,0-2.9-1.1-2.9-3.4v-4.8h1.3v4.6
		c0,1.7,0.6,2.5,1.9,2.5c0.6,0,1.2-0.2,1.6-0.7c0.4-0.5,0.6-1.2,0.6-1.8v-4.6h1.3L80.6,67.6z"/>
	<path class="st18" d="M89.7,64H84c0,0.7,0.2,1.4,0.7,2c0.5,0.5,1.2,0.8,1.9,0.7c0.9,0,1.8-0.3,2.5-0.9V67c-0.8,0.5-1.8,0.8-2.8,0.8
		c-1,0-2-0.4-2.7-1.1c-0.7-0.9-1.1-2-1-3.1c0-1.1,0.3-2.2,1.1-3c0.7-0.8,1.6-1.2,2.6-1.2c0.9-0.1,1.8,0.3,2.4,1
		c0.6,0.8,0.9,1.8,0.9,2.8L89.7,64z M88.3,62.9c0-0.6-0.2-1.2-0.5-1.7c-0.4-0.4-0.9-0.6-1.5-0.6c-0.6,0-1.1,0.2-1.5,0.7
		c-0.4,0.4-0.7,1-0.8,1.7L88.3,62.9z"/>
	<path class="st18" d="M29.7,186.6h-1.6l-5.8-8.9c-0.1-0.2-0.2-0.5-0.3-0.7l0,0c0.1,0.5,0.1,1,0.1,1.5v8.1h-1.4v-11.2h1.7l5.6,8.8
		c0.2,0.2,0.3,0.5,0.5,0.8l0,0c-0.1-0.5-0.1-1.1-0.1-1.6v-7.9h1.3V186.6z"/>
	<path class="st18" d="M38.9,183h-5.7c0,0.7,0.3,1.4,0.8,2c0.5,0.5,1.2,0.8,1.9,0.7c0.9,0,1.8-0.3,2.5-0.9v1.2
		c-0.8,0.5-1.8,0.8-2.8,0.8c-1,0.1-2-0.3-2.7-1.1c-0.7-0.9-1.1-2-1-3.1c0-1.1,0.3-2.2,1.1-3c0.7-0.8,1.6-1.2,2.6-1.2
		c0.9-0.1,1.8,0.3,2.4,1c0.6,0.8,0.9,1.8,0.9,2.8V183z M37.6,181.9c0-0.6-0.2-1.2-0.5-1.7c-0.4-0.4-0.9-0.6-1.5-0.6
		c-0.6,0-1.1,0.2-1.5,0.6c-0.4,0.5-0.7,1.1-0.8,1.7H37.6z"/>
	<path class="st18" d="M44.5,186.6c-0.4,0.2-0.8,0.3-1.2,0.2c-1.4,0-2.1-0.8-2.1-2.3v-4.7h-1.4v-1.1h1.4v-2l1.3-0.4v2.4h2v1.1h-2
		v4.5c0,0.4,0.1,0.8,0.3,1.1c0.2,0.2,0.6,0.4,0.9,0.3c0.3,0,0.6-0.1,0.8-0.3V186.6z"/>
	<path class="st18" d="M64.1,175.4l-3.2,11.2h-1.5l-2.3-8.2c-0.1-0.4-0.2-0.8-0.2-1.1l0,0c0,0.4-0.1,0.8-0.2,1.1l-2.3,8.2h-1.5
		l-3.3-11.2H51l2.4,8.6c0.1,0.4,0.2,0.7,0.2,1.1l0,0c0.1-0.4,0.1-0.8,0.2-1.1l2.5-8.6h1.3l2.5,8.7c0.1,0.3,0.2,0.7,0.2,1.1l0,0
		c0-0.4,0.1-0.7,0.2-1.1l2.3-8.6L64.1,175.4z"/>
	<path class="st18" d="M71.6,183H66c0,0.7,0.2,1.4,0.7,2c0.5,0.5,1.2,0.8,1.9,0.7c0.9,0,1.8-0.3,2.5-0.9v1.2
		c-0.8,0.5-1.8,0.8-2.8,0.8c-1,0.1-2-0.3-2.7-1.1c-0.7-0.9-1.1-2-1-3.1c-0.1-1.1,0.3-2.2,1-3c0.7-0.8,1.6-1.2,2.6-1.2
		c0.9-0.1,1.8,0.3,2.4,1c0.6,0.8,0.9,1.8,0.9,2.8L71.6,183z M70.3,181.9c0-0.6-0.2-1.2-0.5-1.7c-0.4-0.4-0.9-0.6-1.5-0.6
		c-0.6,0-1.1,0.2-1.5,0.6c-0.4,0.5-0.7,1.1-0.8,1.7H70.3z"/>
	<path class="st18" d="M74.2,176.6c-0.2,0-0.4-0.1-0.6-0.2c-0.3-0.3-0.3-0.9,0-1.2c0.3-0.3,0.8-0.3,1.2,0c0.3,0.3,0.3,0.8,0,1.2
		c0,0,0,0,0,0C74.7,176.5,74.5,176.6,74.2,176.6z M74.9,186.6h-1.3v-8h1.3L74.9,186.6z"/>
	<path class="st18" d="M84.3,186c0,2.9-1.4,4.4-4.2,4.4c-0.9,0-1.8-0.2-2.6-0.6v-1.3c0.8,0.5,1.7,0.7,2.6,0.8c2,0,2.9-1,2.9-3.1
		v-0.9l0,0c-0.9,1.5-2.9,2-4.4,1c-0.3-0.2-0.5-0.4-0.7-0.6c-0.6-0.8-1-1.8-0.9-2.9c-0.1-1.2,0.3-2.3,1-3.2c0.6-0.8,1.6-1.3,2.7-1.2
		c1-0.1,1.9,0.5,2.4,1.3l0,0v-1.1h1.3L84.3,186z M83,183v-1.2c0-0.6-0.2-1.2-0.6-1.6c-0.4-0.4-1-0.7-1.6-0.7c-0.7,0-1.4,0.3-1.9,0.9
		c-0.5,0.7-0.7,1.6-0.7,2.4c0,0.8,0.2,1.5,0.7,2.1c0.4,0.5,1,0.8,1.7,0.8c0.7,0,1.3-0.3,1.8-0.8C82.8,184.4,83,183.7,83,183z"/>
	<path class="st18" d="M93.5,186.6h-1.3V182c0-1.7-0.6-2.5-1.9-2.5c-0.6,0-1.2,0.3-1.6,0.7c-0.4,0.5-0.7,1.2-0.6,1.9v4.5h-1.3v-11.8
		h1.3v5.2l0,0c0.5-1,1.5-1.5,2.6-1.5c1.8,0,2.7,1.1,2.7,3.3L93.5,186.6z"/>
	<path class="st18" d="M99.6,186.6c-0.4,0.2-0.8,0.3-1.2,0.2c-1.4,0-2.1-0.8-2.1-2.3v-4.7H95v-1.1h1.4v-2l1.3-0.4v2.4h2v1.1h-2v4.5
		c0,0.4,0.1,0.8,0.3,1.1c0.2,0.2,0.6,0.4,0.9,0.3c0.3,0,0.6-0.1,0.8-0.3L99.6,186.6z"/>
	<path class="st18" d="M114.6,114.9h-1.3v-7.5c0-0.6,0-1.3,0.1-2.2l0,0c-0.1,0.4-0.2,0.7-0.3,1.1l-3.8,8.6h-0.6l-3.8-8.6
		c-0.1-0.4-0.3-0.8-0.3-1.2l0,0c0,0.4,0.1,1.2,0.1,2.2v7.5h-1.3v-11.2h1.7l3.4,7.8c0.2,0.4,0.4,0.9,0.5,1.3h0.1
		c0.2-0.6,0.4-1.1,0.5-1.4l3.5-7.8h1.6L114.6,114.9z"/>
	<path class="st18" d="M125.2,114.4c-1,0.5-2,0.7-3.1,0.7c-1.4,0.1-2.8-0.5-3.8-1.5c-1-1.1-1.5-2.5-1.4-4c-0.1-1.6,0.5-3.2,1.6-4.3
		c1.1-1.1,2.6-1.7,4.1-1.7c0.9,0,1.8,0.1,2.6,0.5v1.4c-0.8-0.5-1.7-0.7-2.7-0.7c-1.2-0.1-2.3,0.4-3.1,1.3c-0.8,1-1.3,2.2-1.2,3.4
		c-0.1,1.2,0.3,2.4,1.1,3.3c0.8,0.8,1.8,1.3,2.9,1.2c1,0,2-0.2,2.9-0.8V114.4z"/>
	<path class="st18" d="M129.1,109.3c-0.7,0-1.4-0.2-1.8-0.8c-0.5-0.6-0.7-1.3-0.7-2c0-0.8,0.2-1.6,0.7-2.2c0.5-0.6,1.2-0.8,2-0.8
		c0.7,0,1.4,0.2,1.9,0.8c0.5,0.6,0.7,1.3,0.7,2.1c0,0.8-0.2,1.6-0.7,2.2C130.6,109.1,129.9,109.4,129.1,109.3z M129.3,104.4
		c-0.5,0-0.9,0.2-1.2,0.6c-0.3,0.4-0.5,1-0.4,1.5c0,0.5,0.1,1,0.4,1.5c0.3,0.3,0.7,0.5,1.1,0.5c0.5,0,0.9-0.2,1.1-0.6
		c0.3-0.4,0.4-1,0.4-1.5c0-0.5-0.1-1-0.4-1.5C130.1,104.6,129.7,104.4,129.3,104.4z M136.6,103.7l-7.2,11.3h-1.1l7.2-11.3
		L136.6,103.7z M135.8,115.1c-0.7,0-1.4-0.2-1.9-0.8c-0.5-0.6-0.7-1.3-0.7-2c0-0.8,0.2-1.6,0.7-2.2c0.5-0.5,1.2-0.8,1.9-0.8
		c0.7,0,1.4,0.2,1.9,0.8c0.5,0.6,0.7,1.3,0.7,2.1c0,0.8-0.2,1.5-0.7,2.1C137.3,114.8,136.6,115.1,135.8,115.1L135.8,115.1z
		 M135.9,110.1c-0.5,0-0.9,0.2-1.2,0.6c-0.3,0.4-0.5,1-0.4,1.5c0,0.5,0.1,1,0.4,1.5c0.3,0.3,0.7,0.5,1.1,0.5c0.5,0,0.9-0.2,1.1-0.6
		c0.3-0.4,0.5-1,0.4-1.5c0-0.5-0.1-1-0.4-1.5C136.8,110.3,136.4,110.1,135.9,110.1L135.9,110.1z"/>
	<path class="st18" d="M114.6,137.5h-1.3V130c0-0.6,0-1.3,0.1-2.2l0,0c-0.1,0.4-0.2,0.7-0.3,1.1l-3.8,8.6h-0.6l-3.8-8.6
		c-0.1-0.4-0.3-0.8-0.3-1.1l0,0c0,0.4,0.1,1.2,0.1,2.2v7.5h-1.3v-11.2h1.7l3.4,7.8c0.2,0.4,0.4,0.9,0.5,1.3h0.1
		c0.2-0.6,0.4-1.1,0.5-1.4l3.5-7.8h1.6L114.6,137.5z"/>
	<path class="st18" d="M125.2,137c-1,0.5-2,0.7-3.1,0.7c-1.4,0.1-2.8-0.5-3.8-1.5c-1-1.1-1.5-2.5-1.4-4c-0.1-1.6,0.5-3.2,1.6-4.3
		c1.1-1.1,2.6-1.7,4.1-1.7c0.9,0,1.8,0.1,2.6,0.5v1.4c-0.8-0.5-1.7-0.7-2.6-0.7c-1.2,0-2.3,0.4-3.1,1.3c-0.8,0.9-1.3,2.2-1.2,3.4
		c-0.1,1.2,0.3,2.4,1.1,3.3c0.8,0.8,1.8,1.3,2.9,1.2c1,0,2-0.2,2.9-0.8L125.2,137z"/>
	<path class="st18" d="M32.1,126.9h-1.3v-7.5c0-0.6,0-1.3,0.1-2.2l0,0c-0.1,0.4-0.2,0.7-0.3,1.1l-3.9,8.6h-0.6l-3.8-8.6
		c-0.1-0.4-0.3-0.8-0.3-1.2l0,0c0,0.4,0.1,1.2,0.1,2.2v7.5h-1.3v-11.2h1.7l3.4,7.8c0.2,0.4,0.4,0.9,0.5,1.3l0,0
		c0.2-0.6,0.4-1.1,0.5-1.4l3.5-7.8H32L32.1,126.9z"/>
	<path class="st18" d="M40.6,126.9h-1.3v-1.2l0,0c-0.5,0.9-1.4,1.5-2.5,1.4c-0.7,0-1.4-0.2-1.9-0.6c-0.5-0.4-0.7-1-0.7-1.7
		c0-1.5,0.9-2.4,2.6-2.6l2.4-0.3c0-1.3-0.5-2-1.7-2c-1,0-1.9,0.4-2.6,1v-1.3c0.8-0.5,1.8-0.8,2.7-0.8c1.9,0,2.8,1,2.8,3L40.6,126.9z
		 M39.3,122.8l-1.9,0.3c-0.5,0-0.9,0.2-1.3,0.4c-0.3,0.3-0.5,0.7-0.5,1.1c0,0.4,0.1,0.7,0.4,1c0.3,0.3,0.7,0.4,1.1,0.4
		c0.6,0,1.2-0.2,1.6-0.7c0.4-0.5,0.6-1.1,0.6-1.7L39.3,122.8z"/>
	<path class="st18" d="M47.2,120.2c-0.3-0.2-0.6-0.3-1-0.3c-0.6,0-1.1,0.3-1.4,0.8c-0.4,0.6-0.6,1.4-0.5,2.1v4.1H43v-8h1.3v1.6l0,0
		c0.1-0.5,0.4-1,0.8-1.3c0.3-0.3,0.8-0.5,1.2-0.5c0.3,0,0.5,0,0.8,0.1L47.2,120.2z"/>
	<path class="st18" d="M55.2,126.3c0,2.9-1.4,4.4-4.2,4.4c-0.9,0-1.8-0.2-2.6-0.6v-1.3c0.8,0.5,1.7,0.7,2.6,0.8c2,0,3-1,3-3.1v-0.9
		l0,0c-0.9,1.5-2.9,2-4.5,1c-0.3-0.2-0.5-0.4-0.7-0.6c-0.6-0.8-1-1.8-0.9-2.9c-0.1-1.2,0.3-2.3,1-3.2c0.7-0.8,1.7-1.2,2.7-1.2
		c1-0.1,1.9,0.5,2.4,1.3l0,0v-1.1h1.3L55.2,126.3z M53.9,123.3v-1.2c0-0.6-0.2-1.2-0.7-1.6c-0.4-0.4-1-0.7-1.6-0.7
		c-0.7,0-1.4,0.3-1.9,0.9c-0.5,0.7-0.7,1.6-0.7,2.4c0,0.8,0.2,1.5,0.7,2.1c0.4,0.5,1,0.8,1.7,0.8c0.7,0,1.3-0.3,1.8-0.8
		C53.7,124.7,53.9,124,53.9,123.3L53.9,123.3z"/>
	<path class="st18" d="M58.4,116.9c-0.2,0-0.4-0.1-0.6-0.2c-0.2-0.2-0.2-0.4-0.2-0.6c0-0.5,0.3-0.8,0.8-0.8c0,0,0,0,0,0
		c0.2,0,0.4,0.1,0.6,0.2c0.2,0.2,0.2,0.4,0.2,0.6c0,0.2-0.1,0.4-0.2,0.6C58.9,116.8,58.7,116.9,58.4,116.9z M59.1,126.9h-1.3v-8h1.3
		L59.1,126.9z"/>
	<path class="st18" d="M68.3,126.9H67v-4.6c0-1.7-0.6-2.5-1.9-2.6c-0.6,0-1.2,0.2-1.6,0.7c-0.4,0.5-0.7,1.2-0.6,1.8v4.6h-1.3v-8h1.3
		v1.3l0,0c0.5-1,1.5-1.5,2.6-1.5c0.8,0,1.5,0.3,2,0.8c0.5,0.7,0.8,1.6,0.7,2.4L68.3,126.9z"/>
</g>
</svg>
