<?xml version="1.0" encoding="utf-8"?>
<!-- Generator: Adobe Illustrator 25.4.1, SVG Export Plug-In . SVG Version: 6.00 Build 0)  -->
<svg version="1.1" id="icones" xmlns="http://www.w3.org/2000/svg" xmlns:xlink="http://www.w3.org/1999/xlink" x="0px" y="0px"
	 viewBox="0 0 1176 288" style="enable-background:new 0 0 1176 288;" xml:space="preserve">
<style type="text/css">
	.st0{fill:url(#SVGID_1_);}
	.st1{fill:#C06F6C;}
	.st2{fill:url(#SVGID_00000001663064395163807330000007893195354803398547_);}
	.st3{fill:#5E75A0;}
	.st4{fill:#D3AD6A;}
	.st5{fill:#6CACA0;}
	.st6{fill:#5E4B4B;}
	.st7{fill:#414951;}
	.st8{fill:#D8E4E3;}
	.st9{fill:#5B564F;}
	.st10{fill:#51605C;}
	.st11{fill:url(#SVGID_00000181054970904871505090000012917061012652375471_);}
	.st12{fill:url(#SVGID_00000152953301634369592600000012887992623025284001_);}
	.st13{fill:url(#SVGID_00000148618998043250525900000006520852381117254574_);}
	.st14{fill:url(#SVGID_00000040534540635573534260000007908384696089256620_);}
	.st15{fill:url(#SVGID_00000160889756272864913780000013352127953645424044_);}
	.st16{fill:url(#SVGID_00000053546878388072311780000011222057466414790321_);}
	.st17{fill:#556464;stroke:#566564;stroke-width:0.4;stroke-miterlimit:10;}
	.st18{fill:#FFFFFF;stroke:#FFFFFF;stroke-width:0.4;stroke-miterlimit:10;}
	.st19{opacity:0.75;}
	.st20{opacity:0.3;}
	.st21{fill:none;stroke:#FFFFFF;stroke-miterlimit:10;}
	.st22{fill:url(#SVGID_00000106831078869788371100000005037848996364054964_);}
</style>
<linearGradient id="SVGID_1_" gradientUnits="userSpaceOnUse" x1="542" y1="802" x2="542" y2="830" gradientTransform="matrix(1 0 0 1 0 -554)">
	<stop  offset="0.3" style="stop-color:#6CACA0"/>
	<stop  offset="0.7" style="stop-color:#5E75A0"/>
</linearGradient>
<path class="st0" d="M16,248h1052c4.4,0,8,3.6,8,8v12c0,4.4-3.6,8-8,8H16c-4.4,0-8-3.6-8-8v-12C8,251.6,11.6,248,16,248z"/>
<path class="st1" d="M16,96h1052c4.4,0,8,3.6,8,8v32c0,4.4-3.6,8-8,8H16c-4.4,0-8-3.6-8-8v-32C8,99.6,11.6,96,16,96z"/>
<linearGradient id="SVGID_00000029006706894535097660000005198258268285098423_" gradientUnits="userSpaceOnUse" x1="542" y1="828" x2="542" y2="804" gradientTransform="matrix(1 0 0 1 0 -554)">
	<stop  offset="0.3" style="stop-color:#6CACA0"/>
	<stop  offset="0.7" style="stop-color:#5E75A0"/>
</linearGradient>
<path style="fill:url(#SVGID_00000029006706894535097660000005198258268285098423_);" d="M16.6,250h1050.8c3.6,0,6.6,3,6.6,6.6v10.8
	c0,3.6-3,6.6-6.6,6.6H16.6c-3.6,0-6.6-3-6.6-6.6v-10.8C10,253,13,250,16.6,250z"/>
<path class="st3" d="M16,52h1052c4.4,0,8,3.6,8,8v12c0,4.4-3.6,8-8,8H16c-4.4,0-8-3.6-8-8V60C8,55.6,11.6,52,16,52z"/>
<path class="st4" d="M16,160h1052c4.4,0,8,3.6,8,8v12c0,4.4-3.6,8-8,8H16c-4.4,0-8-3.6-8-8v-12C8,163.6,11.6,160,16,160z"/>
<path class="st5" d="M16,204h1052c4.4,0,8,3.6,8,8v12c0,4.4-3.6,8-8,8H16c-4.4,0-8-3.6-8-8v-12C8,207.6,11.6,204,16,204z"/>
<path class="st6" d="M1156,92H996c-6.6,0-12,5.4-12,12v32c0,6.6,5.4,12,12,12h160c6.6,0,12-5.4,12-12v-32
	C1168,97.4,1162.6,92,1156,92z M1004,122v14c0,3.3-2.7,6-6,6s-6-2.7-6-6v-14H1004z M992,118v-14c0-3.3,2.7-6,6-6s6,2.7,6,6v14H992z"
	/>
<path class="st7" d="M1156,48H996c-6.6,0-12,5.4-12,12v12c0,6.6,5.4,12,12,12h160c6.6,0,12-5.4,12-12V60
	C1168,53.4,1162.6,48,1156,48z M1004,72c0,3.3-2.7,6-6,6s-6-2.7-6-6V60c0-3.3,2.7-6,6-6s6,2.7,6,6V72z"/>
<path class="st8" d="M996,8h160c6.6,0,12,5.4,12,12v4c0,6.6-5.4,12-12,12H996c-6.6,0-12-5.4-12-12v-4C984,13.4,989.4,8,996,8z"/>
<path class="st9" d="M1156,156H996c-6.6,0-12,5.4-12,12v12c0,6.6,5.4,12,12,12h160c6.6,0,12-5.4,12-12v-12
	C1168,161.4,1162.6,156,1156,156z M1004,180c0,3.3-2.7,6-6,6s-6-2.7-6-6v-12c0-3.3,2.7-6,6-6s6,2.7,6,6V180z"/>
<path class="st10" d="M1156,200H996c-6.6,0-12,5.4-12,12v12c0,6.6,5.4,12,12,12h160c6.6,0,12-5.4,12-12v-12
	C1168,205.4,1162.6,200,1156,200z M1004,224c0,3.3-2.7,6-6,6s-6-2.7-6-6v-12c0-3.3,2.7-6,6-6s6,2.7,6,6V224z"/>
<linearGradient id="SVGID_00000106127822599595022010000008487568511986681262_" gradientUnits="userSpaceOnUse" x1="1076" y1="834" x2="1076" y2="798" gradientTransform="matrix(1 0 0 1 0 -554)">
	<stop  offset="0" style="stop-color:#51605C"/>
	<stop  offset="1" style="stop-color:#414951"/>
</linearGradient>
<path style="fill:url(#SVGID_00000106127822599595022010000008487568511986681262_);" d="M1156,244H996c-6.6,0-12,5.4-12,12v12
	c0,6.6,5.4,12,12,12h160c6.6,0,12-5.4,12-12v-12C1168,249.4,1162.6,244,1156,244z M1004,268c0,3.3-2.7,6-6,6s-6-2.7-6-6v-12
	c0-3.3,2.7-6,6-6s6,2.7,6,6V268z"/>
<path class="st6" d="M220,92h-88c-6.6,0-12,5.4-12,12v32c0,6.6,5.4,12,12,12h88c6.6,0,12-5.4,12-12v-32C232,97.4,226.6,92,220,92z
	 M140,122v14c0,3.3-2.7,6-6,6s-6-2.7-6-6v-14H140z M128,118v-14c0-3.3,2.7-6,6-6s6,2.7,6,6v14H128z"/>
<path class="st6" d="M340,92h-88c-6.6,0-12,5.4-12,12v32c0,6.6,5.4,12,12,12h88c6.6,0,12-5.4,12-12v-32C352,97.4,346.6,92,340,92z
	 M260,122v14c0,3.3-2.7,6-6,6c-3.3,0-6-2.7-6-6v-14H260z M248,118v-14c0-3.3,2.7-6,6-6c3.3,0,6,2.7,6,6v14H248z"/>
<path class="st6" d="M772,92H612c-6.6,0-12,5.4-12,12v32c0,6.6,5.4,12,12,12h160c6.6,0,12-5.4,12-12v-32C784,97.4,778.6,92,772,92z
	 M620,122v14c0,3.3-2.7,6-6,6s-6-2.7-6-6v-14H620z M608,118v-14c0-3.3,2.7-6,6-6s6,2.7,6,6v14H608z"/>
<path class="st6" d="M964,92H804c-6.6,0-12,5.4-12,12v32c0,6.6,5.4,12,12,12h160c6.6,0,12-5.4,12-12v-32C976,97.4,970.6,92,964,92z
	 M812,122v14c0,3.3-2.7,6-6,6s-6-2.7-6-6v-14H812z M800,118v-14c0-3.3,2.7-6,6-6s6,2.7,6,6v14H800z"/>
<path class="st6" d="M580,92h-88c-6.6,0-12,5.4-12,12v32c0,6.6,5.4,12,12,12h88c6.6,0,12-5.4,12-12v-32C592,97.4,586.6,92,580,92z
	 M500,122v14c0,3.3-2.7,6-6,6s-6-2.7-6-6v-14H500z M488,118v-14c0-3.3,2.7-6,6-6s6,2.7,6,6v14H488z"/>
<path class="st8" d="M252,8h88c6.6,0,12,5.4,12,12v4c0,6.6-5.4,12-12,12h-88c-6.6,0-12-5.4-12-12v-4C240,13.4,245.4,8,252,8z"/>
<path class="st8" d="M492,8h88c6.6,0,12,5.4,12,12v4c0,6.6-5.4,12-12,12h-88c-6.6,0-12-5.4-12-12v-4C480,13.4,485.4,8,492,8z"/>
<path class="st8" d="M132,8h88c6.6,0,12,5.4,12,12v4c0,6.6-5.4,12-12,12h-88c-6.6,0-12-5.4-12-12v-4C120,13.4,125.4,8,132,8z"/>
<path class="st8" d="M612,8h160c6.6,0,12,5.4,12,12v4c0,6.6-5.4,12-12,12H612c-6.6,0-12-5.4-12-12v-4C600,13.4,605.4,8,612,8z"/>
<path class="st7" d="M340,48h-88c-6.6,0-12,5.4-12,12v12c0,6.6,5.4,12,12,12h88c6.6,0,12-5.4,12-12V60C352,53.4,346.6,48,340,48z
	 M260,72c0,3.3-2.7,6-6,6c-3.3,0-6-2.7-6-6V60c0-3.3,2.7-6,6-6c3.3,0,6,2.7,6,6V72z"/>
<path class="st7" d="M580,48h-88c-6.6,0-12,5.4-12,12v12c0,6.6,5.4,12,12,12h88c6.6,0,12-5.4,12-12V60C592,53.4,586.6,48,580,48z
	 M500,72c0,3.3-2.7,6-6,6s-6-2.7-6-6V60c0-3.3,2.7-6,6-6s6,2.7,6,6V72z"/>
<path class="st7" d="M220,48h-88c-6.6,0-12,5.4-12,12v12c0,6.6,5.4,12,12,12h88c6.6,0,12-5.4,12-12V60C232,53.4,226.6,48,220,48z
	 M140,72c0,3.3-2.7,6-6,6s-6-2.7-6-6V60c0-3.3,2.7-6,6-6s6,2.7,6,6V72z"/>
<path class="st7" d="M964,48H804c-6.6,0-12,5.4-12,12v12c0,6.6,5.4,12,12,12h160c6.6,0,12-5.4,12-12V60C976,53.4,970.6,48,964,48z
	 M812,72c0,3.3-2.7,6-6,6s-6-2.7-6-6V60c0-3.3,2.7-6,6-6s6,2.7,6,6V72z"/>
<path class="st7" d="M772,48H612c-6.6,0-12,5.4-12,12v12c0,6.6,5.4,12,12,12h160c6.6,0,12-5.4,12-12V60C784,53.4,778.6,48,772,48z
	 M620,72c0,3.3-2.7,6-6,6s-6-2.7-6-6V60c0-3.3,2.7-6,6-6s6,2.7,6,6V72z"/>
<path class="st8" d="M804,8h160c6.6,0,12,5.4,12,12v4c0,6.6-5.4,12-12,12H804c-6.6,0-12-5.4-12-12v-4C792,13.4,797.4,8,804,8z"/>
<path class="st9" d="M340,156h-88c-6.6,0-12,5.4-12,12v12c0,6.6,5.4,12,12,12h88c6.6,0,12-5.4,12-12v-12
	C352,161.4,346.6,156,340,156z M260,180c0,3.3-2.7,6-6,6c-3.3,0-6-2.7-6-6v-12c0-3.3,2.7-6,6-6c3.3,0,6,2.7,6,6V180z"/>
<path class="st9" d="M580,156h-88c-6.6,0-12,5.4-12,12v12c0,6.6,5.4,12,12,12h88c6.6,0,12-5.4,12-12v-12
	C592,161.4,586.6,156,580,156z M500,180c0,3.3-2.7,6-6,6s-6-2.7-6-6v-12c0-3.3,2.7-6,6-6s6,2.7,6,6V180z"/>
<path class="st9" d="M220,156h-88c-6.6,0-12,5.4-12,12v12c0,6.6,5.4,12,12,12h88c6.6,0,12-5.4,12-12v-12
	C232,161.4,226.6,156,220,156z M140,180c0,3.3-2.7,6-6,6s-6-2.7-6-6v-12c0-3.3,2.7-6,6-6s6,2.7,6,6V180z"/>
<path class="st9" d="M964,156H804c-6.6,0-12,5.4-12,12v12c0,6.6,5.4,12,12,12h160c6.6,0,12-5.4,12-12v-12
	C976,161.4,970.6,156,964,156z M812,180c0,3.3-2.7,6-6,6s-6-2.7-6-6v-12c0-3.3,2.7-6,6-6s6,2.7,6,6V180z"/>
<path class="st9" d="M772,156H612c-6.6,0-12,5.4-12,12v12c0,6.6,5.4,12,12,12h160c6.6,0,12-5.4,12-12v-12
	C784,161.4,778.6,156,772,156z M620,180c0,3.3-2.7,6-6,6s-6-2.7-6-6v-12c0-3.3,2.7-6,6-6s6,2.7,6,6V180z"/>
<path class="st10" d="M340,200h-88c-6.6,0-12,5.4-12,12v12c0,6.6,5.4,12,12,12h88c6.6,0,12-5.4,12-12v-12
	C352,205.4,346.6,200,340,200z M260,224c0,3.3-2.7,6-6,6c-3.3,0-6-2.7-6-6v-12c0-3.3,2.7-6,6-6c3.3,0,6,2.7,6,6V224z"/>
<path class="st10" d="M580,200h-88c-6.6,0-12,5.4-12,12v12c0,6.6,5.4,12,12,12h88c6.6,0,12-5.4,12-12v-12
	C592,205.4,586.6,200,580,200z M500,224c0,3.3-2.7,6-6,6s-6-2.7-6-6v-12c0-3.3,2.7-6,6-6s6,2.7,6,6V224z"/>
<path class="st10" d="M220,200h-88c-6.6,0-12,5.4-12,12v12c0,6.6,5.4,12,12,12h88c6.6,0,12-5.4,12-12v-12
	C232,205.4,226.6,200,220,200z M140,224c0,3.3-2.7,6-6,6s-6-2.7-6-6v-12c0-3.3,2.7-6,6-6s6,2.7,6,6V224z"/>
<path class="st10" d="M964,200H804c-6.6,0-12,5.4-12,12v12c0,6.6,5.4,12,12,12h160c6.6,0,12-5.4,12-12v-12
	C976,205.4,970.6,200,964,200z M812,224c0,3.3-2.7,6-6,6s-6-2.7-6-6v-12c0-3.3,2.7-6,6-6s6,2.7,6,6V224z"/>
<path class="st10" d="M772,200H612c-6.6,0-12,5.4-12,12v12c0,6.6,5.4,12,12,12h160c6.6,0,12-5.4,12-12v-12
	C784,205.4,778.6,200,772,200z M620,224c0,3.3-2.7,6-6,6s-6-2.7-6-6v-12c0-3.3,2.7-6,6-6s6,2.7,6,6V224z"/>
<linearGradient id="SVGID_00000035529068672419198270000010375871376500561085_" gradientUnits="userSpaceOnUse" x1="296" y1="834" x2="296" y2="798" gradientTransform="matrix(1 0 0 1 0 -554)">
	<stop  offset="0" style="stop-color:#51605C"/>
	<stop  offset="1" style="stop-color:#414951"/>
</linearGradient>
<path style="fill:url(#SVGID_00000035529068672419198270000010375871376500561085_);" d="M340,244h-88c-6.6,0-12,5.4-12,12v12
	c0,6.6,5.4,12,12,12h88c6.6,0,12-5.4,12-12v-12C352,249.4,346.6,244,340,244z M260,268c0,3.3-2.7,6-6,6c-3.3,0-6-2.7-6-6v-12
	c0-3.3,2.7-6,6-6c3.3,0,6,2.7,6,6V268z"/>
<linearGradient id="SVGID_00000091000982863139134530000017962007888986056842_" gradientUnits="userSpaceOnUse" x1="536" y1="834" x2="536" y2="798" gradientTransform="matrix(1 0 0 1 0 -554)">
	<stop  offset="0" style="stop-color:#51605C"/>
	<stop  offset="1" style="stop-color:#414951"/>
</linearGradient>
<path style="fill:url(#SVGID_00000091000982863139134530000017962007888986056842_);" d="M580,244h-88c-6.6,0-12,5.4-12,12v12
	c0,6.6,5.4,12,12,12h88c6.6,0,12-5.4,12-12v-12C592,249.4,586.6,244,580,244z M500,268c0,3.3-2.7,6-6,6s-6-2.7-6-6v-12
	c0-3.3,2.7-6,6-6s6,2.7,6,6V268z"/>
<linearGradient id="SVGID_00000081635433078648980950000014618952614063072917_" gradientUnits="userSpaceOnUse" x1="176" y1="834" x2="176" y2="798" gradientTransform="matrix(1 0 0 1 0 -554)">
	<stop  offset="0" style="stop-color:#51605C"/>
	<stop  offset="1" style="stop-color:#414951"/>
</linearGradient>
<path style="fill:url(#SVGID_00000081635433078648980950000014618952614063072917_);" d="M220,244h-88c-6.6,0-12,5.4-12,12v12
	c0,6.6,5.4,12,12,12h88c6.6,0,12-5.4,12-12v-12C232,249.4,226.6,244,220,244z M140,268c0,3.3-2.7,6-6,6s-6-2.7-6-6v-12
	c0-3.3,2.7-6,6-6s6,2.7,6,6V268z"/>
<linearGradient id="SVGID_00000008119777551854255730000002202547126533548725_" gradientUnits="userSpaceOnUse" x1="884" y1="834" x2="884" y2="798" gradientTransform="matrix(1 0 0 1 0 -554)">
	<stop  offset="0" style="stop-color:#51605C"/>
	<stop  offset="1" style="stop-color:#414951"/>
</linearGradient>
<path style="fill:url(#SVGID_00000008119777551854255730000002202547126533548725_);" d="M964,244H804c-6.6,0-12,5.4-12,12v12
	c0,6.6,5.4,12,12,12h160c6.6,0,12-5.4,12-12v-12C976,249.4,970.6,244,964,244z M812,268c0,3.3-2.7,6-6,6s-6-2.7-6-6v-12
	c0-3.3,2.7-6,6-6s6,2.7,6,6V268z"/>
<linearGradient id="SVGID_00000112614762386466333800000011447797537204029354_" gradientUnits="userSpaceOnUse" x1="692" y1="834" x2="692" y2="798" gradientTransform="matrix(1 0 0 1 0 -554)">
	<stop  offset="0" style="stop-color:#51605C"/>
	<stop  offset="1" style="stop-color:#414951"/>
</linearGradient>
<path style="fill:url(#SVGID_00000112614762386466333800000011447797537204029354_);" d="M772,244H612c-6.6,0-12,5.4-12,12v12
	c0,6.6,5.4,12,12,12h160c6.6,0,12-5.4,12-12v-12C784,249.4,778.6,244,772,244z M620,268c0,3.3-2.7,6-6,6s-6-2.7-6-6v-12
	c0-3.3,2.7-6,6-6s6,2.7,6,6V268z"/>
<path class="st17" d="M157.6,17.1v1h-0.9v7.8h0.9v1h-3.1v-1h1V18h-1v-1L157.6,17.1z"/>
<path class="st17" d="M164.8,26.9h-1.1v-4c0-1.5-0.5-2.2-1.6-2.2c-0.5,0-1.1,0.2-1.4,0.6c-0.4,0.4-0.6,1-0.6,1.6v4H159v-7h1.1v1.2
	l0,0c0.5-0.8,1.3-1.3,2.3-1.3c0.7,0,1.3,0.2,1.8,0.7c0.4,0.6,0.7,1.4,0.6,2.1L164.8,26.9z"/>
<path class="st17" d="M172.5,19.9l-2.8,7h-1.1l-2.6-7h1.2L169,25c0.1,0.3,0.2,0.7,0.2,1l0,0c0-0.3,0.1-0.6,0.2-1l1.9-5.1H172.5z"/>
<path class="st17" d="M176.5,27.1c-0.9,0-1.8-0.3-2.5-1c-0.6-0.7-1-1.6-0.9-2.6c-0.1-1,0.3-2,1-2.8c0.7-0.7,1.6-1,2.6-1
	c0.9,0,1.8,0.3,2.4,1c0.6,0.7,0.9,1.7,0.9,2.7c0.1,1-0.3,2-0.9,2.7C178.4,26.8,177.5,27.1,176.5,27.1z M176.6,20.7
	c-0.7,0-1.3,0.2-1.7,0.7c-0.4,0.6-0.7,1.3-0.6,2c-0.1,0.7,0.2,1.4,0.6,2c0.4,0.5,1.1,0.7,1.7,0.7c0.6,0,1.3-0.2,1.7-0.7
	c0.4-0.6,0.6-1.3,0.6-2s-0.2-1.4-0.6-2C177.9,20.9,177.2,20.7,176.6,20.7z"/>
<path class="st17" d="M182.4,18.1c-0.2,0-0.4-0.1-0.5-0.2c-0.3-0.3-0.3-0.7,0-1c0.1-0.1,0.3-0.2,0.5-0.2s0.4,0.1,0.5,0.2
	c0.3,0.3,0.3,0.7,0,1C182.7,18.1,182.6,18.1,182.4,18.1z M182.9,26.9h-1.1v-7h1.1V26.9z"/>
<path class="st17" d="M190,26.6c-0.6,0.3-1.2,0.5-1.9,0.5c-0.9,0-1.8-0.3-2.4-1c-0.6-0.7-0.9-1.6-0.9-2.5c0-1,0.3-2,1-2.8
	c0.7-0.7,1.7-1.1,2.6-1c0.6,0,1.1,0.1,1.6,0.3v1.1c-0.5-0.4-1.1-0.5-1.7-0.5c-0.7,0-1.3,0.3-1.8,0.8c-0.5,0.6-0.7,1.3-0.7,2
	s0.2,1.4,0.6,1.9c0.4,0.5,1.1,0.7,1.7,0.7c0.6,0,1.2-0.2,1.7-0.6L190,26.6z"/>
<path class="st17" d="M197.3,23.7h-5c0,0.7,0.2,1.3,0.6,1.8c0.4,0.4,1,0.7,1.7,0.6c0.8,0,1.6-0.3,2.2-0.8v1.1
	c-0.7,0.5-1.6,0.7-2.4,0.7c-0.9,0-1.7-0.3-2.3-1c-0.6-0.8-0.9-1.7-0.9-2.7s0.3-1.9,0.9-2.7c0.6-0.7,1.4-1,2.3-1
	c0.8,0,1.6,0.3,2.1,0.9c0.5,0.7,0.8,1.6,0.8,2.5L197.3,23.7z M196.1,22.7c0-0.5-0.1-1.1-0.5-1.5c-0.3-0.4-0.8-0.6-1.3-0.5
	c-0.5,0-1,0.2-1.4,0.6s-0.6,0.9-0.7,1.5L196.1,22.7z"/>
<path class="st17" d="M283.4,27.1c-1.3,0.1-2.5-0.5-3.3-1.4c-0.9-1-1.3-2.3-1.2-3.6c-0.1-1.4,0.4-2.7,1.3-3.8c0.9-1,2.2-1.5,3.5-1.4
	c1.2,0,2.4,0.4,3.3,1.4s1.3,2.3,1.2,3.6c0.1,1.4-0.4,2.7-1.3,3.8C285.9,26.6,284.7,27.1,283.4,27.1z M283.5,18c-1,0-1.9,0.4-2.5,1.1
	c-0.7,0.8-1,1.9-1,2.9c-0.1,1.1,0.3,2.1,0.9,2.9c0.6,0.7,1.5,1.1,2.5,1.1c1,0.1,1.9-0.3,2.5-1c0.7-0.8,1-1.9,0.9-3
	c0.1-1.1-0.3-2.1-0.9-3C285.3,18.3,284.4,18,283.5,18L283.5,18z"/>
<path class="st17" d="M293.5,21c-0.2-0.2-0.5-0.2-0.8-0.2c-0.5,0-0.9,0.3-1.2,0.7c-0.3,0.5-0.5,1.2-0.5,1.8v3.6h-1.1v-7h1.2v1.4l0,0
	c0.1-0.4,0.4-0.8,0.7-1.1c0.3-0.3,0.7-0.4,1.1-0.4c0.2,0,0.5,0,0.7,0.1L293.5,21z"/>
<path class="st17" d="M300.5,26.9h-1.1v-1.2l0,0c-0.5,0.9-1.4,1.4-2.4,1.4c-0.8,0-1.6-0.3-2.1-0.9c-0.6-0.7-0.8-1.6-0.8-2.6
	c-0.1-1,0.3-2,0.9-2.8c0.6-0.7,1.4-1,2.3-1c0.9-0.1,1.7,0.4,2.1,1.1l0,0v-4.4h1.1V26.9z M299.4,23.7v-1c0-0.5-0.2-1-0.6-1.4
	s-0.9-0.6-1.4-0.6c-0.6,0-1.2,0.3-1.6,0.8c-0.4,0.6-0.6,1.3-0.6,2.1c0,0.7,0.2,1.4,0.6,1.9s0.9,0.7,1.5,0.7s1.1-0.2,1.5-0.7
	C299.2,25,299.4,24.4,299.4,23.7z"/>
<path class="st17" d="M308.4,23.7h-5c0,0.7,0.2,1.3,0.6,1.8c0.4,0.4,1,0.7,1.7,0.6c0.8,0,1.6-0.3,2.2-0.8v1.1
	c-0.7,0.5-1.6,0.7-2.4,0.7c-0.9,0-1.7-0.3-2.3-1c-0.6-0.8-0.9-1.7-0.9-2.7s0.3-1.9,0.9-2.7c0.6-0.7,1.4-1,2.3-1
	c0.8,0,1.6,0.3,2.1,0.9c0.5,0.7,0.8,1.6,0.8,2.5L308.4,23.7z M307.3,22.7c0-0.5-0.1-1.1-0.5-1.5c-0.3-0.4-0.8-0.6-1.3-0.5
	c-0.5,0-1,0.2-1.4,0.6s-0.6,0.9-0.7,1.5L307.3,22.7z"/>
<path class="st17" d="M313.8,21c-0.2-0.2-0.5-0.2-0.8-0.2c-0.5,0-0.9,0.3-1.2,0.7c-0.4,0.5-0.5,1.2-0.5,1.8v3.6h-1.1v-7h1.1v1.4l0,0
	c0.1-0.4,0.4-0.8,0.7-1.1c0.3-0.3,0.7-0.4,1.1-0.4c0.2,0,0.5,0,0.7,0.1L313.8,21z"/>
<path class="st17" d="M511.8,17.1v1h-1v7.8h1v1h-3.1v-1h1V18h-1v-1L511.8,17.1z"/>
<path class="st17" d="M519,26.9h-1.1v-4c0-1.5-0.5-2.2-1.6-2.2c-0.5,0-1,0.2-1.4,0.6c-0.4,0.4-0.6,1-0.5,1.6v4h-1.1v-7h1.1v1.2l0,0
	c0.5-0.8,1.3-1.3,2.3-1.3c0.7,0,1.3,0.2,1.8,0.7c0.4,0.6,0.7,1.4,0.6,2.1L519,26.9z"/>
<path class="st17" d="M526.7,19.9l-2.8,7h-1.1l-2.6-7h1.2l1.8,5.1c0.1,0.3,0.2,0.7,0.2,1l0,0c0-0.3,0.1-0.6,0.2-1l1.9-5.1H526.7z"/>
<path class="st17" d="M534.7,23.3H532V26h-0.9v-2.7h-2.8v-0.9h2.8v-2.8h0.9v2.8h2.8L534.7,23.3z"/>
<path class="st17" d="M545.4,27.1c-1.3,0.1-2.5-0.4-3.4-1.4s-1.3-2.3-1.2-3.6c-0.1-1.4,0.4-2.7,1.3-3.8c0.9-1,2.2-1.5,3.5-1.4
	c1.2-0.1,2.4,0.4,3.3,1.4s1.3,2.3,1.2,3.6c0.1,1.4-0.4,2.7-1.3,3.8C547.9,26.6,546.7,27.1,545.4,27.1z M545.5,18
	c-0.9,0-1.8,0.4-2.5,1.1c-0.7,0.8-1,1.9-1,2.9c-0.1,1.1,0.3,2.1,0.9,2.9c0.6,0.7,1.5,1.1,2.5,1.1c1,0.1,1.9-0.3,2.5-1
	c0.7-0.8,1-1.9,0.9-3c0.1-1.1-0.3-2.1-0.9-3C547.3,18.3,546.4,18,545.5,18L545.5,18z"/>
<path class="st17" d="M555.5,21c-0.3-0.2-0.5-0.2-0.9-0.2c-0.5,0-0.9,0.3-1.2,0.7c-0.4,0.5-0.5,1.2-0.5,1.8v3.6h-1.1v-7h1.2v1.4l0,0
	c0.1-0.4,0.4-0.8,0.7-1.1c0.3-0.3,0.7-0.4,1.1-0.4c0.2,0,0.5,0,0.7,0.1V21z"/>
<path class="st17" d="M562.5,26.9h-1.1v-1.2l0,0c-0.8,1.3-2.5,1.8-3.9,0.9c-0.2-0.1-0.5-0.3-0.6-0.5c-0.6-0.7-0.8-1.6-0.8-2.6
	c-0.1-1,0.3-2,0.9-2.8c0.6-0.7,1.4-1,2.3-1c0.9-0.1,1.7,0.4,2.1,1.1l0,0v-4.4h1.1V26.9z M561.4,23.7v-1c0-0.5-0.2-1-0.6-1.4
	s-0.9-0.6-1.4-0.6c-0.6,0-1.2,0.3-1.6,0.8c-0.4,0.6-0.6,1.3-0.6,2.1c0,0.7,0.2,1.4,0.6,1.9s0.9,0.7,1.5,0.7s1.1-0.2,1.5-0.7
	C561.2,25,561.4,24.4,561.4,23.7z"/>
<path class="st18" d="M27.2,70.9h-1.4l-5.1-7.8c-0.1-0.2-0.2-0.4-0.3-0.6l0,0c0,0.4,0.1,0.9,0,1.3v7.1h-1.2v-9.8h1.5l4.9,7.7
	c0.1,0.2,0.3,0.4,0.4,0.7l0,0c0-0.5,0-1,0-1.5v-6.9h1.1L27.2,70.9z"/>
<path class="st18" d="M35,70.9h-5.2v-9.8h5v1h-3.9v3.3h3.5v1h-3.5v3.4h4L35,70.9z"/>
<path class="st18" d="M42.7,62.1h-2.8v8.8h-1.1v-8.8H36v-1h6.8v1H42.7z"/>
<path class="st18" d="M55.3,61.1l-3.6,9.8h-1.3l-3.5-9.8h1.3l2.7,7.8c0.1,0.3,0.2,0.6,0.2,0.9l0,0c0-0.3,0.1-0.6,0.2-0.9l2.8-7.8
	L55.3,61.1z"/>
<path class="st18" d="M60.6,70.9h-1.1v-1.1l0,0c-0.4,0.8-1.3,1.3-2.2,1.3c-0.6,0-1.2-0.2-1.6-0.6c-0.4-0.4-0.7-0.9-0.6-1.5
	c0-1.3,0.8-2.1,2.3-2.3l2.1-0.3c0-1.2-0.5-1.8-1.5-1.8c-0.8,0-1.6,0.3-2.3,0.9v-1.1c0.7-0.4,1.5-0.7,2.4-0.7c1.7,0,2.5,0.9,2.5,2.6
	L60.6,70.9z M59.5,67.4l-1.7,0.2c-0.4,0-0.8,0.2-1.2,0.4c-0.3,0.2-0.4,0.6-0.4,1c0,0.3,0.1,0.6,0.4,0.8c0.3,0.2,0.6,0.3,1,0.3
	c0.5,0,1-0.2,1.4-0.6s0.6-0.9,0.5-1.5V67.4z"/>
<path class="st18" d="M63.8,70.9h-1.1V60.5h1.1V70.9z"/>
<path class="st18" d="M71.8,70.9h-1.1v-1.1l0,0c-0.4,0.8-1.3,1.3-2.2,1.3c-1.7,0-2.5-1-2.5-3v-4.2h1.1v4c0,1.5,0.6,2.2,1.7,2.2
	c0.5,0,1-0.2,1.3-0.6c0.4-0.4,0.6-1,0.5-1.6v-4h1.1L71.8,70.9z"/>
<path class="st18" d="M79.6,67.7h-4.9c0,0.7,0.2,1.3,0.6,1.8c0.4,0.4,1,0.7,1.7,0.6c0.8,0,1.6-0.3,2.2-0.8v1.1
	c-0.7,0.5-1.6,0.7-2.4,0.7c-0.9,0-1.7-0.3-2.3-1c-0.6-0.8-0.9-1.7-0.8-2.7c0-1,0.3-1.9,0.9-2.7c0.6-0.7,1.4-1,2.3-1
	c0.8-0.1,1.6,0.3,2.1,0.9c0.5,0.7,0.8,1.6,0.8,2.5L79.6,67.7z M78.5,66.7c0-0.5-0.2-1-0.5-1.5c-0.3-0.4-0.8-0.6-1.3-0.5
	c-0.5,0-1,0.2-1.3,0.6c-0.4,0.4-0.6,0.9-0.7,1.5L78.5,66.7z"/>
<path class="st18" d="M29.3,122.9h-1.1v-6.6c0-0.5,0-1.2,0.1-1.9l0,0c-0.1,0.3-0.2,0.7-0.3,1l-3.4,7.5H24l-3.3-7.5
	c-0.1-0.3-0.2-0.7-0.3-1l0,0c0,0.4,0,1,0,1.9v6.6h-1.1v-9.8h1.5l3,6.8c0.2,0.4,0.3,0.8,0.5,1.2l0,0c0.2-0.5,0.4-0.9,0.5-1.2l3.1-6.8
	h1.4L29.3,122.9z"/>
<path class="st18" d="M36.7,122.9h-1.1v-1.1l0,0c-0.4,0.8-1.3,1.3-2.2,1.3c-0.6,0-1.2-0.2-1.6-0.6s-0.6-0.9-0.6-1.5
	c0-1.3,0.8-2.1,2.3-2.3l2.1-0.3c0-1.2-0.5-1.8-1.5-1.8c-0.8,0-1.6,0.3-2.3,0.9v-1.2c0.7-0.4,1.5-0.7,2.4-0.7c1.6,0,2.5,0.9,2.5,2.6
	V122.9z M35.6,119.4l-1.7,0.2c-0.4,0-0.8,0.2-1.2,0.4c-0.3,0.2-0.4,0.6-0.4,1c0,0.3,0.1,0.6,0.4,0.8c0.3,0.2,0.6,0.3,1,0.3
	c0.5,0,1-0.2,1.4-0.6s0.6-0.9,0.5-1.5V119.4z"/>
<path class="st18" d="M42.5,117c-0.3-0.2-0.5-0.2-0.8-0.2c-0.5,0-0.9,0.3-1.2,0.7c-0.3,0.5-0.5,1.2-0.5,1.8v3.6h-1.1v-7H40v1.4l0,0
	c0.1-0.4,0.4-0.8,0.7-1.2c0.3-0.3,0.7-0.4,1.1-0.4c0.2,0,0.5,0,0.7,0.1V117z"/>
<path class="st18" d="M49.5,122.3c0,2.6-1.2,3.9-3.7,3.9c-0.8,0-1.6-0.2-2.3-0.5v-1.1c0.7,0.4,1.5,0.6,2.2,0.7
	c1.7,0,2.6-0.9,2.6-2.8v-0.8l0,0c-0.8,1.3-2.6,1.7-3.9,0.9c-0.2-0.1-0.4-0.3-0.6-0.5c-0.6-0.7-0.8-1.6-0.8-2.5c-0.1-1,0.3-2,0.9-2.8
	c0.6-0.7,1.4-1.1,2.3-1.1c0.9,0,1.7,0.4,2.1,1.1l0,0v-1h1.1L49.5,122.3z M48.4,119.7v-1c0-0.5-0.2-1-0.6-1.4
	c-0.4-0.4-0.9-0.6-1.4-0.6c-0.6,0-1.2,0.3-1.6,0.8c-0.4,0.6-0.6,1.4-0.6,2.1s0.2,1.3,0.6,1.9c0.4,0.5,0.9,0.7,1.5,0.7
	s1.1-0.2,1.5-0.7C48.2,121,48.4,120.4,48.4,119.7z"/>
<path class="st18" d="M52.3,114.1c-0.2,0-0.4-0.1-0.5-0.2c-0.2-0.3-0.1-0.8,0.3-1c0.2-0.1,0.5-0.1,0.7,0c0.3,0.3,0.3,0.7,0,1
	C52.7,114,52.5,114.1,52.3,114.1z M52.9,122.9h-1.1v-7h1.1V122.9z"/>
<path class="st18" d="M61,122.9h-1.2v-4c0-1.5-0.5-2.2-1.6-2.2c-0.5,0-1,0.2-1.4,0.6s-0.6,1-0.5,1.6v4h-1.1v-7h1.1v1.2l0,0
	c0.5-0.8,1.3-1.3,2.3-1.3c0.7,0,1.3,0.2,1.8,0.7c0.4,0.6,0.7,1.4,0.6,2.1L61,122.9z"/>
<path class="st18" d="M27.2,178.9h-1.4l-5.1-7.8c-0.1-0.2-0.2-0.4-0.3-0.6l0,0c0,0.4,0.1,0.9,0,1.4v7.1h-1.2v-9.8h1.5l4.9,7.7
	c0.1,0.2,0.3,0.4,0.4,0.7l0,0c-0.1-0.5-0.1-1-0.1-1.5v-6.9H27L27.2,178.9z"/>
<path class="st18" d="M35.2,175.7h-4.9c0,0.7,0.2,1.3,0.6,1.8c0.4,0.4,1,0.7,1.6,0.6c0.8,0,1.6-0.3,2.2-0.8v1.1
	c-0.7,0.5-1.6,0.7-2.4,0.7c-0.9,0-1.7-0.3-2.3-1c-0.6-0.8-0.9-1.7-0.9-2.7s0.3-1.9,0.9-2.7c0.6-0.7,1.4-1,2.3-1
	c0.8,0,1.6,0.3,2.1,0.9c0.5,0.7,0.8,1.6,0.8,2.5C35.2,175.1,35.2,175.7,35.2,175.7z M34.1,174.7c0-0.5-0.1-1.1-0.5-1.5
	c-0.3-0.4-0.8-0.6-1.3-0.5c-0.5,0-1,0.2-1.3,0.6c-0.4,0.4-0.6,0.9-0.7,1.5L34.1,174.7z"/>
<path class="st18" d="M40.2,178.8c-0.3,0.2-0.7,0.2-1,0.2c-1.2,0-1.8-0.7-1.8-2.1v-4.1h-1.2v-1h1.2v-1.7l1.1-0.4v2.1h1.8v1h-1.8v3.9
	c0,0.4,0.1,0.7,0.2,1c0.2,0.2,0.5,0.3,0.8,0.3s0.5-0.1,0.7-0.2V178.8z"/>
<path class="st18" d="M57.3,169.1l-2.8,9.8h-1.3l-2-7.2c-0.1-0.3-0.1-0.7-0.2-1l0,0c0,0.3-0.1,0.7-0.2,1l-2,7.2h-1.4l-2.9-9.8h1.3
	l2.1,7.5c0.1,0.3,0.1,0.7,0.2,1l0,0c0-0.3,0.1-0.7,0.2-1l2.2-7.5h1.1l2.1,7.6c0.1,0.3,0.1,0.6,0.2,0.9l0,0c0-0.3,0.1-0.6,0.2-0.9
	l2-7.6H57.3z"/>
<path class="st18" d="M63.9,175.7h-5c0,0.7,0.2,1.3,0.6,1.8c0.4,0.4,1,0.7,1.7,0.6c0.8,0,1.6-0.3,2.2-0.8v1.1
	c-0.7,0.5-1.6,0.7-2.4,0.7c-0.9,0-1.7-0.3-2.3-1c-0.6-0.8-0.9-1.7-0.8-2.7c0-1,0.3-1.9,0.9-2.7c0.6-0.7,1.4-1,2.3-1
	c0.8,0,1.6,0.3,2.1,0.9c0.5,0.7,0.8,1.6,0.8,2.5L63.9,175.7z M62.7,174.7c0-0.5-0.1-1.1-0.5-1.5c-0.3-0.4-0.8-0.6-1.3-0.5
	c-0.5,0-1,0.2-1.3,0.6c-0.4,0.4-0.6,0.9-0.7,1.5L62.7,174.7z"/>
<path class="st18" d="M66.2,170.1c-0.2,0-0.4-0.1-0.5-0.2c-0.3-0.3-0.3-0.7,0-1c0.1-0.1,0.3-0.2,0.5-0.2s0.4,0.1,0.5,0.2
	c0.3,0.3,0.3,0.7,0,1C66.5,170,66.3,170.1,66.2,170.1z M66.7,178.9h-1.1v-7h1.1V178.9z"/>
<path class="st18" d="M74.9,178.3c0,2.6-1.2,3.9-3.7,3.9c-0.8,0-1.6-0.2-2.3-0.5v-1.1c0.7,0.4,1.5,0.6,2.2,0.7
	c1.7,0,2.6-0.9,2.6-2.8v-0.8l0,0c-0.8,1.3-2.6,1.7-3.9,0.9c-0.2-0.1-0.4-0.3-0.6-0.5c-0.6-0.7-0.8-1.6-0.8-2.5c-0.1-1,0.3-2,0.9-2.8
	c0.6-0.7,1.5-1.1,2.3-1c0.9,0,1.7,0.4,2.1,1.1l0,0v-1h1.1L74.9,178.3z M73.8,175.7v-1c0-0.5-0.2-1-0.6-1.4s-0.9-0.6-1.4-0.6
	c-0.6,0-1.2,0.3-1.6,0.8c-0.4,0.6-0.6,1.4-0.6,2.1c0,0.7,0.2,1.3,0.6,1.9c0.4,0.5,0.9,0.7,1.5,0.7s1.1-0.2,1.5-0.7
	C73.6,177,73.9,176.4,73.8,175.7L73.8,175.7z"/>
<path class="st18" d="M83,178.9h-1.1v-4c0-1.5-0.6-2.2-1.6-2.2c-0.5,0-1,0.2-1.4,0.6c-0.4,0.5-0.6,1-0.6,1.6v4h-1.1v-10.4h1.1v4.5
	l0,0c0.5-0.8,1.3-1.3,2.3-1.3c1.6,0,2.4,0.9,2.4,2.9L83,178.9z"/>
<path class="st18" d="M88.4,178.8c-0.3,0.2-0.7,0.2-1,0.2c-1.2,0-1.8-0.7-1.8-2.1v-4.1h-1.2v-1h1.2v-1.7l1.1-0.4v2.1h1.8v1h-1.8v3.9
	c0,0.4,0.1,0.7,0.2,1c0.2,0.2,0.5,0.3,0.8,0.3s0.5-0.1,0.7-0.2C88.4,177.8,88.4,178.8,88.4,178.8z"/>
<path class="st17" d="M657.5,26.9h-5.1v-9.8h1.2v8.8h3.9L657.5,26.9z"/>
<path class="st17" d="M664.5,17.1l-3.2,6.2v3.6h-1.2v-3.6l-3.1-6.2h1.3l2.2,4.4c0,0,0.1,0.2,0.2,0.6l0,0c0.1-0.2,0.2-0.4,0.3-0.6
	l2.3-4.4C663.3,17.1,664.5,17.1,664.5,17.1z"/>
<path class="st17" d="M671.8,17.1v1h-1v7.8h1v1h-3.1v-1h1V18h-1v-1L671.8,17.1z"/>
<path class="st17" d="M679.1,26.9H678v-4c0-1.5-0.5-2.2-1.6-2.2c-0.5,0-1,0.2-1.4,0.6s-0.6,1-0.5,1.6v4h-1.1v-7h1.1v1.2l0,0
	c0.5-0.8,1.3-1.3,2.3-1.3c0.7,0,1.3,0.2,1.8,0.7c0.4,0.6,0.7,1.4,0.6,2.1L679.1,26.9z"/>
<path class="st17" d="M686.7,19.9l-2.8,7h-1.1l-2.7-7h1.2l1.8,5.1c0.1,0.3,0.2,0.7,0.2,1l0,0c0-0.3,0.1-0.6,0.2-1l1.9-5.1H686.7z"/>
<path class="st17" d="M694.3,17.2c-1.2,1.7-1.8,3.7-1.8,5.7s0.6,4,1.8,5.7h-1c-1.2-1.6-1.9-3.6-1.8-5.7c0-2.1,0.6-4.1,1.8-5.7H694.3
	z"/>
<path class="st17" d="M694.9,26.2l3.3-8.8h1.4l3.2,8.7v0.7h-7.9V26.2z M701.5,25.9l-1.9-5.2c-0.2-0.7-0.5-1.5-0.7-2.1l0,0
	c-0.1,0.5-0.4,1.3-0.6,1.9l-2,5.4H701.5z"/>
<path class="st17" d="M706.2,27.5l3.9-10.1h1l-3.9,10.1H706.2z"/>
<path class="st17" d="M718.7,20.4c0,1.9-1,2.9-2.2,2.9s-2.1-0.9-2.1-2.7s1-2.9,2.2-2.9S718.7,18.6,718.7,20.4z M715.4,20.4
	c0,1.2,0.4,2,1.2,2s1.2-0.9,1.2-2.1s-0.3-2-1.2-2S715.4,19.3,715.4,20.4L715.4,20.4z M716.4,27.1l5.3-9.4h0.8l-5.3,9.4H716.4z
	 M724.6,24.1c0,1.9-1,2.9-2.2,2.9s-2.1-0.9-2.1-2.7s1-2.9,2.2-2.9S724.6,22.4,724.6,24.1L724.6,24.1z M721.3,24.2c0,1.2,0.4,2,1.2,2
	s1.2-0.9,1.2-2.1s-0.3-2-1.2-2S721.3,23.1,721.3,24.2L721.3,24.2z"/>
<path class="st17" d="M725.3,28.6c1.2-1.7,1.8-3.7,1.8-5.7c0.1-2-0.6-4-1.8-5.7h1c1.3,1.6,1.9,3.6,1.8,5.7c0.1,2.1-0.6,4.1-1.8,5.7
	C726.3,28.6,725.3,28.6,725.3,28.6z"/>
<path class="st17" d="M857.4,26.2c-1,0.6-2.1,0.9-3.3,0.8c-1.3,0-2.5-0.4-3.4-1.4s-1.3-2.3-1.3-3.6c0-1.4,0.5-2.7,1.4-3.7
	c1-1,2.3-1.5,3.6-1.5c0.9,0,1.8,0.1,2.7,0.5v1.3c-0.8-0.5-1.8-0.8-2.8-0.8s-2,0.4-2.7,1.1c-0.7,0.8-1.1,1.9-1,2.9
	c-0.1,1.1,0.3,2.1,1,2.9c0.7,0.7,1.6,1.1,2.6,1c0.7,0,1.4-0.1,2-0.5v-2.7H854v-1h3.3L857.4,26.2z"/>
<path class="st17" d="M862.5,27.1c-0.9,0-1.8-0.3-2.5-1c-0.6-0.7-1-1.6-0.9-2.6c0-1,0.3-2,1-2.8c0.7-0.7,1.6-1,2.6-1
	c0.9,0,1.8,0.3,2.5,1c0.6,0.7,0.9,1.7,0.9,2.7s-0.3,2-1,2.7C864.3,26.8,863.4,27.1,862.5,27.1z M862.5,20.7c-0.7,0-1.3,0.2-1.7,0.7
	c-0.4,0.6-0.7,1.3-0.6,2c0,0.7,0.2,1.4,0.6,2c0.4,0.5,1.1,0.7,1.7,0.7c0.6,0,1.3-0.2,1.7-0.7c0.4-0.6,0.6-1.3,0.6-2s-0.2-1.4-0.6-2
	C863.8,20.9,863.2,20.6,862.5,20.7z"/>
<path class="st17" d="M872.5,26.9h-1.1v-1.1l0,0c-0.4,0.8-1.3,1.3-2.2,1.3c-0.6,0-1.2-0.2-1.6-0.6c-0.4-0.4-0.7-0.9-0.6-1.5
	c0-1.3,0.8-2.1,2.3-2.3l2.1-0.3c0-1.2-0.5-1.8-1.4-1.8c-0.8,0-1.6,0.3-2.3,0.9v-1.1c0.7-0.4,1.5-0.7,2.4-0.6c1.6,0,2.5,0.9,2.5,2.6
	L872.5,26.9z M871.4,23.4l-1.7,0.2c-0.4,0-0.8,0.2-1.2,0.4c-0.3,0.2-0.5,0.6-0.4,1c0,0.3,0.1,0.6,0.4,0.8c0.3,0.2,0.6,0.3,1,0.3
	c0.5,0,1-0.2,1.4-0.6s0.6-0.9,0.5-1.5V23.4z"/>
<path class="st17" d="M875.8,26.9h-1.1V16.5h1.1V26.9z"/>
<path class="st17" d="M884.5,17.2c-1.2,1.7-1.8,3.7-1.8,5.7s0.6,4,1.8,5.7h-1c-1.2-1.6-1.9-3.6-1.8-5.7c0-2.1,0.6-4.1,1.8-5.7H884.5
	z"/>
<path class="st17" d="M885.1,26.2l3.3-8.8h1.4l3.2,8.7v0.7h-7.9V26.2z M891.7,25.9l-1.9-5.2c-0.2-0.7-0.5-1.5-0.7-2.1l0,0
	c-0.1,0.5-0.4,1.3-0.6,1.9l-2,5.4H891.7z"/>
<path class="st17" d="M896.4,27.5l3.9-10.1h1l-3.9,10.1H896.4z"/>
<path class="st17" d="M908.9,20.4c0,1.9-1,2.9-2.2,2.9s-2.1-0.9-2.1-2.7s1-2.9,2.2-2.9S908.9,18.6,908.9,20.4z M905.5,20.4
	c0,1.2,0.4,2,1.2,2s1.2-0.9,1.2-2.1s-0.3-2-1.2-2S905.5,19.3,905.5,20.4z M906.6,27.1l5.4-9.4h0.8l-5.3,9.4H906.6z M914.8,24.1
	c0,1.9-1,2.9-2.2,2.9s-2.1-0.9-2.1-2.7s1-2.9,2.2-2.9S914.8,22.4,914.8,24.1z M911.5,24.2c0,1.2,0.4,2,1.2,2s1.2-0.9,1.2-2.1
	s-0.3-2-1.2-2S911.5,23.1,911.5,24.2z"/>
<path class="st17" d="M915.5,28.6c1.2-1.7,1.8-3.7,1.8-5.7c0.1-2-0.6-4-1.8-5.7h1c1.3,1.6,1.9,3.6,1.8,5.7c0.1,2.1-0.6,4.1-1.8,5.7
	C916.5,28.6,915.5,28.6,915.5,28.6z"/>
<path class="st17" d="M1035.5,18.1h-3.8v3.4h3.5v1h-3.5v4.4h-1.2v-9.8h5V18.1z"/>
<path class="st17" d="M1040.1,27.1c-0.9,0-1.8-0.3-2.5-1c-0.6-0.7-1-1.6-0.9-2.6c0-1,0.3-2,1-2.8c0.7-0.7,1.6-1,2.6-1
	c0.9,0,1.8,0.3,2.4,1c0.6,0.7,0.9,1.7,0.9,2.7s-0.3,2-1,2.7C1042,26.8,1041,27.1,1040.1,27.1z M1040.2,20.7c-0.7,0-1.3,0.2-1.7,0.7
	c-0.4,0.6-0.7,1.3-0.6,2c-0.1,0.7,0.2,1.4,0.6,2c0.4,0.5,1.1,0.7,1.7,0.7c0.6,0,1.3-0.2,1.7-0.7c0.4-0.6,0.6-1.3,0.6-2
	s-0.2-1.4-0.6-2C1041.4,20.9,1040.8,20.6,1040.2,20.7L1040.2,20.7z"/>
<path class="st17" d="M1049,21c-0.3-0.2-0.5-0.2-0.8-0.2c-0.5,0-0.9,0.3-1.2,0.7c-0.3,0.5-0.5,1.2-0.5,1.8v3.6h-1.1v-7h1.1v1.4l0,0
	c0.1-0.4,0.4-0.8,0.7-1.1c0.3-0.3,0.7-0.4,1.1-0.4c0.2,0,0.5,0,0.7,0.1V21z"/>
<path class="st17" d="M1055.7,23.7h-4.9c0,0.7,0.2,1.3,0.6,1.8c0.4,0.4,1,0.7,1.7,0.6c0.8,0,1.6-0.3,2.2-0.8v1.1
	c-0.7,0.5-1.6,0.7-2.4,0.7c-0.9,0-1.7-0.3-2.3-1c-0.6-0.8-0.9-1.7-0.8-2.7c0-1,0.3-1.9,0.9-2.7c0.6-0.7,1.4-1,2.3-1
	c0.8,0,1.6,0.3,2.1,0.9c0.5,0.7,0.8,1.6,0.8,2.5L1055.7,23.7z M1054.5,22.7c0-0.5-0.1-1.1-0.5-1.5c-0.3-0.4-0.8-0.6-1.3-0.5
	c-0.5,0-1,0.2-1.3,0.6c-0.4,0.4-0.6,0.9-0.7,1.5L1054.5,22.7z"/>
<path class="st17" d="M1062.1,26.6c-0.6,0.3-1.2,0.5-1.9,0.5c-0.9,0-1.8-0.3-2.4-1s-1-1.6-0.9-2.5c-0.1-1,0.3-2,1-2.8
	c0.7-0.7,1.7-1.1,2.6-1c0.6,0,1.1,0.1,1.6,0.3v1.1c-0.5-0.4-1.1-0.5-1.7-0.5c-0.7,0-1.3,0.3-1.8,0.8c-0.5,0.6-0.7,1.3-0.7,2
	s0.2,1.4,0.7,1.9c0.4,0.5,1.1,0.7,1.7,0.7c0.6,0,1.2-0.2,1.7-0.6L1062.1,26.6z"/>
<path class="st17" d="M1068.8,26.9h-1.1v-1.1l0,0c-0.4,0.8-1.3,1.3-2.2,1.3c-0.6,0-1.2-0.2-1.6-0.6s-0.6-0.9-0.6-1.5
	c0-1.3,0.8-2.1,2.3-2.3l2.1-0.3c0-1.2-0.5-1.8-1.4-1.8c-0.8,0-1.7,0.3-2.3,0.9v-1.2c0.7-0.4,1.5-0.7,2.4-0.6c1.7,0,2.5,0.9,2.5,2.6
	L1068.8,26.9z M1067.7,23.4l-1.7,0.2c-0.4,0-0.8,0.2-1.2,0.4c-0.5,0.5-0.5,1.3,0,1.8l0,0c0.3,0.2,0.6,0.3,1,0.3c0.5,0,1-0.2,1.4-0.6
	c0.4-0.4,0.6-0.9,0.5-1.5V23.4z"/>
<path class="st17" d="M1070.5,26.6v-1.2c0.6,0.4,1.3,0.7,2,0.7c1,0,1.5-0.3,1.5-1c0-0.2,0-0.3-0.1-0.5c-0.1-0.1-0.2-0.3-0.3-0.3
	c-0.2-0.1-0.3-0.2-0.5-0.3c-0.2-0.1-0.4-0.2-0.6-0.2c-0.3-0.1-0.5-0.2-0.8-0.4c-0.2-0.1-0.4-0.2-0.6-0.4c-0.2-0.1-0.3-0.3-0.4-0.5
	s-0.1-0.5-0.1-0.7c0-0.3,0.1-0.6,0.2-0.9c0.2-0.3,0.4-0.5,0.6-0.6c0.3-0.2,0.6-0.3,0.9-0.4s0.7-0.1,1-0.1c0.6,0,1.1,0.1,1.6,0.3v1.1
	c-0.5-0.3-1.1-0.5-1.8-0.5c-0.2,0-0.4,0-0.6,0.1c-0.2,0-0.3,0.1-0.4,0.2c-0.1,0.1-0.2,0.2-0.3,0.3c-0.1,0.1-0.1,0.3-0.1,0.4
	c0,0.2,0,0.3,0.1,0.5c0.1,0.1,0.2,0.2,0.3,0.3c0.1,0.1,0.3,0.2,0.5,0.3l0.6,0.2c0.3,0.1,0.6,0.2,0.8,0.4c0.2,0.1,0.4,0.3,0.6,0.4
	c0.2,0.2,0.3,0.3,0.4,0.5c0.1,0.2,0.1,0.5,0.1,0.7c0,0.3-0.1,0.6-0.2,0.9c-0.2,0.3-0.4,0.5-0.6,0.6c-0.3,0.2-0.6,0.3-0.9,0.4
	c-0.3,0.1-0.7,0.1-1,0.1C1071.7,27.1,1071.1,26.9,1070.5,26.6z"/>
<path class="st17" d="M1080.2,26.8c-0.3,0.2-0.7,0.2-1,0.2c-1.2,0-1.8-0.7-1.8-2v-4.1h-1.2v-1h1.2v-1.7l1.1-0.4v2.1h1.8v1h-1.8v3.9
	c0,0.4,0.1,0.7,0.2,1c0.2,0.2,0.5,0.3,0.8,0.3s0.5-0.1,0.7-0.2V26.8z"/>
<path class="st17" d="M1088,17.2c-1.2,1.7-1.8,3.7-1.8,5.7s0.6,4,1.8,5.7h-1c-1.2-1.6-1.9-3.6-1.8-5.7c0-2.1,0.6-4.1,1.8-5.7H1088z"
	/>
<path class="st17" d="M1088.7,26.2l3.3-8.8h1.4l3.2,8.7v0.7h-7.9V26.2z M1095.2,25.9l-1.9-5.2c-0.2-0.7-0.5-1.5-0.7-2.1l0,0
	c-0.1,0.5-0.4,1.3-0.6,1.9l-2,5.4H1095.2z"/>
<path class="st17" d="M1100,27.5l3.9-10.1h1l-4,10.1H1100z"/>
<path class="st17" d="M1112.5,20.4c0,1.9-1,2.9-2.2,2.9c-1.2,0-2.1-0.9-2.1-2.7s1-2.9,2.2-2.9S1112.5,18.6,1112.5,20.4z
	 M1109.1,20.4c0,1.2,0.4,2,1.2,2c0.8,0,1.2-0.9,1.2-2.1s-0.3-2-1.2-2C1109.4,18.3,1109.1,19.3,1109.1,20.4L1109.1,20.4z
	 M1110.2,27.1l5.3-9.4h0.8l-5.3,9.4H1110.2z M1118.4,24.1c0,1.9-1,2.9-2.2,2.9c-1.2,0-2.1-0.9-2.1-2.7s1-2.9,2.2-2.9
	S1118.4,22.4,1118.4,24.1L1118.4,24.1z M1115.1,24.2c0,1.2,0.4,2,1.2,2c0.8,0,1.2-0.9,1.2-2.1s-0.3-2-1.2-2
	C1115.4,22.1,1115.1,23.1,1115.1,24.2L1115.1,24.2z"/>
<path class="st17" d="M1119.1,28.6c1.2-1.7,1.8-3.7,1.8-5.7c0.1-2-0.6-4-1.8-5.7h1c1.3,1.6,1.9,3.6,1.8,5.7c0.1,2.1-0.6,4.1-1.8,5.7
	C1120.1,28.6,1119.1,28.6,1119.1,28.6z"/>
<path class="st18" d="M26,222.5c-0.8,0.4-1.8,0.6-2.7,0.6c-1.3,0.1-2.5-0.4-3.4-1.4s-1.3-2.2-1.3-3.5c-0.1-1.4,0.5-2.8,1.4-3.8
	s2.2-1.5,3.6-1.4c0.8,0,1.6,0.1,2.3,0.4v1.2c-0.7-0.4-1.5-0.6-2.3-0.6c-1,0-2,0.4-2.7,1.1c-0.7,0.8-1.1,1.9-1,3
	c-0.1,1,0.3,2.1,1,2.9c0.6,0.7,1.5,1.1,2.5,1c0.9,0,1.8-0.2,2.6-0.6V222.5z"/>
<path class="st18" d="M33.5,222.9h-1.1v-1.1l0,0c-0.4,0.8-1.3,1.3-2.2,1.3c-1.7,0-2.5-1-2.5-3v-4.2h1.1v4c0,1.5,0.6,2.2,1.7,2.2
	c0.5,0,1-0.2,1.4-0.6c0.4-0.4,0.6-1,0.5-1.6v-4h1.1V222.9z"/>
<path class="st18" d="M35.3,222.6v-1.2c0.6,0.4,1.3,0.7,2,0.7c1,0,1.5-0.3,1.5-1c0-0.2,0-0.3-0.1-0.5c-0.1-0.1-0.2-0.2-0.3-0.3
	c-0.2-0.1-0.3-0.2-0.5-0.3l-0.6-0.2c-0.3-0.1-0.6-0.2-0.8-0.4c-0.2-0.1-0.4-0.3-0.6-0.4c-0.2-0.1-0.3-0.3-0.3-0.5
	c-0.1-0.2-0.1-0.5-0.1-0.7c0-0.3,0.1-0.6,0.2-0.9c0.2-0.3,0.4-0.5,0.6-0.6c0.3-0.2,0.6-0.3,0.9-0.4c0.3-0.1,0.7-0.1,1-0.1
	c0.6,0,1.1,0.1,1.6,0.3v1.1c-0.5-0.3-1.1-0.5-1.8-0.5c-0.2,0-0.4,0-0.6,0.1c-0.2,0-0.3,0.1-0.4,0.2c-0.1,0.1-0.2,0.2-0.3,0.3
	s-0.1,0.3-0.1,0.4c0,0.2,0,0.3,0.1,0.4c0.1,0.1,0.2,0.2,0.3,0.3s0.3,0.2,0.5,0.3l0.6,0.2c0.3,0.1,0.6,0.2,0.8,0.4
	c0.2,0.1,0.4,0.3,0.6,0.4c0.2,0.2,0.3,0.3,0.4,0.6c0.2,0.5,0.2,1.1-0.1,1.6c-0.1,0.3-0.4,0.5-0.6,0.6c-0.3,0.2-0.6,0.3-0.9,0.4
	c-0.3,0.1-0.7,0.1-1,0.1C36.5,223.1,35.9,222.9,35.3,222.6z"/>
<path class="st18" d="M44.9,222.8c-0.3,0.2-0.7,0.2-1,0.2c-1.2,0-1.8-0.7-1.8-2.1v-4.1h-1.2v-1H42v-1.7l1.1-0.4v2.1h1.8v1h-1.7v3.9
	c0,0.4,0.1,0.7,0.2,1c0.2,0.2,0.5,0.3,0.8,0.3s0.5-0.1,0.7-0.2L44.9,222.8z"/>
<path class="st18" d="M49.2,223.1c-0.9,0-1.8-0.3-2.5-1c-0.6-0.7-1-1.6-0.9-2.6c-0.1-1,0.3-2,1-2.8c0.7-0.7,1.6-1,2.6-1
	c0.9,0,1.8,0.3,2.4,1c1.2,1.6,1.2,3.8-0.1,5.4C51.1,222.8,50.2,223.1,49.2,223.1z M49.3,216.7c-0.7,0-1.3,0.2-1.7,0.7
	c-0.4,0.6-0.7,1.3-0.6,2c-0.1,0.7,0.2,1.4,0.6,2c0.4,0.5,1.1,0.7,1.7,0.7c0.6,0,1.3-0.2,1.7-0.7c0.4-0.6,0.6-1.3,0.6-2
	s-0.2-1.4-0.6-2C50.6,216.9,50,216.7,49.3,216.7L49.3,216.7z"/>
<path class="st18" d="M64.4,222.9h-1.1v-4c0.1-0.6,0-1.2-0.3-1.7c-0.3-0.4-0.7-0.6-1.2-0.5c-0.5,0-0.9,0.3-1.2,0.7s-0.5,1-0.5,1.6v4
	h-1.2v-4.1c0-1.4-0.5-2.1-1.6-2.1c-0.5,0-0.9,0.2-1.2,0.6c-0.3,0.5-0.5,1-0.5,1.6v4h-1.1v-7h1.1v1.1l0,0c0.4-0.8,1.3-1.3,2.2-1.3
	c0.4,0,0.9,0.1,1.2,0.4c0.4,0.3,0.6,0.6,0.7,1.1c0.4-0.9,1.3-1.5,2.3-1.4c1.5,0,2.3,0.9,2.3,2.9L64.4,222.9z"/>
<path class="st18" d="M72.2,219.7h-4.9c0,0.7,0.2,1.3,0.6,1.8c0.4,0.4,1,0.7,1.7,0.6c0.8,0,1.6-0.3,2.2-0.8v1.1
	c-0.7,0.5-1.6,0.7-2.4,0.7c-0.9,0-1.7-0.3-2.3-1c-0.6-0.8-0.9-1.7-0.8-2.7c0-1,0.3-1.9,0.9-2.7c0.6-0.7,1.4-1,2.3-1
	c0.8-0.1,1.6,0.3,2.1,0.9c0.5,0.7,0.8,1.6,0.8,2.5L72.2,219.7z M71,218.7c0-0.5-0.1-1.1-0.5-1.5c-0.3-0.4-0.8-0.6-1.3-0.5
	c-0.5,0-1,0.2-1.3,0.6c-0.4,0.4-0.6,0.9-0.7,1.5L71,218.7z"/>
<path class="st18" d="M77.5,217c-0.2-0.2-0.5-0.2-0.8-0.2c-0.5,0-0.9,0.3-1.2,0.7c-0.4,0.5-0.5,1.2-0.5,1.8v3.6h-1.1v-7H75v1.4l0,0
	c0.1-0.4,0.4-0.8,0.7-1.1c0.3-0.3,0.7-0.4,1.1-0.4c0.2,0,0.5,0,0.7,0.1L77.5,217z"/>
<path class="st18" d="M27.2,266.9h-1.4l-5.1-7.8c-0.1-0.2-0.2-0.4-0.3-0.6l0,0c0,0.4,0.1,0.9,0,1.4v7.1h-1.2v-9.8h1.5l4.9,7.7
	c0.1,0.2,0.3,0.4,0.4,0.7l0,0c-0.1-0.5-0.1-1-0.1-1.5v-6.9H27L27.2,266.9z"/>
<path class="st18" d="M35,266.9h-5.2v-9.8h5v1h-3.9v3.3h3.5v1h-3.5v3.4h4L35,266.9z"/>
<path class="st18" d="M42.7,258.1h-2.8v8.8h-1.1v-8.8H36v-1h6.8v1H42.7z"/>
<path class="st18" d="M52.3,257.1l-4.7,11.4h-1l4.7-11.4H52.3z"/>
<path class="st18" d="M64,266.5c-0.8,0.4-1.8,0.6-2.7,0.6c-1.3,0.1-2.5-0.4-3.3-1.4c-0.9-1-1.3-2.2-1.3-3.5
	c-0.1-1.4,0.5-2.8,1.4-3.8s2.2-1.5,3.6-1.5c0.8,0,1.6,0.1,2.3,0.4v1.2c-0.7-0.4-1.5-0.6-2.3-0.6c-1,0-2,0.4-2.7,1.1
	c-0.7,0.8-1.1,1.9-1,3c-0.1,1,0.3,2.1,1,2.9c0.6,0.7,1.6,1.1,2.5,1.1s1.8-0.2,2.6-0.6L64,266.5L64,266.5z"/>
<path class="st18" d="M71.5,266.9h-1.1v-1.1l0,0c-0.4,0.8-1.3,1.3-2.2,1.3c-1.7,0-2.5-1-2.5-3v-4.2h1.1v4c0,1.5,0.6,2.2,1.7,2.2
	c0.5,0,1-0.2,1.3-0.6c0.4-0.4,0.6-1,0.5-1.6v-4h1.1L71.5,266.9L71.5,266.9z"/>
<path class="st18" d="M73.3,266.6v-1.2c0.6,0.4,1.3,0.7,2,0.7c1,0,1.5-0.3,1.5-1c0-0.2,0-0.3-0.1-0.5c-0.1-0.1-0.2-0.3-0.3-0.3
	c-0.2-0.1-0.3-0.2-0.5-0.3l-0.6-0.2c-0.3-0.1-0.6-0.2-0.8-0.4c-0.2-0.1-0.4-0.3-0.6-0.4c-0.2-0.2-0.3-0.3-0.3-0.5
	c-0.1-0.2-0.1-0.5-0.1-0.7c0-0.3,0.1-0.6,0.2-0.9c0.2-0.3,0.4-0.5,0.6-0.6c0.3-0.2,0.6-0.3,0.9-0.4s0.7-0.1,1-0.1
	c0.6,0,1.1,0.1,1.6,0.3v1.1c-0.5-0.3-1.1-0.5-1.8-0.5c-0.2,0-0.4,0-0.6,0.1c-0.2,0-0.3,0.1-0.4,0.2c-0.2,0.2-0.4,0.4-0.4,0.7
	c0,0.2,0,0.3,0.1,0.5c0.1,0.1,0.2,0.2,0.3,0.3c0.1,0.1,0.3,0.2,0.5,0.3L76,263c0.3,0.1,0.6,0.2,0.8,0.4c0.2,0.1,0.4,0.3,0.6,0.4
	c0.3,0.3,0.5,0.7,0.5,1.2c0,0.3-0.1,0.6-0.2,0.9c-0.2,0.3-0.4,0.5-0.6,0.6c-0.3,0.2-0.6,0.3-0.9,0.4s-0.7,0.1-1,0.1
	C74.6,267.1,73.9,266.9,73.3,266.6z"/>
<path class="st18" d="M83,266.8c-0.3,0.2-0.7,0.2-1,0.2c-1.2,0-1.8-0.7-1.8-2v-4.1H79v-1h1.2v-1.7l1.1-0.4v2.1H83v1h-1.8v3.9
	c0,0.4,0.1,0.7,0.2,1c0.2,0.2,0.5,0.3,0.8,0.3s0.5-0.1,0.7-0.2L83,266.8z"/>
<path class="st18" d="M87.3,267.1c-0.9,0-1.8-0.3-2.5-1c-0.6-0.7-1-1.6-0.9-2.6c0-1,0.3-2,1-2.8c0.7-0.7,1.6-1,2.6-1
	c0.9,0,1.8,0.3,2.4,1s0.9,1.7,0.9,2.7s-0.3,1.9-0.9,2.7C89.2,266.8,88.2,267.1,87.3,267.1z M87.3,260.7c-0.7,0-1.3,0.2-1.7,0.7
	c-0.4,0.6-0.7,1.3-0.6,2c-0.1,0.7,0.2,1.4,0.6,2c0.4,0.5,1.1,0.7,1.7,0.7s1.3-0.2,1.7-0.7c0.4-0.6,0.6-1.3,0.6-2s-0.2-1.4-0.6-2
	C88.6,260.9,88,260.6,87.3,260.7z"/>
<path class="st18" d="M102.5,266.9h-1.1v-4c0-0.6-0.1-1.2-0.3-1.7c-0.3-0.4-0.7-0.6-1.2-0.5c-0.5,0-0.9,0.3-1.2,0.7
	c-0.3,0.5-0.5,1-0.5,1.6v4H97v-4.1c0-1.4-0.5-2.1-1.6-2.1c-0.5,0-0.9,0.2-1.2,0.6c-0.3,0.5-0.5,1-0.5,1.6v4h-1.2v-7h1.1v1.1l0,0
	c0.4-0.8,1.3-1.3,2.2-1.3c0.4,0,0.9,0.1,1.2,0.4c0.4,0.3,0.6,0.6,0.7,1c0.4-0.9,1.3-1.5,2.3-1.5c1.6,0,2.3,1,2.3,2.9L102.5,266.9z"
	/>
<path class="st18" d="M110.2,263.7h-4.9c0,0.7,0.2,1.3,0.6,1.8c0.4,0.4,1,0.7,1.7,0.6c0.8,0,1.6-0.3,2.2-0.8v1.1
	c-0.7,0.5-1.6,0.7-2.4,0.7c-0.9,0-1.7-0.3-2.3-1c-0.6-0.8-0.9-1.7-0.8-2.7c0-1,0.3-1.9,0.9-2.7c0.6-0.7,1.4-1,2.3-1
	c0.8-0.1,1.6,0.3,2.1,0.9c0.5,0.7,0.8,1.6,0.8,2.5v0.6H110.2z M109.1,262.7c0-0.5-0.1-1.1-0.5-1.5c-0.3-0.4-0.8-0.6-1.3-0.5
	c-0.5,0-1,0.2-1.3,0.6c-0.4,0.4-0.6,0.9-0.7,1.5h3.8V262.7z"/>
<path class="st18" d="M115.6,261c-0.3-0.2-0.5-0.2-0.8-0.2c-0.5,0-0.9,0.3-1.2,0.7c-0.3,0.5-0.5,1.2-0.5,1.8v3.6H112v-7h1.1v1.4l0,0
	c0.1-0.4,0.4-0.8,0.7-1.1c0.3-0.3,0.7-0.4,1.1-0.4c0.2,0,0.5,0,0.7,0.1L115.6,261z"/>
<g class="st19">
	<path class="st18" d="M91.3,112.9h-1.1v-6.6c0-0.5,0-1.2,0.1-1.9l0,0c-0.1,0.3-0.2,0.7-0.3,1l-3.3,7.5H86l-3.3-7.5
		c-0.1-0.3-0.2-0.7-0.3-1l0,0c0,0.4,0,1,0,1.9v6.6h-1.1v-9.8h1.5l3,6.8c0.2,0.4,0.3,0.8,0.4,1.2l0,0c0.2-0.5,0.4-0.9,0.5-1.2
		l3.1-6.8h1.4L91.3,112.9z"/>
	<path class="st18" d="M100.5,112.5c-0.8,0.4-1.8,0.6-2.7,0.6c-1.3,0.1-2.5-0.4-3.3-1.3c-0.9-1-1.3-2.2-1.3-3.5
		c-0.1-1.4,0.5-2.8,1.4-3.8s2.2-1.5,3.6-1.4c0.8,0,1.6,0.1,2.3,0.4v1.2c-0.7-0.4-1.5-0.6-2.3-0.6c-1,0-2,0.4-2.7,1.1
		c-0.7,0.8-1.1,1.9-1,3c-0.1,1,0.3,2.1,1,2.8c0.7,0.7,1.6,1.1,2.5,1c0.9,0,1.8-0.2,2.6-0.7L100.5,112.5z"/>
	<path class="st18" d="M104,108c-0.6,0-1.2-0.2-1.6-0.7s-0.6-1.1-0.6-1.8c0-0.7,0.2-1.4,0.6-1.9s1.1-0.7,1.7-0.7s1.2,0.2,1.6,0.7
		s0.6,1.2,0.6,1.8c0,0.7-0.2,1.4-0.7,1.9C105.3,107.8,104.6,108,104,108z M104.1,103.7c-0.4,0-0.8,0.2-1,0.5
		c-0.3,0.4-0.4,0.9-0.4,1.3c0,0.5,0.1,0.9,0.4,1.3c0.2,0.3,0.6,0.5,1,0.5s0.8-0.2,1-0.5c0.3-0.4,0.4-0.9,0.4-1.3
		c0-0.5-0.1-0.9-0.4-1.3C104.9,103.8,104.5,103.7,104.1,103.7L104.1,103.7z M110.6,103.1l-6.3,9.9h-1l6.3-9.9H110.6z M109.8,113.1
		c-0.6,0-1.2-0.2-1.6-0.7s-0.6-1.1-0.6-1.8c0-0.7,0.2-1.4,0.7-1.9c0.4-0.5,1.1-0.8,1.7-0.7c0.6,0,1.2,0.2,1.6,0.7s0.6,1.2,0.6,1.8
		c0,0.7-0.2,1.4-0.7,1.9C111.1,112.8,110.5,113.1,109.8,113.1L109.8,113.1z M109.9,108.8c-0.4,0-0.8,0.2-1,0.5
		c-0.3,0.4-0.4,0.9-0.4,1.3c0,0.5,0.1,0.9,0.4,1.3c0.2,0.3,0.6,0.5,1,0.5s0.8-0.2,1-0.5c0.3-0.4,0.4-0.9,0.4-1.3
		c0-0.5-0.1-0.9-0.3-1.3C110.7,108.9,110.3,108.7,109.9,108.8L109.9,108.8z"/>
</g>
<path class="st18" d="M91.3,135.9h-1.1v-6.6c0-0.5,0-1.2,0.1-1.9l0,0c-0.1,0.3-0.2,0.7-0.3,1l-3.3,7.5H86l-3.3-7.5
	c-0.1-0.3-0.2-0.7-0.3-1l0,0c0,0.4,0,1,0,1.9v6.6h-1.1v-9.8h1.5l3,6.8c0.2,0.4,0.3,0.8,0.4,1.2l0,0c0.2-0.5,0.4-0.9,0.5-1.2l3.1-6.8
	h1.4L91.3,135.9z"/>
<path class="st18" d="M100.5,135.5c-0.8,0.4-1.8,0.6-2.7,0.6c-1.3,0.1-2.5-0.4-3.3-1.4c-0.9-1-1.3-2.2-1.3-3.5
	c-0.1-1.4,0.5-2.8,1.4-3.8s2.2-1.5,3.6-1.4c0.8,0,1.6,0.1,2.3,0.4v1.2c-0.7-0.4-1.5-0.6-2.3-0.6c-1,0-2,0.4-2.7,1.1
	c-0.7,0.8-1.1,1.9-1,3c-0.1,1,0.3,2.1,1,2.9c0.7,0.7,1.6,1.1,2.5,1c0.9,0,1.8-0.2,2.6-0.6L100.5,135.5z"/>
<g class="st20">
	<path class="st21" d="M78,107h-1c-1.1,0-2,0.9-2,2v20c0,1.1,0.9,2,2,2h1"/>
	<line class="st21" x1="72" y1="119" x2="75" y2="119"/>
</g>
<path class="st6" d="M460,92h-88c-6.6,0-12,5.4-12,12v32c0,6.6,5.4,12,12,12h88c6.6,0,12-5.4,12-12v-32C472,97.4,466.6,92,460,92z
	 M380,122v14c0,3.3-2.7,6-6,6s-6-2.7-6-6v-14H380z M368,118v-14c0-3.3,2.7-6,6-6s6,2.7,6,6v14H368z"/>
<path class="st8" d="M372,8h88c6.6,0,12,5.4,12,12v4c0,6.6-5.4,12-12,12h-88c-6.6,0-12-5.4-12-12v-4C360,13.4,365.4,8,372,8z"/>
<path class="st7" d="M460,48h-88c-6.6,0-12,5.4-12,12v12c0,6.6,5.4,12,12,12h88c6.6,0,12-5.4,12-12V60C472,53.4,466.6,48,460,48z
	 M380,72c0,3.3-2.7,6-6,6s-6-2.7-6-6V60c0-3.3,2.7-6,6-6s6,2.7,6,6V72z"/>
<path class="st9" d="M460,156h-88c-6.6,0-12,5.4-12,12v12c0,6.6,5.4,12,12,12h88c6.6,0,12-5.4,12-12v-12
	C472,161.4,466.6,156,460,156z M380,180c0,3.3-2.7,6-6,6s-6-2.7-6-6v-12c0-3.3,2.7-6,6-6s6,2.7,6,6V180z"/>
<path class="st10" d="M460,200h-88c-6.6,0-12,5.4-12,12v12c0,6.6,5.4,12,12,12h88c6.6,0,12-5.4,12-12v-12
	C472,205.4,466.6,200,460,200z M380,224c0,3.3-2.7,6-6,6s-6-2.7-6-6v-12c0-3.3,2.7-6,6-6s6,2.7,6,6V224z"/>
<linearGradient id="SVGID_00000015355683661455024230000010149517818618317960_" gradientUnits="userSpaceOnUse" x1="416" y1="834" x2="416" y2="798" gradientTransform="matrix(1 0 0 1 0 -554)">
	<stop  offset="0" style="stop-color:#51605C"/>
	<stop  offset="1" style="stop-color:#414951"/>
</linearGradient>
<path style="fill:url(#SVGID_00000015355683661455024230000010149517818618317960_);" d="M460,244h-88c-6.6,0-12,5.4-12,12v12
	c0,6.6,5.4,12,12,12h88c6.6,0,12-5.4,12-12v-12C472,249.4,466.6,244,460,244z M380,268c0,3.3-2.7,6-6,6s-6-2.7-6-6v-12
	c0-3.3,2.7-6,6-6s6,2.7,6,6V268z"/>
<g>
	<g>
		<path class="st17" d="M403.9,27h-1.4l-1.6-2.7c-0.2-0.3-0.3-0.5-0.4-0.7s-0.3-0.3-0.4-0.4s-0.3-0.2-0.5-0.2s-0.4-0.1-0.6-0.1h-0.9
			V27h-1.1v-9.8h2.9c0.4,0,0.8,0.1,1.2,0.2s0.7,0.3,0.9,0.5s0.5,0.5,0.6,0.8s0.2,0.7,0.2,1.1c0,0.3-0.1,0.7-0.2,0.9
			s-0.2,0.5-0.4,0.8s-0.4,0.4-0.7,0.6s-0.6,0.3-0.9,0.4v0c0.2,0.1,0.3,0.2,0.4,0.2s0.2,0.2,0.3,0.3s0.2,0.3,0.3,0.4s0.2,0.3,0.4,0.6
			L403.9,27z M398.1,18.2v3.6h1.6c0.3,0,0.6,0,0.8-0.1s0.5-0.2,0.6-0.4s0.3-0.4,0.4-0.6s0.2-0.5,0.2-0.8c0-0.5-0.2-0.9-0.5-1.2
			s-0.8-0.4-1.5-0.4H398.1z"/>
		<path class="st17" d="M410.4,23.8h-4.9c0,0.8,0.2,1.4,0.6,1.8s1,0.6,1.7,0.6c0.8,0,1.5-0.3,2.2-0.8v1.1c-0.6,0.4-1.4,0.7-2.4,0.7
			c-1,0-1.8-0.3-2.3-1s-0.8-1.5-0.8-2.7c0-1.1,0.3-2,0.9-2.7s1.4-1,2.3-1s1.6,0.3,2.1,0.9s0.8,1.4,0.8,2.5V23.8z M409.2,22.8
			c0-0.6-0.2-1.2-0.5-1.5s-0.7-0.5-1.3-0.5c-0.5,0-1,0.2-1.3,0.6s-0.6,0.9-0.7,1.5H409.2z"/>
		<path class="st17" d="M415.3,26.9c-0.3,0.1-0.6,0.2-1,0.2c-1.2,0-1.8-0.7-1.8-2.1V21h-1.2v-1h1.2v-1.7l1.1-0.4V20h1.8v1h-1.8v3.9
			c0,0.5,0.1,0.8,0.2,1s0.4,0.3,0.8,0.3c0.3,0,0.5-0.1,0.7-0.2V26.9z"/>
		<path class="st17" d="M422.5,27h-1.1v-1.1h0c-0.5,0.8-1.2,1.3-2.2,1.3c-1.7,0-2.5-1-2.5-3V20h1.1v4c0,1.5,0.6,2.2,1.7,2.2
			c0.5,0,1-0.2,1.4-0.6s0.5-0.9,0.5-1.6v-4h1.1V27z"/>
		<path class="st17" d="M428.4,21.1c-0.2-0.2-0.5-0.2-0.8-0.2c-0.5,0-0.9,0.2-1.2,0.7s-0.5,1.1-0.5,1.8V27h-1.1v-7h1.1v1.4h0
			c0.2-0.5,0.4-0.9,0.7-1.2s0.7-0.4,1.1-0.4c0.3,0,0.5,0,0.7,0.1V21.1z"/>
		<path class="st17" d="M435.4,27h-1.1v-4c0-1.5-0.5-2.2-1.6-2.2c-0.6,0-1,0.2-1.4,0.6s-0.6,1-0.6,1.6v4h-1.1v-7h1.1v1.2h0
			c0.5-0.9,1.3-1.3,2.3-1.3c0.8,0,1.4,0.2,1.8,0.7s0.6,1.2,0.6,2.1V27z"/>
	</g>
</g>
</svg>
