<svg xmlns="http://www.w3.org/2000/svg" xmlns:xlink="http://www.w3.org/1999/xlink" viewBox="0 0 1304 296"><defs><style>.cls-1{fill:#5a75a3;}.cls-2{fill:url(#Gradiente_sem_nome_2);}.cls-3{fill:#d9ac5e;}.cls-4{fill:#55ae9f;}.cls-5{fill:#cc6a69;}.cls-6{fill:none;stroke-width:2px;opacity:0.5;}.cls-19,.cls-6{stroke:#fff;}.cls-19,.cls-20,.cls-6{stroke-miterlimit:10;}.cls-7{fill:#404952;}.cls-8{fill:url(#Gradiente_sem_nome_6);}.cls-9{fill:#5c574f;}.cls-10{fill:#4e615d;}.cls-11{fill:url(#Gradiente_sem_nome_6-2);}.cls-12{fill:url(#Gradiente_sem_nome_6-3);}.cls-13{fill:url(#Gradiente_sem_nome_6-4);}.cls-14{fill:url(#Gradiente_sem_nome_6-5);}.cls-15{fill:url(#Gradiente_sem_nome_6-6);}.cls-16{fill:url(#Gradiente_sem_nome_6-7);}.cls-17{fill:#624b4a;}.cls-18{fill:#d7e4e3;}.cls-19{fill:#fff;}.cls-19,.cls-20{stroke-width:0.4px;}.cls-20{fill:#556464;stroke:#556464;}</style><linearGradient id="Gradiente_sem_nome_2" x1="596.5" y1="283" x2="596.5" y2="259" gradientUnits="userSpaceOnUse"><stop offset="0.3" stop-color="#55ae9f"/><stop offset="0.7" stop-color="#5a75a3"/></linearGradient><linearGradient id="Gradiente_sem_nome_6" x1="214" y1="289" x2="214" y2="253" gradientUnits="userSpaceOnUse"><stop offset="0" stop-color="#4e615d"/><stop offset="1" stop-color="#404952"/></linearGradient><linearGradient id="Gradiente_sem_nome_6-2" x1="326" x2="326" xlink:href="#Gradiente_sem_nome_6"/><linearGradient id="Gradiente_sem_nome_6-3" x1="438" x2="438" xlink:href="#Gradiente_sem_nome_6"/><linearGradient id="Gradiente_sem_nome_6-4" x1="550" x2="550" xlink:href="#Gradiente_sem_nome_6"/><linearGradient id="Gradiente_sem_nome_6-5" x1="722" x2="722" xlink:href="#Gradiente_sem_nome_6"/><linearGradient id="Gradiente_sem_nome_6-6" x1="954" x2="954" xlink:href="#Gradiente_sem_nome_6"/><linearGradient id="Gradiente_sem_nome_6-7" x1="1186" x2="1186" xlink:href="#Gradiente_sem_nome_6"/></defs><g id="barras"><path class="cls-1" d="M19,50H1186a0,0,0,0,1,0,0V74a0,0,0,0,1,0,0H19A12,12,0,0,1,7,62v0A12,12,0,0,1,19,50Z"/><path class="cls-2" d="M19,259H1186a0,0,0,0,1,0,0v24a0,0,0,0,1,0,0H19A12,12,0,0,1,7,271v0A12,12,0,0,1,19,259Z"/><path class="cls-3" d="M19,169H1186a0,0,0,0,1,0,0v24a0,0,0,0,1,0,0H19A12,12,0,0,1,7,181v0a12,12,0,0,1,12-12Z"/><path class="cls-4" d="M19,214H1186a0,0,0,0,1,0,0v24a0,0,0,0,1,0,0H19A12,12,0,0,1,7,226v0a12,12,0,0,1,12-12Z"/><path class="cls-5" d="M19,95A12,12,0,0,0,7,107v29a12,12,0,0,0,12,12H1186V95Z"/><path class="cls-6" d="M96.41,132.94H92a8,8,0,0,1-8-8v-6.88a8,8,0,0,1,8-8h4.4"/></g><g id="caixas"><path class="cls-7" d="M253,44H175a12,12,0,0,0-12,12V68a12,12,0,0,0,12,12h78a12,12,0,0,0,12-12V56A12,12,0,0,0,253,44ZM179,72a2,2,0,0,1-2,2,8,8,0,0,1-8-8V58a8,8,0,0,1,8-8,2,2,0,0,1,2,2Z"/><path class="cls-8" d="M253,253H175a12,12,0,0,0-12,12v12a12,12,0,0,0,12,12h78a12,12,0,0,0,12-12V265A12,12,0,0,0,253,253Zm-74,28a2,2,0,0,1-2,2,8,8,0,0,1-8-8v-8a8,8,0,0,1,8-8,2,2,0,0,1,2,2Z"/><path class="cls-9" d="M253,163H175a12,12,0,0,0-12,12v12a12,12,0,0,0,12,12h78a12,12,0,0,0,12-12V175A12,12,0,0,0,253,163Zm-74,28a2,2,0,0,1-2,2,8,8,0,0,1-8-8v-8a8,8,0,0,1,8-8,2,2,0,0,1,2,2Z"/><path class="cls-10" d="M253,208H175a12,12,0,0,0-12,12v12a12,12,0,0,0,12,12h78a12,12,0,0,0,12-12V220A12,12,0,0,0,253,208Zm-74,28a2,2,0,0,1-2,2,8,8,0,0,1-8-8v-8a8,8,0,0,1,8-8,2,2,0,0,1,2,2Z"/><path class="cls-7" d="M365,44H287a12,12,0,0,0-12,12V68a12,12,0,0,0,12,12h78a12,12,0,0,0,12-12V56A12,12,0,0,0,365,44ZM291,72a2,2,0,0,1-2,2,8,8,0,0,1-8-8V58a8,8,0,0,1,8-8,2,2,0,0,1,2,2Z"/><path class="cls-11" d="M365,253H287a12,12,0,0,0-12,12v12a12,12,0,0,0,12,12h78a12,12,0,0,0,12-12V265A12,12,0,0,0,365,253Zm-74,28a2,2,0,0,1-2,2,8,8,0,0,1-8-8v-8a8,8,0,0,1,8-8,2,2,0,0,1,2,2Z"/><path class="cls-9" d="M365,163H287a12,12,0,0,0-12,12v12a12,12,0,0,0,12,12h78a12,12,0,0,0,12-12V175A12,12,0,0,0,365,163Zm-74,28a2,2,0,0,1-2,2,8,8,0,0,1-8-8v-8a8,8,0,0,1,8-8,2,2,0,0,1,2,2Z"/><path class="cls-10" d="M365,208H287a12,12,0,0,0-12,12v12a12,12,0,0,0,12,12h78a12,12,0,0,0,12-12V220A12,12,0,0,0,365,208Zm-74,28a2,2,0,0,1-2,2,8,8,0,0,1-8-8v-8a8,8,0,0,1,8-8,2,2,0,0,1,2,2Z"/><path class="cls-7" d="M477,44H399a12,12,0,0,0-12,12V68a12,12,0,0,0,12,12h78a12,12,0,0,0,12-12V56A12,12,0,0,0,477,44ZM403,72a2,2,0,0,1-2,2,8,8,0,0,1-8-8V58a8,8,0,0,1,8-8,2,2,0,0,1,2,2Z"/><path class="cls-12" d="M477,253H399a12,12,0,0,0-12,12v12a12,12,0,0,0,12,12h78a12,12,0,0,0,12-12V265A12,12,0,0,0,477,253Zm-74,28a2,2,0,0,1-2,2,8,8,0,0,1-8-8v-8a8,8,0,0,1,8-8,2,2,0,0,1,2,2Z"/><path class="cls-9" d="M477,163H399a12,12,0,0,0-12,12v12a12,12,0,0,0,12,12h78a12,12,0,0,0,12-12V175A12,12,0,0,0,477,163Zm-74,28a2,2,0,0,1-2,2,8,8,0,0,1-8-8v-8a8,8,0,0,1,8-8,2,2,0,0,1,2,2Z"/><path class="cls-10" d="M477,208H399a12,12,0,0,0-12,12v12a12,12,0,0,0,12,12h78a12,12,0,0,0,12-12V220A12,12,0,0,0,477,208Zm-74,28a2,2,0,0,1-2,2,8,8,0,0,1-8-8v-8a8,8,0,0,1,8-8,2,2,0,0,1,2,2Z"/><path class="cls-7" d="M589,44H511a12,12,0,0,0-12,12V68a12,12,0,0,0,12,12h78a12,12,0,0,0,12-12V56A12,12,0,0,0,589,44ZM515,72a2,2,0,0,1-2,2,8,8,0,0,1-8-8V58a8,8,0,0,1,8-8,2,2,0,0,1,2,2Z"/><path class="cls-13" d="M589,253H511a12,12,0,0,0-12,12v12a12,12,0,0,0,12,12h78a12,12,0,0,0,12-12V265A12,12,0,0,0,589,253Zm-74,28a2,2,0,0,1-2,2,8,8,0,0,1-8-8v-8a8,8,0,0,1,8-8,2,2,0,0,1,2,2Z"/><path class="cls-9" d="M589,163H511a12,12,0,0,0-12,12v12a12,12,0,0,0,12,12h78a12,12,0,0,0,12-12V175A12,12,0,0,0,589,163Zm-74,28a2,2,0,0,1-2,2,8,8,0,0,1-8-8v-8a8,8,0,0,1,8-8,2,2,0,0,1,2,2Z"/><path class="cls-10" d="M589,208H511a12,12,0,0,0-12,12v12a12,12,0,0,0,12,12h78a12,12,0,0,0,12-12V220A12,12,0,0,0,589,208Zm-74,28a2,2,0,0,1-2,2,8,8,0,0,1-8-8v-8a8,8,0,0,1,8-8,2,2,0,0,1,2,2Z"/><path class="cls-7" d="M821,44H623a12,12,0,0,0-12,12V68a12,12,0,0,0,12,12H821a12,12,0,0,0,12-12V56A12,12,0,0,0,821,44ZM627,72a2,2,0,0,1-2,2,8,8,0,0,1-8-8V58a8,8,0,0,1,8-8,2,2,0,0,1,2,2Z"/><path class="cls-14" d="M821,253H623a12,12,0,0,0-12,12v12a12,12,0,0,0,12,12H821a12,12,0,0,0,12-12V265A12,12,0,0,0,821,253ZM627,281a2,2,0,0,1-2,2,8,8,0,0,1-8-8v-8a8,8,0,0,1,8-8,2,2,0,0,1,2,2Z"/><path class="cls-9" d="M821,163H623a12,12,0,0,0-12,12v12a12,12,0,0,0,12,12H821a12,12,0,0,0,12-12V175A12,12,0,0,0,821,163ZM627,191a2,2,0,0,1-2,2,8,8,0,0,1-8-8v-8a8,8,0,0,1,8-8,2,2,0,0,1,2,2Z"/><path class="cls-10" d="M821,208H623a12,12,0,0,0-12,12v12a12,12,0,0,0,12,12H821a12,12,0,0,0,12-12V220A12,12,0,0,0,821,208ZM627,236a2,2,0,0,1-2,2,8,8,0,0,1-8-8v-8a8,8,0,0,1,8-8,2,2,0,0,1,2,2Z"/><path class="cls-7" d="M1053,44H855a12,12,0,0,0-12,12V68a12,12,0,0,0,12,12h198a12,12,0,0,0,12-12V56A12,12,0,0,0,1053,44ZM859,72a2,2,0,0,1-2,2,8,8,0,0,1-8-8V58a8,8,0,0,1,8-8,2,2,0,0,1,2,2Z"/><path class="cls-15" d="M1053,253H855a12,12,0,0,0-12,12v12a12,12,0,0,0,12,12h198a12,12,0,0,0,12-12V265A12,12,0,0,0,1053,253ZM859,281a2,2,0,0,1-2,2,8,8,0,0,1-8-8v-8a8,8,0,0,1,8-8,2,2,0,0,1,2,2Z"/><path class="cls-9" d="M1053,163H855a12,12,0,0,0-12,12v12a12,12,0,0,0,12,12h198a12,12,0,0,0,12-12V175A12,12,0,0,0,1053,163ZM859,191a2,2,0,0,1-2,2,8,8,0,0,1-8-8v-8a8,8,0,0,1,8-8,2,2,0,0,1,2,2Z"/><path class="cls-10" d="M1053,208H855a12,12,0,0,0-12,12v12a12,12,0,0,0,12,12h198a12,12,0,0,0,12-12V220A12,12,0,0,0,1053,208ZM859,236a2,2,0,0,1-2,2,8,8,0,0,1-8-8v-8a8,8,0,0,1,8-8,2,2,0,0,1,2,2Z"/><path class="cls-7" d="M1285,44H1087a12,12,0,0,0-12,12V68a12,12,0,0,0,12,12h198a12,12,0,0,0,12-12V56A12,12,0,0,0,1285,44ZM1091,72a2,2,0,0,1-2,2,8,8,0,0,1-8-8V58a8,8,0,0,1,8-8,2,2,0,0,1,2,2Z"/><path class="cls-16" d="M1285,253H1087a12,12,0,0,0-12,12v12a12,12,0,0,0,12,12h198a12,12,0,0,0,12-12V265A12,12,0,0,0,1285,253Zm-194,28a2,2,0,0,1-2,2,8,8,0,0,1-8-8v-8a8,8,0,0,1,8-8,2,2,0,0,1,2,2Z"/><path class="cls-9" d="M1285,163H1087a12,12,0,0,0-12,12v12a12,12,0,0,0,12,12h198a12,12,0,0,0,12-12V175A12,12,0,0,0,1285,163Zm-194,28a2,2,0,0,1-2,2,8,8,0,0,1-8-8v-8a8,8,0,0,1,8-8,2,2,0,0,1,2,2Z"/><path class="cls-10" d="M1285,208H1087a12,12,0,0,0-12,12v12a12,12,0,0,0,12,12h198a12,12,0,0,0,12-12V220A12,12,0,0,0,1285,208Zm-194,28a2,2,0,0,1-2,2,8,8,0,0,1-8-8v-8a8,8,0,0,1,8-8,2,2,0,0,1,2,2Z"/><path class="cls-17" d="M163,142a12,12,0,0,0,12,12h78a12,12,0,0,0,12-12V101a12,12,0,0,0-12-12H175a12,12,0,0,0-12,12Zm16-8.6V146a2,2,0,0,1-2,2,8,8,0,0,1-8-8V126a2,2,0,0,1,2-2h6a1.5,1.5,0,0,1,.37,0l.13,0,.21.07.15.06.15.08.17.11.08.07A2,2,0,0,1,179,126Zm0-23.8V117a2,2,0,0,1-.74,1.54l-.08.07-.17.11-.15.08-.15.06-.21.07-.13,0a1.5,1.5,0,0,1-.37,0h-6a2,2,0,0,1-2-2V103a8,8,0,0,1,8-8,2,2,0,0,1,2,2Z"/><path class="cls-17" d="M275,142a12,12,0,0,0,12,12h78a12,12,0,0,0,12-12V101a12,12,0,0,0-12-12H287a12,12,0,0,0-12,12Zm16-8.6V146a2,2,0,0,1-2,2,8,8,0,0,1-8-8V126a2,2,0,0,1,2-2h6a1.5,1.5,0,0,1,.37,0l.13,0,.21.07.15.06.15.08.17.11.08.07A2,2,0,0,1,291,126Zm0-23.8V117a2,2,0,0,1-.74,1.54l-.08.07-.17.11-.15.08-.15.06-.21.07-.13,0a1.5,1.5,0,0,1-.37,0h-6a2,2,0,0,1-2-2V103a8,8,0,0,1,8-8,2,2,0,0,1,2,2Z"/><path class="cls-17" d="M387,142a12,12,0,0,0,12,12h78a12,12,0,0,0,12-12V101a12,12,0,0,0-12-12H399a12,12,0,0,0-12,12Zm16-8.6V146a2,2,0,0,1-2,2,8,8,0,0,1-8-8V126a2,2,0,0,1,2-2h6a1.5,1.5,0,0,1,.37,0l.13,0,.21.07.15.06.15.08.17.11.08.07A2,2,0,0,1,403,126Zm0-23.8V117a2,2,0,0,1-.74,1.54l-.08.07-.17.11-.15.08-.15.06-.21.07-.13,0a1.5,1.5,0,0,1-.37,0h-6a2,2,0,0,1-2-2V103a8,8,0,0,1,8-8,2,2,0,0,1,2,2Z"/><path class="cls-17" d="M499,142a12,12,0,0,0,12,12h78a12,12,0,0,0,12-12V101a12,12,0,0,0-12-12H511a12,12,0,0,0-12,12Zm16-8.6V146a2,2,0,0,1-2,2,8,8,0,0,1-8-8V126a2,2,0,0,1,2-2h6a1.5,1.5,0,0,1,.37,0l.13,0,.21.07.15.06.15.08.17.11.08.07A2,2,0,0,1,515,126Zm0-23.8V117a2,2,0,0,1-.74,1.54l-.08.07-.17.11-.15.08-.15.06-.21.07-.13,0a1.5,1.5,0,0,1-.37,0h-6a2,2,0,0,1-2-2V103a8,8,0,0,1,8-8,2,2,0,0,1,2,2Z"/><path class="cls-17" d="M611,142a12,12,0,0,0,12,12H821a12,12,0,0,0,12-12V101a12,12,0,0,0-12-12H623a12,12,0,0,0-12,12Zm16-8.6V146a2,2,0,0,1-2,2,8,8,0,0,1-8-8V126a2,2,0,0,1,2-2h6a1.5,1.5,0,0,1,.37,0l.13,0,.21.07.15.06.15.08.17.11.08.07A2,2,0,0,1,627,126Zm0-23.8V117a2,2,0,0,1-.74,1.54l-.08.07-.17.11-.15.08-.15.06-.21.07-.13,0a1.5,1.5,0,0,1-.37,0h-6a2,2,0,0,1-2-2V103a8,8,0,0,1,8-8,2,2,0,0,1,2,2Z"/><path class="cls-17" d="M843,142a12,12,0,0,0,12,12h198a12,12,0,0,0,12-12V101a12,12,0,0,0-12-12H855a12,12,0,0,0-12,12Zm16-8.6V146a2,2,0,0,1-2,2,8,8,0,0,1-8-8V126a2,2,0,0,1,2-2h6a1.5,1.5,0,0,1,.37,0l.13,0,.21.07.15.06.15.08.17.11.08.07A2,2,0,0,1,859,126Zm0-23.8V117a2,2,0,0,1-.74,1.54l-.08.07-.17.11-.15.08-.15.06-.21.07-.13,0a1.5,1.5,0,0,1-.37,0h-6a2,2,0,0,1-2-2V103a8,8,0,0,1,8-8,2,2,0,0,1,2,2Z"/><path class="cls-17" d="M1075,142a12,12,0,0,0,12,12h198a12,12,0,0,0,12-12V101a12,12,0,0,0-12-12H1087a12,12,0,0,0-12,12Zm16-8.6V146a2,2,0,0,1-2,2,8,8,0,0,1-8-8V126a2,2,0,0,1,2-2h6a1.5,1.5,0,0,1,.37,0l.13,0,.21.07.15.06.15.08.17.11.08.07A2,2,0,0,1,1091,126Zm0-23.8V117a2,2,0,0,1-.74,1.54l-.08.07-.17.11-.15.08-.15.06-.21.07-.13,0a1.5,1.5,0,0,1-.37,0h-6a2,2,0,0,1-2-2V103a8,8,0,0,1,8-8,2,2,0,0,1,2,2Z"/><rect class="cls-18" x="163" y="7" width="102" height="28" rx="12"/><rect class="cls-18" x="387" y="7" width="102" height="28" rx="12"/><rect class="cls-18" x="275" y="7" width="102" height="28" rx="12"/><rect class="cls-18" x="499" y="7" width="102" height="28" rx="12"/><rect class="cls-18" x="611" y="7" width="222" height="28" rx="12"/><rect class="cls-18" x="843" y="7" width="222" height="28" rx="12"/><rect class="cls-18" x="1075" y="7" width="222" height="28" rx="12"/></g><g id="txt"><path class="cls-19" d="M28.3,231.18a6.56,6.56,0,0,1-3.1.66,5,5,0,0,1-3.82-1.54,5.69,5.69,0,0,1-1.44-4,6,6,0,0,1,1.61-4.35,5.52,5.52,0,0,1,4.11-1.65,6.54,6.54,0,0,1,2.64.46v1.4a5.36,5.36,0,0,0-2.66-.67,4.1,4.1,0,0,0-3.13,1.28,4.86,4.86,0,0,0-1.2,3.45,4.66,4.66,0,0,0,1.12,3.26,3.83,3.83,0,0,0,2.95,1.22,5.54,5.54,0,0,0,2.92-.75Z"/><path class="cls-19" d="M31.69,231.65H30.41V219.8h1.28Z"/><path class="cls-19" d="M34.94,221.62a.81.81,0,0,1-.59-.24.78.78,0,0,1-.24-.59.82.82,0,0,1,.83-.84.85.85,0,0,1,.6.24.81.81,0,0,1,.24.6.82.82,0,0,1-.24.59A.85.85,0,0,1,34.94,221.62Zm.62,10H34.28v-8h1.28Z"/><path class="cls-19" d="M44.59,228H38.94a3,3,0,0,0,.72,2.06,2.43,2.43,0,0,0,1.89.73,3.93,3.93,0,0,0,2.48-.89v1.2a4.64,4.64,0,0,1-2.79.77,3.39,3.39,0,0,1-2.66-1.09,4.45,4.45,0,0,1-1-3.07,4.35,4.35,0,0,1,1.06-3,3.37,3.37,0,0,1,2.63-1.18,3,3,0,0,1,2.43,1,4.22,4.22,0,0,1,.86,2.82Zm-1.32-1.09a2.56,2.56,0,0,0-.53-1.72,1.83,1.83,0,0,0-1.47-.62,2.1,2.1,0,0,0-1.54.65,3,3,0,0,0-.78,1.69Z"/><path class="cls-19" d="M53.16,231.65H51.88v-4.56q0-2.55-1.86-2.55a2,2,0,0,0-1.59.72,2.68,2.68,0,0,0-.63,1.83v4.56H46.52v-8H47.8V225h0a2.88,2.88,0,0,1,2.62-1.52,2.44,2.44,0,0,1,2,.85,3.78,3.78,0,0,1,.69,2.45Z"/><path class="cls-19" d="M59.29,231.57a2.43,2.43,0,0,1-1.2.25q-2.1,0-2.1-2.34v-4.74H54.62v-1.09H56v-2l1.28-.42v2.37h2v1.09h-2v4.51a1.81,1.81,0,0,0,.28,1.15,1.07,1.07,0,0,0,.9.34,1.4,1.4,0,0,0,.84-.26Z"/><path class="cls-19" d="M67.3,228H61.66a3,3,0,0,0,.72,2.06,2.43,2.43,0,0,0,1.89.73,4,4,0,0,0,2.48-.89v1.2a4.64,4.64,0,0,1-2.79.77,3.39,3.39,0,0,1-2.66-1.09,4.45,4.45,0,0,1-1-3.07,4.35,4.35,0,0,1,1.06-3A3.37,3.37,0,0,1,64,223.46a3,3,0,0,1,2.43,1,4.22,4.22,0,0,1,.85,2.82ZM66,226.88a2.56,2.56,0,0,0-.53-1.72,1.83,1.83,0,0,0-1.47-.62,2.1,2.1,0,0,0-1.54.65,3,3,0,0,0-.78,1.69Z"/><path class="cls-19" d="M68.76,231.36V230a3.76,3.76,0,0,0,2.3.78c1.13,0,1.69-.38,1.69-1.13a1,1,0,0,0-.14-.54,1.36,1.36,0,0,0-.4-.39,2.56,2.56,0,0,0-.57-.31l-.72-.29q-.53-.21-.93-.42a3,3,0,0,1-.67-.49,1.77,1.77,0,0,1-.41-.61,2.21,2.21,0,0,1-.14-.81,1.92,1.92,0,0,1,.26-1,2.28,2.28,0,0,1,.69-.73,3.25,3.25,0,0,1,1-.44,4.35,4.35,0,0,1,1.14-.15,4.61,4.61,0,0,1,1.86.36v1.3a3.61,3.61,0,0,0-2-.58,2.49,2.49,0,0,0-.64.08,1.65,1.65,0,0,0-.5.23,1,1,0,0,0-.32.36.88.88,0,0,0-.11.45,1.07,1.07,0,0,0,.11.53,1.15,1.15,0,0,0,.33.37,2.63,2.63,0,0,0,.53.3l.71.29a7.26,7.26,0,0,1,1,.42,3.22,3.22,0,0,1,.72.48,1.93,1.93,0,0,1,.45.62,2,2,0,0,1,.16.84,1.93,1.93,0,0,1-.26,1,2.32,2.32,0,0,1-.7.73,3.42,3.42,0,0,1-1,.43,5.17,5.17,0,0,1-1.19.14A4.51,4.51,0,0,1,68.76,231.36Z"/><path class="cls-20" d="M214.51,26.6H212.9l-5.76-8.93a3.32,3.32,0,0,1-.36-.7h-.05a12,12,0,0,1,.06,1.54V26.6h-1.31V15.4h1.71l5.6,8.79a8.16,8.16,0,0,1,.46.75h0a12.17,12.17,0,0,1-.08-1.65V15.4h1.31Z"/><path class="cls-20" d="M223.14,16.59h-4.38v3.87h4.05v1.18h-4.05v5h-1.31V15.4h5.69Z"/><path class="cls-20" d="M319.24,22.37V26.6h-1.32V15.4H321a4.09,4.09,0,0,1,2.79.87,3.14,3.14,0,0,1,1,2.47,3.41,3.41,0,0,1-1.1,2.61,4.18,4.18,0,0,1-3,1Zm0-5.78v4.59h1.37a3.11,3.11,0,0,0,2.08-.62,2.23,2.23,0,0,0,.71-1.76c0-1.47-.87-2.21-2.62-2.21Z"/><path class="cls-20" d="M335.21,15.4l-4.15,11.2h-1.44l-4.06-11.2H327l3.1,8.88a6,6,0,0,1,.23,1h0a4.57,4.57,0,0,1,.25-1l3.17-8.87Z"/><path class="cls-20" d="M531.21,26.6H529.6l-5.77-8.93a3.81,3.81,0,0,1-.35-.7h-.05a12,12,0,0,1,.06,1.54V26.6h-1.31V15.4h1.7l5.61,8.79a5.84,5.84,0,0,1,.45.75h0a10.69,10.69,0,0,1-.08-1.65V15.4h1.31Z"/><path class="cls-20" d="M539.83,16.59h-4.37v3.87h4v1.18h-4v5h-1.31V15.4h5.68Z"/><path class="cls-20" d="M554,22.46h-3.16v3.15h-1V22.46h-3.14V21.41h3.14V18.27h1v3.14H554Z"/><path class="cls-20" d="M563,22.37V26.6h-1.31V15.4h3.08a4,4,0,0,1,2.78.87,3.14,3.14,0,0,1,1,2.47,3.38,3.38,0,0,1-1.1,2.61,4.18,4.18,0,0,1-3,1Zm0-5.78v4.59h1.38a3.08,3.08,0,0,0,2.07-.62,2.21,2.21,0,0,0,.72-1.76c0-1.47-.88-2.21-2.63-2.21Z"/><path class="cls-20" d="M579,15.4l-4.15,11.2h-1.44L569.3,15.4h1.46l3.11,8.88a6.07,6.07,0,0,1,.22,1h0a5.29,5.29,0,0,1,.26-1l3.17-8.87Z"/><path class="cls-20" d="M402.19,26.6V15.4h3.09q5.93,0,5.93,5.46A5.5,5.5,0,0,1,409.56,25a6.09,6.09,0,0,1-4.4,1.57Zm1.31-10v8.82h1.67a4.72,4.72,0,0,0,3.43-1.18,4.4,4.4,0,0,0,1.23-3.34q0-4.3-4.58-4.3Z"/><path class="cls-20" d="M419.67,22.92H414a3,3,0,0,0,.72,2.06,2.45,2.45,0,0,0,1.89.73,3.93,3.93,0,0,0,2.48-.89V26a4.64,4.64,0,0,1-2.79.77,3.35,3.35,0,0,1-2.66-1.09,4.45,4.45,0,0,1-1-3.07,4.35,4.35,0,0,1,1.06-3,3.4,3.4,0,0,1,2.63-1.18,3,3,0,0,1,2.43,1,4.26,4.26,0,0,1,.86,2.82Zm-1.32-1.08a2.59,2.59,0,0,0-.53-1.73,1.83,1.83,0,0,0-1.47-.62,2.1,2.1,0,0,0-1.54.65,3,3,0,0,0-.78,1.7Z"/><path class="cls-20" d="M427.89,18.6l-3.18,8h-1.26l-3-8h1.4l2,5.81a4.93,4.93,0,0,1,.28,1.12h0a4.76,4.76,0,0,1,.25-1.08l2.12-5.85Z"/><path class="cls-20" d="M432.52,26.79a3.68,3.68,0,0,1-2.83-1.12,4.14,4.14,0,0,1-1.06-3,4.29,4.29,0,0,1,1.1-3.15,4,4,0,0,1,3-1.14,3.57,3.57,0,0,1,2.79,1.11,4.35,4.35,0,0,1,1,3.05,4.31,4.31,0,0,1-1.08,3.07A3.78,3.78,0,0,1,432.52,26.79Zm.09-7.3a2.44,2.44,0,0,0-1.95.84,3.45,3.45,0,0,0-.72,2.32,3.23,3.23,0,0,0,.73,2.24,2.45,2.45,0,0,0,1.94.82,2.35,2.35,0,0,0,1.91-.8,3.47,3.47,0,0,0,.67-2.29,3.56,3.56,0,0,0-.67-2.32A2.33,2.33,0,0,0,432.61,19.49Z"/><path class="cls-20" d="M439.83,26.6h-1.28V14.76h1.28Z"/><path class="cls-20" d="M448.89,26.6h-1.28V25.34h0a2.64,2.64,0,0,1-2.47,1.45c-1.9,0-2.86-1.14-2.86-3.41V18.6h1.28v4.58c0,1.69.64,2.53,1.93,2.53A2,2,0,0,0,447,25a2.65,2.65,0,0,0,.6-1.81V18.6h1.28Z"/><path class="cls-20" d="M456.93,26.23a4.15,4.15,0,0,1-2.19.56A3.62,3.62,0,0,1,452,25.68a4.06,4.06,0,0,1-1.05-2.89,4.46,4.46,0,0,1,1.13-3.18,4,4,0,0,1,3-1.2,4.24,4.24,0,0,1,1.86.39v1.32a3.26,3.26,0,0,0-1.91-.63,2.58,2.58,0,0,0-2,.88,3.37,3.37,0,0,0-.79,2.31A3.18,3.18,0,0,0,453,24.9a2.54,2.54,0,0,0,2,.81,3.22,3.22,0,0,0,2-.69Zm-.67,2.37c0,.92-.72,1.38-2.15,1.38l-.51,0v-.7a4.27,4.27,0,0,0,.55,0c.73,0,1.1-.23,1.1-.7s-.33-.61-1-.61l-.32,0V26.6h.85v.81a1.72,1.72,0,0,1,1.09.32A1,1,0,0,1,456.26,28.6Z"/><path class="cls-20" d="M464.6,26.6h-1.29V25.35h0a2.92,2.92,0,0,1-4.33.81,2.21,2.21,0,0,1-.67-1.68q0-2.25,2.64-2.61l2.39-.34c0-1.36-.55-2-1.64-2a3.9,3.9,0,0,0-2.61,1V19.16a4.94,4.94,0,0,1,2.72-.75c1.88,0,2.82,1,2.82,3Zm-.43-11.39a2.24,2.24,0,0,1-.38,1.34,1.18,1.18,0,0,1-1,.52,2.54,2.54,0,0,1-1.27-.41,2.16,2.16,0,0,0-.93-.33c-.46,0-.69.29-.69.88h-.73a2.19,2.19,0,0,1,.37-1.34,1.25,1.25,0,0,1,1.05-.5,2.24,2.24,0,0,1,1.16.4,2.07,2.07,0,0,0,1,.35c.44,0,.66-.3.66-.91Zm-.86,7.34-1.93.27a3.09,3.09,0,0,0-1.34.44,1.28,1.28,0,0,0-.45,1.12,1.23,1.23,0,0,0,.42,1,1.58,1.58,0,0,0,1.11.37,2,2,0,0,0,1.57-.67,2.35,2.35,0,0,0,.62-1.69Z"/><path class="cls-20" d="M470.35,26.79a3.71,3.71,0,0,1-2.83-1.12,4.18,4.18,0,0,1-1.06-3,4.33,4.33,0,0,1,1.1-3.15,4,4,0,0,1,3-1.14,3.56,3.56,0,0,1,2.79,1.11,4.35,4.35,0,0,1,1,3.05,4.31,4.31,0,0,1-1.08,3.07A3.8,3.8,0,0,1,470.35,26.79Zm.1-7.3a2.44,2.44,0,0,0-2,.84,3.44,3.44,0,0,0-.71,2.32,3.28,3.28,0,0,0,.72,2.24,2.47,2.47,0,0,0,1.95.82,2.36,2.36,0,0,0,1.91-.8,3.53,3.53,0,0,0,.67-2.29,3.62,3.62,0,0,0-.67-2.32A2.34,2.34,0,0,0,470.45,19.49Z"/><path class="cls-20" d="M683.68,26.6h-5.81V15.4h1.31v10h4.5Z"/><path class="cls-20" d="M691.67,15.4,688,22.46V26.6h-1.32V22.49l-3.6-7.09h1.49l2.51,5.06q0,.09.27.69h0a3.59,3.59,0,0,1,.3-.69l2.62-5.06Z"/><path class="cls-20" d="M706.65,26.6H705l-5.77-8.93a4.63,4.63,0,0,1-.36-.7h0a12,12,0,0,1,.06,1.54V26.6h-1.31V15.4h1.7l5.61,8.79q.35.54.45.75h0a12.17,12.17,0,0,1-.08-1.65V15.4h1.32Z"/><path class="cls-20" d="M715.27,16.59H710.9v3.87h4v1.18h-4v5h-1.32V15.4h5.69Z"/><path class="cls-20" d="M724.54,15.49a10.55,10.55,0,0,0-2,6.55,10.77,10.77,0,0,0,2,6.5h-1.11a10.35,10.35,0,0,1-2.09-6.5,10.55,10.55,0,0,1,2.09-6.55Z"/><path class="cls-20" d="M725.26,25.82l3.76-10h1.58l3.72,10v.8h-9.06Zm7.5-.39-2.19-5.94c-.27-.75-.61-1.71-.8-2.4h0c-.16.55-.45,1.44-.72,2.2l-2.26,6.14Z"/><path class="cls-20" d="M745.51,15.4l-5.38,13.06h-1.19L744.3,15.4Z"/><path class="cls-20" d="M752.93,21a2.36,2.36,0,0,1-1.84-.77,2.89,2.89,0,0,1-.69-2,3.1,3.1,0,0,1,.73-2.19,2.48,2.48,0,0,1,2-.8,2.33,2.33,0,0,1,1.85.74,3,3,0,0,1,.66,2.08,3.09,3.09,0,0,1-.73,2.16A2.51,2.51,0,0,1,752.93,21Zm.11-4.93a1.41,1.41,0,0,0-1.17.55,2.36,2.36,0,0,0-.43,1.51,2.3,2.3,0,0,0,.42,1.47,1.41,1.41,0,0,0,1.15.53,1.36,1.36,0,0,0,1.15-.55,2.49,2.49,0,0,0,.41-1.51,2.33,2.33,0,0,0-.41-1.48A1.34,1.34,0,0,0,753,16.09Zm7.39-.69-7.19,11.28h-1.11l7.18-11.28Zm-.83,11.37a2.35,2.35,0,0,1-1.84-.76,2.92,2.92,0,0,1-.69-2,3.15,3.15,0,0,1,.74-2.2,2.51,2.51,0,0,1,2-.81,2.34,2.34,0,0,1,1.85.75,3.08,3.08,0,0,1,.67,2.1,3,3,0,0,1-.74,2.14A2.51,2.51,0,0,1,759.6,26.77Zm.11-4.92a1.38,1.38,0,0,0-1.17.55,2.36,2.36,0,0,0-.43,1.51,2.29,2.29,0,0,0,.42,1.46,1.41,1.41,0,0,0,1.15.53,1.38,1.38,0,0,0,1.15-.55,2.44,2.44,0,0,0,.41-1.51,2.26,2.26,0,0,0-.41-1.47A1.33,1.33,0,0,0,759.71,21.85Z"/><path class="cls-20" d="M763.19,28.54a10.84,10.84,0,0,0,2-6.55,10.65,10.65,0,0,0-2-6.5h1.09a10.24,10.24,0,0,1,2.1,6.52,10.41,10.41,0,0,1-2.1,6.53Z"/><path class="cls-20" d="M910.2,26.6h-1.3V19.09c0-.6,0-1.32.11-2.18h0a7.46,7.46,0,0,1-.34,1.08l-3.83,8.61h-.64l-3.82-8.55a6.35,6.35,0,0,1-.33-1.14h0c0,.44.07,1.18.07,2.19v7.5h-1.27V15.4h1.74L904,23.21a10.24,10.24,0,0,1,.52,1.34h0c.22-.61.4-1.07.53-1.37l3.51-7.78h1.64Z"/><path class="cls-20" d="M919.41,22.92h-5.65a3,3,0,0,0,.72,2.06,2.43,2.43,0,0,0,1.89.73,3.93,3.93,0,0,0,2.48-.89V26a4.64,4.64,0,0,1-2.79.77,3.35,3.35,0,0,1-2.66-1.09,4.45,4.45,0,0,1-1-3.07,4.35,4.35,0,0,1,1.06-3,3.4,3.4,0,0,1,2.63-1.18,3,3,0,0,1,2.43,1,4.26,4.26,0,0,1,.86,2.82Zm-1.32-1.08a2.59,2.59,0,0,0-.53-1.73,1.83,1.83,0,0,0-1.47-.62,2.1,2.1,0,0,0-1.54.65,3,3,0,0,0-.78,1.7Z"/><path class="cls-20" d="M925.05,26.52a2.42,2.42,0,0,1-1.19.25q-2.1,0-2.1-2.34V19.7h-1.38V18.6h1.38v-2l1.28-.42V18.6h2v1.1h-2v4.5a1.89,1.89,0,0,0,.27,1.15,1.1,1.1,0,0,0,.91.35,1.31,1.31,0,0,0,.83-.27Z"/><path class="cls-20" d="M932.49,26.6h-1.28V25.35h0a2.69,2.69,0,0,1-2.46,1.44,2.63,2.63,0,0,1-1.87-.63,2.22,2.22,0,0,1-.68-1.68q0-2.25,2.64-2.61l2.4-.34q0-2-1.65-2a3.94,3.94,0,0,0-2.61,1V19.16a5,5,0,0,1,2.72-.75c1.88,0,2.82,1,2.82,3Zm-1.28-4.05-1.93.27a3.09,3.09,0,0,0-1.34.44,1.26,1.26,0,0,0-.46,1.12,1.23,1.23,0,0,0,.42,1,1.61,1.61,0,0,0,1.12.37,2,2,0,0,0,1.57-.67,2.4,2.4,0,0,0,.62-1.69Z"/><path class="cls-20" d="M940.77,22.37V26.6h-1.31V15.4h3.08a4,4,0,0,1,2.78.87,3.14,3.14,0,0,1,1,2.47,3.38,3.38,0,0,1-1.1,2.61,4.18,4.18,0,0,1-3,1Zm0-5.78v4.59h1.38a3.08,3.08,0,0,0,2.07-.62,2.21,2.21,0,0,0,.72-1.76c0-1.47-.88-2.21-2.63-2.21Z"/><path class="cls-20" d="M952.94,26.79a4.92,4.92,0,0,1-3.82-1.57,5.86,5.86,0,0,1-1.43-4.09,6.13,6.13,0,0,1,1.46-4.31,5.1,5.1,0,0,1,4-1.61,4.8,4.8,0,0,1,3.74,1.56,5.85,5.85,0,0,1,1.42,4.09,6.2,6.2,0,0,1-1.45,4.34A5,5,0,0,1,952.94,26.79ZM953,16.4a3.62,3.62,0,0,0-2.87,1.27,5,5,0,0,0-1.1,3.35,4.94,4.94,0,0,0,1.08,3.33,3.5,3.5,0,0,0,2.8,1.26,3.67,3.67,0,0,0,2.9-1.2A4.94,4.94,0,0,0,956.91,21a5.18,5.18,0,0,0-1-3.43A3.54,3.54,0,0,0,953,16.4Z"/><path class="cls-20" d="M967.62,15.49a10.62,10.62,0,0,0-2,6.55,10.83,10.83,0,0,0,2,6.5h-1.1a10.35,10.35,0,0,1-2.1-6.5,10.61,10.61,0,0,1,2.1-6.55Z"/><path class="cls-20" d="M968.34,25.82l3.76-10h1.59l3.71,10v.8h-9.06Zm7.51-.39-2.19-5.94c-.28-.75-.61-1.71-.8-2.4h-.05c-.16.55-.45,1.44-.72,2.2l-2.26,6.14Z"/><path class="cls-20" d="M988.6,15.4l-5.38,13.06H982l5.36-13.06Z"/><path class="cls-20" d="M996,21a2.38,2.38,0,0,1-1.85-.77,2.93,2.93,0,0,1-.68-2,3.14,3.14,0,0,1,.72-2.19,2.51,2.51,0,0,1,2-.8A2.34,2.34,0,0,1,998,16a3,3,0,0,1,.66,2.08,3.09,3.09,0,0,1-.74,2.16A2.48,2.48,0,0,1,996,21Zm.11-4.93a1.38,1.38,0,0,0-1.17.55,2.36,2.36,0,0,0-.43,1.51,2.3,2.3,0,0,0,.42,1.47,1.39,1.39,0,0,0,1.15.53,1.36,1.36,0,0,0,1.15-.55,2.49,2.49,0,0,0,.41-1.51,2.39,2.39,0,0,0-.41-1.48A1.34,1.34,0,0,0,996.13,16.09Zm7.39-.69-7.19,11.28h-1.12l7.18-11.28Zm-.83,11.37a2.33,2.33,0,0,1-1.84-.76,2.92,2.92,0,0,1-.69-2,3.14,3.14,0,0,1,.73-2.2,2.51,2.51,0,0,1,2-.81,2.35,2.35,0,0,1,1.85.75,3.07,3.07,0,0,1,.66,2.1,3,3,0,0,1-.74,2.14A2.48,2.48,0,0,1,1002.69,26.77Zm.11-4.92a1.41,1.41,0,0,0-1.18.55,2.42,2.42,0,0,0-.42,1.51,2.29,2.29,0,0,0,.42,1.46,1.49,1.49,0,0,0,2.3,0,2.51,2.51,0,0,0,.41-1.51,2.32,2.32,0,0,0-.41-1.47A1.34,1.34,0,0,0,1002.8,21.85Z"/><path class="cls-20" d="M1006.28,28.54a10.9,10.9,0,0,0,2-6.55,10.65,10.65,0,0,0-2-6.5h1.08a10.18,10.18,0,0,1,2.1,6.52,10.35,10.35,0,0,1-2.1,6.53Z"/><path class="cls-20" d="M1119.5,16.59h-4.38v3.87h4.05v1.18h-4.05v5h-1.31V15.4h5.69Z"/><path class="cls-20" d="M1124.79,26.79a3.71,3.71,0,0,1-2.83-1.12,4.14,4.14,0,0,1-1.06-3,4.33,4.33,0,0,1,1.1-3.15,4,4,0,0,1,3-1.14,3.57,3.57,0,0,1,2.79,1.11,4.35,4.35,0,0,1,1,3.05,4.31,4.31,0,0,1-1.08,3.07A3.8,3.8,0,0,1,1124.79,26.79Zm.1-7.3a2.44,2.44,0,0,0-2,.84,3.45,3.45,0,0,0-.72,2.32,3.28,3.28,0,0,0,.73,2.24,2.47,2.47,0,0,0,2,.82,2.38,2.38,0,0,0,1.91-.8,3.53,3.53,0,0,0,.66-2.29,3.62,3.62,0,0,0-.66-2.32A2.35,2.35,0,0,0,1124.89,19.49Z"/><path class="cls-20" d="M1135,19.9a1.6,1.6,0,0,0-1-.26,1.63,1.63,0,0,0-1.37.77,3.57,3.57,0,0,0-.55,2.11V26.6h-1.29v-8h1.29v1.65h0a2.86,2.86,0,0,1,.83-1.32,2,2,0,0,1,1.26-.47,2.21,2.21,0,0,1,.77.11Z"/><path class="cls-20" d="M1142.61,22.92H1137a3,3,0,0,0,.72,2.06,2.43,2.43,0,0,0,1.89.73,4,4,0,0,0,2.48-.89V26a4.64,4.64,0,0,1-2.79.77,3.35,3.35,0,0,1-2.66-1.09,4.45,4.45,0,0,1-1-3.07,4.35,4.35,0,0,1,1.06-3,3.4,3.4,0,0,1,2.63-1.18,3,3,0,0,1,2.43,1,4.26,4.26,0,0,1,.86,2.82Zm-1.32-1.08a2.59,2.59,0,0,0-.53-1.73,1.83,1.83,0,0,0-1.47-.62,2.1,2.1,0,0,0-1.54.65,3,3,0,0,0-.78,1.7Z"/><path class="cls-20" d="M1150,26.23a4.2,4.2,0,0,1-2.19.56,3.62,3.62,0,0,1-2.76-1.11,4.06,4.06,0,0,1-1-2.89,4.42,4.42,0,0,1,1.13-3.18,4,4,0,0,1,3-1.2,4.21,4.21,0,0,1,1.86.39v1.32a3.23,3.23,0,0,0-1.9-.63,2.62,2.62,0,0,0-2,.88,3.37,3.37,0,0,0-.78,2.31,3.14,3.14,0,0,0,.74,2.22,2.54,2.54,0,0,0,2,.81,3.26,3.26,0,0,0,2-.69Z"/><path class="cls-20" d="M1157.66,26.6h-1.28V25.35h0a2.69,2.69,0,0,1-2.46,1.44,2.63,2.63,0,0,1-1.87-.63,2.19,2.19,0,0,1-.68-1.68q0-2.25,2.64-2.61l2.4-.34q0-2-1.65-2a3.94,3.94,0,0,0-2.61,1V19.16a5,5,0,0,1,2.72-.75c1.88,0,2.82,1,2.82,3Zm-1.28-4.05-1.93.27a3.09,3.09,0,0,0-1.34.44,1.26,1.26,0,0,0-.46,1.12,1.23,1.23,0,0,0,.42,1,1.6,1.6,0,0,0,1.11.37,2.06,2.06,0,0,0,1.58-.67,2.4,2.4,0,0,0,.62-1.69Z"/><path class="cls-20" d="M1159.59,26.31V24.94a3.83,3.83,0,0,0,2.3.77c1.13,0,1.69-.37,1.69-1.12a1,1,0,0,0-.14-.55,1.45,1.45,0,0,0-.39-.39,2.89,2.89,0,0,0-.58-.31l-.72-.29q-.52-.21-.93-.42a2.7,2.7,0,0,1-.67-.49,1.77,1.77,0,0,1-.41-.61,2.2,2.2,0,0,1-.13-.8,1.93,1.93,0,0,1,.25-1,2.4,2.4,0,0,1,.69-.73,3.37,3.37,0,0,1,1-.44,4.35,4.35,0,0,1,1.14-.15,4.61,4.61,0,0,1,1.86.36v1.3a3.68,3.68,0,0,0-2-.58,2.57,2.57,0,0,0-.65.08,1.93,1.93,0,0,0-.5.23,1.1,1.1,0,0,0-.32.36,1,1,0,0,0-.11.46,1.14,1.14,0,0,0,.11.52,1.31,1.31,0,0,0,.33.38,3.71,3.71,0,0,0,.53.29l.72.29c.35.14.67.28,1,.42a3.22,3.22,0,0,1,.72.48,1.93,1.93,0,0,1,.45.62,2,2,0,0,1,.16.84,1.9,1.9,0,0,1-.26,1,2.22,2.22,0,0,1-.7.73,3.36,3.36,0,0,1-1,.43,5.26,5.26,0,0,1-1.2.14A4.51,4.51,0,0,1,1159.59,26.31Z"/><path class="cls-20" d="M1170.57,26.52a2.42,2.42,0,0,1-1.19.25q-2.1,0-2.1-2.34V19.7h-1.38V18.6h1.38v-2l1.28-.42V18.6h2v1.1h-2v4.5a1.89,1.89,0,0,0,.27,1.15,1.1,1.1,0,0,0,.91.35,1.31,1.31,0,0,0,.83-.27Z"/><path class="cls-20" d="M1178.15,22.37V26.6h-1.31V15.4h3.08a4.06,4.06,0,0,1,2.78.87,3.14,3.14,0,0,1,1,2.47,3.38,3.38,0,0,1-1.1,2.61,4.18,4.18,0,0,1-3,1Zm0-5.78v4.59h1.38a3.1,3.1,0,0,0,2.07-.62,2.21,2.21,0,0,0,.72-1.76c0-1.47-.88-2.21-2.63-2.21Z"/><path class="cls-20" d="M1189.8,19.9a1.58,1.58,0,0,0-1-.26,1.66,1.66,0,0,0-1.37.77,3.57,3.57,0,0,0-.55,2.11V26.6h-1.28v-8h1.28v1.65h0a2.79,2.79,0,0,1,.84-1.32,1.91,1.91,0,0,1,1.26-.47,2.14,2.14,0,0,1,.76.11Z"/><path class="cls-20" d="M1197.41,22.92h-5.65a3,3,0,0,0,.72,2.06,2.46,2.46,0,0,0,1.89.73,4,4,0,0,0,2.49-.89V26a4.68,4.68,0,0,1-2.79.77,3.39,3.39,0,0,1-2.67-1.09,4.5,4.5,0,0,1-1-3.07,4.4,4.4,0,0,1,1.06-3,3.41,3.41,0,0,1,2.63-1.18,3,3,0,0,1,2.43,1,4.26,4.26,0,0,1,.86,2.82Zm-1.31-1.08a2.65,2.65,0,0,0-.54-1.73,1.82,1.82,0,0,0-1.46-.62,2.07,2.07,0,0,0-1.54.65,3,3,0,0,0-.78,1.7Z"/><path class="cls-20" d="M1207.85,15.4l-4.15,11.2h-1.45l-4.06-11.2h1.46l3.1,8.88a5.15,5.15,0,0,1,.23,1h0a4.62,4.62,0,0,1,.26-1l3.16-8.87Z"/><path class="cls-20" d="M1216.6,15.49a10.55,10.55,0,0,0-2,6.55,10.77,10.77,0,0,0,2,6.5h-1.11a10.35,10.35,0,0,1-2.09-6.5,10.55,10.55,0,0,1,2.09-6.55Z"/><path class="cls-20" d="M1217.32,25.82l3.76-10h1.58l3.72,10v.8h-9.06Zm7.5-.39-2.19-5.94c-.27-.75-.61-1.71-.8-2.4h0c-.16.55-.45,1.44-.72,2.2l-2.26,6.14Z"/><path class="cls-20" d="M1237.57,15.4l-5.38,13.06H1231l5.36-13.06Z"/><path class="cls-20" d="M1245,21a2.36,2.36,0,0,1-1.84-.77,2.89,2.89,0,0,1-.69-2,3.1,3.1,0,0,1,.73-2.19,2.48,2.48,0,0,1,2-.8A2.33,2.33,0,0,1,1247,16a3,3,0,0,1,.66,2.08,3,3,0,0,1-.74,2.16A2.48,2.48,0,0,1,1245,21Zm.11-4.93a1.39,1.39,0,0,0-1.17.55,2.36,2.36,0,0,0-.43,1.51,2.3,2.3,0,0,0,.42,1.47,1.39,1.39,0,0,0,1.15.53,1.36,1.36,0,0,0,1.15-.55,2.49,2.49,0,0,0,.41-1.51,2.33,2.33,0,0,0-.41-1.48A1.34,1.34,0,0,0,1245.1,16.09Zm7.39-.69-7.19,11.28h-1.11l7.18-11.28Zm-.83,11.37a2.35,2.35,0,0,1-1.84-.76,2.92,2.92,0,0,1-.69-2,3.15,3.15,0,0,1,.74-2.2,2.51,2.51,0,0,1,2-.81,2.34,2.34,0,0,1,1.85.75,3.07,3.07,0,0,1,.66,2.1,3,3,0,0,1-.73,2.14A2.51,2.51,0,0,1,1251.66,26.77Zm.11-4.92a1.38,1.38,0,0,0-1.17.55,2.36,2.36,0,0,0-.43,1.51,2.29,2.29,0,0,0,.42,1.46,1.41,1.41,0,0,0,1.15.53,1.38,1.38,0,0,0,1.15-.55,2.44,2.44,0,0,0,.41-1.51,2.26,2.26,0,0,0-.41-1.47A1.33,1.33,0,0,0,1251.77,21.85Z"/><path class="cls-20" d="M1255.25,28.54a10.9,10.9,0,0,0,2-6.55,10.65,10.65,0,0,0-2-6.5h1.09a10.24,10.24,0,0,1,2.09,6.52,10.41,10.41,0,0,1-2.09,6.53Z"/><path class="cls-19" d="M29.7,276.65H28.09l-5.76-8.93A3.39,3.39,0,0,1,22,267h0a12.1,12.1,0,0,1,.06,1.54v8.1H20.67V265.44h1.71l5.6,8.79c.24.37.39.62.46.75h0a12.07,12.07,0,0,1-.08-1.65v-7.89H29.7Z"/><path class="cls-19" d="M38.58,276.65H32.64V265.44h5.69v1.19H34v3.73h4v1.18H34v3.92h4.63Z"/><path class="cls-19" d="M47.39,266.63H44.16v10H42.84v-10H39.62v-1.19h7.77Z"/><path class="cls-19" d="M58.41,265.44,53,278.51h-1.2l5.36-13.07Z"/><path class="cls-19" d="M71.77,276.18a6.52,6.52,0,0,1-3.09.65,5,5,0,0,1-3.83-1.54,5.65,5.65,0,0,1-1.44-4A6,6,0,0,1,65,266.91a5.51,5.51,0,0,1,4.1-1.65,6.48,6.48,0,0,1,2.64.46v1.4a5.31,5.31,0,0,0-2.65-.68A4.07,4.07,0,0,0,66,267.73a4.86,4.86,0,0,0-1.2,3.45,4.61,4.61,0,0,0,1.12,3.26,3.82,3.82,0,0,0,2.94,1.21,5.49,5.49,0,0,0,2.92-.75Z"/><path class="cls-19" d="M75.16,276.65H73.88V264.8h1.28Z"/><path class="cls-19" d="M78.41,266.62a.82.82,0,0,1-.82-.83.81.81,0,0,1,.24-.6.78.78,0,0,1,.58-.24.81.81,0,0,1,.6.24.79.79,0,0,1,.25.6.76.76,0,0,1-.25.58A.82.82,0,0,1,78.41,266.62Zm.63,10H77.76v-8H79Z"/><path class="cls-19" d="M88.06,273H82.41a3,3,0,0,0,.72,2.06,2.5,2.5,0,0,0,1.89.73,4,4,0,0,0,2.49-.89v1.2a4.65,4.65,0,0,1-2.79.76,3.39,3.39,0,0,1-2.67-1.09,5.15,5.15,0,0,1,.09-6.11,3.42,3.42,0,0,1,2.63-1.17,3,3,0,0,1,2.43,1,4.21,4.21,0,0,1,.86,2.82Zm-1.31-1.09a2.61,2.61,0,0,0-.54-1.73,1.8,1.8,0,0,0-1.46-.61,2,2,0,0,0-1.54.65,2.93,2.93,0,0,0-.78,1.69Z"/><path class="cls-19" d="M96.64,276.65H95.36v-4.57c0-1.69-.62-2.54-1.86-2.54a2,2,0,0,0-1.59.72,2.67,2.67,0,0,0-.63,1.82v4.57H90v-8h1.28V270h0a2.89,2.89,0,0,1,2.63-1.51,2.45,2.45,0,0,1,2,.85,3.78,3.78,0,0,1,.69,2.45Z"/><path class="cls-19" d="M102.77,276.57a2.61,2.61,0,0,1-1.2.25c-1.4,0-2.1-.78-2.1-2.35v-4.73H98.09v-1.09h1.38v-2l1.28-.41v2.37h2v1.09h-2v4.51a1.91,1.91,0,0,0,.27,1.15,1.11,1.11,0,0,0,.91.34,1.36,1.36,0,0,0,.84-.27Z"/><path class="cls-19" d="M110.78,273h-5.65a3,3,0,0,0,.72,2.06,2.5,2.5,0,0,0,1.89.73,4,4,0,0,0,2.49-.89v1.2a4.68,4.68,0,0,1-2.79.76,3.39,3.39,0,0,1-2.67-1.09,5.11,5.11,0,0,1,.09-6.11,3.42,3.42,0,0,1,2.63-1.17,3,3,0,0,1,2.43,1,4.26,4.26,0,0,1,.86,2.82Zm-1.31-1.09a2.61,2.61,0,0,0-.54-1.73,1.82,1.82,0,0,0-1.46-.61,2,2,0,0,0-1.54.65,2.93,2.93,0,0,0-.78,1.69Z"/><path class="cls-19" d="M29,56.44l-4.15,11.2H23.41l-4.07-11.2H20.8l3.11,8.88a6.07,6.07,0,0,1,.22,1h0a5.58,5.58,0,0,1,.26-1l3.17-8.86Z"/><path class="cls-19" d="M35,67.64H33.73V66.39h0a2.67,2.67,0,0,1-2.46,1.44,2.6,2.6,0,0,1-1.87-.64,2.19,2.19,0,0,1-.67-1.68q0-2.24,2.64-2.61l2.39-.33c0-1.36-.55-2-1.64-2a3.94,3.94,0,0,0-2.61,1V60.2a4.94,4.94,0,0,1,2.72-.75c1.88,0,2.82,1,2.82,3Zm-1.29-4-1.93.27a3.09,3.09,0,0,0-1.34.44A1.27,1.27,0,0,0,30,65.42a1.23,1.23,0,0,0,.42,1,1.63,1.63,0,0,0,1.11.37,2,2,0,0,0,1.57-.67,2.35,2.35,0,0,0,.62-1.69Z"/><path class="cls-19" d="M38.71,67.64H37.43V55.8h1.28Z"/><path class="cls-19" d="M44.65,67.83a3.73,3.73,0,0,1-2.83-1.12,4.15,4.15,0,0,1-1.06-3,4.32,4.32,0,0,1,1.1-3.15,4,4,0,0,1,3-1.13,3.6,3.6,0,0,1,2.79,1.1,4.39,4.39,0,0,1,1,3.06,4.28,4.28,0,0,1-1.08,3.06A3.79,3.79,0,0,1,44.65,67.83Zm.09-7.3a2.44,2.44,0,0,0-2,.84,3.45,3.45,0,0,0-.72,2.32,3.25,3.25,0,0,0,.73,2.24,2.45,2.45,0,0,0,1.94.82,2.33,2.33,0,0,0,1.91-.81,3.46,3.46,0,0,0,.67-2.29,3.52,3.52,0,0,0-.67-2.31A2.33,2.33,0,0,0,44.74,60.53Z"/><path class="cls-19" d="M54.85,60.94a1.52,1.52,0,0,0-1-.26,1.66,1.66,0,0,0-1.37.77A3.57,3.57,0,0,0,52,63.56v4.08H50.68v-8H52v1.65h0A2.79,2.79,0,0,1,52.83,60a1.91,1.91,0,0,1,1.26-.47,2.14,2.14,0,0,1,.76.11Z"/><path class="cls-19" d="M69.83,67.64H68.22l-5.77-8.93a4.63,4.63,0,0,1-.36-.7h0a12,12,0,0,1,.06,1.54v8.09H60.8V56.44h1.7l5.61,8.79q.35.54.45.75h0a12.74,12.74,0,0,1-.07-1.65V56.44h1.31Z"/><path class="cls-19" d="M78.7,67.64H72.77V56.44h5.68v1.18H74.08v3.73h4v1.18h-4v3.92H78.7Z"/><path class="cls-19" d="M87.52,57.62H84.28v10H83v-10H79.74V56.44h7.78Z"/><path class="cls-19" d="M22,182.42v4.23H20.67v-11.2h3.08a4.09,4.09,0,0,1,2.79.87,3.16,3.16,0,0,1,1,2.47,3.4,3.4,0,0,1-1.09,2.61,4.2,4.2,0,0,1-3,1Zm0-5.78v4.59h1.38a3.06,3.06,0,0,0,2.07-.62,2.21,2.21,0,0,0,.72-1.76c0-1.47-.88-2.21-2.63-2.21Z"/><path class="cls-19" d="M35.3,183H29.65a3,3,0,0,0,.72,2.06,2.46,2.46,0,0,0,1.89.73,3.93,3.93,0,0,0,2.48-.89v1.2a4.64,4.64,0,0,1-2.79.77,3.35,3.35,0,0,1-2.66-1.09,4.45,4.45,0,0,1-1-3.07,4.35,4.35,0,0,1,1.06-3A3.4,3.4,0,0,1,32,178.46a3,3,0,0,1,2.43,1,4.26,4.26,0,0,1,.86,2.82ZM34,181.89a2.59,2.59,0,0,0-.53-1.73,1.83,1.83,0,0,0-1.47-.62,2.06,2.06,0,0,0-1.53.65,2.91,2.91,0,0,0-.79,1.7Z"/><path class="cls-19" d="M36.75,186.36V185a3.83,3.83,0,0,0,2.3.77c1.13,0,1.69-.37,1.69-1.12a1,1,0,0,0-.14-.55,1.45,1.45,0,0,0-.39-.39,2.89,2.89,0,0,0-.58-.31l-.72-.29q-.52-.21-.93-.42a2.7,2.7,0,0,1-.67-.49,1.77,1.77,0,0,1-.41-.61,2.2,2.2,0,0,1-.13-.8,1.93,1.93,0,0,1,.25-1,2.4,2.4,0,0,1,.69-.73,3.37,3.37,0,0,1,1-.44,4.35,4.35,0,0,1,1.14-.15,4.61,4.61,0,0,1,1.86.36v1.3a3.6,3.6,0,0,0-2-.58,2.57,2.57,0,0,0-.65.08,1.93,1.93,0,0,0-.5.23,1.1,1.1,0,0,0-.32.36,1,1,0,0,0-.11.46,1.14,1.14,0,0,0,.11.52,1.16,1.16,0,0,0,.33.37,2.94,2.94,0,0,0,.53.3l.72.29c.35.14.67.28.95.42a3.22,3.22,0,0,1,.72.48,1.79,1.79,0,0,1,.45.62,2,2,0,0,1,.16.84,1.9,1.9,0,0,1-.26,1,2.12,2.12,0,0,1-.7.73,3.36,3.36,0,0,1-1,.43,5.19,5.19,0,0,1-1.2.14A4.51,4.51,0,0,1,36.75,186.36Z"/><path class="cls-19" d="M47.37,186.84a3.71,3.71,0,0,1-2.83-1.12,4.15,4.15,0,0,1-1.06-3,4.28,4.28,0,0,1,1.1-3.14,3.92,3.92,0,0,1,3-1.14,3.61,3.61,0,0,1,2.8,1.1,4.39,4.39,0,0,1,1,3.06,4.31,4.31,0,0,1-1.08,3.07A3.82,3.82,0,0,1,47.37,186.84Zm.09-7.3a2.44,2.44,0,0,0-2,.84,3.45,3.45,0,0,0-.72,2.32,3.23,3.23,0,0,0,.73,2.24,2.45,2.45,0,0,0,1.94.82,2.35,2.35,0,0,0,1.91-.8,3.47,3.47,0,0,0,.67-2.29,3.56,3.56,0,0,0-.67-2.32A2.33,2.33,0,0,0,47.46,179.54Z"/><path class="cls-19" d="M63.77,186.65H58v-11.2h1.32v10h4.5Z"/><path class="cls-19" d="M67.74,174.57l-2,2.57h-1l1.75-2.57Zm-1.15,12.08H65.31v-8h1.28Z"/><path class="cls-19" d="M76,190.33H74.73v-5.05h0A2.86,2.86,0,0,1,72,186.84a3,3,0,0,1-2.42-1.08,4.34,4.34,0,0,1-.91-2.92,4.8,4.8,0,0,1,1-3.19,3.34,3.34,0,0,1,2.69-1.19,2.53,2.53,0,0,1,2.37,1.3h0v-1.11H76Zm-1.29-7.28v-1.16a2.33,2.33,0,0,0-.64-1.67,2.18,2.18,0,0,0-1.64-.68,2.21,2.21,0,0,0-1.83.86,3.86,3.86,0,0,0-.67,2.41A3.34,3.34,0,0,0,70.6,185a2.07,2.07,0,0,0,1.67.78,2.29,2.29,0,0,0,1.8-.77A2.87,2.87,0,0,0,74.73,183.05Z"/><path class="cls-19" d="M85.08,186.65H83.8v-1.26h0a2.66,2.66,0,0,1-2.47,1.45q-2.86,0-2.86-3.41v-4.78h1.27v4.58c0,1.69.65,2.53,1.94,2.53a2,2,0,0,0,1.54-.69,2.66,2.66,0,0,0,.61-1.81v-4.61h1.28Z"/><path class="cls-19" d="M88.32,176.62a.86.86,0,0,1-.59-.23.87.87,0,0,1,0-1.2.86.86,0,0,1,.59-.23.88.88,0,0,1,.6.23.86.86,0,0,1,0,1.19A.85.85,0,0,1,88.32,176.62Zm.63,10H87.66v-8H89Z"/><path class="cls-19" d="M98.37,186.65H97.09v-1.36h0a3,3,0,0,1-2.75,1.55,3,3,0,0,1-2.41-1.08,4.39,4.39,0,0,1-.9-2.92,4.84,4.84,0,0,1,1-3.18,3.31,3.31,0,0,1,2.67-1.2,2.57,2.57,0,0,1,2.39,1.3h0v-4.95h1.28ZM97.09,183v-1.18a2.33,2.33,0,0,0-.64-1.64,2.36,2.36,0,0,0-3.47.19,3.76,3.76,0,0,0-.68,2.38A3.37,3.37,0,0,0,93,185a2.12,2.12,0,0,0,1.73.8,2.22,2.22,0,0,0,1.74-.77A2.93,2.93,0,0,0,97.09,183Z"/><path class="cls-19" d="M104.3,186.84a3.74,3.74,0,0,1-2.83-1.12,4.19,4.19,0,0,1-1.06-3,4.28,4.28,0,0,1,1.11-3.14,3.92,3.92,0,0,1,3-1.14,3.62,3.62,0,0,1,2.8,1.1,4.44,4.44,0,0,1,1,3.06,4.31,4.31,0,0,1-1.08,3.07A3.82,3.82,0,0,1,104.3,186.84Zm.1-7.3a2.42,2.42,0,0,0-2,.84,3.45,3.45,0,0,0-.72,2.32,3.28,3.28,0,0,0,.72,2.24,2.48,2.48,0,0,0,2,.82,2.36,2.36,0,0,0,1.91-.8,3.53,3.53,0,0,0,.67-2.29,3.62,3.62,0,0,0-.67-2.32A2.34,2.34,0,0,0,104.4,179.54Z"/><path class="cls-19" d="M114.61,114.9h-1.3v-7.52c0-.59,0-1.32.11-2.18h0a7.28,7.28,0,0,1-.34,1.09l-3.83,8.61h-.64l-3.82-8.55a6.25,6.25,0,0,1-.33-1.15h0c0,.45.06,1.18.06,2.2v7.5h-1.27V103.7h1.74l3.43,7.81a9.72,9.72,0,0,1,.52,1.34h.05c.22-.61.4-1.07.54-1.37l3.5-7.78h1.64Z"/><path class="cls-19" d="M125.19,114.43a6.56,6.56,0,0,1-3.1.66,5,5,0,0,1-3.83-1.54,5.69,5.69,0,0,1-1.43-4,6,6,0,0,1,1.61-4.35,5.51,5.51,0,0,1,4.1-1.65,6.56,6.56,0,0,1,2.65.46v1.4a5.36,5.36,0,0,0-2.66-.67A4.06,4.06,0,0,0,119.4,106a4.86,4.86,0,0,0-1.2,3.45,4.61,4.61,0,0,0,1.12,3.26,3.82,3.82,0,0,0,2.94,1.22,5.55,5.55,0,0,0,2.93-.75Z"/><path class="cls-19" d="M129.15,109.31a2.35,2.35,0,0,1-1.84-.76,2.92,2.92,0,0,1-.69-2,3.14,3.14,0,0,1,.73-2.2,2.53,2.53,0,0,1,2-.8,2.35,2.35,0,0,1,1.86.75,3,3,0,0,1,.66,2.08,3.07,3.07,0,0,1-.74,2.15A2.5,2.5,0,0,1,129.15,109.31Zm.11-4.93a1.43,1.43,0,0,0-1.17.55,2.39,2.39,0,0,0-.43,1.52,2.3,2.3,0,0,0,.42,1.47,1.41,1.41,0,0,0,1.15.53,1.38,1.38,0,0,0,1.15-.55,2.45,2.45,0,0,0,.41-1.52,2.3,2.3,0,0,0-.41-1.47A1.34,1.34,0,0,0,129.26,104.38Zm7.39-.68L129.47,115h-1.12l7.18-11.28Zm-.82,11.37a2.33,2.33,0,0,1-1.85-.77,2.9,2.9,0,0,1-.69-2,3.16,3.16,0,0,1,.74-2.2,2.53,2.53,0,0,1,1.95-.8,2.34,2.34,0,0,1,1.85.75,3,3,0,0,1,.67,2.1,3.06,3.06,0,0,1-.74,2.14A2.49,2.49,0,0,1,135.83,115.07Zm.11-4.92a1.4,1.4,0,0,0-1.18.55,2.42,2.42,0,0,0-.43,1.51,2.23,2.23,0,0,0,.43,1.46,1.39,1.39,0,0,0,1.14.53,1.35,1.35,0,0,0,1.15-.56,2.42,2.42,0,0,0,.42-1.51,2.36,2.36,0,0,0-.41-1.47A1.37,1.37,0,0,0,135.94,110.15Z"/><path class="cls-19" d="M114.61,137.47h-1.3V130c0-.6,0-1.32.11-2.18h0a7.46,7.46,0,0,1-.34,1.08l-3.83,8.61h-.64l-3.82-8.55a6.35,6.35,0,0,1-.33-1.14h0c0,.44.06,1.18.06,2.19v7.5h-1.27v-11.2h1.74l3.43,7.81a10.24,10.24,0,0,1,.52,1.34h.05c.22-.61.4-1.07.54-1.37l3.5-7.78h1.64Z"/><path class="cls-19" d="M125.18,137a6.49,6.49,0,0,1-3.09.66,5,5,0,0,1-3.83-1.54,5.67,5.67,0,0,1-1.43-4,5.93,5.93,0,0,1,1.61-4.34,5.48,5.48,0,0,1,4.1-1.66,6.48,6.48,0,0,1,2.64.46v1.4a5.3,5.3,0,0,0-2.65-.67,4.07,4.07,0,0,0-3.13,1.29,4.85,4.85,0,0,0-1.2,3.44,4.58,4.58,0,0,0,1.12,3.26,3.82,3.82,0,0,0,2.94,1.22,5.49,5.49,0,0,0,2.92-.75Z"/><path class="cls-19" d="M32.09,126.9h-1.3v-7.52c0-.59,0-1.32.11-2.18h0a7.28,7.28,0,0,1-.34,1.09L26.7,126.9h-.64l-3.82-8.55a6.25,6.25,0,0,1-.33-1.15h0c0,.45.06,1.18.06,2.2v7.5H20.67V115.7h1.74l3.43,7.81a10.24,10.24,0,0,1,.52,1.34h.05c.22-.61.4-1.07.54-1.37l3.5-7.78h1.64Z"/><path class="cls-19" d="M40.59,126.9H39.31v-1.25h0a2.69,2.69,0,0,1-2.46,1.44,2.59,2.59,0,0,1-1.87-.64,2.19,2.19,0,0,1-.68-1.68q0-2.23,2.64-2.61l2.4-.33q0-2-1.65-2a4,4,0,0,0-2.61,1v-1.31a5,5,0,0,1,2.72-.75c1.88,0,2.82,1,2.82,3Zm-1.28-4.05-1.93.27a3.09,3.09,0,0,0-1.34.44,1.27,1.27,0,0,0-.45,1.12,1.25,1.25,0,0,0,.41,1,1.66,1.66,0,0,0,1.12.37,2,2,0,0,0,1.57-.67,2.35,2.35,0,0,0,.62-1.69Z"/><path class="cls-19" d="M47.18,120.2a1.52,1.52,0,0,0-1-.26,1.64,1.64,0,0,0-1.37.77,3.57,3.57,0,0,0-.55,2.11v4.08H43v-8h1.28v1.65h0a2.74,2.74,0,0,1,.84-1.32,1.91,1.91,0,0,1,1.25-.47,2,2,0,0,1,.77.11Z"/><path class="cls-19" d="M55.19,126.26c0,2.94-1.41,4.4-4.22,4.4a5.56,5.56,0,0,1-2.59-.56v-1.28a5.32,5.32,0,0,0,2.57.75q3,0,3-3.14v-.87h0a3.24,3.24,0,0,1-5.16.46,4.3,4.3,0,0,1-.91-2.86,5,5,0,0,1,1-3.25,3.29,3.29,0,0,1,2.69-1.2,2.62,2.62,0,0,1,2.4,1.3h0V118.9h1.28Zm-1.28-3V122.1a2.29,2.29,0,0,0-.65-1.63,2.12,2.12,0,0,0-1.6-.68,2.22,2.22,0,0,0-1.86.86,3.85,3.85,0,0,0-.68,2.42,3.33,3.33,0,0,0,.65,2.14,2.1,2.1,0,0,0,1.71.8,2.22,2.22,0,0,0,1.75-.77A2.85,2.85,0,0,0,53.91,123.28Z"/><path class="cls-19" d="M64.21,123.22H58.56a3,3,0,0,0,.72,2.06,2.46,2.46,0,0,0,1.89.73,4,4,0,0,0,2.49-.89v1.2a4.68,4.68,0,0,1-2.79.77A3.42,3.42,0,0,1,58.2,126a4.5,4.5,0,0,1-1-3.07,4.4,4.4,0,0,1,1.06-3,3.4,3.4,0,0,1,2.63-1.18,3,3,0,0,1,2.43,1,4.22,4.22,0,0,1,.86,2.82Zm-1.31-1.09a2.62,2.62,0,0,0-.54-1.72,1.82,1.82,0,0,0-1.46-.62,2.07,2.07,0,0,0-1.54.65,3,3,0,0,0-.78,1.69Z"/><path class="cls-19" d="M77.51,126.9H76.23v-4.59a3.53,3.53,0,0,0-.41-1.93,1.58,1.58,0,0,0-1.38-.59,1.72,1.72,0,0,0-1.4.75,2.89,2.89,0,0,0-.57,1.8v4.56H71.19v-4.75c0-1.57-.61-2.36-1.82-2.36a1.68,1.68,0,0,0-1.39.71,2.88,2.88,0,0,0-.55,1.84v4.56H66.15v-8h1.28v1.26h0A2.74,2.74,0,0,1,70,118.71a2.31,2.31,0,0,1,1.43.46,2.28,2.28,0,0,1,.83,1.2,2.85,2.85,0,0,1,2.66-1.66c1.76,0,2.64,1.09,2.64,3.26Z"/></g></svg>
