<?xml version="1.0" encoding="utf-8"?>
<!-- Generator: Adobe Illustrator 25.4.1, SVG Export Plug-In . SVG Version: 6.00 Build 0)  -->
<svg version="1.1" id="icones" xmlns="http://www.w3.org/2000/svg" xmlns:xlink="http://www.w3.org/1999/xlink" x="0px" y="0px"
	 viewBox="0 0 1176 288" style="enable-background:new 0 0 1176 288;" xml:space="preserve">
<style type="text/css">
	.st0{fill:url(#SVGID_1_);}
	.st1{fill:#C06F6C;}
	.st2{fill:url(#SVGID_00000099644701856525416590000010898356933503707557_);}
	.st3{fill:#5E75A0;}
	.st4{fill:#D3AD6A;}
	.st5{fill:#6CACA0;}
	.st6{fill:#5E4B4B;}
	.st7{fill:#D8E4E3;}
	.st8{fill:#414951;}
	.st9{fill:#5B564F;}
	.st10{fill:#51605C;}
	.st11{fill:url(#SVGID_00000073686320295217176150000015078251931179533463_);}
	.st12{fill:url(#SVGID_00000097479752169654682220000018113811416464661164_);}
	.st13{fill:url(#SVGID_00000060746831374418301490000005737185711936509849_);}
	.st14{fill:url(#SVGID_00000042014805574393788320000006961952528137940870_);}
	.st15{fill:url(#SVGID_00000008108489222019163680000018294363171709794967_);}
	.st16{fill:url(#SVGID_00000179646062635519876720000016324264920589385613_);}
	.st17{fill:#556464;stroke:#566564;stroke-width:0.4;stroke-miterlimit:10;}
	.st18{fill:#FFFFFF;stroke:#FFFFFF;stroke-width:0.4;stroke-miterlimit:10;}
	.st19{opacity:0.75;}
	.st20{opacity:0.3;}
	.st21{fill:none;stroke:#FFFFFF;stroke-miterlimit:10;}
	.st22{fill:url(#SVGID_00000032620607216264604600000007185370960632600741_);}
</style>
<g>
	
		<linearGradient id="SVGID_1_" gradientUnits="userSpaceOnUse" x1="542" y1="802" x2="542" y2="830" gradientTransform="matrix(1 0 0 1 0 -554)">
		<stop  offset="0.3" style="stop-color:#6CACA0"/>
		<stop  offset="0.7" style="stop-color:#5E75A0"/>
	</linearGradient>
	<path class="st0" d="M16,248h1052c4.4,0,8,3.6,8,8v12c0,4.4-3.6,8-8,8H16c-4.4,0-8-3.6-8-8v-12C8,251.6,11.6,248,16,248z"/>
	<g>
		<path class="st1" d="M16,96h1052c4.4,0,8,3.6,8,8v32c0,4.4-3.6,8-8,8H16c-4.4,0-8-3.6-8-8v-32C8,99.6,11.6,96,16,96z"/>
		
			<linearGradient id="SVGID_00000035490997091702874250000013110186611362021800_" gradientUnits="userSpaceOnUse" x1="542" y1="828" x2="542" y2="804" gradientTransform="matrix(1 0 0 1 0 -554)">
			<stop  offset="0.3" style="stop-color:#6CACA0"/>
			<stop  offset="0.7" style="stop-color:#5E75A0"/>
		</linearGradient>
		<path style="fill:url(#SVGID_00000035490997091702874250000013110186611362021800_);" d="M16.6,250h1050.8c3.6,0,6.6,3,6.6,6.6
			v10.8c0,3.6-3,6.6-6.6,6.6H16.6c-3.6,0-6.6-3-6.6-6.6v-10.8C10,253,13,250,16.6,250z"/>
		<path class="st3" d="M16,52h1052c4.4,0,8,3.6,8,8v12c0,4.4-3.6,8-8,8H16c-4.4,0-8-3.6-8-8V60C8,55.6,11.6,52,16,52z"/>
		<path class="st4" d="M16,160h1052c4.4,0,8,3.6,8,8v12c0,4.4-3.6,8-8,8H16c-4.4,0-8-3.6-8-8v-12C8,163.6,11.6,160,16,160z"/>
		<path class="st5" d="M16,204h1052c4.4,0,8,3.6,8,8v12c0,4.4-3.6,8-8,8H16c-4.4,0-8-3.6-8-8v-12C8,207.6,11.6,204,16,204z"/>
	</g>
</g>
<path class="st6" d="M1156,92H996c-6.6,0-12,5.4-12,12v32c0,6.6,5.4,12,12,12h160c6.6,0,12-5.4,12-12v-32
	C1168,97.4,1162.6,92,1156,92z M1004,122v14c0,3.3-2.7,6-6,6s-6-2.7-6-6v-14H1004z M992,118v-14c0-3.3,2.7-6,6-6s6,2.7,6,6v14H992z"
	/>
<path class="st6" d="M220,92h-88c-6.6,0-12,5.4-12,12v32c0,6.6,5.4,12,12,12h88c6.6,0,12-5.4,12-12v-32C232,97.4,226.6,92,220,92z
	 M140,122v14c0,3.3-2.7,6-6,6s-6-2.7-6-6v-14H140z M128,118v-14c0-3.3,2.7-6,6-6s6,2.7,6,6v14H128z"/>
<path class="st6" d="M340,92h-88c-6.6,0-12,5.4-12,12v32c0,6.6,5.4,12,12,12h88c6.6,0,12-5.4,12-12v-32C352,97.4,346.6,92,340,92z
	 M260,122v14c0,3.3-2.7,6-6,6c-3.3,0-6-2.7-6-6v-14H260z M248,118v-14c0-3.3,2.7-6,6-6c3.3,0,6,2.7,6,6v14H248z"/>
<path class="st6" d="M772,92H612c-6.6,0-12,5.4-12,12v32c0,6.6,5.4,12,12,12h160c6.6,0,12-5.4,12-12v-32C784,97.4,778.6,92,772,92z
	 M620,122v14c0,3.3-2.7,6-6,6s-6-2.7-6-6v-14H620z M608,118v-14c0-3.3,2.7-6,6-6s6,2.7,6,6v14H608z"/>
<path class="st6" d="M964,92H804c-6.6,0-12,5.4-12,12v32c0,6.6,5.4,12,12,12h160c6.6,0,12-5.4,12-12v-32C976,97.4,970.6,92,964,92z
	 M812,122v14c0,3.3-2.7,6-6,6s-6-2.7-6-6v-14H812z M800,118v-14c0-3.3,2.7-6,6-6s6,2.7,6,6v14H800z"/>
<path class="st6" d="M580,92h-88c-6.6,0-12,5.4-12,12v32c0,6.6,5.4,12,12,12h88c6.6,0,12-5.4,12-12v-32C592,97.4,586.6,92,580,92z
	 M500,122v14c0,3.3-2.7,6-6,6s-6-2.7-6-6v-14H500z M488,118v-14c0-3.3,2.7-6,6-6s6,2.7,6,6v14H488z"/>
<path class="st7" d="M252,8h88c6.6,0,12,5.4,12,12v4c0,6.6-5.4,12-12,12h-88c-6.6,0-12-5.4-12-12v-4C240,13.4,245.4,8,252,8z"/>
<path class="st7" d="M492,8h88c6.6,0,12,5.4,12,12v4c0,6.6-5.4,12-12,12h-88c-6.6,0-12-5.4-12-12v-4C480,13.4,485.4,8,492,8z"/>
<path class="st7" d="M132,8h88c6.6,0,12,5.4,12,12v4c0,6.6-5.4,12-12,12h-88c-6.6,0-12-5.4-12-12v-4C120,13.4,125.4,8,132,8z"/>
<path class="st7" d="M612,8h160c6.6,0,12,5.4,12,12v4c0,6.6-5.4,12-12,12H612c-6.6,0-12-5.4-12-12v-4C600,13.4,605.4,8,612,8z"/>
<path class="st8" d="M340,48h-88c-6.6,0-12,5.4-12,12v12c0,6.6,5.4,12,12,12h88c6.6,0,12-5.4,12-12V60C352,53.4,346.6,48,340,48z
	 M260,72c0,3.3-2.7,6-6,6c-3.3,0-6-2.7-6-6V60c0-3.3,2.7-6,6-6c3.3,0,6,2.7,6,6V72z"/>
<path class="st8" d="M580,48h-88c-6.6,0-12,5.4-12,12v12c0,6.6,5.4,12,12,12h88c6.6,0,12-5.4,12-12V60C592,53.4,586.6,48,580,48z
	 M500,72c0,3.3-2.7,6-6,6s-6-2.7-6-6V60c0-3.3,2.7-6,6-6s6,2.7,6,6V72z"/>
<path class="st8" d="M220,48h-88c-6.6,0-12,5.4-12,12v12c0,6.6,5.4,12,12,12h88c6.6,0,12-5.4,12-12V60C232,53.4,226.6,48,220,48z
	 M140,72c0,3.3-2.7,6-6,6s-6-2.7-6-6V60c0-3.3,2.7-6,6-6s6,2.7,6,6V72z"/>
<path class="st8" d="M964,48H804c-6.6,0-12,5.4-12,12v12c0,6.6,5.4,12,12,12h160c6.6,0,12-5.4,12-12V60C976,53.4,970.6,48,964,48z
	 M812,72c0,3.3-2.7,6-6,6s-6-2.7-6-6V60c0-3.3,2.7-6,6-6s6,2.7,6,6V72z"/>
<path class="st8" d="M772,48H612c-6.6,0-12,5.4-12,12v12c0,6.6,5.4,12,12,12h160c6.6,0,12-5.4,12-12V60C784,53.4,778.6,48,772,48z
	 M620,72c0,3.3-2.7,6-6,6s-6-2.7-6-6V60c0-3.3,2.7-6,6-6s6,2.7,6,6V72z"/>
<path class="st8" d="M1156,48H996c-6.6,0-12,5.4-12,12v12c0,6.6,5.4,12,12,12h160c6.6,0,12-5.4,12-12V60
	C1168,53.4,1162.6,48,1156,48z M1004,72c0,3.3-2.7,6-6,6s-6-2.7-6-6V60c0-3.3,2.7-6,6-6s6,2.7,6,6V72z"/>
<path class="st7" d="M804,8h160c6.6,0,12,5.4,12,12v4c0,6.6-5.4,12-12,12H804c-6.6,0-12-5.4-12-12v-4C792,13.4,797.4,8,804,8z"/>
<path class="st7" d="M996,8h160c6.6,0,12,5.4,12,12v4c0,6.6-5.4,12-12,12H996c-6.6,0-12-5.4-12-12v-4C984,13.4,989.4,8,996,8z"/>
<path class="st9" d="M340,156h-88c-6.6,0-12,5.4-12,12v12c0,6.6,5.4,12,12,12h88c6.6,0,12-5.4,12-12v-12
	C352,161.4,346.6,156,340,156z M260,180c0,3.3-2.7,6-6,6c-3.3,0-6-2.7-6-6v-12c0-3.3,2.7-6,6-6c3.3,0,6,2.7,6,6V180z"/>
<path class="st9" d="M580,156h-88c-6.6,0-12,5.4-12,12v12c0,6.6,5.4,12,12,12h88c6.6,0,12-5.4,12-12v-12
	C592,161.4,586.6,156,580,156z M500,180c0,3.3-2.7,6-6,6s-6-2.7-6-6v-12c0-3.3,2.7-6,6-6s6,2.7,6,6V180z"/>
<path class="st9" d="M220,156h-88c-6.6,0-12,5.4-12,12v12c0,6.6,5.4,12,12,12h88c6.6,0,12-5.4,12-12v-12
	C232,161.4,226.6,156,220,156z M140,180c0,3.3-2.7,6-6,6s-6-2.7-6-6v-12c0-3.3,2.7-6,6-6s6,2.7,6,6V180z"/>
<path class="st9" d="M964,156H804c-6.6,0-12,5.4-12,12v12c0,6.6,5.4,12,12,12h160c6.6,0,12-5.4,12-12v-12
	C976,161.4,970.6,156,964,156z M812,180c0,3.3-2.7,6-6,6s-6-2.7-6-6v-12c0-3.3,2.7-6,6-6s6,2.7,6,6V180z"/>
<path class="st9" d="M772,156H612c-6.6,0-12,5.4-12,12v12c0,6.6,5.4,12,12,12h160c6.6,0,12-5.4,12-12v-12
	C784,161.4,778.6,156,772,156z M620,180c0,3.3-2.7,6-6,6s-6-2.7-6-6v-12c0-3.3,2.7-6,6-6s6,2.7,6,6V180z"/>
<path class="st9" d="M1156,156H996c-6.6,0-12,5.4-12,12v12c0,6.6,5.4,12,12,12h160c6.6,0,12-5.4,12-12v-12
	C1168,161.4,1162.6,156,1156,156z M1004,180c0,3.3-2.7,6-6,6s-6-2.7-6-6v-12c0-3.3,2.7-6,6-6s6,2.7,6,6V180z"/>
<path class="st10" d="M340,200h-88c-6.6,0-12,5.4-12,12v12c0,6.6,5.4,12,12,12h88c6.6,0,12-5.4,12-12v-12
	C352,205.4,346.6,200,340,200z M260,224c0,3.3-2.7,6-6,6c-3.3,0-6-2.7-6-6v-12c0-3.3,2.7-6,6-6c3.3,0,6,2.7,6,6V224z"/>
<path class="st10" d="M580,200h-88c-6.6,0-12,5.4-12,12v12c0,6.6,5.4,12,12,12h88c6.6,0,12-5.4,12-12v-12
	C592,205.4,586.6,200,580,200z M500,224c0,3.3-2.7,6-6,6s-6-2.7-6-6v-12c0-3.3,2.7-6,6-6s6,2.7,6,6V224z"/>
<path class="st10" d="M220,200h-88c-6.6,0-12,5.4-12,12v12c0,6.6,5.4,12,12,12h88c6.6,0,12-5.4,12-12v-12
	C232,205.4,226.6,200,220,200z M140,224c0,3.3-2.7,6-6,6s-6-2.7-6-6v-12c0-3.3,2.7-6,6-6s6,2.7,6,6V224z"/>
<path class="st10" d="M964,200H804c-6.6,0-12,5.4-12,12v12c0,6.6,5.4,12,12,12h160c6.6,0,12-5.4,12-12v-12
	C976,205.4,970.6,200,964,200z M812,224c0,3.3-2.7,6-6,6s-6-2.7-6-6v-12c0-3.3,2.7-6,6-6s6,2.7,6,6V224z"/>
<path class="st10" d="M772,200H612c-6.6,0-12,5.4-12,12v12c0,6.6,5.4,12,12,12h160c6.6,0,12-5.4,12-12v-12
	C784,205.4,778.6,200,772,200z M620,224c0,3.3-2.7,6-6,6s-6-2.7-6-6v-12c0-3.3,2.7-6,6-6s6,2.7,6,6V224z"/>
<path class="st10" d="M1156,200H996c-6.6,0-12,5.4-12,12v12c0,6.6,5.4,12,12,12h160c6.6,0,12-5.4,12-12v-12
	C1168,205.4,1162.6,200,1156,200z M1004,224c0,3.3-2.7,6-6,6s-6-2.7-6-6v-12c0-3.3,2.7-6,6-6s6,2.7,6,6V224z"/>
<linearGradient id="SVGID_00000066503828047641728360000013096775802912447929_" gradientUnits="userSpaceOnUse" x1="296" y1="834" x2="296" y2="798" gradientTransform="matrix(1 0 0 1 0 -554)">
	<stop  offset="0" style="stop-color:#51605C"/>
	<stop  offset="1" style="stop-color:#414951"/>
</linearGradient>
<path style="fill:url(#SVGID_00000066503828047641728360000013096775802912447929_);" d="M340,244h-88c-6.6,0-12,5.4-12,12v12
	c0,6.6,5.4,12,12,12h88c6.6,0,12-5.4,12-12v-12C352,249.4,346.6,244,340,244z M260,268c0,3.3-2.7,6-6,6c-3.3,0-6-2.7-6-6v-12
	c0-3.3,2.7-6,6-6c3.3,0,6,2.7,6,6V268z"/>
<linearGradient id="SVGID_00000103243813408929711520000013959341423360100533_" gradientUnits="userSpaceOnUse" x1="536" y1="834" x2="536" y2="798" gradientTransform="matrix(1 0 0 1 0 -554)">
	<stop  offset="0" style="stop-color:#51605C"/>
	<stop  offset="1" style="stop-color:#414951"/>
</linearGradient>
<path style="fill:url(#SVGID_00000103243813408929711520000013959341423360100533_);" d="M580,244h-88c-6.6,0-12,5.4-12,12v12
	c0,6.6,5.4,12,12,12h88c6.6,0,12-5.4,12-12v-12C592,249.4,586.6,244,580,244z M500,268c0,3.3-2.7,6-6,6s-6-2.7-6-6v-12
	c0-3.3,2.7-6,6-6s6,2.7,6,6V268z"/>
<linearGradient id="SVGID_00000056405889012829084450000013105897636067747973_" gradientUnits="userSpaceOnUse" x1="176" y1="834" x2="176" y2="798" gradientTransform="matrix(1 0 0 1 0 -554)">
	<stop  offset="0" style="stop-color:#51605C"/>
	<stop  offset="1" style="stop-color:#414951"/>
</linearGradient>
<path style="fill:url(#SVGID_00000056405889012829084450000013105897636067747973_);" d="M220,244h-88c-6.6,0-12,5.4-12,12v12
	c0,6.6,5.4,12,12,12h88c6.6,0,12-5.4,12-12v-12C232,249.4,226.6,244,220,244z M140,268c0,3.3-2.7,6-6,6s-6-2.7-6-6v-12
	c0-3.3,2.7-6,6-6s6,2.7,6,6V268z"/>
<linearGradient id="SVGID_00000125586582577317639730000004681829295344292247_" gradientUnits="userSpaceOnUse" x1="884" y1="834" x2="884" y2="798" gradientTransform="matrix(1 0 0 1 0 -554)">
	<stop  offset="0" style="stop-color:#51605C"/>
	<stop  offset="1" style="stop-color:#414951"/>
</linearGradient>
<path style="fill:url(#SVGID_00000125586582577317639730000004681829295344292247_);" d="M964,244H804c-6.6,0-12,5.4-12,12v12
	c0,6.6,5.4,12,12,12h160c6.6,0,12-5.4,12-12v-12C976,249.4,970.6,244,964,244z M812,268c0,3.3-2.7,6-6,6s-6-2.7-6-6v-12
	c0-3.3,2.7-6,6-6s6,2.7,6,6V268z"/>
<linearGradient id="SVGID_00000068643646663237681240000009126682250415046323_" gradientUnits="userSpaceOnUse" x1="692" y1="834" x2="692" y2="798" gradientTransform="matrix(1 0 0 1 0 -554)">
	<stop  offset="0" style="stop-color:#51605C"/>
	<stop  offset="1" style="stop-color:#414951"/>
</linearGradient>
<path style="fill:url(#SVGID_00000068643646663237681240000009126682250415046323_);" d="M772,244H612c-6.6,0-12,5.4-12,12v12
	c0,6.6,5.4,12,12,12h160c6.6,0,12-5.4,12-12v-12C784,249.4,778.6,244,772,244z M620,268c0,3.3-2.7,6-6,6s-6-2.7-6-6v-12
	c0-3.3,2.7-6,6-6s6,2.7,6,6V268z"/>
<linearGradient id="SVGID_00000100385073488123725170000004042791562821558934_" gradientUnits="userSpaceOnUse" x1="1076" y1="834" x2="1076" y2="798" gradientTransform="matrix(1 0 0 1 0 -554)">
	<stop  offset="0" style="stop-color:#51605C"/>
	<stop  offset="1" style="stop-color:#414951"/>
</linearGradient>
<path style="fill:url(#SVGID_00000100385073488123725170000004042791562821558934_);" d="M1156,244H996c-6.6,0-12,5.4-12,12v12
	c0,6.6,5.4,12,12,12h160c6.6,0,12-5.4,12-12v-12C1168,249.4,1162.6,244,1156,244z M1004,268c0,3.3-2.7,6-6,6s-6-2.7-6-6v-12
	c0-3.3,2.7-6,6-6s6,2.7,6,6V268z"/>
<path class="st17" d="M157,18.1h-3.8v3.4h3.5v1h-3.5v4.4H152v-9.8h5V18.1z"/>
<path class="st17" d="M163.2,26.9h-1.1v-1.1l0,0c-0.4,0.8-1.3,1.3-2.1,1.3c-0.6,0-1.2-0.2-1.6-0.6c-0.4-0.4-0.6-0.9-0.6-1.5
	c0-1.3,0.8-2.1,2.3-2.3l2.1-0.3c0-1.2-0.5-1.8-1.4-1.8c-0.8,0-1.7,0.3-2.3,0.9v-1.2c0.7-0.4,1.5-0.7,2.4-0.6c1.6,0,2.5,0.9,2.5,2.6
	L163.2,26.9z M162.1,23.4l-1.7,0.2c-0.4,0-0.8,0.2-1.2,0.4c-0.3,0.2-0.4,0.6-0.4,1c0,0.3,0.1,0.6,0.4,0.8c0.3,0.2,0.6,0.3,1,0.3
	c0.5,0,1-0.2,1.4-0.6s0.6-0.9,0.5-1.5V23.4z"/>
<path class="st17" d="M170.1,26.6c-0.6,0.3-1.2,0.5-1.9,0.5c-0.9,0-1.8-0.3-2.4-1c-0.6-0.7-1-1.6-0.9-2.5c0-1,0.3-2,1-2.8
	c0.7-0.7,1.7-1.1,2.6-1c0.6,0,1.1,0.1,1.6,0.3v1.1c-0.5-0.4-1.1-0.5-1.7-0.5c-0.7,0-1.3,0.3-1.8,0.8c-0.5,0.6-0.7,1.3-0.7,2
	s0.2,1.4,0.6,1.9c0.4,0.5,1.1,0.7,1.7,0.7c0.6,0,1.2-0.2,1.7-0.6L170.1,26.6z"/>
<path class="st17" d="M175,26.8c-0.3,0.2-0.7,0.2-1,0.2c-1.2,0-1.8-0.7-1.8-2v-4.1H171v-1h1.2v-1.7l1.1-0.4v2.1h1.7v1h-1.8v3.9
	c0,0.4,0.1,0.7,0.2,1c0.2,0.2,0.5,0.3,0.8,0.3s0.5-0.1,0.7-0.2v0.9H175z"/>
<path class="st17" d="M182.2,26.9h-1.1v-1.1l0,0c-0.4,0.8-1.3,1.3-2.2,1.3c-1.7,0-2.5-1-2.5-3v-4.2h1.1v4c0,1.5,0.6,2.2,1.7,2.2
	c0.5,0,1-0.2,1.4-0.6s0.6-1,0.5-1.6v-4h1.1V26.9z"/>
<path class="st17" d="M188.1,21c-0.3-0.2-0.5-0.2-0.9-0.2c-0.5,0-0.9,0.3-1.2,0.7c-0.3,0.5-0.5,1.2-0.5,1.8v3.6h-1.1v-7h1.1v1.4l0,0
	c0.1-0.4,0.4-0.8,0.7-1.1c0.3-0.3,0.7-0.4,1.1-0.4c0.2,0,0.5,0,0.7,0.1L188.1,21z"/>
<path class="st17" d="M194.3,26.9h-1.1v-1.1l0,0c-0.4,0.8-1.3,1.3-2.2,1.3c-0.6,0-1.2-0.2-1.6-0.6c-0.4-0.4-0.6-0.9-0.6-1.5
	c0-1.3,0.8-2.1,2.3-2.3l2.1-0.3c0-1.2-0.5-1.8-1.4-1.8c-0.8,0-1.6,0.3-2.3,0.9v-1.2c0.7-0.4,1.5-0.7,2.4-0.6c1.6,0,2.5,0.9,2.5,2.6
	L194.3,26.9z M193.2,23.4l-1.7,0.2c-0.4,0-0.8,0.2-1.2,0.4c-0.3,0.2-0.5,0.6-0.4,1c0,0.3,0.1,0.6,0.4,0.8c0.3,0.2,0.6,0.3,1,0.3
	c0.5,0,1-0.2,1.4-0.6s0.6-0.9,0.5-1.5V23.4z"/>
<path class="st17" d="M196,26.6v-1.2c0.6,0.4,1.3,0.7,2,0.7c1,0,1.5-0.3,1.5-1c0-0.2,0-0.3-0.1-0.5c-0.1-0.1-0.2-0.2-0.3-0.3
	c-0.2-0.1-0.3-0.2-0.5-0.3l-0.6-0.2c-0.3-0.1-0.6-0.2-0.8-0.4c-0.2-0.1-0.4-0.3-0.6-0.4c-0.2-0.2-0.3-0.3-0.4-0.5
	c-0.1-0.2-0.1-0.5-0.1-0.7c0-0.3,0.1-0.6,0.2-0.9c0.2-0.3,0.4-0.5,0.6-0.6c0.3-0.2,0.6-0.3,0.9-0.4c0.3-0.1,0.7-0.1,1-0.1
	c0.6,0,1.1,0.1,1.6,0.3v1.1c-0.5-0.3-1.1-0.5-1.8-0.5c-0.2,0-0.4,0-0.6,0.1c-0.2,0-0.3,0.1-0.4,0.2c-0.1,0.1-0.2,0.2-0.3,0.3
	c-0.1,0.1-0.1,0.3-0.1,0.4c0,0.2,0,0.3,0.1,0.5c0.1,0.1,0.2,0.2,0.3,0.3c0.1,0.1,0.3,0.2,0.5,0.3l0.6,0.2c0.3,0.1,0.6,0.2,0.8,0.4
	c0.2,0.1,0.4,0.3,0.6,0.4c0.2,0.2,0.3,0.3,0.4,0.5c0.1,0.2,0.1,0.5,0.1,0.7c0,0.3-0.1,0.6-0.2,0.9c-0.2,0.3-0.4,0.5-0.6,0.6
	c-0.3,0.2-0.6,0.3-0.9,0.4c-0.3,0.1-0.7,0.1-1,0.1C197.2,27.1,196.6,26.9,196,26.6z"/>
<path class="st17" d="M269.6,26.9h-1.4l-1.6-2.8c-0.1-0.2-0.3-0.4-0.4-0.6s-0.3-0.3-0.4-0.4s-0.3-0.2-0.5-0.2
	c-0.2-0.1-0.4-0.1-0.6-0.1h-0.9V27h-1.1v-9.8h2.9c0.4,0,0.8,0,1.2,0.2c0.3,0.1,0.7,0.3,0.9,0.5c0.3,0.2,0.5,0.5,0.6,0.8
	c0.2,0.4,0.2,0.7,0.2,1.1c0,0.3,0,0.6-0.1,0.9s-0.2,0.5-0.4,0.8c-0.2,0.2-0.4,0.4-0.7,0.6c-0.3,0.2-0.6,0.3-0.9,0.4l0,0
	c0.2,0.1,0.3,0.1,0.4,0.2s0.2,0.2,0.3,0.3c0.1,0.1,0.2,0.3,0.3,0.4l0.4,0.6L269.6,26.9z M263.7,18.1v3.5h1.6c0.3,0,0.5,0,0.8-0.1
	c0.2-0.1,0.5-0.2,0.6-0.4c0.2-0.2,0.3-0.4,0.4-0.6c0.1-0.3,0.2-0.5,0.1-0.8c0-0.5-0.2-0.9-0.5-1.2c-0.4-0.3-0.9-0.5-1.5-0.4H263.7z"
	/>
<path class="st17" d="M276,23.7h-4.9c0,0.7,0.2,1.3,0.6,1.8c0.4,0.4,1,0.7,1.7,0.6c0.8,0,1.6-0.3,2.2-0.8v1.1
	c-0.7,0.5-1.6,0.7-2.4,0.7c-0.9,0-1.7-0.3-2.3-1c-0.6-0.8-0.9-1.7-0.9-2.7s0.3-1.9,0.9-2.7c0.6-0.7,1.4-1,2.3-1
	c0.8,0,1.6,0.3,2.1,0.9c0.5,0.7,0.8,1.6,0.8,2.5v0.6H276z M274.9,22.7c0-0.5-0.1-1.1-0.5-1.5c-0.3-0.4-0.8-0.6-1.3-0.5
	c-0.5,0-1,0.2-1.4,0.6s-0.6,0.9-0.7,1.5L274.9,22.7z"/>
<path class="st17" d="M287.6,26.9h-1.1v-4c0-0.6-0.1-1.2-0.4-1.7c-0.3-0.4-0.7-0.6-1.2-0.5c-0.5,0-0.9,0.3-1.2,0.7
	c-0.3,0.4-0.5,1-0.5,1.6v4h-1.1v-4.2c0-1.4-0.5-2.1-1.6-2.1c-0.5,0-0.9,0.2-1.2,0.6c-0.3,0.5-0.5,1-0.5,1.6v4h-1.1v-7h1.1V21l0,0
	c0.4-0.8,1.3-1.3,2.2-1.3c0.4,0,0.9,0.1,1.2,0.4c0.4,0.3,0.6,0.6,0.7,1c0.4-0.9,1.3-1.5,2.3-1.5c1.5,0,2.3,0.9,2.3,2.9L287.6,26.9z"
	/>
<path class="st17" d="M290.3,18.1c-0.2,0-0.4-0.1-0.5-0.2c-0.3-0.3-0.3-0.7,0-1s0.7-0.3,1,0s0.3,0.7,0,1
	C290.7,18,290.5,18.1,290.3,18.1z M290.9,26.9h-1.1v-7h1.1V26.9z"/>
<path class="st17" d="M292.7,26.6v-1.2c0.6,0.4,1.3,0.7,2,0.7c1,0,1.5-0.3,1.5-1c0-0.2,0-0.3-0.1-0.5c-0.1-0.1-0.2-0.3-0.4-0.3
	c-0.2-0.1-0.3-0.2-0.5-0.3c-0.2-0.1-0.4-0.2-0.6-0.2c-0.3-0.1-0.5-0.2-0.8-0.4c-0.2-0.1-0.4-0.3-0.6-0.4s-0.3-0.3-0.4-0.5
	s-0.1-0.5-0.1-0.7c0-0.3,0.1-0.6,0.2-0.9c0.2-0.3,0.4-0.5,0.6-0.6c0.3-0.2,0.6-0.3,0.9-0.4s0.7-0.1,1-0.1c0.6,0,1.1,0.1,1.6,0.3v1.1
	c-0.5-0.3-1.1-0.5-1.8-0.5c-0.2,0-0.4,0-0.6,0.1c-0.2,0-0.3,0.1-0.4,0.2s-0.2,0.2-0.3,0.3c-0.1,0.1-0.1,0.3-0.1,0.4
	c0,0.2,0,0.3,0.1,0.5c0.1,0.1,0.2,0.2,0.3,0.3c0.1,0.1,0.3,0.2,0.5,0.3l0.6,0.2c0.3,0.1,0.6,0.2,0.8,0.4c0.2,0.1,0.4,0.3,0.6,0.4
	c0.2,0.2,0.3,0.3,0.4,0.5s0.1,0.5,0.1,0.7c0,0.3-0.1,0.6-0.2,0.9s-0.4,0.5-0.6,0.6c-0.3,0.2-0.6,0.3-0.9,0.4s-0.7,0.1-1,0.1
	C294,27.1,293.3,26.9,292.7,26.6z"/>
<path class="st17" d="M299.7,18.1c-0.2,0-0.4-0.1-0.5-0.2c-0.3-0.3-0.3-0.7,0-1c0.1-0.1,0.3-0.2,0.5-0.2s0.4,0.1,0.5,0.2
	c0.3,0.3,0.3,0.7,0,1C300.1,18.1,299.9,18.1,299.7,18.1z M300.2,26.9h-1.1v-7h1.1V26.9z"/>
<path class="st17" d="M305.4,27.1c-0.9,0-1.8-0.3-2.5-1c-0.6-0.7-1-1.6-0.9-2.6c0-1,0.3-2,1-2.8c0.7-0.7,1.6-1,2.6-1
	c0.9,0,1.8,0.3,2.5,1c0.6,0.7,0.9,1.7,0.9,2.7s-0.3,2-1,2.7C307.3,26.8,306.4,27.1,305.4,27.1z M305.5,20.7c-0.7,0-1.3,0.2-1.7,0.7
	c-0.4,0.6-0.7,1.3-0.6,2c0,0.7,0.2,1.4,0.6,2c0.4,0.5,1.1,0.7,1.7,0.7s1.3-0.2,1.7-0.7c0.4-0.6,0.6-1.3,0.6-2s-0.2-1.4-0.6-2
	C306.8,20.9,306.1,20.6,305.5,20.7z"/>
<path class="st17" d="M316.5,26.9h-1.1v-4c0-1.5-0.5-2.2-1.6-2.2c-0.5,0-1,0.2-1.4,0.6s-0.6,1-0.5,1.6v4h-1.1v-7h1.1v1.2l0,0
	c0.5-0.8,1.3-1.4,2.3-1.3c0.7,0,1.3,0.2,1.8,0.7c0.4,0.6,0.7,1.4,0.6,2.1L316.5,26.9z"/>
<path class="st17" d="M324.2,23.7h-5c0,0.7,0.2,1.3,0.6,1.8c0.4,0.4,1,0.7,1.7,0.6c0.8,0,1.6-0.3,2.2-0.8v1.1
	c-0.7,0.5-1.6,0.7-2.4,0.7c-0.9,0-1.7-0.3-2.3-1c-0.6-0.8-0.9-1.7-0.9-2.7s0.3-1.9,0.9-2.7c0.6-0.7,1.4-1,2.3-1
	c0.8,0,1.6,0.3,2.1,0.9c0.5,0.7,0.8,1.6,0.8,2.5L324.2,23.7L324.2,23.7z M323.1,22.7c0-0.5-0.1-1.1-0.5-1.5
	c-0.3-0.4-0.8-0.6-1.3-0.5c-0.5,0-1,0.2-1.4,0.6s-0.6,0.9-0.7,1.5L323.1,22.7z"/>
<path class="st17" d="M325.5,26.6v-1.2c0.6,0.4,1.3,0.7,2,0.7c1,0,1.5-0.3,1.5-1c0-0.2,0-0.3-0.1-0.5c-0.1-0.1-0.2-0.3-0.3-0.3
	c-0.2-0.1-0.3-0.2-0.5-0.3l-0.6-0.2c-0.3-0.1-0.6-0.2-0.8-0.4c-0.2-0.1-0.4-0.2-0.6-0.4c-0.2-0.1-0.3-0.3-0.4-0.5s-0.1-0.5-0.1-0.7
	c0-0.3,0.1-0.6,0.2-0.9c0.2-0.3,0.4-0.5,0.6-0.6c0.3-0.2,0.6-0.3,0.9-0.4s0.7-0.1,1-0.1c0.6,0,1.1,0.1,1.6,0.3v1.1
	c-0.5-0.3-1.1-0.5-1.8-0.5c-0.2,0-0.4,0-0.6,0.1c-0.2,0-0.3,0.1-0.4,0.2s-0.2,0.2-0.3,0.3c-0.1,0.1-0.1,0.3-0.1,0.4
	c0,0.2,0,0.3,0.1,0.5c0.1,0.1,0.2,0.2,0.3,0.3c0.1,0.1,0.3,0.2,0.5,0.3l0.6,0.2c0.3,0.1,0.6,0.2,0.8,0.4c0.2,0.1,0.4,0.3,0.6,0.4
	c0.2,0.2,0.3,0.3,0.4,0.5s0.1,0.5,0.1,0.7c0,0.3-0.1,0.6-0.2,0.9c-0.2,0.3-0.4,0.5-0.6,0.6c-0.3,0.2-0.6,0.3-0.9,0.4s-0.7,0.1-1,0.1
	C326.7,27.1,326.1,26.9,325.5,26.6z"/>
<path class="st17" d="M510.9,18.1h-3.8v3.4h3.5v1h-3.5v4.4H506v-9.8h5L510.9,18.1z"/>
<path class="st17" d="M517.4,26.6c-0.6,0.3-1.2,0.5-1.9,0.5c-0.9,0-1.8-0.3-2.4-1c-0.6-0.7-1-1.6-0.9-2.5c0-1,0.3-2,1-2.8
	c0.7-0.7,1.7-1.1,2.6-1c0.6,0,1.1,0.1,1.6,0.3v1.1c-0.5-0.4-1.1-0.5-1.7-0.5c-0.7,0-1.3,0.3-1.8,0.8c-0.5,0.6-0.7,1.3-0.7,2
	s0.2,1.4,0.6,1.9c0.4,0.5,1.1,0.7,1.7,0.7c0.6,0,1.2-0.2,1.7-0.6L517.4,26.6z"/>
<path class="st17" d="M522.4,26.8c-0.3,0.2-0.7,0.2-1,0.2c-1.2,0-1.8-0.7-1.8-2v-4.1h-1.2v-1h1.2v-1.7l1.1-0.4v2.1h1.8v1h-1.8v3.9
	c0,0.4,0.1,0.7,0.2,1c0.2,0.2,0.5,0.3,0.8,0.3s0.5-0.1,0.7-0.2V26.8L522.4,26.8z"/>
<path class="st17" d="M534.6,23.3h-2.8V26h-0.9v-2.7h-2.8v-0.9h2.8v-2.8h0.9v2.8h2.8V23.3z"/>
<path class="st17" d="M548.3,26.9h-1.4l-1.6-2.8c-0.1-0.2-0.3-0.4-0.4-0.6c-0.1-0.2-0.3-0.3-0.4-0.4s-0.3-0.2-0.5-0.2
	c-0.2-0.1-0.4-0.1-0.6-0.1h-0.9V27h-1.1v-9.8h2.9c0.4,0,0.8,0,1.2,0.2c0.3,0.1,0.7,0.3,1,0.5s0.5,0.5,0.6,0.8
	c0.2,0.4,0.2,0.8,0.2,1.1c0,0.3-0.1,0.6-0.2,0.9c-0.1,0.3-0.2,0.5-0.4,0.8c-0.2,0.2-0.4,0.4-0.7,0.6c-0.3,0.2-0.6,0.3-0.9,0.4l0,0
	c0.2,0.1,0.3,0.1,0.4,0.2s0.2,0.2,0.3,0.3c0.1,0.1,0.2,0.3,0.3,0.4c0.1,0.2,0.2,0.4,0.4,0.6L548.3,26.9z M542.4,18.1v3.5h1.6
	c0.3,0,0.5,0,0.8-0.1c0.2-0.1,0.5-0.2,0.6-0.4c0.2-0.2,0.3-0.4,0.4-0.6c0.1-0.3,0.2-0.5,0.1-0.8c0-0.5-0.2-0.9-0.5-1.2
	c-0.4-0.3-0.9-0.5-1.5-0.4H542.4z"/>
<path class="st17" d="M554.7,23.7h-4.9c0,0.7,0.2,1.3,0.6,1.8c0.4,0.4,1,0.7,1.6,0.6c0.8,0,1.6-0.3,2.2-0.8v1.1
	c-0.7,0.5-1.6,0.7-2.4,0.7c-0.9,0-1.7-0.3-2.3-1c-0.6-0.8-0.9-1.7-0.8-2.7c0-1,0.3-1.9,0.9-2.7c0.6-0.7,1.4-1,2.3-1
	c0.8-0.1,1.6,0.3,2.1,0.9c0.5,0.7,0.8,1.6,0.8,2.5L554.7,23.7z M553.6,22.7c0-0.5-0.1-1.1-0.5-1.5c-0.3-0.4-0.8-0.6-1.3-0.5
	c-0.5,0-1,0.2-1.4,0.6s-0.6,0.9-0.7,1.5L553.6,22.7z"/>
<path class="st17" d="M566.3,26.9h-1.1v-4c0-0.6-0.1-1.2-0.4-1.7c-0.3-0.4-0.7-0.6-1.2-0.5c-0.5,0-0.9,0.3-1.2,0.7
	c-0.3,0.5-0.5,1-0.5,1.6v4h-1.1v-4.2c0-1.4-0.5-2.1-1.6-2.1c-0.5,0-0.9,0.2-1.2,0.6c-0.3,0.5-0.5,1-0.5,1.6v4h-1.1v-7h1.1V21l0,0
	c0.4-0.8,1.3-1.3,2.2-1.3c0.4,0,0.9,0.1,1.2,0.4c0.4,0.3,0.6,0.6,0.7,1c0.4-0.9,1.3-1.5,2.3-1.4c1.5,0,2.3,1,2.3,2.9L566.3,26.9z"/>
<path class="st18" d="M26.6,61.1L23,70.9h-1.3l-3.6-9.8h1.3l2.7,7.8c0.1,0.3,0.2,0.6,0.2,0.9l0,0c0-0.3,0.1-0.6,0.2-0.9l2.8-7.8
	L26.6,61.1z"/>
<path class="st18" d="M31.8,70.9h-1.1v-1.1l0,0c-0.4,0.8-1.3,1.3-2.2,1.3c-0.6,0-1.2-0.2-1.6-0.6s-0.6-0.9-0.6-1.5
	c0-1.3,0.8-2.1,2.3-2.3l2.1-0.3c0-1.2-0.5-1.8-1.4-1.8c-0.8,0-1.6,0.3-2.3,0.9v-1.1c0.7-0.4,1.5-0.7,2.4-0.7c1.6,0,2.5,0.9,2.5,2.6
	L31.8,70.9z M30.7,67.4L29,67.6c-0.4,0-0.8,0.2-1.2,0.4c-0.3,0.2-0.4,0.6-0.4,1c0,0.3,0.1,0.6,0.4,0.8c0.3,0.2,0.6,0.3,1,0.3
	c0.5,0,1-0.2,1.4-0.6s0.6-0.9,0.5-1.5C30.7,68,30.7,67.4,30.7,67.4z"/>
<path class="st18" d="M35.1,70.9H34V60.5h1.1V70.9z"/>
<path class="st18" d="M40.3,71.1c-0.9,0-1.8-0.3-2.5-1c-0.6-0.7-1-1.6-0.9-2.6c0-1,0.3-2,1-2.8c0.7-0.7,1.6-1,2.6-1
	c0.9,0,1.8,0.3,2.4,1c0.6,0.7,0.9,1.7,0.9,2.7s-0.3,2-1,2.7C42.1,70.8,41.2,71.1,40.3,71.1z M40.3,64.7c-0.7,0-1.3,0.2-1.7,0.7
	c-0.4,0.6-0.7,1.3-0.6,2c-0.1,0.7,0.2,1.4,0.6,2c0.4,0.5,1.1,0.7,1.7,0.7c0.6,0,1.3-0.2,1.7-0.7c0.4-0.6,0.6-1.3,0.6-2
	s-0.2-1.4-0.6-2C41.6,64.9,41,64.7,40.3,64.7z"/>
<path class="st18" d="M49.2,65c-0.3-0.2-0.5-0.2-0.8-0.2c-0.5,0-0.9,0.3-1.2,0.7c-0.4,0.5-0.5,1.2-0.5,1.8v3.6h-1.1v-7h1.1v1.4l0,0
	c0.1-0.4,0.4-0.8,0.7-1.2c0.3-0.3,0.7-0.4,1.1-0.4c0.2,0,0.5,0,0.7,0.1V65z"/>
<path class="st18" d="M62.3,70.9h-1.4l-5-7.8c-0.1-0.2-0.2-0.4-0.3-0.6l0,0c0,0.4,0,0.9,0,1.3v7.1h-1.2v-9.8h1.5l4.9,7.7
	c0.1,0.2,0.3,0.4,0.4,0.7l0,0c0-0.5-0.1-1,0-1.5v-6.9h1.1V70.9z"/>
<path class="st18" d="M70.1,70.9h-5.2v-9.8h5v1H66v3.3h3.5v1H66v3.4h4L70.1,70.9z"/>
<path class="st18" d="M77.8,62.1H75v8.8h-1.2v-8.8H71v-1h6.8V62.1z"/>
<path class="st18" d="M82.6,71.1c-1.3,0.1-2.5-0.5-3.3-1.4c-0.9-1-1.3-2.3-1.3-3.6c-0.1-1.4,0.4-2.7,1.3-3.8c0.9-1,2.2-1.5,3.5-1.4
	c1.2,0,2.4,0.5,3.3,1.4c0.9,1,1.3,2.3,1.2,3.6c0.1,1.4-0.4,2.7-1.3,3.8C85.1,70.6,83.9,71.1,82.6,71.1z M82.7,62
	c-1,0-1.9,0.4-2.5,1.1c-0.7,0.8-1,1.9-1,2.9c0,1.1,0.3,2.1,0.9,2.9c0.6,0.7,1.5,1.1,2.5,1.1c1,0.1,1.9-0.3,2.6-1
	c0.7-0.8,1-1.9,0.9-3c0.1-1.1-0.3-2.1-0.9-3C84.6,62.3,83.7,61.9,82.7,62L82.7,62z"/>
<path class="st18" d="M29.3,122.9h-1.1v-6.6c0-0.5,0-1.2,0.1-1.9l0,0c-0.1,0.3-0.2,0.7-0.3,1l-3.4,7.5H24l-3.3-7.5
	c-0.1-0.3-0.2-0.7-0.3-1l0,0c0,0.4,0,1,0,1.9v6.6h-1.1v-9.8h1.5l3,6.8c0.2,0.4,0.3,0.8,0.5,1.2l0,0c0.2-0.5,0.4-0.9,0.5-1.2l3.1-6.8
	h1.4L29.3,122.9z"/>
<path class="st18" d="M36.7,122.9h-1.1v-1.1l0,0c-0.4,0.8-1.3,1.3-2.2,1.3c-0.6,0-1.2-0.2-1.6-0.6s-0.6-0.9-0.6-1.5
	c0-1.3,0.8-2.1,2.3-2.3l2.1-0.3c0-1.2-0.5-1.8-1.5-1.8c-0.8,0-1.6,0.3-2.3,0.9v-1.2c0.7-0.4,1.5-0.7,2.4-0.7c1.6,0,2.5,0.9,2.5,2.6
	V122.9z M35.6,119.4l-1.7,0.2c-0.4,0-0.8,0.2-1.2,0.4c-0.3,0.2-0.4,0.6-0.4,1c0,0.3,0.1,0.6,0.4,0.8c0.3,0.2,0.6,0.3,1,0.3
	c0.5,0,1-0.2,1.4-0.6s0.6-0.9,0.5-1.5V119.4z"/>
<path class="st18" d="M42.5,117c-0.3-0.2-0.5-0.2-0.8-0.2c-0.5,0-0.9,0.3-1.2,0.7c-0.3,0.5-0.5,1.2-0.5,1.8v3.6h-1.1v-7H40v1.4l0,0
	c0.1-0.4,0.4-0.8,0.7-1.2c0.3-0.3,0.7-0.4,1.1-0.4c0.2,0,0.5,0,0.7,0.1V117z"/>
<path class="st18" d="M49.5,122.3c0,2.6-1.2,3.9-3.7,3.9c-0.8,0-1.6-0.2-2.3-0.5v-1.1c0.7,0.4,1.5,0.6,2.2,0.7
	c1.7,0,2.6-0.9,2.6-2.8v-0.8l0,0c-0.8,1.3-2.6,1.7-3.9,0.9c-0.2-0.1-0.4-0.3-0.6-0.5c-0.6-0.7-0.8-1.6-0.8-2.5c-0.1-1,0.3-2,0.9-2.8
	c0.6-0.7,1.4-1.1,2.3-1.1c0.9,0,1.7,0.4,2.1,1.1l0,0v-1h1.1L49.5,122.3z M48.4,119.7v-1c0-0.5-0.2-1-0.6-1.4
	c-0.4-0.4-0.9-0.6-1.4-0.6c-0.6,0-1.2,0.3-1.6,0.8c-0.4,0.6-0.6,1.4-0.6,2.1s0.2,1.3,0.6,1.9c0.4,0.5,0.9,0.7,1.5,0.7
	s1.1-0.2,1.5-0.7C48.2,121,48.4,120.4,48.4,119.7z"/>
<path class="st18" d="M57.4,119.7h-4.9c0,0.7,0.2,1.3,0.6,1.8c0.4,0.4,1,0.7,1.7,0.6c0.8,0,1.6-0.3,2.2-0.8v1.1
	c-0.7,0.5-1.6,0.7-2.4,0.7c-0.9,0-1.7-0.3-2.3-1c-0.6-0.8-0.9-1.7-0.8-2.7c0-1,0.3-1.9,0.9-2.7c0.6-0.7,1.4-1,2.3-1
	c0.8-0.1,1.6,0.3,2.1,0.9c0.5,0.7,0.8,1.6,0.8,2.5v0.6H57.4z M56.2,118.7c0-0.5-0.1-1.1-0.5-1.5c-0.3-0.4-0.8-0.6-1.3-0.5
	c-0.5,0-1,0.2-1.3,0.6c-0.4,0.4-0.6,0.9-0.7,1.5L56.2,118.7L56.2,118.7z"/>
<path class="st18" d="M64.9,122.9h-1.1v-4c0-1.5-0.5-2.2-1.6-2.2c-0.5,0-1,0.2-1.4,0.6s-0.6,1-0.5,1.6v4h-1.1v-7h1.1v1.2l0,0
	c0.5-0.8,1.3-1.4,2.3-1.3c0.7,0,1.3,0.2,1.8,0.7c0.4,0.6,0.7,1.4,0.6,2.1L64.9,122.9z"/>
<path class="st18" d="M20.4,175.2v3.7h-1.1v-9.8H22c0.9-0.1,1.7,0.2,2.4,0.8c0.6,0.6,0.9,1.3,0.9,2.2s-0.3,1.7-1,2.3
	s-1.6,0.9-2.6,0.9L20.4,175.2z M20.4,170.1v4h1.2c0.7,0,1.3-0.2,1.8-0.6c0.4-0.4,0.7-1,0.6-1.5c0-1.3-0.8-1.9-2.3-1.9H20.4z"/>
<path class="st18" d="M32.1,175.7h-4.9c0,0.7,0.2,1.3,0.6,1.8c0.4,0.4,1,0.7,1.6,0.6c0.8,0,1.6-0.3,2.2-0.8v1.1
	c-0.7,0.5-1.6,0.7-2.4,0.7c-0.9,0-1.7-0.3-2.3-1c-1.2-1.6-1.1-3.8,0.1-5.3c0.6-0.7,1.4-1,2.3-1c0.8-0.1,1.6,0.3,2.1,0.9
	c0.5,0.7,0.8,1.6,0.8,2.5L32.1,175.7z M30.9,174.7c0-0.5-0.1-1.1-0.5-1.5c-0.3-0.4-0.8-0.6-1.3-0.5c-0.5,0-1,0.2-1.3,0.6
	c-0.4,0.4-0.6,0.9-0.7,1.5L30.9,174.7z"/>
<path class="st18" d="M33.3,178.6v-1.2c0.6,0.4,1.3,0.7,2,0.7c1,0,1.5-0.3,1.5-1c0-0.2,0-0.3-0.1-0.5c-0.1-0.1-0.2-0.3-0.3-0.3
	c-0.2-0.1-0.3-0.2-0.5-0.3l-0.6-0.2c-0.3-0.1-0.6-0.2-0.8-0.4c-0.2-0.1-0.4-0.3-0.6-0.4c-0.2-0.2-0.3-0.3-0.3-0.5
	c-0.1-0.2-0.1-0.5-0.1-0.7c0-0.3,0.1-0.6,0.2-0.9c0.2-0.3,0.4-0.5,0.6-0.6c0.3-0.2,0.6-0.3,0.9-0.4c0.3-0.1,0.7-0.1,1-0.1
	c0.6,0,1.1,0.1,1.6,0.3v1.1c-0.5-0.3-1.1-0.5-1.8-0.5c-0.2,0-0.4,0-0.6,0.1c-0.2,0-0.3,0.1-0.4,0.2c-0.1,0.1-0.2,0.2-0.3,0.3
	s-0.1,0.3-0.1,0.4c0,0.2,0,0.3,0.1,0.4c0.1,0.1,0.2,0.2,0.3,0.3s0.3,0.2,0.5,0.3L36,175c0.3,0.1,0.6,0.2,0.8,0.4
	c0.2,0.1,0.4,0.3,0.6,0.4c0.3,0.3,0.5,0.8,0.5,1.2c0,0.3-0.1,0.6-0.2,0.9c-0.2,0.3-0.4,0.5-0.6,0.6c-0.3,0.2-0.6,0.3-0.9,0.4
	c-0.3,0.1-0.7,0.1-1,0.1C34.6,179.1,33.9,178.9,33.3,178.6z"/>
<path class="st18" d="M42.6,179.1c-0.9,0-1.8-0.3-2.5-1c-0.6-0.7-1-1.6-0.9-2.6c0-1,0.3-2,1-2.8c0.7-0.7,1.6-1,2.6-1
	c0.9,0,1.8,0.3,2.4,1c1.2,1.6,1.2,3.8-0.1,5.4C44.5,178.8,43.6,179.1,42.6,179.1z M42.7,172.7c-0.7,0-1.3,0.2-1.7,0.7
	c-0.4,0.6-0.7,1.3-0.6,2c-0.1,0.7,0.2,1.4,0.6,2c0.4,0.5,1.1,0.7,1.7,0.7c0.6,0,1.3-0.2,1.7-0.7c0.4-0.6,0.6-1.3,0.6-2
	s-0.2-1.4-0.6-2C44,172.9,43.4,172.7,42.7,172.7L42.7,172.7z"/>
<path class="st18" d="M59.8,178.9h-1.4l-5-7.8c-0.1-0.2-0.2-0.4-0.3-0.6l0,0c0,0.4,0,0.9,0,1.4v7.1h-1.2v-9.8h1.5l4.9,7.7
	c0.1,0.2,0.3,0.4,0.4,0.7l0,0c-0.1-0.5-0.1-1-0.1-1.4v-6.9h1.2L59.8,178.9z"/>
<path class="st18" d="M67.6,178.9h-5.2v-9.8h5v1h-3.9v3.3H67v1h-3.5v3.4h4L67.6,178.9z"/>
<path class="st18" d="M75.3,170.1h-2.8v8.8h-1.2v-8.8h-2.8v-1h6.8V170.1z"/>
<path class="st18" d="M80.2,179.1c-1.3,0.1-2.5-0.5-3.3-1.4c-0.9-1-1.3-2.3-1.3-3.6c-0.1-1.4,0.4-2.7,1.3-3.8c0.9-1,2.2-1.5,3.5-1.4
	c1.2,0,2.4,0.5,3.3,1.4c0.9,1,1.3,2.3,1.2,3.6c0.1,1.4-0.4,2.7-1.3,3.8C82.7,178.6,81.4,179.1,80.2,179.1z M80.2,170
	c-1,0-1.9,0.4-2.5,1.1c-0.7,0.8-1,1.9-1,2.9c0,1.1,0.3,2.1,0.9,2.9c0.6,0.7,1.5,1.1,2.5,1.1c1,0.1,1.9-0.3,2.6-1
	c0.7-0.8,1-1.9,0.9-2.9c0.1-1.1-0.3-2.1-0.9-3C82.1,170.3,81.2,170,80.2,170L80.2,170z"/>
<path class="st17" d="M644.4,26.9h-5.1v-9.8h1.2v8.8h3.9L644.4,26.9L644.4,26.9z"/>
<path class="st17" d="M651.4,17.1l-3.2,6.2v3.6H647v-3.6l-3.2-6.2h1.3l2.2,4.4c0,0,0.1,0.2,0.2,0.6l0,0c0.1-0.2,0.2-0.4,0.3-0.6
	l2.3-4.4L651.4,17.1z"/>
<path class="st17" d="M661.6,18.1h-3.8v3.4h3.5v1h-3.5v4.4h-1.2v-9.8h5V18.1z"/>
<path class="st17" d="M667.8,26.9h-1.1v-1.1l0,0c-0.4,0.8-1.3,1.3-2.2,1.3c-0.6,0-1.2-0.2-1.6-0.6c-0.4-0.4-0.6-0.9-0.6-1.5
	c0-1.3,0.8-2.1,2.3-2.3l2.1-0.3c0-1.2-0.5-1.8-1.5-1.8c-0.8,0-1.6,0.3-2.3,0.9v-1.2c0.7-0.4,1.5-0.7,2.4-0.6c1.6,0,2.5,0.9,2.5,2.6
	L667.8,26.9z M666.6,23.4l-1.7,0.2c-0.4,0-0.8,0.2-1.2,0.4c-0.3,0.2-0.4,0.6-0.4,1c0,0.3,0.1,0.6,0.4,0.8c0.3,0.2,0.6,0.3,1,0.3
	c0.5,0,1-0.2,1.4-0.6s0.6-0.9,0.5-1.5V23.4z"/>
<path class="st17" d="M674.6,26.6c-0.6,0.3-1.2,0.5-1.9,0.5c-0.9,0-1.8-0.3-2.4-1c-0.6-0.7-1-1.6-0.9-2.5c0-1,0.3-2,1-2.8
	c0.7-0.7,1.6-1.1,2.6-1c0.6,0,1.1,0.1,1.6,0.3v1.1c-0.5-0.4-1.1-0.5-1.7-0.5c-0.7,0-1.3,0.3-1.8,0.8c-0.5,0.6-0.7,1.3-0.7,2
	s0.2,1.4,0.7,1.9c0.4,0.5,1.1,0.7,1.7,0.7c0.6,0,1.2-0.2,1.7-0.6L674.6,26.6z"/>
<path class="st17" d="M679.6,26.8c-0.3,0.2-0.7,0.2-1,0.2c-1.2,0-1.8-0.7-1.8-2v-4.1h-1.2v-1h1.2v-1.7l1.1-0.4v2.1h1.8v1h-1.8v3.9
	c0,0.4,0.1,0.7,0.2,1c0.2,0.2,0.5,0.3,0.8,0.3s0.5-0.1,0.7-0.2V26.8z"/>
<path class="st17" d="M686.7,26.9h-1.1v-1.1l0,0c-0.4,0.8-1.3,1.3-2.2,1.3c-1.7,0-2.5-1-2.5-3v-4.2h1v4c0,1.5,0.6,2.2,1.7,2.2
	c0.5,0,1-0.2,1.3-0.6c0.4-0.4,0.6-1,0.5-1.6v-4h1.1L686.7,26.9z"/>
<path class="st17" d="M692.7,21c-0.2-0.2-0.5-0.2-0.8-0.2c-0.5,0-0.9,0.3-1.2,0.7c-0.4,0.5-0.5,1.2-0.5,1.8v3.6H689v-7h1.1v1.4l0,0
	c0.1-0.4,0.4-0.8,0.7-1.1c0.3-0.3,0.7-0.4,1.1-0.4c0.2,0,0.5,0,0.7,0.1L692.7,21z"/>
<path class="st17" d="M698.9,26.9h-1.1v-1.1l0,0c-0.7,1.2-2.3,1.6-3.5,0.9c-0.1-0.1-0.2-0.1-0.3-0.2c-0.4-0.4-0.6-0.9-0.6-1.5
	c0-1.3,0.8-2.1,2.3-2.3l2.1-0.3c0-1.2-0.5-1.8-1.4-1.8c-0.8,0-1.7,0.3-2.3,0.9v-1.2c0.7-0.4,1.5-0.7,2.4-0.6c1.7,0,2.5,0.9,2.5,2.6
	L698.9,26.9z M697.8,23.4l-1.7,0.2c-0.4,0-0.8,0.2-1.2,0.4c-0.3,0.2-0.5,0.6-0.4,1c0,0.3,0.1,0.6,0.4,0.8c0.3,0.2,0.6,0.3,1,0.3
	c0.5,0,1-0.2,1.4-0.6s0.6-0.9,0.5-1.5V23.4z"/>
<path class="st17" d="M707.4,17.2c-1.2,1.7-1.8,3.7-1.8,5.7s0.6,4,1.8,5.7h-1c-1.2-1.6-1.9-3.6-1.8-5.7c0-2.1,0.6-4.1,1.8-5.7H707.4
	z"/>
<path class="st17" d="M708,26.2l3.3-8.8h1.4l3.3,8.7v0.7h-8V26.2z M714.6,25.9l-1.9-5.2c-0.2-0.7-0.5-1.5-0.7-2.1l0,0
	c-0.1,0.5-0.4,1.3-0.6,1.9l-2,5.4H714.6z"/>
<path class="st17" d="M719.3,27.5l3.9-10.1h1l-3.9,10.1H719.3z"/>
<path class="st17" d="M731.8,20.4c0,1.9-1,2.9-2.2,2.9s-2.1-0.9-2.1-2.7s1-2.9,2.2-2.9S731.8,18.6,731.8,20.4z M728.5,20.4
	c0,1.2,0.4,2,1.2,2s1.2-0.9,1.2-2.1s-0.3-2-1.2-2S728.5,19.3,728.5,20.4z M729.5,27.1l5.3-9.4h0.8l-5.3,9.4H729.5z M737.8,24.1
	c0,1.9-1,2.9-2.2,2.9s-2.1-0.9-2.1-2.7s1-2.9,2.2-2.9S737.8,22.4,737.8,24.1z M734.4,24.2c0,1.2,0.4,2,1.2,2s1.2-0.9,1.2-2.1
	s-0.3-2-1.2-2S734.4,23.1,734.4,24.2z"/>
<path class="st17" d="M738.5,28.6c1.2-1.7,1.8-3.7,1.8-5.7s-0.6-4-1.8-5.7h1c1.2,1.6,1.9,3.6,1.8,5.7c0.1,2.1-0.6,4.1-1.8,5.7
	C739.5,28.6,738.5,28.6,738.5,28.6z"/>
<path class="st17" d="M847.1,26.9H846v-6.6c0-0.5,0-1.2,0.1-1.9l0,0c-0.1,0.3-0.2,0.6-0.3,1l-3.3,7.5h-0.6l-3.3-7.5
	c-0.1-0.3-0.2-0.7-0.3-1l0,0c0,0.4,0,1,0,1.9v6.6h-1.1v-9.8h1.5l3,6.8c0.2,0.4,0.3,0.8,0.5,1.2l0,0c0.2-0.5,0.3-0.9,0.5-1.2l3.1-6.8
	h1.4L847.1,26.9z"/>
<path class="st17" d="M855.2,23.7h-4.9c0,0.7,0.2,1.3,0.6,1.8c0.4,0.4,1,0.7,1.7,0.6c0.8,0,1.6-0.3,2.2-0.8v1.1
	c-0.7,0.5-1.6,0.7-2.4,0.7c-0.9,0-1.7-0.3-2.3-1c-0.6-0.8-0.9-1.7-0.8-2.7c0-1,0.3-1.9,0.9-2.7c0.6-0.7,1.4-1,2.3-1
	c0.8-0.1,1.6,0.3,2.1,0.9c0.5,0.7,0.8,1.6,0.8,2.5L855.2,23.7z M854,22.7c0-0.5-0.1-1.1-0.5-1.5c-0.3-0.4-0.8-0.6-1.3-0.5
	c-0.5,0-1,0.2-1.3,0.6c-0.4,0.4-0.6,0.9-0.7,1.5L854,22.7z"/>
<path class="st17" d="M860.1,26.8c-0.3,0.2-0.7,0.2-1,0.2c-1.2,0-1.8-0.7-1.8-2v-4.1h-1.2v-1h1.2v-1.7l1.1-0.4v2.1h1.8v1h-1.8v3.9
	c0,0.4,0.1,0.7,0.2,1c0.2,0.2,0.5,0.3,0.8,0.3s0.5-0.1,0.7-0.2V26.8z"/>
<path class="st17" d="M866.6,26.9h-1.1v-1.1l0,0c-0.4,0.8-1.3,1.3-2.2,1.3c-0.6,0-1.2-0.2-1.6-0.6c-0.4-0.4-0.6-0.9-0.6-1.5
	c0-1.3,0.8-2.1,2.3-2.3l2.1-0.3c0-1.2-0.5-1.8-1.4-1.8c-0.8,0-1.7,0.3-2.3,0.9v-1.2c0.7-0.4,1.5-0.7,2.4-0.6c1.7,0,2.5,0.9,2.5,2.6
	L866.6,26.9z M865.5,23.4l-1.7,0.2c-0.4,0-0.8,0.2-1.2,0.4c-0.5,0.5-0.5,1.3,0,1.8l0,0c0.3,0.2,0.6,0.3,1,0.3c0.5,0,1-0.2,1.4-0.6
	s0.6-0.9,0.5-1.5V23.4z"/>
<path class="st17" d="M873.9,23.2v3.7h-1.2v-9.8h2.7c0.9-0.1,1.7,0.2,2.4,0.8c0.6,0.6,0.9,1.3,0.9,2.2c0,0.9-0.3,1.7-1,2.3
	c-0.7,0.6-1.6,0.9-2.6,0.9h-1.2V23.2z M873.9,18.1v4h1.2c0.7,0,1.3-0.2,1.8-0.5c0.4-0.4,0.7-1,0.6-1.5c0-1.3-0.8-1.9-2.3-1.9
	L873.9,18.1z"/>
<path class="st17" d="M884.5,27.1c-1.3,0.1-2.5-0.5-3.3-1.4c-0.9-1-1.3-2.3-1.2-3.6c-0.1-1.4,0.4-2.7,1.3-3.8c0.9-1,2.2-1.5,3.5-1.4
	c1.3-0.1,2.5,0.4,3.3,1.4c0.9,1,1.3,2.3,1.2,3.6c0.1,1.4-0.4,2.7-1.3,3.8C887.1,26.6,885.8,27.1,884.5,27.1z M884.6,18
	c-1,0-1.9,0.4-2.5,1.1c-0.7,0.8-1,1.9-1,2.9c-0.1,1.1,0.3,2.1,0.9,2.9c0.6,0.7,1.5,1.1,2.5,1.1c1,0.1,1.9-0.3,2.6-1
	c0.7-0.8,1-1.9,0.9-3c0.1-1.1-0.3-2.1-0.9-3C886.5,18.3,885.5,17.9,884.6,18L884.6,18z"/>
<path class="st17" d="M897.4,17.2c-1.2,1.7-1.8,3.7-1.8,5.7s0.6,4,1.8,5.7h-1c-1.2-1.6-1.9-3.6-1.8-5.7c0-2.1,0.6-4.1,1.8-5.7H897.4
	z"/>
<path class="st17" d="M898,26.2l3.3-8.8h1.4l3.2,8.7v0.7H898V26.2z M904.6,25.9l-1.9-5.2c-0.2-0.7-0.5-1.5-0.7-2.1l0,0
	c-0.1,0.5-0.4,1.3-0.6,1.9l-2,5.4H904.6z"/>
<path class="st17" d="M909.3,27.5l3.9-10.1h1l-3.9,10.1H909.3z"/>
<path class="st17" d="M921.8,20.4c0,1.9-1,2.9-2.2,2.9s-2.1-0.9-2.1-2.7s1-2.9,2.2-2.9S921.8,18.6,921.8,20.4z M918.5,20.4
	c0,1.2,0.4,2,1.2,2s1.2-0.9,1.2-2.1s-0.3-2-1.2-2S918.5,19.3,918.5,20.4z M919.5,27.1l5.3-9.4h0.8l-5.3,9.4H919.5z M927.7,24.1
	c0,1.9-1,2.9-2.2,2.9s-2.1-0.9-2.1-2.7s1-2.9,2.2-2.9S927.7,22.4,927.7,24.1z M924.4,24.2c0,1.2,0.4,2,1.2,2s1.2-0.9,1.2-2.1
	s-0.3-2-1.2-2S924.4,23.1,924.4,24.2L924.4,24.2z"/>
<path class="st17" d="M928.5,28.6c1.2-1.7,1.8-3.7,1.8-5.7s-0.6-4-1.8-5.7h1c1.2,1.6,1.9,3.6,1.8,5.7c0.1,2.1-0.6,4.1-1.8,5.7
	C929.5,28.6,928.5,28.6,928.5,28.6z"/>
<path class="st17" d="M1035.5,18.1h-3.8v3.4h3.5v1h-3.5v4.4h-1.2v-9.8h5V18.1z"/>
<path class="st17" d="M1040.1,27.1c-0.9,0-1.8-0.3-2.5-1c-0.6-0.7-1-1.6-0.9-2.6c0-1,0.3-2,1-2.8c0.7-0.7,1.6-1,2.6-1
	c0.9,0,1.8,0.3,2.4,1c0.6,0.7,0.9,1.7,0.9,2.7s-0.3,2-1,2.7C1042,26.8,1041,27.1,1040.1,27.1z M1040.2,20.7c-0.7,0-1.3,0.2-1.7,0.7
	c-0.4,0.6-0.7,1.3-0.6,2c-0.1,0.7,0.2,1.4,0.6,2c0.4,0.5,1.1,0.7,1.7,0.7c0.6,0,1.3-0.2,1.7-0.7c0.4-0.6,0.6-1.3,0.6-2
	s-0.2-1.4-0.6-2C1041.4,20.9,1040.8,20.6,1040.2,20.7L1040.2,20.7z"/>
<path class="st17" d="M1049,21c-0.3-0.2-0.5-0.2-0.8-0.2c-0.5,0-0.9,0.3-1.2,0.7c-0.3,0.5-0.5,1.2-0.5,1.8v3.6h-1.1v-7h1.1v1.4l0,0
	c0.1-0.4,0.4-0.8,0.7-1.1c0.3-0.3,0.7-0.4,1.1-0.4c0.2,0,0.5,0,0.7,0.1V21z"/>
<path class="st17" d="M1055.7,23.7h-4.9c0,0.7,0.2,1.3,0.6,1.8c0.4,0.4,1,0.7,1.7,0.6c0.8,0,1.6-0.3,2.2-0.8v1.1
	c-0.7,0.5-1.6,0.7-2.4,0.7c-0.9,0-1.7-0.3-2.3-1c-0.6-0.8-0.9-1.7-0.8-2.7c0-1,0.3-1.9,0.9-2.7c0.6-0.7,1.4-1,2.3-1
	c0.8,0,1.6,0.3,2.1,0.9c0.5,0.7,0.8,1.6,0.8,2.5L1055.7,23.7z M1054.5,22.7c0-0.5-0.1-1.1-0.5-1.5c-0.3-0.4-0.8-0.6-1.3-0.5
	c-0.5,0-1,0.2-1.3,0.6c-0.4,0.4-0.6,0.9-0.7,1.5L1054.5,22.7z"/>
<path class="st17" d="M1062.1,26.6c-0.6,0.3-1.2,0.5-1.9,0.5c-0.9,0-1.8-0.3-2.4-1s-1-1.6-0.9-2.5c-0.1-1,0.3-2,1-2.8
	c0.7-0.7,1.7-1.1,2.6-1c0.6,0,1.1,0.1,1.6,0.3v1.1c-0.5-0.4-1.1-0.5-1.7-0.5c-0.7,0-1.3,0.3-1.8,0.8c-0.5,0.6-0.7,1.3-0.7,2
	s0.2,1.4,0.7,1.9c0.4,0.5,1.1,0.7,1.7,0.7c0.6,0,1.2-0.2,1.7-0.6L1062.1,26.6z"/>
<path class="st17" d="M1068.8,26.9h-1.1v-1.1l0,0c-0.4,0.8-1.3,1.3-2.2,1.3c-0.6,0-1.2-0.2-1.6-0.6s-0.6-0.9-0.6-1.5
	c0-1.3,0.8-2.1,2.3-2.3l2.1-0.3c0-1.2-0.5-1.8-1.4-1.8c-0.8,0-1.7,0.3-2.3,0.9v-1.2c0.7-0.4,1.5-0.7,2.4-0.6c1.7,0,2.5,0.9,2.5,2.6
	L1068.8,26.9z M1067.7,23.4l-1.7,0.2c-0.4,0-0.8,0.2-1.2,0.4c-0.5,0.5-0.5,1.3,0,1.8l0,0c0.3,0.2,0.6,0.3,1,0.3c0.5,0,1-0.2,1.4-0.6
	c0.4-0.4,0.6-0.9,0.5-1.5V23.4z"/>
<path class="st17" d="M1070.5,26.6v-1.2c0.6,0.4,1.3,0.7,2,0.7c1,0,1.5-0.3,1.5-1c0-0.2,0-0.3-0.1-0.5c-0.1-0.1-0.2-0.3-0.3-0.3
	c-0.2-0.1-0.3-0.2-0.5-0.3c-0.2-0.1-0.4-0.2-0.6-0.2c-0.3-0.1-0.5-0.2-0.8-0.4c-0.2-0.1-0.4-0.2-0.6-0.4c-0.2-0.1-0.3-0.3-0.4-0.5
	s-0.1-0.5-0.1-0.7c0-0.3,0.1-0.6,0.2-0.9c0.2-0.3,0.4-0.5,0.6-0.6c0.3-0.2,0.6-0.3,0.9-0.4s0.7-0.1,1-0.1c0.6,0,1.1,0.1,1.6,0.3v1.1
	c-0.5-0.3-1.1-0.5-1.8-0.5c-0.2,0-0.4,0-0.6,0.1c-0.2,0-0.3,0.1-0.4,0.2c-0.1,0.1-0.2,0.2-0.3,0.3c-0.1,0.1-0.1,0.3-0.1,0.4
	c0,0.2,0,0.3,0.1,0.5c0.1,0.1,0.2,0.2,0.3,0.3c0.1,0.1,0.3,0.2,0.5,0.3l0.6,0.2c0.3,0.1,0.6,0.2,0.8,0.4c0.2,0.1,0.4,0.3,0.6,0.4
	c0.2,0.2,0.3,0.3,0.4,0.5c0.1,0.2,0.1,0.5,0.1,0.7c0,0.3-0.1,0.6-0.2,0.9c-0.2,0.3-0.4,0.5-0.6,0.6c-0.3,0.2-0.6,0.3-0.9,0.4
	c-0.3,0.1-0.7,0.1-1,0.1C1071.7,27.1,1071.1,26.9,1070.5,26.6z"/>
<path class="st17" d="M1080.2,26.8c-0.3,0.2-0.7,0.2-1,0.2c-1.2,0-1.8-0.7-1.8-2v-4.1h-1.2v-1h1.2v-1.7l1.1-0.4v2.1h1.8v1h-1.8v3.9
	c0,0.4,0.1,0.7,0.2,1c0.2,0.2,0.5,0.3,0.8,0.3s0.5-0.1,0.7-0.2V26.8z"/>
<path class="st17" d="M1088,17.2c-1.2,1.7-1.8,3.7-1.8,5.7s0.6,4,1.8,5.7h-1c-1.2-1.6-1.9-3.6-1.8-5.7c0-2.1,0.6-4.1,1.8-5.7H1088z"
	/>
<path class="st17" d="M1088.7,26.2l3.3-8.8h1.4l3.2,8.7v0.7h-7.9V26.2z M1095.2,25.9l-1.9-5.2c-0.2-0.7-0.5-1.5-0.7-2.1l0,0
	c-0.1,0.5-0.4,1.3-0.6,1.9l-2,5.4H1095.2z"/>
<path class="st17" d="M1100,27.5l3.9-10.1h1l-4,10.1H1100z"/>
<path class="st17" d="M1112.5,20.4c0,1.9-1,2.9-2.2,2.9c-1.2,0-2.1-0.9-2.1-2.7s1-2.9,2.2-2.9S1112.5,18.6,1112.5,20.4z
	 M1109.1,20.4c0,1.2,0.4,2,1.2,2c0.8,0,1.2-0.9,1.2-2.1s-0.3-2-1.2-2C1109.4,18.3,1109.1,19.3,1109.1,20.4L1109.1,20.4z
	 M1110.2,27.1l5.3-9.4h0.8l-5.3,9.4H1110.2z M1118.4,24.1c0,1.9-1,2.9-2.2,2.9c-1.2,0-2.1-0.9-2.1-2.7s1-2.9,2.2-2.9
	S1118.4,22.4,1118.4,24.1L1118.4,24.1z M1115.1,24.2c0,1.2,0.4,2,1.2,2c0.8,0,1.2-0.9,1.2-2.1s-0.3-2-1.2-2
	C1115.4,22.1,1115.1,23.1,1115.1,24.2L1115.1,24.2z"/>
<path class="st17" d="M1119.1,28.6c1.2-1.7,1.8-3.7,1.8-5.7c0.1-2-0.6-4-1.8-5.7h1c1.3,1.6,1.9,3.6,1.8,5.7c0.1,2.1-0.6,4.1-1.8,5.7
	C1120.1,28.6,1119.1,28.6,1119.1,28.6z"/>
<path class="st18" d="M26,222.5c-0.8,0.4-1.8,0.6-2.7,0.6c-1.3,0.1-2.5-0.4-3.4-1.4s-1.3-2.2-1.3-3.5c-0.1-1.4,0.5-2.8,1.4-3.8
	s2.2-1.5,3.6-1.4c0.8,0,1.6,0.1,2.3,0.4v1.2c-0.7-0.4-1.5-0.6-2.3-0.6c-1,0-2,0.4-2.7,1.1c-0.7,0.8-1.1,1.9-1,3
	c-0.1,1,0.3,2.1,1,2.9c0.6,0.7,1.5,1.1,2.5,1c0.9,0,1.8-0.2,2.6-0.6V222.5z"/>
<path class="st18" d="M28.9,222.9h-1.1v-10.4h1.1V222.9z"/>
<path class="st18" d="M31.8,214.1c-0.2,0-0.4-0.1-0.5-0.2c-0.3-0.3-0.3-0.7,0-1c0.1-0.1,0.3-0.2,0.5-0.2s0.4,0.1,0.5,0.2
	c0.3,0.3,0.3,0.7,0,1C32.2,214.1,32,214.1,31.8,214.1z M32.3,222.9h-1.1v-7h1.1V222.9z"/>
<path class="st18" d="M40.2,219.7h-4.9c0,0.7,0.2,1.3,0.6,1.8c0.4,0.4,1,0.7,1.7,0.6c0.8,0,1.6-0.3,2.2-0.8v1.1
	c-0.7,0.5-1.6,0.7-2.4,0.7c-0.9,0-1.7-0.3-2.3-1c-0.6-0.8-0.9-1.7-0.8-2.7c0-1,0.3-1.9,0.9-2.7c0.6-0.7,1.4-1,2.3-1
	c0.8-0.1,1.6,0.3,2.1,0.9c0.5,0.7,0.8,1.6,0.8,2.5L40.2,219.7z M39.1,218.7c0-0.5-0.1-1.1-0.5-1.5c-0.3-0.4-0.8-0.6-1.3-0.5
	c-0.5,0-1,0.2-1.3,0.6c-0.4,0.4-0.6,0.9-0.7,1.5L39.1,218.7z"/>
<path class="st18" d="M47.7,222.9h-1.1v-4c0-1.5-0.5-2.2-1.6-2.2c-0.5,0-1,0.2-1.4,0.6c-0.4,0.4-0.6,1-0.5,1.6v4H42v-7h1v1.2l0,0
	c0.5-0.8,1.3-1.3,2.3-1.3c0.7,0,1.3,0.2,1.8,0.7c0.4,0.6,0.7,1.4,0.6,2.1L47.7,222.9z"/>
<path class="st18" d="M53.1,222.8c-0.3,0.2-0.7,0.2-1,0.2c-1.2,0-1.8-0.7-1.8-2.1v-4.1H49v-1h1.2v-1.7l1.1-0.4v2.1h1.8v1h-1.8v3.9
	c0,0.4,0.1,0.7,0.2,1c0.2,0.2,0.5,0.3,0.8,0.3s0.5-0.1,0.7-0.2L53.1,222.8z"/>
<path class="st18" d="M60.1,219.7h-4.9c0,0.7,0.2,1.3,0.6,1.8c0.4,0.4,1,0.7,1.7,0.6c0.8,0,1.6-0.3,2.2-0.8v1.1
	c-0.7,0.5-1.6,0.7-2.4,0.7c-0.9,0-1.7-0.3-2.3-1c-0.6-0.8-0.9-1.7-0.8-2.7c0-1,0.3-1.9,0.9-2.7c0.6-0.7,1.4-1,2.3-1
	c0.8-0.1,1.6,0.3,2.1,0.9c0.5,0.7,0.8,1.6,0.8,2.5L60.1,219.7z M58.9,218.7c0-0.5-0.1-1.1-0.5-1.5c-0.3-0.4-0.8-0.6-1.3-0.5
	c-0.5,0-1,0.2-1.3,0.6c-0.4,0.4-0.6,0.9-0.7,1.5L58.9,218.7z"/>
<path class="st18" d="M61.4,222.6v-1.2c0.6,0.4,1.3,0.7,2,0.7c1,0,1.5-0.3,1.5-1c0-0.2,0-0.3-0.1-0.5c-0.1-0.1-0.2-0.2-0.3-0.3
	c-0.2-0.1-0.3-0.2-0.5-0.3c-0.2-0.1-0.4-0.2-0.6-0.2s-0.6-0.2-0.8-0.4c-0.2-0.1-0.4-0.3-0.6-0.4c-0.2-0.2-0.3-0.3-0.4-0.5
	c-0.1-0.2-0.1-0.5-0.1-0.7c0-0.3,0.1-0.6,0.2-0.9c0.2-0.3,0.4-0.5,0.6-0.6c0.3-0.2,0.6-0.3,0.9-0.4c0.3-0.1,0.7-0.1,1-0.1
	c0.6,0,1.1,0.1,1.6,0.3v1.1c-0.5-0.3-1.1-0.5-1.8-0.5c-0.2,0-0.4,0-0.6,0.1c-0.2,0-0.3,0.1-0.4,0.2c-0.1,0.1-0.2,0.2-0.3,0.3
	s-0.1,0.3-0.1,0.4c0,0.2,0,0.3,0.1,0.4c0.1,0.1,0.2,0.2,0.3,0.3s0.3,0.2,0.5,0.3L64,219c0.3,0.1,0.6,0.2,0.8,0.4
	c0.2,0.1,0.4,0.3,0.6,0.4c0.2,0.2,0.3,0.3,0.4,0.6c0.2,0.5,0.2,1.1-0.1,1.6c-0.1,0.3-0.4,0.5-0.6,0.6c-0.3,0.2-0.6,0.3-0.9,0.4
	c-0.3,0.1-0.7,0.1-1,0.1C62.6,223.1,61.9,223,61.4,222.6z"/>
<path class="st18" d="M27.2,266.9h-1.4l-5.1-7.8c-0.1-0.2-0.2-0.4-0.3-0.6l0,0c0,0.4,0.1,0.9,0,1.4v7.1h-1.2v-9.8h1.5l4.9,7.7
	c0.1,0.2,0.3,0.4,0.4,0.7l0,0c-0.1-0.5-0.1-1-0.1-1.5v-6.9H27L27.2,266.9z"/>
<path class="st18" d="M35,266.9h-5.2v-9.8h5v1h-3.9v3.3h3.5v1h-3.5v3.4h4L35,266.9z"/>
<path class="st18" d="M42.7,258.1h-2.8v8.8h-1.1v-8.8H36v-1h6.8v1H42.7z"/>
<path class="st18" d="M47.5,267.1c-1.3,0.1-2.5-0.4-3.3-1.4c-0.9-1-1.3-2.3-1.3-3.6c-0.1-1.4,0.4-2.7,1.3-3.8c0.9-1,2.2-1.5,3.5-1.4
	c1.3-0.1,2.5,0.4,3.3,1.4c0.9,1,1.3,2.3,1.2,3.6c0.1,1.4-0.4,2.7-1.3,3.8C50.1,266.6,48.8,267.1,47.5,267.1z M47.6,258
	c-1,0-1.9,0.4-2.5,1.1c-0.7,0.8-1,1.9-1,2.9c0,1.1,0.3,2.1,0.9,2.9c0.6,0.7,1.5,1.1,2.5,1.1c1,0.1,1.9-0.3,2.5-1
	c0.7-0.8,1-1.9,0.9-3c0.1-1.1-0.3-2.1-0.9-3C49.4,258.3,48.5,258,47.6,258L47.6,258z"/>
<path class="st18" d="M62.2,257.1l-4.7,11.4h-1l4.7-11.4H62.2z"/>
<path class="st18" d="M73.9,266.5c-0.8,0.4-1.8,0.6-2.7,0.6c-1.3,0.1-2.5-0.4-3.3-1.4c-0.9-1-1.3-2.2-1.3-3.5
	c-0.1-1.4,0.5-2.8,1.4-3.8s2.2-1.5,3.6-1.5c0.8,0,1.6,0.1,2.3,0.4v1.2c-0.7-0.4-1.5-0.6-2.3-0.6c-1,0-2,0.4-2.7,1.1
	c-0.7,0.8-1.1,1.9-1,3c0,1,0.3,2.1,1,2.9c0.7,0.7,1.6,1,2.5,1s1.8-0.2,2.6-0.6L73.9,266.5z"/>
<path class="st18" d="M76.9,266.9h-1.1v-10.4h1.1V266.9z"/>
<path class="st18" d="M79.7,258.1c-0.2,0-0.4-0.1-0.5-0.2c-0.3-0.3-0.3-0.7,0-1c0.1-0.1,0.3-0.2,0.5-0.2s0.4,0.1,0.5,0.2
	c0.3,0.3,0.3,0.7,0,1C80.1,258,79.9,258.1,79.7,258.1z M80.3,266.9h-1.1v-7h1.1V266.9z"/>
<path class="st18" d="M88.2,263.7h-4.9c0,0.7,0.2,1.3,0.6,1.8c0.4,0.4,1,0.7,1.7,0.6c0.8,0,1.6-0.3,2.2-0.8v1.1
	c-0.7,0.5-1.6,0.7-2.4,0.7c-0.9,0-1.7-0.3-2.3-1c-0.6-0.8-0.9-1.7-0.8-2.7c0-1,0.3-1.9,0.9-2.7c0.6-0.7,1.4-1,2.3-1
	c0.8,0,1.6,0.3,2.1,0.9c0.5,0.7,0.8,1.6,0.8,2.5v0.6H88.2z M87,262.7c0-0.5-0.1-1.1-0.5-1.5c-0.3-0.4-0.8-0.6-1.3-0.5
	c-0.5,0-1,0.2-1.3,0.6c-0.4,0.4-0.6,0.9-0.7,1.5H87V262.7z"/>
<path class="st18" d="M95.7,266.9h-1.1v-4c0-1.5-0.5-2.2-1.6-2.2c-0.5,0-1.1,0.2-1.4,0.6c-0.4,0.4-0.6,1-0.6,1.6v4h-1.1v-7H91v1.2
	l0,0c0.5-0.8,1.3-1.3,2.3-1.3c0.7,0,1.3,0.2,1.8,0.7c0.4,0.6,0.7,1.4,0.6,2.1L95.7,266.9z"/>
<path class="st18" d="M101,266.8c-0.3,0.2-0.7,0.2-1,0.2c-1.2,0-1.8-0.7-1.8-2v-4.1H97v-1h1.2v-1.7l1.1-0.4v2.1h1.7v1h-1.7v3.9
	c0,0.4,0.1,0.7,0.2,1c0.2,0.2,0.5,0.3,0.8,0.3s0.5-0.1,0.7-0.2L101,266.8z"/>
<path class="st18" d="M108.1,263.7h-5c0,0.7,0.2,1.3,0.6,1.8c0.4,0.4,1,0.7,1.7,0.6c0.8,0,1.6-0.3,2.2-0.8v1.1
	c-0.7,0.5-1.6,0.7-2.4,0.7c-0.9,0-1.7-0.3-2.3-1c-0.6-0.8-0.9-1.7-0.8-2.7c0-1,0.3-1.9,0.9-2.7c0.6-0.7,1.4-1,2.3-1
	c0.8,0,1.6,0.3,2.1,0.9c0.5,0.7,0.8,1.6,0.8,2.5L108.1,263.7z M106.9,262.7c0-0.5-0.1-1.1-0.5-1.5c-0.3-0.4-0.8-0.6-1.3-0.5
	c-0.5,0-1,0.2-1.3,0.6c-0.4,0.4-0.6,0.9-0.7,1.5h3.8V262.7z"/>
<g class="st19">
	<path class="st18" d="M91.3,112.9h-1.1v-6.6c0-0.5,0-1.2,0.1-1.9l0,0c-0.1,0.3-0.2,0.7-0.3,1l-3.3,7.5H86l-3.3-7.5
		c-0.1-0.3-0.2-0.7-0.3-1l0,0c0,0.4,0,1,0,1.9v6.6h-1.1v-9.8h1.5l3,6.8c0.2,0.4,0.3,0.8,0.4,1.2l0,0c0.2-0.5,0.4-0.9,0.5-1.2
		l3.1-6.8h1.4L91.3,112.9z"/>
	<path class="st18" d="M100.5,112.5c-0.8,0.4-1.8,0.6-2.7,0.6c-1.3,0.1-2.5-0.4-3.3-1.3c-0.9-1-1.3-2.2-1.3-3.5
		c-0.1-1.4,0.5-2.8,1.4-3.8s2.2-1.5,3.6-1.4c0.8,0,1.6,0.1,2.3,0.4v1.2c-0.7-0.4-1.5-0.6-2.3-0.6c-1,0-2,0.4-2.7,1.1
		c-0.7,0.8-1.1,1.9-1,3c-0.1,1,0.3,2.1,1,2.8c0.7,0.7,1.6,1.1,2.5,1c0.9,0,1.8-0.2,2.6-0.7L100.5,112.5z"/>
	<path class="st18" d="M104,108c-0.6,0-1.2-0.2-1.6-0.7s-0.6-1.1-0.6-1.8c0-0.7,0.2-1.4,0.6-1.9s1.1-0.7,1.7-0.7s1.2,0.2,1.6,0.7
		s0.6,1.2,0.6,1.8c0,0.7-0.2,1.4-0.7,1.9C105.3,107.8,104.6,108,104,108z M104.1,103.7c-0.4,0-0.8,0.2-1,0.5
		c-0.3,0.4-0.4,0.9-0.4,1.3c0,0.5,0.1,0.9,0.4,1.3c0.2,0.3,0.6,0.5,1,0.5s0.8-0.2,1-0.5c0.3-0.4,0.4-0.9,0.4-1.3
		c0-0.5-0.1-0.9-0.4-1.3C104.9,103.8,104.5,103.7,104.1,103.7L104.1,103.7z M110.6,103.1l-6.3,9.9h-1l6.3-9.9H110.6z M109.8,113.1
		c-0.6,0-1.2-0.2-1.6-0.7s-0.6-1.1-0.6-1.8c0-0.7,0.2-1.4,0.7-1.9c0.4-0.5,1.1-0.8,1.7-0.7c0.6,0,1.2,0.2,1.6,0.7s0.6,1.2,0.6,1.8
		c0,0.7-0.2,1.4-0.7,1.9C111.1,112.8,110.5,113.1,109.8,113.1L109.8,113.1z M109.9,108.8c-0.4,0-0.8,0.2-1,0.5
		c-0.3,0.4-0.4,0.9-0.4,1.3c0,0.5,0.1,0.9,0.4,1.3c0.2,0.3,0.6,0.5,1,0.5s0.8-0.2,1-0.5c0.3-0.4,0.4-0.9,0.4-1.3
		c0-0.5-0.1-0.9-0.3-1.3C110.7,108.9,110.3,108.7,109.9,108.8L109.9,108.8z"/>
</g>
<path class="st18" d="M91.3,135.9h-1.1v-6.6c0-0.5,0-1.2,0.1-1.9l0,0c-0.1,0.3-0.2,0.7-0.3,1l-3.3,7.5H86l-3.3-7.5
	c-0.1-0.3-0.2-0.7-0.3-1l0,0c0,0.4,0,1,0,1.9v6.6h-1.1v-9.8h1.5l3,6.8c0.2,0.4,0.3,0.8,0.4,1.2l0,0c0.2-0.5,0.4-0.9,0.5-1.2l3.1-6.8
	h1.4L91.3,135.9z"/>
<path class="st18" d="M100.5,135.5c-0.8,0.4-1.8,0.6-2.7,0.6c-1.3,0.1-2.5-0.4-3.3-1.4c-0.9-1-1.3-2.2-1.3-3.5
	c-0.1-1.4,0.5-2.8,1.4-3.8s2.2-1.5,3.6-1.4c0.8,0,1.6,0.1,2.3,0.4v1.2c-0.7-0.4-1.5-0.6-2.3-0.6c-1,0-2,0.4-2.7,1.1
	c-0.7,0.8-1.1,1.9-1,3c-0.1,1,0.3,2.1,1,2.9c0.7,0.7,1.6,1.1,2.5,1c0.9,0,1.8-0.2,2.6-0.6L100.5,135.5z"/>
<g class="st20">
	<path class="st21" d="M78,107h-1c-1.1,0-2,0.9-2,2v20c0,1.1,0.9,2,2,2h1"/>
	<line class="st21" x1="68.1" y1="119" x2="75" y2="119"/>
</g>
<path class="st6" d="M460,92h-88c-6.6,0-12,5.4-12,12v32c0,6.6,5.4,12,12,12h88c6.6,0,12-5.4,12-12v-32C472,97.4,466.6,92,460,92z
	 M380,122v14c0,3.3-2.7,6-6,6s-6-2.7-6-6v-14H380z M368,118v-14c0-3.3,2.7-6,6-6s6,2.7,6,6v14H368z"/>
<path class="st7" d="M372,8h88c6.6,0,12,5.4,12,12v4c0,6.6-5.4,12-12,12h-88c-6.6,0-12-5.4-12-12v-4C360,13.4,365.4,8,372,8z"/>
<path class="st8" d="M460,48h-88c-6.6,0-12,5.4-12,12v12c0,6.6,5.4,12,12,12h88c6.6,0,12-5.4,12-12V60C472,53.4,466.6,48,460,48z
	 M380,72c0,3.3-2.7,6-6,6s-6-2.7-6-6V60c0-3.3,2.7-6,6-6s6,2.7,6,6V72z"/>
<path class="st9" d="M460,156h-88c-6.6,0-12,5.4-12,12v12c0,6.6,5.4,12,12,12h88c6.6,0,12-5.4,12-12v-12
	C472,161.4,466.6,156,460,156z M380,180c0,3.3-2.7,6-6,6s-6-2.7-6-6v-12c0-3.3,2.7-6,6-6s6,2.7,6,6V180z"/>
<path class="st10" d="M460,200h-88c-6.6,0-12,5.4-12,12v12c0,6.6,5.4,12,12,12h88c6.6,0,12-5.4,12-12v-12
	C472,205.4,466.6,200,460,200z M380,224c0,3.3-2.7,6-6,6s-6-2.7-6-6v-12c0-3.3,2.7-6,6-6s6,2.7,6,6V224z"/>
<linearGradient id="SVGID_00000113315243715286670410000003359050523572686013_" gradientUnits="userSpaceOnUse" x1="416" y1="834" x2="416" y2="798" gradientTransform="matrix(1 0 0 1 0 -554)">
	<stop  offset="0" style="stop-color:#51605C"/>
	<stop  offset="1" style="stop-color:#414951"/>
</linearGradient>
<path style="fill:url(#SVGID_00000113315243715286670410000003359050523572686013_);" d="M460,244h-88c-6.6,0-12,5.4-12,12v12
	c0,6.6,5.4,12,12,12h88c6.6,0,12-5.4,12-12v-12C472,249.4,466.6,244,460,244z M380,268c0,3.3-2.7,6-6,6s-6-2.7-6-6v-12
	c0-3.3,2.7-6,6-6s6,2.7,6,6V268z"/>
<g>
	<g>
		<path class="st17" d="M384.2,27h-1.4l-5-7.8c-0.1-0.2-0.2-0.4-0.3-0.6h0c0,0.2,0.1,0.7,0.1,1.3V27h-1.1v-9.8h1.5l4.9,7.7
			c0.2,0.3,0.3,0.5,0.4,0.7h0c0-0.3-0.1-0.8-0.1-1.4v-6.9h1.1V27z"/>
		<path class="st17" d="M387.1,27.2c-0.2,0-0.4-0.1-0.5-0.2s-0.2-0.3-0.2-0.5s0.1-0.4,0.2-0.5s0.3-0.2,0.5-0.2
			c0.2,0,0.4,0.1,0.5,0.2s0.2,0.3,0.2,0.5s-0.1,0.4-0.2,0.5S387.3,27.2,387.1,27.2z"/>
		<path class="st17" d="M399.5,27h-1.1v-1.2h0c-0.5,0.9-1.3,1.4-2.4,1.4c-0.9,0-1.6-0.3-2.1-0.9s-0.8-1.5-0.8-2.6
			c0-1.2,0.3-2.1,0.9-2.8s1.4-1,2.3-1c1,0,1.7,0.4,2.1,1.1h0v-4.3h1.1V27z M398.4,23.8v-1c0-0.6-0.2-1-0.6-1.4s-0.8-0.6-1.4-0.6
			c-0.7,0-1.2,0.3-1.6,0.8s-0.6,1.2-0.6,2.1c0,0.8,0.2,1.4,0.6,1.9s0.9,0.7,1.5,0.7c0.6,0,1.1-0.2,1.5-0.7S398.4,24.5,398.4,23.8z"
			/>
		<path class="st17" d="M407.4,23.8h-4.9c0,0.8,0.2,1.4,0.6,1.8s1,0.6,1.7,0.6c0.8,0,1.5-0.3,2.2-0.8v1.1c-0.6,0.4-1.4,0.7-2.4,0.7
			c-1,0-1.8-0.3-2.3-1s-0.8-1.5-0.8-2.7c0-1.1,0.3-2,0.9-2.7s1.4-1,2.3-1s1.6,0.3,2.1,0.9s0.8,1.4,0.8,2.5V23.8z M406.3,22.8
			c0-0.6-0.2-1.2-0.5-1.5s-0.7-0.5-1.3-0.5c-0.5,0-1,0.2-1.3,0.6s-0.6,0.9-0.7,1.5H406.3z"/>
		<path class="st17" d="M419.8,26.6c-0.7,0.4-1.6,0.6-2.7,0.6c-1.4,0-2.5-0.4-3.3-1.3s-1.3-2.1-1.3-3.5c0-1.6,0.5-2.8,1.4-3.8
			s2.1-1.4,3.6-1.4c0.9,0,1.7,0.1,2.3,0.4v1.2c-0.7-0.4-1.5-0.6-2.3-0.6c-1.1,0-2,0.4-2.7,1.1s-1,1.8-1,3c0,1.2,0.3,2.1,1,2.9
			s1.5,1.1,2.6,1.1c1,0,1.8-0.2,2.6-0.7V26.6z"/>
		<path class="st17" d="M425.3,21.1c-0.2-0.2-0.5-0.2-0.8-0.2c-0.5,0-0.9,0.2-1.2,0.7s-0.5,1.1-0.5,1.8V27h-1.1v-7h1.1v1.4h0
			c0.2-0.5,0.4-0.9,0.7-1.2s0.7-0.4,1.1-0.4c0.3,0,0.5,0,0.7,0.1V21.1z"/>
		<path class="st17" d="M431.9,23.8H427c0,0.8,0.2,1.4,0.6,1.8s1,0.6,1.7,0.6c0.8,0,1.5-0.3,2.2-0.8v1.1c-0.6,0.4-1.4,0.7-2.4,0.7
			c-1,0-1.8-0.3-2.3-1s-0.8-1.5-0.8-2.7c0-1.1,0.3-2,0.9-2.7s1.4-1,2.3-1s1.6,0.3,2.1,0.9s0.8,1.4,0.8,2.5V23.8z M430.8,22.8
			c0-0.6-0.2-1.2-0.5-1.5s-0.7-0.5-1.3-0.5c-0.5,0-1,0.2-1.3,0.6s-0.6,0.9-0.7,1.5H430.8z"/>
		<path class="st17" d="M439.6,27h-1.1v-1.2h0c-0.5,0.9-1.3,1.4-2.4,1.4c-0.9,0-1.6-0.3-2.1-0.9s-0.8-1.5-0.8-2.6
			c0-1.2,0.3-2.1,0.9-2.8s1.4-1,2.3-1c1,0,1.7,0.4,2.1,1.1h0v-4.3h1.1V27z M438.5,23.8v-1c0-0.6-0.2-1-0.6-1.4s-0.8-0.6-1.4-0.6
			c-0.7,0-1.2,0.3-1.6,0.8s-0.6,1.2-0.6,2.1c0,0.8,0.2,1.4,0.6,1.9s0.9,0.7,1.5,0.7c0.6,0,1.1-0.2,1.5-0.7S438.5,24.5,438.5,23.8z"
			/>
		<path class="st17" d="M442.4,18.2c-0.2,0-0.4-0.1-0.5-0.2s-0.2-0.3-0.2-0.5s0.1-0.4,0.2-0.5s0.3-0.2,0.5-0.2
			c0.2,0,0.4,0.1,0.5,0.2s0.2,0.3,0.2,0.5c0,0.2-0.1,0.4-0.2,0.5S442.6,18.2,442.4,18.2z M443,27h-1.1v-7h1.1V27z"/>
		<path class="st17" d="M448.5,26.9c-0.3,0.1-0.6,0.2-1,0.2c-1.2,0-1.8-0.7-1.8-2.1V21h-1.2v-1h1.2v-1.7l1.1-0.4V20h1.8v1h-1.8v3.9
			c0,0.5,0.1,0.8,0.2,1s0.4,0.3,0.8,0.3c0.3,0,0.5-0.1,0.7-0.2V26.9z"/>
		<path class="st17" d="M452.8,27.2c-1,0-1.9-0.3-2.5-1s-0.9-1.5-0.9-2.6c0-1.2,0.3-2.1,1-2.8s1.5-1,2.6-1c1,0,1.9,0.3,2.4,1
			s0.9,1.5,0.9,2.7c0,1.1-0.3,2-0.9,2.7S453.9,27.2,452.8,27.2z M452.9,20.8c-0.7,0-1.3,0.2-1.7,0.7s-0.6,1.2-0.6,2
			c0,0.8,0.2,1.5,0.6,2s1,0.7,1.7,0.7c0.7,0,1.3-0.2,1.7-0.7s0.6-1.1,0.6-2c0-0.9-0.2-1.5-0.6-2S453.6,20.8,452.9,20.8z"/>
	</g>
</g>
</svg>
